<svg width="180" height="180" viewBox="0 0 180 180" fill="none" xmlns="http://www.w3.org/2000/svg">
<circle cx="90" cy="90" r="90" fill="white"/>
<path d="M120.652 40.0193L105.881 40.0141L120.568 40.0251C120.596 40.0251 120.623 40.0193 120.652 40.0193Z" fill="#E02F41"/>
<path d="M49.3042 130.333L66.778 49.672C67.9286 44.3956 74.3312 40.1185 79.4199 40.0099L45.5217 40C40.4045 40 33.8438 44.3268 32.6744 49.672L15.2005 130.333C15.0942 130.826 15.0352 131.308 15 131.78V133.276C15.3421 137.13 18.1621 139.936 22.2158 140H56.3195C51.2849 139.921 48.1488 135.619 49.3042 130.333Z" fill="#ED1C24"/>
<path d="M105.881 40.0151L79.623 39.9999C79.557 39.9999 79.4885 40.0052 79.4199 40.0098L105.881 40.0151Z" fill="#2E4F7D"/>
<path d="M90.5534 130.333L108.022 49.672C109.173 44.4347 115.493 40.1874 120.568 40.0252L105.881 40.0152L79.4201 40.0099C74.3314 40.1185 67.9289 44.3956 66.7782 49.672L49.3044 130.333C48.1491 135.619 51.2852 139.921 56.3197 140H97.5716C92.5338 139.921 89.4023 135.619 90.5534 130.333Z" fill="#176FC1"/>
<path d="M157.6 40.0298L120.661 40.0199C120.657 40.0199 120.652 40.0199 120.652 40.0199C120.623 40.0199 120.596 40.0252 120.568 40.0252C115.493 40.1874 109.173 44.4347 108.022 49.672L90.5531 130.333C89.402 135.619 92.5335 139.921 97.5713 140H102.566H125.449H136.377C141.338 139.744 146.159 135.545 147.29 130.368L164.759 49.7057C165.929 44.3658 162.722 40.0298 157.6 40.0298Z" fill="#059EA9"/>
<path d="M80.1343 98.7851H80.7759C81.3654 98.7851 81.762 98.5787 81.9479 98.17L83.6149 95.5666H88.079L87.1481 97.2789H92.5006L91.8216 99.9026H85.4526C84.719 101.054 83.816 101.596 82.7303 101.531H79.4128L80.1343 98.7851ZM79.4014 102.545H91.128L90.3805 105.395H85.6645L84.9449 108.146H89.534L88.7865 110.996H84.1974L83.1313 115.061C82.8674 115.741 83.2145 116.046 84.1669 115.977H87.907L87.2141 118.625H80.0334C78.6723 118.625 78.2054 117.813 78.6323 116.184L79.9954 110.996H77.062L77.8071 108.146H80.741L81.4599 105.395H78.6558L79.4014 102.545ZM98.1183 95.5471L97.9336 97.2155C97.9336 97.2155 100.146 95.4825 102.155 95.4825H109.578L106.739 106.207C106.504 107.433 105.494 108.043 103.711 108.043H95.2971L93.3261 115.573C93.2125 115.977 93.3731 116.184 93.7976 116.184H95.4531L94.8446 118.521H90.6356C89.02 118.521 88.348 118.014 88.6145 116.996L94.184 95.5471H98.1183ZM104.405 98.5787H97.7788L96.9862 101.472C96.9862 101.472 98.0897 100.641 99.9337 100.611C101.773 100.581 103.872 100.611 103.872 100.611L104.405 98.5787ZM102.004 105.292C102.494 105.361 102.768 105.159 102.801 104.681L103.207 103.156H96.5706L96.0141 105.292H102.004ZM97.5281 108.757H101.354L101.282 110.484H102.301C102.815 110.484 103.07 110.312 103.07 109.973L103.372 108.855H106.551L106.126 110.484C105.767 111.842 104.815 112.551 103.268 112.621H101.231L101.221 115.573C101.184 116.046 101.594 116.287 102.438 116.287H104.353L103.735 118.625H99.1412C97.8537 118.689 97.2223 118.049 97.2356 116.691L97.5281 108.757Z" fill="white"/>
<path d="M113.786 98.9033L114.673 95.6454H119.158L118.964 96.8409C118.964 96.8409 121.256 95.6454 122.907 95.6454C124.558 95.6454 128.453 95.6454 128.453 95.6454L127.571 98.9033H126.699L122.515 114.269H123.388L122.558 117.321H121.685L121.322 118.644H116.979L117.341 117.321H108.772L109.607 114.269H110.466L114.653 98.9033H113.786ZM118.625 98.9033L117.483 103.062C117.483 103.062 119.436 102.28 121.12 102.058C121.492 100.606 121.978 98.9033 121.978 98.9033H118.625ZM116.955 105.011L115.809 109.367C115.809 109.367 117.974 108.255 119.459 108.161C119.888 106.478 120.318 105.011 120.318 105.011H116.955ZM117.794 114.269L118.653 111.109H115.305L114.442 114.269H117.794ZM128.642 95.4436H132.858L133.037 97.0673C133.009 97.4806 133.245 97.678 133.745 97.678H134.49L133.736 100.429H130.637C129.453 100.493 128.845 100.021 128.788 99.0016L128.642 95.4436ZM127.406 101.345H141.065L140.263 104.298H135.914L135.169 107.044H139.513L138.707 109.992H133.868L132.773 111.72H135.142L135.689 115.18C135.754 115.524 136.046 115.691 136.546 115.691H137.282L136.509 118.541H133.905C132.556 118.61 131.859 118.137 131.802 117.119L131.174 113.959L129.019 117.321C128.51 118.27 127.727 118.713 126.671 118.644H122.695L123.468 115.794H124.709C125.218 115.794 125.642 115.558 126.024 115.081L129.397 109.992H125.048L125.854 107.044H130.571L131.321 104.298H126.6L127.406 101.345Z" fill="white"/>
<path d="M51.177 81.2589C50.6581 83.9119 49.4555 85.9494 47.5899 87.3964C45.7413 88.8188 43.357 89.5322 40.4379 89.5322C37.6907 89.5322 35.6767 88.8038 34.3914 87.3421C33.5001 86.3035 33.0566 84.9846 33.0566 83.3899C33.0566 82.7305 33.1323 82.0218 33.2832 81.2589L36.3935 65.6082H41.091L38.0231 81.0818C37.9286 81.5101 37.8909 81.9088 37.8959 82.2681C37.8909 83.0606 38.0795 83.7101 38.4615 84.2168C39.018 84.9701 39.9213 85.3439 41.1783 85.3439C42.6236 85.3439 43.8146 84.975 44.7389 84.2316C45.6635 83.4934 46.2671 82.4453 46.5382 81.0818L49.6158 65.6082H54.2895L51.177 81.2589Z" fill="white"/>
<path d="M55.5036 75.097H58.8214L58.442 77.1149L58.9181 76.5391C59.9936 75.3383 61.2999 74.7426 62.8422 74.7426C64.2382 74.7426 65.2451 75.1661 65.8772 76.0174C66.4995 76.8689 66.6693 78.0453 66.3749 79.5562L64.5471 89.0747H61.1373L62.7879 80.4471C62.958 79.5562 62.9109 78.8917 62.6486 78.4634C62.3896 78.0352 61.8941 77.8239 61.1797 77.8239C60.3025 77.8239 59.5643 78.109 58.963 78.6752C58.3591 79.2461 57.9608 80.0386 57.765 81.0474L56.244 89.0747H52.8271L55.5036 75.097Z" fill="white"/>
<path d="M93.5519 75.097H96.8725L96.4956 77.1149L96.9664 76.5391C98.0426 75.3383 99.3536 74.7426 100.891 74.7426C102.287 74.7426 103.296 75.1661 103.923 76.0174C104.542 76.8689 104.721 78.0453 104.419 79.5562L102.598 89.0747H99.1836L100.835 80.4471C101.005 79.5562 100.957 78.8917 100.698 78.4634C100.429 78.0352 99.9425 77.8239 99.2312 77.8239C98.3536 77.8239 97.6181 78.109 97.0096 78.6752C96.4055 79.2461 96.0051 80.0386 95.8166 81.0474L94.2886 89.0747H90.876L93.5519 75.097Z" fill="white"/>
<path d="M70.9048 75.102H74.5838L71.702 89.0698H68.0303L70.9048 75.102ZM72.0629 70.0132H75.7746L75.0813 73.4036H71.3698L72.0629 70.0132Z" fill="white"/>
<path d="M77.8404 88.0066C76.8782 87.0469 76.3924 85.7526 76.3877 84.1087C76.3877 83.828 76.4041 83.5083 76.4397 83.1586C76.4752 82.8042 76.5201 82.4597 76.5835 82.14C77.0198 79.8712 77.949 78.0698 79.3803 76.7408C80.8093 75.4071 82.5334 74.7377 84.5519 74.7377C86.2049 74.7377 87.5159 75.2201 88.476 76.1847C89.4354 77.1544 89.9164 78.4633 89.9164 80.1273C89.9164 80.4123 89.8955 80.7422 89.8599 81.0965C89.8174 81.4558 89.766 81.8003 89.7064 82.14C89.28 84.3743 88.3535 86.1561 86.922 87.4605C85.4904 88.7746 83.7714 89.4287 81.7668 89.4287C80.1068 89.4287 78.8003 88.9564 77.8404 88.0066ZM84.8514 85.2406C85.4999 84.5073 85.9644 83.3948 86.2474 81.9136C86.2899 81.6824 86.3274 81.441 86.3509 81.2C86.3743 80.9636 86.3839 80.7422 86.3839 80.5404C86.3839 79.679 86.1738 79.0099 85.7518 78.5373C85.3324 78.0597 84.7359 77.8238 83.9649 77.8238C82.9458 77.8238 82.1158 78.1974 81.4654 78.9457C80.8093 79.694 80.3448 80.8259 80.0523 82.3319C80.0123 82.5632 79.9793 82.7947 79.9488 83.021C79.9253 83.2523 79.9184 83.4688 79.9228 83.6656C79.9228 84.5221 80.1328 85.1817 80.5548 85.6491C80.9743 86.1168 81.5682 86.348 82.3493 86.348C83.3729 86.348 84.2029 85.9789 84.8514 85.2406Z" fill="white"/>
<path d="M109.965 66.4347H119.606C121.459 66.4347 122.893 66.8731 123.878 67.7339C124.859 68.6054 125.35 69.8556 125.35 71.4846V71.5336C125.35 71.8435 125.331 72.1931 125.303 72.5719C125.255 72.946 125.193 73.3248 125.114 73.7188C124.69 75.8746 123.704 77.6071 122.181 78.9212C120.652 80.2303 118.842 80.8899 116.757 80.8899H111.587L109.989 89.0747H105.513L109.965 66.4347ZM112.375 76.9527H116.662C117.78 76.9527 118.666 76.6816 119.313 76.1454C119.955 75.604 120.379 74.7773 120.614 73.6553C120.652 73.448 120.676 73.2612 120.704 73.0891C120.719 72.9268 120.737 72.7639 120.737 72.607C120.737 71.8044 120.464 71.2237 119.916 70.8595C119.369 70.49 118.512 70.3132 117.322 70.3132H113.681L112.375 76.9527Z" fill="white"/>
<path d="M145.385 91.777C143.97 94.9168 142.621 96.7474 141.829 97.5989C141.036 98.4409 139.466 100.4 135.684 100.252L136.009 97.8552C139.192 96.8315 140.914 92.2194 141.895 90.1772L140.725 75.1364L143.187 75.102H145.253L145.475 84.5369L149.346 75.102H153.266L145.385 91.777Z" fill="white"/>
<path d="M134.424 76.2387L132.867 77.3562C131.24 76.0274 129.755 75.2054 126.888 76.5931C122.982 78.483 119.719 92.9777 130.472 88.2035L131.085 88.9613L135.315 89.0747L138.093 75.904L134.424 76.2387ZM132.019 83.4393C131.339 85.5311 129.821 86.914 128.633 86.5203C127.444 86.1364 127.02 84.1183 127.708 82.0218C128.387 79.925 129.915 78.5471 131.094 78.9408C132.283 79.3247 132.712 81.3425 132.019 83.4393Z" fill="white"/>
</svg>
