<svg width="180" height="180" viewBox="0 0 180 180" fill="none" xmlns="http://www.w3.org/2000/svg">
<circle cx="90" cy="90" r="90" fill="#FF4D00"/>
<path d="M144.115 65.551C146.295 66.2581 147.328 68.6517 146.467 70.8277C145.721 72.6773 144.975 73.1125 142.566 73.1125C139.926 73.1125 138.492 71.8069 138.492 69.3045C138.492 67.3461 139.467 65.9862 141.361 65.3334C141.82 65.1702 142.221 65.007 142.279 65.007C142.336 64.9526 143.139 65.2246 144.115 65.551ZM33.4868 66.3126C35.6099 67.3461 36.3558 68.6517 36.3558 71.4805C36.3558 74.2005 33.9459 76.9204 31.4785 76.9204C29.0112 76.9204 26.6013 74.2005 26.6013 71.4805C26.6013 68.7061 27.2898 67.4005 29.3555 66.3669C31.3064 65.3334 31.4785 65.3334 33.4868 66.3126ZM84.4399 67.6725C89.2598 69.7397 90.8665 72.2965 89.1451 75.3428C88.2844 76.7572 87.3663 76.6484 83.5219 74.6357C80.8824 73.2213 79.6201 72.8405 76.9806 72.8405C72.7919 72.8405 70.7836 74.3637 70.7836 77.5732C70.7836 80.0756 71.7017 80.7284 77.6691 82.3604C86.6777 84.8627 89.7189 87.3107 90.1779 92.4243C90.8091 99.605 85.9318 104.501 77.6691 105.099C67.6851 105.752 59.365 100.475 63.2669 95.9058L64.4144 94.6002L68.0294 96.5042C71.1852 98.1362 72.1607 98.4082 75.7756 98.4082C79.3332 98.4082 80.0791 98.245 81.3414 97.1026C83.0628 95.5794 83.2924 93.5122 81.8579 92.0435C81.3414 91.4995 78.3577 90.3027 75.2592 89.3779C72.1607 88.5075 68.7179 87.2563 67.6277 86.6579C61.4881 83.1764 61.4881 73.4389 67.6851 68.9781C71.8738 65.9318 78.9315 65.3878 84.4399 67.6725ZM132.581 68.2165C133.614 70.1749 133.614 101.074 132.581 103.032C131.549 104.991 129.196 105.643 127.36 104.447L125.868 103.576V85.8963C125.868 66.1494 125.811 66.367 129.827 66.6933C131.319 66.8021 132.065 67.1829 132.581 68.2165ZM162.075 71.2629C162.476 71.7525 162.821 73.4389 162.821 75.0165L162.878 77.8996L165.69 78.1716C168.731 78.4436 169.477 79.0964 169.477 81.6532C169.477 83.7204 169.132 83.9923 165.575 84.4819C164.083 84.6451 162.935 85.0259 163.05 85.2435C163.107 85.4611 163.165 88.2899 163.165 91.5539C163.165 98.1362 163.624 99.2242 166.608 99.2242C169.591 99.2242 170.968 101.672 169.247 103.903C168.157 105.263 162.993 105.208 159.952 103.794C156.509 102.162 155.648 99.877 155.246 91.6083C154.96 84.6451 154.96 84.5363 153.64 84.5363C152.091 84.5363 149.967 82.7956 149.967 81.49C149.967 79.858 151.172 78.6068 153.066 78.2804C154.902 77.954 155.017 77.7908 155.304 74.9077C155.476 73.2757 155.935 71.5893 156.337 71.1541C157.255 70.1205 161.099 70.1749 162.075 71.2629ZM100.334 78.0084C101.137 78.2804 102.055 79.1508 102.342 79.9124L102.859 81.2724L104.236 79.9668C107.449 76.9204 112.843 76.9204 116.573 79.9124C120.646 83.1764 122.311 92.3699 119.958 98.245C117.318 104.664 109.63 107.221 104.638 103.25L102.916 101.835V107.112C102.916 111.954 102.801 112.443 101.482 113.64C100.736 114.402 99.8177 115 99.4734 115C98.5553 115 96.4323 113.858 95.9159 113.15C95.6864 112.824 95.4568 105.208 95.4568 96.2322C95.4568 87.2563 95.6864 79.6404 95.9159 79.314C96.2028 78.8788 98.2111 77.5732 98.7275 77.4644C98.7849 77.4644 99.4734 77.682 100.334 78.0084ZM145.377 78.8788C146.582 79.9668 146.926 100.965 145.779 103.032C144.746 104.991 142.393 105.643 140.557 104.447L139.065 103.576V91.7171C139.065 79.586 139.238 78.5524 141.361 77.8452C142.508 77.4644 144.287 77.954 145.377 78.8788ZM21.724 83.1764C23.4454 84.8083 23.5601 86.6579 21.9535 88.5619C20.8633 89.8675 20.4616 89.9763 16.2729 89.9763C12.2564 89.9763 11.6252 89.8675 10.8792 88.7795C9.61689 87.0931 9.73165 84.2099 11.1088 82.9044C12.0268 82.034 13.0023 81.8164 16.2729 81.8164C19.8305 81.8164 20.519 81.9796 21.724 83.1764ZM36.7575 83.0132C38.4215 84.4819 38.5362 87.3651 36.9296 88.8883C36.0115 89.7587 35.0361 89.9763 31.4785 89.9763C27.921 89.9763 26.9455 89.7587 26.0275 88.8883C24.4782 87.4195 24.5356 84.6995 26.1422 83.0676C27.1751 81.9796 27.921 81.8164 31.4212 81.8164C34.7492 81.8164 35.6672 82.034 36.7575 83.0132ZM51.8483 82.9044C53.2828 84.2643 53.3976 87.5827 52.0204 88.9971C51.2745 89.7587 50.2417 89.9763 46.6268 89.9763C42.4954 89.9763 42.0938 89.8675 41.0036 88.5619C39.3969 86.6579 39.5117 84.8083 41.2331 83.1764C42.438 81.9796 43.1266 81.8164 46.6841 81.8164C49.9548 81.8164 50.9302 82.034 51.8483 82.9044ZM33.4868 95.6882C35.6099 96.7218 36.3558 98.0274 36.3558 100.856C36.3558 103.576 33.9459 106.296 31.4785 106.296C29.0112 106.296 26.6013 103.576 26.6013 100.856C26.6013 98.0818 27.2898 96.7762 29.3555 95.7426C31.3064 94.709 31.4785 94.709 33.4868 95.6882Z" fill="white"/>
<path d="M104.695 85.4612C103.088 87.3652 102.744 88.8339 103.031 92.7507C103.318 96.8307 105.154 98.9522 108.367 98.8434C110.777 98.789 111.982 97.9186 113.072 95.5795C114.564 92.0979 113.359 85.7876 110.892 84.5364C108.826 83.4484 105.957 83.8836 104.695 85.4612Z" fill="#FF4D00"/>
</svg>
