<svg width="180" height="180" viewBox="0 0 180 180" fill="none" xmlns="http://www.w3.org/2000/svg">
<circle cx="90" cy="90" r="90" fill="white"/>
<path d="M96.4839 27.3238C103.398 30.6243 105.827 34.7933 105.827 43.8262C105.827 52.5116 97.9787 61.1971 89.944 61.1971C81.9093 61.1971 74.0614 52.5116 74.0614 43.8262C74.0614 34.967 76.3036 30.798 83.0304 27.4975C89.3834 24.197 89.944 24.1971 96.4839 27.3238ZM58.1787 81.1736C63.7844 86.3849 64.1581 92.291 58.9261 98.3708C55.3759 102.54 54.0679 102.887 40.4276 102.887C27.3477 102.887 25.2923 102.54 22.8632 99.0657C18.7524 93.6807 19.1261 84.4741 23.6106 80.3051C26.6003 77.5257 29.7768 76.8309 40.4276 76.8309C52.0125 76.8309 54.2548 77.352 58.1787 81.1736ZM107.135 80.6525C112.553 85.3426 112.927 94.5492 107.695 99.4131C104.705 102.192 101.529 102.887 89.944 102.887C78.359 102.887 75.1825 102.192 72.1928 99.4131C67.1477 94.7229 67.3346 86.0375 72.5665 80.8262C75.9299 77.352 78.359 76.8309 89.7571 76.8309C100.595 76.8309 103.584 77.5257 107.135 80.6525ZM156.277 80.3051C160.949 84.6478 161.322 95.2441 156.838 99.7605C154.409 102.192 151.045 102.887 139.274 102.887C125.82 102.887 124.512 102.54 120.962 98.3708C115.73 92.291 116.104 86.3849 121.709 81.1736C125.633 77.352 127.875 76.8309 139.46 76.8309C150.111 76.8309 153.288 77.5257 156.277 80.3051ZM96.4839 121.127C103.398 124.427 105.827 128.596 105.827 137.629C105.827 146.315 97.9787 155 89.944 155C81.9093 155 74.0614 146.315 74.0614 137.629C74.0614 128.77 76.3036 124.601 83.0304 121.3C89.3834 118 89.944 118 96.4839 121.127Z" fill="#FF4D00"/>
</svg>
