<svg width="160" height="50" viewBox="0 0 160 50" fill="none" xmlns="http://www.w3.org/2000/svg">
<path d="M134.115 0.550957C136.295 1.25815 137.328 3.65173 136.467 5.8277C135.721 7.67728 134.975 8.11248 132.566 8.11248C129.926 8.11248 128.492 6.80689 128.492 4.30452C128.492 2.34614 129.467 0.986153 131.361 0.333363C131.82 0.170162 132.221 0.00696182 132.279 0.00696182C132.336 -0.0474358 133.139 0.22456 134.115 0.550957ZM23.4868 1.31255C25.6099 2.34614 26.3558 3.65173 26.3558 6.48049C26.3558 9.20046 23.9459 11.9204 21.4785 11.9204C19.0112 11.9204 16.6013 9.20046 16.6013 6.48049C16.6013 3.70612 17.2898 2.40054 19.3555 1.36695C21.3064 0.333359 21.4785 0.333363 23.4868 1.31255ZM74.4399 2.67253C79.2598 4.73971 80.8665 7.29648 79.1451 10.3428C78.2844 11.7572 77.3663 11.6484 73.5219 9.63566C70.8824 8.22128 69.6201 7.84048 66.9806 7.84048C62.7919 7.84048 60.7836 9.36366 60.7836 12.5732C60.7836 15.0756 61.7017 15.7284 67.6691 17.3604C76.6777 19.8627 79.7189 22.3107 80.1779 27.4243C80.8091 34.605 75.9318 39.5009 67.6691 40.0993C57.6851 40.7521 49.365 35.4754 53.2669 30.9058L54.4144 29.6002L58.0294 31.5042C61.1852 33.1362 62.1607 33.4082 65.7756 33.4082C69.3332 33.4082 70.0791 33.245 71.3414 32.1026C73.0628 30.5794 73.2924 28.5122 71.8579 27.0435C71.3414 26.4995 68.3577 25.3027 65.2592 24.3779C62.1607 23.5075 58.7179 22.2563 57.6277 21.6579C51.4881 18.1764 51.4881 8.43887 57.6851 3.97812C61.8738 0.931755 68.9315 0.387764 74.4399 2.67253ZM122.581 3.21653C123.614 5.17491 123.614 36.0738 122.581 38.0321C121.549 39.9905 119.196 40.6433 117.36 39.4465L115.868 38.5761V20.8963C115.868 1.14935 115.811 1.36695 119.827 1.69335C121.319 1.80214 122.065 2.18294 122.581 3.21653ZM152.075 6.26289C152.476 6.75249 152.821 8.43887 152.821 10.0165L152.878 12.8996L155.69 13.1716C158.731 13.4436 159.477 14.0964 159.477 16.6532C159.477 18.7204 159.132 18.9923 155.575 19.4819C154.083 19.6451 152.935 20.0259 153.05 20.2435C153.107 20.4611 153.165 23.2899 153.165 26.5539C153.165 33.1362 153.624 34.2242 156.608 34.2242C159.591 34.2242 160.968 36.6722 159.247 38.9025C158.157 40.2625 152.993 40.2081 149.952 38.7937C146.509 37.1617 145.648 34.877 145.246 26.6083C144.96 19.6451 144.96 19.5363 143.64 19.5363C142.091 19.5363 139.967 17.7956 139.967 16.49C139.967 14.858 141.172 13.6068 143.066 13.2804C144.902 12.954 145.017 12.7908 145.304 9.90766C145.476 8.27568 145.935 6.58929 146.337 6.15409C147.255 5.12051 151.099 5.1749 152.075 6.26289ZM90.3341 13.0084C91.1374 13.2804 92.0555 14.1508 92.3424 14.9124L92.8588 16.2724L94.2359 14.9668C97.4492 11.9204 102.843 11.9204 106.573 14.9124C110.646 18.1764 112.311 27.3699 109.958 33.245C107.318 39.6641 99.6296 42.2209 94.6376 38.2497L92.9162 36.8353V42.1121C92.9162 46.9536 92.8014 47.4432 91.4817 48.64C90.7358 49.4016 89.8177 50 89.4734 50C88.5553 50 86.4323 48.8576 85.9159 48.1504C85.6864 47.824 85.4568 40.2081 85.4568 31.2322C85.4568 22.2563 85.6864 14.6404 85.9159 14.314C86.2028 13.8788 88.2111 12.5732 88.7275 12.4644C88.7849 12.4644 89.4734 12.682 90.3341 13.0084ZM135.377 13.8788C136.582 14.9668 136.926 35.965 135.779 38.0321C134.746 39.9905 132.393 40.6433 130.557 39.4465L129.065 38.5761V26.7171C129.065 14.586 129.238 13.5524 131.361 12.8452C132.508 12.4644 134.287 12.954 135.377 13.8788ZM11.724 18.1764C13.4454 19.8083 13.5601 21.6579 11.9535 23.5619C10.8633 24.8675 10.4616 24.9763 6.27293 24.9763C2.25636 24.9763 1.62518 24.8675 0.879246 23.7795C-0.383106 22.0931 -0.268347 19.2099 1.10876 17.9044C2.02684 17.034 3.00229 16.8164 6.27293 16.8164C9.83047 16.8164 10.519 16.9796 11.724 18.1764ZM26.7575 18.0132C28.4215 19.4819 28.5362 22.3651 26.9296 23.8883C26.0115 24.7587 25.0361 24.9763 21.4785 24.9763C17.921 24.9763 16.9455 24.7587 16.0275 23.8883C14.4782 22.4195 14.5356 19.6995 16.1422 18.0676C17.1751 16.9796 17.921 16.8164 21.4212 16.8164C24.7492 16.8164 25.6672 17.034 26.7575 18.0132ZM41.8483 17.9044C43.2828 19.2643 43.3976 22.5827 42.0204 23.9971C41.2745 24.7587 40.2417 24.9763 36.6268 24.9763C32.4954 24.9763 32.0938 24.8675 31.0036 23.5619C29.3969 21.6579 29.5117 19.8083 31.2331 18.1764C32.438 16.9796 33.1266 16.8164 36.6841 16.8164C39.9548 16.8164 40.9302 17.034 41.8483 17.9044ZM23.4868 30.6882C25.6099 31.7218 26.3558 33.0274 26.3558 35.8562C26.3558 38.5761 23.9459 41.2961 21.4785 41.2961C19.0112 41.2961 16.6013 38.5761 16.6013 35.8562C16.6013 33.0818 17.2898 31.7762 19.3555 30.7426C21.3064 29.709 21.4785 29.709 23.4868 30.6882Z" fill="#FF4D00"/>
<path d="M94.6949 20.4612C93.0883 22.3652 92.744 23.8339 93.0309 27.7507C93.3178 31.8307 95.1539 33.9522 98.3672 33.8434C100.777 33.789 101.982 32.9186 103.072 30.5795C104.564 27.0979 103.359 20.7876 100.892 19.5364C98.8262 18.4484 95.9572 18.8836 94.6949 20.4612Z" fill="white"/>
</svg>
