<svg width="500" height="350" viewBox="0 0 500 350" fill="none" xmlns="http://www.w3.org/2000/svg">
<rect width="500" height="350" rx="15" fill="white"/>
<path d="M261.866 184.44C264.087 187.648 265.184 191.487 265.184 195.984C265.184 200.508 264.005 204.484 261.702 207.939C259.398 211.394 256.135 214.053 251.94 215.918C247.745 217.81 242.919 218.742 237.463 218.742H203.381V137.635H236.668C244.756 137.635 251.118 139.582 255.697 143.448C260.276 147.315 262.552 152.661 262.552 159.489C262.552 167.989 259.124 173.829 252.215 177.065C256.465 178.792 259.673 181.26 261.866 184.44ZM220.079 171.087H235.406C238.532 171.087 241 170.237 242.865 168.51C244.702 166.782 245.634 164.452 245.634 161.518C245.634 158.584 244.702 156.116 242.865 154.306C241 152.524 238.532 151.619 235.406 151.619H220.079V171.087ZM244.619 202.071C246.648 200.261 247.69 197.876 247.69 194.86C247.69 191.871 246.676 189.485 244.674 187.703C242.673 185.948 239.958 185.071 236.558 185.071H220.079V204.785H236.558C239.876 204.785 242.563 203.881 244.619 202.071ZM281.471 214.684C277.111 211.969 273.739 208.213 271.353 203.36C268.968 198.534 267.789 192.913 267.789 186.524C267.789 180.135 269.132 174.24 271.819 169.25C274.506 164.26 278.318 160.366 283.226 157.569C288.161 154.8 293.81 153.402 300.144 153.402C306.505 153.402 312.345 154.718 317.198 157.295C322.052 159.9 325.781 163.602 328.385 168.4C330.99 173.198 332.306 178.819 332.306 185.29V217.179H316.184V208.268L315.608 208.158C313.853 211.448 311.276 214.053 307.876 215.918C304.476 217.81 300.692 218.742 296.524 218.742C290.848 218.742 285.831 217.398 281.471 214.684ZM311.577 199.027C314.484 195.655 315.937 191.268 315.937 185.866C315.937 180.739 314.456 176.571 311.495 173.363C308.561 170.127 304.777 168.51 300.144 168.51C295.537 168.51 291.671 170.155 288.792 173.418C285.913 176.681 284.487 180.903 284.487 186.085C284.487 191.268 285.913 195.847 288.792 199.137C291.671 202.455 295.455 204.1 300.144 204.1C304.86 204.1 308.644 202.427 311.577 199.027ZM338.668 182.576C338.668 177.037 339.847 172.156 342.232 167.989C344.618 163.821 348.018 160.613 352.46 158.365C356.902 156.116 362.056 154.992 367.979 154.992C376.89 154.992 383.937 157.46 389.092 162.423C394.247 167.385 396.824 174.103 396.824 182.576V218.742H380.126V182.932C380.126 179.176 379.002 176.132 376.781 173.802C374.532 171.471 371.571 170.292 367.842 170.292C364.14 170.292 361.124 171.471 358.821 173.802C356.518 176.132 355.366 179.176 355.366 182.932V218.742H338.668V182.576ZM462 218.303V218.742H443.821L431.455 198.589C430.331 196.642 429.152 195.298 427.918 194.585C426.711 193.873 425.011 193.516 422.818 193.516H419.856V218.742H403.158V131H419.856V178.079H422.489C424.902 178.079 426.711 177.777 427.918 177.174C429.152 176.571 430.358 175.337 431.565 173.473L442.697 157.35H460.876V157.816L447.358 178.874C445 182.466 442.423 184.906 439.626 186.195C442.285 187.402 444.671 189.705 446.782 193.16L462 218.276V218.303ZM77.8274 218.742C99.0226 218.742 112.156 204.648 112.156 183.481V173.116H77.9371V187.127H97.7065C97.7065 196.806 89.9742 203.415 78.1839 203.415C65.05 203.415 54 194.174 54 177.311C54 162.45 64.721 151.427 80.9258 151.427C90.5226 151.427 98.8032 154.169 107.194 159.681L107.961 159.571V143.147C100.915 138.979 90.5226 135.99 80.2677 135.99C53.671 135.99 37 153.621 37 177.64C37 201.66 54.6581 218.742 77.8274 218.742ZM144.539 187.977C143.606 186.223 142.729 184.577 141.879 183.015C134.997 193.653 129.458 197.958 118.984 197.958H115.09V215.863H122.439C135.573 215.863 144.84 211.037 152.765 201.221C149.913 197.492 147.198 193.105 144.539 187.977ZM189.04 215.863H196.361V197.958H192.495C178.813 197.958 173.576 190.637 162.773 171.471C152.408 152.99 140.535 141.529 118.819 141.529H114.816V158.721H116.215C132.09 158.721 138.589 165.905 149.502 186.744C159.729 206.321 170.532 215.863 189.04 215.863ZM167.461 170.155C168.147 171.389 168.805 172.54 169.463 173.665C176.647 162.779 183.31 158.721 195.265 158.721H196.635V141.529H192.632C177.469 141.529 167.105 147.123 158.687 156.802C162.005 160.942 164.856 165.494 167.461 170.155Z" fill="url(#paint0_linear_1723_973)"/>
<defs>
<linearGradient id="paint0_linear_1723_973" x1="37" y1="244.215" x2="462" y2="244.215" gradientUnits="userSpaceOnUse">
<stop offset="0.17" stop-color="#771FFF"/>
<stop offset="0.76" stop-color="#F8316D"/>
</linearGradient>
</defs>
</svg>
