<svg width="180" height="180" viewBox="0 0 180 180" fill="none" xmlns="http://www.w3.org/2000/svg">
<rect width="180" height="180" rx="15" fill="#320D6B"/>
<path d="M53.4258 128.884C73.3742 128.884 85.7355 115.619 85.7355 95.6968V85.9419H53.529V99.129H72.1355C72.1355 108.239 64.8581 114.458 53.7613 114.458C41.4 114.458 31 105.761 31 89.8903C31 75.9032 41.0903 65.529 56.3419 65.529C65.3742 65.529 73.1677 68.1097 81.0645 73.2968L81.7871 73.1935V57.7355C75.1548 53.8129 65.3742 51 55.7226 51C30.6903 51 15 67.5935 15 90.2C15 112.806 31.6194 128.884 53.4258 128.884ZM116.213 99.929C115.335 98.2774 114.51 96.729 113.71 95.2581C107.232 105.271 102.019 109.323 92.1613 109.323H88.4968V126.174H95.4129C107.774 126.174 116.497 121.632 123.955 112.394C121.271 108.884 118.716 104.755 116.213 99.929ZM158.097 126.174H164.987V109.323H161.348C148.471 109.323 143.542 102.432 133.374 84.3935C123.619 67 112.445 56.2129 92.0064 56.2129H88.2387V72.3935H89.5548C104.497 72.3935 110.613 79.1548 120.884 98.7677C130.51 117.194 140.677 126.174 158.097 126.174ZM137.787 83.1548C138.432 84.3161 139.052 85.4 139.671 86.4581C146.432 76.2129 152.703 72.3935 163.955 72.3935H165.245V56.2129H161.477C147.206 56.2129 137.452 61.4774 129.529 70.5871C132.652 74.4839 135.335 78.7677 137.787 83.1548Z" fill="white"/>
</svg>
