<svg width="180" height="180" viewBox="0 0 180 180" fill="none" xmlns="http://www.w3.org/2000/svg">
<circle cx="90" cy="90" r="90" fill="#320D6B"/>
<path d="M53.427 128.88C73.3761 128.88 85.7378 115.616 85.7378 95.6945V85.9402H53.5303V99.1266H72.1373C72.1373 108.236 64.8597 114.455 53.7625 114.455C41.4009 114.455 31.0005 105.759 31.0005 89.8884C31.0005 75.902 41.0912 65.5283 56.3433 65.5283C65.3758 65.5283 73.1696 68.1088 81.0666 73.2957L81.7892 73.1924V57.7351C75.1568 53.8128 65.3758 51 55.7239 51C30.6908 51 15 67.5927 15 90.198C15 112.803 31.6199 128.88 53.427 128.88ZM116.216 99.9266C115.339 98.2751 114.513 96.7268 113.713 95.2559C107.235 105.268 102.022 109.32 92.1638 109.32H88.4991V126.17H95.4155C107.777 126.17 116.5 121.629 123.958 112.39C121.274 108.881 118.719 104.752 116.216 99.9266ZM158.101 126.17H164.992V109.32H161.353C148.475 109.32 143.546 102.43 133.378 84.3919C123.623 66.9992 112.448 56.2126 92.0089 56.2126H88.2411V72.3925H89.5572C104.5 72.3925 110.616 79.1534 120.887 98.7654C130.513 117.19 140.681 126.17 158.101 126.17ZM137.791 83.1532C138.436 84.3145 139.056 85.3983 139.675 86.4563C146.436 76.2116 152.708 72.3925 163.96 72.3925H165.25V56.2126H161.482C147.211 56.2126 137.456 61.4769 129.533 70.5861C132.655 74.4827 135.339 78.7664 137.791 83.1532Z" fill="url(#paint0_linear_1723_968)"/>
<defs>
<linearGradient id="paint0_linear_1723_968" x1="15" y1="151.49" x2="165.25" y2="151.49" gradientUnits="userSpaceOnUse">
<stop offset="0.17" stop-color="#771FFF"/>
<stop offset="0.76" stop-color="#F8316D"/>
</linearGradient>
</defs>
</svg>
