<svg width="500" height="350" viewBox="0 0 500 350" fill="none" xmlns="http://www.w3.org/2000/svg">
<rect width="500" height="350" rx="15" fill="#320D6B"/>
<path d="M261.866 184.297C264.087 187.316 265.184 190.929 265.184 195.161C265.184 199.419 264.005 203.161 261.702 206.413C259.398 209.665 256.135 212.168 251.94 213.923C247.745 215.703 242.919 216.581 237.463 216.581H203.381V140.245H236.668C244.756 140.245 251.118 142.077 255.697 145.716C260.276 149.355 262.552 154.387 262.552 160.813C262.552 168.813 259.124 174.31 252.215 177.355C256.465 178.981 259.673 181.303 261.866 184.297ZM220.079 171.729H235.406C238.532 171.729 241 170.929 242.865 169.303C244.702 167.677 245.634 165.484 245.634 162.723C245.634 159.961 244.702 157.639 242.865 155.935C241 154.258 238.532 153.406 235.406 153.406H220.079V171.729ZM244.619 200.89C246.648 199.187 247.69 196.942 247.69 194.103C247.69 191.29 246.676 189.045 244.674 187.368C242.673 185.716 239.958 184.89 236.558 184.89H220.079V203.445H236.558C239.876 203.445 242.563 202.594 244.619 200.89ZM281.471 212.761C277.111 210.206 273.739 206.671 271.353 202.103C268.968 197.561 267.789 192.271 267.789 186.258C267.789 180.245 269.132 174.697 271.819 170C274.506 165.303 278.318 161.639 283.226 159.006C288.161 156.4 293.81 155.084 300.144 155.084C306.505 155.084 312.345 156.323 317.198 158.748C322.052 161.2 325.781 164.684 328.385 169.2C330.99 173.716 332.306 179.006 332.306 185.097V215.11H316.184V206.723L315.608 206.619C313.853 209.716 311.276 212.168 307.876 213.923C304.476 215.703 300.692 216.581 296.524 216.581C290.848 216.581 285.831 215.316 281.471 212.761ZM311.577 198.026C314.484 194.852 315.937 190.723 315.937 185.639C315.937 180.813 314.456 176.89 311.495 173.871C308.561 170.826 304.777 169.303 300.144 169.303C295.537 169.303 291.671 170.852 288.792 173.923C285.913 176.994 284.487 180.968 284.487 185.845C284.487 190.723 285.913 195.032 288.792 198.129C291.671 201.252 295.455 202.8 300.144 202.8C304.86 202.8 308.644 201.226 311.577 198.026ZM338.668 182.542C338.668 177.329 339.847 172.735 342.232 168.813C344.618 164.89 348.018 161.871 352.46 159.755C356.902 157.639 362.056 156.581 367.979 156.581C376.89 156.581 383.937 158.903 389.092 163.574C394.247 168.245 396.824 174.568 396.824 182.542V216.581H380.126V182.877C380.126 179.342 379.002 176.477 376.781 174.284C374.532 172.09 371.571 170.981 367.842 170.981C364.14 170.981 361.124 172.09 358.821 174.284C356.518 176.477 355.366 179.342 355.366 182.877V216.581H338.668V182.542ZM462 216.168V216.581H443.821L431.455 197.613C430.331 195.781 429.152 194.516 427.918 193.845C426.711 193.174 425.011 192.839 422.818 192.839H419.856V216.581H403.158V134H419.856V178.31H422.489C424.902 178.31 426.711 178.026 427.918 177.458C429.152 176.89 430.358 175.729 431.565 173.974L442.697 158.8H460.876V159.239L447.358 179.058C445 182.439 442.423 184.735 439.626 185.948C442.285 187.084 444.671 189.252 446.782 192.503L462 216.142V216.168ZM77.8274 216.581C99.0226 216.581 112.156 203.316 112.156 183.394V173.639H77.9371V186.826H97.7065C97.7065 195.935 89.9742 202.155 78.1839 202.155C65.05 202.155 54 193.458 54 177.587C54 163.6 64.721 153.226 80.9258 153.226C90.5226 153.226 98.8032 155.806 107.194 160.994L107.961 160.89V145.432C100.915 141.51 90.5226 138.697 80.2677 138.697C53.671 138.697 37 155.29 37 177.897C37 200.503 54.6581 216.581 77.8274 216.581ZM144.539 187.626C143.606 185.974 142.729 184.426 141.879 182.955C134.997 192.968 129.458 197.019 118.984 197.019H115.09V213.871H122.439C135.573 213.871 144.84 209.329 152.765 200.09C149.913 196.581 147.198 192.452 144.539 187.626ZM189.04 213.871H196.361V197.019H192.495C178.813 197.019 173.576 190.129 162.773 172.09C152.408 154.697 140.535 143.91 118.819 143.91H114.816V160.09H116.215C132.09 160.09 138.589 166.852 149.502 186.465C159.729 204.89 170.532 213.871 189.04 213.871ZM167.461 170.852C168.147 172.013 168.805 173.097 169.463 174.155C176.647 163.91 183.31 160.09 195.265 160.09H196.635V143.91H192.632C177.469 143.91 167.105 149.174 158.687 158.284C162.005 162.181 164.856 166.465 167.461 170.852Z" fill="white"/>
</svg>
