<svg width="800" height="180" viewBox="0 0 800 180" fill="none" xmlns="http://www.w3.org/2000/svg">
<rect width="800" height="180" rx="15" fill="#0C0120"/>
<path d="M413.094 100.584C415.445 103.981 416.606 108.045 416.606 112.806C416.606 117.597 415.358 121.806 412.919 125.465C410.481 129.123 407.026 131.939 402.584 133.913C398.142 135.916 393.032 136.903 387.255 136.903H351.168V51.0258H386.413C394.977 51.0258 401.713 53.0871 406.561 57.1806C411.41 61.2742 413.819 66.9355 413.819 74.1645C413.819 83.1645 410.19 89.3484 402.874 92.7742C407.374 94.6032 410.771 97.2161 413.094 100.584ZM368.848 86.4452H385.077C388.387 86.4452 391 85.5452 392.974 83.7161C394.919 81.8871 395.906 79.4194 395.906 76.3129C395.906 73.2065 394.919 70.5935 392.974 68.6774C391 66.7903 388.387 65.8323 385.077 65.8323H368.848V86.4452ZM394.832 119.252C396.981 117.335 398.084 114.81 398.084 111.616C398.084 108.452 397.01 105.926 394.89 104.039C392.771 102.181 389.897 101.252 386.297 101.252H368.848V122.126H386.297C389.81 122.126 392.655 121.168 394.832 119.252ZM433.852 132.606C429.236 129.732 425.665 125.755 423.139 120.616C420.613 115.506 419.365 109.555 419.365 102.79C419.365 96.0258 420.787 89.7839 423.632 84.5C426.477 79.2161 430.513 75.0935 435.71 72.1323C440.936 69.2 446.916 67.7194 453.623 67.7194C460.358 67.7194 466.542 69.1129 471.681 71.8419C476.819 74.6 480.768 78.5194 483.526 83.6C486.284 88.6806 487.677 94.6323 487.677 101.484V135.248H470.606V125.813L469.997 125.697C468.139 129.181 465.41 131.939 461.81 133.913C458.21 135.916 454.203 136.903 449.79 136.903C443.781 136.903 438.468 135.481 433.852 132.606ZM465.729 116.029C468.806 112.458 470.345 107.813 470.345 102.094C470.345 96.6645 468.777 92.2516 465.642 88.8548C462.535 85.429 458.529 83.7161 453.623 83.7161C448.745 83.7161 444.652 85.4581 441.603 88.9129C438.555 92.3677 437.045 96.8387 437.045 102.326C437.045 107.813 438.555 112.661 441.603 116.145C444.652 119.658 448.658 121.4 453.623 121.4C458.616 121.4 462.623 119.629 465.729 116.029ZM494.413 98.6097C494.413 92.7452 495.661 87.5774 498.187 83.1645C500.713 78.7516 504.313 75.3548 509.016 72.9742C513.719 70.5935 519.177 69.4032 525.448 69.4032C534.884 69.4032 542.345 72.0161 547.803 77.271C553.261 82.5258 555.99 89.6387 555.99 98.6097V136.903H538.31V98.9871C538.31 95.0097 537.119 91.7871 534.768 89.3194C532.387 86.8516 529.252 85.6032 525.303 85.6032C521.384 85.6032 518.19 86.8516 515.752 89.3194C513.313 91.7871 512.094 95.0097 512.094 98.9871V136.903H494.413V98.6097ZM625 136.439V136.903H605.752L592.658 115.565C591.468 113.503 590.219 112.081 588.913 111.326C587.636 110.571 585.836 110.194 583.513 110.194H580.377V136.903H562.697V44H580.377V93.8484H583.165C585.719 93.8484 587.636 93.529 588.913 92.8903C590.219 92.2516 591.497 90.9452 592.774 88.971L604.561 71.9H623.81V72.3935L609.497 94.6903C607 98.4935 604.271 101.077 601.31 102.442C604.126 103.719 606.652 106.158 608.887 109.816L625 136.41V136.439ZM218.229 136.903C240.671 136.903 254.577 121.981 254.577 99.5677V88.5935H218.345V103.429H239.277C239.277 113.677 231.09 120.674 218.606 120.674C204.7 120.674 193 110.89 193 93.0355C193 77.3 204.352 65.629 221.51 65.629C231.671 65.629 240.439 68.5323 249.323 74.3677L250.135 74.2516V56.8613C242.674 52.4484 231.671 49.2839 220.813 49.2839C192.652 49.2839 175 67.9516 175 93.3839C175 118.816 193.697 136.903 218.229 136.903ZM288.865 104.329C287.877 102.471 286.948 100.729 286.048 99.0742C278.761 110.339 272.897 114.897 261.806 114.897H257.684V133.855H265.465C279.371 133.855 289.184 128.745 297.574 118.352C294.555 114.403 291.681 109.758 288.865 104.329ZM335.984 133.855H343.735V114.897H339.642C325.155 114.897 319.61 107.145 308.171 86.8516C297.197 67.2839 284.626 55.1484 261.632 55.1484H257.394V73.3516H258.874C275.684 73.3516 282.565 80.9581 294.119 103.023C304.948 123.752 316.387 133.855 335.984 133.855ZM313.135 85.4581C313.861 86.7645 314.558 87.9839 315.255 89.1742C322.861 77.6484 329.916 73.3516 342.574 73.3516H344.026V55.1484H339.787C323.732 55.1484 312.758 61.071 303.845 71.3194C307.358 75.7032 310.377 80.5226 313.135 85.4581Z" fill="url(#paint0_linear_1723_971)"/>
<defs>
<linearGradient id="paint0_linear_1723_971" x1="175" y1="163.874" x2="625" y2="163.874" gradientUnits="userSpaceOnUse">
<stop offset="0.17" stop-color="#771FFF"/>
<stop offset="0.76" stop-color="#F8316D"/>
</linearGradient>
</defs>
</svg>
