<svg width="400" height="196" viewBox="0 0 400 196" fill="none" xmlns="http://www.w3.org/2000/svg">
<path d="M211.639 50.2968C213.729 53.3161 214.761 56.929 214.761 61.1613C214.761 65.4194 213.652 69.1613 211.484 72.4129C209.316 75.6645 206.245 78.1677 202.297 79.9226C198.348 81.7032 193.806 82.5806 188.671 82.5806H156.594V6.24516H187.923C195.535 6.24516 201.523 8.07742 205.832 11.7161C210.142 15.3548 212.284 20.3871 212.284 26.8129C212.284 34.8129 209.058 40.3097 202.555 43.3548C206.555 44.9806 209.574 47.3032 211.639 50.2968ZM172.31 37.729H186.735C189.677 37.729 192 36.929 193.755 35.3032C195.484 33.6774 196.361 31.4839 196.361 28.7226C196.361 25.9613 195.484 23.6387 193.755 21.9355C192 20.2581 189.677 19.4065 186.735 19.4065H172.31V37.729ZM195.406 66.8903C197.316 65.1871 198.297 62.9419 198.297 60.1032C198.297 57.2903 197.342 55.0452 195.458 53.3677C193.574 51.7161 191.019 50.8903 187.819 50.8903H172.31V69.4452H187.819C190.942 69.4452 193.471 68.5935 195.406 66.8903ZM230.09 78.7613C225.987 76.2065 222.813 72.671 220.568 68.1032C218.323 63.5613 217.213 58.271 217.213 52.2581C217.213 46.2452 218.477 40.6968 221.006 36C223.535 31.3032 227.123 27.6387 231.742 25.0064C236.387 22.4 241.703 21.0839 247.665 21.0839C253.652 21.0839 259.148 22.3226 263.716 24.7484C268.284 27.2 271.794 30.6839 274.245 35.2C276.697 39.7161 277.935 45.0064 277.935 51.0968V81.1097H262.761V72.7226L262.219 72.6194C260.568 75.7161 258.142 78.1677 254.942 79.9226C251.742 81.7032 248.181 82.5806 244.258 82.5806C238.916 82.5806 234.194 81.3161 230.09 78.7613ZM258.426 64.0258C261.161 60.8516 262.529 56.7226 262.529 51.6387C262.529 46.8129 261.135 42.8903 258.348 39.871C255.587 36.8258 252.026 35.3032 247.665 35.3032C243.329 35.3032 239.69 36.8516 236.981 39.9226C234.271 42.9935 232.929 46.9677 232.929 51.8452C232.929 56.7226 234.271 61.0323 236.981 64.129C239.69 67.2516 243.252 68.8 247.665 68.8C252.103 68.8 255.665 67.2258 258.426 64.0258ZM283.923 48.5419C283.923 43.329 285.032 38.7355 287.277 34.8129C289.523 30.8903 292.723 27.871 296.903 25.7548C301.084 23.6387 305.935 22.5806 311.51 22.5806C319.897 22.5806 326.529 24.9032 331.381 29.5742C336.232 34.2452 338.658 40.5677 338.658 48.5419V82.5806H322.942V48.8774C322.942 45.3419 321.884 42.4774 319.794 40.2839C317.677 38.0903 314.89 36.9806 311.381 36.9806C307.897 36.9806 305.058 38.0903 302.89 40.2839C300.723 42.4774 299.639 45.3419 299.639 48.8774V82.5806H283.923V48.5419ZM400 82.1677V82.5806H382.89L371.252 63.6129C370.194 61.7806 369.084 60.5161 367.923 59.8452C366.787 59.1742 365.187 58.8387 363.123 58.8387H360.335V82.5806H344.619V0H360.335V44.3097H362.813C365.084 44.3097 366.787 44.0258 367.923 43.4581C369.084 42.8903 370.219 41.729 371.355 39.9742L381.832 24.8H398.942V25.2387L386.219 45.0581C384 48.4387 381.574 50.7355 378.942 51.9484C381.445 53.0839 383.69 55.2516 385.677 58.5032L400 82.1419V82.1677ZM38.4258 82.5806C58.3742 82.5806 70.7355 69.3161 70.7355 49.3935V39.6387H38.529V52.8258H57.1355C57.1355 61.9355 49.8581 68.1548 38.7613 68.1548C26.4 68.1548 16 59.4581 16 43.5871C16 29.6 26.0903 19.2258 41.3419 19.2258C50.3742 19.2258 58.1677 21.8065 66.0645 26.9935L66.7871 26.8903V11.4323C60.1548 7.50968 50.3742 4.69677 40.7226 4.69677C15.6903 4.69677 0 21.2903 0 43.8968C0 66.5032 16.6194 82.5806 38.4258 82.5806ZM101.213 53.6258C100.335 51.9742 99.5097 50.4258 98.7097 48.9548C92.2323 58.9677 87.0194 63.0194 77.1613 63.0194H73.4968V79.871H80.4129C92.7742 79.871 101.497 75.329 108.955 66.0903C106.271 62.5806 103.716 58.4516 101.213 53.6258ZM143.097 79.871H149.987V63.0194H146.348C133.471 63.0194 128.542 56.129 118.374 38.0903C108.619 20.6968 97.4452 9.90968 77.0064 9.90968H73.2387V26.0903H74.5548C89.4968 26.0903 95.6129 32.8516 105.884 52.4645C115.51 70.8903 125.677 79.871 143.097 79.871ZM122.787 36.8516C123.432 38.0129 124.052 39.0968 124.671 40.1548C131.432 29.9097 137.703 26.0903 148.955 26.0903H150.245V9.90968H146.477C132.206 9.90968 122.452 15.1742 114.529 24.2839C117.652 28.1806 120.335 32.4645 122.787 36.8516Z" fill="white"/>
<path d="M211.639 163.297C213.729 166.316 214.761 169.929 214.761 174.161C214.761 178.419 213.652 182.161 211.484 185.413C209.316 188.665 206.245 191.168 202.297 192.923C198.348 194.703 193.806 195.581 188.671 195.581H156.594V119.245H187.923C195.535 119.245 201.523 121.077 205.832 124.716C210.142 128.355 212.284 133.387 212.284 139.813C212.284 147.813 209.058 153.31 202.555 156.355C206.555 157.981 209.574 160.303 211.639 163.297ZM172.31 150.729H186.735C189.677 150.729 192 149.929 193.755 148.303C195.484 146.677 196.361 144.484 196.361 141.723C196.361 138.961 195.484 136.639 193.755 134.935C192 133.258 189.677 132.406 186.735 132.406H172.31V150.729ZM195.406 179.89C197.316 178.187 198.297 175.942 198.297 173.103C198.297 170.29 197.342 168.045 195.458 166.368C193.574 164.716 191.019 163.89 187.819 163.89H172.31V182.445H187.819C190.942 182.445 193.471 181.594 195.406 179.89ZM230.09 191.761C225.987 189.206 222.813 185.671 220.568 181.103C218.323 176.561 217.213 171.271 217.213 165.258C217.213 159.245 218.477 153.697 221.006 149C223.535 144.303 227.123 140.639 231.742 138.006C236.387 135.4 241.703 134.084 247.665 134.084C253.652 134.084 259.148 135.323 263.716 137.748C268.284 140.2 271.794 143.684 274.245 148.2C276.697 152.716 277.935 158.006 277.935 164.097V194.11H262.761V185.723L262.219 185.619C260.568 188.716 258.142 191.168 254.942 192.923C251.742 194.703 248.181 195.581 244.258 195.581C238.916 195.581 234.194 194.316 230.09 191.761ZM258.426 177.026C261.161 173.852 262.529 169.723 262.529 164.639C262.529 159.813 261.135 155.89 258.348 152.871C255.587 149.826 252.026 148.303 247.665 148.303C243.329 148.303 239.69 149.852 236.981 152.923C234.271 155.994 232.929 159.968 232.929 164.845C232.929 169.723 234.271 174.032 236.981 177.129C239.69 180.252 243.252 181.8 247.665 181.8C252.103 181.8 255.665 180.226 258.426 177.026ZM283.923 161.542C283.923 156.329 285.032 151.735 287.277 147.813C289.523 143.89 292.723 140.871 296.903 138.755C301.084 136.639 305.935 135.581 311.51 135.581C319.897 135.581 326.529 137.903 331.381 142.574C336.232 147.245 338.658 153.568 338.658 161.542V195.581H322.942V161.877C322.942 158.342 321.884 155.477 319.794 153.284C317.677 151.09 314.89 149.981 311.381 149.981C307.897 149.981 305.058 151.09 302.89 153.284C300.723 155.477 299.639 158.342 299.639 161.877V195.581H283.923V161.542ZM400 195.168V195.581H382.89L371.252 176.613C370.194 174.781 369.084 173.516 367.923 172.845C366.787 172.174 365.187 171.839 363.123 171.839H360.335V195.581H344.619V113H360.335V157.31H362.813C365.084 157.31 366.787 157.026 367.923 156.458C369.084 155.89 370.219 154.729 371.355 152.974L381.832 137.8H398.942V138.239L386.219 158.058C384 161.439 381.574 163.735 378.942 164.948C381.445 166.084 383.69 168.252 385.677 171.503L400 195.142V195.168ZM38.4258 195.581C58.3742 195.581 70.7355 182.316 70.7355 162.394V152.639H38.529V165.826H57.1355C57.1355 174.935 49.8581 181.155 38.7613 181.155C26.4 181.155 16 172.458 16 156.587C16 142.6 26.0903 132.226 41.3419 132.226C50.3742 132.226 58.1677 134.806 66.0645 139.994L66.7871 139.89V124.432C60.1548 120.51 50.3742 117.697 40.7226 117.697C15.6903 117.697 0 134.29 0 156.897C0 179.503 16.6194 195.581 38.4258 195.581ZM101.213 166.626C100.335 164.974 99.5097 163.426 98.7097 161.955C92.2323 171.968 87.0194 176.019 77.1613 176.019H73.4968V192.871H80.4129C92.7742 192.871 101.497 188.329 108.955 179.09C106.271 175.581 103.716 171.452 101.213 166.626ZM143.097 192.871H149.987V176.019H146.348C133.471 176.019 128.542 169.129 118.374 151.09C108.619 133.697 97.4452 122.91 77.0064 122.91H73.2387V139.09H74.5548C89.4968 139.09 95.6129 145.852 105.884 165.465C115.51 183.89 125.677 192.871 143.097 192.871ZM122.787 149.852C123.432 151.013 124.052 152.097 124.671 153.155C131.432 142.91 137.703 139.09 148.955 139.09H150.245V122.91H146.477C132.206 122.91 122.452 128.174 114.529 137.284C117.652 141.181 120.335 145.465 122.787 149.852Z" fill="url(#paint0_linear_1723_958)"/>
<defs>
<linearGradient id="paint0_linear_1723_958" x1="0" y1="219.555" x2="400" y2="219.555" gradientUnits="userSpaceOnUse">
<stop offset="0.17" stop-color="#771FFF"/>
<stop offset="0.76" stop-color="#F8316D"/>
</linearGradient>
</defs>
</svg>
