<svg width="800" height="180" viewBox="0 0 800 180" fill="none" xmlns="http://www.w3.org/2000/svg">
<rect width="800" height="180" rx="15" fill="#320D6B"/>
<path d="M413.094 99.2968C415.445 102.316 416.606 105.929 416.606 110.161C416.606 114.419 415.358 118.161 412.919 121.413C410.481 124.665 407.026 127.168 402.584 128.923C398.142 130.703 393.032 131.581 387.255 131.581H351.168V55.2452H386.413C394.977 55.2452 401.713 57.0774 406.561 60.7161C411.41 64.3548 413.819 69.3871 413.819 75.8129C413.819 83.8129 410.19 89.3097 402.874 92.3548C407.374 93.9806 410.771 96.3032 413.094 99.2968ZM368.848 86.729H385.077C388.387 86.729 391 85.929 392.974 84.3032C394.919 82.6774 395.906 80.4839 395.906 77.7226C395.906 74.9613 394.919 72.6387 392.974 70.9355C391 69.2581 388.387 68.4065 385.077 68.4065H368.848V86.729ZM394.832 115.89C396.981 114.187 398.084 111.942 398.084 109.103C398.084 106.29 397.01 104.045 394.89 102.368C392.771 100.716 389.897 99.8903 386.297 99.8903H368.848V118.445H386.297C389.81 118.445 392.655 117.594 394.832 115.89ZM433.852 127.761C429.236 125.206 425.665 121.671 423.139 117.103C420.613 112.561 419.365 107.271 419.365 101.258C419.365 95.2452 420.787 89.6968 423.632 85C426.477 80.3032 430.513 76.6387 435.71 74.0064C440.936 71.4 446.916 70.0839 453.623 70.0839C460.358 70.0839 466.542 71.3226 471.681 73.7484C476.819 76.2 480.768 79.6839 483.526 84.2C486.284 88.7161 487.677 94.0064 487.677 100.097V130.11H470.606V121.723L469.997 121.619C468.139 124.716 465.41 127.168 461.81 128.923C458.21 130.703 454.203 131.581 449.79 131.581C443.781 131.581 438.468 130.316 433.852 127.761ZM465.729 113.026C468.806 109.852 470.345 105.723 470.345 100.639C470.345 95.8129 468.777 91.8903 465.642 88.871C462.535 85.8258 458.529 84.3032 453.623 84.3032C448.745 84.3032 444.652 85.8516 441.603 88.9226C438.555 91.9935 437.045 95.9677 437.045 100.845C437.045 105.723 438.555 110.032 441.603 113.129C444.652 116.252 448.658 117.8 453.623 117.8C458.616 117.8 462.623 116.226 465.729 113.026ZM494.413 97.5419C494.413 92.329 495.661 87.7355 498.187 83.8129C500.713 79.8903 504.313 76.871 509.016 74.7548C513.719 72.6387 519.177 71.5806 525.448 71.5806C534.884 71.5806 542.345 73.9032 547.803 78.5742C553.261 83.2452 555.99 89.5677 555.99 97.5419V131.581H538.31V97.8774C538.31 94.3419 537.119 91.4774 534.768 89.2839C532.387 87.0903 529.252 85.9806 525.303 85.9806C521.384 85.9806 518.19 87.0903 515.752 89.2839C513.313 91.4774 512.094 94.3419 512.094 97.8774V131.581H494.413V97.5419ZM625 131.168V131.581H605.752L592.658 112.613C591.468 110.781 590.219 109.516 588.913 108.845C587.636 108.174 585.836 107.839 583.513 107.839H580.377V131.581H562.697V49H580.377V93.3097H583.165C585.719 93.3097 587.636 93.0258 588.913 92.4581C590.219 91.8903 591.497 90.729 592.774 88.9742L604.561 73.8H623.81V74.2387L609.497 94.0581C607 97.4387 604.271 99.7355 601.31 100.948C604.126 102.084 606.652 104.252 608.887 107.503L625 131.142V131.168ZM218.229 131.581C240.671 131.581 254.577 118.316 254.577 98.3935V88.6387H218.345V101.826H239.277C239.277 110.935 231.09 117.155 218.606 117.155C204.7 117.155 193 108.458 193 92.5871C193 78.6 204.352 68.2258 221.51 68.2258C231.671 68.2258 240.439 70.8065 249.323 75.9935L250.135 75.8903V60.4323C242.674 56.5097 231.671 53.6968 220.813 53.6968C192.652 53.6968 175 70.2903 175 92.8968C175 115.503 193.697 131.581 218.229 131.581ZM288.865 102.626C287.877 100.974 286.948 99.4258 286.048 97.9548C278.761 107.968 272.897 112.019 261.806 112.019H257.684V128.871H265.465C279.371 128.871 289.184 124.329 297.574 115.09C294.555 111.581 291.681 107.452 288.865 102.626ZM335.984 128.871H343.735V112.019H339.642C325.155 112.019 319.61 105.129 308.171 87.0903C297.197 69.6968 284.626 58.9097 261.632 58.9097H257.394V75.0903H258.874C275.684 75.0903 282.565 81.8516 294.119 101.465C304.948 119.89 316.387 128.871 335.984 128.871ZM313.135 85.8516C313.861 87.0129 314.558 88.0968 315.255 89.1548C322.861 78.9097 329.916 75.0903 342.574 75.0903H344.026V58.9097H339.787C323.732 58.9097 312.758 64.1742 303.845 73.2839C307.358 77.1806 310.377 81.4645 313.135 85.8516Z" fill="white"/>
</svg>
