<svg width="891" height="169" viewBox="0 0 891 169" fill="none" xmlns="http://www.w3.org/2000/svg">
<path d="M122.099 83.3364C116.214 83.1173 110.589 83.7002 105.148 85.8255C101.003 87.4441 97.1984 89.6728 93.6398 92.4085C92.9553 92.9346 92.9427 93.3846 93.4189 94.111C97.5301 100.381 100.231 107.305 101.73 114.731C102.784 119.954 103.065 125.292 102.666 130.588C101.866 141.197 98.3289 150.831 92.4687 159.486C90.1594 162.896 87.2374 165.756 84.4188 168.697C83.823 169.319 83.4468 168.847 83.0872 168.487C79.3659 164.757 76.0186 160.708 73.317 156.077C70.1861 150.71 67.8805 144.998 66.6134 138.843C66.0853 136.278 65.673 133.696 65.5037 131.054C65.3836 129.181 65.2141 127.313 65.2706 125.44C65.4875 118.237 66.7758 111.273 69.4168 104.591C70.8272 101.022 72.5112 97.6256 74.6271 94.4769C75.3323 93.4276 75.1327 92.7014 74.2443 92.01C74.2042 91.9787 74.1664 91.9428 74.1231 91.9175C73.0453 91.288 72.0358 89.6897 71.0708 89.9836C70.1696 90.2581 69.4931 91.8263 68.7206 92.8268C64.8511 97.838 60.1452 101.804 54.8931 105.039C49.872 108.132 44.4922 110.324 38.749 111.469C33.748 112.467 28.7557 112.941 23.6364 112.421C18.7901 111.928 14.1022 110.927 9.53292 109.215C6.40803 108.044 3.41464 106.582 0.555089 104.805C-0.141639 104.372 -0.0870573 104.007 0.201166 103.299C2.09601 98.6425 4.65105 94.436 7.65113 90.4841C11.2149 85.7897 15.3948 81.841 20.1804 78.6064C26.0121 74.6647 32.3504 72.0866 39.1681 70.677C43.9308 69.6922 48.7199 69.5918 53.5035 69.8318C57.2932 70.0219 61.0534 70.8175 64.6891 72.0314C65.6436 72.3501 65.8705 72.247 66.2349 71.2309C68.2961 65.4823 69.2399 59.5314 68.8092 53.4446C68.2334 45.3053 65.6288 37.8413 61.1012 31.1797C56.8798 24.9687 51.4234 20.3181 44.8634 17.0628C43.6913 16.4811 43.5641 17.0224 43.6956 17.9872C44.3055 22.4643 45.3646 26.8102 47.1153 30.9591C49.6397 36.9415 53.4446 41.9179 58.061 46.2115C59.735 47.7684 61.5184 49.4028 63.5348 50.2864C65.6293 51.2042 65.7124 52.8193 65.8326 54.5372C66.0766 58.0255 65.4861 61.4605 64.946 64.8868C64.8135 65.7272 64.3716 65.7715 63.6484 65.4413C59.2013 63.411 55.0627 60.8511 51.2455 57.7026C44.1894 51.8827 38.925 44.5922 35.3156 35.9936C33.3046 31.2029 31.9485 26.1943 31.3839 20.9583C31.0605 17.9595 30.6798 14.9595 30.829 11.9468C31.0076 8.34092 31.3953 4.74613 32.063 1.19702C32.1968 0.486167 32.4338 -0.101946 33.4183 0.0364381C41.475 1.16883 49.0725 3.68362 56.0372 8.17028C60.1299 10.8068 63.8537 13.9412 67.0996 17.648C69.985 20.9432 72.4696 24.5618 74.5804 28.484C77.6345 34.1588 79.6772 40.2037 80.742 46.5911C81.5725 51.5731 81.6087 56.5988 81.2067 61.6689C80.7839 67.0019 79.4118 72.047 77.7984 77.0509C77.5121 77.9391 77.618 78.2435 78.3606 78.7487C80.2426 80.029 82.0385 81.4546 83.8234 82.8848C84.2241 83.206 84.3587 83.2235 84.7458 82.8754C88.3314 79.6506 92.3389 77.1332 96.6111 75.0465C100.963 72.9209 105.514 71.5814 110.23 70.6755C114.627 69.8308 119.053 69.8834 123.432 70.1714C128.829 70.5264 134.072 71.9379 139.125 74.1157C146.561 77.3215 152.997 82.003 158.418 88.2168C162.516 92.9146 165.674 98.2739 168.156 104.087C168.453 104.783 168.285 105.087 167.694 105.437C162.314 108.623 156.62 110.814 150.546 112.099C145.675 113.128 140.772 113.289 135.912 112.901C128.311 112.293 121.12 109.885 114.446 105.921C110.987 103.866 107.815 101.408 104.79 98.6866C103.122 97.1862 101.738 95.4478 100.228 93.8146C98.8581 92.3324 98.8735 92.3914 100.519 91.4417C103.828 89.5326 107.317 88.1827 110.996 87.297C111.67 87.1347 111.982 87.2578 112.391 87.6849C118.104 93.6586 125.052 97.2477 132.837 98.9823C136.738 99.8515 140.734 100.093 144.759 99.4884C146.403 99.2413 148.044 98.9753 149.826 98.692C149.084 96.823 147.625 95.6673 146.332 94.4561C143.185 91.5061 139.697 89.0266 135.842 87.2098C131.92 85.3619 127.849 84.0015 123.525 83.6407C123.092 83.6045 122.668 83.4415 122.099 83.3364Z" fill="#0867B3"/>
<path d="M783.101 91.0139C784.601 95.1621 786.036 99.2037 787.623 103.673C788.342 101.781 787.754 100.352 787.572 99.0361C787.255 96.7383 786.984 94.4256 786.821 92.1275C785.669 75.8936 786.371 59.6275 786.16 43.3761C786.145 42.2781 786.403 41.97 787.466 41.9836C792.409 42.0466 797.353 42.0487 802.296 41.9825C803.385 41.968 803.584 42.3302 803.583 43.3955C803.555 70.7312 803.554 98.0671 803.585 125.403C803.586 126.532 803.392 126.91 802.222 126.899C794.882 126.835 787.541 126.857 780.201 126.883C779.496 126.885 778.983 126.8 778.708 126.018C775.545 117.014 772.376 108.012 769.195 99.0154C765.523 88.6313 761.84 78.2518 758.155 67.8728C757.719 66.6459 757.556 65.2982 756.659 64.0361C757.085 69.4848 757.83 74.6847 758.081 79.9442C758.225 82.9456 758.556 85.9597 758.578 88.9605C758.669 101.051 758.598 113.142 758.643 125.233C758.647 126.478 758.455 126.931 757.138 126.905C752.346 126.808 747.551 126.839 742.758 126.89C741.79 126.9 741.514 126.636 741.515 125.594C741.542 98.1535 741.543 70.7126 741.513 43.2716C741.512 42.2084 741.821 41.9848 742.769 41.99C749.91 42.0294 757.05 42.042 764.191 41.9765C765.187 41.9673 765.502 42.3978 765.799 43.2284C768.79 51.5924 771.795 59.9509 774.817 68.3029C777.544 75.8428 780.296 83.3728 783.101 91.0139Z" fill="#0867B3"/>
<path d="M524.601 59.3612C524.601 81.3867 524.586 103.255 524.634 125.122C524.637 126.572 524.277 126.916 522.929 126.901C515.839 126.827 508.748 126.839 501.659 126.895C500.514 126.904 500.02 126.624 499.59 125.392C495.05 112.407 490.403 99.4624 485.807 86.4987C483.228 79.2271 480.688 71.9403 478.122 64.6641C478.083 64.5554 477.92 64.4957 477.64 64.2764C478 67.4405 478.32 70.4138 478.685 73.3811C478.849 74.7175 478.912 76.0803 478.975 77.4031C479.09 79.7963 479.297 82.1885 479.399 84.5839C479.973 98.1234 479.46 111.667 479.689 125.205C479.713 126.622 479.348 126.926 478.054 126.902C473.312 126.814 468.568 126.844 463.824 126.887C462.901 126.895 462.551 126.714 462.552 125.623C462.583 98.1828 462.581 70.7429 462.556 43.303C462.555 42.2947 462.779 41.9802 463.779 41.9867C470.919 42.0334 478.06 42.0361 485.2 41.9823C486.15 41.9752 486.543 42.4173 486.827 43.1996C491.805 56.9402 496.794 70.677 501.756 84.4245C504.013 90.6778 506.215 96.9528 508.45 103.215C508.491 103.331 508.62 103.412 508.801 103.611C509.143 103.065 509.069 102.527 508.997 102.064C508.41 98.2878 508.08 94.4879 507.799 90.6723C506.652 75.0621 507.507 59.4289 507.185 43.811C507.152 42.2274 507.601 41.9461 508.992 41.9745C513.734 42.0714 518.479 42.0496 523.222 41.9832C524.319 41.9678 524.647 42.2246 524.631 43.4341C524.56 48.6896 524.601 53.9468 524.601 59.3612Z" fill="#0867B3"/>
<path d="M645.138 100.553C645.454 106.212 644.574 111.446 641.407 116.022C637.865 121.138 632.73 123.537 627.114 124.948C622.661 126.067 618.113 126.379 613.53 126.618C604.258 127.102 594.99 126.648 585.725 126.898C584.44 126.933 584.198 126.531 584.2 125.253C584.237 98.0192 584.235 70.7857 584.205 43.5522C584.203 42.3685 584.421 41.9682 585.644 41.9781C593.684 42.0431 601.731 41.8067 609.763 42.0753C616.402 42.2973 623.032 42.8726 629.373 45.4238C636.056 48.1125 640.69 52.6813 641.678 60.3199C642.458 66.3547 641.507 72.1694 637.074 76.6414C634.626 79.11 631.668 80.8248 628.357 81.7732C628.27 81.7981 628.196 81.8738 628.117 81.9278C638.97 84.4359 645.018 90.7346 645.138 100.553Z" fill="#0867B3"/>
<path d="M881.882 52.8589C881.721 53.1902 881.532 53.4214 881.261 53.6861C879.697 53.252 880.656 54.5703 880.384 55.067C880.223 55.3982 880.033 55.6295 879.762 55.8942C878.198 55.4601 879.158 56.7785 878.885 57.2751C878.724 57.6064 878.535 57.8377 878.264 58.1023C876.7 57.6682 877.66 58.9866 877.387 59.4832C877.226 59.8145 877.037 60.0458 876.766 60.3105C875.054 60.2393 875.377 61.5416 875.29 62.6327C875.128 62.9674 874.939 63.1994 874.669 63.4649C873.105 63.0308 874.064 64.3492 873.792 64.8458C873.63 65.1771 873.441 65.4084 873.17 65.673C871.606 65.239 872.566 66.5573 872.293 67.054C872.132 67.3852 871.943 67.6165 871.672 67.8812C870.373 67.4927 870.826 68.3731 870.9 69.0347C870.905 69.5958 870.472 69.7286 870.18 70.0844C868.61 69.6553 869.57 70.9735 869.297 71.4702C869.136 71.8015 868.947 72.0328 868.676 72.2974C866.964 72.2263 867.286 73.5286 867.2 74.6196C867.038 74.9544 866.849 75.1864 866.579 75.4519C865.015 75.0181 865.974 76.3362 865.701 76.8328C865.54 77.1641 865.351 77.3954 865.08 77.66C863.517 77.2261 864.476 78.5442 864.203 79.041C864 79.4205 863.769 79.7001 863.529 80.0728C863.526 81.0432 864.178 81.5627 864.635 82.3026C864.715 82.371 864.692 82.3851 864.698 82.3724C865.036 83.2328 865.515 84.0152 866.134 84.8269C866.214 84.8946 866.19 84.9087 866.196 84.8959C866.535 85.7564 867.013 86.5388 867.632 87.3504C867.712 87.4182 867.688 87.4323 867.694 87.4195C868.033 88.28 868.511 89.0624 869.13 89.874C869.21 89.9417 869.186 89.9559 869.192 89.9431C869.531 90.8036 870.009 91.5859 870.629 92.3976C870.708 92.4653 870.684 92.4793 870.691 92.4666C870.857 92.7299 870.937 93.0551 871.234 93.3519C871.307 93.4117 871.284 93.4258 871.29 93.413C871.628 94.2735 872.107 95.0559 872.726 95.8675C872.806 95.9352 872.782 95.9494 872.788 95.9366C873.127 96.7971 873.605 97.5794 874.224 98.3911C874.304 98.4588 874.28 98.4729 874.286 98.4601C874.625 99.3206 875.103 100.103 875.722 100.915C875.802 100.982 875.778 100.996 875.784 100.984C876.123 101.844 876.601 102.627 877.221 103.438C877.3 103.506 877.276 103.52 877.282 103.507C877.621 104.368 878.099 105.15 878.719 105.962C878.798 106.03 878.775 106.044 878.781 106.031C879.119 106.891 879.597 107.674 880.217 108.485C880.296 108.553 880.273 108.567 880.279 108.554C880.617 109.415 881.096 110.197 881.715 111.009C881.795 111.077 881.771 111.091 881.777 111.078C882.116 111.938 882.594 112.721 883.213 113.533C883.293 113.6 883.269 113.614 883.275 113.602C883.614 114.462 884.092 115.244 884.711 116.056C884.791 116.124 884.767 116.138 884.773 116.125C885.112 116.986 885.59 117.768 886.21 118.58C886.289 118.647 886.265 118.662 886.272 118.649C886.61 119.509 887.088 120.292 887.708 121.103C887.787 121.171 887.764 121.185 887.77 121.172C888.108 122.033 888.586 122.815 889.206 123.627C889.286 123.695 889.262 123.709 889.268 123.696C889.564 124.316 889.772 125.004 890.41 125.526C891.263 126.495 891.266 126.896 889.919 126.887C883.278 126.843 876.637 126.853 869.996 126.885C869.206 126.888 868.786 126.645 868.37 125.901C865.483 120.737 862.531 115.612 859.597 110.476C856.037 104.245 852.456 98.0262 848.918 91.7804C847.012 88.4156 845.179 85.0056 843.113 81.2532C843.113 82.159 843.113 82.656 843.113 83.1529C843.113 97.1885 843.095 111.224 843.142 125.259C843.147 126.552 842.878 126.92 841.61 126.902C836.069 126.82 830.525 126.844 824.983 126.888C824.018 126.896 823.608 126.762 823.609 125.569C823.644 98.1285 823.64 70.6882 823.619 43.2479C823.619 42.3385 823.759 41.9761 824.742 41.9853C830.484 42.0392 836.227 42.0471 841.968 41.981C843.076 41.9682 843.128 42.4583 843.126 43.3653C843.106 55.4032 843.113 67.4412 843.113 79.4792C843.113 80.0178 843.113 80.5564 843.113 81.095C843.234 81.1167 843.356 81.1384 843.478 81.16C845.857 77.4477 848.231 73.7313 850.617 70.0238C855.942 61.7504 861.273 53.4807 866.607 45.2137C866.745 45 867.033 44.8677 867.113 44.643C868.02 42.0951 869.881 41.8923 872.165 41.9591C877.702 42.1209 883.246 42.0117 888.85 42.0117C888.957 42.8833 888.419 43.3431 887.868 43.8936C886.289 43.4732 887.248 44.7914 886.976 45.2881C886.814 45.6194 886.625 45.8507 886.354 46.1154C884.642 46.0442 884.965 47.3465 884.878 48.4375C884.716 48.7723 884.527 49.0043 884.257 49.2698C882.693 48.8357 883.653 50.1541 883.38 50.6507C883.219 50.982 883.03 51.2133 882.759 51.4779C881.195 51.0439 882.154 52.3622 881.882 52.8589Z" fill="#0867B3"/>
<path d="M663.332 126.867C660.886 126.867 658.588 126.833 656.293 126.883C655.335 126.904 655.067 126.623 655.36 125.62C657.438 118.495 659.496 111.364 661.538 104.228C664.545 93.7177 667.533 83.2017 670.53 72.6883C673.332 62.8586 676.136 53.0298 678.932 43.1981C679.182 42.3182 679.579 41.9644 680.567 41.9746C687.406 42.0447 694.247 42.0404 701.086 41.9839C702.264 41.9741 702.719 42.2591 703.074 43.5629C704.782 49.8438 706.695 56.0624 708.488 62.3183C711.429 72.5828 714.319 82.8637 717.259 93.1288C720.311 103.785 723.398 114.431 726.461 125.084C726.613 125.616 726.68 126.176 726.8 126.791C726.447 126.817 726.11 126.863 725.774 126.864C719.733 126.868 713.692 126.854 707.651 126.88C706.724 126.885 706.345 126.693 706.11 125.566C705.035 120.426 703.734 115.339 702.617 110.207C702.358 109.018 702.014 108.526 700.764 108.539C694.025 108.607 687.284 108.587 680.545 108.553C679.557 108.547 679.114 108.788 678.875 109.92C677.76 115.211 676.472 120.46 675.364 125.752C675.152 126.765 674.742 126.879 673.966 126.875C670.471 126.856 666.976 126.867 663.332 126.867Z" fill="#0867B3"/>
<path d="M273.219 104.769C275.321 112.173 277.413 119.446 279.525 126.794C279.126 126.824 278.835 126.864 278.543 126.864C272.451 126.867 266.359 126.86 260.267 126.875C259.448 126.877 258.998 126.796 258.768 125.691C257.677 120.448 256.403 115.247 255.244 110.019C255.012 108.977 254.679 108.521 253.526 108.534C246.785 108.609 240.044 108.582 233.303 108.559C232.266 108.556 231.746 108.619 231.474 110.056C230.466 115.368 229.13 120.61 227.991 125.896C227.809 126.741 227.439 126.873 226.77 126.872C220.778 126.863 214.786 126.849 208.794 126.883C207.769 126.888 207.776 126.425 208.007 125.627C210.074 118.497 212.14 111.367 214.183 104.229C217.191 93.7172 220.179 83.1991 223.175 72.6837C225.977 62.8522 228.779 53.0206 231.583 43.1898C231.803 42.4198 232.102 41.9665 233.072 41.9757C240.063 42.0424 247.054 42.0299 254.044 41.9889C254.952 41.9835 255.301 42.295 255.558 43.1978C258.115 52.1994 260.732 61.1824 263.311 70.177C266.523 81.3724 269.715 92.5738 272.917 103.772C273.001 104.065 273.11 104.351 273.219 104.769Z" fill="#0867B3"/>
<path d="M358.004 111.094C358.004 88.5401 358.019 66.1434 357.969 43.747C357.966 42.2768 358.357 41.9752 359.684 41.9797C374.616 42.03 389.548 42.0331 404.479 41.9744C405.81 41.9692 406.131 42.4217 405.948 43.6537C405.481 46.8036 405.028 49.9559 404.567 53.1069C404.559 53.1556 404.5 53.1991 404.499 53.2453C404.492 54.33 404.618 55.8672 403.933 56.2947C403.074 56.831 401.719 56.5159 400.578 56.5173C393.237 56.5267 385.895 56.5485 378.555 56.4937C377.451 56.4854 377.139 56.7495 377.151 57.9494C377.213 64.3628 377.216 70.7776 377.149 77.1908C377.136 78.4187 377.491 78.6377 378.569 78.6299C385.66 78.5784 392.751 78.6195 399.842 78.5844C400.805 78.5796 401.127 78.5876 400.904 79.8641C400.173 84.0601 399.602 88.2908 399.108 92.5261C398.976 93.6544 398.402 93.4249 397.803 93.4255C391.461 93.4317 385.118 93.4724 378.777 93.3939C377.473 93.3778 377.136 93.6929 377.145 95.096C377.211 105.137 377.146 115.179 377.219 125.22C377.229 126.67 376.824 126.916 375.564 126.899C370.172 126.824 364.778 126.833 359.385 126.895C358.293 126.907 357.954 126.661 357.973 125.446C358.048 120.716 358.004 115.984 358.004 111.094Z" fill="#0867B3"/>
<path d="M335.531 42.0116C337.528 42.0117 339.376 42.0464 341.222 41.9948C341.957 41.9743 342.228 42.2227 342.123 42.9783C341.519 47.3043 340.917 51.6307 340.324 55.9585C340.19 56.9365 339.478 56.5001 339.039 56.5017C331.101 56.5298 323.163 56.5222 315.225 56.5222C314.926 56.5222 314.621 56.5597 314.328 56.5154C313.507 56.3912 313.34 56.793 313.343 57.5872C313.37 64.2094 313.383 70.832 313.333 77.4539C313.325 78.5106 313.704 78.6238 314.546 78.6202C321.585 78.5907 328.625 78.6454 335.663 78.5657C336.971 78.5509 337.174 79.0795 337.013 80.1876C336.517 83.5916 336.012 86.994 335.54 90.4016C335.428 91.2164 335.174 91.995 335.198 92.8531C335.227 93.8402 334.395 93.4074 333.955 93.4094C327.615 93.4387 321.274 93.4781 314.935 93.3905C313.587 93.3719 313.318 93.76 313.326 95.1161C313.385 105.154 313.337 115.193 313.385 125.232C313.391 126.475 313.201 126.927 311.882 126.905C306.392 126.814 300.9 126.843 295.408 126.889C294.45 126.897 294.158 126.652 294.159 125.601C294.187 98.1652 294.19 70.7297 294.153 43.2944C294.151 42.0662 294.607 41.992 295.542 41.9938C308.822 42.02 322.102 42.0116 335.531 42.0116Z" fill="#0867B3"/>
<path d="M442.967 42.1553C443.078 44.6799 443.098 47.0963 443.099 49.5128C443.101 74.7335 443.089 99.9542 443.13 125.175C443.132 126.515 442.892 126.932 441.529 126.907C436.091 126.809 430.649 126.835 425.21 126.894C424.153 126.906 423.898 126.607 423.899 125.507C423.93 98.1316 423.93 70.7566 423.9 43.3816C423.899 42.2959 424.13 41.9713 425.201 41.984C431.089 42.0539 436.978 42.0354 442.967 42.1553Z" fill="#0867B3"/>
<path d="M114.941 22.6777C111.459 25.7108 108.569 29.1213 106.207 33.0668C103.022 38.3874 101.068 44.1473 99.9812 50.3101C99.3777 53.7315 99.3625 57.1532 99.4528 60.5839C99.4971 62.2683 99.8337 63.9563 100.161 65.6158C100.381 66.7336 100.473 67.3173 99.0535 67.6484C95.6483 68.4426 92.3053 69.5397 88.9526 70.57C88.3106 70.7672 88.1743 70.724 88.0046 69.981C86.7078 64.3011 86.5547 58.515 86.8918 52.7576C87.2831 46.0735 88.8219 39.6272 91.4638 33.4713C94.5158 26.3598 98.7449 20.154 104.133 14.8593C108.618 10.4517 113.684 6.93323 119.362 4.34403C123.273 2.56069 127.327 1.38571 131.448 0.448093C133.008 0.0929359 134.665 -0.0632763 136.314 0.0234987C137.022 0.0607826 137.354 0.422149 137.435 0.971197C138.002 4.79807 138.792 8.59685 138.695 12.5111C138.672 13.406 138.424 13.5703 137.605 13.6534C132.352 14.1858 127.184 15.1551 122.402 17.657C119.782 19.0282 117.366 20.7624 114.941 22.6777Z" fill="#0867B3"/>
<path d="M127.322 48.1175C123.201 50.601 119.568 48.8118 118.027 45.9765C115.748 41.7843 118.093 36.7876 122.004 36.0417C125.326 35.408 127.779 36.6875 129.111 39.1621C130.572 41.8755 130.259 45.7163 127.322 48.1175Z" fill="#EE2E30"/>
<path d="M110.242 49.2668C114.902 49.43 116.585 52.0933 117.062 55.7283C117.456 58.722 114.82 61.8876 111.914 62.5547C109.241 63.1681 107.122 62.243 105.541 60.1829C103.757 57.8578 103.636 55.1725 105.1 52.5526C106.21 50.5672 107.876 49.4085 110.242 49.2668Z" fill="#EE2E30"/>
<path d="M124.888 24.7582C125.355 21.0596 127.55 19.3317 129.773 19.0338C134.046 18.4614 136.281 20.0784 137.252 23.4316C138.463 27.6175 136.241 31.9349 131.61 32.2574C127.638 32.5341 124.319 29.1532 124.888 24.7582Z" fill="#EE2E30"/>
<path d="M884.973 48.4567C884.35 47.6293 884.683 45.8622 885.561 45.3325C886.119 44.9955 886.214 45.4639 886.267 46.0293C886.122 47.0491 885.364 47.5778 884.973 48.4567Z" fill="#0867B3"/>
<path d="M875.385 62.6519C874.762 61.8245 875.095 60.0573 875.972 59.5277C876.53 59.1907 876.625 59.6591 876.679 60.2245C876.533 61.2443 875.776 61.773 875.385 62.6519Z" fill="#0867B3"/>
<path d="M867.295 74.6387C866.672 73.8113 867.005 72.0442 867.882 71.5145C868.44 71.1775 868.535 71.6459 868.589 72.2113C868.443 73.2311 867.686 73.7598 867.295 74.6387Z" fill="#0867B3"/>
<path d="M864.299 79.0607C863.663 78.4854 863.425 77.8147 864.127 77.0845C864.7 76.4899 864.916 76.7807 864.993 77.5746C865.121 78.3039 864.424 78.468 864.299 79.0607Z" fill="#0867B3"/>
<path d="M865.797 76.8526C865.161 76.2773 864.923 75.6066 865.625 74.8764C866.197 74.2818 866.414 74.5724 866.491 75.3666C866.619 76.0958 865.922 76.2599 865.797 76.8526Z" fill="#0867B3"/>
<path d="M869.393 71.4899C868.757 70.9146 868.519 70.2439 869.221 69.5137C869.793 68.9191 870.01 69.2097 870.087 70.0039C870.215 70.7331 869.518 70.8972 869.393 71.4899Z" fill="#0867B3"/>
<path d="M872.389 67.0738C871.753 66.4985 871.515 65.8277 872.218 65.0976C872.79 64.503 873.006 64.7936 873.084 65.5877C873.211 66.317 872.514 66.4811 872.389 67.0738Z" fill="#0867B3"/>
<path d="M873.887 64.8655C873.251 64.2902 873.013 63.6195 873.716 62.8893C874.288 62.2948 874.504 62.5853 874.582 63.3795C874.71 64.1087 874.012 64.2728 873.887 64.8655Z" fill="#0867B3"/>
<path d="M877.483 59.503C876.847 58.9277 876.609 58.257 877.312 57.5268C877.884 56.9322 878.1 57.2228 878.177 58.0169C878.305 58.7462 877.608 58.9103 877.483 59.503Z" fill="#0867B3"/>
<path d="M878.981 57.2947C878.345 56.7194 878.107 56.0487 878.81 55.3185C879.382 54.724 879.598 55.0145 879.675 55.8087C879.803 56.5379 879.106 56.702 878.981 57.2947Z" fill="#0867B3"/>
<path d="M880.479 55.0867C879.844 54.5114 879.606 53.8407 880.308 53.1105C880.88 52.516 881.097 52.8065 881.174 53.6007C881.302 54.3299 880.604 54.494 880.479 55.0867Z" fill="#0867B3"/>
<path d="M887.071 45.3079C886.435 44.7326 886.197 44.0619 886.9 43.3317C887.472 42.7371 887.689 43.0277 887.766 43.8219C887.894 44.5511 887.196 44.7152 887.071 45.3079Z" fill="#0867B3"/>
<path d="M881.977 52.8787C881.341 52.3034 881.103 51.6327 881.806 50.9025C882.378 50.3079 882.595 50.5985 882.672 51.3927C882.8 52.1219 882.102 52.286 881.977 52.8787Z" fill="#0867B3"/>
<path d="M870.972 69.0387C869.996 68.649 870.109 68.0212 870.71 67.3327C871.265 66.696 871.5 66.9737 871.585 67.796C871.652 68.4146 871.283 68.6481 870.972 69.0387Z" fill="#0867B3"/>
<path d="M883.476 50.6704C882.84 50.0951 882.602 49.4245 883.304 48.6943C883.876 48.0997 884.093 48.3902 884.17 49.1844C884.298 49.9136 883.601 50.0777 883.476 50.6704Z" fill="#0867B3"/>
<path d="M878.784 105.917C877.81 105.618 877.442 104.752 877.285 103.614C877.981 104.123 878.423 104.93 878.784 105.917Z" fill="#0867B3"/>
<path d="M872.791 95.8224C871.817 95.5237 871.449 94.6576 871.292 93.5201C871.988 94.0287 872.43 94.8355 872.791 95.8224Z" fill="#0867B3"/>
<path d="M880.282 108.44C879.308 108.141 878.94 107.275 878.783 106.138C879.479 106.647 879.921 107.453 880.282 108.44Z" fill="#0867B3"/>
<path d="M881.78 110.964C880.806 110.665 880.438 109.799 880.281 108.661C880.977 109.17 881.419 109.977 881.78 110.964Z" fill="#0867B3"/>
<path d="M883.279 113.487C882.305 113.189 881.937 112.322 881.779 111.185C882.476 111.694 882.917 112.5 883.279 113.487Z" fill="#0867B3"/>
<path d="M884.777 116.011C883.803 115.712 883.435 114.846 883.277 113.709C883.974 114.217 884.415 115.024 884.777 116.011Z" fill="#0867B3"/>
<path d="M886.275 118.534C885.301 118.236 884.933 117.37 884.775 116.232C885.472 116.741 885.914 117.548 886.275 118.534Z" fill="#0867B3"/>
<path d="M887.773 121.058C886.799 120.759 886.431 119.893 886.274 118.756C886.97 119.264 887.412 120.071 887.773 121.058Z" fill="#0867B3"/>
<path d="M889.271 123.582C888.297 123.283 887.929 122.417 887.772 121.279C888.468 121.788 888.91 122.595 889.271 123.582Z" fill="#0867B3"/>
<path d="M877.286 103.393C876.312 103.094 875.944 102.228 875.787 101.091C876.483 101.599 876.925 102.406 877.286 103.393Z" fill="#0867B3"/>
<path d="M875.788 100.87C874.814 100.571 874.446 99.7047 874.288 98.5673C874.985 99.0759 875.426 99.8827 875.788 100.87Z" fill="#0867B3"/>
<path d="M874.289 98.346C873.315 98.0472 872.947 97.1811 872.79 96.0437C873.486 96.5523 873.928 97.3591 874.289 98.346Z" fill="#0867B3"/>
<path d="M870.694 92.3526C869.72 92.0538 869.352 91.1877 869.194 90.0503C869.891 90.5589 870.332 91.3657 870.694 92.3526Z" fill="#0867B3"/>
<path d="M869.196 89.8289C868.222 89.5301 867.854 88.664 867.697 87.5266C868.393 88.0352 868.835 88.842 869.196 89.8289Z" fill="#0867B3"/>
<path d="M867.697 87.3054C866.723 87.0067 866.355 86.1406 866.198 85.0032C866.894 85.5118 867.336 86.3186 867.697 87.3054Z" fill="#0867B3"/>
<path d="M866.2 84.7817C865.226 84.483 864.858 83.6169 864.7 82.4795C865.397 82.9881 865.838 83.7949 866.2 84.7817Z" fill="#0867B3"/>
<path d="M864.702 82.2593C863.848 81.9755 863.352 81.3121 863.441 80.2256C863.974 80.7839 864.447 81.3901 864.702 82.2593Z" fill="#0867B3"/>
<path d="M890.473 125.482C889.505 125.504 889.383 124.715 889.27 123.803C889.906 124.061 890.103 124.778 890.473 125.482Z" fill="#0867B3"/>
<path d="M871.294 93.309C870.841 93.4148 870.669 93.1408 870.693 92.5693C870.991 92.6186 871.254 92.8109 871.294 93.309Z" fill="#0867B3"/>
<path d="M22.6483 93.3389C26.8903 89.7172 31.4623 86.9681 36.5685 85.1924C41.525 83.4688 46.6079 82.7276 51.7905 83.0683C54.1524 83.2235 56.5437 83.5433 58.849 84.3142C49.7185 96.0416 32.9068 102.248 18.1765 98.0008C19.6858 96.429 21.1299 94.925 22.6483 93.3389Z" fill="white"/>
<path d="M88.1284 112.899C89.4923 117.691 90.3356 122.451 90.1231 127.355C89.8157 134.449 88.2186 141.594 83.886 148.672C75.8836 133.637 76.0556 118.746 84.0832 103.507C85.6325 106.731 87.2511 109.561 88.1284 112.899Z" fill="white"/>
<path d="M616.03 111.425C614.441 112.046 612.878 111.784 611.376 111.968C609.11 112.246 606.791 112.008 604.495 112.059C603.682 112.077 603.38 111.875 603.385 110.946C603.422 104.114 603.42 97.281 603.386 90.4487C603.382 89.5507 603.62 89.2928 604.471 89.3085C607.366 89.3616 610.272 89.1648 613.155 89.3706C616.688 89.6229 620.158 90.347 622.788 93.1924C624.419 94.9573 625.227 97.1477 625.262 99.5963C625.293 101.755 625.395 103.886 624.432 105.979C622.726 109.688 619.71 110.938 616.03 111.425Z" fill="white"/>
<path d="M603.405 73.2227C603.405 68.0237 603.448 62.9789 603.373 57.936C603.355 56.7117 603.707 56.4648 604.791 56.4959C608.346 56.5981 611.914 56.3163 615.432 57.1487C622.207 58.7515 624.73 67.0003 620.094 72.5276C618.569 74.3461 616.467 75.0206 614.279 75.4505C611.171 76.0608 608.031 75.5827 604.915 75.7919C603.652 75.8767 603.178 75.4701 603.398 74.1645C603.441 73.9098 603.405 73.6402 603.405 73.2227Z" fill="white"/>
<path d="M696.265 93.7449C691.635 93.7449 687.151 93.7449 682.492 93.7449C685.214 81.7409 687.908 69.8562 690.695 57.5605C693.483 69.872 696.177 81.7708 698.888 93.7449C698.003 93.7449 697.207 93.7449 696.265 93.7449Z" fill="white"/>
<path d="M248.648 81.3726C249.622 85.558 250.589 89.6085 251.575 93.7447C246.311 93.7447 241.172 93.7372 236.033 93.7534C235.325 93.7556 235.181 93.7113 235.393 92.8209C236.4 88.6059 237.226 84.3439 238.178 80.1138C239.743 73.1534 241.352 66.204 242.951 59.2521C243.03 58.9102 243.186 58.5879 243.41 57.9696C244.254 61.6849 245.039 65.1152 245.81 68.5491C246.76 72.7771 247.697 77.008 248.648 81.3726Z" fill="white"/>
</svg>
