<svg width="800" height="180" viewBox="0 0 800 180" fill="none" xmlns="http://www.w3.org/2000/svg">
<rect width="800" height="180" rx="15" fill="white"/>
<path d="M669.13 93.9624C670.253 97.0871 671.329 100.131 672.519 103.498C673.058 102.073 672.617 100.997 672.481 100.005C672.243 98.2744 672.04 96.5323 671.917 94.8012C671.054 82.573 671.58 70.3205 671.422 58.0791C671.411 57.252 671.605 57.0199 672.401 57.0301C676.106 57.0776 679.811 57.0792 683.516 57.0293C684.332 57.0184 684.482 57.2912 684.481 58.0936C684.46 78.6844 684.459 99.2753 684.482 119.866C684.483 120.717 684.337 121.001 683.46 120.993C677.959 120.945 672.458 120.961 666.956 120.981C666.427 120.983 666.043 120.918 665.837 120.329C663.466 113.547 661.091 106.766 658.707 99.9896C655.955 92.1678 653.194 84.3494 650.432 76.5313C650.106 75.6071 649.983 74.592 649.311 73.6413C649.63 77.7456 650.188 81.6624 650.377 85.6242C650.485 87.885 650.733 90.1553 650.75 92.4157C650.817 101.523 650.764 110.631 650.798 119.738C650.801 120.676 650.657 121.017 649.67 120.997C646.079 120.925 642.485 120.948 638.892 120.986C638.166 120.994 637.96 120.795 637.96 120.01C637.981 99.3404 637.981 78.6704 637.959 58.0004C637.959 57.1995 638.19 57.0311 638.901 57.035C644.252 57.0646 649.605 57.0741 654.956 57.0248C655.703 57.0179 655.939 57.3421 656.162 57.9678C658.404 64.268 660.656 70.5641 662.92 76.8553C664.965 82.5347 667.027 88.2067 669.13 93.9624Z" fill="#0867B3"/>
<path d="M475.383 70.1198C475.383 86.7107 475.372 103.183 475.408 119.655C475.41 120.747 475.14 121.005 474.13 120.995C468.816 120.939 463.501 120.948 458.187 120.99C457.33 120.996 456.96 120.786 456.637 119.858C453.235 110.076 449.752 100.326 446.306 90.5613C444.374 85.0839 442.47 79.5951 440.547 74.1143C440.518 74.0324 440.395 73.9875 440.186 73.8223C440.456 76.2056 440.695 78.4453 440.969 80.6804C441.092 81.6871 441.139 82.7136 441.186 83.71C441.272 85.5127 441.428 87.3146 441.504 89.119C441.934 99.3176 441.549 109.519 441.721 119.717C441.739 120.784 441.466 121.013 440.496 120.995C436.942 120.929 433.386 120.951 429.831 120.984C429.139 120.99 428.876 120.854 428.877 120.032C428.9 99.3624 428.899 78.6931 428.88 58.0239C428.88 57.2645 429.047 57.0275 429.797 57.0324C435.148 57.0676 440.5 57.0696 445.852 57.0291C446.563 57.0237 446.858 57.3568 447.071 57.946C450.803 68.2962 454.541 78.6436 458.26 88.9989C459.952 93.7092 461.603 98.4359 463.278 103.153C463.309 103.24 463.405 103.301 463.541 103.451C463.797 103.04 463.741 102.635 463.688 102.286C463.248 99.4415 463 96.5792 462.79 93.7051C461.93 81.9467 462.571 70.1709 462.33 58.4066C462.305 57.2137 462.642 57.0018 463.684 57.0233C467.238 57.0962 470.795 57.0798 474.349 57.0298C475.171 57.0182 475.418 57.2116 475.406 58.1227C475.352 62.0814 475.383 66.0415 475.383 70.1198Z" fill="#0867B3"/>
<path d="M565.726 101.148C565.963 105.41 565.303 109.353 562.929 112.8C560.275 116.653 556.426 118.46 552.217 119.523C548.879 120.367 545.47 120.602 542.035 120.782C535.086 121.146 528.14 120.804 521.195 120.993C520.233 121.019 520.051 120.716 520.052 119.753C520.08 99.2392 520.079 78.7254 520.056 58.2117C520.055 57.3201 520.218 57.0185 521.135 57.026C527.161 57.0749 533.192 56.8969 539.212 57.0992C544.188 57.2664 549.157 57.6998 553.91 59.6215C558.919 61.6467 562.392 65.0882 563.132 70.8421C563.717 75.3878 563.004 79.7677 559.681 83.1362C557.847 84.9957 555.63 86.2874 553.148 87.0018C553.083 87.0206 553.028 87.0776 552.968 87.1183C561.103 89.0075 565.636 93.752 565.726 101.148Z" fill="#0867B3"/>
<path d="M743.166 65.222C743.045 65.4715 742.903 65.6458 742.7 65.8451C741.528 65.5181 742.247 66.5111 742.043 66.8853C741.922 67.1348 741.78 67.309 741.577 67.5084C740.405 67.1814 741.124 68.1744 740.92 68.5485C740.799 68.7981 740.658 68.9723 740.454 69.1716C739.282 68.8447 740.001 69.8377 739.797 70.2118C739.676 70.4614 739.535 70.6356 739.332 70.8349C738.049 70.7814 738.29 71.7623 738.225 72.5841C738.104 72.8363 737.962 73.0111 737.76 73.211C736.587 72.8841 737.307 73.8771 737.102 74.2512C736.981 74.5007 736.84 74.675 736.637 74.8743C735.464 74.5474 736.184 75.5404 735.979 75.9145C735.859 76.164 735.717 76.3382 735.514 76.5376C734.54 76.245 734.88 76.9081 734.935 77.4065C734.939 77.8292 734.614 77.9292 734.395 78.1972C733.219 77.874 733.938 78.8669 733.734 79.2411C733.613 79.4906 733.471 79.6648 733.268 79.8642C731.985 79.8106 732.227 80.7916 732.161 81.6134C732.04 81.8656 731.899 82.0403 731.696 82.2403C730.524 81.9136 731.243 82.9064 731.039 83.2805C730.918 83.53 730.776 83.7042 730.573 83.9036C729.401 83.5767 730.12 84.5696 729.916 84.9438C729.763 85.2297 729.59 85.4403 729.41 85.721C729.408 86.452 729.896 86.8433 730.239 87.4006C730.3 87.4522 730.282 87.4628 730.286 87.4532C730.54 88.1013 730.899 88.6907 731.363 89.302C731.423 89.3531 731.405 89.3637 731.409 89.3541C731.663 90.0022 732.021 90.5916 732.486 91.2029C732.545 91.2539 732.528 91.2646 732.532 91.2549C732.786 91.9031 733.144 92.4924 733.609 93.1038C733.668 93.1548 733.65 93.1655 733.655 93.1558C733.909 93.804 734.267 94.3933 734.732 95.0047C734.791 95.0557 734.773 95.0663 734.778 95.0567C734.903 95.255 734.963 95.5 735.185 95.7236C735.24 95.7686 735.222 95.7792 735.227 95.7696C735.481 96.4177 735.839 97.0071 736.304 97.6184C736.363 97.6695 736.345 97.6801 736.35 97.6705C736.604 98.3186 736.962 98.908 737.426 99.5193C737.486 99.5704 737.468 99.581 737.473 99.5714C737.727 100.22 738.085 100.809 738.549 101.42C738.609 101.471 738.591 101.482 738.596 101.472C738.85 102.12 739.208 102.71 739.672 103.321C739.732 103.372 739.714 103.383 739.719 103.373C739.972 104.021 740.331 104.611 740.795 105.222C740.855 105.273 740.837 105.284 740.842 105.274C741.095 105.922 741.454 106.512 741.918 107.123C741.978 107.174 741.96 107.185 741.964 107.175C742.218 107.823 742.577 108.412 743.041 109.024C743.101 109.075 743.083 109.085 743.087 109.076C743.341 109.724 743.699 110.313 744.164 110.925C744.223 110.976 744.206 110.986 744.21 110.977C744.464 111.625 744.822 112.214 745.287 112.826C745.346 112.877 745.328 112.887 745.333 112.878C745.587 113.526 745.945 114.115 746.41 114.726C746.469 114.778 746.451 114.788 746.456 114.779C746.71 115.427 747.068 116.016 747.532 116.627C747.592 116.678 747.574 116.689 747.579 116.679C747.833 117.328 748.191 117.917 748.655 118.528C748.715 118.579 748.697 118.59 748.702 118.58C748.924 119.048 749.08 119.566 749.558 119.959C750.197 120.689 750.2 120.991 749.19 120.984C744.212 120.951 739.235 120.959 734.257 120.982C733.665 120.985 733.351 120.802 733.039 120.242C730.875 116.351 728.663 112.491 726.463 108.623C723.795 103.929 721.111 99.2445 718.46 94.5398C717.031 92.0053 715.657 89.4367 714.108 86.6102C714.108 87.2925 714.108 87.6668 714.108 88.0411C714.108 98.6135 714.095 109.186 714.131 119.758C714.134 120.732 713.933 121.009 712.982 120.995C708.829 120.934 704.674 120.952 700.52 120.985C699.797 120.991 699.489 120.89 699.49 119.991C699.517 99.3216 699.514 78.652 699.498 57.9825C699.497 57.2975 699.602 57.0245 700.339 57.0314C704.643 57.072 708.947 57.0779 713.251 57.0282C714.08 57.0186 714.12 57.3877 714.118 58.0709C714.103 67.1385 714.108 76.2062 714.108 85.2739C714.108 85.6796 714.108 86.0853 714.108 86.491C714.199 86.5073 714.291 86.5237 714.382 86.54C716.165 83.7437 717.944 80.9443 719.733 78.1515C723.724 71.9196 727.719 65.6904 731.717 59.4632C731.82 59.3023 732.037 59.2026 732.097 59.0333C732.777 57.1142 734.171 56.9614 735.883 57.0117C740.033 57.1335 744.188 57.0513 748.388 57.0513C748.469 57.7078 748.065 58.0542 747.653 58.4689C746.469 58.1522 747.188 59.1451 746.984 59.5193C746.863 59.7688 746.721 59.943 746.518 60.1424C745.235 60.0888 745.477 61.0698 745.412 61.8916C745.29 62.1438 745.149 62.3185 744.946 62.5185C743.774 62.1915 744.493 63.1846 744.289 63.5587C744.168 63.8082 744.026 63.9824 743.823 64.1818C742.651 63.8548 743.37 64.8479 743.166 65.222Z" fill="#0867B3"/>
<path d="M579.362 120.969C577.529 120.969 575.807 120.943 574.086 120.981C573.369 120.997 573.168 120.785 573.387 120.03C574.945 114.663 576.487 109.291 578.018 103.916C580.271 95.9991 582.511 88.0779 584.757 80.1586C586.857 72.7543 588.959 65.3507 591.054 57.9449C591.242 57.2822 591.539 57.0157 592.28 57.0234C597.406 57.0762 602.533 57.0729 607.659 57.0304C608.542 57.023 608.883 57.2377 609.149 58.2198C610.429 62.9509 611.863 67.6351 613.207 72.3473C615.411 80.0791 617.577 87.8233 619.781 95.5555C622.068 103.583 624.382 111.601 626.677 119.626C626.792 120.027 626.841 120.448 626.931 120.912C626.667 120.932 626.415 120.966 626.163 120.966C621.635 120.97 617.107 120.959 612.579 120.979C611.885 120.982 611.601 120.838 611.424 119.989C610.619 116.117 609.644 112.285 608.807 108.42C608.613 107.524 608.355 107.153 607.418 107.163C602.367 107.214 597.315 107.2 592.263 107.174C591.523 107.17 591.191 107.351 591.012 108.204C590.176 112.189 589.211 116.143 588.38 120.129C588.221 120.892 587.914 120.978 587.332 120.975C584.713 120.961 582.094 120.969 579.362 120.969Z" fill="#0867B3"/>
<path d="M286.971 104.324C288.547 109.9 290.114 115.379 291.698 120.914C291.399 120.936 291.18 120.966 290.962 120.967C286.396 120.969 281.83 120.964 277.264 120.975C276.65 120.976 276.312 120.915 276.14 120.083C275.323 116.134 274.368 112.216 273.499 108.278C273.325 107.494 273.076 107.15 272.211 107.159C267.159 107.216 262.106 107.195 257.054 107.179C256.277 107.176 255.887 107.223 255.683 108.306C254.927 112.307 253.926 116.256 253.073 120.238C252.937 120.874 252.659 120.973 252.158 120.973C247.667 120.966 243.175 120.956 238.684 120.981C237.916 120.985 237.922 120.636 238.095 120.035C239.644 114.664 241.193 109.293 242.723 103.917C244.978 95.9986 247.217 88.0758 249.463 80.1551C251.563 72.7495 253.663 65.3438 255.765 57.9387C255.93 57.3586 256.154 57.0172 256.881 57.0242C262.12 57.0744 267.36 57.065 272.6 57.034C273.28 57.03 273.542 57.2646 273.734 57.9447C275.651 64.7252 277.612 71.4917 279.546 78.2669C281.952 86.6999 284.345 95.1374 286.745 103.572C286.808 103.793 286.89 104.008 286.971 104.324Z" fill="#0867B3"/>
<path d="M350.518 109.088C350.518 92.099 350.529 75.2287 350.492 58.3584C350.489 57.251 350.782 57.0238 351.777 57.0272C362.969 57.0651 374.16 57.0675 385.351 57.0232C386.348 57.0193 386.589 57.3601 386.452 58.2882C386.102 60.6608 385.762 63.0353 385.417 65.4088C385.411 65.4455 385.367 65.4783 385.366 65.5131C385.361 66.3302 385.455 67.488 384.942 67.8101C384.298 68.214 383.282 67.9766 382.427 67.9777C376.925 67.9848 371.423 68.0013 365.921 67.9599C365.093 67.9537 364.86 68.1527 364.869 69.0565C364.916 73.8874 364.917 78.7194 364.867 83.5502C364.858 84.4751 365.123 84.64 365.931 84.6341C371.246 84.5954 376.561 84.6263 381.876 84.5999C382.597 84.5963 382.839 84.6023 382.672 85.5638C382.124 88.7244 381.696 91.9113 381.326 95.1015C381.227 95.9514 380.796 95.7786 380.348 95.779C375.594 95.7837 370.84 95.8143 366.087 95.7552C365.11 95.7431 364.857 95.9804 364.864 97.0373C364.914 104.601 364.865 112.165 364.92 119.729C364.927 120.821 364.624 121.006 363.68 120.993C359.638 120.936 355.595 120.944 351.553 120.99C350.734 120.999 350.48 120.814 350.495 119.899C350.551 116.336 350.518 112.771 350.518 109.088Z" fill="#0867B3"/>
<path d="M333.674 57.0511C335.171 57.0512 336.556 57.0774 337.94 57.0385C338.491 57.023 338.694 57.2101 338.615 57.7793C338.162 61.0379 337.711 64.2967 337.267 67.5566C337.166 68.2934 336.632 67.9647 336.303 67.9658C330.354 67.987 324.405 67.9813 318.455 67.9813C318.231 67.9813 318.002 68.0096 317.782 67.9761C317.167 67.8826 317.042 68.1853 317.045 68.7835C317.064 73.7717 317.075 78.7602 317.037 83.7482C317.03 84.5441 317.315 84.6294 317.946 84.6267C323.222 84.6045 328.498 84.6457 333.773 84.5857C334.753 84.5745 334.906 84.9727 334.785 85.8074C334.414 88.3714 334.035 90.9343 333.681 93.5011C333.597 94.1148 333.407 94.7014 333.425 95.3478C333.446 96.0913 332.823 95.7652 332.493 95.7667C327.741 95.7888 322.989 95.8185 318.237 95.7525C317.227 95.7385 317.026 96.0309 317.032 97.0523C317.076 104.614 317.04 112.176 317.076 119.737C317.081 120.673 316.938 121.014 315.95 120.997C311.835 120.929 307.718 120.951 303.602 120.986C302.884 120.992 302.665 120.807 302.666 120.015C302.687 99.3491 302.689 78.6832 302.661 58.0174C302.66 57.0923 303.002 57.0363 303.703 57.0377C313.656 57.0574 323.609 57.0511 333.674 57.0511Z" fill="#0867B3"/>
<path d="M414.198 57.1593C414.281 59.061 414.296 60.8812 414.297 62.7014C414.298 81.699 414.29 100.697 414.32 119.694C414.321 120.704 414.142 121.018 413.12 120.999C409.044 120.925 404.966 120.945 400.889 120.989C400.097 120.998 399.906 120.773 399.907 119.944C399.93 99.3237 399.929 78.7034 399.907 58.0831C399.906 57.2652 400.08 57.0207 400.882 57.0303C405.295 57.083 409.709 57.069 414.198 57.1593Z" fill="#0867B3"/>
<path d="M745.483 61.906C745.016 61.2828 745.266 59.9517 745.923 59.5527C746.341 59.2988 746.413 59.6516 746.453 60.0776C746.344 60.8457 745.776 61.244 745.483 61.906Z" fill="#0867B3"/>
<path d="M738.297 72.5985C737.83 71.9753 738.079 70.6442 738.737 70.2452C739.155 69.9913 739.226 70.3442 739.267 70.7701C739.158 71.5382 738.59 71.9365 738.297 72.5985Z" fill="#0867B3"/>
<path d="M732.233 81.6277C731.766 81.0045 732.016 79.6733 732.673 79.2744C733.092 79.0205 733.163 79.3733 733.203 79.7993C733.094 80.5674 732.526 80.9657 732.233 81.6277Z" fill="#0867B3"/>
<path d="M729.987 84.9579C729.511 84.5247 729.332 84.0198 729.859 83.47C730.288 83.0223 730.45 83.2412 730.508 83.839C730.604 84.3881 730.081 84.5116 729.987 84.9579Z" fill="#0867B3"/>
<path d="M731.11 83.2945C730.633 82.8614 730.455 82.3563 730.982 81.8066C731.411 81.3588 731.573 81.5776 731.631 82.1756C731.727 82.7247 731.204 82.8482 731.11 83.2945Z" fill="#0867B3"/>
<path d="M733.805 79.2552C733.329 78.822 733.15 78.317 733.677 77.7672C734.106 77.3196 734.268 77.5383 734.326 78.1363C734.422 78.6854 733.899 78.8089 733.805 79.2552Z" fill="#0867B3"/>
<path d="M736.051 75.9286C735.575 75.4955 735.396 74.9905 735.923 74.4407C736.352 73.993 736.514 74.2118 736.572 74.8098C736.668 75.3588 736.145 75.4824 736.051 75.9286Z" fill="#0867B3"/>
<path d="M737.174 74.2653C736.697 73.8321 736.519 73.3271 737.045 72.7773C737.474 72.3297 737.637 72.5485 737.694 73.1464C737.79 73.6955 737.268 73.8191 737.174 74.2653Z" fill="#0867B3"/>
<path d="M739.869 70.2259C739.392 69.7927 739.214 69.2877 739.741 68.7379C740.169 68.2903 740.332 68.509 740.39 69.107C740.485 69.6561 739.963 69.7796 739.869 70.2259Z" fill="#0867B3"/>
<path d="M740.992 68.5626C740.515 68.1294 740.337 67.6244 740.863 67.0746C741.292 66.6269 741.455 66.8457 741.512 67.4437C741.608 67.9927 741.085 68.1163 740.992 68.5626Z" fill="#0867B3"/>
<path d="M742.115 66.8993C741.638 66.4662 741.46 65.9612 741.986 65.4114C742.415 64.9637 742.578 65.1825 742.635 65.7804C742.731 66.3295 742.208 66.4531 742.115 66.8993Z" fill="#0867B3"/>
<path d="M747.055 59.5334C746.579 59.1002 746.4 58.5952 746.927 58.0454C747.356 57.5977 747.518 57.8165 747.576 58.4145C747.672 58.9636 747.149 59.0871 747.055 59.5334Z" fill="#0867B3"/>
<path d="M743.238 65.2361C742.761 64.803 742.583 64.298 743.109 63.7482C743.538 63.3005 743.7 63.5193 743.758 64.1172C743.854 64.6663 743.331 64.7899 743.238 65.2361Z" fill="#0867B3"/>
<path d="M734.989 77.4088C734.258 77.1154 734.342 76.6427 734.793 76.1243C735.209 75.6449 735.385 75.854 735.449 76.4731C735.499 76.9389 735.222 77.1147 734.989 77.4088Z" fill="#0867B3"/>
<path d="M744.361 63.5728C743.884 63.1396 743.706 62.6347 744.232 62.0849C744.661 61.6372 744.824 61.8559 744.881 62.4539C744.977 63.003 744.455 63.1265 744.361 63.5728Z" fill="#0867B3"/>
<path d="M740.844 105.187C740.114 104.962 739.838 104.31 739.72 103.454C740.242 103.837 740.573 104.444 740.844 105.187Z" fill="#0867B3"/>
<path d="M736.353 97.5837C735.623 97.3588 735.347 96.7066 735.229 95.8502C735.751 96.2332 736.082 96.8406 736.353 97.5837Z" fill="#0867B3"/>
<path d="M741.967 107.088C741.237 106.863 740.961 106.211 740.843 105.355C741.365 105.738 741.696 106.345 741.967 107.088Z" fill="#0867B3"/>
<path d="M743.09 108.989C742.36 108.764 742.084 108.112 741.966 107.255C742.488 107.638 742.819 108.246 743.09 108.989Z" fill="#0867B3"/>
<path d="M744.213 110.89C743.483 110.665 743.207 110.013 743.089 109.156C743.611 109.539 743.942 110.147 744.213 110.89Z" fill="#0867B3"/>
<path d="M745.336 112.791C744.606 112.566 744.33 111.914 744.212 111.057C744.734 111.44 745.065 112.048 745.336 112.791Z" fill="#0867B3"/>
<path d="M746.458 114.692C745.728 114.467 745.452 113.815 745.334 112.958C745.857 113.341 746.188 113.949 746.458 114.692Z" fill="#0867B3"/>
<path d="M747.582 116.593C746.852 116.368 746.576 115.716 746.458 114.859C746.98 115.242 747.311 115.85 747.582 116.593Z" fill="#0867B3"/>
<path d="M748.705 118.493C747.974 118.269 747.699 117.616 747.581 116.76C748.103 117.143 748.434 117.75 748.705 118.493Z" fill="#0867B3"/>
<path d="M739.722 103.286C738.991 103.062 738.716 102.409 738.598 101.553C739.12 101.936 739.451 102.543 739.722 103.286Z" fill="#0867B3"/>
<path d="M738.599 101.385C737.868 101.161 737.593 100.508 737.475 99.652C737.997 100.035 738.328 100.642 738.599 101.385Z" fill="#0867B3"/>
<path d="M737.476 99.4846C736.745 99.2596 736.47 98.6075 736.352 97.7511C736.874 98.134 737.205 98.7415 737.476 99.4846Z" fill="#0867B3"/>
<path d="M734.781 94.9699C734.051 94.745 733.775 94.0929 733.657 93.2365C734.179 93.6194 734.51 94.2269 734.781 94.9699Z" fill="#0867B3"/>
<path d="M733.658 93.069C732.928 92.8441 732.652 92.192 732.534 91.3356C733.056 91.7185 733.387 92.326 733.658 93.069Z" fill="#0867B3"/>
<path d="M732.535 91.1682C731.805 90.9432 731.529 90.2911 731.411 89.4347C731.933 89.8176 732.264 90.4251 732.535 91.1682Z" fill="#0867B3"/>
<path d="M731.412 89.2673C730.682 89.0423 730.406 88.3902 730.288 87.5338C730.81 87.9168 731.141 88.5242 731.412 89.2673Z" fill="#0867B3"/>
<path d="M730.29 87.3672C729.649 87.1536 729.278 86.654 729.345 85.8359C729.745 86.2563 730.099 86.7127 730.29 87.3672Z" fill="#0867B3"/>
<path d="M749.605 119.925C748.879 119.941 748.788 119.348 748.703 118.661C749.18 118.855 749.328 119.395 749.605 119.925Z" fill="#0867B3"/>
<path d="M735.23 95.6909C734.891 95.7707 734.762 95.5643 734.78 95.134C735.004 95.1711 735.2 95.316 735.23 95.6909Z" fill="#0867B3"/>
<path d="M543.909 109.337C542.718 109.805 541.547 109.608 540.421 109.746C538.723 109.956 536.984 109.776 535.264 109.814C534.654 109.828 534.428 109.676 534.432 108.976C534.459 103.83 534.458 98.6831 534.432 93.5366C534.429 92.8602 534.608 92.666 535.246 92.6777C537.415 92.7178 539.594 92.5695 541.754 92.7245C544.403 92.9146 547.003 93.46 548.974 95.6033C550.197 96.9328 550.802 98.5827 550.829 100.427C550.852 102.053 550.928 103.658 550.207 105.235C548.928 108.029 546.667 108.97 543.909 109.337Z" fill="white"/>
<path d="M534.447 80.561C534.447 76.6448 534.479 72.8448 534.423 69.0462C534.41 68.124 534.673 67.938 535.486 67.9615C538.15 68.0385 540.825 67.8262 543.462 68.4532C548.539 69.6605 550.43 75.874 546.956 80.0374C545.813 81.4072 544.237 81.9153 542.597 82.2391C540.268 82.6989 537.914 82.3387 535.579 82.4963C534.632 82.5601 534.277 82.2539 534.442 81.2704C534.474 81.0786 534.447 80.8755 534.447 80.561Z" fill="white"/>
<path d="M604.046 96.0195C600.575 96.0195 597.214 96.0195 593.723 96.0195C595.763 86.9774 597.782 78.0252 599.871 68.7634C601.96 78.0371 603.979 86.9999 606.011 96.0195C605.348 96.0195 604.752 96.0195 604.046 96.0195Z" fill="white"/>
<path d="M268.555 86.7001C269.285 89.8528 270.01 92.9038 270.749 96.0194C266.803 96.0194 262.952 96.0138 259.1 96.026C258.57 96.0276 258.461 95.9943 258.621 95.3235C259.375 92.1486 259.995 88.9383 260.707 85.7519C261.88 80.5089 263.087 75.2743 264.285 70.0377C264.344 69.7801 264.461 69.5374 264.629 69.0717C265.261 71.8702 265.85 74.4541 266.428 77.0407C267.14 80.2254 267.842 83.4124 268.555 86.7001Z" fill="white"/>
<path d="M158.823 88.9673C153.578 88.7728 148.564 89.2902 143.715 91.1766C140.021 92.6132 136.63 94.5913 133.458 97.0194C132.848 97.4864 132.837 97.8858 133.261 98.5305C136.925 104.096 139.332 110.241 140.669 116.833C141.608 121.468 141.859 126.206 141.503 130.906C140.79 140.323 137.637 148.874 132.414 156.555C130.356 159.583 127.752 162.121 125.24 164.731C124.709 165.283 124.373 164.865 124.053 164.545C120.736 161.234 117.753 157.64 115.345 153.53C112.554 148.767 110.5 143.696 109.37 138.233C108.9 135.957 108.532 133.665 108.381 131.32C108.274 129.658 108.123 128 108.173 126.337C108.367 119.944 109.515 113.763 111.869 107.832C113.126 104.664 114.627 101.65 116.513 98.8553C117.141 97.9239 116.963 97.2794 116.171 96.6657C116.136 96.638 116.102 96.6061 116.063 96.5836C115.103 96.0249 114.203 94.6063 113.343 94.8672C112.54 95.1108 111.937 96.5027 111.248 97.3907C107.8 101.839 103.605 105.359 98.9244 108.23C94.4493 110.975 89.6544 112.921 84.5357 113.937C80.0785 114.823 75.6289 115.243 71.0664 114.782C66.747 114.345 62.5688 113.456 58.4964 111.937C55.7113 110.897 53.0434 109.599 50.4947 108.022C49.8738 107.638 49.9224 107.314 50.1793 106.685C51.8681 102.553 54.1453 98.819 56.8192 95.3114C59.9954 91.1447 63.7209 87.64 67.9861 84.769C73.1837 81.2705 78.8328 78.9822 84.9092 77.7311C89.154 76.8571 93.4224 76.7679 97.6859 76.9809C101.063 77.1497 104.415 77.8558 107.655 78.9333C108.506 79.2162 108.708 79.1246 109.033 78.2227C110.87 73.1205 111.711 67.8386 111.327 62.4361C110.814 55.2119 108.493 48.5871 104.457 42.6744C100.695 37.1616 95.8319 33.0339 89.9853 30.1446C88.9406 29.6283 88.8272 30.1087 88.9444 30.9651C89.488 34.9389 90.432 38.7962 91.9923 42.4785C94.2422 47.7884 97.6334 52.2053 101.748 56.0162C103.24 57.3981 104.829 58.8487 106.626 59.633C108.493 60.4476 108.567 61.8811 108.674 63.4059C108.892 66.502 108.366 69.5508 107.884 72.5919C107.766 73.3378 107.372 73.3771 106.728 73.0841C102.764 71.282 99.0755 69.0099 95.6734 66.2154C89.3845 61.0498 84.6926 54.579 81.4756 46.9471C79.6833 42.695 78.4746 38.2495 77.9714 33.6021C77.6832 30.9405 77.3438 28.2778 77.4768 25.6038C77.636 22.4033 77.9816 19.2126 78.5767 16.0625C78.6959 15.4316 78.9072 14.9096 79.7846 15.0324C86.9652 16.0375 93.7367 18.2696 99.944 22.2518C103.592 24.592 106.911 27.3739 109.804 30.664C112.375 33.5887 114.59 36.8005 116.471 40.2818C119.193 45.3186 121.014 50.6838 121.963 56.3531C122.703 60.7751 122.735 65.2357 122.377 69.7358C122 74.4692 120.777 78.9471 119.339 83.3885C119.084 84.1768 119.178 84.447 119.84 84.8954C121.518 86.0318 123.118 87.297 124.709 88.5665C125.066 88.8515 125.186 88.8671 125.531 88.5581C128.727 85.6959 132.299 83.4615 136.106 81.6094C139.985 79.7228 144.041 78.5338 148.244 77.7298C152.163 76.9801 156.108 77.0268 160.011 77.2824C164.821 77.5974 169.494 78.8503 173.997 80.7833C180.625 83.6286 186.361 87.7838 191.193 93.299C194.845 97.4686 197.66 102.225 199.872 107.385C200.137 108.003 199.987 108.272 199.46 108.583C194.665 111.411 189.591 113.356 184.177 114.496C179.836 115.41 175.465 115.553 171.134 115.208C164.359 114.668 157.95 112.531 152.002 109.013C148.919 107.189 146.091 105.007 143.395 102.592C141.909 101.26 140.676 99.7171 139.33 98.2675C138.109 96.9519 138.123 97.0042 139.59 96.1614C142.538 94.4669 145.648 93.2687 148.927 92.4826C149.527 92.3385 149.806 92.4478 150.17 92.8269C155.262 98.129 161.455 101.315 168.393 102.854C171.87 103.626 175.432 103.84 179.019 103.303C180.484 103.084 181.947 102.848 183.535 102.597C182.873 100.938 181.573 99.9118 180.421 98.8368C177.616 96.2185 174.507 94.0178 171.071 92.4052C167.576 90.765 163.947 89.5576 160.094 89.2373C159.708 89.2053 159.33 89.0606 158.823 88.9673Z" fill="#0867B3"/>
<path d="M152.443 35.1281C149.339 37.8202 146.764 40.8473 144.659 44.3493C141.82 49.0717 140.079 54.184 139.11 59.6539C138.572 62.6907 138.559 65.7277 138.639 68.7727C138.679 70.2677 138.978 71.7659 139.27 73.2388C139.467 74.231 139.548 74.7491 138.283 75.0429C135.248 75.7478 132.269 76.7216 129.281 77.636C128.708 77.8111 128.587 77.7727 128.436 77.1133C127.28 72.0719 127.143 66.9364 127.444 61.8262C127.793 55.8936 129.164 50.172 131.519 44.7083C134.239 38.3963 138.008 32.8882 142.81 28.1887C146.808 24.2767 151.322 21.1537 156.383 18.8556C159.869 17.2728 163.482 16.2299 167.155 15.3977C168.546 15.0825 170.022 14.9438 171.492 15.0209C172.123 15.0539 172.419 15.3747 172.491 15.862C172.997 19.2586 173.701 22.6303 173.614 26.1045C173.594 26.8988 173.372 27.0446 172.642 27.1184C167.961 27.5909 163.355 28.4512 159.093 30.6719C156.758 31.8889 154.604 33.4281 152.443 35.1281Z" fill="#0867B3"/>
<path d="M163.478 57.7078C159.805 59.912 156.567 58.3239 155.193 55.8075C153.163 52.0865 155.253 47.6516 158.738 46.9896C161.699 46.4271 163.885 47.5627 165.072 49.7592C166.374 52.1675 166.096 55.5765 163.478 57.7078Z" fill="#EE2E30"/>
<path d="M148.255 58.728C152.408 58.8728 153.908 61.2367 154.334 64.463C154.684 67.1201 152.335 69.9299 149.745 70.5219C147.363 71.0664 145.474 70.2453 144.065 68.4168C142.475 66.3531 142.367 63.9698 143.672 61.6444C144.662 59.8822 146.146 58.8537 148.255 58.728Z" fill="#EE2E30"/>
<path d="M161.308 36.9749C161.725 33.692 163.681 32.1584 165.662 31.894C169.471 31.3859 171.463 32.8211 172.328 35.7974C173.407 39.5127 171.427 43.3446 167.3 43.6309C163.759 43.8765 160.801 40.8757 161.308 36.9749Z" fill="#EE2E30"/>
<path d="M70.1855 97.8452C73.9663 94.6307 78.0411 92.1906 82.5921 90.6146C87.0097 89.0848 91.5399 88.4269 96.159 88.7292C98.264 88.867 100.395 89.1508 102.45 89.8351C94.3123 100.244 79.3286 105.753 66.2 101.983C67.5451 100.588 68.8322 99.2529 70.1855 97.8452Z" fill="white"/>
<path d="M128.546 115.206C129.762 119.46 130.513 123.685 130.324 128.037C130.05 134.333 128.626 140.675 124.765 146.957C117.633 133.613 117.786 120.396 124.941 106.87C126.321 109.732 127.764 112.243 128.546 115.206Z" fill="white"/>
</svg>
