<svg width="160" height="56" viewBox="0 0 160 56" fill="none" xmlns="http://www.w3.org/2000/svg">
<path d="M99.5747 0.940899C99.4165 1.11724 99.2979 4.8205 99.2979 9.14096C99.2979 13.4614 99.2188 16.9883 99.1397 16.9883C99.0606 16.9883 97.9534 16.4593 96.6879 15.798C90.5189 12.6679 83.3612 15.7539 80.5139 22.7637C79.5648 25.1884 79.4462 25.8938 79.6044 28.8476C79.9207 34.4906 82.2144 38.2821 86.8016 40.6186C88.858 41.6326 89.4511 41.7649 92.3379 41.5885C97.3206 41.2799 100.722 38.767 102.817 33.7853L103.846 31.3164V16.1066V0.896812L101.868 0.764553C100.761 0.67638 99.7329 0.764553 99.5747 0.940899ZM94.4734 20.2948C101.077 23.3809 100.682 34.2702 93.8407 36.3863C91.5866 37.0476 90.5584 36.9154 88.3043 35.681C85.0616 33.8734 83.4007 29.9497 84.2707 26.1583C85.4966 21.0443 90.2025 18.355 94.4734 20.2948Z" fill="black"/>
<path d="M10.0445 14.8286C6.2086 15.6663 3.04498 18.3555 1.34454 22.191L0.237271 24.704L0.118636 40.0019L0 55.344H2.41226H4.78497V47.2762V39.1643L6.99951 40.4428C8.89768 41.4568 9.72813 41.6772 12.2986 41.6772C14.9086 41.6772 15.6995 41.5009 17.7558 40.3105C26.0998 35.6815 26.9303 22.8964 19.2585 16.9888C17.6372 15.7544 13.6826 14.2996 12.2986 14.3877C11.9822 14.4318 10.954 14.6082 10.0445 14.8286ZM14.9876 20.3394C18.1513 21.7943 19.8122 24.5276 19.8122 28.2309C19.8122 30.9642 19.2585 32.5072 17.5581 34.2707C15.1063 36.8718 12.0217 37.4449 9.13495 35.8137C4.62679 33.2567 3.3218 26.9083 6.48542 22.8523C8.77904 19.9426 12.0613 18.9727 14.9876 20.3394Z" fill="black"/>
<path d="M38.0428 14.8279C35.4328 15.401 32.4274 17.4731 30.7665 19.8978C27.0097 25.3205 27.4051 32.7711 31.7156 37.6647C34.0883 40.4421 36.0655 41.3679 39.9805 41.5883C43.065 41.7206 43.5 41.6324 45.5959 40.4421C46.8614 39.7367 47.9687 39.2518 48.0873 39.384C48.2059 39.5163 48.285 40.0894 48.285 40.6625C48.285 41.5883 48.4432 41.6765 50.4996 41.6765H52.7141L52.5559 32.9474C52.4373 24.5269 52.3977 24.2183 51.3695 22.0581C49.6296 18.3548 46.98 16.0623 43.2628 15.0043C40.7714 14.2989 40.5737 14.2548 38.0428 14.8279ZM44.5282 20.9559C47.8896 23.2925 48.9968 28.671 46.9405 32.5506C45.5169 35.284 42.3928 37.0915 39.7037 36.6507C33.6137 35.7249 30.6478 27.8334 34.5628 22.8516C37.1333 19.5892 41.3646 18.7957 44.5282 20.9559Z" fill="black"/>
<path d="M117.528 14.8279C113.692 15.6656 110.687 18.2226 108.71 22.3667C107.405 25.1 107.405 31.3603 108.71 34.0496C110.094 37.0034 111.834 38.8991 114.404 40.3539C116.461 41.5002 117.251 41.6765 119.822 41.6765C123.065 41.6765 125.081 40.927 127.573 38.7668C128.799 37.7528 130.539 35.1958 130.539 34.4463C130.539 34.3141 129.471 34.1818 128.126 34.1818C126.307 34.1818 125.358 34.4463 124.053 35.284C121.364 37.0474 119.11 37.1797 116.54 35.7689C114.523 34.6668 112.743 32.5065 112.743 31.1399C112.743 30.8313 115.63 30.6549 122.353 30.5667L131.923 30.4345L131.883 27.5689C131.765 22.4989 129.392 18.3548 125.279 16.1505C122.511 14.6957 120.059 14.2548 117.528 14.8279ZM121.918 20.0742C123.658 20.6473 125.596 22.3667 126.386 24.0861C126.703 24.7473 126.98 25.4086 126.98 25.585C126.98 25.7172 123.776 25.8054 119.861 25.8054C114.839 25.8054 112.743 25.6732 112.743 25.3205C112.743 23.9979 114.523 21.7936 116.381 20.7796C118.636 19.5452 119.703 19.4129 121.918 20.0742Z" fill="black"/>
<path d="M145.645 14.8279C141.532 15.7096 137.934 19.1484 136.47 23.4688C134.296 29.9936 136.826 37.1797 142.481 40.3098C144.538 41.5002 145.329 41.6765 147.939 41.6765C150.549 41.6765 151.339 41.5002 153.396 40.3098C155.769 39.0313 158.616 35.9453 158.616 34.755C158.616 34.3582 157.944 34.1818 156.283 34.1818C154.464 34.1818 153.475 34.4904 151.695 35.5044C149.085 37.0474 147.266 37.1797 144.973 35.9894C143.272 35.1517 140.82 32.3743 140.82 31.3162C140.82 30.7872 142.363 30.6549 150.43 30.5667L160 30.4345L159.96 27.5248C159.881 19.457 152.842 13.1967 145.645 14.8279ZM150.114 20.1183C151.854 20.6473 155.057 23.9097 155.057 25.1C155.057 25.7172 154.266 25.8054 147.939 25.8054C139.95 25.8054 139.832 25.7613 142.086 22.8957C143.47 21.1323 145.961 19.6774 147.543 19.6333C148.097 19.6333 149.244 19.8538 150.114 20.1183Z" fill="black"/>
<path d="M53.9399 15.3131C56.8662 23.3809 63.3121 41.7208 63.3121 42.0294C63.3121 42.2498 62.2444 45.2918 60.9789 48.7746C59.6739 52.2575 58.7644 55.2994 58.9226 55.4758C59.1203 55.6962 60.188 55.7844 61.3744 55.6962L63.4703 55.5639L70.7071 35.5046C74.7011 24.483 77.9438 15.269 77.9438 15.0926C77.9438 14.9163 76.8366 14.784 75.492 14.8722L73.0402 15.0045L69.6393 24.5712C67.7807 29.8175 66.1989 34.2261 66.0407 34.3584C65.9221 34.4906 64.2216 30.1702 62.2839 24.7916L58.7249 15.0045L56.2335 14.8722C54.2958 14.784 53.7817 14.8722 53.9399 15.3131Z" fill="black"/>
</svg>
