<svg width="180" height="180" viewBox="0 0 180 180" fill="none" xmlns="http://www.w3.org/2000/svg">
<circle cx="90" cy="90" r="90" fill="black"/>
<path d="M109.575 62.2109C109.417 62.3873 109.298 66.0905 109.298 70.411C109.298 74.7314 109.219 78.2584 109.14 78.2584C109.061 78.2584 107.953 77.7293 106.688 77.068C100.519 73.9379 93.3612 77.0239 90.5139 84.0337C89.5648 86.4584 89.4462 87.1638 89.6044 90.1176C89.9207 95.7607 92.2144 99.5521 96.8016 101.889C98.858 102.903 99.4511 103.035 102.338 102.859C107.321 102.55 110.722 100.037 112.817 95.0553L113.846 92.5864V77.3766V62.1668L111.868 62.0346C110.761 61.9464 109.733 62.0346 109.575 62.2109ZM104.473 81.5648C111.077 84.6509 110.682 95.5402 103.841 97.6564C101.587 98.3177 100.558 98.1854 98.3043 96.951C95.0616 95.1434 93.4007 91.2198 94.2707 87.4283C95.4966 82.3143 100.203 79.625 104.473 81.5648Z" fill="white"/>
<path d="M20.0445 76.0986C16.2086 76.9363 13.045 79.6255 11.3445 83.4611L10.2373 85.974L10.1186 101.272L10 116.614H12.4123H14.785V108.546V100.434L16.9995 101.713C18.8977 102.727 19.7281 102.947 22.2986 102.947C24.9086 102.947 25.6995 102.771 27.7558 101.581C36.0998 96.9515 36.9303 84.1664 29.2585 78.2589C27.6372 77.0244 23.6826 75.5696 22.2986 75.6578C21.9822 75.7019 20.954 75.8782 20.0445 76.0986ZM24.9876 81.6094C28.1513 83.0643 29.8122 85.7976 29.8122 89.5009C29.8122 92.2342 29.2585 93.7773 27.5581 95.5407C25.1063 98.1418 22.0217 98.7149 19.1349 97.0837C14.6268 94.5267 13.3218 88.1783 16.4854 84.1224C18.779 81.2127 22.0613 80.2428 24.9876 81.6094Z" fill="white"/>
<path d="M48.0428 76.0979C45.4328 76.671 42.4274 78.7431 40.7665 81.1679C37.0097 86.5905 37.4051 94.0411 41.7156 98.9347C44.0883 101.712 46.0655 102.638 49.9805 102.858C53.065 102.991 53.5 102.902 55.5959 101.712C56.8614 101.007 57.9687 100.522 58.0873 100.654C58.2059 100.786 58.285 101.359 58.285 101.933C58.285 102.858 58.4432 102.947 60.4996 102.947H62.7141L62.5559 94.2174C62.4373 85.7969 62.3977 85.4883 61.3695 83.3281C59.6296 79.6248 56.98 77.3323 53.2628 76.2743C50.7714 75.5689 50.5737 75.5248 48.0428 76.0979ZM54.5282 82.2259C57.8896 84.5625 58.9968 89.9411 56.9405 93.8207C55.5169 96.554 52.3928 98.3615 49.7037 97.9207C43.6137 96.9949 40.6478 89.1034 44.5628 84.1216C47.1333 80.8593 51.3646 80.0657 54.5282 82.2259Z" fill="white"/>
<path d="M127.528 76.0979C123.692 76.9356 120.687 79.4926 118.71 83.6367C117.405 86.3701 117.405 92.6303 118.71 95.3196C120.094 98.2734 121.834 100.169 124.404 101.624C126.461 102.77 127.251 102.947 129.822 102.947C133.065 102.947 135.081 102.197 137.573 100.037C138.799 99.0228 140.539 96.4658 140.539 95.7164C140.539 95.5841 139.471 95.4518 138.126 95.4518C136.307 95.4518 135.358 95.7164 134.053 96.554C131.364 98.3175 129.11 98.4497 126.54 97.039C124.523 95.9368 122.743 93.7766 122.743 92.4099C122.743 92.1013 125.63 91.9249 132.353 91.8368L141.923 91.7045L141.883 88.8389C141.765 83.769 139.392 79.6248 135.279 77.4205C132.511 75.9657 130.059 75.5248 127.528 76.0979ZM131.918 81.3442C133.658 81.9173 135.596 83.6367 136.386 85.3561C136.703 86.0174 136.98 86.6787 136.98 86.855C136.98 86.9873 133.776 87.0754 129.861 87.0754C124.839 87.0754 122.743 86.9432 122.743 86.5905C122.743 85.2679 124.523 83.0636 126.381 82.0496C128.636 80.8152 129.703 80.6829 131.918 81.3442Z" fill="white"/>
<path d="M155.645 76.0979C151.532 76.9797 147.934 80.4184 146.47 84.7389C144.296 91.2636 146.826 98.4497 152.481 101.58C154.538 102.77 155.329 102.947 157.939 102.947C160.549 102.947 161.339 102.77 163.396 101.58C165.769 100.301 168.616 97.2153 168.616 96.025C168.616 95.6282 167.944 95.4518 166.283 95.4518C164.464 95.4518 163.475 95.7605 161.695 96.7744C159.085 98.3175 157.266 98.4497 154.973 97.2594C153.272 96.4217 150.82 93.6443 150.82 92.5862C150.82 92.0572 152.363 91.9249 160.43 91.8368L170 91.7045L169.96 88.7948C169.881 80.727 162.842 74.4667 155.645 76.0979ZM160.114 81.3883C161.854 81.9173 165.057 85.1797 165.057 86.3701C165.057 86.9873 164.266 87.0754 157.939 87.0754C149.95 87.0754 149.832 87.0314 152.086 84.1657C153.47 82.4023 155.961 80.9474 157.543 80.9033C158.097 80.9033 159.244 81.1238 160.114 81.3883Z" fill="white"/>
<path d="M63.9399 76.5831C66.8662 84.6509 73.3121 102.991 73.3121 103.299C73.3121 103.52 72.2444 106.562 70.9789 110.045C69.6739 113.527 68.7644 116.569 68.9226 116.746C69.1203 116.966 70.188 117.054 71.3744 116.966L73.4703 116.834L80.7071 96.7747C84.7011 85.7531 87.9438 76.539 87.9438 76.3627C87.9438 76.1863 86.8366 76.0541 85.492 76.1422L83.0402 76.2745L79.6393 85.8412C77.7807 91.0875 76.1989 95.4961 76.0407 95.6284C75.9221 95.7607 74.2216 91.4402 72.2839 86.0617L68.7249 76.2745L66.2335 76.1422C64.2958 76.0541 63.7817 76.1422 63.9399 76.5831Z" fill="white"/>
</svg>
