<svg width="500" height="350" viewBox="0 0 500 350" fill="none" xmlns="http://www.w3.org/2000/svg">
<rect width="500" height="350" rx="15" fill="white"/>
<path d="M272.346 197.689C272.346 183.151 259.476 180.683 250.893 180.683H227.157V247H250.893C259.283 247 274.351 244.527 274.351 227.808C274.351 219.637 268.148 213.558 259.095 212.701V212.51C267.007 211.088 272.346 205.574 272.346 197.689ZM240.507 217.356H247.273C253.946 217.356 261.004 218.689 261.004 227.332C261.004 235.025 253.467 236.549 247.273 236.549H240.507V217.356ZM258.997 199.4C258.997 206.241 252.038 207.475 246.416 207.475H240.506V191.135H246.126C252.231 191.135 258.997 191.705 258.997 199.4Z" fill="#231F20"/>
<path d="M404.52 122.103C404.52 103.672 387.456 104.147 373.152 104.147H358.754V170.463H372.104V142.909H376.396C382.018 142.909 383.739 144.811 385.643 149.751L393.653 170.462H408.528L397.85 144.521C396.518 141.578 394.417 137.968 390.794 137.684V137.493C399.281 136.356 404.52 129.895 404.52 122.103ZM390.597 123.245C390.597 131.505 383.072 132.46 376.489 132.46H372.104V114.598H376.489C383.163 114.598 390.597 115.261 390.597 123.245Z" fill="#231F20"/>
<path d="M475 137.116C475 117.065 463.269 103.007 442.39 103.007C421.225 103.007 409.779 116.781 409.779 137.116C409.779 157.446 421.032 171.604 442.39 171.604C463.464 171.605 475 157.162 475 137.116ZM461.081 137.116C461.081 149.084 456.023 161.155 442.39 161.155C428.753 161.155 423.699 149.084 423.699 137.116C423.699 125.429 429.136 113.455 442.39 113.455C455.64 113.456 461.081 125.429 461.081 137.116Z" fill="#231F20"/>
<path d="M291.047 170.463L264.922 104.147H249.858L223.919 170.463H237.751L243.564 155.263H270.546L276.265 170.463H291.047ZM266.827 144.812H247.377L257.006 117.449H257.2L266.827 144.812Z" fill="#231F20"/>
<path d="M346.719 105.76C340.996 104.049 334.894 103.008 327.166 103.008C304.574 103.008 290.651 115.737 290.651 138.447C290.651 160.866 305.62 171.606 327.166 171.606C334.321 171.606 341.663 170.085 348.72 168.184V132.461H321.832V142.91H335.94V160.203C333.655 160.771 330.793 161.15 327.167 161.15C312.965 161.15 304.575 150.986 304.575 137.494C304.575 123.912 313.153 113.455 328.695 113.455C334.041 113.455 340.714 114.598 345.861 116.972L346.719 105.76Z" fill="#231F20"/>
<path d="M345.084 246.999L318.952 180.683H303.892L277.955 246.999H291.779L297.599 231.798H324.581L330.302 246.999H345.084ZM320.861 221.349H301.409L311.043 193.985H311.229L320.861 221.349Z" fill="#231F20"/>
<path d="M352.056 246.999H364.834V197.403H365.019L390.481 246.999H406.784V180.683H394.011V230.275H393.817L368.453 180.683H352.056V246.999Z" fill="#231F20"/>
<path d="M207.437 104.122H204.446V246.999H207.437V104.122Z" fill="#231F20"/>
<path d="M418.548 246.999H431.898V216.219H432.091L456.023 246.999H473.468L444.959 211.937L472.326 180.679H455.925L431.898 209.185V180.679H418.548V246.999Z" fill="#231F20"/>
<path d="M191.868 246.999H118.523C125.013 243.445 129.411 236.567 129.411 228.672C129.411 217.124 120.016 207.76 108.429 207.76C96.8428 207.76 87.4523 217.124 87.4523 228.672C87.4523 236.567 91.85 243.445 98.3402 246.999H25L108.429 103L191.868 246.999Z" fill="#E31B23"/>
</svg>
