<svg width="500" height="160" viewBox="0 0 500 160" fill="none" xmlns="http://www.w3.org/2000/svg">
<path d="M274.829 105.21C274.829 89.0565 260.53 86.315 250.992 86.315H224.62V160H250.992C260.314 160 277.057 157.252 277.057 138.676C277.057 129.597 270.165 122.842 260.106 121.89V121.678C268.897 120.097 274.829 113.971 274.829 105.21ZM239.453 127.062H246.97C254.385 127.062 262.227 128.543 262.227 138.147C262.227 146.694 253.852 148.388 246.97 148.388H239.453V127.062ZM259.997 107.111C259.997 114.712 252.265 116.084 246.018 116.084H239.452V97.928H245.696C252.48 97.928 259.997 98.5611 259.997 107.111Z" fill="#231F20"/>
<path d="M421.688 21.2252C421.688 0.746571 402.729 1.27394 386.835 1.27394H370.838V74.959H385.671V44.3437H390.44C396.687 44.3437 398.599 46.4561 400.715 51.9452L409.615 74.958H426.143L414.278 46.1341C412.798 42.8643 410.463 38.8537 406.438 38.5377V38.3253C415.868 37.0622 421.688 29.8834 421.688 21.2252ZM406.219 22.4943C406.219 31.6719 397.858 32.7336 390.544 32.7336H385.671V12.887H390.544C397.958 12.887 406.219 13.6237 406.219 22.4943Z" fill="#231F20"/>
<path d="M500 37.9068C500 15.6277 486.965 0.00805664 463.767 0.00805664C440.25 0.00805664 427.532 15.3127 427.532 37.9068C427.532 60.4959 440.035 76.2272 463.767 76.2272C487.182 76.2282 500 60.1799 500 37.9068ZM484.535 37.9068C484.535 51.2047 478.914 64.6162 463.767 64.6162C448.614 64.6162 442.998 51.2047 442.998 37.9068C442.998 24.921 449.04 11.6171 463.767 11.6171C478.489 11.6181 484.535 24.921 484.535 37.9068Z" fill="#231F20"/>
<path d="M295.607 74.9592L266.58 1.27414H249.842L221.021 74.9592H236.39L242.849 58.0704H272.829L279.183 74.9592H295.607ZM268.697 46.4573H247.086L257.785 16.0544H258L268.697 46.4573Z" fill="#231F20"/>
<path d="M357.466 3.06657C351.107 1.16546 344.326 0.0090332 335.739 0.0090332C310.638 0.0090332 295.167 14.1523 295.167 39.3852C295.167 64.2951 311.8 76.2292 335.739 76.2292C343.69 76.2292 351.848 74.5384 359.689 72.427V32.7348H329.814V44.3449H345.489V63.5584C342.95 64.1905 339.769 64.6112 335.741 64.6112C319.961 64.6112 310.639 53.3181 310.639 38.3265C310.639 23.2352 320.17 11.6171 337.438 11.6171C343.379 11.6171 350.794 12.8862 356.512 15.524L357.466 3.06657Z" fill="#231F20"/>
<path d="M355.649 159.999L326.614 86.314H309.88L281.061 159.999H296.421L302.888 143.109H332.868L339.225 159.999H355.649ZM328.735 131.499H307.12L317.825 101.094H318.033L328.735 131.499Z" fill="#231F20"/>
<path d="M363.396 159.999H377.593V104.892H377.799L406.091 159.999H424.204V86.315H410.012V141.416H409.796L381.615 86.315H363.396V159.999Z" fill="#231F20"/>
<path d="M202.708 1.24615H199.384V159.999H202.708V1.24615Z" fill="#231F20"/>
<path d="M437.276 159.999H452.109V125.799H452.324L478.914 159.999H498.298L466.622 121.041L497.029 86.3099H478.806L452.109 117.983V86.3099H437.276V159.999Z" fill="#231F20"/>
<path d="M185.409 159.999H103.915C111.126 156.05 116.012 148.408 116.012 139.636C116.012 126.805 105.573 116.4 92.6984 116.4C79.8254 116.4 69.3915 126.805 69.3915 139.636C69.3915 148.408 74.2778 156.05 81.4891 159.999H0L92.6994 0L185.409 159.999Z" fill="#E31B23"/>
</svg>
