<svg width="180" height="180" viewBox="0 0 180 180" fill="none" xmlns="http://www.w3.org/2000/svg">
<path d="M82.0607 89.7502V108.814H75.6895V61.7543H92.5872C96.6633 61.6793 100.581 63.1429 103.549 65.8449C106.517 68.3593 108.179 71.9995 108.1 75.7523C108.179 79.5426 106.517 83.1828 103.549 85.7347C100.581 88.3992 96.9403 89.7502 92.6268 89.7502H82.0607ZM82.0607 67.5336V83.9709H92.7455C95.1199 84.0459 97.4151 83.1453 99.0376 81.5316C102.401 78.4543 102.441 73.388 99.1959 70.1981L99.0376 70.048C97.4151 68.3968 95.1199 67.4961 92.7455 67.5712L82.0607 67.5336ZM122.782 75.5646C127.491 75.5646 131.211 76.7655 133.941 79.1298C136.672 81.5316 138.017 84.7965 138.017 88.9621V108.777H131.923V104.311H131.646C128.995 107.989 125.512 109.828 121.119 109.828C117.4 109.828 114.234 108.777 111.741 106.675C109.287 104.724 107.902 101.834 107.981 98.7944C107.981 95.4544 109.327 92.8275 111.978 90.8385C114.629 88.8495 118.191 87.8738 122.623 87.8738C126.422 87.8738 129.509 88.5493 131.963 89.8252V88.4367C131.963 86.3727 131.013 84.4212 129.351 83.1077C127.649 81.6817 125.473 80.8936 123.217 80.8936C119.655 80.8936 116.846 82.3196 114.748 85.1718L109.129 81.8318C112.176 77.6662 116.727 75.5646 122.782 75.5646ZM114.55 98.9445C114.55 100.521 115.342 101.984 116.648 102.885C118.072 103.936 119.814 104.499 121.594 104.461C124.285 104.461 126.858 103.448 128.757 101.647C130.855 99.7701 131.923 97.556 131.923 95.0041C129.944 93.503 127.174 92.7524 123.613 92.7524C121.04 92.7524 118.864 93.3529 117.123 94.5162C115.421 95.7171 114.55 97.1807 114.55 98.9445ZM173 76.6154L151.71 123H145.14L153.055 106.788L139.046 76.6529H145.971L156.063 99.7701H156.221L166.075 76.6529L173 76.6154Z" fill="#5F6368"/>
<path d="M63.8475 85.6223C63.8475 83.7834 63.6892 81.9445 63.3726 80.1432H36.5024V90.5384H51.8964C51.2632 93.8784 49.2054 96.8806 46.1979 98.757V105.512H55.3789C60.7608 100.821 63.8475 93.8784 63.8475 85.6223Z" fill="#4285F4"/>
<path d="M36.5027 112.042C44.1799 112.042 50.6699 109.64 55.3791 105.512L46.1981 98.7569C43.6259 100.408 40.3413 101.346 36.5027 101.346C29.0629 101.346 22.7708 96.5803 20.5151 90.2006H11.0571V97.1808C15.8851 106.263 25.7388 112.042 36.5027 112.042Z" fill="#34A853"/>
<path d="M20.515 90.2005C19.3278 86.8605 19.3278 83.2203 20.515 79.8428V72.9001H11.057C9.04734 76.6566 8 80.8094 8 85.0217C8 89.2339 9.04734 93.3868 11.057 97.1432L20.515 90.2005Z" fill="#FBBC04"/>
<path d="M36.5027 68.6971C40.5787 68.622 44.4965 70.0856 47.4249 72.7501L55.5374 65.0569C50.3929 60.4409 43.5863 57.9266 36.5027 58.0016C25.7388 58.0016 15.8851 63.7809 11.0571 72.9002L20.5151 79.8804C22.7708 73.4631 29.0629 68.6971 36.5027 68.6971Z" fill="#EA4335"/>
</svg>
