<svg width="437" height="174" viewBox="0 0 437 174" fill="none" xmlns="http://www.w3.org/2000/svg">
<path d="M206.225 84.5999V135.4H190.125V9.99994H232.825C243.125 9.79994 253.025 13.6999 260.525 20.8999C268.025 27.5999 272.225 37.2999 272.025 47.2999C272.225 57.3999 268.025 67.0999 260.525 73.8999C253.025 80.9999 243.825 84.5999 232.925 84.5999H206.225ZM206.225 25.3999V69.1999H233.225C239.225 69.3999 245.025 66.9999 249.125 62.6999C257.625 54.4999 257.725 40.9999 249.525 32.4999L249.125 32.0999C245.025 27.6999 239.225 25.2999 233.225 25.4999L206.225 25.3999ZM309.125 46.7999C321.025 46.7999 330.425 49.9999 337.325 56.2999C344.225 62.6999 347.625 71.3999 347.625 82.4999V135.3H332.225V123.4H331.525C324.825 133.2 316.025 138.1 304.925 138.1C295.525 138.1 287.525 135.3 281.225 129.7C275.025 124.5 271.525 116.8 271.725 108.7C271.725 99.7999 275.125 92.7999 281.825 87.4999C288.525 82.1999 297.525 79.5999 308.725 79.5999C318.325 79.5999 326.125 81.3999 332.325 84.7999V81.0999C332.325 75.5999 329.925 70.3999 325.725 66.8999C321.425 63.0999 315.925 60.9999 310.225 60.9999C301.225 60.9999 294.125 64.7999 288.825 72.3999L274.625 63.4999C282.325 52.3999 293.825 46.7999 309.125 46.7999ZM288.325 109.1C288.325 113.3 290.325 117.2 293.625 119.6C297.225 122.4 301.625 123.9 306.125 123.8C312.925 123.8 319.425 121.1 324.225 116.3C329.525 111.3 332.225 105.4 332.225 98.5999C327.225 94.5999 320.225 92.5999 311.225 92.5999C304.725 92.5999 299.225 94.2 294.825 97.2999C290.525 100.5 288.325 104.4 288.325 109.1ZM436.025 49.5999L382.225 173.2H365.625L385.625 130L350.225 49.6999H367.725L393.225 111.3H393.625L418.525 49.6999L436.025 49.5999Z" fill="#5F6368"/>
<path d="M141.125 73.5999C141.125 68.6999 140.725 63.7999 139.925 58.9999H72.0249V86.6999H110.925C109.325 95.5999 104.125 103.6 96.5249 108.6V126.6H119.725C133.325 114.1 141.125 95.5999 141.125 73.5999Z" fill="#4285F4"/>
<path d="M72.0251 144C91.4251 144 107.825 137.6 119.725 126.6L96.5251 108.6C90.0251 113 81.7251 115.5 72.0251 115.5C53.2251 115.5 37.3251 102.8 31.6251 85.7999H7.7251V104.4C19.9251 128.6 44.8251 144 72.0251 144Z" fill="#34A853"/>
<path d="M31.6249 85.8C28.6249 76.9 28.6249 67.2 31.6249 58.2V39.7H7.72492C2.64658 49.7096 0 60.7757 0 72C0 83.2242 2.64658 94.2903 7.72492 104.3L31.6249 85.8Z" fill="#FBBC04"/>
<path d="M72.0251 28.5C82.3251 28.3 92.2251 32.2 99.6251 39.3L120.125 18.8C107.125 6.49996 89.9251 -0.200043 72.0251 -4.27389e-05C44.8251 -4.27389e-05 19.9251 15.4 7.7251 39.7L31.6251 58.3C37.3251 41.2 53.2251 28.5 72.0251 28.5Z" fill="#EA4335"/>
</svg>
