<svg width="437" height="175" viewBox="0 0 437 175" fill="none" xmlns="http://www.w3.org/2000/svg">
<path d="M206.225 85.5999V136.4H190.125V10.9999H232.825C243.125 10.7999 253.025 14.6999 260.525 21.8999C268.025 28.5999 272.225 38.2999 272.025 48.2999C272.225 58.3999 268.025 68.0999 260.525 74.8999C253.025 81.9999 243.825 85.5999 232.925 85.5999H206.225ZM206.225 26.3999V70.1999H233.225C239.225 70.3999 245.025 67.9999 249.125 63.6999C257.625 55.4999 257.725 41.9999 249.525 33.4999L249.125 33.0999C245.025 28.6999 239.225 26.2999 233.225 26.4999L206.225 26.3999ZM309.125 47.7999C321.025 47.7999 330.425 50.9999 337.325 57.2999C344.225 63.6999 347.625 72.3999 347.625 83.4999V136.3H332.225V124.4H331.525C324.825 134.2 316.025 139.1 304.925 139.1C295.525 139.1 287.525 136.3 281.225 130.7C275.025 125.5 271.525 117.8 271.725 109.7C271.725 100.8 275.125 93.7999 281.825 88.4999C288.525 83.1999 297.525 80.5999 308.725 80.5999C318.325 80.5999 326.125 82.3999 332.325 85.7999V82.0999C332.325 76.5999 329.925 71.3999 325.725 67.8999C321.425 64.0999 315.925 61.9999 310.225 61.9999C301.225 61.9999 294.125 65.7999 288.825 73.3999L274.625 64.4999C282.325 53.3999 293.825 47.7999 309.125 47.7999ZM288.325 110.1C288.325 114.3 290.325 118.2 293.625 120.6C297.225 123.4 301.625 124.9 306.125 124.8C312.925 124.8 319.425 122.1 324.225 117.3C329.525 112.3 332.225 106.4 332.225 99.5999C327.225 95.5999 320.225 93.5999 311.225 93.5999C304.725 93.5999 299.225 95.2 294.825 98.2999C290.525 101.5 288.325 105.4 288.325 110.1ZM436.025 50.5999L382.225 174.2H365.625L385.625 131L350.225 50.6999H367.725L393.225 112.3H393.625L418.525 50.6999L436.025 50.5999Z" fill="#5F6368"/>
<path d="M141.125 74.5999C141.125 69.6999 140.725 64.7999 139.925 59.9999H72.0249V87.6999H110.925C109.325 96.5999 104.125 104.6 96.5249 109.6V127.6H119.725C133.325 115.1 141.125 96.5999 141.125 74.5999Z" fill="#4285F4"/>
<path d="M72.0251 145C91.4251 145 107.825 138.6 119.725 127.6L96.5251 109.6C90.0251 114 81.7251 116.5 72.0251 116.5C53.2251 116.5 37.3251 103.8 31.6251 86.7999H7.7251V105.4C19.9251 129.6 44.8251 145 72.0251 145Z" fill="#34A853"/>
<path d="M31.6249 86.8C28.6249 77.9 28.6249 68.2 31.6249 59.2V40.7H7.72492C2.64658 50.7096 0 61.7757 0 73C0 84.2242 2.64658 95.2903 7.72492 105.3L31.6249 86.8Z" fill="#FBBC04"/>
<path d="M72.0251 29.5C82.3251 29.3 92.2251 33.2 99.6251 40.3L120.125 19.8C107.125 7.49996 89.9251 0.799957 72.0251 0.999957C44.8251 0.999957 19.9251 16.4 7.7251 40.7L31.6251 59.3C37.3251 42.2 53.2251 29.5 72.0251 29.5Z" fill="#EA4335"/>
</svg>
