<svg width="181" height="180" viewBox="0 0 181 180" fill="none" xmlns="http://www.w3.org/2000/svg">
<rect x="0.0253906" width="180" height="180" rx="15" fill="white"/>
<path d="M82.6999 89.7502V108.814H76.792V61.7543H92.4608C96.2404 61.6793 99.8732 63.1429 102.625 65.8449C105.378 68.3593 106.919 71.9995 106.845 75.7523C106.919 79.5426 105.378 83.1828 102.625 85.7347C99.8732 88.3992 96.4973 89.7502 92.4975 89.7502H82.6999ZM82.6999 67.5336V83.9709H92.6076C94.8093 84.0459 96.9376 83.1453 98.4421 81.5316C101.561 78.4543 101.598 73.388 98.5889 70.1981L98.4421 70.048C96.9376 68.3968 94.8093 67.4961 92.6076 67.5712L82.6999 67.5336ZM120.459 75.5646C124.826 75.5646 128.275 76.7655 130.807 79.1298C133.339 81.5316 134.587 84.7965 134.587 88.9621V108.777H128.936V104.311H128.679C126.22 107.989 122.991 109.828 118.918 109.828C115.469 109.828 112.533 108.777 110.221 106.675C107.946 104.724 106.662 101.834 106.735 98.7944C106.735 95.4544 107.983 92.8275 110.441 90.8385C112.9 88.8495 116.203 87.8738 120.312 87.8738C123.835 87.8738 126.697 88.5493 128.972 89.8252V88.4367C128.972 86.3727 128.092 84.4212 126.551 83.1077C124.973 81.6817 122.954 80.8936 120.863 80.8936C117.56 80.8936 114.955 82.3196 113.01 85.1718L107.799 81.8318C110.625 77.6662 114.845 75.5646 120.459 75.5646ZM112.827 98.9445C112.827 100.521 113.561 101.984 114.771 102.885C116.092 103.936 117.707 104.499 119.358 104.461C121.854 104.461 124.239 103.448 126 101.647C127.945 99.7701 128.936 97.556 128.936 95.0041C127.101 93.503 124.532 92.7524 121.23 92.7524C118.845 92.7524 116.826 93.3529 115.212 94.5162C113.634 95.7171 112.827 97.1807 112.827 98.9445ZM167.025 76.6154L147.283 123H141.192L148.531 106.788L135.541 76.6529H141.963L151.32 99.7701H151.467L160.604 76.6529L167.025 76.6154Z" fill="#5F6368"/>
<path d="M65.8114 85.6223C65.8114 83.7834 65.6646 81.9445 65.3711 80.1432H40.4551V90.5384H54.7295C54.1424 93.8784 52.2342 96.8806 49.4454 98.757V105.512H57.9587C62.9492 100.821 65.8114 93.8784 65.8114 85.6223Z" fill="#4285F4"/>
<path d="M40.4553 112.042C47.5742 112.042 53.5922 109.64 57.9589 105.512L49.4456 98.7569C47.0605 100.408 44.0148 101.346 40.4553 101.346C33.5566 101.346 27.7221 96.5803 25.6305 90.2006H16.8604V97.1808C21.3372 106.263 30.4743 112.042 40.4553 112.042Z" fill="#34A853"/>
<path d="M25.6302 90.2005C24.5293 86.8605 24.5293 83.2203 25.6302 79.8428V72.9001H16.8601C14.9966 76.6566 14.0254 80.8094 14.0254 85.0217C14.0254 89.2339 14.9966 93.3868 16.8601 97.1432L25.6302 90.2005Z" fill="#FBBC04"/>
<path d="M40.4553 68.6971C44.2349 68.622 47.8678 70.0856 50.5832 72.7501L58.1057 65.0569C53.3353 60.4409 47.0238 57.9266 40.4553 58.0016C30.4743 58.0016 21.3372 63.7809 16.8604 72.9002L25.6305 79.8804C27.7221 73.4631 33.5566 68.6971 40.4553 68.6971Z" fill="#EA4335"/>
</svg>
