<svg width="180" height="180" viewBox="0 0 180 180" fill="none" xmlns="http://www.w3.org/2000/svg">
<rect width="180" height="180" rx="15" fill="white"/>
<path d="M50.9079 120.75V139.814H45V92.7543H60.6688C64.4484 92.6793 68.0812 94.1429 70.8334 96.8449C73.5855 99.3593 75.1267 102.999 75.0533 106.752C75.1267 110.543 73.5855 114.183 70.8334 116.735C68.0812 119.399 64.7053 120.75 60.7055 120.75H50.9079ZM50.9079 98.5336V114.971H60.8156C63.0173 115.046 65.1456 114.145 66.6501 112.532C69.7692 109.454 69.8059 104.388 66.7969 101.198L66.6501 101.048C65.1456 99.3968 63.0173 98.4961 60.8156 98.5712L50.9079 98.5336ZM88.6672 106.565C93.034 106.565 96.4833 107.766 99.0153 110.13C101.547 112.532 102.795 115.796 102.795 119.962V139.777H97.1438V135.311H96.8869C94.4284 138.989 91.1992 140.828 87.126 140.828C83.6767 140.828 80.7411 139.777 78.4293 137.675C76.1542 135.724 74.8699 132.834 74.9432 129.794C74.9432 126.454 76.1909 123.827 78.6494 121.838C81.108 119.85 84.4106 118.874 88.5205 118.874C92.0432 118.874 94.9054 119.549 97.1805 120.825V119.437C97.1805 117.373 96.2998 115.421 94.7586 114.108C93.1807 112.682 91.1625 111.894 89.0709 111.894C85.7683 111.894 83.1629 113.32 81.2181 116.172L76.0074 112.832C78.8329 108.666 83.0529 106.565 88.6672 106.565ZM81.0346 129.945C81.0346 131.521 81.7685 132.984 82.9795 133.885C84.3005 134.936 85.9151 135.499 87.5664 135.461C90.0616 135.461 92.4468 134.448 94.2082 132.647C96.153 130.77 97.1438 128.556 97.1438 126.004C95.3091 124.503 92.7404 123.752 89.4378 123.752C87.0526 123.752 85.0344 124.353 83.4198 125.516C81.8419 126.717 81.0346 128.181 81.0346 129.945ZM135.233 107.615L115.491 154H109.4L116.739 137.788L103.749 107.653H110.171L119.528 130.77H119.675L128.812 107.653L135.233 107.615Z" fill="#5F6368"/>
<path d="M116.019 54.6223C116.019 52.7834 115.873 50.9445 115.579 49.1432H90.6631V59.5384H104.938C104.35 62.8784 102.442 65.8806 99.6534 67.757V74.5121H108.167C113.157 69.8211 116.019 62.8784 116.019 54.6223Z" fill="#4285F4"/>
<path d="M90.6633 81.0418C97.7822 81.0418 103.8 78.64 108.167 74.512L99.6537 67.7569C97.2685 69.4082 94.2228 70.3464 90.6633 70.3464C83.7647 70.3464 77.9301 65.5803 75.8385 59.2006H67.0684V66.1808C71.5452 75.2625 80.6823 81.0418 90.6633 81.0418Z" fill="#34A853"/>
<path d="M75.8382 59.2005C74.7374 55.8605 74.7374 52.2203 75.8382 48.8428V41.9001H67.0681C65.2046 45.6566 64.2334 49.8094 64.2334 54.0217C64.2334 58.2339 65.2046 62.3868 67.0681 66.1432L75.8382 59.2005Z" fill="#FBBC04"/>
<path d="M90.6633 37.6971C94.4429 37.622 98.0758 39.0856 100.791 41.7501L108.314 34.0569C103.543 29.4409 97.2318 26.9266 90.6633 27.0016C80.6823 27.0016 71.5452 32.7809 67.0684 41.9002L75.8385 48.8804C77.9301 42.4631 83.7647 37.6971 90.6633 37.6971Z" fill="#EA4335"/>
</svg>
