<svg width="180" height="180" viewBox="0 0 180 180" fill="none" xmlns="http://www.w3.org/2000/svg">
<circle cx="90" cy="90" r="90" fill="white"/>
<path d="M140 91.1127C140 87.71 139.716 84.3074 139.149 80.9741H91.0361V100.21H118.6C117.467 106.39 113.782 111.945 108.397 115.418V127.917H124.836C134.473 119.237 140 106.39 140 91.1127Z" fill="#4285F4"/>
<path d="M91.0371 140C104.784 140 116.405 135.556 124.837 127.917L108.398 115.417C103.792 118.473 97.9104 120.209 91.0371 120.209C77.7155 120.209 66.4489 111.39 62.4099 99.5845H45.4746V112.501C54.1194 129.306 71.7634 140 91.0371 140Z" fill="#34A853"/>
<path d="M62.4092 99.5845C60.2834 93.4041 60.2834 86.6682 62.4092 80.4184V67.5715H45.4738C41.8753 74.5225 40 82.207 40 90.0014C40 97.7958 41.8753 105.48 45.4738 112.431L62.4092 99.5845Z" fill="#FBBC04"/>
<path d="M91.0371 59.7941C98.3355 59.6552 105.351 62.3635 110.594 67.2939L125.12 53.0582C115.909 44.5168 103.721 39.8641 91.0371 40.003C71.7634 40.003 54.1194 50.6972 45.4746 67.5717L62.4099 80.4879C66.4489 68.6133 77.7155 59.7941 91.0371 59.7941Z" fill="#EA4335"/>
</svg>
