<svg width="180" height="180" viewBox="0 0 180 180" fill="none" xmlns="http://www.w3.org/2000/svg">
<rect width="180" height="180" rx="15" fill="white"/>
<path d="M143.723 134.339C143.723 134.339 144.259 130.021 147.711 130.021C151.075 130.021 151.65 134.339 151.65 134.339H143.723ZM155.551 134.914C155.082 130.342 152.637 125.6 147.334 125.6C147.334 125.6 140.196 125.597 139.626 136.309C139.615 136.521 139.626 136.737 139.634 136.949C139.655 137.504 139.705 138.057 139.78 138.607C139.886 139.372 140.041 140.13 140.254 140.868C140.499 141.721 140.823 142.55 141.239 143.318C141.691 144.152 142.254 144.913 142.924 145.544C143.676 146.254 144.555 146.786 145.493 147.131C146.078 147.346 146.696 147.509 147.31 147.575C148.152 147.667 149.002 147.538 149.821 147.314C151.137 146.954 152.356 146.251 153.373 145.257C153.797 144.844 154.21 144.38 154.522 143.856C154.522 143.856 155.182 142.751 154.815 141.647C154.583 140.948 154.109 140.308 153.397 140.238C152.584 140.158 152.121 140.851 151.615 141.426C151.615 141.426 150.363 143.156 147.908 143.156C146.38 143.156 145.242 142.37 144.506 141.08C144.02 140.229 143.727 139.118 143.673 138.117H144.29H145.875H148.026H150.34C151.158 138.117 151.974 138.112 152.792 138.116C153.065 138.118 153.341 138.113 153.614 138.129C153.885 138.146 154.168 138.149 154.431 138.066C154.76 137.964 155.118 137.666 155.3 137.352C155.718 136.63 155.636 135.736 155.551 134.914Z" fill="#FF7B00"/>
<path d="M155.513 129.995C155.573 130.191 155.638 130.387 155.702 130.582C155.702 130.818 155.898 131.176 155.972 131.401C156.068 131.688 156.162 131.975 156.257 132.262C156.447 132.837 156.637 133.413 156.827 133.987C157.198 135.109 157.572 136.228 157.95 137.347C158.378 138.606 158.81 139.862 159.247 141.117C159.47 141.756 159.695 142.395 159.92 143.033C160.03 143.346 160.141 143.659 160.253 143.972C160.309 144.129 160.364 144.285 160.42 144.442C160.448 144.52 160.614 144.841 160.588 144.912C160.257 145.837 159.899 146.756 159.431 147.607C158.847 148.667 158.042 149.599 157.178 150.385C156.991 150.556 156.36 151.095 156.155 151.236C155.717 151.537 155.261 151.744 154.914 152.184C154.572 152.616 154.383 153.159 154.383 153.736C154.383 154.208 154.482 154.681 154.715 155.081C154.908 155.411 155.168 155.688 155.481 155.874C155.806 156.068 156.225 156.009 156.566 155.888C156.891 155.772 157.19 155.581 157.481 155.382C158.757 154.51 159.943 153.456 160.946 152.218C161.045 152.097 161.14 151.972 161.233 151.844C161.341 151.697 161.448 151.547 161.545 151.391C161.545 151.391 163.156 149.069 164.11 146.348C165.063 143.626 166.228 140.085 166.228 140.085C167.039 137.705 167.84 135.323 168.66 132.948C168.953 132.101 169.246 131.254 169.537 130.407C169.846 129.513 170.159 128.536 169.908 127.619C169.569 126.38 168.027 125.536 167.123 126.605C166.784 127.005 166.602 127.532 166.428 128.046C165.639 130.368 164.851 132.69 164.068 135.014C163.733 136.011 163.397 137.007 163.062 138.004C162.994 138.205 162.559 139.068 162.632 139.28C162.221 138.083 161.81 136.887 161.398 135.69C160.638 133.48 159.874 131.272 159.125 129.058C158.943 128.519 158.759 127.982 158.565 127.449C158.393 126.98 158.088 126.56 157.685 126.313C157.084 125.944 156.271 126.115 155.79 126.644C155.344 127.135 155.185 127.875 155.227 128.569C155.256 129.057 155.372 129.53 155.513 129.995Z" fill="#FF7B00"/>
<path d="M80.3521 128.056C80.3249 128.334 80.3269 128.615 80.3296 128.893C80.3364 129.696 80.3364 130.497 80.3364 131.299V133.256V135.423V137.66V139.83V141.794C80.3364 142.377 80.3369 142.96 80.338 143.543C80.3385 144.079 80.3075 144.627 80.3652 145.161C80.4287 145.736 80.605 146.302 80.9569 146.741C81.2591 147.116 81.6735 147.337 82.1246 147.379C82.1876 147.386 82.2505 147.389 82.3135 147.389C82.9057 147.389 83.4203 147.074 83.7576 146.541C84.0435 146.09 84.193 145.557 84.2585 145.015C84.3278 144.443 84.3089 143.866 84.3036 143.29C84.2994 142.812 84.3005 142.333 84.301 141.854C84.3021 141.382 84.3015 140.911 84.3015 140.44V139.459V137.671V136.054V134.789C84.3015 134.207 84.2874 133.639 84.4059 133.067C84.5622 132.309 84.8744 131.54 85.4042 131.013C85.8967 130.522 86.5372 130.289 87.1929 130.257C87.249 130.254 87.3062 130.253 87.3629 130.253C88.0207 130.253 88.6706 130.463 89.1721 130.947C89.6085 131.369 89.8871 131.941 90.0769 132.539C90.3445 133.381 90.3434 134.292 90.3413 135.174C90.3413 136.932 90.3376 138.689 90.3376 140.446V144.396V145.007C90.3376 145.007 90.5102 147.389 92.2869 147.389C94.0636 147.389 94.2194 145.198 94.2194 145.198V134.683C94.2194 134.683 94.2624 130.248 97.5671 130.248C100.634 130.239 100.358 134.588 100.358 134.588V145.255C100.358 145.255 100.61 147.389 102.301 147.389C103.991 147.389 104.226 145.296 104.226 145.296V133.618C104.226 133.618 104.006 125.602 98.462 125.602C94.4345 125.602 93.0617 129.165 93.0229 129.157C93.0098 129.154 92.9914 129.097 92.9862 129.086C92.9552 129.022 92.9243 128.957 92.8923 128.893C92.8435 128.795 92.7926 128.698 92.7396 128.603C92.6714 128.479 92.6001 128.359 92.5251 128.239C92.4364 128.098 92.343 127.96 92.2455 127.826C92.1353 127.675 92.0194 127.529 91.8987 127.389C91.766 127.236 91.6265 127.089 91.4812 126.951C91.3249 126.803 91.1612 126.665 90.9907 126.537C90.8098 126.402 90.6204 126.28 90.4247 126.172C89.8398 125.85 89.1946 125.664 88.5426 125.622C88.3753 125.612 88.2058 125.601 88.038 125.602C87.6225 125.606 87.2191 125.694 86.8315 125.859C86.6075 125.954 86.3914 126.075 86.1847 126.21C85.9812 126.345 85.7876 126.496 85.604 126.66C85.3895 126.851 85.1875 127.061 84.9987 127.283C84.7784 127.543 84.5748 127.822 84.386 128.111C84.3619 128.148 84.3372 128.187 84.3131 128.225C84.3131 128.225 84.0817 125.754 82.3565 125.754C81.6604 125.754 81.0881 126.179 80.7382 126.829C80.6097 127.069 80.4974 127.337 80.4287 127.605C80.3915 127.754 80.3673 127.904 80.3521 128.056Z" fill="#FF7B00"/>
<path d="M113.732 142.978C111.313 142.978 109.352 140.115 109.352 136.584C109.352 133.054 111.313 130.192 113.732 130.192C116.151 130.192 118.111 133.054 118.111 136.584C118.111 140.115 116.151 142.978 113.732 142.978ZM113.732 125.572C109.202 125.572 105.529 130.495 105.529 136.569C105.529 142.643 109.202 147.567 113.732 147.567C118.261 147.567 121.934 142.643 121.934 136.569C121.934 130.495 118.261 125.572 113.732 125.572Z" fill="#FF7B00"/>
<path d="M127.112 128.275C127.112 127.828 127.017 127.386 126.82 126.996C126.535 126.435 126.005 125.79 125.068 125.791C124.497 125.791 124.01 126.116 123.686 126.625C123.555 126.831 123.451 127.057 123.368 127.291C123.246 127.637 123.201 127.971 123.202 128.342V128.383C123.202 129.191 123.205 129.999 123.205 130.807V132.409V134.2V136.098V138.019V139.878V141.594V143.082V144.257C123.205 144.727 123.166 145.189 123.285 145.649C123.538 146.624 124.258 147.399 125.205 147.399C126.868 147.399 127.077 145.338 127.077 145.338V135.404C127.077 134.869 127.141 134.336 127.27 133.821C127.617 132.446 128.464 130.199 130.866 130.199C131.658 130.199 132.423 130.483 133.011 131.08C133.498 131.576 133.833 132.23 134.059 132.911C134.488 134.205 134.445 135.557 134.435 136.909C134.432 137.309 134.428 137.709 134.428 138.109V141.038V143.695C134.428 144.382 134.332 145.084 134.543 145.746C134.833 146.658 135.556 147.399 136.461 147.399C137.113 147.399 137.653 147.015 137.972 146.394C138.303 145.752 138.328 145.09 138.33 144.362C138.333 142.868 138.324 141.373 138.324 139.877V135.611C138.324 133.947 138.163 132.32 137.661 130.736C137.308 129.622 136.816 128.544 136.114 127.648C135.342 126.664 134.319 125.966 133.158 125.716C132.79 125.637 132.414 125.601 132.039 125.601C128.986 125.601 127.428 127.896 127.171 128.295C127.16 128.313 127.112 128.297 127.112 128.275Z" fill="#FF7B00"/>
<path d="M18.3353 121L12.6742 121.025L12.6852 126.189L10.011 126.213L10 131.836H12.6962C12.6962 131.836 12.6852 139.451 12.6962 139.81C12.7073 140.17 12.7859 142.423 14.934 144.64C17.4178 147.352 20.3826 147.303 20.3826 147.303L24.6342 147.29V141.94H21.1212C18.7497 141.94 18.3353 138.77 18.3353 138.77L18.3463 131.86C18.3463 131.86 20.1256 131.848 22.184 131.836C24.2429 131.824 24.6342 129.322 24.6342 129.322V126.201L18.3353 126.213V121Z" fill="#FF0007"/>
<path d="M33.3565 126.213C32.4836 126.213 30.923 126.269 28.7078 128.331C26.4926 130.392 26.1118 133.309 26.1233 134.021C26.1343 134.734 26.1291 147.302 26.1291 147.302L31.6223 147.309C31.6223 147.309 31.628 136.672 31.628 134.894C31.628 133.117 34.0447 131.848 34.7046 131.848C35.365 131.848 37.9327 131.854 37.9327 131.854L37.9044 126.213H33.3565Z" fill="#FF0007"/>
<path d="M56.5829 126.213L50.8264 126.232C50.8264 126.232 50.8437 137.953 50.8437 138.993C50.8437 140.033 49.9535 142.114 47.7886 142.114C45.6238 142.114 44.9193 139.532 44.9193 138.974C44.9193 138.418 44.9361 131.024 44.9361 128.907C44.9361 126.789 43.0398 126.195 42.5866 126.195C42.1334 126.195 39.2971 126.232 39.2971 126.232C39.2971 126.232 39.2803 138.195 39.2803 139.272C39.2803 140.349 39.4146 142.43 41.2437 144.714C43.0734 146.999 45.2886 147.612 47.9229 147.575C50.5583 147.538 52.1524 147.036 54.2837 145.16C56.415 143.284 56.6165 139.587 56.5997 138.491C56.5829 137.396 56.5829 126.213 56.5829 126.213Z" fill="#FF0007"/>
<path d="M63.0202 134.556C63.3208 133.287 64.3919 130.765 67.105 130.969C70.3273 131.21 70.6631 134.572 70.6631 134.572L63.0202 134.556ZM75.7146 133.197C75.0269 130.764 74.303 129.652 73.0965 128.294C71.1666 126.121 68.28 125.619 66.9208 125.619C65.5612 125.619 63.2285 125.991 60.8286 128.182C58.4288 130.375 57.5895 134.089 57.5228 137.024C57.4557 139.959 58.8484 143.247 60.7279 145.179C62.6074 147.11 64.9569 147.612 67.0719 147.593C69.1864 147.575 70.4448 147.092 72.2404 145.903C74.0365 144.714 75.2949 142.132 75.2949 142.132C75.2949 142.132 70.9652 140.925 70.0588 140.646C69.6391 141.334 68.4646 142.448 66.6853 142.392C64.9071 142.337 63.8658 140.869 63.4131 140.126C63.2757 139.901 63.1723 139.422 63.0968 138.844C65.5958 138.84 75.2477 138.826 76.0503 138.826C76.0755 136.179 76.1342 135.037 75.7146 133.197Z" fill="#FF0007"/>
<path d="M151.766 43.539H117.681C115.456 43.539 113.474 44.9217 112.741 46.9861C111.118 51.5671 109.287 56.7274 107.4 62.0521C107.341 62.2174 107.282 62.3827 107.224 62.548C107.184 62.6608 107.143 62.7752 107.103 62.8888C101.211 79.5036 94.8291 97.4906 92.4025 104.305C92.121 105.152 91.7983 106.121 91.4076 107.115C91.3389 107.291 91.0024 108.131 90.386 108.961C90.2801 109.104 90.1757 109.232 90.0706 109.351C89.8926 109.561 89.6661 109.807 89.3329 110.063C89.3143 110.077 89.2957 110.09 89.2763 110.104C89.1614 110.192 89.0328 110.282 88.8848 110.37C88.5216 110.588 88.2134 110.701 88.0937 110.742C88.0759 110.747 88.0598 110.753 88.0428 110.758C88.0403 110.759 88.0363 110.761 88.0347 110.762C88.0234 110.766 88.0128 110.768 88.0023 110.771C87.9942 110.774 87.9862 110.777 87.9789 110.779C87.5413 110.923 87.1401 110.982 86.8125 111H127.783C128.047 111 128.312 110.971 128.568 110.906C129.564 110.655 131.694 109.747 132.591 106.515L153.874 46.4529C154.379 45.0273 153.302 43.539 151.766 43.539Z" fill="#FF7B00"/>
<path d="M50.8964 99.5993C50.9053 99.5746 50.9142 99.55 50.9231 99.5246C50.9489 99.4515 50.9748 99.38 51.0007 99.3068C51.0436 99.1885 51.0856 99.0701 51.1277 98.9524C51.1851 98.7903 51.2426 98.629 51.3008 98.4685C51.3728 98.2659 51.4448 98.0641 51.5168 97.8622C51.6025 97.623 51.6882 97.3823 51.774 97.1423C51.8727 96.8666 51.9713 96.59 52.07 96.3143C52.18 96.0052 52.2908 95.6961 52.4017 95.3862C52.523 95.0461 52.6443 94.706 52.7664 94.3651C52.8983 93.9964 53.0293 93.6277 53.1612 93.259C53.3027 92.8633 53.4435 92.4683 53.585 92.0734C53.7346 91.6554 53.8835 91.2367 54.0331 90.8179L54.5047 89.498C54.6689 89.0387 54.8331 88.5803 54.9965 88.1218C55.1663 87.6458 55.3362 87.1698 55.506 86.6954C55.6816 86.2059 55.8555 85.7164 56.031 85.2269C56.2097 84.7255 56.3885 84.2249 56.5673 83.7235C56.7501 83.2142 56.9321 82.7032 57.114 82.1939C57.2993 81.6766 57.4837 81.1593 57.6689 80.6428C57.855 80.1207 58.041 79.6002 58.227 79.079C58.4139 78.5561 58.6007 78.0317 58.7876 77.5088C58.9744 76.9859 59.1613 76.4631 59.3481 75.941L59.9054 74.3812C60.089 73.8662 60.2726 73.3521 60.4571 72.8372C60.6374 72.3302 60.8194 71.8233 60.9998 71.3163C61.1769 70.8197 61.3549 70.323 61.532 69.8264L62.0513 68.3738C62.2187 67.905 62.3862 67.4354 62.5544 66.9673C62.7154 66.5152 62.8771 66.0639 63.0381 65.6125C63.1926 65.1802 63.3471 64.748 63.5008 64.3165C63.6472 63.9065 63.7936 63.4964 63.94 63.0872L64.3525 61.9326C64.4803 61.5742 64.6081 61.2167 64.7359 60.8591C64.8532 60.5301 64.9705 60.2019 65.0877 59.8738C65.1937 59.5774 65.2997 59.281 65.4056 58.9846C65.4995 58.7223 65.5925 58.4609 65.6863 58.1979C65.7672 57.973 65.8473 57.7473 65.9273 57.5225C65.9945 57.3357 66.0608 57.1498 66.1271 56.9638C66.2355 56.6611 66.3326 56.3496 66.4766 56.0612L66.4895 56.0461L66.4952 56.0413L66.4992 56.0349L66.5065 56.0286C66.534 55.9738 66.5461 55.9261 66.5785 55.8736C66.86 55.2634 67.6041 54.6046 67.9074 54.5109L63.2929 39.2732C62.7162 37.3335 60.8218 36.0001 58.8499 36.0001H26.2918C24.7598 36.0001 23.6598 37.4487 24.0965 38.8918L42.4252 99.4054C43.1815 101.553 44.8251 102.668 46.5043 102.751H46.5075C48.2546 102.825 50.0366 101.778 50.8964 99.5993Z" fill="#FF000F"/>
<path d="M67.9029 54.515C67.9029 54.515 67.9062 54.5127 67.907 54.5112L67.8916 54.521C67.8956 54.5187 67.8997 54.5172 67.9029 54.515Z" fill="#AA0017"/>
<path d="M80.6204 102.495L80.3931 101.744C80.3535 101.614 80.3155 101.485 80.2758 101.355L72.421 75.4314L66.9281 57.3021C66.7226 56.6251 66.7914 55.9489 67.0818 55.395C67.1521 55.2615 67.2354 55.136 67.3301 55.0184C67.3414 55.0041 67.3519 54.989 67.3632 54.9747C67.4967 54.8173 67.6536 54.6775 67.8299 54.5583C67.8502 54.5448 67.8712 54.5336 67.8914 54.5209L67.9068 54.5106C67.6035 54.6044 66.8593 55.2639 66.5778 55.8734C66.5455 55.9266 66.5164 55.9806 66.4889 56.0347C66.484 56.0434 66.48 56.053 66.4759 56.0609C66.3319 56.3501 66.2349 56.6608 66.1265 56.9636C66.0602 57.1503 65.9938 57.3363 65.9267 57.5222C65.8466 57.7479 65.7666 57.9736 65.6857 58.1984C65.5918 58.4607 65.4988 58.7221 65.405 58.9843C65.299 59.2807 65.1931 59.5771 65.0871 59.8735C64.9698 60.2017 64.8525 60.5299 64.7353 60.8596C64.6075 61.2172 64.4797 61.5748 64.3519 61.9324L63.9394 63.0869C63.7929 63.497 63.6465 63.9062 63.5001 64.3162C63.3465 64.7477 63.192 65.18 63.0375 65.6123C62.8765 66.0636 62.7147 66.5157 62.5538 66.9671C62.3855 67.4359 62.2181 67.9055 62.0507 68.3744L61.5314 69.8269C61.3542 70.3236 61.1763 70.8202 60.9992 71.3168C60.8188 71.823 60.6368 72.33 60.4564 72.8377C60.272 73.3519 60.0884 73.8668 59.9048 74.3809L59.3475 75.9407C59.1606 76.4628 58.9738 76.9857 58.7869 77.5093C58.6001 78.0322 58.4132 78.5558 58.2264 79.0787C58.0404 79.6008 57.8543 80.1212 57.6683 80.6425C57.4831 81.159 57.2986 81.6771 57.1134 82.1936C56.9314 82.7038 56.7494 83.2139 56.5666 83.7241C56.3879 84.2255 56.2091 84.7261 56.0304 85.2275C55.8548 85.717 55.6809 86.2057 55.5054 86.6951C55.3355 87.1703 55.1657 87.6463 54.9958 88.1215C54.8324 88.58 54.6682 89.0385 54.504 89.4986L54.0325 90.8184C53.8828 91.2364 53.734 91.6552 53.5844 92.0739C53.4428 92.4689 53.3021 92.8638 53.1605 93.2587C53.0287 93.6282 52.8977 93.9969 52.765 94.3656C52.6437 94.7057 52.5223 95.0458 52.401 95.3867C52.2902 95.6958 52.1794 96.0049 52.0694 96.3148C51.9707 96.5898 51.872 96.8663 51.7733 97.1428C51.6876 97.382 51.6019 97.6228 51.5161 97.8628C51.4441 98.0646 51.3722 98.2664 51.2994 98.4691C51.2419 98.6296 51.1845 98.7909 51.1271 98.9522C51.085 99.0698 51.043 99.189 51.0001 99.3066C50.9742 99.3797 50.9483 99.452 50.9224 99.5251C50.9135 99.5497 50.9046 99.5744 50.8957 99.599C50.0359 101.779 48.254 102.824 46.5069 102.75H46.5036C46.4705 102.754 46.4389 102.756 46.4082 102.757H80.6997C80.673 102.67 80.6463 102.582 80.6204 102.495Z" fill="#AA0017"/>
<path d="M107.4 62.0517C107.107 61.0108 106.816 59.9706 106.535 58.9265C106.304 58.0683 106.033 57.2387 105.561 56.4743C105.1 55.7258 104.472 55.0797 103.691 54.6514C103.473 54.5314 103.244 54.4289 103.009 54.3479C102.639 54.2199 102.011 54.1262 101.618 54.1262H69.3393C68.7764 54.1262 68.2935 54.2716 67.9028 54.5148C67.8995 54.5171 67.8955 54.5187 67.8923 54.5203C67.872 54.533 67.851 54.5449 67.8316 54.5577C67.6545 54.6777 67.4975 54.8175 67.3641 54.9748C67.3528 54.9883 67.3431 55.0042 67.3309 55.0177C67.2363 55.1362 67.153 55.2609 67.0826 55.3944C66.7922 55.9482 66.7235 56.6253 66.9289 57.3015L72.4219 75.4316L80.2767 101.355L80.6698 102.653L82.1621 107.76C82.2592 108.032 83.0502 110.14 85.2261 110.807C86.2954 111.135 87.2353 110.972 87.7149 110.852C87.7869 110.834 87.8767 110.811 87.9794 110.779C87.9875 110.776 87.9948 110.774 88.0029 110.772C88.0158 110.768 88.0295 110.763 88.0433 110.758C88.0603 110.752 88.0765 110.747 88.0943 110.741C88.214 110.701 88.5221 110.588 88.8853 110.37C89.0333 110.281 89.1619 110.191 89.2768 110.104C89.5122 109.924 89.6861 109.753 89.8163 109.624C89.9021 109.538 89.987 109.448 90.0711 109.351C90.1763 109.232 90.2806 109.104 90.3866 108.961C91.0037 108.131 91.3394 107.291 91.4081 107.115C91.7988 106.121 92.1216 105.152 92.403 104.304C92.5575 103.838 92.6999 103.408 92.8342 103.03L93.8501 100.175C94.2747 98.977 94.701 97.7795 95.1265 96.5828L96.597 92.446C97.1292 90.9481 97.6606 89.4511 98.1936 87.954L99.8486 83.2975C100.397 81.7536 100.946 80.2104 101.495 78.6665C102.018 77.1948 102.541 75.7224 103.065 74.2516C103.539 72.9142 104.014 71.5777 104.49 70.2411C104.894 69.1032 105.299 67.9645 105.703 66.8274C106.014 65.9509 106.326 65.0753 106.637 64.1988L107.103 62.8885C107.144 62.7748 107.184 62.6612 107.225 62.5476C107.283 62.3823 107.342 62.217 107.4 62.0517Z" fill="#FFCD00"/>
</svg>
