<svg width="180" height="180" viewBox="0 0 180 180" fill="none" xmlns="http://www.w3.org/2000/svg">
<circle cx="90" cy="90" r="90" fill="white"/>
<path d="M137.007 133.433C137.007 133.433 137.476 129.732 140.497 129.732C143.44 129.732 143.943 133.433 143.943 133.433H137.007ZM147.357 133.926C146.947 130.007 144.807 125.943 140.167 125.943C140.167 125.943 133.921 125.941 133.422 135.122C133.412 135.303 133.422 135.488 133.429 135.67C133.447 136.146 133.492 136.62 133.557 137.091C133.65 137.747 133.786 138.397 133.972 139.029C134.186 139.761 134.469 140.471 134.834 141.13C135.229 141.844 135.722 142.497 136.308 143.038C136.966 143.646 137.735 144.102 138.556 144.398C139.068 144.582 139.609 144.722 140.146 144.779C140.883 144.857 141.626 144.747 142.342 144.555C143.494 144.247 144.561 143.644 145.451 142.792C145.822 142.438 146.183 142.04 146.456 141.591C146.456 141.591 147.034 140.644 146.713 139.697C146.509 139.098 146.095 138.55 145.472 138.49C144.76 138.421 144.356 139.015 143.913 139.508C143.913 139.508 142.817 140.991 140.669 140.991C139.332 140.991 138.336 140.317 137.692 139.211C137.267 138.482 137.011 137.529 136.963 136.671H137.503H138.89H140.772H142.797C143.512 136.671 144.227 136.667 144.942 136.671C145.182 136.672 145.423 136.668 145.661 136.682C145.899 136.697 146.146 136.699 146.377 136.628C146.665 136.541 146.978 136.285 147.137 136.016C147.503 135.397 147.431 134.631 147.357 133.926Z" fill="#FF7B00"/>
<path d="M147.324 129.71C147.376 129.878 147.433 130.046 147.489 130.213C147.489 130.416 147.661 130.722 147.726 130.915C147.809 131.161 147.892 131.407 147.975 131.653C148.141 132.146 148.308 132.639 148.473 133.132C148.798 134.093 149.125 135.053 149.457 136.011C149.831 137.091 150.209 138.168 150.591 139.243C150.786 139.791 150.983 140.338 151.18 140.885C151.276 141.154 151.374 141.422 151.471 141.69C151.52 141.824 151.569 141.958 151.617 142.093C151.642 142.16 151.787 142.435 151.765 142.496C151.475 143.289 151.162 144.076 150.752 144.806C150.241 145.715 149.537 146.514 148.781 147.187C148.617 147.333 148.065 147.796 147.886 147.917C147.502 148.175 147.104 148.352 146.799 148.729C146.5 149.1 146.335 149.565 146.335 150.06C146.335 150.464 146.422 150.87 146.626 151.212C146.794 151.495 147.022 151.733 147.296 151.892C147.58 152.059 147.946 152.008 148.245 151.904C148.53 151.804 148.791 151.641 149.046 151.47C150.162 150.722 151.2 149.819 152.077 148.759C152.164 148.654 152.248 148.548 152.328 148.438C152.423 148.311 152.517 148.183 152.602 148.049C152.602 148.049 154.011 146.059 154.846 143.726C155.68 141.394 156.7 138.359 156.7 138.359C157.409 136.319 158.11 134.277 158.828 132.241C159.084 131.515 159.34 130.789 159.595 130.064C159.866 129.297 160.14 128.459 159.92 127.674C159.623 126.612 158.274 125.888 157.482 126.804C157.186 127.147 157.027 127.599 156.874 128.039C156.184 130.03 155.495 132.02 154.81 134.012C154.516 134.866 154.222 135.72 153.929 136.575C153.87 136.747 153.489 137.487 153.553 137.669C153.193 136.643 152.833 135.617 152.473 134.592C151.808 132.697 151.14 130.805 150.485 128.906C150.325 128.445 150.164 127.984 149.994 127.528C149.844 127.126 149.577 126.766 149.224 126.554C148.698 126.238 147.987 126.384 147.566 126.838C147.176 127.258 147.037 127.893 147.073 128.488C147.099 128.906 147.2 129.311 147.324 129.71Z" fill="#FF7B00"/>
<path d="M81.5581 128.048C81.5342 128.286 81.5361 128.528 81.5384 128.766C81.5443 129.454 81.5443 130.141 81.5443 130.828V132.506V134.363V136.281V138.14V139.823C81.5443 140.323 81.5448 140.823 81.5457 141.323C81.5462 141.783 81.5191 142.252 81.5696 142.71C81.6251 143.202 81.7793 143.688 82.0873 144.064C82.3517 144.385 82.7143 144.575 83.109 144.611C83.1641 144.617 83.2192 144.619 83.2743 144.619C83.7925 144.619 84.2427 144.349 84.5379 143.893C84.788 143.506 84.9188 143.05 84.9762 142.585C85.0368 142.094 85.0203 141.599 85.0157 141.106C85.012 140.696 85.0129 140.286 85.0134 139.875C85.0143 139.471 85.0138 139.067 85.0138 138.663V137.822V136.289V134.904V133.819C85.0138 133.321 85.0014 132.833 85.1052 132.344C85.242 131.694 85.5151 131.035 85.9786 130.583C86.4096 130.162 86.9701 129.962 87.5438 129.935C87.5929 129.933 87.6429 129.932 87.6925 129.932C88.2681 129.932 88.8368 130.111 89.2756 130.526C89.6574 130.888 89.9012 131.378 90.0673 131.891C90.3014 132.613 90.3005 133.393 90.2986 134.15C90.2986 135.656 90.2954 137.162 90.2954 138.668V142.054V142.577C90.2954 142.577 90.4464 144.619 92.001 144.619C93.5556 144.619 93.692 142.742 93.692 142.742V133.729C93.692 133.729 93.7296 129.928 96.6212 129.928C99.3045 129.919 99.0635 133.647 99.0635 133.647V142.79C99.0635 142.79 99.2838 144.619 100.764 144.619C102.242 144.619 102.448 142.826 102.448 142.826V132.815C102.448 132.815 102.255 125.945 97.4043 125.945C93.8801 125.945 92.679 128.999 92.645 128.992C92.6335 128.989 92.6175 128.941 92.6129 128.931C92.5858 128.876 92.5587 128.821 92.5307 128.766C92.488 128.682 92.4435 128.599 92.3971 128.517C92.3375 128.411 92.2751 128.308 92.2094 128.205C92.1318 128.084 92.0501 127.966 91.9648 127.851C91.8684 127.722 91.7669 127.597 91.6614 127.477C91.5453 127.345 91.4232 127.219 91.296 127.101C91.1592 126.974 91.016 126.856 90.8669 126.747C90.7085 126.631 90.5428 126.526 90.3716 126.434C89.8598 126.158 89.2953 125.998 88.7248 125.962C88.5784 125.953 88.4301 125.944 88.2832 125.945C87.9197 125.948 87.5667 126.024 87.2275 126.165C87.0316 126.247 86.8425 126.35 86.6616 126.466C86.4835 126.581 86.3142 126.711 86.1535 126.852C85.9658 127.016 85.7891 127.195 85.6238 127.386C85.4311 127.609 85.253 127.847 85.0877 128.095C85.0666 128.128 85.0451 128.16 85.0239 128.193C85.0239 128.193 84.8215 126.075 83.3119 126.075C82.7028 126.075 82.2021 126.439 81.8959 126.997C81.7835 127.202 81.6853 127.432 81.6251 127.662C81.5925 127.789 81.5714 127.918 81.5581 128.048Z" fill="#FF7B00"/>
<path d="M110.765 140.838C108.649 140.838 106.933 138.384 106.933 135.358C106.933 132.332 108.649 129.879 110.765 129.879C112.882 129.879 114.597 132.332 114.597 135.358C114.597 138.384 112.882 140.838 110.765 140.838ZM110.765 125.919C106.801 125.919 103.588 130.139 103.588 135.345C103.588 140.551 106.801 144.772 110.765 144.772C114.728 144.772 117.942 140.551 117.942 135.345C117.942 130.139 114.728 125.919 110.765 125.919Z" fill="#FF7B00"/>
<path d="M122.474 128.236C122.474 127.853 122.39 127.474 122.218 127.14C121.969 126.659 121.505 126.106 120.685 126.107C120.185 126.107 119.759 126.385 119.476 126.822C119.361 126.998 119.27 127.192 119.197 127.393C119.091 127.689 119.052 127.975 119.052 128.294V128.329C119.052 129.021 119.055 129.714 119.055 130.407V131.779V133.315V134.942V136.588V138.182V139.652V140.927V141.935C119.055 142.338 119.021 142.733 119.125 143.128C119.346 143.964 119.976 144.628 120.804 144.628C122.26 144.628 122.443 142.861 122.443 142.861V134.347C122.443 133.888 122.499 133.431 122.612 132.989C122.915 131.811 123.656 129.885 125.758 129.885C126.451 129.885 127.121 130.128 127.635 130.64C128.061 131.065 128.354 131.626 128.552 132.21C128.928 133.319 128.89 134.478 128.881 135.637C128.879 135.98 128.875 136.322 128.875 136.665V139.176V141.453C128.875 142.042 128.791 142.644 128.976 143.212C129.23 143.993 129.862 144.628 130.653 144.628C131.224 144.628 131.697 144.299 131.976 143.767C132.265 143.216 132.287 142.649 132.289 142.025C132.292 140.744 132.284 139.463 132.284 138.181V134.524C132.284 133.097 132.143 131.703 131.704 130.345C131.395 129.391 130.964 128.467 130.35 127.699C129.674 126.855 128.78 126.257 127.764 126.043C127.441 125.975 127.113 125.944 126.785 125.944C124.113 125.944 122.75 127.911 122.525 128.253C122.515 128.269 122.474 128.255 122.474 128.236Z" fill="#FF7B00"/>
<path d="M27.2933 122L22.3399 122.021L22.3496 126.447L20.0096 126.468L20 131.287H22.3592C22.3592 131.287 22.3496 137.815 22.3592 138.123C22.3688 138.431 22.4377 140.363 24.3173 142.263C26.4906 144.587 29.0848 144.545 29.0848 144.545L32.8049 144.534V139.949H29.731C27.6559 139.949 27.2933 137.231 27.2933 137.231L27.303 131.308C27.303 131.308 28.8599 131.298 30.6609 131.287C32.4625 131.277 32.8049 129.133 32.8049 129.133V126.458L27.2933 126.468V122Z" fill="#FF0007"/>
<path d="M40.4366 126.469C39.6729 126.469 38.3074 126.516 36.3691 128.284C34.4308 130.051 34.0975 132.551 34.1076 133.161C34.1173 133.772 34.1127 144.545 34.1127 144.545L38.9192 144.55C38.9192 144.55 38.9243 135.433 38.9243 133.909C38.9243 132.386 41.0388 131.298 41.6162 131.298C42.1941 131.298 44.4409 131.304 44.4409 131.304L44.4161 126.469H40.4366Z" fill="#FF0007"/>
<path d="M60.7599 126.468L55.7229 126.484C55.7229 126.484 55.7381 136.531 55.7381 137.423C55.7381 138.314 54.9592 140.098 53.0649 140.098C51.1707 140.098 50.5543 137.884 50.5543 137.406C50.5543 136.929 50.5689 130.592 50.5689 128.777C50.5689 126.962 48.9097 126.452 48.5131 126.452C48.1166 126.452 45.6348 126.484 45.6348 126.484C45.6348 126.484 45.6201 136.738 45.6201 137.661C45.6201 138.585 45.7376 140.368 47.3381 142.326C48.9391 144.285 50.8774 144.81 53.1824 144.778C55.4884 144.747 56.8833 144.316 58.7481 142.708C60.613 141.1 60.7893 137.932 60.7746 136.992C60.7599 136.053 60.7599 126.468 60.7599 126.468Z" fill="#FF0007"/>
<path d="M66.3923 133.619C66.6553 132.532 67.5926 130.371 69.9665 130.545C72.786 130.752 73.0798 133.634 73.0798 133.634L66.3923 133.619ZM77.4999 132.455C76.8981 130.37 76.2647 129.417 75.209 128.252C73.5204 126.389 70.9946 125.959 69.8054 125.959C68.6157 125.959 66.5745 126.278 64.4747 128.157C62.3748 130.036 61.6404 133.22 61.5821 135.735C61.5234 138.251 62.742 141.069 64.3865 142.725C66.0311 144.38 68.0869 144.81 69.9376 144.794C71.7877 144.779 72.8889 144.365 74.46 143.346C76.0316 142.327 77.1327 140.114 77.1327 140.114C77.1327 140.114 73.3442 139.079 72.551 138.84C72.1838 139.429 71.1562 140.384 69.5993 140.337C68.0433 140.289 67.1322 139.031 66.7361 138.394C66.6158 138.201 66.5254 137.791 66.4593 137.295C68.646 137.292 77.0914 137.279 77.7936 137.279C77.8156 135.011 77.8671 134.032 77.4999 132.455Z" fill="#FF0007"/>
<path d="M147.938 48.0364H116.474C114.42 48.0364 112.591 49.3269 111.915 51.2537C110.416 55.5293 108.727 60.3455 106.984 65.3153C106.93 65.4696 106.876 65.6238 106.822 65.7781C106.785 65.8834 106.747 65.9902 106.71 66.0963C101.271 81.6033 95.3804 98.3913 93.1405 104.751C92.8806 105.542 92.5827 106.446 92.2221 107.374C92.1586 107.538 91.848 108.323 91.2791 109.097C91.1813 109.23 91.085 109.35 90.9879 109.461C90.8237 109.657 90.6146 109.887 90.307 110.126C90.2898 110.139 90.2726 110.151 90.2547 110.164C90.1487 110.246 90.03 110.33 89.8934 110.412C89.5581 110.616 89.2736 110.721 89.1631 110.759C89.1467 110.764 89.1318 110.769 89.1161 110.775C89.1139 110.775 89.1101 110.777 89.1086 110.778C89.0982 110.781 89.0885 110.783 89.0788 110.786C89.0713 110.789 89.0638 110.792 89.0571 110.794C88.6532 110.928 88.2829 110.983 87.9805 111H125.799C126.043 111 126.287 110.973 126.524 110.912C127.443 110.678 129.41 109.83 130.238 106.814L149.883 50.756C150.349 49.4255 149.355 48.0364 147.938 48.0364Z" fill="#FF7B00"/>
<path d="M54.8274 100.359C54.8356 100.336 54.8438 100.313 54.8521 100.29C54.8759 100.221 54.8998 100.155 54.9237 100.086C54.9633 99.976 55.0021 99.8655 55.041 99.7557C55.094 99.6044 55.147 99.4539 55.2007 99.3041C55.2672 99.1149 55.3336 98.9266 55.4001 98.7382C55.4792 98.5149 55.5584 98.2902 55.6375 98.0662C55.7286 97.8089 55.8197 97.5508 55.9108 97.2934C56.0123 97.0049 56.1146 96.7164 56.2169 96.4272C56.3289 96.1098 56.4409 95.7924 56.5536 95.4742C56.6753 95.1301 56.7963 94.7859 56.918 94.4418C57.0487 94.0725 57.1786 93.7039 57.3092 93.3353C57.4474 92.9452 57.5847 92.5543 57.7229 92.1635L58.1582 90.9316C58.3097 90.5029 58.4613 90.075 58.6121 89.6471C58.7689 89.2028 58.9257 88.7586 59.0825 88.3158C59.2445 87.859 59.405 87.4021 59.5671 86.9453C59.7321 86.4773 59.8971 86.01 60.0621 85.5421C60.2308 85.0667 60.3988 84.5898 60.5668 84.1144C60.7378 83.6316 60.908 83.1488 61.079 82.6667C61.2507 82.1794 61.4225 81.6937 61.5942 81.2071C61.7667 80.7191 61.9391 80.2296 62.1116 79.7416C62.2841 79.2536 62.4565 78.7656 62.629 78.2784L63.1435 76.8225C63.3129 76.3419 63.4824 75.8621 63.6527 75.3815C63.8192 74.9083 63.9872 74.4352 64.1537 73.962C64.3172 73.4985 64.4814 73.0349 64.6449 72.5714L65.1243 71.2157C65.2788 70.7781 65.4334 70.3398 65.5887 69.903C65.7373 69.481 65.8866 69.0597 66.0352 68.6384C66.1778 68.235 66.3204 67.8315 66.4623 67.4288C66.5974 67.0461 66.7325 66.6634 66.8677 66.2815L67.2485 65.2039C67.3664 64.8694 67.4844 64.5357 67.6024 64.2019C67.7106 63.8949 67.8189 63.5886 67.9272 63.2823C68.025 63.0056 68.1228 62.729 68.2206 62.4524C68.3072 62.2076 68.3931 61.9636 68.4797 61.7181C68.5543 61.5083 68.6282 61.2976 68.7022 61.0877C68.7641 60.9134 68.8254 60.7399 68.8866 60.5664C68.9866 60.2838 69.0762 59.9931 69.2091 59.7238L69.2211 59.7098L69.2263 59.7053L69.23 59.6994L69.2368 59.6934C69.2621 59.6423 69.2733 59.5978 69.3032 59.5488C69.563 58.9792 70.2499 58.3644 70.5299 58.2769L66.2704 44.0551C65.738 42.2447 63.9894 41.0002 62.1691 41.0002H32.1155C30.7014 41.0002 29.6859 42.3523 30.0891 43.6991L47.0079 100.178C47.706 102.183 49.2232 103.224 50.7732 103.301H50.7762C52.3889 103.37 54.0337 102.393 54.8274 100.359Z" fill="#FF000F"/>
<path d="M70.5261 58.2801C70.5261 58.2801 70.5291 58.2779 70.5298 58.2764L70.5156 58.2861C70.5194 58.2839 70.5231 58.2824 70.5261 58.2801Z" fill="#AA0017"/>
<path d="M82.2651 103.062L82.0552 102.361C82.0187 102.24 81.9836 102.12 81.947 101.998L74.6964 77.8024L69.626 60.8817C69.4363 60.2498 69.4998 59.6187 69.7678 59.1018C69.8328 58.9772 69.9097 58.86 69.9971 58.7502C70.0075 58.7369 70.0172 58.7228 70.0277 58.7094C70.1509 58.5626 70.2957 58.4321 70.4585 58.3208C70.4772 58.3082 70.4966 58.2978 70.5152 58.286L70.5294 58.2763C70.2494 58.3638 69.5625 58.9794 69.3027 59.5482C69.2728 59.5979 69.246 59.6484 69.2206 59.6988C69.2161 59.707 69.2124 59.7159 69.2086 59.7233C69.0757 59.9932 68.9861 60.2832 68.8861 60.5658C68.8248 60.7401 68.7636 60.9136 68.7017 61.0872C68.6277 61.2978 68.5538 61.5084 68.4792 61.7183C68.3925 61.9631 68.3067 62.2071 68.2201 62.4518C68.1223 62.7284 68.0245 63.0051 67.9266 63.2817C67.8184 63.588 67.7101 63.8943 67.6019 64.2021C67.4839 64.5358 67.3659 64.8696 67.248 65.2033L66.8672 66.2809C66.732 66.6636 66.5969 67.0456 66.4617 67.4282C66.3199 67.831 66.1773 68.2344 66.0347 68.6379C65.8861 69.0591 65.7368 69.4811 65.5882 69.9024C65.4329 70.34 65.2783 70.7783 65.1238 71.2158L64.6444 72.5716C64.4809 73.0351 64.3167 73.4986 64.1531 73.9622C63.9866 74.4346 63.8187 74.9078 63.6522 75.3817C63.4819 75.8615 63.3124 76.3421 63.1429 76.8219L62.6285 78.2778C62.456 78.7651 62.2836 79.2531 62.1111 79.7418C61.9386 80.2298 61.7661 80.7186 61.5937 81.2066C61.4219 81.6938 61.2502 82.1796 61.0785 82.6661C60.9075 83.1482 60.7373 83.6317 60.5663 84.1138C60.3983 84.59 60.2303 85.0661 60.0616 85.5422C59.8966 86.0102 59.7316 86.4774 59.5666 86.9454C59.4045 87.4023 59.244 87.8584 59.082 88.3152C58.9252 88.7587 58.7684 89.203 58.6116 89.6465C58.4608 90.0744 58.3092 90.5024 58.1577 90.9318L57.7224 92.1637C57.5842 92.5538 57.4469 92.9446 57.3087 93.3355C57.1781 93.7041 57.0482 94.0726 56.9175 94.4412C56.7958 94.7861 56.6748 95.1302 56.5524 95.4744C56.4404 95.7918 56.3284 96.1092 56.2164 96.4274C56.1141 96.7159 56.0118 97.0044 55.9103 97.2936C55.8192 97.5502 55.7281 97.8083 55.637 98.0664C55.5579 98.2897 55.4787 98.5144 55.3996 98.7383C55.3331 98.9267 55.2667 99.1151 55.1995 99.3042C55.1465 99.454 55.0935 99.6046 55.0404 99.7551C55.0016 99.8649 54.9628 99.9762 54.9232 100.086C54.8993 100.154 54.8754 100.222 54.8515 100.29C54.8433 100.313 54.8351 100.336 54.8269 100.359C54.0332 102.393 52.3884 103.369 50.7757 103.3H50.7727C50.7421 103.303 50.7129 103.305 50.6846 103.306H82.3382C82.3136 103.225 82.2889 103.143 82.2651 103.062Z" fill="#AA0017"/>
<path d="M106.985 65.315C106.715 64.3434 106.446 63.3726 106.187 62.3981C105.973 61.5971 105.723 60.8228 105.287 60.1093C104.861 59.4107 104.282 58.8078 103.561 58.408C103.36 58.296 103.149 58.2003 102.931 58.1247C102.59 58.0053 102.01 57.9178 101.648 57.9178H71.8518C71.3322 57.9178 70.8864 58.0535 70.5258 58.2804C70.5228 58.2827 70.5191 58.2841 70.5161 58.2856C70.4974 58.2975 70.478 58.3086 70.4601 58.3205C70.2966 58.4325 70.1517 58.563 70.0285 58.7099C70.0181 58.7225 70.0091 58.7373 69.9979 58.7499C69.9106 58.8604 69.8337 58.9768 69.7687 59.1014C69.5007 59.6184 69.4372 60.2503 69.6268 60.8814L74.6973 77.8028L81.9478 101.998L82.3107 103.209L83.6882 107.976C83.7778 108.23 84.5081 110.197 86.5165 110.819C87.5036 111.126 88.3712 110.974 88.8139 110.862C88.8804 110.845 88.9632 110.823 89.0581 110.793C89.0655 110.791 89.0722 110.789 89.0797 110.787C89.0917 110.783 89.1043 110.779 89.117 110.774C89.1327 110.769 89.1477 110.764 89.1641 110.759C89.2746 110.721 89.5591 110.615 89.8943 110.412C90.0309 110.329 90.1496 110.245 90.2557 110.164C90.4729 109.995 90.6335 109.836 90.7537 109.716C90.8328 109.636 90.9112 109.551 90.9889 109.461C91.0859 109.349 91.1822 109.23 91.28 109.097C91.8497 108.322 92.1596 107.538 92.223 107.374C92.5837 106.446 92.8816 105.542 93.1414 104.751C93.284 104.316 93.4154 103.914 93.5394 103.562L94.4771 100.896C94.8691 99.7785 95.2626 98.6609 95.6553 97.544L97.0127 93.6829C97.504 92.2849 97.9945 90.8877 98.4866 89.4904L100.014 85.1444C100.52 83.7033 101.027 82.2631 101.534 80.822C102.017 79.4485 102.5 78.0742 102.983 76.7015C103.421 75.4533 103.859 74.2058 104.298 72.9584C104.672 71.8963 105.045 70.8335 105.418 69.7723C105.706 68.9542 105.993 68.1369 106.281 67.3189L106.711 66.0959C106.748 65.9899 106.785 65.8838 106.823 65.7777C106.877 65.6235 106.931 65.4692 106.985 65.315Z" fill="#FFCD00"/>
</svg>
