<svg width="485" height="551" viewBox="0 0 485 551" fill="none" xmlns="http://www.w3.org/2000/svg">
<path d="M405.223 251.149C405.223 251.149 406.849 239.327 417.311 239.327C427.502 239.327 429.247 251.149 429.247 251.149H405.223ZM441.068 252.724C439.646 240.206 432.237 227.224 416.167 227.224C416.167 227.224 394.539 227.216 392.809 256.541C392.775 257.122 392.808 257.714 392.832 258.293C392.896 259.813 393.05 261.329 393.278 262.832C393.597 264.928 394.067 267.003 394.711 269.024C395.456 271.36 396.435 273.628 397.697 275.733C399.065 278.016 400.772 280.1 402.801 281.828C405.083 283.771 407.745 285.228 410.588 286.172C412.361 286.76 414.234 287.206 416.094 287.388C418.647 287.638 421.223 287.286 423.702 286.673C427.69 285.687 431.386 283.763 434.469 281.041C435.752 279.911 437.002 278.641 437.948 277.205C437.948 277.205 439.949 274.18 438.836 271.157C438.132 269.243 436.698 267.492 434.54 267.3C432.076 267.081 430.674 268.976 429.14 270.552C429.14 270.552 425.345 275.288 417.905 275.288C413.276 275.288 409.826 273.136 407.595 269.605C406.124 267.276 405.236 264.233 405.072 261.492H406.943H411.746H418.264H425.277C427.754 261.492 430.229 261.479 432.705 261.491C433.534 261.494 434.369 261.48 435.197 261.526C436.02 261.571 436.874 261.578 437.675 261.353C438.671 261.073 439.754 260.258 440.306 259.398C441.575 257.423 441.323 254.973 441.068 252.724Z" fill="#F38020"/>
<path d="M440.953 239.253C441.134 239.793 441.33 240.328 441.525 240.861C441.525 241.51 442.12 242.487 442.344 243.104L443.208 245.463C443.782 247.038 444.358 248.612 444.934 250.185C446.057 253.256 447.19 256.323 448.339 259.383C449.633 262.831 450.943 266.271 452.269 269.706C452.944 271.457 453.623 273.205 454.306 274.952C454.642 275.808 454.978 276.666 455.314 277.521C455.484 277.951 455.653 278.379 455.823 278.808C455.907 279.022 456.409 279.902 456.332 280.096C455.329 282.627 454.243 285.144 452.824 287.475C451.057 290.378 448.617 292.929 445.999 295.082C445.432 295.548 443.521 297.024 442.898 297.411C441.569 298.237 440.189 298.8 439.137 300.004C438.099 301.19 437.527 302.676 437.527 304.254C437.527 305.547 437.83 306.842 438.534 307.937C439.117 308.842 439.906 309.6 440.854 310.111C441.839 310.641 443.108 310.478 444.141 310.146C445.128 309.829 446.035 309.306 446.917 308.761C450.783 306.372 454.377 303.488 457.415 300.101C457.716 299.766 458.004 299.425 458.284 299.076C458.614 298.672 458.937 298.263 459.232 297.833C459.232 297.833 464.113 291.476 467.002 284.026C469.892 276.578 473.424 266.881 473.424 266.881C475.879 260.366 478.309 253.842 480.793 247.339C481.68 245.02 482.565 242.703 483.451 240.384C484.387 237.935 485.335 235.26 484.575 232.751C483.547 229.36 478.875 227.048 476.133 229.974C475.107 231.069 474.555 232.513 474.027 233.917C471.636 240.275 469.249 246.634 466.876 252.998C465.86 255.726 464.843 258.454 463.827 261.182C463.621 261.734 462.304 264.096 462.526 264.676C461.279 261.4 460.031 258.123 458.785 254.847C456.483 248.797 454.168 242.751 451.899 236.688C451.348 235.215 450.79 233.744 450.199 232.286C449.68 231.001 448.756 229.851 447.533 229.173C445.713 228.164 443.249 228.633 441.792 230.081C440.441 231.424 439.96 233.451 440.085 235.352C440.173 236.687 440.524 237.981 440.953 239.253Z" fill="#F38020"/>
<path d="M213.19 233.947C213.107 234.706 213.114 235.477 213.12 236.238C213.141 238.435 213.142 240.629 213.142 242.827V248.185V254.116V260.242V266.182V271.558C213.142 273.155 213.144 274.751 213.146 276.347C213.147 277.816 213.054 279.317 213.231 280.777C213.422 282.352 213.956 283.902 215.024 285.103C215.938 286.131 217.193 286.735 218.562 286.852C218.752 286.868 218.943 286.876 219.134 286.876C220.927 286.876 222.486 286.015 223.509 284.556C224.376 283.32 224.829 281.863 225.027 280.378C225.237 278.812 225.179 277.232 225.165 275.657C225.153 274.346 225.156 273.034 225.158 271.723C225.159 270.433 225.159 269.142 225.159 267.852V265.165V260.269V255.844V252.379C225.159 250.786 225.115 249.231 225.474 247.666C225.948 245.59 226.894 243.486 228.499 242.041C229.992 240.698 231.932 240.058 233.919 239.972C234.09 239.965 234.262 239.961 234.435 239.961C236.429 239.961 238.398 240.535 239.917 241.861C241.239 243.016 242.084 244.582 242.659 246.22C243.47 248.527 243.468 251.019 243.461 253.435C243.461 258.246 243.45 263.057 243.45 267.868V278.683V280.354C243.45 280.354 243.973 286.876 249.356 286.876C254.739 286.876 255.212 280.88 255.212 280.88V252.09C255.212 252.09 255.342 239.948 265.357 239.948C274.65 239.921 273.815 251.829 273.815 251.829V281.036C273.815 281.036 274.578 286.876 279.702 286.876C284.826 286.876 285.537 281.149 285.537 281.149V249.174C285.537 249.174 284.867 227.229 268.07 227.229C255.863 227.229 251.705 236.983 251.586 236.96C251.547 236.953 251.49 236.797 251.474 236.767C251.381 236.59 251.288 236.414 251.191 236.239C251.043 235.971 250.889 235.705 250.728 235.444C250.521 235.105 250.305 234.774 250.077 234.448C249.809 234.061 249.526 233.684 249.23 233.317C248.897 232.904 248.546 232.504 248.179 232.12C247.777 231.7 247.355 231.299 246.914 230.921C246.441 230.516 245.945 230.137 245.428 229.789C244.878 229.419 244.306 229.084 243.713 228.789C241.94 227.908 239.986 227.395 238.01 227.283C237.503 227.254 236.988 227.224 236.481 227.229C235.222 227.239 233.998 227.48 232.824 227.932C232.144 228.193 231.489 228.521 230.865 228.893C230.249 229.259 229.662 229.673 229.104 230.122C228.453 230.648 227.843 231.222 227.271 231.832C226.602 232.543 225.985 233.304 225.414 234.097C225.339 234.2 225.265 234.304 225.192 234.409C225.192 234.409 224.492 227.644 219.264 227.644C217.154 227.644 215.42 228.806 214.361 230.587C213.971 231.243 213.63 231.978 213.423 232.712C213.309 233.117 213.236 233.53 213.19 233.947Z" fill="#F38020"/>
<path d="M314.337 274.8C307.008 274.8 301.065 266.964 301.065 257.297C301.065 247.63 307.008 239.794 314.337 239.794C321.667 239.794 327.609 247.63 327.609 257.297C327.609 266.964 321.667 274.8 314.337 274.8ZM314.337 227.144C300.611 227.144 289.482 240.626 289.482 257.255C289.482 273.885 300.611 287.367 314.337 287.367C328.065 287.367 339.192 273.885 339.192 257.255C339.192 240.626 328.065 227.144 314.337 227.144Z" fill="#F38020"/>
<path d="M354.889 234.547C354.889 233.324 354.6 232.112 354.003 231.045C353.142 229.508 351.534 227.744 348.692 227.745C346.964 227.746 345.488 228.635 344.506 230.028C344.109 230.592 343.794 231.211 343.542 231.852C343.173 232.799 343.038 233.713 343.04 234.731V234.842C343.04 237.054 343.05 239.267 343.05 241.48V245.864V250.768V255.965V261.224V266.316V271.013V275.085V278.304C343.05 279.589 342.93 280.853 343.291 282.114C344.057 284.786 346.239 286.908 349.108 286.908C354.152 286.908 354.781 281.262 354.781 281.262V254.066C354.781 252.6 354.975 251.141 355.368 249.73C356.418 245.967 358.985 239.814 366.264 239.814C368.663 239.814 370.983 240.591 372.763 242.227C374.239 243.584 375.255 245.373 375.941 247.242C377.241 250.781 377.112 254.484 377.08 258.186C377.071 259.281 377.059 260.375 377.059 261.47V269.491V276.765C377.059 278.646 376.768 280.568 377.407 282.381C378.286 284.877 380.477 286.908 383.217 286.908C385.197 286.908 386.832 285.855 387.799 284.156C388.8 282.395 388.876 280.583 388.881 278.592C388.89 274.5 388.864 270.405 388.864 266.312V254.631C388.864 250.074 388.377 245.62 386.856 241.284C385.785 238.236 384.294 235.282 382.167 232.831C379.827 230.134 376.73 228.225 373.21 227.54C372.093 227.322 370.956 227.223 369.819 227.223C360.568 227.223 355.844 233.509 355.068 234.601C355.032 234.651 354.889 234.608 354.889 234.547Z" fill="#F38020"/>
<path d="M256.101 363.58C256.027 363.051 256.084 362.452 256.084 361.933V359.967V357.36V354.206V350.596V346.621V342.375V337.946V333.43V328.915V324.494V320.259V316.302V312.714V309.587V307.012V305.082V303.888C256.084 302.886 256.504 301.874 257.202 301.153C257.914 300.416 258.901 300.074 259.912 300.039C259.978 300.037 260.043 300.035 260.108 300.035C261.142 300.035 262.153 300.361 262.9 301.092C263.776 301.948 264.206 303.109 264.202 304.32C264.199 305.431 264.199 306.54 264.199 307.651V310.406V313.723V317.504V321.649V326.056V330.626V335.257V339.853V344.311V348.532V352.414V355.86V358.768V361.038C264.199 361.934 264.304 362.908 264.091 363.775C263.634 365.652 262.063 366.877 260.142 366.877C258.327 366.877 256.675 365.683 256.171 363.916C256.14 363.808 256.117 363.696 256.101 363.58Z" fill="#808083"/>
<path d="M273.856 363.58C273.781 363.051 273.839 362.452 273.839 361.933V359.967V357.36V354.206V350.596V346.621V342.375V337.946V333.43V328.915V324.494V320.259V316.302V312.714V309.587V307.012V305.082V303.888C273.839 302.886 274.258 301.874 274.956 301.153C275.669 300.416 276.655 300.074 277.666 300.039C277.732 300.037 277.797 300.035 277.862 300.035C278.896 300.035 279.907 300.361 280.654 301.092C281.53 301.948 281.96 303.109 281.957 304.32C281.953 305.431 281.954 306.54 281.954 307.651V310.406V313.723V317.504V321.649V326.056V330.626V335.257V339.853V344.311V348.532V352.414V355.86V358.768V361.038C281.954 361.934 282.058 362.908 281.846 363.775C281.388 365.652 279.817 366.877 277.897 366.877C276.081 366.877 274.43 365.683 273.925 363.916C273.894 363.808 273.871 363.696 273.856 363.58Z" fill="#808083"/>
<path d="M190.879 352.629C190.782 352.227 190.686 351.825 190.59 351.423C190.398 350.619 190.207 349.814 190.017 349.01C189.637 347.401 189.26 345.792 188.885 344.182C188.033 340.504 187.155 336.755 186.292 333.05C185.43 329.349 184.677 325.601 183.668 321.939C183.608 321.717 183.545 321.497 183.479 321.278C183.197 320.34 182.807 319.43 182.057 318.765C180.947 317.781 179.112 317.634 177.643 317.841C176.582 317.989 175.496 318.337 174.761 319.117C174 319.926 173.731 321.067 173.49 322.152C171.157 332.691 168.823 343.231 166.49 353.77C163.974 343.665 161.459 333.56 158.944 323.454C158.436 321.416 157.755 319.146 155.901 318.159C154.238 317.272 151.977 317.967 150.951 319.509C149.502 321.686 150.182 324.395 150.848 326.72C154.253 338.63 157.657 350.539 161.062 362.448C161.442 363.777 161.881 365.196 162.97 366.048C163.861 366.744 165.043 366.935 166.172 366.987C167.516 367.047 168.981 366.893 169.968 365.979C170.851 365.159 171.161 363.909 171.428 362.735L178.289 332.601C178.31 332.513 178.427 332.519 178.449 332.607C180.699 341.451 182.761 350.34 184.86 359.22C185.152 360.455 185.439 361.689 185.729 362.922C185.957 363.897 186.207 364.916 186.868 365.668C187.754 366.676 189.191 366.994 190.533 367.024C191.594 367.048 192.696 366.915 193.606 366.367C195.011 365.521 195.698 363.862 196.069 362.265C197.148 357.606 198.557 353.022 199.856 348.408C201.908 341.119 204.237 333.894 206.115 326.559C206.29 325.876 206.46 325.191 206.624 324.504C206.804 323.748 206.977 322.965 207.017 322.192C207.073 321.096 206.863 320.018 206.035 319.061C205.256 318.161 204.082 317.685 202.894 317.765C199.653 317.982 198.911 321.68 198.344 324.204C196.125 334.092 193.602 344.1 191.158 353.787" fill="#808083"/>
<path d="M238.385 350.336C238.102 352.56 236.981 354.598 235.361 356.132C234.588 356.864 233.704 357.481 232.742 357.94C229.926 359.282 226.442 359.584 223.417 358.825C220.526 358.099 219.05 355.773 219.17 352.843C219.27 350.401 220.53 348.347 222.576 347.079C224.5 345.887 226.716 345.346 228.921 344.952C231.793 344.441 234.789 344.092 237.518 343.015C237.745 342.925 238.057 342.796 238.424 342.62C238.424 343.951 238.424 345.284 238.428 346.615C238.433 347.847 238.541 349.112 238.385 350.336ZM249.244 359.375C248.51 359.047 247.569 359.145 247.035 358.544C246.543 357.991 246.524 357.055 246.529 356.314C246.578 349.23 246.625 342.148 246.674 335.065C246.692 332.342 246.707 329.59 246.087 326.939C245.465 324.289 244.137 321.709 241.937 320.105C240.197 318.837 238.05 318.266 235.931 317.883C231.597 317.098 227.041 317.005 222.868 318.415C219.74 319.472 216.848 321.446 214.94 324.167C213.686 325.957 212.526 328.51 212.771 330.815C212.863 331.678 213.151 332.507 213.706 333.247C215.01 334.987 217.843 335.523 219.437 334.044C220.877 332.71 220.883 330.446 221.834 328.729C223.16 326.335 226.125 325.352 228.858 325.205C231.554 325.06 234.427 325.598 236.433 327.403C238.44 329.208 239.227 332.506 237.646 334.694C236.589 336.157 234.773 336.844 233.028 337.304C229.469 338.242 225.77 338.557 222.212 339.497C218.654 340.438 215.108 342.13 212.981 345.133C210.941 348.015 210.468 351.758 210.823 355.271C211.091 357.925 211.832 360.608 213.482 362.704C215.563 365.347 218.893 366.778 222.229 367.213C228.365 368.013 234.832 365.583 238.922 360.94C238.989 362.822 239.885 364.662 241.328 365.875C242.771 367.087 244.731 367.633 246.597 367.376C248.459 367.118 250.416 366.033 250.948 364.23C251.459 362.497 250.958 360.143 249.244 359.375Z" fill="#808083"/>
<path d="M336.289 318.423C336.288 318.136 336.288 317.848 336.287 317.561C336.286 316.846 336.284 316.131 336.283 315.417C336.281 314.497 336.278 313.576 336.277 312.656C336.275 311.751 336.273 310.845 336.272 309.94C336.27 309.272 336.269 308.604 336.267 307.936C336.266 307.47 336.279 307.04 336.422 306.596C336.519 306.291 336.649 305.997 336.812 305.721C337.266 304.957 337.973 304.391 338.818 304.112C339.323 303.945 339.858 303.879 340.39 303.879C341.382 303.879 342.365 304.179 343.076 304.895C344.273 306.101 344.336 307.847 344.3 309.442C344.274 310.588 344.289 311.734 344.289 312.88V317.23V318.446H347.215H348.517C349.057 318.446 349.586 318.404 350.102 318.601C351.614 319.18 352.561 320.519 352.664 322.125C352.673 322.242 352.676 322.36 352.676 322.478C352.676 323.878 352.091 325.187 350.898 325.957C350.702 326.084 350.497 326.182 350.288 326.281C349.846 326.488 349.422 326.526 348.938 326.524C347.399 326.52 345.861 326.52 344.323 326.52V355.544C344.323 355.544 344.433 358.982 348.192 358.982C351.951 358.982 353.914 358.717 353.914 362.842C353.914 363.988 353.6 365.032 352.704 365.795C351.739 366.618 350.434 366.909 349.214 366.877C347.743 366.838 346.328 366.931 344.866 366.691C343.539 366.474 342.266 365.968 341.096 365.31C339.107 364.189 337.487 362.475 336.752 360.286C336.413 359.276 336.266 358.21 336.266 357.146V326.663C335.536 326.663 334.803 326.682 334.073 326.683C333.362 326.684 332.637 326.751 331.939 326.569C330.825 326.278 329.758 325.345 329.284 324.303C329.034 323.753 328.924 323.151 328.924 322.548C328.924 321.102 329.572 319.782 330.794 318.994C331.396 318.607 331.997 318.469 332.712 318.444C333.894 318.403 335.108 318.424 336.289 318.423Z" fill="#808083"/>
<path d="M297.218 337.201C297.218 337.201 298.373 325.424 308.738 325.424C319.793 325.424 319.623 337.201 319.623 337.201H297.218ZM328.034 338.495C326.879 328.108 322.696 317.335 307.808 317.335C295.5 317.335 286.439 332.546 289.415 348.367C290.853 356.009 294.251 363.385 302.973 366.461C304.407 366.967 306.236 367.108 307.748 367.259C312.332 367.718 317.331 366.216 320.929 363.357C323.657 361.19 327.653 355.925 326.257 352.049C325.685 350.462 324.549 349.667 322.796 349.508C320.795 349.326 319.556 351.494 319.082 352.449C317.934 354.771 317.056 359.195 308.737 359.195C303.711 359.195 300.876 355.925 299.065 352.995C297.87 351.062 297.332 347.399 297.2 345.125H300.337H304.238H309.532H315.23C317.24 345.125 319.251 345.114 321.263 345.123C321.936 345.126 322.614 345.115 323.286 345.153C323.954 345.191 324.65 345.196 325.299 345.01C326.108 344.778 326.988 344.101 327.437 343.388C328.467 341.747 328.241 340.361 328.034 338.495Z" fill="#808083"/>
<path d="M25.2585 214.628L8.103 214.695L8.13675 228.833L0.0337515 228.902L0 244.294H8.1705C8.1705 244.294 8.13675 265.145 8.1705 266.128C8.205 267.112 8.442 273.282 14.952 279.351C22.4783 286.775 31.4632 286.64 31.4632 286.64L44.3468 286.607V271.96H33.7005C26.5133 271.96 25.2585 263.28 25.2585 263.28L25.2922 244.362C25.2922 244.362 30.6833 244.328 36.9217 244.294C43.1603 244.26 44.3468 237.411 44.3468 237.411V228.867L25.2585 228.902V214.628Z" fill="#ED1C24"/>
<path d="M70.7752 228.902C68.1307 228.902 63.4004 229.054 56.6879 234.699C49.9747 240.344 48.8219 248.329 48.8557 250.278C48.8894 252.228 48.8729 286.64 48.8729 286.64L65.5199 286.658C65.5199 286.658 65.5372 257.534 65.5372 252.668C65.5372 247.803 72.8602 244.328 74.8604 244.328C76.8607 244.328 84.6419 244.345 84.6419 244.345L84.5572 228.902H70.7752Z" fill="#ED1C24"/>
<path d="M141.16 228.902L123.717 228.953C123.717 228.953 123.768 261.043 123.768 263.891C123.768 266.739 121.072 272.434 114.511 272.434C107.951 272.434 105.815 265.366 105.815 263.84C105.815 262.314 105.866 242.073 105.866 236.276C105.866 230.478 100.119 228.851 98.7463 228.851C97.3731 228.851 88.7781 228.953 88.7781 228.953C88.7781 228.953 88.7271 261.704 88.7271 264.654C88.7271 267.603 89.1343 273.3 94.6776 279.555C100.221 285.81 106.934 287.488 114.919 287.387C122.903 287.285 127.735 285.912 134.193 280.776C140.652 275.639 141.262 265.518 141.211 262.518C141.16 259.518 141.16 228.902 141.16 228.902Z" fill="#ED1C24"/>
<path d="M160.669 251.741C161.58 248.269 164.825 241.364 173.047 241.92C182.812 242.581 183.829 251.787 183.829 251.787L160.669 251.741ZM199.137 248.023C197.051 241.361 194.858 238.316 191.203 234.597C185.354 228.647 176.607 227.274 172.488 227.274C168.368 227.274 161.299 228.291 154.027 234.292C146.755 240.293 144.211 250.464 144.008 258.5C143.805 266.535 148.026 275.537 153.721 280.825C159.418 286.115 166.537 287.487 172.945 287.437C179.353 287.386 183.168 286.064 188.609 282.809C194.051 279.554 197.865 272.485 197.865 272.485C197.865 272.485 184.744 269.18 181.998 268.416C180.727 270.298 177.166 273.35 171.776 273.197C166.385 273.045 163.231 269.027 161.859 266.993C161.443 266.376 161.129 265.065 160.899 263.481C168.474 263.472 197.721 263.433 200.153 263.433C200.23 256.186 200.407 253.058 199.137 248.023Z" fill="#ED1C24"/>
<path d="M377.97 16.6735H303.911C299.077 16.6735 294.77 19.732 293.179 24.2972C289.65 34.4275 285.674 45.8417 281.572 57.6175L281.573 57.6197C281.445 57.985 281.318 58.3495 281.191 58.7147C281.103 58.966 281.015 59.2172 280.927 59.4677C268.125 96.2147 254.26 135.998 248.987 151.066C248.376 152.942 247.675 155.084 246.827 157.283C246.677 157.673 245.947 159.531 244.607 161.365C244.376 161.68 244.149 161.963 243.922 162.227C243.534 162.691 243.041 163.238 242.318 163.802C242.277 163.834 242.237 163.861 242.195 163.892C241.945 164.087 241.666 164.285 241.345 164.482C240.555 164.964 239.885 165.212 239.626 165.303C239.588 165.317 239.552 165.328 239.515 165.341C239.51 165.342 239.501 165.345 239.496 165.347C239.473 165.355 239.45 165.362 239.427 165.37C239.41 165.375 239.393 165.381 239.376 165.386C238.426 165.704 237.553 165.833 236.842 165.875H325.859C326.435 165.875 327.009 165.81 327.566 165.667C329.731 165.111 334.359 163.104 336.308 155.955L382.549 23.1167C383.646 19.966 381.306 16.6735 377.97 16.6735Z" fill="#FF7B00"/>
<path d="M158.805 140.66C158.824 140.605 158.844 140.55 158.863 140.495L159.032 140.013C159.124 139.751 159.216 139.49 159.307 139.229C159.433 138.872 159.558 138.515 159.682 138.159C159.839 137.712 159.996 137.266 160.153 136.819C160.339 136.288 160.525 135.757 160.712 135.226C160.927 134.615 161.14 134.005 161.354 133.395C161.595 132.711 161.835 132.026 162.075 131.342L162.868 129.085C163.153 128.269 163.44 127.453 163.726 126.638C164.033 125.764 164.339 124.89 164.646 124.016C164.971 123.091 165.296 122.165 165.621 121.238C165.962 120.266 166.304 119.292 166.645 118.319C167.002 117.304 167.358 116.289 167.714 115.274C168.083 114.223 168.452 113.172 168.82 112.121C169.201 111.038 169.581 109.956 169.96 108.874C170.35 107.765 170.738 106.658 171.127 105.55C171.523 104.421 171.919 103.293 172.315 102.164C172.717 101.021 173.117 99.8777 173.519 98.7347C173.923 97.5812 174.328 96.4285 174.733 95.2757C175.139 94.1185 175.545 92.9612 175.951 91.8032L177.169 88.3352L178.379 84.8852C178.779 83.7475 179.178 82.6097 179.578 81.4712C179.971 80.35 180.364 79.2295 180.758 78.1082C181.143 77.0095 181.528 75.9115 181.914 74.8127C182.29 73.7417 182.665 72.6715 183.041 71.6005C183.406 70.5632 183.77 69.526 184.134 68.488C184.484 67.489 184.835 66.49 185.185 65.491C185.521 64.5355 185.856 63.5807 186.191 62.626C186.509 61.72 186.827 60.814 187.145 59.908L188.041 57.3535C188.32 56.5622 188.597 55.7702 188.875 54.979L189.64 52.8002C189.869 52.1447 190.1 51.4892 190.33 50.8337C190.533 50.254 190.737 49.675 190.94 49.0952C191.115 48.5965 191.29 48.0985 191.464 47.5997C191.609 47.1887 191.754 46.777 191.898 46.3652C192.133 45.694 192.343 45.0077 192.657 44.368L192.685 44.335L192.697 44.3245L192.706 44.3102L192.722 44.296C192.782 44.1752 192.808 44.0702 192.877 43.9532C193.489 42.604 195.106 41.1475 195.765 40.9405L185.739 7.23924C184.487 2.94923 180.371 0.000228882 176.085 0.000228882H105.346C102.016 0.000228882 99.6261 3.20499 100.575 6.39549L140.398 140.232C142.042 144.981 145.612 147.449 149.263 147.63C149.264 147.63 149.266 147.63 149.269 147.63C153.065 147.792 156.937 145.48 158.805 140.66Z" fill="#FF000F"/>
<path d="M195.755 40.9482C195.758 40.9459 195.762 40.9422 195.765 40.9399L195.731 40.9609C195.74 40.9564 195.748 40.9527 195.755 40.9482Z" fill="#AA0017"/>
<path d="M223.389 147.065C223.224 146.51 223.059 145.956 222.895 145.401C222.81 145.115 222.726 144.83 222.64 144.545L205.574 87.2093L193.638 47.1121C193.194 45.6158 193.342 44.1196 193.974 42.8933C194.125 42.5986 194.307 42.3218 194.514 42.0623C194.538 42.0308 194.559 41.9963 194.585 41.9656C194.875 41.6176 195.215 41.3078 195.6 41.0438C195.642 41.0153 195.688 40.9891 195.732 40.9606L195.765 40.9403C195.107 41.1473 193.489 42.6038 192.877 43.9531C192.808 44.0701 192.745 44.1901 192.684 44.3101C192.675 44.3296 192.666 44.3483 192.657 44.3678C192.343 45.0076 192.133 45.6938 191.898 46.3651C191.754 46.7768 191.609 47.1886 191.465 47.5996C191.289 48.0983 191.115 48.5963 190.94 49.0951C190.737 49.6748 190.533 50.2538 190.329 50.8336C190.1 51.4891 189.87 52.1446 189.639 52.8001L188.874 54.9788C188.597 55.7701 188.319 56.5621 188.042 57.3533L187.145 59.9078C186.827 60.8138 186.509 61.7198 186.191 62.6258C185.856 63.5806 185.52 64.5353 185.185 65.4908C184.835 66.4898 184.484 67.4888 184.134 68.4878C183.77 69.5258 183.405 70.563 183.042 71.6003C182.666 72.6713 182.29 73.7416 181.914 74.8126C181.529 75.9113 181.143 77.0093 180.758 78.108C180.364 79.2293 179.97 80.3498 179.577 81.4711C179.178 82.6096 178.779 83.7473 178.379 84.8851L177.168 88.3351L175.951 91.8031C175.545 92.9611 175.139 94.1183 174.732 95.2756C174.328 96.4283 173.923 97.5811 173.519 98.7346C173.118 99.8776 172.716 101.021 172.315 102.164C171.919 103.293 171.523 104.421 171.127 105.55C170.738 106.658 170.349 107.765 169.96 108.874C169.581 109.956 169.201 111.038 168.821 112.121C168.452 113.172 168.083 114.223 167.714 115.274C167.358 116.289 167.001 117.304 166.645 118.319C166.304 119.292 165.963 120.266 165.621 121.238C165.296 122.165 164.971 123.091 164.646 124.016C164.34 124.89 164.033 125.764 163.726 126.638C163.44 127.453 163.154 128.269 162.867 129.085L162.075 131.342C161.835 132.026 161.595 132.711 161.355 133.395C161.14 134.005 160.926 134.615 160.712 135.226C160.526 135.757 160.339 136.288 160.153 136.819C159.996 137.266 159.84 137.712 159.683 138.159C159.558 138.515 159.432 138.872 159.307 139.229C159.216 139.49 159.123 139.751 159.032 140.013L158.862 140.495C158.844 140.55 158.824 140.605 158.805 140.66C156.936 145.48 153.065 147.792 149.268 147.63C149.266 147.63 149.264 147.63 149.262 147.63C149.19 147.637 149.121 147.641 149.055 147.644H223.56C223.503 147.451 223.446 147.258 223.389 147.065Z" fill="#AA0017"/>
<path d="M281.572 57.6171C280.935 55.3169 280.304 53.0144 279.693 50.7066C279.191 48.8069 278.602 46.9746 277.577 45.2819C276.574 43.6266 275.211 42.1964 273.512 41.2491C273.039 40.9844 272.543 40.7594 272.032 40.5786C271.228 40.2944 269.864 40.0889 269.01 40.0889H198.875C197.652 40.0889 196.604 40.4106 195.755 40.9476C195.748 40.9529 195.74 40.9559 195.731 40.9611C195.688 40.9889 195.642 41.0151 195.6 41.0436C195.215 41.3076 194.876 41.6174 194.585 41.9654C194.559 41.9961 194.539 42.0306 194.513 42.0621C194.307 42.3216 194.125 42.5991 193.973 42.8939C193.342 44.1194 193.193 45.6164 193.638 47.1119L205.574 87.2091L222.641 144.544L223.494 147.413L226.737 158.71C226.947 159.31 228.665 163.972 233.395 165.448C235.718 166.172 237.76 165.814 238.802 165.547C238.958 165.508 239.153 165.457 239.376 165.386C239.393 165.381 239.411 165.375 239.427 165.37C239.456 165.36 239.486 165.35 239.515 165.34C239.552 165.328 239.588 165.316 239.626 165.303C239.885 165.212 240.556 164.964 241.346 164.481C241.666 164.286 241.946 164.086 242.196 163.892C242.707 163.495 243.086 163.117 243.367 162.832C243.554 162.641 243.738 162.44 243.922 162.227C244.15 161.963 244.376 161.68 244.607 161.365C245.947 159.531 246.677 157.672 246.827 157.282C247.676 155.083 248.376 152.942 248.988 151.066C249.324 150.036 249.633 149.084 249.925 148.249L252.131 141.931C253.056 139.284 253.98 136.636 254.905 133.988C255.97 130.939 257.035 127.889 258.1 124.839C259.256 121.528 260.412 118.216 261.569 114.905C262.768 111.472 263.966 108.039 265.165 104.606L268.742 94.3641L272.152 84.5984C273.184 81.6419 274.217 78.6854 275.249 75.7296C276.128 73.2126 277.007 70.6956 277.886 68.1794C278.562 66.2421 279.239 64.3049 279.915 62.3669C280.253 61.4001 280.589 60.4341 280.928 59.4674C281.015 59.2169 281.103 58.9656 281.191 58.7144C281.318 58.3499 281.445 57.9846 281.573 57.6194C281.573 57.6186 281.573 57.6179 281.572 57.6171Z" fill="#FFCD00"/>
<path d="M384.595 495.544C384.595 495.544 385.362 489.966 390.298 489.966C395.107 489.966 395.93 495.544 395.93 495.544H384.595ZM401.508 496.287C400.837 490.381 397.341 484.256 389.759 484.256C389.759 484.256 379.554 484.252 378.738 498.089C378.722 498.363 378.738 498.642 378.749 498.915C378.779 499.632 378.852 500.347 378.959 501.057C379.11 502.046 379.332 503.025 379.636 503.978C379.986 505.08 380.449 506.151 381.045 507.144C381.69 508.221 382.495 509.204 383.453 510.019C384.529 510.936 385.785 511.623 387.126 512.069C387.963 512.346 388.847 512.557 389.724 512.643C390.929 512.761 392.144 512.595 393.314 512.306C395.196 511.841 396.939 510.933 398.394 509.649C398.999 509.115 399.589 508.515 400.035 507.839C400.035 507.839 400.98 506.411 400.455 504.984C400.122 504.081 399.446 503.255 398.427 503.165C397.265 503.061 396.603 503.956 395.88 504.699C395.88 504.699 394.089 506.934 390.579 506.934C388.395 506.934 386.767 505.918 385.715 504.252C385.02 503.154 384.602 501.717 384.524 500.424H385.407H387.673H390.748H394.057C395.226 500.424 396.393 500.418 397.562 500.424C397.953 500.426 398.347 500.419 398.737 500.44C399.126 500.463 399.529 500.466 399.906 500.359C400.377 500.227 400.888 499.842 401.148 499.437C401.746 498.504 401.628 497.349 401.508 496.287Z" fill="#FF7B00"/>
<path d="M401.453 489.932C401.539 490.186 401.631 490.439 401.722 490.69C401.722 490.996 402.003 491.458 402.109 491.749C402.246 492.12 402.381 492.49 402.517 492.861C402.788 493.604 403.06 494.347 403.331 495.09C403.861 496.539 404.396 497.985 404.938 499.429C405.549 501.056 406.167 502.679 406.792 504.3C407.11 505.125 407.431 505.951 407.753 506.775C407.911 507.179 408.07 507.583 408.229 507.987C408.31 508.19 408.389 508.392 408.469 508.595C408.508 508.696 408.746 509.11 408.709 509.202C408.236 510.397 407.724 511.584 407.054 512.684C406.22 514.053 405.069 515.257 403.834 516.272C403.566 516.492 402.664 517.189 402.371 517.371C401.744 517.761 401.093 518.028 400.596 518.595C400.107 519.154 399.837 519.855 399.837 520.601C399.837 521.211 399.979 521.822 400.312 522.338C400.588 522.765 400.96 523.123 401.407 523.363C401.872 523.614 402.47 523.537 402.958 523.38C403.423 523.23 403.851 522.984 404.267 522.727C406.091 521.6 407.787 520.239 409.22 518.641C409.362 518.483 409.498 518.322 409.63 518.157C409.786 517.966 409.939 517.773 410.077 517.571C410.077 517.571 412.38 514.572 413.744 511.057C415.107 507.541 416.773 502.967 416.773 502.967C417.933 499.893 419.078 496.815 420.25 493.746C420.669 492.653 421.087 491.559 421.504 490.465C421.946 489.309 422.394 488.047 422.035 486.864C421.55 485.263 419.345 484.173 418.052 485.553C417.568 486.07 417.307 486.751 417.058 487.414C415.93 490.414 414.805 493.414 413.685 496.417C413.205 497.704 412.725 498.99 412.246 500.278C412.149 500.538 411.527 501.653 411.631 501.927C411.043 500.381 410.455 498.835 409.867 497.29C408.781 494.434 407.688 491.582 406.618 488.722C406.357 488.026 406.094 487.332 405.816 486.644C405.571 486.038 405.135 485.495 404.558 485.175C403.699 484.699 402.536 484.921 401.849 485.604C401.212 486.237 400.984 487.194 401.044 488.091C401.085 488.721 401.251 489.331 401.453 489.932Z" fill="#FF7B00"/>
<path d="M293.99 487.428C293.951 487.786 293.954 488.15 293.958 488.509C293.967 489.546 293.967 490.581 293.967 491.617V494.146V496.944V499.834V502.637V505.174C293.967 505.927 293.968 506.68 293.97 507.433C293.97 508.126 293.926 508.834 294.009 509.524C294.099 510.266 294.351 510.998 294.855 511.564C295.287 512.049 295.879 512.335 296.524 512.389C296.614 512.398 296.704 512.401 296.794 512.401C297.641 512.401 298.377 511.995 298.859 511.306C299.268 510.724 299.481 510.036 299.575 509.335C299.674 508.596 299.647 507.85 299.64 507.107C299.634 506.489 299.635 505.87 299.636 505.252C299.637 504.643 299.637 504.034 299.637 503.425V502.158V499.848V497.759V496.125C299.637 495.373 299.616 494.639 299.786 493.901C300.009 492.922 300.456 491.929 301.213 491.248C301.917 490.613 302.833 490.312 303.771 490.271C303.851 490.267 303.933 490.266 304.014 490.266C304.954 490.266 305.883 490.537 306.6 491.162C307.224 491.707 307.623 492.446 307.894 493.219C308.277 494.307 308.275 495.483 308.272 496.623C308.272 498.893 308.267 501.163 308.267 503.433V508.536V509.324C308.267 509.324 308.514 512.401 311.054 512.401C313.594 512.401 313.817 509.572 313.817 509.572V495.988C313.817 495.988 313.878 490.26 318.603 490.26C322.988 490.247 322.594 495.865 322.594 495.865V509.645C322.594 509.645 322.954 512.401 325.372 512.401C327.789 512.401 328.125 509.698 328.125 509.698V494.612C328.125 494.612 327.809 484.258 319.883 484.258C314.124 484.258 312.162 488.86 312.106 488.85C312.087 488.846 312.061 488.773 312.054 488.758C312.009 488.675 311.965 488.592 311.919 488.509C311.85 488.383 311.777 488.257 311.701 488.134C311.604 487.975 311.502 487.819 311.394 487.664C311.268 487.482 311.134 487.304 310.995 487.131C310.837 486.936 310.671 486.747 310.499 486.566C310.309 486.368 310.11 486.178 309.902 486.001C309.678 485.809 309.444 485.631 309.201 485.466C308.942 485.291 308.671 485.133 308.391 484.994C307.555 484.579 306.633 484.337 305.7 484.284C305.461 484.27 305.219 484.256 304.979 484.258C304.385 484.263 303.808 484.377 303.254 484.59C302.934 484.713 302.625 484.868 302.329 485.043C302.038 485.217 301.761 485.412 301.499 485.624C301.192 485.872 300.903 486.142 300.633 486.43C300.318 486.766 300.027 487.125 299.757 487.498C299.723 487.547 299.688 487.597 299.653 487.646C299.653 487.646 299.322 484.454 296.856 484.454C295.86 484.454 295.042 485.003 294.542 485.843C294.358 486.152 294.198 486.499 294.099 486.845C294.046 487.037 294.012 487.231 293.99 487.428Z" fill="#FF7B00"/>
<path d="M341.714 506.704C338.256 506.704 335.452 503.006 335.452 498.445C335.452 493.884 338.256 490.188 341.714 490.188C345.172 490.188 347.976 493.884 347.976 498.445C347.976 503.006 345.172 506.704 341.714 506.704ZM341.714 484.219C335.237 484.219 329.986 490.579 329.986 498.426C329.986 506.272 335.237 512.633 341.714 512.633C348.19 512.633 353.441 506.272 353.441 498.426C353.441 490.579 348.19 484.219 341.714 484.219Z" fill="#FF7B00"/>
<path d="M360.847 487.711C360.847 487.134 360.71 486.562 360.428 486.059C360.022 485.334 359.264 484.501 357.923 484.502C357.107 484.502 356.411 484.921 355.948 485.579C355.76 485.845 355.612 486.137 355.493 486.44C355.319 486.886 355.255 487.318 355.256 487.798V487.851C355.256 488.894 355.261 489.938 355.261 490.982V493.051V495.365V497.817V500.298V502.7V504.916V506.838V508.356C355.261 508.963 355.205 509.56 355.374 510.154C355.736 511.414 356.765 512.416 358.119 512.416C360.498 512.416 360.797 509.752 360.797 509.752V496.921C360.797 496.228 360.887 495.541 361.073 494.875C361.568 493.099 362.779 490.196 366.213 490.196C367.346 490.196 368.44 490.563 369.28 491.335C369.977 491.975 370.456 492.82 370.779 493.7C371.393 495.371 371.331 497.118 371.317 498.865C371.312 499.381 371.306 499.897 371.306 500.414V504.198V507.631C371.306 508.518 371.17 509.425 371.471 510.28C371.886 511.458 372.92 512.416 374.213 512.416C375.146 512.416 375.918 511.919 376.374 511.117C376.847 510.287 376.883 509.432 376.885 508.492C376.889 506.562 376.877 504.631 376.877 502.699V497.188C376.877 495.037 376.646 492.936 375.929 490.89C375.425 489.451 374.72 488.059 373.717 486.901C372.613 485.629 371.151 484.728 369.491 484.405C368.964 484.303 368.427 484.256 367.891 484.256C363.526 484.256 361.298 487.222 360.931 487.737C360.914 487.76 360.847 487.74 360.847 487.711Z" fill="#FF7B00"/>
<path d="M313.461 548.484C313.427 548.235 313.453 547.954 313.453 547.711V546.787V545.565V544.085V542.391V540.525V538.532V536.454V534.335V532.216V530.142V528.155V526.297V524.613V523.146V521.937V521.031V520.471C313.453 520.001 313.65 519.527 313.977 519.188C314.312 518.843 314.775 518.682 315.25 518.665C315.281 518.664 315.311 518.664 315.341 518.664C315.826 518.664 316.301 518.816 316.652 519.159C317.063 519.561 317.264 520.106 317.263 520.674C317.261 521.195 317.261 521.717 317.261 522.237V523.53V525.087V526.862V528.807V530.874V533.019V535.192V537.349V539.441V541.422V543.244V544.86V546.225V547.29C317.261 547.711 317.31 548.169 317.211 548.574C316.996 549.456 316.259 550.031 315.357 550.031C314.506 550.031 313.73 549.47 313.494 548.641C313.479 548.591 313.469 548.538 313.461 548.484Z" fill="#808184"/>
<path d="M321.794 548.484C321.758 548.235 321.785 547.954 321.785 547.711V546.787V545.565V544.085V542.391V540.525V538.532V536.454V534.335V532.216V530.142V528.155V526.297V524.613V523.146V521.937V521.031V520.471C321.785 520.001 321.983 519.527 322.31 519.188C322.644 518.843 323.108 518.682 323.582 518.665C323.612 518.664 323.643 518.664 323.674 518.664C324.158 518.664 324.633 518.816 324.984 519.159C325.395 519.561 325.596 520.106 325.595 520.674C325.593 521.195 325.593 521.717 325.593 522.237V523.53V525.087V526.862V528.807V530.874V533.019V535.192V537.349V539.441V541.422V543.244V544.86V546.225V547.29C325.593 547.711 325.643 548.169 325.543 548.574C325.328 549.456 324.591 550.031 323.689 550.031C322.838 550.031 322.062 549.47 321.826 548.641C321.811 548.591 321.801 548.538 321.794 548.484Z" fill="#808184"/>
<path d="M282.854 543.344C282.809 543.156 282.764 542.967 282.719 542.778C282.629 542.4 282.539 542.023 282.45 541.645C282.272 540.891 282.095 540.136 281.919 539.38C281.519 537.654 281.108 535.894 280.703 534.156C280.298 532.42 279.944 530.661 279.47 528.942C279.443 528.838 279.413 528.735 279.382 528.632C279.25 528.192 279.066 527.765 278.714 527.453C278.194 526.99 277.333 526.922 276.644 527.019C276.146 527.088 275.636 527.252 275.291 527.618C274.934 527.997 274.808 528.533 274.694 529.042C273.599 533.988 272.504 538.934 271.409 543.879C270.229 539.138 269.049 534.395 267.869 529.653C267.63 528.697 267.311 527.631 266.441 527.169C265.66 526.752 264.599 527.079 264.118 527.801C263.438 528.824 263.757 530.094 264.069 531.186C265.667 536.775 267.265 542.363 268.862 547.952C269.041 548.576 269.246 549.241 269.758 549.641C270.176 549.968 270.731 550.057 271.261 550.081C271.892 550.11 272.579 550.038 273.041 549.609C273.456 549.224 273.602 548.638 273.727 548.086L276.947 533.946C276.956 533.904 277.011 533.907 277.022 533.948C278.078 538.098 279.045 542.27 280.03 546.438C280.167 547.016 280.302 547.596 280.437 548.174C280.545 548.632 280.662 549.109 280.973 549.463C281.388 549.936 282.063 550.085 282.692 550.099C283.19 550.11 283.708 550.047 284.135 549.791C284.794 549.394 285.117 548.615 285.29 547.866C285.797 545.679 286.458 543.528 287.067 541.363C288.03 537.943 289.123 534.552 290.004 531.11C290.087 530.79 290.167 530.468 290.244 530.145C290.328 529.791 290.408 529.424 290.428 529.061C290.454 528.546 290.356 528.041 289.967 527.592C289.601 527.169 289.05 526.946 288.493 526.983C286.972 527.085 286.624 528.821 286.358 530.004C285.317 534.645 284.132 539.341 282.986 543.888" fill="#808184"/>
<path d="M305.148 542.268C305.014 543.312 304.489 544.268 303.729 544.988C303.366 545.332 302.951 545.621 302.5 545.836C301.178 546.467 299.543 546.608 298.124 546.252C296.767 545.911 296.074 544.82 296.131 543.444C296.178 542.299 296.769 541.335 297.729 540.74C298.632 540.181 299.672 539.926 300.706 539.742C302.054 539.502 303.46 539.339 304.741 538.832C304.848 538.79 304.994 538.73 305.166 538.647C305.166 539.273 305.166 539.897 305.168 540.522C305.17 541.1 305.221 541.694 305.148 542.268ZM310.243 546.51C309.9 546.356 309.458 546.402 309.207 546.12C308.976 545.861 308.967 545.421 308.97 545.073C308.992 541.75 309.015 538.425 309.038 535.101C309.046 533.824 309.053 532.532 308.762 531.288C308.471 530.045 307.847 528.834 306.815 528.082C305.998 527.486 304.991 527.219 303.996 527.039C301.962 526.67 299.824 526.627 297.866 527.288C296.398 527.784 295.041 528.711 294.146 529.988C293.557 530.828 293.013 532.026 293.128 533.108C293.171 533.513 293.307 533.902 293.567 534.249C294.179 535.065 295.508 535.316 296.256 534.623C296.932 533.997 296.934 532.935 297.381 532.128C298.003 531.005 299.394 530.544 300.677 530.474C301.942 530.407 303.29 530.659 304.232 531.506C305.173 532.353 305.542 533.901 304.801 534.928C304.305 535.614 303.453 535.937 302.634 536.153C300.964 536.593 299.227 536.741 297.558 537.182C295.888 537.623 294.225 538.417 293.226 539.826C292.269 541.179 292.047 542.936 292.214 544.584C292.34 545.829 292.687 547.088 293.461 548.072C294.438 549.313 296.001 549.984 297.567 550.188C300.445 550.564 303.48 549.423 305.4 547.244C305.431 548.128 305.852 548.991 306.529 549.56C307.206 550.129 308.126 550.385 309.002 550.265C309.876 550.144 310.794 549.634 311.043 548.788C311.283 547.975 311.048 546.871 310.243 546.51Z" fill="#808184"/>
<path d="M351.091 527.292C351.091 527.157 351.091 527.023 351.091 526.888L351.088 525.882C351.088 525.45 351.087 525.018 351.086 524.586C351.085 524.161 351.084 523.737 351.083 523.311L351.081 522.371C351.081 522.152 351.087 521.951 351.154 521.742C351.2 521.599 351.261 521.461 351.337 521.332C351.55 520.974 351.883 520.707 352.278 520.577C352.516 520.498 352.766 520.467 353.016 520.467C353.482 520.467 353.943 520.608 354.277 520.944C354.838 521.51 354.868 522.33 354.851 523.078C354.839 523.616 354.846 524.154 354.846 524.691V526.733V527.304H356.219H356.83C357.083 527.304 357.331 527.283 357.574 527.376C358.283 527.648 358.728 528.276 358.776 529.029C358.78 529.085 358.782 529.14 358.782 529.195C358.782 529.853 358.508 530.466 357.947 530.829C357.856 530.888 357.76 530.934 357.661 530.98C357.453 531.077 357.255 531.094 357.027 531.094C356.305 531.092 355.583 531.092 354.862 531.092V544.713C354.862 544.713 354.914 546.326 356.677 546.326C358.441 546.326 359.362 546.201 359.362 548.136C359.362 548.675 359.215 549.164 358.795 549.523C358.342 549.909 357.73 550.046 357.157 550.03C356.467 550.012 355.802 550.056 355.117 549.943C354.494 549.841 353.896 549.604 353.348 549.295C352.414 548.769 351.654 547.965 351.309 546.937C351.15 546.464 351.08 545.964 351.08 545.464V531.159C350.738 531.159 350.394 531.168 350.052 531.168C349.718 531.169 349.378 531.201 349.05 531.115C348.528 530.979 348.027 530.541 347.804 530.052C347.687 529.794 347.635 529.511 347.635 529.228C347.635 528.55 347.94 527.931 348.513 527.56C348.795 527.379 349.078 527.314 349.414 527.303C349.968 527.283 350.537 527.293 351.091 527.292Z" fill="#808184"/>
<path d="M332.756 536.104C332.756 536.104 333.299 530.578 338.162 530.578C343.35 530.578 343.271 536.104 343.271 536.104H332.756ZM347.217 536.711C346.676 531.837 344.712 526.781 337.726 526.781C331.951 526.781 327.698 533.92 329.095 541.343C329.77 544.931 331.364 548.391 335.458 549.835C336.131 550.073 336.989 550.139 337.698 550.21C339.849 550.425 342.195 549.719 343.883 548.378C345.164 547.361 347.039 544.891 346.384 543.072C346.115 542.327 345.583 541.954 344.76 541.879C343.82 541.794 343.239 542.81 343.017 543.26C342.478 544.349 342.066 546.425 338.162 546.425C335.804 546.425 334.473 544.891 333.623 543.516C333.062 542.609 332.81 540.89 332.747 539.822H334.22H336.051H338.535H341.209C342.152 539.822 343.096 539.817 344.04 539.822C344.356 539.823 344.675 539.818 344.99 539.836C345.303 539.853 345.629 539.856 345.934 539.768C346.313 539.66 346.727 539.342 346.937 539.007C347.421 538.238 347.315 537.587 347.217 536.711Z" fill="#808184"/>
<path d="M205.32 478.313L197.226 478.345L197.242 485.016L193.418 485.047L193.402 492.31H197.257C197.257 492.31 197.242 502.148 197.257 502.612C197.273 503.077 197.386 505.987 200.457 508.851C204.008 512.354 208.247 512.29 208.247 512.29L214.326 512.274V505.363H209.303C205.912 505.363 205.32 501.268 205.32 501.268L205.336 492.342C205.336 492.342 207.88 492.327 210.823 492.31C213.766 492.295 214.326 489.063 214.326 489.063V485.032L205.32 485.047V478.313Z" fill="#FF0007"/>
<path d="M226.796 485.048C225.548 485.048 223.316 485.12 220.149 487.783C216.982 490.446 216.437 494.214 216.454 495.134C216.47 496.054 216.462 512.29 216.462 512.29L224.316 512.298C224.316 512.298 224.324 498.558 224.324 496.261C224.324 493.966 227.78 492.327 228.723 492.327C229.667 492.327 233.339 492.335 233.339 492.335L233.298 485.048H226.796Z" fill="#FF0007"/>
<path d="M260.005 485.048L251.774 485.072C251.774 485.072 251.799 500.213 251.799 501.557C251.799 502.9 250.526 505.588 247.431 505.588C244.336 505.588 243.329 502.252 243.329 501.532C243.329 500.813 243.353 491.262 243.353 488.527C243.353 485.792 240.641 485.024 239.993 485.024C239.345 485.024 235.29 485.072 235.29 485.072C235.29 485.072 235.266 500.525 235.266 501.916C235.266 503.308 235.458 505.996 238.073 508.946C240.689 511.898 243.857 512.69 247.623 512.642C251.391 512.594 253.67 511.946 256.718 509.522C259.765 507.099 260.053 502.324 260.029 500.908C260.005 499.493 260.005 485.048 260.005 485.048Z" fill="#FF0007"/>
<path d="M269.209 495.824C269.639 494.186 271.17 490.928 275.049 491.19C279.657 491.502 280.137 495.846 280.137 495.846L269.209 495.824ZM287.359 494.07C286.376 490.926 285.341 489.49 283.616 487.735C280.857 484.928 276.729 484.28 274.786 484.28C272.842 484.28 269.507 484.76 266.076 487.591C262.644 490.423 261.444 495.222 261.349 499.013C261.253 502.804 263.244 507.051 265.932 509.547C268.619 512.042 271.978 512.69 275.002 512.666C278.025 512.642 279.825 512.019 282.392 510.483C284.96 508.947 286.759 505.611 286.759 505.611C286.759 505.611 280.569 504.052 279.273 503.691C278.673 504.58 276.993 506.019 274.449 505.947C271.907 505.875 270.418 503.98 269.771 503.02C269.574 502.729 269.427 502.11 269.319 501.363C272.892 501.359 286.692 501.34 287.839 501.34C287.875 497.921 287.959 496.446 287.359 494.07Z" fill="#FF0007"/>
<path d="M179.492 485.428H147.887C145.824 485.428 143.987 486.733 143.307 488.682C141.802 493.006 140.105 497.876 138.354 502.902C138.3 503.058 138.245 503.214 138.191 503.37C138.154 503.476 138.116 503.584 138.079 503.692C132.616 519.373 126.698 536.35 124.448 542.782C124.187 543.582 123.888 544.496 123.526 545.434C123.462 545.6 123.15 546.394 122.579 547.177C122.48 547.312 122.384 547.432 122.286 547.545C122.121 547.743 121.911 547.975 121.602 548.217C121.585 548.23 121.568 548.242 121.55 548.256C121.443 548.338 121.324 548.423 121.187 548.506C120.85 548.713 120.564 548.819 120.453 548.857C120.437 548.863 120.422 548.868 120.406 548.873C120.404 548.874 120.4 548.875 120.398 548.876C120.388 548.88 120.378 548.882 120.368 548.885C120.361 548.888 120.353 548.89 120.347 548.893C119.941 549.028 119.569 549.084 119.265 549.101H157.254C157.499 549.101 157.745 549.073 157.982 549.013C158.906 548.776 160.881 547.918 161.713 544.868L181.447 488.179C181.915 486.833 180.917 485.428 179.492 485.428Z" fill="#FF7B00"/>
<path d="M85.9622 538.341C85.9705 538.318 85.9787 538.294 85.987 538.27C86.011 538.201 86.035 538.134 86.059 538.065C86.0987 537.953 86.1377 537.841 86.1767 537.73C86.23 537.577 86.2832 537.425 86.3372 537.274C86.404 537.082 86.4707 536.892 86.5375 536.701C86.617 536.476 86.6965 536.248 86.776 536.022C86.8675 535.762 86.959 535.501 87.0505 535.24C87.1525 534.949 87.2552 534.657 87.358 534.364C87.4705 534.043 87.583 533.722 87.6962 533.401C87.8185 533.053 87.94 532.705 88.0622 532.357C88.1935 531.983 88.324 531.61 88.4552 531.238C88.594 530.843 88.732 530.448 88.8707 530.053L89.308 528.807C89.4602 528.373 89.6125 527.941 89.764 527.508C89.9215 527.059 90.079 526.609 90.2365 526.162C90.3992 525.7 90.5605 525.238 90.7232 524.776C90.889 524.302 91.0547 523.83 91.2205 523.357C91.39 522.876 91.5587 522.394 91.7275 521.913C91.8992 521.425 92.0702 520.936 92.242 520.449C92.4145 519.956 92.587 519.465 92.7595 518.973C92.9327 518.479 93.106 517.984 93.2792 517.491C93.4525 516.997 93.6257 516.504 93.799 516.011L94.3157 514.539C94.486 514.053 94.6562 513.568 94.8272 513.082C94.9945 512.603 95.1632 512.125 95.3305 511.646C95.4947 511.177 95.6597 510.709 95.824 510.24L96.3055 508.869C96.4607 508.426 96.616 507.983 96.772 507.541C96.9212 507.115 97.0712 506.689 97.2205 506.263C97.3637 505.855 97.507 505.447 97.6495 505.039C97.7852 504.652 97.921 504.265 98.0567 503.879L98.4392 502.789C98.5577 502.451 98.6762 502.114 98.7947 501.776C98.9035 501.466 99.0122 501.156 99.121 500.846C99.2192 500.566 99.3175 500.287 99.4157 500.007C99.5027 499.759 99.589 499.513 99.676 499.264C99.751 499.052 99.8252 498.839 99.8995 498.627C99.9617 498.451 100.023 498.275 100.085 498.1C100.185 497.814 100.275 497.52 100.409 497.248L100.421 497.233L100.426 497.229L100.43 497.223L100.436 497.217C100.462 497.165 100.473 497.12 100.503 497.071C100.764 496.495 101.454 495.873 101.735 495.784L97.4567 481.402C96.922 479.572 95.1655 478.313 93.337 478.313H63.148C61.7275 478.313 60.7075 479.68 61.1125 481.042L78.1075 538.158C78.8087 540.185 80.3327 541.237 81.8897 541.315H81.8927C83.5127 541.385 85.165 540.397 85.9622 538.341Z" fill="#FF000F"/>
<path d="M101.731 495.788C101.731 495.788 101.734 495.786 101.735 495.784L101.721 495.794C101.724 495.792 101.728 495.79 101.731 495.788Z" fill="#AA0017"/>
<path d="M113.524 541.074L113.313 540.365C113.276 540.242 113.241 540.121 113.204 539.998L105.921 515.53L100.828 498.419C100.637 497.78 100.701 497.141 100.97 496.619C101.035 496.493 101.113 496.374 101.2 496.263C101.211 496.25 101.221 496.235 101.231 496.222C101.355 496.073 101.5 495.941 101.664 495.829C101.683 495.816 101.702 495.806 101.721 495.794L101.735 495.784C101.454 495.872 100.764 496.495 100.503 497.07C100.473 497.12 100.446 497.171 100.42 497.222C100.416 497.231 100.412 497.24 100.408 497.247C100.275 497.52 100.185 497.813 100.084 498.099C100.023 498.275 99.9613 498.451 99.899 498.626C99.8248 498.839 99.7505 499.052 99.6755 499.265C99.5885 499.512 99.5023 499.759 99.4153 500.006C99.317 500.286 99.2188 500.566 99.1205 500.846C99.0118 501.155 98.903 501.465 98.7943 501.776C98.6758 502.114 98.5573 502.451 98.4388 502.789L98.0563 503.879C97.9205 504.266 97.7848 504.652 97.649 505.039C97.5065 505.446 97.3633 505.854 97.22 506.262C97.0708 506.688 96.9208 507.115 96.7715 507.541C96.6155 507.983 96.4603 508.427 96.305 508.869L95.8235 510.24C95.6593 510.709 95.4943 511.178 95.33 511.646C95.1628 512.124 94.994 512.603 94.8268 513.082C94.6558 513.567 94.4855 514.053 94.3153 514.538L93.7985 516.011C93.6253 516.503 93.452 516.997 93.2788 517.491C93.1055 517.985 92.9323 518.479 92.759 518.972C92.5865 519.465 92.414 519.956 92.2415 520.448C92.0698 520.936 91.8988 521.425 91.727 521.912C91.5583 522.394 91.3895 522.875 91.22 523.357C91.0543 523.83 90.8885 524.303 90.7228 524.776C90.56 525.238 90.3988 525.699 90.236 526.161C90.0785 526.61 89.921 527.059 89.7635 527.507C89.612 527.94 89.4598 528.373 89.3075 528.807L88.8703 530.053C88.7315 530.447 88.5935 530.843 88.4548 531.238C88.3235 531.611 88.193 531.983 88.0618 532.356C87.9395 532.705 87.818 533.053 87.695 533.401C87.5825 533.722 87.47 534.043 87.3575 534.365C87.2548 534.656 87.152 534.948 87.05 535.241C86.9585 535.5 86.867 535.761 86.7755 536.022C86.696 536.248 86.6165 536.475 86.537 536.702C86.4703 536.892 86.4035 537.083 86.336 537.274C86.2828 537.425 86.2295 537.578 86.1763 537.73C86.1373 537.841 86.0983 537.953 86.0585 538.064C86.0345 538.133 86.0105 538.202 85.9865 538.271C85.9783 538.294 85.97 538.317 85.9618 538.34C85.1645 540.398 83.5123 541.385 81.8923 541.315H81.8893C81.8585 541.318 81.8293 541.32 81.8008 541.321H113.597C113.572 541.239 113.548 541.156 113.524 541.074Z" fill="#AA0017"/>
<path d="M138.354 502.902C138.082 501.919 137.812 500.938 137.552 499.952C137.338 499.142 137.086 498.359 136.648 497.638C136.221 496.931 135.639 496.321 134.914 495.917C134.713 495.804 134.5 495.707 134.282 495.631C133.939 495.51 133.357 495.421 132.993 495.421H103.063C102.541 495.421 102.093 495.559 101.731 495.788C101.728 495.79 101.724 495.792 101.721 495.793C101.702 495.805 101.683 495.817 101.665 495.829C101.5 495.942 101.355 496.074 101.231 496.222C101.221 496.235 101.212 496.25 101.2 496.263C101.113 496.375 101.035 496.492 100.97 496.618C100.701 497.141 100.637 497.78 100.828 498.418L105.921 515.53L113.204 539.998L113.569 541.223L114.952 546.043C115.042 546.3 115.776 548.29 117.793 548.919C118.785 549.229 119.656 549.075 120.101 548.962C120.168 548.945 120.251 548.923 120.346 548.893C120.354 548.89 120.361 548.888 120.368 548.886C120.38 548.882 120.393 548.878 120.406 548.873C120.421 548.868 120.436 548.863 120.453 548.857C120.564 548.819 120.85 548.713 121.186 548.507C121.324 548.423 121.443 548.338 121.549 548.256C121.768 548.086 121.929 547.924 122.05 547.803C122.129 547.722 122.208 547.636 122.286 547.545C122.383 547.432 122.48 547.312 122.578 547.177C123.151 546.394 123.462 545.601 123.526 545.434C123.888 544.496 124.187 543.582 124.448 542.782C124.591 542.342 124.723 541.936 124.848 541.579L125.79 538.884C126.184 537.754 126.579 536.623 126.973 535.494L128.337 531.589C128.83 530.176 129.323 528.763 129.817 527.35L131.352 522.955C131.86 521.497 132.37 520.041 132.878 518.584C133.363 517.195 133.849 515.805 134.334 514.417C134.774 513.154 135.214 511.893 135.655 510.631C136.03 509.557 136.405 508.483 136.78 507.409C137.069 506.582 137.358 505.756 137.647 504.928L138.079 503.692C138.116 503.584 138.154 503.477 138.191 503.37C138.245 503.214 138.3 503.058 138.354 502.902Z" fill="#FFCD00"/>
</svg>
