<svg width="180" height="180" viewBox="0 0 180 180" fill="none" xmlns="http://www.w3.org/2000/svg">
<rect width="180" height="180" rx="15" fill="white"/>
<path d="M157.595 58.0414H120.888C118.491 58.0414 116.357 59.5164 115.568 61.7182C113.819 66.6039 111.848 72.1089 109.815 77.7882L109.815 77.7893C109.752 77.9655 109.689 78.1413 109.626 78.3174C109.583 78.4386 109.539 78.5598 109.495 78.6806C103.15 96.4033 96.2778 115.59 93.6645 122.858C93.3615 123.763 93.0139 124.795 92.5939 125.856C92.5191 126.044 92.1574 126.94 91.4931 127.825C91.379 127.977 91.2664 128.113 91.1537 128.241C90.9615 128.464 90.7173 128.728 90.3586 129C90.3385 129.015 90.3184 129.028 90.298 129.044C90.1738 129.137 90.0355 129.233 89.8764 129.328C89.485 129.561 89.153 129.68 89.0244 129.724C89.0055 129.731 88.988 129.736 88.9694 129.742C88.9668 129.743 88.9627 129.744 88.9601 129.745C88.9486 129.749 88.9374 129.752 88.9259 129.756C88.9174 129.759 88.9088 129.762 88.9006 129.764C88.4296 129.917 87.9969 129.98 87.6445 130H131.766C132.052 130 132.336 129.969 132.612 129.899C133.685 129.631 135.979 128.663 136.945 125.216L159.864 61.1489C160.408 59.6293 159.248 58.0414 157.595 58.0414Z" fill="#FF7B00"/>
<path d="M48.9656 117.838C48.9753 117.812 48.985 117.786 48.9943 117.759L49.0783 117.527C49.1236 117.4 49.1693 117.274 49.2147 117.148C49.2768 116.976 49.3389 116.804 49.4006 116.632C49.4783 116.417 49.556 116.202 49.6336 115.986C49.7262 115.73 49.8184 115.474 49.911 115.218C50.0173 114.923 50.1232 114.629 50.2292 114.335C50.3485 114.005 50.4675 113.675 50.5864 113.345L50.9793 112.256C51.121 111.863 51.263 111.469 51.405 111.076C51.557 110.654 51.7087 110.233 51.8607 109.812C52.0221 109.365 52.183 108.919 52.344 108.472C52.5131 108.003 52.6826 107.533 52.8518 107.064C53.0284 106.574 53.2049 106.085 53.3815 105.595C53.5644 105.088 53.7473 104.582 53.9298 104.074C54.1183 103.552 54.3068 103.03 54.4949 102.509C54.6878 101.974 54.8804 101.44 55.0733 100.905C55.2696 100.361 55.4655 99.817 55.6621 99.2726C55.861 98.7213 56.0595 98.1697 56.2588 97.6185C56.4591 97.0621 56.6599 96.5062 56.8602 95.9502C57.0617 95.3921 57.2628 94.834 57.4643 94.2755L58.0676 92.6029L58.6676 90.939C58.8658 90.3903 59.0635 89.8415 59.2617 89.2924C59.4564 88.7517 59.6516 88.2113 59.8468 87.6705C60.0375 87.1406 60.2285 86.611 60.4196 86.0811C60.6059 85.5646 60.7921 85.0484 60.9783 84.5319C61.159 84.0316 61.3397 83.5314 61.52 83.0307C61.6936 82.5489 61.8675 82.0671 62.0411 81.5853C62.2073 81.1245 62.3735 80.664 62.5396 80.2036C62.6973 79.7666 62.8549 79.3297 63.0125 78.8927L63.4567 77.6607C63.5946 77.2791 63.7322 76.8971 63.8697 76.5155L64.2489 75.4647C64.3626 75.1486 64.4771 74.8324 64.5909 74.5163C64.6916 74.2367 64.7927 73.9574 64.8935 73.6778C64.9801 73.4373 65.0667 73.1971 65.1533 72.9565C65.2251 72.7583 65.2968 72.5597 65.3682 72.3612C65.4849 72.0374 65.589 71.7064 65.7444 71.3979L65.7581 71.382L65.7641 71.3769L65.7686 71.3701L65.7767 71.3632C65.8065 71.3049 65.8191 71.2543 65.8537 71.1979C66.157 70.5471 66.9585 69.8447 67.2849 69.7449L62.3155 53.4911C61.6951 51.4221 59.655 49.9998 57.5305 49.9998H22.4685C20.8184 49.9998 19.6337 51.5454 20.1039 53.0841L39.8424 117.632C40.6573 119.923 42.4268 121.113 44.236 121.2C44.2368 121.2 44.2379 121.2 44.239 121.2C46.1207 121.278 48.0396 120.163 48.9656 117.838Z" fill="#FF000F"/>
<path d="M67.2796 69.7487C67.2807 69.7476 67.283 69.7458 67.2845 69.7447L67.2676 69.7549C67.2717 69.7527 67.2758 69.7509 67.2796 69.7487Z" fill="#AA0017"/>
<path d="M80.9765 120.928C80.8951 120.66 80.8133 120.393 80.7319 120.125C80.6899 119.988 80.6479 119.85 80.6055 119.712L72.1466 92.0602L66.2308 72.7217C66.0103 72.0001 66.0839 71.2784 66.3969 70.687C66.472 70.5449 66.5624 70.4114 66.6646 70.2862C66.6768 70.2711 66.6873 70.2544 66.6999 70.2396C66.8438 70.0717 67.0122 69.9224 67.2029 69.795C67.224 69.7813 67.2467 69.7686 67.2683 69.7549L67.2846 69.7451C66.9586 69.8449 66.1568 70.5474 65.8534 71.1981C65.8193 71.2546 65.788 71.3124 65.7579 71.3703C65.7531 71.3797 65.7486 71.3888 65.7442 71.3982C65.5888 71.7067 65.4847 72.0377 65.368 72.3614C65.2966 72.56 65.2248 72.7586 65.1535 72.9568C65.0665 73.1973 64.9799 73.4375 64.8933 73.6781C64.7925 73.9577 64.6914 74.2369 64.5907 74.5165C64.4769 74.8327 64.3628 75.1488 64.2487 75.465L63.8695 76.5157C63.7319 76.8974 63.5944 77.2793 63.4569 77.6609L63.0123 78.8929C62.8546 79.3299 62.697 79.7669 62.5394 80.2038C62.3736 80.6643 62.2071 81.1247 62.0409 81.5856C61.8673 82.0674 61.6933 82.5492 61.5197 83.031C61.3394 83.5316 61.1588 84.0319 60.9785 84.5321C60.7922 85.0487 60.606 85.5648 60.4198 86.0814C60.2287 86.6113 60.0372 87.1408 59.8465 87.6707C59.6514 88.2115 59.4562 88.7519 59.2614 89.2927C59.0633 89.8418 58.8655 90.3905 58.6674 90.9392L58.0674 92.6031L57.4641 94.2757C57.2626 94.8342 57.0615 95.3923 56.86 95.9505C56.6596 96.5064 56.4589 97.0624 56.2585 97.6187C56.0596 98.17 55.8608 98.7216 55.6619 99.2728C55.4656 99.8172 55.2693 100.361 55.0731 100.906C54.8801 101.44 54.6876 101.974 54.4946 102.509C54.3065 103.031 54.1184 103.553 53.93 104.075C53.7471 104.582 53.5642 105.089 53.3813 105.596C53.2047 106.085 53.0281 106.574 52.8516 107.064C52.6824 107.533 52.5133 108.003 52.3441 108.472C52.1828 108.919 52.0218 109.365 51.8605 109.812C51.7088 110.233 51.5568 110.655 51.4047 111.076C51.2627 111.469 51.1211 111.863 50.9791 112.256L50.5866 113.345C50.4672 113.675 50.3483 114.005 50.2293 114.335C50.123 114.629 50.017 114.924 49.9107 115.218C49.8185 115.474 49.726 115.73 49.6338 115.986C49.5561 116.202 49.4784 116.417 49.4007 116.633C49.3386 116.805 49.2765 116.977 49.2145 117.149C49.1691 117.274 49.1234 117.401 49.078 117.527L48.994 117.76C48.9847 117.786 48.9751 117.812 48.9654 117.839C48.0394 120.163 46.1205 121.279 44.2388 121.201C44.2376 121.201 44.2365 121.201 44.2358 121.201C44.2001 121.204 44.1659 121.206 44.1328 121.207H81.0616C81.0334 121.114 81.0051 121.021 80.9765 120.928Z" fill="#AA0017"/>
<path d="M109.815 77.7883C109.499 76.6789 109.186 75.5684 108.884 74.4554C108.635 73.5392 108.343 72.6555 107.835 71.8391C107.338 71.0408 106.662 70.351 105.82 69.8942C105.586 69.7665 105.34 69.658 105.086 69.5708C104.688 69.4337 104.012 69.3346 103.589 69.3346H68.8263C68.22 69.3346 67.7004 69.4898 67.2799 69.7488C67.2762 69.7513 67.2721 69.7527 67.268 69.7553C67.2465 69.7687 67.2238 69.7813 67.203 69.7951C67.0119 69.9224 66.8439 70.0718 66.7 70.2396C66.687 70.2544 66.677 70.2711 66.6643 70.2863C66.5621 70.4114 66.4718 70.5453 66.3967 70.6874C66.0837 71.2785 66.0101 72.0005 66.2305 72.7217L72.1463 92.0602L80.6056 119.712L81.0286 121.096L82.636 126.544C82.7401 126.834 83.5918 129.082 85.9359 129.794C87.0872 130.143 88.0995 129.97 88.6158 129.842C88.6935 129.823 88.7902 129.798 88.9006 129.764C88.9087 129.762 88.9177 129.759 88.9258 129.756C88.94 129.752 88.9548 129.747 88.9693 129.742C88.9879 129.736 89.0054 129.731 89.0243 129.724C89.153 129.68 89.4853 129.561 89.8767 129.328C90.0355 129.234 90.1741 129.137 90.2983 129.044C90.5514 128.852 90.7392 128.67 90.8786 128.532C90.9715 128.44 91.0626 128.343 91.1537 128.241C91.2667 128.113 91.3789 127.977 91.4931 127.825C92.1574 126.94 92.5194 126.044 92.5938 125.856C93.0142 124.795 93.3614 123.763 93.6647 122.858C93.8313 122.361 93.9844 121.902 94.1291 121.499L95.2223 118.452C95.6811 117.175 96.139 115.898 96.5974 114.621C97.1253 113.151 97.6531 111.68 98.181 110.209C98.7538 108.612 99.3271 107.015 99.9003 105.418C100.495 103.762 101.089 102.106 101.683 100.451L103.456 95.511L105.146 90.8011C105.657 89.3752 106.169 87.9493 106.681 86.5238C107.116 85.3099 107.552 84.0959 107.988 82.8824C108.323 81.948 108.658 81.0137 108.994 80.0791C109.161 79.6128 109.328 79.1469 109.496 78.6807C109.539 78.5598 109.583 78.4387 109.626 78.3175C109.689 78.1417 109.752 77.9655 109.815 77.7894C109.815 77.789 109.815 77.7887 109.815 77.7883Z" fill="#FFCD00"/>
</svg>
