<svg width="180" height="180" viewBox="0 0 180 180" fill="none" xmlns="http://www.w3.org/2000/svg">
<rect width="180" height="180" rx="15" fill="white"/>
<path fill-rule="evenodd" clip-rule="evenodd" d="M94.8093 36.709L103.23 44.8913H50.4199C50.4199 44.8913 45.9808 45.3494 45.2896 48.6258C44.6012 51.9022 45.2896 53.2764 45.2896 53.2764L36.8721 60.9758V45.3494C36.8721 45.3494 39.4017 36.709 48.3491 36.709H94.8093ZM56.2904 48.1285L68.0507 47.9851L30.7097 85.1833C30.7097 85.1833 27.8959 88.6347 29.7334 91.4367C31.5718 94.2397 33.033 94.7265 33.033 94.7265L32.5472 106.099L21.4551 95.0497C21.4551 95.0497 17.1101 87.159 23.4366 80.8559L56.2904 48.1285ZM36.7732 83.6618L44.9881 75.2757V127.883C44.9881 127.883 45.446 132.303 48.737 132.992C52.027 133.679 53.4056 132.992 53.4056 132.992L61.1347 141.378H45.446C45.446 141.378 36.7732 138.857 36.7732 129.943V83.6618ZM49.9034 123.139L49.7575 111.425L87.1004 148.621C87.1004 148.621 90.5632 151.426 93.3789 149.594C96.1908 147.764 96.6795 146.307 96.6795 146.307L108.096 146.793L97.0039 157.842C97.0039 157.842 89.0819 162.168 82.7553 155.866L49.9034 123.139ZM142.777 94.5228L134.564 102.911V50.3022C134.564 50.3022 134.104 45.8802 130.815 45.1935C127.526 44.5059 126.144 45.1935 126.144 45.1935L118.418 36.8075H134.104C134.104 36.8075 142.777 39.3265 142.777 48.2413V94.5228ZM129.649 56.1511L129.792 67.8671L92.4515 30.6679C92.4515 30.6679 88.9878 27.8649 86.173 29.6963C83.3582 31.5276 82.8724 32.9841 82.8724 32.9841L71.454 32.4983L82.547 21.4489C82.547 21.4489 90.4681 17.1215 96.7956 23.4237L129.649 56.1511ZM123.71 129.141L111.95 129.285L149.29 92.086C149.29 92.086 152.106 88.6356 150.268 85.8326C148.428 83.0296 146.966 82.5438 146.966 82.5438L147.453 71.1712L158.546 82.2196C158.546 82.2196 162.889 90.1122 156.563 96.4144L123.71 129.141ZM84.6773 141.464L76.2579 133.284H129.068C129.068 133.284 133.509 132.825 134.197 129.547C134.886 126.271 134.197 124.898 134.197 124.898L142.616 117.198V132.825C142.616 132.825 140.087 141.464 131.139 141.464H84.6773ZM108.912 62.8626H119.455V115.929H62.857V106.53H108.912V62.8626ZM105.307 62.8626V102.108H62.857V92.1587H95.0407V62.8626H105.307ZM90.879 62.8626V87.7367H62.857V78.3408H80.89V62.8626H90.879ZM62.857 62.4715H64.3488L64.2836 63.7252C64.2836 63.7252 64.945 62.4132 65.4308 62.4084H75.63L75.632 63.4775L65.7486 63.4728C65.7486 63.4728 64.5648 65.9315 64.4746 68.7182C64.3488 72.6965 65.4941 73.9637 65.4941 73.9637H75.7577L75.6934 75.2308H65.3655C65.3655 75.2308 64.8567 75.1046 64.4746 74.0909V75.0414H62.857V62.4715ZM66.1249 73.2282V65.2573C66.1249 65.2573 66.4177 64.4176 67.1569 64.4176H75.6665V65.6933H67.3268V67.2388H75.6665V68.503H67.3268V73.2282H66.1249ZM68.3732 68.8397H69.485V70.9551H74.4646V68.8062H75.632V73.2627H74.43V71.9965H69.4187V73.2627H68.3732V68.8397ZM80.2487 81.7415H88.6018C88.6018 81.7415 88.3916 82.7351 87.4229 82.8317C86.4533 82.9283 85.6104 81.9624 84.1253 82.5419C82.6449 83.1224 82.2561 84.1361 82.2561 84.1361C82.2561 84.1361 81.2865 83.3146 80.8996 82.8317C80.5117 82.3497 80.2487 81.7415 80.2487 81.7415ZM83.1777 79.2311C83.1777 79.2311 83.1489 78.0443 83.6145 76.4989C84.0782 74.9535 85.1448 73.9876 85.1448 73.9876C85.1448 73.9876 85.0949 74.9047 85.2418 75.4852C85.3877 76.0647 86.0184 76.8652 86.0184 76.8652C86.0184 76.8652 86.3554 75.7262 86.8421 75.051C87.3269 74.3739 87.8597 73.891 87.8597 73.891C87.8597 73.891 87.4229 76.1403 87.6169 77.1071C87.8117 78.072 88.1967 79.2789 88.1967 79.2789L83.1777 79.2311ZM83.1777 84.6669C83.1777 84.6669 83.4485 83.459 84.66 83.459C85.8735 83.459 86.0664 83.9429 87.0831 83.7488C88.1017 83.5566 88.7602 83.2668 88.7602 83.2668C88.7602 83.2668 88.0518 84.3283 86.8882 84.4727C85.7266 84.6191 85.3675 83.8942 84.4181 84.0873C83.4686 84.2815 83.1777 84.6669 83.1777 84.6669ZM83.9045 85.5639C83.9045 85.5639 84.1752 84.86 85.1938 84.86C86.2114 84.86 86.3084 85.2942 86.9381 85.2454C87.5679 85.1986 88.1017 84.86 88.1017 84.86C88.1017 84.86 87.5199 85.7571 86.7432 85.8058C85.9685 85.8537 85.3877 85.342 84.8549 85.3908C84.3201 85.4396 83.9045 85.5639 83.9045 85.5639ZM72.9842 81.1734H77.3533V85.3879H72.9842V81.1734ZM72.9842 94.9923H77.3533V99.2078H72.9842V94.9923ZM79.9204 94.9923H84.2904V99.2078H79.9204V94.9923ZM98.1051 82.7064H101.781L103.384 100.165H96.4164L98.1051 82.7064ZM100.015 81.8687C101.391 81.8687 103.078 80.7957 103.155 78.2843C103.216 76.2856 100.625 74.0975 100.243 72.949C99.8619 71.7995 99.7861 71.1903 99.7861 71.1903C99.7861 71.1903 99.0373 72.2882 98.7166 73.4061C98.4094 74.4705 95.8817 76.4492 96.3396 78.817C96.6689 80.503 97.8756 81.8687 100.015 81.8687ZM98.7377 113.899C98.7377 113.899 101.151 110.77 104.786 110.77C108.421 110.77 111.189 113.777 111.189 113.777L98.7377 113.899ZM105.9 107.029C105.9 107.029 104.662 107.196 104.662 108.245C104.662 109.291 105.837 109.6 105.837 109.6C105.837 109.6 105.157 109.029 105.279 108.182C105.406 107.337 105.9 107.029 105.9 107.029ZM72.7836 112.234H78.8941V108.86H85.0488V110.033H80.794V112.297H84.8626V113.652H72.7836V112.234ZM112.382 95.7526H115.711V113.855H112.382V95.7526ZM112.382 82.5849H115.711V90.4957H112.382V82.5849ZM111.27 78.2021H116.82V81.3809H111.27V78.2021ZM111.27 91.3305H116.82V94.5075H111.27V91.3305ZM112.66 77.373V74.6082C112.66 74.6082 112.796 73.0896 114.323 73.0896C115.849 73.0896 115.71 74.4705 115.71 74.4705V77.373H112.66ZM114.64 69.1648C114.64 69.1648 113.402 69.3322 113.402 70.3803C113.402 71.4284 114.577 71.7373 114.577 71.7373C114.577 71.7373 113.896 71.1645 114.022 70.3191C114.144 69.4727 114.64 69.1648 114.64 69.1648Z" fill="#00934C"/>
</svg>
