<svg width="500" height="350" viewBox="0 0 500 350" fill="none" xmlns="http://www.w3.org/2000/svg">
<rect width="500" height="350" rx="15" fill="white"/>
<path fill-rule="evenodd" clip-rule="evenodd" d="M254.809 56.709L263.23 64.8913H210.42C210.42 64.8913 205.981 65.3494 205.29 68.6258C204.601 71.9022 205.29 73.2764 205.29 73.2764L196.872 80.9758V65.3494C196.872 65.3494 199.402 56.709 208.349 56.709H254.809ZM216.29 68.1285L228.051 67.9851L190.71 105.183C190.71 105.183 187.896 108.635 189.733 111.437C191.572 114.24 193.033 114.726 193.033 114.726L192.547 126.099L181.455 115.05C181.455 115.05 177.11 107.159 183.437 100.856L216.29 68.1285ZM196.773 103.662L204.988 95.2757V147.883C204.988 147.883 205.446 152.303 208.737 152.992C212.027 153.679 213.406 152.992 213.406 152.992L221.135 161.378H205.446C205.446 161.378 196.773 158.857 196.773 149.943V103.662ZM209.903 143.139L209.757 131.425L247.1 168.621C247.1 168.621 250.563 171.426 253.379 169.594C256.191 167.764 256.679 166.307 256.679 166.307L268.096 166.793L257.004 177.842C257.004 177.842 249.082 182.168 242.755 175.866L209.903 143.139ZM302.777 114.523L294.564 122.911V70.3022C294.564 70.3022 294.104 65.8802 290.815 65.1935C287.526 64.5059 286.144 65.1935 286.144 65.1935L278.418 56.8075H294.104C294.104 56.8075 302.777 59.3265 302.777 68.2413V114.523ZM289.649 76.1511L289.792 87.8671L252.452 50.6679C252.452 50.6679 248.988 47.8649 246.173 49.6963C243.358 51.5276 242.872 52.9841 242.872 52.9841L231.454 52.4983L242.547 41.4489C242.547 41.4489 250.468 37.1215 256.796 43.4237L289.649 76.1511ZM283.71 149.141L271.95 149.285L309.29 112.086C309.29 112.086 312.106 108.636 310.268 105.833C308.428 103.03 306.966 102.544 306.966 102.544L307.453 91.1712L318.546 102.22C318.546 102.22 322.889 110.112 316.563 116.414L283.71 149.141ZM244.677 161.464L236.258 153.284H289.068C289.068 153.284 293.509 152.825 294.197 149.547C294.886 146.271 294.197 144.898 294.197 144.898L302.616 137.198V152.825C302.616 152.825 300.087 161.464 291.139 161.464H244.677ZM268.912 82.8626H279.455V135.929H222.857V126.53H268.912V82.8626ZM265.307 82.8626V122.108H222.857V112.159H255.041V82.8626H265.307ZM250.879 82.8626V107.737H222.857V98.3408H240.89V82.8626H250.879ZM222.857 82.4715H224.349L224.284 83.7252C224.284 83.7252 224.945 82.4132 225.431 82.4084H235.63L235.632 83.4775L225.749 83.4728C225.749 83.4728 224.565 85.9315 224.475 88.7182C224.349 92.6965 225.494 93.9637 225.494 93.9637H235.758L235.693 95.2308H225.366C225.366 95.2308 224.857 95.1046 224.475 94.0909V95.0414H222.857V82.4715ZM226.125 93.2282V85.2573C226.125 85.2573 226.418 84.4176 227.157 84.4176H235.667V85.6933H227.327V87.2388H235.667V88.503H227.327V93.2282H226.125ZM228.373 88.8397H229.485V90.9551H234.465V88.8062H235.632V93.2627H234.43V91.9965H229.419V93.2627H228.373V88.8397ZM240.249 101.741H248.602C248.602 101.741 248.392 102.735 247.423 102.832C246.453 102.928 245.61 101.962 244.125 102.542C242.645 103.122 242.256 104.136 242.256 104.136C242.256 104.136 241.286 103.315 240.9 102.832C240.512 102.35 240.249 101.741 240.249 101.741ZM243.178 99.2311C243.178 99.2311 243.149 98.0443 243.615 96.4989C244.078 94.9535 245.145 93.9876 245.145 93.9876C245.145 93.9876 245.095 94.9047 245.242 95.4852C245.388 96.0647 246.018 96.8652 246.018 96.8652C246.018 96.8652 246.355 95.7262 246.842 95.051C247.327 94.3739 247.86 93.891 247.86 93.891C247.86 93.891 247.423 96.1403 247.617 97.1071C247.812 98.072 248.197 99.2789 248.197 99.2789L243.178 99.2311ZM243.178 104.667C243.178 104.667 243.448 103.459 244.66 103.459C245.873 103.459 246.066 103.943 247.083 103.749C248.102 103.557 248.76 103.267 248.76 103.267C248.76 103.267 248.052 104.328 246.888 104.473C245.727 104.619 245.368 103.894 244.418 104.087C243.469 104.281 243.178 104.667 243.178 104.667ZM243.904 105.564C243.904 105.564 244.175 104.86 245.194 104.86C246.211 104.86 246.308 105.294 246.938 105.245C247.568 105.199 248.102 104.86 248.102 104.86C248.102 104.86 247.52 105.757 246.743 105.806C245.969 105.854 245.388 105.342 244.855 105.391C244.32 105.44 243.904 105.564 243.904 105.564ZM232.984 101.173H237.353V105.388H232.984V101.173ZM232.984 114.992H237.353V119.208H232.984V114.992ZM239.92 114.992H244.29V119.208H239.92V114.992ZM258.105 102.706H261.781L263.384 120.165H256.416L258.105 102.706ZM260.015 101.869C261.391 101.869 263.078 100.796 263.155 98.2843C263.216 96.2856 260.625 94.0975 260.243 92.949C259.862 91.7995 259.786 91.1903 259.786 91.1903C259.786 91.1903 259.037 92.2882 258.717 93.4061C258.409 94.4705 255.882 96.4492 256.34 98.817C256.669 100.503 257.876 101.869 260.015 101.869ZM258.738 133.899C258.738 133.899 261.151 130.77 264.786 130.77C268.421 130.77 271.189 133.777 271.189 133.777L258.738 133.899ZM265.9 127.029C265.9 127.029 264.662 127.196 264.662 128.245C264.662 129.291 265.837 129.6 265.837 129.6C265.837 129.6 265.157 129.029 265.279 128.182C265.406 127.337 265.9 127.029 265.9 127.029ZM232.784 132.234H238.894V128.86H245.049V130.033H240.794V132.297H244.863V133.652H232.784V132.234ZM272.382 115.753H275.711V133.855H272.382V115.753ZM272.382 102.585H275.711V110.496H272.382V102.585ZM271.27 98.2021H276.82V101.381H271.27V98.2021ZM271.27 111.331H276.82V114.507H271.27V111.331ZM272.66 97.373V94.6082C272.66 94.6082 272.796 93.0896 274.323 93.0896C275.849 93.0896 275.71 94.4705 275.71 94.4705V97.373H272.66ZM274.64 89.1648C274.64 89.1648 273.402 89.3322 273.402 90.3803C273.402 91.4284 274.577 91.7373 274.577 91.7373C274.577 91.7373 273.896 91.1645 274.022 90.3191C274.144 89.4727 274.64 89.1648 274.64 89.1648Z" fill="#00934C"/>
<path fill-rule="evenodd" clip-rule="evenodd" d="M127.605 303.148C128.027 302.433 128.238 301.341 128.238 299.877V296.706C127.88 297.064 127.483 297.284 126.947 297.364C126.409 297.447 125.818 297.633 125.168 297.924C124.486 298.252 124.013 298.681 123.754 299.22C123.494 299.755 123.365 300.463 123.365 301.341C123.365 302.223 123.559 302.92 123.949 303.441C124.339 303.96 124.858 304.222 125.509 304.222C126.483 304.222 127.182 303.863 127.605 303.148ZM128.435 308.042L128.238 306.474C127.651 307.648 126.879 308.531 125.821 309.118C124.76 309.705 123.549 310 122.181 310C120.847 310 119.715 309.831 118.787 309.487C117.859 309.145 117.101 308.633 116.516 307.95C115.93 307.266 115.507 306.452 115.246 305.508C114.985 304.563 114.854 303.522 114.854 302.382C114.854 301.144 114.977 300.072 115.221 299.158C115.465 298.247 115.865 297.456 116.418 296.789C116.972 296.123 117.719 295.552 118.664 295.081C119.609 294.609 120.782 294.209 122.181 293.884L125.649 293.052C126.593 292.825 127.26 292.492 127.651 292.053C128.043 291.612 128.238 290.986 128.238 290.172C128.238 288.544 127.493 287.73 126.001 287.73C125.158 287.73 124.54 287.961 124.153 288.428C123.763 288.893 123.551 289.817 123.52 291.197H115.862C115.862 289.283 116.204 287.748 116.891 286.595C117.577 285.443 118.428 284.552 119.442 283.917C120.456 283.284 121.551 282.863 122.729 282.652C123.907 282.44 125.003 282.336 126.017 282.336C127.554 282.336 128.969 282.458 130.26 282.702C131.551 282.947 132.664 283.386 133.596 284.023C134.529 284.657 135.247 285.52 135.756 286.612C136.262 287.705 136.515 289.113 136.515 290.838V303.743C136.515 304.981 136.564 306.073 136.661 307.017C136.76 307.963 136.988 308.776 137.348 309.46H128.78C128.615 309.005 128.5 308.531 128.435 308.042ZM36.0086 274.551V287.95L42.8732 274.551H52.5853L43.7563 289.805L53.6644 309.46H43.2673L37.9207 297.288L36.0086 300.218V309.46H26.8791V274.551H36.0086ZM62.9653 283.027V300.476C62.9653 301.583 63.1283 302.382 63.4575 302.871C63.7856 303.36 64.3417 303.605 65.1311 303.605C65.9183 303.605 66.4754 303.36 66.8046 302.871C67.1316 302.382 67.2978 301.583 67.2978 300.476V283.027H76.1162V309.46H67.6068L67.5908 306.237C66.4136 308.747 64.266 310 61.0841 310C60.0998 310 59.1889 309.911 58.3516 309.732C57.5165 309.552 56.7867 309.194 56.1636 308.655C55.5393 308.119 55.0482 307.386 54.6871 306.457C54.326 305.528 54.1459 304.364 54.1459 302.964V283.027H62.9653ZM86.4014 283.027L88.6097 302.034L91.307 283.027H100.723L103.323 302.034L105.629 283.027H114.161L108.768 309.46H98.7618L96.0656 290.747L93.2692 309.46H83.2631L77.8675 283.027H86.4014ZM154.353 283.027V275.245H163.173V283.027H166.655V288.962H163.173V301.555C163.173 302.302 163.343 302.834 163.687 303.142C164.03 303.449 164.561 303.605 165.282 303.605H166.655V309.46C165.838 309.46 165.02 309.485 164.202 309.537C163.385 309.588 162.601 309.616 161.85 309.616C160.51 309.616 159.366 309.556 158.419 309.443C157.472 309.331 156.698 309.047 156.092 308.591C155.489 308.136 155.047 307.46 154.769 306.563C154.492 305.668 154.353 304.489 154.353 303.024V288.962H151.409V283.027H154.353ZM202.448 274.551V281.949H190.825V287.959H201.713V295.128H190.825V309.46H181.696V274.551H202.448ZM226.076 283.027V286.245C227.286 283.638 229.434 282.336 232.583 282.336C233.566 282.336 234.479 282.44 235.315 282.652C236.151 282.865 236.88 283.247 237.504 283.802C238.126 284.356 238.619 285.089 238.98 286C239.34 286.914 239.522 288.087 239.522 289.518V309.46H230.701V292.013C230.701 290.906 230.537 290.108 230.208 289.619C229.88 289.13 229.323 288.886 228.537 288.886C227.747 288.886 227.19 289.13 226.861 289.619C226.533 290.108 226.37 290.906 226.37 292.013V309.46H217.552V283.027H226.076ZM276.098 283.027V286.245C277.308 283.638 279.457 282.336 282.605 282.336C283.589 282.336 284.5 282.44 285.337 282.652C286.174 282.865 286.902 283.247 287.526 283.802C288.149 284.356 288.641 285.089 289.002 286C289.363 286.914 289.544 288.087 289.544 289.518V309.46H280.724V292.013C280.724 290.906 280.561 290.108 280.231 289.619C279.902 289.13 279.344 288.886 278.558 288.886C277.77 288.886 277.212 289.13 276.884 289.619C276.554 290.108 276.391 290.906 276.391 292.013V309.46H267.573V283.027H276.098ZM306.08 290.798C305.983 290.132 305.836 289.586 305.643 289.16C305.285 288.412 304.637 288.038 303.697 288.038C303.21 288.038 302.797 288.16 302.456 288.404C302.115 288.645 301.85 289.084 301.654 289.719C301.46 290.351 301.323 291.197 301.241 292.251C301.161 293.307 301.119 294.645 301.119 296.269C301.119 297.893 301.161 299.234 301.241 300.288C301.323 301.343 301.46 302.18 301.654 302.796C301.85 303.411 302.115 303.843 302.456 304.086C302.797 304.33 303.21 304.451 303.697 304.451C304.507 304.451 305.132 304.141 305.571 303.524C306.009 302.905 306.225 301.766 306.225 300.105V298.393H314.193C314.193 300.48 314.016 302.256 313.654 303.723C313.297 305.192 312.693 306.399 311.843 307.349C310.178 309.118 307.467 310 303.713 310C302.014 310 300.464 309.851 299.06 309.561C297.655 309.266 296.457 308.64 295.46 307.68C294.465 306.718 293.688 305.365 293.135 303.622C292.578 301.879 292.301 299.574 292.301 296.706C292.301 293.577 292.61 291.07 293.232 289.179C293.853 287.29 294.691 285.838 295.752 284.828C296.815 283.818 298.063 283.149 299.5 282.825C300.936 282.5 302.488 282.336 304.154 282.336C306.112 282.336 307.736 282.606 309.028 283.145C310.316 283.687 311.345 284.439 312.112 285.407C312.878 286.376 313.418 287.536 313.729 288.889C314.039 290.244 314.193 291.75 314.193 293.411H306.225C306.225 292.338 306.177 291.467 306.08 290.798ZM362.516 274.551V287.422H368.086V274.551H377.214V309.46H368.086V295.128H362.516V309.46H353.387V274.551H362.516ZM414.491 283.027V300.476C414.491 301.583 414.656 302.382 414.986 302.871C415.313 303.36 415.868 303.605 416.657 303.605C417.444 303.605 418.001 303.36 418.329 302.871C418.658 302.382 418.823 301.583 418.823 300.476V283.027H427.642V309.46H419.132L419.119 306.237C417.94 308.747 415.791 310 412.609 310C411.625 310 410.715 309.911 409.879 309.732C409.041 309.552 408.312 309.194 407.692 308.655C407.067 308.119 406.573 307.386 406.213 306.457C405.854 305.528 405.672 304.364 405.672 302.964V283.027H414.491ZM438.119 302.757C438.217 303.215 438.377 303.588 438.608 303.881C439.032 304.499 439.652 304.811 440.467 304.811C441.151 304.811 441.746 304.616 442.251 304.226C442.756 303.834 443.01 303.281 443.01 302.563C443.01 301.781 442.689 301.178 442.055 300.754C441.419 300.331 440.628 299.953 439.684 299.628L436.627 298.599C435.535 298.24 434.514 297.749 433.57 297.127C432.625 296.507 431.834 295.685 431.199 294.655C430.562 293.626 430.247 292.278 430.247 290.612C430.247 289.438 430.455 288.354 430.881 287.357C431.307 286.359 431.952 285.486 432.82 284.734C433.686 283.984 434.782 283.398 436.107 282.972C437.432 282.546 438.989 282.336 440.789 282.336C447.429 282.336 450.746 285.109 450.746 290.657H443.088C443.088 289.518 442.885 288.747 442.48 288.339C442.076 287.932 441.502 287.73 440.758 287.73C440.109 287.73 439.574 287.909 439.155 288.266C438.733 288.624 438.524 289.13 438.524 289.779C438.524 290.531 438.841 291.092 439.476 291.467C440.111 291.84 440.904 292.173 441.848 292.467L444.904 293.395C445.997 293.72 447.017 294.185 447.962 294.788C448.905 295.389 449.696 296.204 450.332 297.229C450.967 298.256 451.288 299.613 451.288 301.307C451.288 302.61 451.042 303.8 450.55 304.873C450.059 305.946 449.367 306.875 448.467 307.657C447.567 308.439 446.455 309.025 445.131 309.415C443.806 309.805 442.311 310 440.643 310C436.946 310 434.29 309.27 432.672 307.811C431.053 306.352 430.247 304.179 430.247 301.292H437.974C437.974 301.813 438.02 302.302 438.119 302.757ZM461.925 301.206C461.925 302.633 462.169 303.584 462.658 304.054C463.143 304.525 463.697 304.762 464.313 304.762C465.093 304.762 465.702 304.443 466.14 303.808C466.578 303.17 466.798 301.961 466.798 300.167H474.768C474.702 303.427 473.868 305.878 472.266 307.529C470.666 309.178 468.034 310 464.379 310C462.254 310 460.473 309.763 459.036 309.291C457.598 308.819 456.441 308.038 455.557 306.946C454.675 305.854 454.044 304.428 453.669 302.669C453.294 300.911 453.106 298.774 453.106 296.267C453.106 293.723 453.317 291.573 453.74 289.814C454.166 288.054 454.838 286.621 455.749 285.511C456.664 284.404 457.831 283.596 459.253 283.093C460.672 282.589 462.379 282.336 464.371 282.336C466.134 282.336 467.674 282.546 468.998 282.972C470.321 283.396 471.431 284.105 472.33 285.097C473.225 286.094 473.896 287.399 474.34 289.014C474.779 290.627 475 292.644 475 295.057V297.747H461.925V301.206ZM466.214 288.709C465.874 288.056 465.234 287.73 464.299 287.73C463.395 287.73 462.775 288.056 462.435 288.709C462.094 289.362 461.925 290.392 461.925 291.793V292.968H466.721V291.793C466.721 290.392 466.553 289.362 466.214 288.709ZM473.666 216.404V241.832H394.612V216.753H410.706V223.384H404.061V233.14H430.299V216.404H437.982V233.14H447.766V216.404H455.826V233.14H465.271V216.404H473.666ZM372.592 204.569H380.641V241.832H372.592V204.569ZM357.902 204.478H365.58V241.832H297.059C297.059 241.832 296.365 250.567 289.354 253.343C282.353 256.117 277.108 253.343 277.108 253.343C277.108 253.343 281.658 252.996 285.859 248.813C290.051 244.626 288.315 241.832 288.315 241.832H273.972V216.404H297.059V233.14H305.089V216.753H329.917V233.14H340.753V216.753H349.5V233.14H357.902V204.478ZM281.658 225.12H289.354V233.141H281.658V225.12ZM313.489 225.12H321.542V233.141H313.489V225.12ZM266.617 216.753V241.832H245.29C245.29 241.832 241.789 254.201 230.952 254.385C209.977 254.731 218.724 226.854 218.724 226.854C218.724 226.854 217.39 242.848 227.794 242.897C239.012 242.94 237.235 233.14 237.235 233.14V204.915H245.642V233.14H257.872V216.753H266.617ZM196.677 204.569H204.733V241.832H196.677V204.569ZM188.976 204.569V241.832H120.171C120.171 241.832 118.844 250.162 114.143 252.996C109.866 255.572 100.85 254.731 100.85 254.731C100.85 254.731 107.483 251.261 109.597 248.461C111.704 245.665 111.36 241.832 111.36 241.832H96.6675V216.753H120.081V233.14H164.866V224.428H134.776C134.776 224.428 129.182 224.101 129.182 218.16C129.182 212.219 133.725 209.794 133.725 209.794L147.022 199.003H162.405L141.435 215.711H165.91C165.91 215.711 172.899 216.404 173.247 221.631C173.589 226.854 173.247 233.14 173.247 233.14H181.299V204.569H188.976ZM105.076 224.551H111.75V233.14H105.076V224.551ZM89.2489 216.496V241.832H57.2874V225.12H48.9154V241.832H25V216.211H34.7909V232.258H41.1783L41.2795 215.956L65.9108 215.931V233.14H80.8758V216.496H89.2489ZM38.1061 250.632C38.1061 248.116 40.0577 246.077 42.4503 246.077C44.8482 246.077 46.7987 248.116 46.7987 250.632C46.7987 253.15 44.8482 255.191 42.4503 255.191C40.0577 255.191 38.1061 253.15 38.1061 250.632ZM28.0371 250.632C28.0371 248.116 29.977 246.077 32.3845 246.077C34.7782 246.077 36.7266 248.116 36.7266 250.632C36.7266 253.15 34.7782 255.191 32.3845 255.191C29.977 255.191 28.0371 253.15 28.0371 250.632ZM56.7953 204.327C56.7953 201.807 58.7383 199.772 61.1405 199.772C63.5342 199.772 65.4847 201.807 65.4847 204.327C65.4847 206.842 63.5342 208.88 61.1405 208.88C58.7383 208.88 56.7953 206.842 56.7953 204.327ZM46.7188 204.327C46.7188 201.807 48.664 199.772 51.0662 199.772C53.4578 199.772 55.403 201.807 55.403 204.327C55.403 206.842 53.4578 208.88 51.0662 208.88C48.664 208.88 46.7188 206.842 46.7188 204.327ZM80.601 250.632C80.601 248.116 82.5398 246.077 84.942 246.077C87.3399 246.077 89.2787 248.116 89.2787 250.632C89.2787 253.15 87.3399 255.191 84.942 255.191C82.5398 255.191 80.601 253.15 80.601 250.632ZM70.5245 250.632C70.5245 248.116 72.4687 246.077 74.8698 246.077C77.2688 246.077 79.2119 248.116 79.2119 250.632C79.2119 253.15 77.2688 255.191 74.8698 255.191C72.4687 255.191 70.5245 253.15 70.5245 250.632ZM257.469 250.632C257.469 248.116 259.415 246.077 261.81 246.077C264.212 246.077 266.156 248.116 266.156 250.632C266.156 253.15 264.212 255.191 261.81 255.191C259.415 255.191 257.469 253.15 257.469 250.632ZM247.394 250.632C247.394 248.116 249.338 246.077 251.732 246.077C254.135 246.077 256.087 248.116 256.087 250.632C256.087 253.15 254.135 255.191 251.732 255.191C249.338 255.191 247.394 253.15 247.394 250.632ZM446.844 250.632C446.844 248.116 448.782 246.077 451.186 246.077C453.583 246.077 455.528 248.116 455.528 250.632C455.528 253.15 453.583 255.191 451.186 255.191C448.782 255.191 446.844 253.15 446.844 250.632ZM436.242 250.632C436.242 248.116 438.181 246.077 440.582 246.077C442.982 246.077 444.921 248.116 444.921 250.632C444.921 253.15 442.982 255.191 440.582 255.191C438.181 255.191 436.242 253.15 436.242 250.632ZM464.593 250.632C464.593 248.116 466.532 246.077 468.928 246.077C471.331 246.077 473.281 248.116 473.281 250.632C473.281 253.15 471.331 255.191 468.928 255.191C466.532 255.191 464.593 253.15 464.593 250.632ZM417.654 204.483C417.654 201.968 419.594 199.928 421.994 199.928C424.391 199.928 426.334 201.968 426.334 204.483C426.334 207.001 424.391 209.039 421.994 209.039C419.594 209.039 417.654 207.001 417.654 204.483ZM407.585 204.483C407.585 201.968 409.528 199.928 411.922 199.928C414.321 199.928 416.268 201.968 416.268 204.483C416.268 207.001 414.321 209.039 411.922 209.039C409.528 209.039 407.585 207.001 407.585 204.483ZM341.763 204.483C341.763 201.968 343.702 199.928 346.105 199.928C348.503 199.928 350.451 201.968 350.451 204.483C350.451 207.001 348.503 209.039 346.105 209.039C343.702 209.039 341.763 207.001 341.763 204.483ZM331.694 204.483C331.694 201.968 333.639 199.928 336.037 199.928C338.435 199.928 340.38 201.968 340.38 204.483C340.38 207.001 338.435 209.039 336.037 209.039C333.639 209.039 331.694 207.001 331.694 204.483ZM149.433 281.102H140.614V274.551H149.433V281.102ZM149.433 309.46H140.614V283.027H149.433V309.46ZM213.871 281.102H205.052V274.551H213.871V281.102ZM213.871 309.46H205.052V283.027H213.871V309.46ZM254.719 303.148C255.141 302.433 255.352 301.341 255.352 299.877V296.706C254.995 297.064 254.597 297.284 254.061 297.364C253.524 297.447 252.931 297.633 252.282 297.924C251.599 298.252 251.128 298.681 250.867 299.22C250.608 299.755 250.479 300.463 250.479 301.341C250.479 302.223 250.673 302.92 251.064 303.441C251.453 303.96 251.973 304.222 252.624 304.222C253.597 304.222 254.296 303.863 254.719 303.148ZM255.549 308.042L255.352 306.474C254.766 307.648 253.993 308.531 252.934 309.118C251.874 309.705 250.663 310 249.296 310C247.96 310 246.83 309.831 245.901 309.487C244.973 309.145 244.214 308.633 243.631 307.95C243.044 307.266 242.621 306.452 242.361 305.508C242.098 304.563 241.969 303.522 241.969 302.382C241.969 301.144 242.091 300.072 242.335 299.158C242.579 298.247 242.979 297.456 243.532 296.789C244.086 296.123 244.833 295.552 245.779 295.081C246.723 294.609 247.896 294.209 249.296 293.884L252.763 293.052C253.707 292.825 254.374 292.492 254.766 292.053C255.157 291.612 255.352 290.986 255.352 290.172C255.352 288.544 254.607 287.73 253.115 287.73C252.271 287.73 251.654 287.961 251.266 288.428C250.877 288.893 250.666 289.817 250.634 291.197H242.975C242.975 289.283 243.319 287.748 244.006 286.595C244.692 285.443 245.542 284.552 246.556 283.917C247.569 283.284 248.665 282.863 249.843 282.652C251.021 282.44 252.117 282.336 253.131 282.336C254.669 282.336 256.083 282.458 257.374 282.702C258.666 282.947 259.777 283.386 260.71 284.023C261.642 284.657 262.363 285.52 262.871 286.612C263.377 287.705 263.63 289.113 263.63 290.838V303.743C263.63 304.981 263.679 306.073 263.776 307.017C263.873 307.963 264.102 308.776 264.463 309.46H255.894C255.729 309.005 255.615 308.531 255.549 308.042ZM328.995 288.709C328.657 288.056 328.019 287.73 327.082 287.73C326.179 287.73 325.555 288.056 325.217 288.709C324.878 289.362 324.708 290.392 324.708 291.793V292.968H329.506V291.793C329.506 290.392 329.334 289.362 328.995 288.709ZM324.708 301.206C324.708 302.633 324.952 303.584 325.44 304.054C325.926 304.525 326.48 304.762 327.097 304.762C327.876 304.762 328.485 304.443 328.923 303.808C329.364 303.17 329.585 301.961 329.585 300.167H337.551C337.486 303.427 336.652 305.878 335.052 307.529C333.452 309.178 330.821 310 327.161 310C325.037 310 323.256 309.763 321.819 309.291C320.381 308.819 319.222 308.038 318.34 306.946C317.457 305.854 316.827 304.428 316.452 302.669C316.077 300.911 315.889 298.774 315.889 296.267C315.889 293.723 316.1 291.573 316.525 289.814C316.949 288.054 317.618 286.621 318.533 285.511C319.447 284.404 320.616 283.596 322.037 283.093C323.457 282.589 325.162 282.336 327.154 282.336C328.916 282.336 330.46 282.546 331.783 282.972C333.105 283.396 334.216 284.105 335.112 285.097C336.011 286.094 336.68 287.399 337.12 289.014C337.56 290.627 337.783 292.644 337.783 295.057V297.747H324.708V301.206ZM389.292 300.337C389.358 301.392 389.489 302.229 389.684 302.847C389.878 303.462 390.129 303.883 390.438 304.112C390.749 304.34 391.145 304.451 391.632 304.451C392.124 304.451 392.526 304.34 392.851 304.112C393.175 303.883 393.429 303.462 393.609 302.847C393.787 302.229 393.907 301.392 393.973 300.337C394.038 299.282 394.071 297.924 394.071 296.269C394.071 294.613 394.038 293.249 393.973 292.178C393.907 291.104 393.787 290.26 393.609 289.645C393.429 289.029 393.175 288.608 392.851 288.38C392.526 288.151 392.124 288.038 391.632 288.038C391.145 288.038 390.749 288.151 390.438 288.38C390.129 288.608 389.878 289.029 389.684 289.645C389.489 290.26 389.358 291.104 389.292 292.178C389.227 293.249 389.197 294.613 389.197 296.269C389.197 297.924 389.227 299.282 389.292 300.337ZM402.521 301.349C402.278 303.011 401.763 304.485 400.983 305.773C400.197 307.061 399.064 308.085 397.581 308.853C396.096 309.616 394.113 310 391.632 310C389.058 310 387.019 309.65 385.517 308.949C384.015 308.25 382.889 307.271 382.139 306.017C381.387 304.762 380.906 303.298 380.698 301.62C380.483 299.941 380.377 298.139 380.377 296.216C380.377 294.491 380.499 292.795 380.743 291.134C380.989 289.472 381.504 287.989 382.287 286.684C383.071 285.383 384.206 284.331 385.689 283.533C387.173 282.734 389.153 282.336 391.632 282.336C394.211 282.336 396.25 282.702 397.75 283.437C399.25 284.17 400.377 285.171 401.126 286.442C401.878 287.713 402.359 289.185 402.572 290.864C402.784 292.543 402.89 294.343 402.89 296.267C402.89 297.992 402.768 299.686 402.521 301.349Z" fill="#00934C"/>
</svg>
