<svg width="572" height="155" viewBox="0 0 572 155" fill="none" xmlns="http://www.w3.org/2000/svg">
<path fill-rule="evenodd" clip-rule="evenodd" d="M432.387 0H556.016C564.842 0 572 7.12886 572 15.9239V139.075C572 147.87 564.842 155 556.016 155H432.387C423.557 155 416.4 147.87 416.4 139.075V15.9239C416.4 7.12886 423.557 0 432.387 0Z" fill="#00934C"/>
<path fill-rule="evenodd" clip-rule="evenodd" d="M498.868 26.1189L507.041 34.0609H455.783C455.783 34.0609 451.474 34.5055 450.803 37.6857C450.135 40.8658 450.803 42.1997 450.803 42.1997L442.633 49.673V34.5055C442.633 34.5055 445.088 26.1189 453.773 26.1189H498.868ZM461.481 37.203L472.896 37.0638L436.652 73.1694C436.652 73.1694 433.92 76.5195 435.704 79.2392C437.488 81.9599 438.907 82.4323 438.907 82.4323L438.435 93.4709L427.669 82.7461C427.669 82.7461 423.451 75.0872 429.592 68.9692L461.481 37.203ZM442.537 71.6926L450.511 63.5529V114.615C450.511 114.615 450.955 118.906 454.149 119.574C457.343 120.24 458.681 119.574 458.681 119.574L466.183 127.714H450.955C450.955 127.714 442.537 125.267 442.537 116.615V71.6926ZM455.281 110.01L455.14 98.6403L491.386 134.744C491.386 134.744 494.747 137.467 497.48 135.688C500.209 133.912 500.684 132.498 500.684 132.498L511.765 132.969L500.999 143.694C500.999 143.694 493.309 147.893 487.168 141.776L455.281 110.01ZM545.427 82.2346L537.455 90.3762V39.3129C537.455 39.3129 537.009 35.0207 533.817 34.3542C530.624 33.6868 529.283 34.3542 529.283 34.3542L521.784 26.2145H537.009C537.009 26.2145 545.427 28.6595 545.427 37.3125V82.2346ZM532.685 44.99L532.823 56.3618L496.58 20.2552C496.58 20.2552 493.218 17.5346 490.486 19.3121C487.754 21.0897 487.282 22.5034 487.282 22.5034L476.199 22.0319L486.966 11.307C486.966 11.307 494.655 7.10674 500.796 13.2238L532.685 44.99ZM526.92 115.836L515.505 115.976L551.749 79.8695C551.749 79.8695 554.482 76.5204 552.698 73.7997C550.913 71.0791 549.494 70.6075 549.494 70.6075L549.966 59.5689L560.733 70.2928C560.733 70.2928 564.949 77.9536 558.808 84.0707L526.92 115.836ZM489.034 127.797L480.862 119.857H532.121C532.121 119.857 536.431 119.411 537.099 116.23C537.768 113.05 537.099 111.717 537.099 111.717L545.271 104.244V119.411C545.271 119.411 542.816 127.797 534.131 127.797H489.034ZM512.557 51.5044H522.79V103.012H467.855V93.8896H512.557V51.5044ZM509.058 51.5044V89.5974H467.855V79.94H499.093V51.5044H509.058ZM495.054 51.5044V75.6479H467.855V66.5279H485.358V51.5044H495.054ZM467.855 51.1247H469.303L469.239 52.3416C469.239 52.3416 469.881 51.0681 470.353 51.0635H480.252L480.254 52.1012L470.661 52.0966C470.661 52.0966 469.512 54.4831 469.425 57.188C469.303 61.0494 470.414 62.2794 470.414 62.2794H480.376L480.314 63.5093H470.289C470.289 63.5093 469.796 63.3867 469.425 62.4028V63.3255H467.855V51.1247ZM471.026 61.5655V53.8287C471.026 53.8287 471.311 53.0137 472.028 53.0137H480.288V54.252H472.193V55.752H480.288V56.9791H472.193V61.5655H471.026ZM473.209 57.3059H474.288V59.3591H479.121V57.2734H480.254V61.599H479.088V60.37H474.224V61.599H473.209V57.3059ZM484.735 69.8287H492.843C492.843 69.8287 492.639 70.7932 491.699 70.8869C490.758 70.9807 489.94 70.0431 488.498 70.6057C487.061 71.1691 486.684 72.153 486.684 72.153C486.684 72.153 485.743 71.3557 485.367 70.8869C484.991 70.4191 484.735 69.8287 484.735 69.8287ZM487.578 67.3921C487.578 67.3921 487.551 66.2401 488.002 64.7401C488.453 63.2401 489.488 62.3026 489.488 62.3026C489.488 62.3026 489.439 63.1927 489.582 63.7562C489.724 64.3187 490.336 65.0956 490.336 65.0956C490.336 65.0956 490.663 63.9901 491.135 63.3348C491.606 62.6776 492.123 62.2088 492.123 62.2088C492.123 62.2088 491.699 64.392 491.887 65.3305C492.076 66.2671 492.45 67.4385 492.45 67.4385L487.578 67.3921ZM487.578 72.6682C487.578 72.6682 487.841 71.4958 489.017 71.4958C490.195 71.4958 490.382 71.9655 491.369 71.7771C492.358 71.5905 492.997 71.3093 492.997 71.3093C492.997 71.3093 492.309 72.3396 491.18 72.4798C490.052 72.6218 489.704 71.9182 488.782 72.1057C487.861 72.2941 487.578 72.6682 487.578 72.6682ZM488.284 73.5389C488.284 73.5389 488.547 72.8557 489.535 72.8557C490.523 72.8557 490.617 73.2771 491.228 73.2298C491.84 73.1843 492.358 72.8557 492.358 72.8557C492.358 72.8557 491.793 73.7264 491.039 73.7737C490.287 73.8201 489.724 73.3235 489.206 73.3709C488.687 73.4182 488.284 73.5389 488.284 73.5389ZM477.684 69.2773H481.925V73.3681H477.684V69.2773ZM477.684 82.6904H481.925V86.7821H477.684V82.6904ZM484.417 82.6904H488.658V86.7821H484.417V82.6904ZM502.067 70.7653H505.635L507.192 87.7112H500.428L502.067 70.7653ZM503.921 69.9522C505.257 69.9522 506.894 68.9107 506.969 66.4731C507.028 64.5331 504.513 62.4093 504.143 61.2945C503.773 60.1788 503.699 59.5875 503.699 59.5875C503.699 59.5875 502.972 60.6531 502.661 61.7382C502.363 62.7713 499.909 64.6918 500.354 66.9902C500.673 68.6266 501.845 69.9522 503.921 69.9522ZM502.681 101.042C502.681 101.042 505.024 98.0045 508.552 98.0045C512.08 98.0045 514.767 100.924 514.767 100.924L502.681 101.042ZM509.634 94.3732C509.634 94.3732 508.432 94.5356 508.432 95.5539C508.432 96.5694 509.572 96.8692 509.572 96.8692C509.572 96.8692 508.913 96.3151 509.031 95.4926C509.154 94.6721 509.634 94.3732 509.634 94.3732ZM477.49 99.4256H483.421V96.1508H489.395V97.2897H485.265V99.4869H489.214V100.802H477.49V99.4256ZM515.925 83.4283H519.156V100.999H515.925V83.4283ZM515.925 70.6474H519.156V78.3258H515.925V70.6474ZM514.846 66.3933H520.232V69.4788H514.846V66.3933ZM514.846 79.1362H520.232V82.2198H514.846V79.1362ZM516.195 65.5885V62.905C516.195 62.905 516.327 61.4309 517.809 61.4309C519.29 61.4309 519.155 62.7713 519.155 62.7713V65.5885H516.195ZM518.116 57.6215C518.116 57.6215 516.915 57.7839 516.915 58.8013C516.915 59.8186 518.056 60.1184 518.056 60.1184C518.056 60.1184 517.395 59.5624 517.517 58.7418C517.635 57.9203 518.116 57.6215 518.116 57.6215Z" fill="white"/>
<path fill-rule="evenodd" clip-rule="evenodd" d="M89.7514 117.845C90.1204 117.219 90.3049 116.264 90.3049 114.984V112.209C89.9918 112.523 89.6442 112.715 89.1755 112.785C88.705 112.858 88.1878 113.02 87.6194 113.275C87.023 113.562 86.6093 113.938 86.3829 114.408C86.1555 114.877 86.0427 115.496 86.0427 116.264C86.0427 117.035 86.2123 117.645 86.5534 118.101C86.8944 118.555 87.3482 118.784 87.9176 118.784C88.7702 118.784 89.3815 118.47 89.7514 117.845ZM90.4773 122.126L90.3049 120.754C89.7915 121.781 89.1159 122.553 88.1906 123.067C87.2625 123.58 86.203 123.838 85.0065 123.838C83.8399 123.838 82.8494 123.691 82.0378 123.39C81.2261 123.09 80.5627 122.643 80.0511 122.045C79.5386 121.447 79.1687 120.735 78.9404 119.909C78.7121 119.082 78.5975 118.171 78.5975 117.174C78.5975 116.092 78.7056 115.154 78.9189 114.354C79.1323 113.558 79.4818 112.865 79.9654 112.282C80.4499 111.7 81.1041 111.2 81.9306 110.788C82.7571 110.375 83.7831 110.025 85.0065 109.741L88.0406 109.013C88.8662 108.815 89.4495 108.523 89.7915 108.14C90.1344 107.754 90.3049 107.206 90.3049 106.494C90.3049 105.07 89.6536 104.358 88.3481 104.358C87.611 104.358 87.0705 104.56 86.7314 104.969C86.3903 105.375 86.2049 106.184 86.1779 107.391H79.479C79.479 105.716 79.7781 104.374 80.3791 103.365C80.9792 102.358 81.7237 101.578 82.6108 101.023C83.4979 100.469 84.4558 100.1 85.4864 99.9165C86.5161 99.7309 87.475 99.6399 88.3621 99.6399C89.7067 99.6399 90.9441 99.7466 92.0735 99.9601C93.2029 100.175 94.1766 100.558 94.992 101.116C95.8083 101.67 96.4363 102.425 96.8808 103.38C97.3234 104.336 97.5452 105.568 97.5452 107.077V118.365C97.5452 119.448 97.588 120.403 97.6728 121.229C97.7595 122.056 97.9589 122.768 98.2739 123.366H90.7792C90.6348 122.967 90.5341 122.553 90.4773 122.126ZM9.62947 92.8303V104.55L15.6341 92.8303H24.1296L16.4066 106.173L25.0735 123.366H15.9789L11.3021 112.719L9.62947 115.282V123.366H1.64374V92.8303H9.62947ZM33.2093 100.244V115.507C33.2093 116.475 33.3518 117.174 33.6398 117.602C33.9268 118.03 34.4132 118.245 35.1037 118.245C35.7923 118.245 36.2796 118.03 36.5676 117.602C36.8536 117.174 36.999 116.475 36.999 115.507V100.244H44.7126V123.366H37.2692L37.2552 120.547C36.2256 122.742 34.347 123.838 31.5637 123.838C30.7027 123.838 29.9059 123.76 29.1735 123.603C28.443 123.446 27.8047 123.133 27.2596 122.662C26.7135 122.192 26.284 121.552 25.9681 120.739C25.6522 119.927 25.4947 118.908 25.4947 117.684V100.244H33.2093ZM53.7094 100.244L55.6411 116.87L58.0004 100.244H66.2368L68.5114 116.87L70.5279 100.244H77.9918L73.274 123.366H64.5213L62.1629 106.997L59.7169 123.366H50.9642L46.2445 100.244H53.7094ZM113.149 100.244V93.4374H120.863V100.244H123.909V105.436H120.863V116.451C120.863 117.105 121.012 117.57 121.313 117.839C121.613 118.108 122.077 118.245 122.708 118.245H123.909V123.366C123.195 123.366 122.479 123.388 121.763 123.433C121.049 123.478 120.363 123.502 119.706 123.502C118.535 123.502 117.534 123.45 116.705 123.351C115.877 123.253 115.2 123.005 114.669 122.605C114.142 122.207 113.755 121.616 113.512 120.832C113.27 120.049 113.149 119.018 113.149 117.736V105.436H110.573V100.244H113.149ZM155.219 92.8303V99.3011H145.051V104.559H154.576V110.829H145.051V123.366H137.066V92.8303H155.219ZM175.886 100.244V103.059C176.945 100.779 178.824 99.6399 181.578 99.6399C182.438 99.6399 183.237 99.7309 183.968 99.9165C184.7 100.102 185.337 100.436 185.883 100.922C186.427 101.406 186.858 102.048 187.174 102.845C187.489 103.644 187.648 104.67 187.648 105.922V123.366H179.932V108.104C179.932 107.136 179.789 106.438 179.501 106.01C179.214 105.582 178.727 105.369 178.039 105.369C177.348 105.369 176.861 105.582 176.573 106.01C176.286 106.438 176.144 107.136 176.144 108.104V123.366H168.43V100.244H175.886ZM219.642 100.244V103.059C220.701 100.779 222.58 99.6399 225.334 99.6399C226.195 99.6399 226.991 99.7309 227.724 99.9165C228.455 100.102 229.093 100.436 229.639 100.922C230.183 101.406 230.613 102.048 230.929 102.845C231.245 103.644 231.404 104.67 231.404 105.922V123.366H223.688V108.104C223.688 107.136 223.545 106.438 223.258 106.01C222.97 105.582 222.481 105.369 221.794 105.369C221.104 105.369 220.617 105.582 220.33 106.01C220.041 106.438 219.898 107.136 219.898 108.104V123.366H212.185V100.244H219.642ZM245.868 107.042C245.783 106.459 245.655 105.982 245.485 105.608C245.172 104.955 244.606 104.627 243.784 104.627C243.358 104.627 242.996 104.734 242.698 104.948C242.4 105.158 242.168 105.543 241.996 106.098C241.827 106.651 241.707 107.391 241.635 108.312C241.565 109.236 241.529 110.407 241.529 111.828C241.529 113.248 241.565 114.421 241.635 115.343C241.707 116.266 241.827 116.998 241.996 117.536C242.168 118.075 242.4 118.452 242.698 118.665C242.996 118.879 243.358 118.984 243.784 118.984C244.492 118.984 245.039 118.713 245.423 118.173C245.806 117.632 245.995 116.636 245.995 115.182V113.685H252.965C252.965 115.511 252.809 117.064 252.493 118.348C252.18 119.632 251.652 120.689 250.909 121.519C249.453 123.067 247.081 123.838 243.798 123.838C242.311 123.838 240.956 123.708 239.727 123.454C238.498 123.196 237.45 122.648 236.578 121.809C235.708 120.967 235.028 119.784 234.545 118.259C234.057 116.734 233.815 114.718 233.815 112.209C233.815 109.473 234.085 107.279 234.629 105.625C235.173 103.973 235.906 102.703 236.834 101.819C237.763 100.936 238.855 100.351 240.112 100.068C241.368 99.7828 242.726 99.6399 244.183 99.6399C245.896 99.6399 247.316 99.8757 248.447 100.347C249.573 100.822 250.473 101.48 251.144 102.326C251.814 103.174 252.287 104.188 252.559 105.372C252.83 106.557 252.965 107.874 252.965 109.327H245.995C245.995 108.389 245.953 107.626 245.868 107.042ZM295.234 92.8303V104.089H300.106V92.8303H308.091V123.366H300.106V110.829H295.234V123.366H287.249V92.8303H295.234ZM340.698 100.244V115.507C340.698 116.475 340.842 117.174 341.13 117.602C341.416 118.03 341.902 118.245 342.592 118.245C343.281 118.245 343.768 118.03 344.055 117.602C344.342 117.174 344.487 116.475 344.487 115.507V100.244H352.201V123.366H344.757L344.746 120.547C343.714 122.742 341.835 123.838 339.052 123.838C338.191 123.838 337.395 123.76 336.663 123.603C335.931 123.446 335.293 123.133 334.75 122.662C334.204 122.192 333.772 121.552 333.457 120.739C333.143 119.927 332.983 118.908 332.983 117.684V100.244H340.698ZM361.366 117.503C361.452 117.903 361.591 118.23 361.794 118.486C362.164 119.026 362.707 119.299 363.42 119.299C364.018 119.299 364.539 119.128 364.98 118.788C365.422 118.444 365.644 117.961 365.644 117.333C365.644 116.649 365.363 116.122 364.809 115.75C364.253 115.38 363.56 115.05 362.735 114.766L360.06 113.865C359.105 113.551 358.213 113.122 357.387 112.578C356.56 112.036 355.868 111.316 355.313 110.416C354.756 109.515 354.48 108.337 354.48 106.879C354.48 105.852 354.662 104.904 355.034 104.031C355.407 103.159 355.972 102.395 356.731 101.738C357.489 101.081 358.446 100.569 359.606 100.196C360.765 99.8237 362.127 99.6399 363.701 99.6399C369.509 99.6399 372.411 102.065 372.411 106.918H365.712C365.712 105.922 365.535 105.247 365.181 104.891C364.827 104.534 364.325 104.358 363.674 104.358C363.107 104.358 362.639 104.515 362.272 104.827C361.903 105.14 361.72 105.582 361.72 106.151C361.72 106.808 361.998 107.299 362.553 107.626C363.108 107.953 363.802 108.245 364.627 108.502L367.301 109.313C368.257 109.598 369.149 110.005 369.976 110.532C370.801 111.057 371.493 111.77 372.049 112.667C372.605 113.565 372.885 114.753 372.885 116.234C372.885 117.374 372.67 118.414 372.239 119.354C371.81 120.292 371.205 121.104 370.418 121.789C369.63 122.473 368.657 122.985 367.499 123.327C366.34 123.667 365.033 123.838 363.573 123.838C360.34 123.838 358.017 123.2 356.601 121.923C355.185 120.647 354.48 118.747 354.48 116.221H361.239C361.239 116.677 361.279 117.105 361.366 117.503ZM382.189 116.146C382.189 117.394 382.403 118.226 382.83 118.637C383.255 119.049 383.74 119.256 384.279 119.256C384.961 119.256 385.494 118.977 385.877 118.422C386.26 117.864 386.452 116.806 386.452 115.237H393.423C393.366 118.089 392.636 120.233 391.236 121.676C389.836 123.119 387.533 123.838 384.336 123.838C382.477 123.838 380.919 123.631 379.662 123.218C378.404 122.805 377.392 122.122 376.619 121.167C375.847 120.212 375.296 118.964 374.968 117.426C374.64 115.888 374.476 114.018 374.476 111.826C374.476 109.6 374.66 107.719 375.03 106.181C375.403 104.641 375.99 103.388 376.788 102.417C377.588 101.449 378.608 100.742 379.852 100.302C381.094 99.8608 382.586 99.6399 384.329 99.6399C385.871 99.6399 387.218 99.8237 388.377 100.196C389.534 100.567 390.505 101.187 391.291 102.055C392.074 102.927 392.661 104.069 393.049 105.481C393.434 106.892 393.627 108.657 393.627 110.767V113.12H382.189V116.146ZM385.941 105.214C385.644 104.643 385.084 104.358 384.266 104.358C383.475 104.358 382.933 104.643 382.636 105.214C382.338 105.786 382.189 106.686 382.189 107.912V108.94H386.384V107.912C386.384 106.686 386.238 105.786 385.941 105.214ZM392.46 41.9675V64.21H323.309V42.2729H337.387V48.0725H331.575V56.6068H354.525V41.9675H361.246V56.6068H369.805V41.9675H376.855V56.6068H385.116V41.9675H392.46ZM304.048 31.6149H311.088V64.21H304.048V31.6149ZM291.198 31.535H297.914V64.21H237.977C237.977 64.21 237.37 71.8503 231.238 74.2786C225.114 76.705 220.525 74.2786 220.525 74.2786C220.525 74.2786 224.505 73.975 228.18 70.3159C231.847 66.654 230.328 64.21 230.328 64.21H217.782V41.9675H237.977V56.6068H245.001V42.2729H266.719V56.6068H276.197V42.2729H283.848V56.6068H291.198V31.535ZM224.505 49.5911H231.238V56.6077H224.505V49.5911ZM252.349 49.5911H259.393V56.6077H252.349V49.5911ZM211.349 42.2729V64.21H192.694C192.694 64.21 189.631 75.0295 180.151 75.1901C161.804 75.4927 169.455 51.1079 169.455 51.1079C169.455 51.1079 168.288 65.0983 177.389 65.141C187.202 65.1791 185.647 56.6068 185.647 56.6068V31.9175H193.001V56.6068H203.699V42.2729H211.349ZM150.17 31.6149H157.217V64.21H150.17V31.6149ZM143.434 31.6149V64.21H83.2482C83.2482 64.21 82.0881 71.4966 77.9759 73.975C74.2347 76.2288 66.3477 75.4927 66.3477 75.4927C66.3477 75.4927 72.1502 72.4574 73.9989 70.0087C75.8421 67.5628 75.5411 64.21 75.5411 64.21H62.6894V42.2729H83.1699V56.6068H122.345V48.9859H96.0235C96.0235 48.9859 91.1305 48.7 91.1305 43.5038C91.1305 38.3066 95.1047 36.1855 95.1047 36.1855L106.736 26.7463H120.191L101.848 41.3614H123.258C123.258 41.3614 129.371 41.9675 129.675 46.5391C129.975 51.1079 129.675 56.6068 129.675 56.6068H136.719V31.6149H143.434ZM70.0443 49.0936H75.8821V56.6068H70.0443V49.0936ZM56.2002 42.0474V64.21H28.2426V49.5911H20.9194V64.21H0V41.7986H8.56439V55.8354H14.1516L14.2401 41.5758L35.7858 41.5535V56.6068H48.876V42.0474H56.2002ZM11.4642 71.9078C11.4642 69.707 13.1713 67.9229 15.2642 67.9229C17.3617 67.9229 19.0679 69.707 19.0679 71.9078C19.0679 74.1096 17.3617 75.8956 15.2642 75.8956C13.1713 75.8956 11.4642 74.1096 11.4642 71.9078ZM2.65663 71.9078C2.65663 69.707 4.35348 67.9229 6.4594 67.9229C8.55321 67.9229 10.2575 69.707 10.2575 71.9078C10.2575 74.1096 8.55321 75.8956 6.4594 75.8956C4.35348 75.8956 2.65663 74.1096 2.65663 71.9078ZM27.8121 31.4032C27.8121 29.1987 29.5118 27.4192 31.6131 27.4192C33.7069 27.4192 35.413 29.1987 35.413 31.4032C35.413 33.6032 33.7069 35.3863 31.6131 35.3863C29.5118 35.3863 27.8121 33.6032 27.8121 31.4032ZM18.998 31.4032C18.998 29.1987 20.6995 27.4192 22.8008 27.4192C24.8927 27.4192 26.5942 29.1987 26.5942 31.4032C26.5942 33.6032 24.8927 35.3863 22.8008 35.3863C20.6995 35.3863 18.998 33.6032 18.998 31.4032ZM48.6356 71.9078C48.6356 69.707 50.3315 67.9229 52.4328 67.9229C54.5303 67.9229 56.2262 69.707 56.2262 71.9078C56.2262 74.1096 54.5303 75.8956 52.4328 75.8956C50.3315 75.8956 48.6356 74.1096 48.6356 71.9078ZM39.8215 71.9078C39.8215 69.707 41.5221 67.9229 43.6224 67.9229C45.7209 67.9229 47.4205 69.707 47.4205 71.9078C47.4205 74.1096 45.7209 75.8956 43.6224 75.8956C41.5221 75.8956 39.8215 74.1096 39.8215 71.9078ZM203.346 71.9078C203.346 69.707 205.049 67.9229 207.143 67.9229C209.245 67.9229 210.945 69.707 210.945 71.9078C210.945 74.1096 209.245 75.8956 207.143 75.8956C205.049 75.8956 203.346 74.1096 203.346 71.9078ZM194.534 71.9078C194.534 69.707 196.235 67.9229 198.328 67.9229C200.431 67.9229 202.138 69.707 202.138 71.9078C202.138 74.1096 200.431 75.8956 198.328 75.8956C196.235 75.8956 194.534 74.1096 194.534 71.9078ZM368.998 71.9078C368.998 69.707 370.693 67.9229 372.796 67.9229C374.892 67.9229 376.594 69.707 376.594 71.9078C376.594 74.1096 374.892 75.8956 372.796 75.8956C370.693 75.8956 368.998 74.1096 368.998 71.9078ZM359.724 71.9078C359.724 69.707 361.42 67.9229 363.52 67.9229C365.62 67.9229 367.316 69.707 367.316 71.9078C367.316 74.1096 365.62 75.8956 363.52 75.8956C361.42 75.8956 359.724 74.1096 359.724 71.9078ZM384.524 71.9078C384.524 69.707 386.219 67.9229 388.315 67.9229C390.417 67.9229 392.123 69.707 392.123 71.9078C392.123 74.1096 390.417 75.8956 388.315 75.8956C386.219 75.8956 384.524 74.1096 384.524 71.9078ZM343.465 31.5397C343.465 29.3398 345.161 27.5557 347.261 27.5557C349.357 27.5557 351.057 29.3398 351.057 31.5397C351.057 33.7424 349.357 35.5246 347.261 35.5246C345.161 35.5246 343.465 33.7424 343.465 31.5397ZM334.657 31.5397C334.657 29.3398 336.357 27.5557 338.45 27.5557C340.549 27.5557 342.252 29.3398 342.252 31.5397C342.252 33.7424 340.549 35.5246 338.45 35.5246C336.357 35.5246 334.657 33.7424 334.657 31.5397ZM277.081 31.5397C277.081 29.3398 278.776 27.5557 280.879 27.5557C282.976 27.5557 284.681 29.3398 284.681 31.5397C284.681 33.7424 282.976 35.5246 280.879 35.5246C278.776 35.5246 277.081 33.7424 277.081 31.5397ZM268.273 31.5397C268.273 29.3398 269.974 27.5557 272.072 27.5557C274.17 27.5557 275.871 29.3398 275.871 31.5397C275.871 33.7424 274.17 35.5246 272.072 35.5246C269.974 35.5246 268.273 33.7424 268.273 31.5397ZM108.844 98.5604H101.131V92.8303H108.844V98.5604ZM108.844 123.366H101.131V100.244H108.844V123.366ZM165.21 98.5604H157.496V92.8303H165.21V98.5604ZM165.21 123.366H157.496V100.244H165.21V123.366ZM200.941 117.845C201.31 117.219 201.495 116.264 201.495 114.984V112.209C201.183 112.523 200.834 112.715 200.365 112.785C199.896 112.858 199.377 113.02 198.809 113.275C198.212 113.562 197.8 113.938 197.572 114.408C197.345 114.877 197.233 115.496 197.233 116.264C197.233 117.035 197.402 117.645 197.744 118.101C198.084 118.555 198.539 118.784 199.108 118.784C199.96 118.784 200.571 118.47 200.941 117.845ZM201.667 122.126L201.495 120.754C200.982 121.781 200.306 122.553 199.38 123.067C198.452 123.58 197.393 123.838 196.197 123.838C195.029 123.838 194.04 123.691 193.228 123.39C192.416 123.09 191.753 122.643 191.242 122.045C190.728 121.447 190.359 120.735 190.131 119.909C189.901 119.082 189.788 118.171 189.788 117.174C189.788 116.092 189.895 115.154 190.109 114.354C190.322 113.558 190.672 112.865 191.155 112.282C191.64 111.7 192.294 111.2 193.121 110.788C193.947 110.375 194.973 110.025 196.197 109.741L199.23 109.013C200.056 108.815 200.639 108.523 200.982 108.14C201.324 107.754 201.495 107.206 201.495 106.494C201.495 105.07 200.843 104.358 199.538 104.358C198.8 104.358 198.26 104.56 197.92 104.969C197.58 105.375 197.396 106.184 197.368 107.391H190.668C190.668 105.716 190.969 104.374 191.57 103.365C192.17 102.358 192.914 101.578 193.801 101.023C194.687 100.469 195.646 100.1 196.676 99.9165C197.706 99.7309 198.665 99.6399 199.552 99.6399C200.897 99.6399 202.134 99.7466 203.263 99.9601C204.394 100.175 205.366 100.558 206.182 101.116C206.997 101.67 207.627 102.425 208.072 103.38C208.514 104.336 208.736 105.568 208.736 107.077V118.365C208.736 119.448 208.779 120.403 208.864 121.229C208.948 122.056 209.149 122.768 209.465 123.366H201.969C201.825 122.967 201.725 122.553 201.667 122.126ZM265.913 105.214C265.616 104.643 265.058 104.358 264.239 104.358C263.449 104.358 262.903 104.643 262.608 105.214C262.311 105.786 262.162 106.686 262.162 107.912V108.94H266.359V107.912C266.359 106.686 266.209 105.786 265.913 105.214ZM262.162 116.146C262.162 117.394 262.375 118.226 262.802 118.637C263.228 119.049 263.713 119.256 264.252 119.256C264.933 119.256 265.466 118.977 265.849 118.422C266.235 117.864 266.428 116.806 266.428 115.237H273.396C273.339 118.089 272.61 120.233 271.21 121.676C269.811 123.119 267.51 123.838 264.308 123.838C262.45 123.838 260.892 123.631 259.635 123.218C258.377 122.805 257.363 122.122 256.592 121.167C255.82 120.212 255.268 118.964 254.94 117.426C254.612 115.888 254.448 114.018 254.448 111.826C254.448 109.6 254.633 107.719 255.005 106.181C255.376 104.641 255.961 103.388 256.761 102.417C257.561 101.449 258.583 100.742 259.826 100.302C261.068 99.8608 262.559 99.6399 264.302 99.6399C265.843 99.6399 267.194 99.8237 268.351 100.196C269.508 100.567 270.48 101.187 271.263 102.055C272.05 102.927 272.635 104.069 273.02 105.481C273.405 106.892 273.599 108.657 273.599 110.767V113.12H262.162V116.146ZM318.656 115.386C318.714 116.308 318.828 117.041 318.999 117.581C319.168 118.119 319.388 118.488 319.658 118.687C319.93 118.887 320.276 118.984 320.702 118.984C321.133 118.984 321.485 118.887 321.769 118.687C322.052 118.488 322.274 118.119 322.432 117.581C322.587 117.041 322.692 116.308 322.75 115.386C322.807 114.463 322.836 113.275 322.836 111.828C322.836 110.379 322.807 109.186 322.75 108.248C322.692 107.309 322.587 106.571 322.432 106.033C322.274 105.494 322.052 105.126 321.769 104.926C321.485 104.727 321.133 104.627 320.702 104.627C320.276 104.627 319.93 104.727 319.658 104.926C319.388 105.126 319.168 105.494 318.999 106.033C318.828 106.571 318.714 107.309 318.656 108.248C318.599 109.186 318.573 110.379 318.573 111.828C318.573 113.275 318.599 114.463 318.656 115.386ZM330.227 116.271C330.015 117.725 329.565 119.014 328.882 120.141C328.195 121.267 327.203 122.163 325.906 122.835C324.607 123.502 322.872 123.838 320.702 123.838C318.451 123.838 316.667 123.532 315.353 122.919C314.039 122.307 313.055 121.451 312.399 120.354C311.741 119.256 311.32 117.975 311.138 116.508C310.951 115.039 310.857 113.463 310.857 111.781C310.857 110.272 310.965 108.789 311.178 107.336C311.393 105.881 311.843 104.585 312.528 103.443C313.214 102.305 314.206 101.385 315.504 100.687C316.802 99.988 318.534 99.6399 320.702 99.6399C322.958 99.6399 324.742 99.9601 326.054 100.602C327.366 101.244 328.352 102.119 329.007 103.231C329.665 104.343 330.086 105.631 330.272 107.099C330.457 108.568 330.55 110.143 330.55 111.826C330.55 113.334 330.443 114.817 330.227 116.271Z" fill="#00934C"/>
</svg>
