<svg width="800" height="180" viewBox="0 0 800 180" fill="none" xmlns="http://www.w3.org/2000/svg">
<rect width="800" height="180" rx="15" fill="white"/>
<path d="M297.112 73.7938C294.505 70.7172 290.723 68.9719 285.848 68.9719C275.929 68.9719 268.619 76.9518 268.619 87.9246C268.619 98.8997 275.93 106.88 285.427 106.88C290.723 106.88 295.011 104.551 297.699 100.561L308.625 108.627C303.666 115.61 295.262 118.852 287.108 118.852C268.535 118.852 255 106.796 255 87.9246C255 69.0534 268.535 57 287.108 57C293.75 57 302.155 59.2447 307.195 65.6445L297.112 73.7938Z" fill="#76101C"/>
<path d="M315.601 58.4965H328.713V117.355H315.601V58.4965Z" fill="#76101C"/>
<path d="M340.648 58.4965H360.482L374.182 96.9037H374.35L388.135 58.4965H407.888V117.355H394.775V72.2115H394.608L378.974 117.355H368.972L353.928 72.2115H353.759V117.355H340.648V58.4965Z" fill="#76101C"/>
<path d="M433.101 106.382H444.867C448.986 106.382 453.608 104.635 453.608 99.4807C453.608 93.9107 447.305 92.9973 443.019 92.9973H433.101V106.382ZM433.101 82.0245H442.599C446.632 82.0245 450.834 80.3586 450.834 75.6204C450.834 70.7171 446.128 69.4693 442.009 69.4693H433.101V82.0245ZM419.991 58.4965H442.176C452.6 58.4965 463.949 60.6576 463.949 73.4593C463.949 80.0284 459.83 84.5179 453.692 86.4282V86.5932C461.509 87.5923 466.719 93.3296 466.719 100.977C466.719 113.281 454.952 117.355 444.363 117.355H419.991V58.4965Z" fill="#76101C"/>
<path d="M490.422 112.366H503.114C516.143 112.366 518.244 105.218 518.244 101.059C518.244 92.3305 511.017 88.9217 503.957 88.9217H490.422V112.366ZM490.422 83.9347H501.937C513.453 83.9347 515.639 77.7001 515.639 74.0425C515.639 65.8117 509.756 63.4834 502.696 63.4834H490.422V83.9347ZM484.875 58.4965H502.021C511.101 58.4965 521.186 60.7412 521.186 74.0425C521.186 80.0284 517.571 84.8502 510.511 86.2631V86.4282C518.328 87.0113 523.793 92.6629 523.793 100.894C523.793 114.446 511.939 117.355 503.873 117.355H484.875V58.4965Z" fill="#76101C"/>
<path d="M558.668 64.4825L544.801 96.7386H572.117L558.668 64.4825ZM556.063 58.4965H561.779L586.825 117.355H580.607L574.135 101.725H542.616L535.893 117.355H530.093L556.063 58.4965Z" fill="#76101C"/>
<path d="M595.399 58.4965H602.543L638.769 110.04H638.937V58.4965H644.485V117.355H637.339L601.115 65.8117H600.945V117.355H595.399V58.4965Z" fill="#76101C"/>
<path d="M660.789 58.4965H666.338V84.4343H666.841L695.672 58.4965H703.319L673.231 85.4312L705 117.355H697.016L666.841 86.9277H666.338V117.355H660.789V58.4965Z" fill="#76101C"/>
<rect x="45" y="20" width="140" height="140" fill="#780000"/>
<path d="M138.418 36.8H54.3335L91.5434 87.7016H175.665L138.418 36.8Z" fill="white"/>
<path d="M175.667 87.7018H91.5517L54.354 138.648H138.427L175.667 87.7018Z" fill="#E50019"/>
</svg>
