<svg width="500" height="350" viewBox="0 0 500 350" fill="none" xmlns="http://www.w3.org/2000/svg">
<rect width="500" height="350" rx="15" fill="url(#paint0_linear_1555_988)"/>
<path d="M280.881 60H170L219.068 127.123H329.998L280.881 60Z" fill="white"/>
<path d="M330 127.123H219.078L170.026 194.305H280.891L330 127.123Z" fill="#E50019"/>
<path d="M67.1119 274.794C64.5048 271.717 60.7229 269.972 55.8475 269.972C45.9295 269.972 38.6185 277.952 38.6185 288.925C38.6185 299.9 45.9295 307.88 55.4273 307.88C60.7229 307.88 65.0109 305.551 67.6994 301.561L78.6251 309.627C73.6661 316.61 65.2617 319.852 57.1082 319.852C38.5349 319.852 25 307.796 25 288.925C25 270.053 38.5349 258 57.1082 258C63.7502 258 72.1545 260.245 77.195 266.644L67.1119 274.794Z" fill="white"/>
<path d="M85.6006 259.496H98.7131V318.355H85.6006V259.496Z" fill="white"/>
<path d="M110.648 259.496H130.482L144.182 297.904H144.35L158.135 259.496H177.888V318.355H164.775V273.212H164.608L148.974 318.355H138.972L123.928 273.212H123.759V318.355H110.648V259.496Z" fill="white"/>
<path d="M203.102 307.382H214.868C218.986 307.382 223.609 305.635 223.609 300.481C223.609 294.911 217.305 293.997 213.02 293.997H203.102V307.382ZM203.102 283.024H212.599C216.632 283.024 220.834 281.359 220.834 276.62C220.834 271.717 216.128 270.469 212.01 270.469H203.102V283.024ZM189.991 259.497H212.177C222.601 259.497 233.949 261.658 233.949 274.459C233.949 281.028 229.831 285.518 223.692 287.428V287.593C231.509 288.592 236.719 294.33 236.719 301.977C236.719 314.281 224.953 318.355 214.364 318.355H189.991V259.497Z" fill="white"/>
<path d="M260.421 313.366H273.114C286.143 313.366 288.244 306.218 288.244 302.059C288.244 293.331 281.017 289.922 273.956 289.922H260.421V313.366ZM260.421 284.935H271.937C283.452 284.935 285.639 278.7 285.639 275.042C285.639 266.812 279.756 264.483 272.696 264.483H260.421V284.935ZM254.875 259.497H272.02C281.1 259.497 291.185 261.741 291.185 275.042C291.185 281.028 287.571 285.85 280.511 287.263V287.428C288.327 288.011 293.792 293.663 293.792 301.894C293.792 315.446 281.938 318.355 273.873 318.355H254.875V259.497Z" fill="white"/>
<path d="M328.669 265.482L314.801 297.739H342.118L328.669 265.482ZM326.064 259.497H331.78L356.825 318.355H350.608L344.135 302.725H312.617L305.893 318.355H300.094L326.064 259.497Z" fill="white"/>
<path d="M365.398 259.497H372.542L408.769 311.04H408.936V259.497H414.485V318.355H407.339L371.114 266.812H370.945V318.355H365.398V259.497Z" fill="white"/>
<path d="M430.789 259.496H436.338V285.434H436.841L465.672 259.496H473.319L443.231 286.431L475 318.355H467.016L436.841 287.928H436.338V318.355H430.789V259.496Z" fill="white"/>
<defs>
<linearGradient id="paint0_linear_1555_988" x1="250" y1="0" x2="250" y2="350" gradientUnits="userSpaceOnUse">
<stop stop-color="#CD0323"/>
<stop offset="1" stop-color="#A20216"/>
</linearGradient>
</defs>
</svg>
