<svg width="181" height="180" viewBox="0 0 181 180" fill="none" xmlns="http://www.w3.org/2000/svg">
<circle cx="90.8799" cy="90" r="90" fill="white"/>
<path d="M116.607 60C104.536 60 93.7495 66.8151 93.7495 79.4067C93.7495 93.8467 112.881 94.8441 112.881 102.098C112.881 105.153 109.667 107.887 104.179 107.887C96.3894 107.887 90.5677 104.067 90.5677 104.067L88.0767 116.773C88.0767 116.773 94.7831 120 103.687 120C116.884 120 127.269 112.85 127.269 100.043C127.269 84.7849 108.058 83.8171 108.058 77.0839C108.058 74.6912 110.696 72.0695 116.169 72.0695C122.344 72.0695 127.382 74.848 127.382 74.848L129.819 62.576C129.819 62.576 124.338 60 116.607 60ZM6.17216 60.9262L5.87988 62.7786C5.87988 62.7786 10.958 63.791 15.5317 65.8104C21.4207 68.1261 21.8403 69.4742 22.8321 73.6614L33.6397 119.045H48.1275L70.4469 60.9262H55.9924L41.6508 100.441L35.7986 66.9465C35.2619 63.113 32.5434 60.9262 29.2157 60.9262H6.17216ZM76.2593 60.9262L64.9202 119.045H78.7038L90.0031 60.9262H76.2593ZM153.135 60.9262C149.812 60.9262 148.051 62.8646 146.758 66.2518L126.564 119.045H141.019L143.816 110.246H161.425L163.126 119.045H175.88L164.753 60.9262H153.135ZM155.015 76.6281L159.3 98.4371H147.821L155.015 76.6281Z" fill="#1434CB"/>
</svg>
