<svg width="240" height="82" viewBox="0 0 240 82" fill="none" xmlns="http://www.w3.org/2000/svg">
<path d="M156.164 0.125977C139.141 0.125977 123.927 9.41133 123.927 26.5667C123.927 46.2407 150.909 47.5996 150.909 57.4833C150.909 61.6449 146.377 65.3701 138.636 65.3701C127.65 65.3701 119.44 60.1648 119.44 60.1648L115.926 77.4765C115.926 77.4765 125.385 81.8734 137.943 81.8734C156.555 81.8734 171.201 72.1322 171.201 54.6834C171.201 33.8943 144.107 32.5758 144.107 23.4021C144.107 20.1421 147.828 16.5701 155.546 16.5701C164.255 16.5701 171.36 20.3558 171.36 20.3558L174.798 3.63564C174.798 3.63564 167.067 0.125977 156.164 0.125977ZM0.412216 1.38788L0 3.91168C0 3.91168 7.16198 5.291 13.6125 8.04243C21.9181 11.1975 22.5098 13.0342 23.9085 18.739L39.1512 80.5721H59.584L91.0623 1.38788H70.6764L50.4497 55.2257L42.196 9.59023C41.439 4.36729 37.6049 1.38788 32.9117 1.38788H0.412216ZM99.2598 1.38788L83.2677 80.5721H102.707L118.643 1.38788H99.2598ZM207.682 1.38788C202.994 1.38788 200.511 4.02882 198.688 8.6438L170.208 80.5721H190.594L194.538 68.584H219.374L221.772 80.5721H239.76L224.068 1.38788H207.682ZM210.333 22.781L216.376 52.4948H200.187L210.333 22.781Z" fill="#1434CB"/>
</svg>
