<svg width="180" height="180" viewBox="0 0 180 180" fill="none" xmlns="http://www.w3.org/2000/svg">
<rect width="180" height="180" rx="15" fill="white"/>
<path d="M115.727 60C103.657 60 92.8696 66.8151 92.8696 79.4067C92.8696 93.8467 112.001 94.8441 112.001 102.098C112.001 105.153 108.787 107.887 103.299 107.887C95.5095 107.887 89.6878 104.067 89.6878 104.067L87.1968 116.773C87.1968 116.773 93.9033 120 102.807 120C116.004 120 126.389 112.85 126.389 100.043C126.389 84.7849 107.178 83.8171 107.178 77.0839C107.178 74.6912 109.816 72.0695 115.289 72.0695C121.464 72.0695 126.502 74.848 126.502 74.848L128.94 62.576C128.94 62.576 123.458 60 115.727 60ZM5.29228 60.9262L5 62.7786C5 62.7786 10.0781 63.791 14.6518 65.8104C20.5409 68.1261 20.9604 69.4742 21.9522 73.6614L32.7598 119.045H47.2476L69.5671 60.9262H55.1125L40.7709 100.441L34.9187 66.9465C34.382 63.113 31.6635 60.9262 28.3358 60.9262H5.29228ZM75.3794 60.9262L64.0403 119.045H77.8239L89.1232 60.9262H75.3794ZM152.255 60.9262C148.932 60.9262 147.171 62.8646 145.878 66.2518L125.685 119.045H140.139L142.936 110.246H160.545L162.246 119.045H175L163.873 60.9262H152.255ZM154.135 76.6281L158.42 98.4371H146.941L154.135 76.6281Z" fill="#1434CB"/>
</svg>
