<svg width="145" height="250" viewBox="0 0 145 250" fill="none" xmlns="http://www.w3.org/2000/svg">
<path d="M72.3273 53.236L72.2276 52.6877L72.1279 52.3387C70.0343 43.0174 62.5075 36.2383 54.1831 36.2383C53.0865 36.2383 51.9898 36.3878 50.8932 36.6371C41.5719 38.7306 35.9891 49.1486 38.3817 59.9154L38.4814 60.3142L38.5811 60.8127C39.3288 64.2521 44.0642 81.3495 64.3019 96.453C76.1156 74.1716 73.075 56.6754 72.3273 53.236Z" fill="#E63092"/>
<path d="M94.409 151.733L94.3093 151.235C93.5616 147.795 88.8262 130.698 68.5885 115.594C56.725 137.876 59.7656 155.372 60.5632 158.811L60.6629 159.31L60.7626 159.708C62.8561 169.03 70.383 175.809 78.7073 175.809C79.804 175.809 80.9006 175.659 81.9972 175.41C91.3185 173.317 96.9014 162.899 94.5087 152.132L94.409 151.733Z" fill="#E63092"/>
<path d="M105.974 100.64V100.042C123.869 91.3689 134.536 74.3712 134.536 54.6817C134.536 19.7393 104.329 0 61.8596 0H0.0498047V211.998H62.8566C106.323 211.998 144.156 192.906 144.156 150.487C144.107 129.053 131.844 107.519 105.974 100.64ZM84.9386 188.47C82.8949 188.919 80.8013 189.168 78.7576 189.168C64.3021 189.168 51.2921 178.102 47.8029 162.799C47.753 162.6 47.6533 162.251 47.5536 161.752C46.5567 157.316 42.7185 135.084 57.523 108.067C32.5498 89.9732 26.5682 68.1902 25.5713 63.8037C25.4716 63.3052 25.3719 62.9563 25.3719 62.7569C21.434 44.862 31.6027 27.3658 48.0023 23.6771C50.046 23.2285 52.1395 22.9793 54.2331 22.9793C68.6886 22.9793 81.6986 34.0452 85.1878 49.3482C85.2377 49.5475 85.3374 49.8965 85.4371 50.3949C86.434 54.8313 90.2722 77.0629 75.4677 104.08C100.441 122.174 106.472 143.957 107.419 148.344C107.519 148.842 107.619 149.191 107.619 149.39C111.507 167.235 101.338 184.781 84.9386 188.47Z" fill="#E63092"/>
<path d="M107.369 148.344C106.372 143.907 100.391 122.124 75.4177 104.08C90.272 77.0631 86.384 54.7816 85.387 50.3951C85.2873 49.8967 85.1876 49.5477 85.1378 49.3484C81.6485 34.0953 68.6386 22.9795 54.183 22.9795C52.0895 22.9795 50.0458 23.2287 47.9522 23.6773C31.5527 27.366 21.384 44.8622 25.3218 62.7571C25.3717 62.9565 25.4215 63.3054 25.5212 63.8039C26.5182 68.2402 32.5496 90.0232 57.5228 108.118C42.6685 135.134 46.5565 157.416 47.5534 161.802C47.6531 162.301 47.7528 162.65 47.8027 162.849C51.2919 178.102 64.3019 189.218 78.7574 189.218C80.851 189.218 82.8947 189.019 84.9384 188.52C101.338 184.831 111.507 167.285 107.569 149.44C107.519 149.191 107.469 148.792 107.369 148.344ZM38.581 60.8131L38.4813 60.3146L38.3816 59.9158C35.9392 49.149 41.5718 38.731 50.8932 36.6375C51.9898 36.3882 53.0864 36.2885 54.183 36.2885C62.5074 36.2885 70.0343 43.0677 72.1278 52.389L72.2275 52.7379L72.3771 53.2862C73.1248 56.7257 76.1654 74.2218 64.3517 96.5033C44.0642 81.3997 39.3287 64.2525 38.581 60.8131ZM81.9974 175.41C80.9008 175.66 79.8042 175.759 78.7076 175.759C70.3832 175.759 62.8563 168.98 60.7628 159.659L60.6631 159.26L60.5634 158.762C59.8157 155.322 56.7751 137.826 68.5887 115.545C88.8264 130.648 93.5619 147.746 94.3096 151.185L94.4093 151.683L94.4591 152.082C96.9016 162.899 91.3188 173.317 81.9974 175.41Z" fill="white"/>
<path d="M5.2339 224.609H0V249.233H5.2339V224.609Z" fill="#114C8C"/>
<path d="M27.1168 249.283L15.4029 233.183V249.283H10.1191V224.609H15.5524L26.9673 240.111V224.609H32.2012V249.283H27.1168Z" fill="#114C8C"/>
<path d="M37.0859 249.283V224.609H54.5323V229.245H42.3198V234.429H54.283V239.015H42.3198V249.283H37.0859Z" fill="#114C8C"/>
<path d="M63.4048 224.609H58.1709V249.233H63.4048V224.609Z" fill="#114C8C"/>
<path d="M85.2877 249.283L73.5738 233.183V249.283H68.29V224.609H73.7233L85.1382 240.111V224.609H90.3721V249.283H85.2877Z" fill="#114C8C"/>
<path d="M100.491 224.609H95.2568V249.233H100.491V224.609Z" fill="#114C8C"/>
<path d="M111.059 249.283V229.245H103.881V224.609H123.52V229.245H116.343V249.283H111.059Z" fill="#114C8C"/>
<path d="M126.909 249.283V224.609H144.355V229.245H132.143V234.429H144.056V239.015H132.143V244.647H144.355V249.283H126.909Z" fill="#114C8C"/>
</svg>
