<svg width="180" height="180" viewBox="0 0 180 180" fill="none" xmlns="http://www.w3.org/2000/svg">
<rect width="180" height="180" rx="15" fill="#E22691"/>
<path d="M95.1247 47.6229L95.0693 47.3384L95.014 47.1573C93.8517 42.3207 89.6733 38.8032 85.052 38.8032C84.4432 38.8032 83.8345 38.8808 83.2257 39.0101C78.051 40.0964 74.9517 45.502 76.28 51.0887L76.3353 51.2956L76.3907 51.5542C76.8057 53.3388 79.4346 62.2102 90.6695 70.0471C97.2277 58.4858 95.5397 49.4075 95.1247 47.6229Z" fill="white"/>
<path d="M107.384 98.7305L107.328 98.4718C106.913 96.6872 104.284 87.8158 93.0494 79.979C86.4634 91.5403 88.1514 100.619 88.5942 102.403L88.6495 102.662L88.7049 102.869C89.8671 107.705 94.0456 111.223 98.6668 111.223C99.2756 111.223 99.8844 111.145 100.493 111.016C105.668 109.93 108.767 104.524 107.439 98.9374L107.384 98.7305Z" fill="white"/>
<path d="M113.803 72.2196V71.9092C123.737 67.4089 129.659 58.5892 129.659 48.3729C129.659 30.2422 112.89 20 89.3134 20H55V130H89.8668C113.997 130 135 120.094 135 98.0837C134.972 86.9622 128.165 75.7889 113.803 72.2196ZM102.126 117.792C100.991 118.025 99.8288 118.154 98.6942 118.154C90.6693 118.154 83.4469 112.412 81.5099 104.472C81.4822 104.369 81.4268 104.188 81.3715 103.929C80.8181 101.627 78.6873 90.0917 86.9059 76.0734C73.0422 66.6847 69.7215 55.3821 69.1681 53.106C69.1128 52.8474 69.0574 52.6664 69.0574 52.5629C66.8713 43.2777 72.5164 34.1994 81.6206 32.2854C82.7551 32.0527 83.9173 31.9233 85.0796 31.9233C93.1045 31.9233 100.327 37.6652 102.264 45.6055C102.292 45.7089 102.347 45.89 102.402 46.1486C102.956 48.4505 105.086 59.9859 96.8679 74.0042C110.732 83.3929 114.08 94.6955 114.606 96.9716C114.661 97.2302 114.716 97.4112 114.716 97.5147C116.875 106.774 111.23 115.878 102.126 117.792Z" fill="white"/>
<path d="M114.578 96.9715C114.025 94.6696 110.704 83.367 96.8404 74.0042C105.087 59.9859 102.928 48.4246 102.375 46.1486C102.319 45.89 102.264 45.7089 102.236 45.6054C100.299 37.691 93.0769 31.9233 85.052 31.9233C83.8898 31.9233 82.7553 32.0527 81.593 32.2854C72.4889 34.1994 66.8438 43.2777 69.0299 52.5629C69.0576 52.6663 69.0852 52.8474 69.1406 53.106C69.694 55.4079 73.0424 66.7105 86.9061 76.0992C78.6598 90.1176 80.8182 101.679 81.3717 103.955C81.427 104.213 81.4823 104.395 81.51 104.498C83.4471 112.412 90.6695 118.18 98.6944 118.18C99.8566 118.18 100.991 118.077 102.126 117.818C111.23 115.904 116.875 106.8 114.689 97.5406C114.661 97.4112 114.633 97.2043 114.578 96.9715ZM76.3907 51.5542L76.3353 51.2955L76.28 51.0886C74.9241 45.502 78.051 40.0964 83.2257 39.0101C83.8345 38.8808 84.4433 38.8291 85.052 38.8291C89.6733 38.8291 93.8518 42.3466 95.014 47.1832L95.0693 47.3642L95.1524 47.6487C95.5674 49.4333 97.2554 58.5116 90.6971 70.0729C79.4346 62.2361 76.8058 53.3388 76.3907 51.5542ZM100.493 111.016C99.8843 111.145 99.2755 111.197 98.6667 111.197C94.0455 111.197 89.867 107.679 88.7048 102.843L88.6494 102.636L88.5941 102.377C88.179 100.593 86.491 91.5142 93.0493 79.953C104.284 87.7898 106.913 96.6612 107.328 98.4458L107.383 98.7044L107.411 98.9114C108.767 104.524 105.668 109.929 100.493 111.016Z" fill="#E22691"/>
<path d="M21.2339 142H16V166.624H21.2339V142Z" fill="white"/>
<path d="M43.1168 166.674L31.4029 150.574V166.674H26.1191V142H31.5524L42.9673 157.502V142H48.2012V166.674H43.1168Z" fill="white"/>
<path d="M53.0859 166.674V142H70.5323V146.636H58.3198V151.82H70.283V156.406H58.3198V166.674H53.0859Z" fill="white"/>
<path d="M79.4048 142H74.1709V166.624H79.4048V142Z" fill="white"/>
<path d="M101.288 166.674L89.5738 150.574V166.674H84.29V142H89.7233L101.138 157.502V142H106.372V166.674H101.288Z" fill="white"/>
<path d="M116.491 142H111.257V166.624H116.491V142Z" fill="white"/>
<path d="M127.059 166.674V146.636H119.881V142H139.52V146.636H132.343V166.674H127.059Z" fill="white"/>
<path d="M142.909 166.674V142H160.355V146.636H148.143V151.82H160.056V156.406H148.143V162.038H160.355V166.674H142.909Z" fill="white"/>
</svg>
