<svg width="180" height="180" viewBox="0 0 180 180" fill="none" xmlns="http://www.w3.org/2000/svg">
<circle cx="90" cy="90" r="90" fill="#E22691"/>
<path d="M90.1247 62.6229L90.0693 62.3384L90.014 62.1573C88.8517 57.3207 84.6733 53.8032 80.052 53.8032C79.4432 53.8032 78.8345 53.8808 78.2257 54.0101C73.051 55.0964 69.9517 60.502 71.28 66.0887L71.3353 66.2956L71.3907 66.5542C71.8057 68.3388 74.4346 77.2102 85.6695 85.0471C92.2277 73.4858 90.5397 64.4075 90.1247 62.6229Z" fill="white"/>
<path d="M102.384 113.73L102.328 113.472C101.913 111.687 99.2842 102.816 88.0494 94.979C81.4634 106.54 83.1514 115.619 83.5942 117.403L83.6495 117.662L83.7049 117.869C84.8671 122.705 89.0456 126.223 93.6668 126.223C94.2756 126.223 94.8844 126.145 95.4932 126.016C100.668 124.93 103.767 119.524 102.439 113.937L102.384 113.73Z" fill="white"/>
<path d="M108.803 87.2196V86.9092C118.737 82.4089 124.659 73.5892 124.659 63.3729C124.659 45.2422 107.89 35 84.3134 35H50V145H84.8668C108.997 145 130 135.094 130 113.084C129.972 101.962 123.165 90.7889 108.803 87.2196ZM97.1256 132.792C95.991 133.025 94.8288 133.154 93.6942 133.154C85.6693 133.154 78.4469 127.412 76.5099 119.472C76.4822 119.369 76.4268 119.188 76.3715 118.929C75.8181 116.627 73.6873 105.092 81.9059 91.0734C68.0422 81.6847 64.7215 70.3821 64.1681 68.106C64.1128 67.8474 64.0574 67.6664 64.0574 67.5629C61.8713 58.2777 67.5164 49.1994 76.6206 47.2854C77.7551 47.0527 78.9173 46.9233 80.0796 46.9233C88.1045 46.9233 95.3269 52.6652 97.2639 60.6055C97.2916 60.7089 97.3469 60.89 97.4023 61.1486C97.9557 63.4505 100.086 74.9859 91.8679 89.0042C105.732 98.3929 109.08 109.696 109.606 111.972C109.661 112.23 109.716 112.411 109.716 112.515C111.875 121.774 106.23 130.878 97.1256 132.792Z" fill="white"/>
<path d="M109.578 111.972C109.025 109.67 105.704 98.367 91.8404 89.0042C100.087 74.9859 97.9282 63.4246 97.3748 61.1486C97.3194 60.89 97.2641 60.7089 97.2364 60.6054C95.2994 52.691 88.0769 46.9233 80.052 46.9233C78.8898 46.9233 77.7553 47.0527 76.593 47.2854C67.4889 49.1994 61.8438 58.2777 64.0299 67.5629C64.0576 67.6663 64.0852 67.8474 64.1406 68.106C64.694 70.4079 68.0424 81.7105 81.9061 91.0992C73.6598 105.118 75.8182 116.679 76.3717 118.955C76.427 119.213 76.4823 119.395 76.51 119.498C78.4471 127.412 85.6695 133.18 93.6944 133.18C94.8566 133.18 95.9912 133.077 97.1257 132.818C106.23 130.904 111.875 121.8 109.689 112.541C109.661 112.411 109.633 112.204 109.578 111.972ZM71.3907 66.5542L71.3353 66.2955L71.28 66.0886C69.9241 60.502 73.051 55.0964 78.2257 54.0101C78.8345 53.8808 79.4433 53.8291 80.052 53.8291C84.6733 53.8291 88.8518 57.3466 90.014 62.1832L90.0693 62.3642L90.1524 62.6487C90.5674 64.4333 92.2554 73.5116 85.6971 85.0729C74.4346 77.2361 71.8058 68.3388 71.3907 66.5542ZM95.4931 126.016C94.8843 126.145 94.2755 126.197 93.6667 126.197C89.0455 126.197 84.867 122.679 83.7048 117.843L83.6494 117.636L83.5941 117.377C83.179 115.593 81.491 106.514 88.0493 94.953C99.2841 102.79 101.913 111.661 102.328 113.446L102.383 113.704L102.411 113.911C103.767 119.524 100.668 124.929 95.4931 126.016Z" fill="#E22691"/>
</svg>
