<svg width="180" height="180" viewBox="0 0 180 180" fill="none" xmlns="http://www.w3.org/2000/svg">
<circle cx="90" cy="90" r="90" fill="#E22691"/>
<path d="M90.1247 47.6229L90.0693 47.3384L90.014 47.1573C88.8517 42.3207 84.6733 38.8032 80.052 38.8032C79.4432 38.8032 78.8345 38.8808 78.2257 39.0101C73.051 40.0964 69.9517 45.502 71.28 51.0887L71.3353 51.2956L71.3907 51.5542C71.8057 53.3388 74.4346 62.2102 85.6695 70.0471C92.2277 58.4858 90.5397 49.4075 90.1247 47.6229Z" fill="white"/>
<path d="M102.384 98.7305L102.328 98.4718C101.913 96.6872 99.2842 87.8158 88.0494 79.979C81.4634 91.5403 83.1514 100.619 83.5942 102.403L83.6495 102.662L83.7049 102.869C84.8671 107.705 89.0456 111.223 93.6668 111.223C94.2756 111.223 94.8844 111.145 95.4932 111.016C100.668 109.93 103.767 104.524 102.439 98.9374L102.384 98.7305Z" fill="white"/>
<path d="M108.803 72.2196V71.9092C118.737 67.4089 124.659 58.5892 124.659 48.3729C124.659 30.2422 107.89 20 84.3134 20H50V130H84.8668C108.997 130 130 120.094 130 98.0837C129.972 86.9622 123.165 75.7889 108.803 72.2196ZM97.1256 117.792C95.991 118.025 94.8288 118.154 93.6942 118.154C85.6693 118.154 78.4469 112.412 76.5099 104.472C76.4822 104.369 76.4268 104.188 76.3715 103.929C75.8181 101.627 73.6873 90.0917 81.9059 76.0734C68.0422 66.6847 64.7215 55.3821 64.1681 53.106C64.1128 52.8474 64.0574 52.6664 64.0574 52.5629C61.8713 43.2777 67.5164 34.1994 76.6206 32.2854C77.7551 32.0527 78.9173 31.9233 80.0796 31.9233C88.1045 31.9233 95.3269 37.6652 97.2639 45.6055C97.2916 45.7089 97.3469 45.89 97.4023 46.1486C97.9557 48.4505 100.086 59.9859 91.8679 74.0042C105.732 83.3929 109.08 94.6955 109.606 96.9716C109.661 97.2302 109.716 97.4112 109.716 97.5147C111.875 106.774 106.23 115.878 97.1256 117.792Z" fill="white"/>
<path d="M109.578 96.9715C109.025 94.6696 105.704 83.367 91.8404 74.0042C100.087 59.9859 97.9282 48.4246 97.3748 46.1486C97.3194 45.89 97.2641 45.7089 97.2364 45.6054C95.2994 37.691 88.0769 31.9233 80.052 31.9233C78.8898 31.9233 77.7553 32.0527 76.593 32.2854C67.4889 34.1994 61.8438 43.2777 64.0299 52.5629C64.0576 52.6663 64.0852 52.8474 64.1406 53.106C64.694 55.4079 68.0424 66.7105 81.9061 76.0992C73.6598 90.1176 75.8182 101.679 76.3717 103.955C76.427 104.213 76.4823 104.395 76.51 104.498C78.4471 112.412 85.6695 118.18 93.6944 118.18C94.8566 118.18 95.9912 118.077 97.1257 117.818C106.23 115.904 111.875 106.8 109.689 97.5406C109.661 97.4112 109.633 97.2043 109.578 96.9715ZM71.3907 51.5542L71.3353 51.2955L71.28 51.0886C69.9241 45.502 73.051 40.0964 78.2257 39.0101C78.8345 38.8808 79.4433 38.8291 80.052 38.8291C84.6733 38.8291 88.8518 42.3466 90.014 47.1832L90.0693 47.3642L90.1524 47.6487C90.5674 49.4333 92.2554 58.5116 85.6971 70.0729C74.4346 62.2361 71.8058 53.3388 71.3907 51.5542ZM95.4931 111.016C94.8843 111.145 94.2755 111.197 93.6667 111.197C89.0455 111.197 84.867 107.679 83.7048 102.843L83.6494 102.636L83.5941 102.377C83.179 100.593 81.491 91.5142 88.0493 79.953C99.2841 87.7898 101.913 96.6612 102.328 98.4458L102.383 98.7044L102.411 98.9114C103.767 104.524 100.668 109.929 95.4931 111.016Z" fill="#E22691"/>
<path d="M43.6257 142H40V159.964H43.6257V142Z" fill="white"/>
<path d="M58.7846 160L50.67 148.255V160H47.0098V142H50.7736L58.681 153.309V142H62.3067V160H58.7846Z" fill="white"/>
<path d="M65.6904 160V142H77.7761V145.382H69.3161V149.164H77.6034V152.509H69.3161V160H65.6904Z" fill="white"/>
<path d="M83.9226 142H80.2969V159.964H83.9226V142Z" fill="white"/>
<path d="M99.0815 160L90.9669 148.255V160H87.3066V142H91.0704L98.9779 153.309V142H102.604V160H99.0815Z" fill="white"/>
<path d="M109.613 142H105.987V159.964H109.613V142Z" fill="white"/>
<path d="M116.933 160V145.382H111.961V142H125.566V145.382H120.594V160H116.933Z" fill="white"/>
<path d="M127.914 160V142H140V145.382H131.54V149.164H139.793V152.509H131.54V156.618H140V160H127.914Z" fill="white"/>
</svg>
