<svg width="500" height="350" viewBox="0 0 500 350" fill="none" xmlns="http://www.w3.org/2000/svg">
<rect width="500" height="350" rx="15" fill="white"/>
<path fill-rule="evenodd" clip-rule="evenodd" d="M51.0081 254.361C51.0081 260.605 50.4821 263.727 48.9054 266.225C46.2766 269.347 43.6479 269.971 37.8643 269.971L21.5669 269.347C21.0411 269.347 21.0411 269.971 20.5151 269.971C20.5151 269.971 20.5151 270.596 20.5151 271.219V279.961H10V240H37.8643C43.6479 240 46.2766 240 48.3794 242.497C50.4821 245.619 51.0081 247.492 51.0081 254.361ZM37.3383 259.981C38.3904 259.981 39.4413 259.981 40.4931 258.732C41.0191 257.483 41.5451 256.234 41.5451 254.361C41.5451 253.113 41.5452 251.864 40.4931 250.614C38.9153 249.366 38.3904 249.366 37.3383 249.366H21.5669C21.0411 249.366 21.0411 249.366 21.0411 249.366C20.5151 249.99 20.5151 249.99 20.5151 250.614V258.732C20.5151 259.357 20.5151 259.357 21.0411 259.981C21.0411 259.981 21.0411 259.981 21.5669 259.981H37.3383Z" fill="#E42126"/>
<path fill-rule="evenodd" clip-rule="evenodd" d="M61.5249 276.84C59.4222 274.343 58.3701 271.844 58.3701 268.098V240H68.3594V265.6C68.3594 270.596 76.7703 270.596 80.4511 270.596C83.6048 270.596 90.965 271.219 90.965 265.6V240H101.48V268.098C101.48 271.844 100.429 273.717 98.8524 276.215C95.6976 280.585 85.7086 279.961 80.4511 279.961C74.6676 279.961 64.1526 280.585 61.5249 276.84Z" fill="#E42126"/>
<path fill-rule="evenodd" clip-rule="evenodd" d="M148.27 242.497C149.848 244.996 150.373 246.869 150.373 249.989C150.373 252.488 149.848 255.61 149.322 256.858C147.745 259.357 145.642 259.357 145.642 259.98C145.642 260.605 148.27 260.605 149.322 261.854C150.898 264.351 151.426 266.224 151.426 268.722C151.426 272.468 150.898 275.59 148.796 278.088C146.693 279.961 141.961 279.961 138.282 279.961H108.314V240H137.755C141.961 240 146.693 240 148.27 242.497ZM140.909 252.488C140.909 250.614 139.859 248.741 137.755 248.741H118.303V256.234H137.755C139.859 256.234 140.909 254.361 140.909 252.488ZM141.961 267.474C141.961 264.975 140.909 263.727 137.755 263.727H118.303V270.596H138.282C141.435 270.596 141.961 269.346 141.961 267.474Z" fill="#E42126"/>
<path fill-rule="evenodd" clip-rule="evenodd" d="M192.433 270.596V279.961H157.208V240H167.723V270.596H192.433Z" fill="#E42126"/>
<path fill-rule="evenodd" clip-rule="evenodd" d="M199.267 240H209.781V279.961H199.267V240Z" fill="#E42126"/>
<path fill-rule="evenodd" clip-rule="evenodd" d="M258.676 264.975C258.676 264.975 259.727 273.093 257.099 276.215C254.469 279.336 245.532 279.961 238.172 279.961C230.812 279.961 221.349 279.336 219.246 276.215C216.617 271.219 216.617 265.6 216.617 259.98C216.617 253.736 217.143 247.492 219.772 243.122C221.874 240.625 230.812 240 238.172 240C246.058 240 253.944 240.625 256.047 243.122C258.676 246.869 258.15 253.736 258.15 253.736H249.212C249.212 253.736 249.212 252.488 248.161 250.614C246.584 249.366 242.378 249.366 238.172 249.366C233.44 249.366 229.234 249.366 227.657 251.239C226.606 253.113 226.08 256.858 226.08 259.98C226.08 263.102 226.08 266.224 227.657 268.722C228.709 270.596 233.44 270.596 238.172 270.596C242.378 270.596 246.584 270.596 248.161 269.346C249.738 267.474 249.212 264.975 249.212 264.975H258.676Z" fill="#E42126"/>
<path fill-rule="evenodd" clip-rule="evenodd" d="M325.444 242.497C327.547 244.996 327.547 246.869 327.547 249.989C327.547 252.488 327.02 255.61 326.495 256.858C324.917 259.357 322.814 259.357 322.814 259.98C322.814 260.605 325.444 260.605 326.495 261.854C328.071 264.351 328.598 266.224 328.598 268.722C328.598 272.468 328.071 275.59 325.971 278.088C323.868 279.961 319.135 279.961 315.453 279.961H286.014V240H314.929C319.135 240 323.868 240 325.444 242.497ZM318.083 252.488C318.083 250.614 317.032 248.741 314.929 248.741H295.477V256.234H314.929C317.032 256.234 318.083 254.361 318.083 252.488ZM319.135 267.474C319.135 264.975 318.083 263.727 314.929 263.727H295.477V270.596H315.453C318.61 270.596 319.135 269.346 319.135 267.474Z" fill="#E42126"/>
<path fill-rule="evenodd" clip-rule="evenodd" d="M331.753 279.961L350.68 240H365.925L383.801 279.961H372.762L369.08 271.844H346.474L342.792 279.961H331.753ZM350.68 263.727C350.68 264.351 350.68 264.351 351.204 264.351H364.874C365.401 264.351 365.401 264.351 365.401 263.727C365.925 263.727 365.925 263.102 365.925 263.102L360.144 249.366C360.144 248.741 359.616 248.741 359.616 248.741C359.616 248.117 359.089 248.117 359.089 248.117H357.513C357.513 248.117 356.989 248.117 356.989 248.741C356.989 248.741 356.989 248.741 356.462 249.366L350.68 262.478C350.68 263.102 350.153 263.102 350.68 263.727Z" fill="#E42126"/>
<path fill-rule="evenodd" clip-rule="evenodd" d="M401.677 251.239C401.15 249.989 401.15 249.989 400.098 249.989C399.047 249.989 399.047 249.989 399.047 251.239V279.961H389.583V240H406.934L423.755 268.722C424.283 269.971 424.81 269.971 425.858 269.971C426.386 269.971 426.386 269.971 426.386 268.722V240H435.849V279.961H418.498L401.677 251.239Z" fill="#E42126"/>
<path fill-rule="evenodd" clip-rule="evenodd" d="M454.249 265.6V279.961H444.261V240H454.249V253.736V254.361C454.776 254.985 455.3 254.985 455.3 254.985H460.558L473.703 240H488.421L468.97 259.357L490 279.961H475.279L460.031 264.351H455.3C454.776 264.351 454.776 264.351 454.249 264.351C454.249 264.975 454.249 264.975 454.249 265.6Z" fill="#E42126"/>
<path fill-rule="evenodd" clip-rule="evenodd" d="M306.689 81.7465L274.192 50H227.02L194 82.2683V115.575L199.242 120.26L194 124.943V158.252L226.497 190H274.717L306.689 158.774V124.424L301.973 120.26L306.689 116.097V81.7465ZM250.606 180.112L211.82 141.598L216.014 137.434L226.497 147.324H274.717L285.2 136.915L289.916 141.598L250.606 180.112ZM233.31 120.26L250.606 103.087L268.427 120.26L250.606 137.434L233.31 120.26ZM285.2 103.087L274.192 92.6775H227.02L216.014 103.606L211.82 98.923L250.606 60.4091L289.916 98.923L285.2 103.087Z" fill="#E42126"/>
</svg>
