<svg width="350" height="150" viewBox="0 0 350 150" fill="none" xmlns="http://www.w3.org/2000/svg">
<path fill-rule="evenodd" clip-rule="evenodd" d="M29.9018 134.37C29.9018 138.176 29.5182 140.079 28.3685 141.602C26.4517 143.505 24.5349 143.886 20.3178 143.886L8.43419 143.505C8.05083 143.505 8.05083 143.886 7.66727 143.886C7.66727 143.886 7.66727 144.267 7.66727 144.647V149.976H0V125.615H20.3178C24.5349 125.615 26.4517 125.615 27.985 127.137C29.5182 129.04 29.9018 130.182 29.9018 134.37ZM19.9342 137.795C20.7013 137.795 21.4676 137.795 22.2346 137.034C22.6181 136.273 23.0017 135.511 23.0017 134.37C23.0017 133.609 23.0017 132.847 22.2346 132.085C21.0841 131.324 20.7013 131.324 19.9342 131.324H8.43419C8.05083 131.324 8.05083 131.324 8.05083 131.324C7.66727 131.705 7.66727 131.705 7.66727 132.085V137.034C7.66727 137.415 7.66727 137.415 8.05083 137.795C8.05083 137.795 8.05083 137.795 8.43419 137.795H19.9342Z" fill="#E42126"/>
<path fill-rule="evenodd" clip-rule="evenodd" d="M37.5699 148.073C36.0366 146.551 35.2695 145.028 35.2695 142.744V125.615H42.5534V141.221C42.5534 144.267 48.6863 144.267 51.3703 144.267C53.6698 144.267 59.0367 144.647 59.0367 141.221V125.615H66.7039V142.744C66.7039 145.028 65.9376 146.169 64.7879 147.693C62.4875 150.357 55.2039 149.976 51.3703 149.976C47.1531 149.976 39.4859 150.357 37.5699 148.073Z" fill="#E42126"/>
<path fill-rule="evenodd" clip-rule="evenodd" d="M100.821 127.137C101.972 128.66 102.355 129.802 102.355 131.704C102.355 133.228 101.972 135.131 101.589 135.892C100.439 137.415 98.9055 137.415 98.9055 137.795C98.9055 138.176 100.821 138.176 101.589 138.938C102.738 140.46 103.123 141.602 103.123 143.124C103.123 145.408 102.738 147.312 101.205 148.834C99.6718 149.976 96.2218 149.976 93.5386 149.976H71.6875V125.614H93.1543C96.2218 125.614 99.6718 125.614 100.821 127.137ZM95.4546 133.228C95.4546 132.085 94.6885 130.943 93.1543 130.943H78.9705V135.511H93.1543C94.6885 135.511 95.4546 134.369 95.4546 133.228ZM96.2218 142.363C96.2218 140.84 95.4546 140.079 93.1543 140.079H78.9705V144.267H93.5386C95.8382 144.267 96.2218 143.505 96.2218 142.363Z" fill="#E42126"/>
<path fill-rule="evenodd" clip-rule="evenodd" d="M133.024 144.267V149.976H107.339V125.614H115.006V144.267H133.024Z" fill="#E42126"/>
<path fill-rule="evenodd" clip-rule="evenodd" d="M138.007 125.614H145.673V149.976H138.007V125.614Z" fill="#E42126"/>
<path fill-rule="evenodd" clip-rule="evenodd" d="M181.326 140.84C181.326 140.84 182.093 145.789 180.176 147.692C178.259 149.595 171.742 149.976 166.375 149.976C161.008 149.976 154.108 149.595 152.575 147.692C150.658 144.647 150.658 141.221 150.658 137.795C150.658 133.989 151.042 130.182 152.958 127.518C154.491 125.995 161.008 125.614 166.375 125.614C172.126 125.614 177.876 125.995 179.409 127.518C181.326 129.802 180.943 133.989 180.943 133.989H174.425C174.425 133.989 174.425 133.228 173.659 132.085C172.509 131.324 169.442 131.324 166.375 131.324C162.925 131.324 159.858 131.324 158.708 132.466C157.942 133.608 157.558 135.892 157.558 137.795C157.558 139.698 157.558 141.602 158.708 143.124C159.475 144.267 162.925 144.267 166.375 144.267C169.442 144.267 172.509 144.267 173.659 143.505C174.809 142.363 174.425 140.84 174.425 140.84H181.326Z" fill="#E42126"/>
<path fill-rule="evenodd" clip-rule="evenodd" d="M230.011 127.137C231.544 128.66 231.544 129.802 231.544 131.704C231.544 133.228 231.16 135.131 230.778 135.892C229.626 137.415 228.093 137.415 228.093 137.795C228.093 138.176 230.011 138.176 230.778 138.938C231.927 140.46 232.311 141.602 232.311 143.124C232.311 145.408 231.927 147.312 230.395 148.834C228.862 149.976 225.41 149.976 222.726 149.976H201.26V125.614H222.344C225.41 125.614 228.862 125.614 230.011 127.137ZM224.644 133.228C224.644 132.085 223.877 130.943 222.344 130.943H208.16V135.511H222.344C223.877 135.511 224.644 134.369 224.644 133.228ZM225.41 142.363C225.41 140.84 224.644 140.079 222.344 140.079H208.16V144.267H222.726C225.028 144.267 225.41 143.505 225.41 142.363Z" fill="#E42126"/>
<path fill-rule="evenodd" clip-rule="evenodd" d="M234.611 149.976L248.412 125.614H259.529L272.563 149.976H264.513L261.829 145.027H245.345L242.661 149.976H234.611ZM248.412 140.079C248.412 140.46 248.412 140.46 248.795 140.46H258.762C259.146 140.46 259.146 140.46 259.146 140.079C259.529 140.079 259.529 139.698 259.529 139.698L255.313 131.324C255.313 130.943 254.928 130.943 254.928 130.943C254.928 130.563 254.544 130.563 254.544 130.563H253.395C253.395 130.563 253.013 130.563 253.013 130.943C253.013 130.943 253.013 130.943 252.628 131.324L248.412 139.318C248.412 139.698 248.028 139.698 248.412 140.079Z" fill="#E42126"/>
<path fill-rule="evenodd" clip-rule="evenodd" d="M285.598 132.466C285.213 131.704 285.213 131.704 284.447 131.704C283.68 131.704 283.68 131.704 283.68 132.466V149.976H276.779V125.614H289.431L301.697 143.124C302.081 143.886 302.465 143.886 303.23 143.886C303.615 143.886 303.615 143.886 303.615 143.124V125.614H310.515V149.976H297.863L285.598 132.466Z" fill="#E42126"/>
<path fill-rule="evenodd" clip-rule="evenodd" d="M323.931 141.221V149.976H316.648V125.614H323.931V133.989V134.369C324.316 134.75 324.698 134.75 324.698 134.75H328.532L338.117 125.614H348.849L334.665 137.415L350 149.976H339.266L328.147 140.46H324.698C324.316 140.46 324.316 140.46 323.931 140.46C323.931 140.84 323.931 140.84 323.931 141.221Z" fill="#E42126"/>
<path fill-rule="evenodd" clip-rule="evenodd" d="M215.443 23.219L191.675 -0.000205994H157.174L133.023 23.6006V47.9608L136.857 51.3877L133.023 54.8126V79.1748L156.791 102.395H192.059L215.443 79.5564V54.433L211.994 51.3877L215.443 48.3424V23.219ZM174.424 95.1625L146.057 66.9937L149.124 63.9485L156.791 71.182H192.059L199.727 63.5688L203.176 66.9937L174.424 95.1625ZM161.775 51.3877L174.424 38.827L187.459 51.3877L174.424 63.9485L161.775 51.3877ZM199.727 38.827L191.675 31.2138H157.174L149.124 39.2066L146.057 35.7817L174.424 7.61297L203.176 35.7817L199.727 38.827Z" fill="#E42126"/>
</svg>
