<svg width="800" height="180" viewBox="0 0 800 180" fill="none" xmlns="http://www.w3.org/2000/svg">
<rect width="800" height="180" rx="15" fill="white"/>
<path fill-rule="evenodd" clip-rule="evenodd" d="M124.809 36.709L133.23 44.8913H80.4199C80.4199 44.8913 75.9808 45.3494 75.2896 48.6258C74.6012 51.9022 75.2896 53.2764 75.2896 53.2764L66.8721 60.9758V45.3494C66.8721 45.3494 69.4017 36.709 78.3491 36.709H124.809ZM86.2904 48.1285L98.0507 47.9851L60.7097 85.1833C60.7097 85.1833 57.8959 88.6347 59.7334 91.4367C61.5718 94.2397 63.033 94.7265 63.033 94.7265L62.5472 106.099L51.4551 95.0497C51.4551 95.0497 47.1101 87.159 53.4366 80.8559L86.2904 48.1285ZM66.7732 83.6618L74.9881 75.2757V127.883C74.9881 127.883 75.446 132.303 78.737 132.992C82.027 133.679 83.4056 132.992 83.4056 132.992L91.1347 141.378H75.446C75.446 141.378 66.7732 138.857 66.7732 129.943V83.6618ZM79.9034 123.139L79.7575 111.425L117.1 148.621C117.1 148.621 120.563 151.426 123.379 149.594C126.191 147.764 126.679 146.307 126.679 146.307L138.096 146.793L127.004 157.842C127.004 157.842 119.082 162.168 112.755 155.866L79.9034 123.139ZM172.777 94.5228L164.564 102.911V50.3022C164.564 50.3022 164.104 45.8802 160.815 45.1935C157.526 44.5059 156.144 45.1935 156.144 45.1935L148.418 36.8075H164.104C164.104 36.8075 172.777 39.3265 172.777 48.2413V94.5228ZM159.649 56.1511L159.792 67.8671L122.452 30.6679C122.452 30.6679 118.988 27.8649 116.173 29.6963C113.358 31.5276 112.872 32.9841 112.872 32.9841L101.454 32.4983L112.547 21.4489C112.547 21.4489 120.468 17.1215 126.796 23.4237L159.649 56.1511ZM153.71 129.141L141.95 129.285L179.29 92.086C179.29 92.086 182.106 88.6356 180.268 85.8326C178.428 83.0296 176.966 82.5438 176.966 82.5438L177.453 71.1712L188.546 82.2196C188.546 82.2196 192.889 90.1122 186.563 96.4144L153.71 129.141ZM114.677 141.464L106.258 133.284H159.068C159.068 133.284 163.509 132.825 164.197 129.547C164.886 126.271 164.197 124.898 164.197 124.898L172.616 117.198V132.825C172.616 132.825 170.087 141.464 161.139 141.464H114.677ZM138.912 62.8626H149.455V115.929H92.857V106.53H138.912V62.8626ZM135.307 62.8626V102.108H92.857V92.1587H125.041V62.8626H135.307ZM120.879 62.8626V87.7367H92.857V78.3408H110.89V62.8626H120.879ZM92.857 62.4715H94.3488L94.2836 63.7252C94.2836 63.7252 94.945 62.4132 95.4308 62.4084H105.63L105.632 63.4775L95.7486 63.4728C95.7486 63.4728 94.5648 65.9315 94.4746 68.7182C94.3488 72.6965 95.4941 73.9637 95.4941 73.9637H105.758L105.693 75.2308H95.3655C95.3655 75.2308 94.8567 75.1046 94.4746 74.0909V75.0414H92.857V62.4715ZM96.1249 73.2282V65.2573C96.1249 65.2573 96.4177 64.4176 97.1569 64.4176H105.667V65.6933H97.3268V67.2388H105.667V68.503H97.3268V73.2282H96.1249ZM98.3732 68.8397H99.485V70.9551H104.465V68.8062H105.632V73.2627H104.43V71.9965H99.4187V73.2627H98.3732V68.8397ZM110.249 81.7415H118.602C118.602 81.7415 118.392 82.7351 117.423 82.8317C116.453 82.9283 115.61 81.9624 114.125 82.5419C112.645 83.1224 112.256 84.1361 112.256 84.1361C112.256 84.1361 111.286 83.3146 110.9 82.8317C110.512 82.3497 110.249 81.7415 110.249 81.7415ZM113.178 79.2311C113.178 79.2311 113.149 78.0443 113.615 76.4989C114.078 74.9535 115.145 73.9876 115.145 73.9876C115.145 73.9876 115.095 74.9047 115.242 75.4852C115.388 76.0647 116.018 76.8652 116.018 76.8652C116.018 76.8652 116.355 75.7262 116.842 75.051C117.327 74.3739 117.86 73.891 117.86 73.891C117.86 73.891 117.423 76.1403 117.617 77.1071C117.812 78.072 118.197 79.2789 118.197 79.2789L113.178 79.2311ZM113.178 84.6669C113.178 84.6669 113.448 83.459 114.66 83.459C115.873 83.459 116.066 83.9429 117.083 83.7488C118.102 83.5566 118.76 83.2668 118.76 83.2668C118.76 83.2668 118.052 84.3283 116.888 84.4727C115.727 84.6191 115.368 83.8942 114.418 84.0873C113.469 84.2815 113.178 84.6669 113.178 84.6669ZM113.904 85.5639C113.904 85.5639 114.175 84.86 115.194 84.86C116.211 84.86 116.308 85.2942 116.938 85.2454C117.568 85.1986 118.102 84.86 118.102 84.86C118.102 84.86 117.52 85.7571 116.743 85.8058C115.969 85.8537 115.388 85.342 114.855 85.3908C114.32 85.4396 113.904 85.5639 113.904 85.5639ZM102.984 81.1734H107.353V85.3879H102.984V81.1734ZM102.984 94.9923H107.353V99.2078H102.984V94.9923ZM109.92 94.9923H114.29V99.2078H109.92V94.9923ZM128.105 82.7064H131.781L133.384 100.165H126.416L128.105 82.7064ZM130.015 81.8687C131.391 81.8687 133.078 80.7957 133.155 78.2843C133.216 76.2856 130.625 74.0975 130.243 72.949C129.862 71.7995 129.786 71.1903 129.786 71.1903C129.786 71.1903 129.037 72.2882 128.717 73.4061C128.409 74.4705 125.882 76.4492 126.34 78.817C126.669 80.503 127.876 81.8687 130.015 81.8687ZM128.738 113.899C128.738 113.899 131.151 110.77 134.786 110.77C138.421 110.77 141.189 113.777 141.189 113.777L128.738 113.899ZM135.9 107.029C135.9 107.029 134.662 107.196 134.662 108.245C134.662 109.291 135.837 109.6 135.837 109.6C135.837 109.6 135.157 109.029 135.279 108.182C135.406 107.337 135.9 107.029 135.9 107.029ZM102.784 112.234H108.894V108.86H115.049V110.033H110.794V112.297H114.863V113.652H102.784V112.234ZM142.382 95.7526H145.711V113.855H142.382V95.7526ZM142.382 82.5849H145.711V90.4957H142.382V82.5849ZM141.27 78.2021H146.82V81.3809H141.27V78.2021ZM141.27 91.3305H146.82V94.5075H141.27V91.3305ZM142.66 77.373V74.6082C142.66 74.6082 142.796 73.0896 144.323 73.0896C145.849 73.0896 145.71 74.4705 145.71 74.4705V77.373H142.66ZM144.64 69.1648C144.64 69.1648 143.402 69.3322 143.402 70.3803C143.402 71.4284 144.577 71.7373 144.577 71.7373C144.577 71.7373 143.896 71.1645 144.022 70.3191C144.144 69.4727 144.64 69.1648 144.64 69.1648Z" fill="#00934C"/>
<path fill-rule="evenodd" clip-rule="evenodd" d="M342.605 132.145C343.027 131.43 343.238 130.338 343.238 128.875V125.703C342.88 126.061 342.483 126.281 341.947 126.361C341.409 126.444 340.818 126.63 340.168 126.921C339.486 127.249 339.013 127.679 338.754 128.217C338.494 128.752 338.365 129.46 338.365 130.338C338.365 131.22 338.559 131.917 338.949 132.438C339.339 132.957 339.858 133.219 340.509 133.219C341.483 133.219 342.182 132.86 342.605 132.145ZM343.435 137.039L343.238 135.471C342.651 136.646 341.879 137.528 340.821 138.115C339.76 138.702 338.549 138.997 337.181 138.997C335.847 138.997 334.715 138.828 333.787 138.485C332.859 138.142 332.101 137.63 331.516 136.947C330.93 136.263 330.507 135.45 330.246 134.505C329.985 133.56 329.854 132.519 329.854 131.379C329.854 130.142 329.977 129.069 330.221 128.155C330.465 127.245 330.865 126.453 331.418 125.786C331.972 125.12 332.719 124.549 333.664 124.078C334.609 123.606 335.782 123.206 337.181 122.881L340.649 122.049C341.593 121.822 342.26 121.489 342.651 121.05C343.043 120.609 343.238 119.983 343.238 119.169C343.238 117.541 342.493 116.727 341.001 116.727C340.158 116.727 339.54 116.959 339.153 117.425C338.763 117.89 338.551 118.815 338.52 120.194H330.862C330.862 118.28 331.204 116.745 331.891 115.592C332.577 114.44 333.428 113.549 334.442 112.914C335.456 112.281 336.551 111.86 337.729 111.649C338.907 111.437 340.003 111.333 341.017 111.333C342.554 111.333 343.969 111.455 345.26 111.699C346.551 111.945 347.664 112.383 348.596 113.021C349.529 113.654 350.247 114.517 350.756 115.609C351.262 116.702 351.515 118.11 351.515 119.835V132.74C351.515 133.978 351.564 135.07 351.661 136.014C351.76 136.96 351.988 137.774 352.348 138.457H343.78C343.615 138.002 343.5 137.528 343.435 137.039ZM251.009 103.548V116.947L257.873 103.548H267.585L258.756 118.802L268.664 138.457H258.267L252.921 126.285L251.009 129.215V138.457H241.879V103.548H251.009ZM277.965 112.024V129.473C277.965 130.58 278.128 131.379 278.458 131.868C278.786 132.357 279.342 132.602 280.131 132.602C280.918 132.602 281.475 132.357 281.805 131.868C282.132 131.379 282.298 130.58 282.298 129.473V112.024H291.116V138.457H282.607L282.591 135.234C281.414 137.744 279.266 138.997 276.084 138.997C275.1 138.997 274.189 138.908 273.352 138.729C272.516 138.549 271.787 138.191 271.164 137.653C270.539 137.116 270.048 136.383 269.687 135.454C269.326 134.525 269.146 133.361 269.146 131.961V112.024H277.965ZM301.401 112.024L303.61 131.031L306.307 112.024H315.723L318.323 131.031L320.629 112.024H329.161L323.768 138.457H313.762L311.066 119.744L308.269 138.457H298.263L292.867 112.024H301.401ZM369.353 112.024V104.242H378.173V112.024H381.655V117.959H378.173V130.552C378.173 131.299 378.343 131.831 378.687 132.139C379.03 132.446 379.561 132.602 380.282 132.602H381.655V138.457C380.838 138.457 380.02 138.482 379.202 138.534C378.385 138.585 377.601 138.613 376.85 138.613C375.51 138.613 374.366 138.553 373.419 138.44C372.472 138.329 371.698 138.044 371.092 137.588C370.489 137.133 370.047 136.457 369.769 135.56C369.492 134.665 369.353 133.486 369.353 132.021V117.959H366.409V112.024H369.353ZM417.448 103.548V110.946H405.825V116.956H416.713V124.125H405.825V138.457H396.696V103.548H417.448ZM441.076 112.024V115.242C442.286 112.635 444.434 111.333 447.583 111.333C448.566 111.333 449.479 111.437 450.315 111.649C451.151 111.862 451.88 112.244 452.504 112.799C453.126 113.353 453.619 114.086 453.98 114.998C454.34 115.911 454.522 117.084 454.522 118.515V138.457H445.701V121.01C445.701 119.903 445.537 119.105 445.208 118.616C444.88 118.127 444.323 117.883 443.537 117.883C442.747 117.883 442.19 118.127 441.861 118.616C441.533 119.105 441.37 119.903 441.37 121.01V138.457H432.552V112.024H441.076ZM491.098 112.024V115.242C492.308 112.635 494.457 111.333 497.605 111.333C498.589 111.333 499.5 111.437 500.337 111.649C501.174 111.862 501.902 112.244 502.526 112.799C503.149 113.353 503.641 114.086 504.002 114.998C504.363 115.911 504.544 117.084 504.544 118.515V138.457H495.724V121.01C495.724 119.903 495.561 119.105 495.231 118.616C494.902 118.127 494.344 117.883 493.558 117.883C492.77 117.883 492.212 118.127 491.884 118.616C491.554 119.105 491.391 119.903 491.391 121.01V138.457H482.573V112.024H491.098ZM521.08 119.795C520.983 119.129 520.836 118.583 520.643 118.157C520.285 117.41 519.637 117.035 518.697 117.035C518.21 117.035 517.797 117.157 517.456 117.401C517.115 117.642 516.85 118.081 516.654 118.716C516.46 119.348 516.323 120.194 516.241 121.248C516.161 122.304 516.119 123.642 516.119 125.267C516.119 126.89 516.161 128.231 516.241 129.285C516.323 130.34 516.46 131.177 516.654 131.793C516.85 132.408 517.115 132.84 517.456 133.083C517.797 133.327 518.21 133.448 518.697 133.448C519.507 133.448 520.132 133.138 520.571 132.521C521.009 131.902 521.225 130.763 521.225 129.102V127.39H529.193C529.193 129.477 529.016 131.253 528.654 132.72C528.297 134.189 527.693 135.396 526.843 136.346C525.178 138.115 522.467 138.997 518.713 138.997C517.014 138.997 515.464 138.849 514.06 138.558C512.655 138.263 511.457 137.637 510.46 136.677C509.465 135.715 508.688 134.362 508.135 132.619C507.578 130.876 507.301 128.571 507.301 125.703C507.301 122.574 507.61 120.067 508.232 118.176C508.853 116.287 509.691 114.835 510.752 113.825C511.815 112.815 513.063 112.146 514.5 111.822C515.936 111.497 517.488 111.333 519.154 111.333C521.112 111.333 522.736 111.603 524.028 112.142C525.316 112.684 526.345 113.437 527.112 114.404C527.878 115.373 528.418 116.533 528.729 117.886C529.039 119.241 529.193 120.747 529.193 122.408H521.225C521.225 121.335 521.177 120.464 521.08 119.795ZM577.516 103.548V116.419H583.086V103.548H592.214V138.457H583.086V124.125H577.516V138.457H568.387V103.548H577.516ZM629.491 112.024V129.473C629.491 130.58 629.656 131.379 629.986 131.868C630.313 132.357 630.868 132.602 631.657 132.602C632.444 132.602 633.001 132.357 633.329 131.868C633.658 131.379 633.823 130.58 633.823 129.473V112.024H642.642V138.457H634.132L634.119 135.234C632.94 137.744 630.791 138.997 627.609 138.997C626.625 138.997 625.715 138.908 624.879 138.729C624.041 138.549 623.312 138.191 622.692 137.653C622.067 137.116 621.573 136.383 621.213 135.454C620.854 134.525 620.672 133.361 620.672 131.961V112.024H629.491ZM653.119 131.755C653.217 132.212 653.377 132.585 653.608 132.878C654.032 133.496 654.652 133.808 655.467 133.808C656.151 133.808 656.746 133.613 657.251 133.223C657.756 132.831 658.01 132.278 658.01 131.56C658.01 130.778 657.689 130.176 657.055 129.751C656.419 129.328 655.628 128.95 654.684 128.625L651.627 127.596C650.535 127.237 649.514 126.746 648.57 126.124C647.625 125.504 646.834 124.682 646.199 123.652C645.562 122.623 645.247 121.275 645.247 119.609C645.247 118.435 645.455 117.351 645.881 116.354C646.307 115.356 646.952 114.483 647.82 113.732C648.686 112.981 649.782 112.395 651.107 111.969C652.432 111.543 653.989 111.333 655.789 111.333C662.429 111.333 665.746 114.106 665.746 119.654H658.088C658.088 118.515 657.885 117.744 657.48 117.336C657.076 116.929 656.502 116.727 655.758 116.727C655.109 116.727 654.574 116.907 654.155 117.263C653.733 117.621 653.524 118.127 653.524 118.776C653.524 119.528 653.841 120.089 654.476 120.464C655.111 120.837 655.904 121.17 656.848 121.464L659.904 122.392C660.997 122.718 662.017 123.182 662.962 123.785C663.905 124.386 664.696 125.201 665.332 126.226C665.967 127.253 666.288 128.61 666.288 130.304C666.288 131.607 666.042 132.797 665.55 133.871C665.059 134.943 664.367 135.872 663.467 136.654C662.567 137.436 661.455 138.022 660.131 138.412C658.806 138.802 657.311 138.997 655.643 138.997C651.946 138.997 649.29 138.267 647.672 136.808C646.053 135.349 645.247 133.177 645.247 130.289H652.974C652.974 130.81 653.02 131.299 653.119 131.755ZM676.925 130.203C676.925 131.63 677.169 132.581 677.658 133.051C678.143 133.522 678.697 133.759 679.313 133.759C680.093 133.759 680.702 133.44 681.14 132.805C681.578 132.167 681.798 130.958 681.798 129.164H689.768C689.702 132.424 688.868 134.875 687.266 136.526C685.666 138.175 683.034 138.997 679.379 138.997C677.254 138.997 675.473 138.76 674.036 138.288C672.598 137.816 671.441 137.035 670.557 135.943C669.675 134.851 669.044 133.425 668.669 131.666C668.294 129.908 668.106 127.771 668.106 125.264C668.106 122.72 668.317 120.57 668.74 118.811C669.166 117.051 669.838 115.618 670.749 114.508C671.664 113.401 672.831 112.593 674.253 112.09C675.672 111.586 677.379 111.333 679.371 111.333C681.134 111.333 682.674 111.543 683.998 111.969C685.321 112.393 686.431 113.102 687.33 114.094C688.225 115.091 688.896 116.396 689.34 118.011C689.779 119.624 690 121.642 690 124.054V126.744H676.925V130.203ZM681.214 117.706C680.874 117.053 680.234 116.727 679.299 116.727C678.395 116.727 677.775 117.053 677.435 117.706C677.094 118.359 676.925 119.389 676.925 120.79V121.965H681.721V120.79C681.721 119.389 681.553 118.359 681.214 117.706ZM688.666 45.4013V70.8292H609.612V45.7504H625.706V52.3807H619.061V62.1371H645.299V45.4013H652.982V62.1371H662.766V45.4013H670.826V62.1371H680.271V45.4013H688.666ZM587.592 33.566H595.641V70.8292H587.592V33.566ZM572.902 33.4747H580.58V70.8292H512.059C512.059 70.8292 511.365 79.5638 504.354 82.3398C497.353 85.1137 492.108 82.3398 492.108 82.3398C492.108 82.3398 496.658 81.9928 500.859 77.8096C505.051 73.6233 503.315 70.8292 503.315 70.8292H488.972V45.4013H512.059V62.1371H520.089V45.7504H544.917V62.1371H555.753V45.7504H564.5V62.1371H572.902V33.4747ZM496.658 54.1168H504.354V62.1382H496.658V54.1168ZM528.489 54.1168H536.542V62.1382H528.489V54.1168ZM481.617 45.7504V70.8292H460.29C460.29 70.8292 456.789 83.1983 445.952 83.3819C424.977 83.7278 433.724 55.8507 433.724 55.8507C433.724 55.8507 432.39 71.8448 442.794 71.8936C454.012 71.9371 452.235 62.1371 452.235 62.1371V33.912H460.642V62.1371H472.872V45.7504H481.617ZM411.677 33.566H419.733V70.8292H411.677V33.566ZM403.976 33.566V70.8292H335.171C335.171 70.8292 333.844 79.1595 329.143 81.9928C324.866 84.5693 315.85 83.7278 315.85 83.7278C315.85 83.7278 322.483 80.2578 324.597 77.4584C326.704 74.6622 326.36 70.8292 326.36 70.8292H311.667V45.7504H335.081V62.1371H379.866V53.4249H349.776C349.776 53.4249 344.182 53.098 344.182 47.1576C344.182 41.216 348.725 38.7912 348.725 38.7912L362.022 28.0001H377.405L356.435 44.7084H380.91C380.91 44.7084 387.899 45.4013 388.247 50.6276C388.589 55.8507 388.247 62.1371 388.247 62.1371H396.299V33.566H403.976ZM320.076 53.548H326.75V62.1371H320.076V53.548ZM304.249 45.4926V70.8292H272.287V54.1168H263.915V70.8292H240V45.2082H249.791V61.2553H256.178L256.28 44.9535L280.911 44.928V62.1371H295.876V45.4926H304.249ZM253.106 79.6296C253.106 77.1135 255.058 75.0739 257.45 75.0739C259.848 75.0739 261.799 77.1135 261.799 79.6296C261.799 82.1467 259.848 84.1884 257.45 84.1884C255.058 84.1884 253.106 82.1467 253.106 79.6296ZM243.037 79.6296C243.037 77.1135 244.977 75.0739 247.384 75.0739C249.778 75.0739 251.727 77.1135 251.727 79.6296C251.727 82.1467 249.778 84.1884 247.384 84.1884C244.977 84.1884 243.037 82.1467 243.037 79.6296ZM271.795 33.3241C271.795 30.8038 273.738 28.7695 276.141 28.7695C278.534 28.7695 280.485 30.8038 280.485 33.3241C280.485 35.839 278.534 37.8776 276.141 37.8776C273.738 37.8776 271.795 35.839 271.795 33.3241ZM261.719 33.3241C261.719 30.8038 263.664 28.7695 266.066 28.7695C268.458 28.7695 270.403 30.8038 270.403 33.3241C270.403 35.839 268.458 37.8776 266.066 37.8776C263.664 37.8776 261.719 35.839 261.719 33.3241ZM295.601 79.6296C295.601 77.1135 297.54 75.0739 299.942 75.0739C302.34 75.0739 304.279 77.1135 304.279 79.6296C304.279 82.1467 302.34 84.1884 299.942 84.1884C297.54 84.1884 295.601 82.1467 295.601 79.6296ZM285.525 79.6296C285.525 77.1135 287.469 75.0739 289.87 75.0739C292.269 75.0739 294.212 77.1135 294.212 79.6296C294.212 82.1467 292.269 84.1884 289.87 84.1884C287.469 84.1884 285.525 82.1467 285.525 79.6296ZM472.469 79.6296C472.469 77.1135 474.415 75.0739 476.81 75.0739C479.212 75.0739 481.156 77.1135 481.156 79.6296C481.156 82.1467 479.212 84.1884 476.81 84.1884C474.415 84.1884 472.469 82.1467 472.469 79.6296ZM462.394 79.6296C462.394 77.1135 464.338 75.0739 466.732 75.0739C469.135 75.0739 471.087 77.1135 471.087 79.6296C471.087 82.1467 469.135 84.1884 466.732 84.1884C464.338 84.1884 462.394 82.1467 462.394 79.6296ZM661.844 79.6296C661.844 77.1135 663.782 75.0739 666.186 75.0739C668.583 75.0739 670.528 77.1135 670.528 79.6296C670.528 82.1467 668.583 84.1884 666.186 84.1884C663.782 84.1884 661.844 82.1467 661.844 79.6296ZM651.242 79.6296C651.242 77.1135 653.181 75.0739 655.582 75.0739C657.982 75.0739 659.921 77.1135 659.921 79.6296C659.921 82.1467 657.982 84.1884 655.582 84.1884C653.181 84.1884 651.242 82.1467 651.242 79.6296ZM679.593 79.6296C679.593 77.1135 681.532 75.0739 683.928 75.0739C686.331 75.0739 688.281 77.1135 688.281 79.6296C688.281 82.1467 686.331 84.1884 683.928 84.1884C681.532 84.1884 679.593 82.1467 679.593 79.6296ZM632.654 33.4801C632.654 30.9651 634.594 28.9255 636.994 28.9255C639.391 28.9255 641.334 30.9651 641.334 33.4801C641.334 35.9982 639.391 38.0357 636.994 38.0357C634.594 38.0357 632.654 35.9982 632.654 33.4801ZM622.585 33.4801C622.585 30.9651 624.528 28.9255 626.922 28.9255C629.321 28.9255 631.268 30.9651 631.268 33.4801C631.268 35.9982 629.321 38.0357 626.922 38.0357C624.528 38.0357 622.585 35.9982 622.585 33.4801ZM556.763 33.4801C556.763 30.9651 558.702 28.9255 561.105 28.9255C563.503 28.9255 565.451 30.9651 565.451 33.4801C565.451 35.9982 563.503 38.0357 561.105 38.0357C558.702 38.0357 556.763 35.9982 556.763 33.4801ZM546.694 33.4801C546.694 30.9651 548.639 28.9255 551.037 28.9255C553.435 28.9255 555.38 30.9651 555.38 33.4801C555.38 35.9982 553.435 38.0357 551.037 38.0357C548.639 38.0357 546.694 35.9982 546.694 33.4801ZM364.433 110.099H355.614V103.548H364.433V110.099ZM364.433 138.457H355.614V112.024H364.433V138.457ZM428.871 110.099H420.052V103.548H428.871V110.099ZM428.871 138.457H420.052V112.024H428.871V138.457ZM469.719 132.145C470.141 131.43 470.352 130.338 470.352 128.875V125.703C469.995 126.061 469.597 126.281 469.061 126.361C468.524 126.444 467.931 126.63 467.282 126.921C466.599 127.249 466.128 127.679 465.867 128.217C465.608 128.752 465.479 129.46 465.479 130.338C465.479 131.22 465.673 131.917 466.064 132.438C466.453 132.957 466.973 133.219 467.624 133.219C468.597 133.219 469.296 132.86 469.719 132.145ZM470.549 137.039L470.352 135.471C469.766 136.646 468.993 137.528 467.934 138.115C466.874 138.702 465.663 138.997 464.296 138.997C462.96 138.997 461.83 138.828 460.901 138.485C459.973 138.142 459.214 137.63 458.631 136.947C458.044 136.263 457.621 135.45 457.361 134.505C457.098 133.56 456.969 132.519 456.969 131.379C456.969 130.142 457.091 129.069 457.335 128.155C457.579 127.245 457.979 126.453 458.532 125.786C459.086 125.12 459.833 124.549 460.779 124.078C461.723 123.606 462.896 123.206 464.296 122.881L467.763 122.049C468.707 121.822 469.374 121.489 469.766 121.05C470.157 120.609 470.352 119.983 470.352 119.169C470.352 117.541 469.607 116.727 468.115 116.727C467.271 116.727 466.654 116.959 466.266 117.425C465.877 117.89 465.666 118.815 465.634 120.194H457.975C457.975 118.28 458.319 116.745 459.006 115.592C459.692 114.44 460.542 113.549 461.556 112.914C462.569 112.281 463.665 111.86 464.843 111.649C466.021 111.437 467.117 111.333 468.131 111.333C469.669 111.333 471.083 111.455 472.374 111.699C473.666 111.945 474.777 112.383 475.71 113.021C476.642 113.654 477.363 114.517 477.871 115.609C478.377 116.702 478.63 118.11 478.63 119.835V132.74C478.63 133.978 478.679 135.07 478.776 136.014C478.873 136.96 479.102 137.774 479.463 138.457H470.894C470.729 138.002 470.615 137.528 470.549 137.039ZM543.995 117.706C543.657 117.053 543.019 116.727 542.082 116.727C541.179 116.727 540.555 117.053 540.217 117.706C539.878 118.359 539.708 119.389 539.708 120.79V121.965H544.506V120.79C544.506 119.389 544.334 118.359 543.995 117.706ZM539.708 130.203C539.708 131.63 539.952 132.581 540.44 133.051C540.926 133.522 541.48 133.759 542.097 133.759C542.876 133.759 543.485 133.44 543.923 132.805C544.364 132.167 544.585 130.958 544.585 129.164H552.551C552.486 132.424 551.652 134.875 550.052 136.526C548.452 138.175 545.821 138.997 542.161 138.997C540.037 138.997 538.256 138.76 536.819 138.288C535.381 137.816 534.222 137.035 533.34 135.943C532.457 134.851 531.827 133.425 531.452 131.666C531.077 129.908 530.889 127.771 530.889 125.264C530.889 122.72 531.1 120.57 531.525 118.811C531.949 117.051 532.618 115.618 533.533 114.508C534.447 113.401 535.616 112.593 537.037 112.09C538.457 111.586 540.162 111.333 542.154 111.333C543.916 111.333 545.46 111.543 546.783 111.969C548.105 112.393 549.216 113.102 550.112 114.094C551.011 115.091 551.68 116.396 552.12 118.011C552.56 119.624 552.783 121.642 552.783 124.054V126.744H539.708V130.203ZM604.292 129.334C604.358 130.389 604.489 131.226 604.684 131.844C604.878 132.459 605.129 132.88 605.438 133.109C605.749 133.337 606.145 133.448 606.632 133.448C607.124 133.448 607.526 133.337 607.851 133.109C608.175 132.88 608.429 132.459 608.609 131.844C608.787 131.226 608.907 130.389 608.973 129.334C609.038 128.279 609.071 126.921 609.071 125.267C609.071 123.61 609.038 122.246 608.973 121.175C608.907 120.101 608.787 119.257 608.609 118.642C608.429 118.026 608.175 117.605 607.851 117.377C607.526 117.149 607.124 117.035 606.632 117.035C606.145 117.035 605.749 117.149 605.438 117.377C605.129 117.605 604.878 118.026 604.684 118.642C604.489 119.257 604.358 120.101 604.292 121.175C604.227 122.246 604.197 123.61 604.197 125.267C604.197 126.921 604.227 128.279 604.292 129.334ZM617.521 130.346C617.278 132.008 616.763 133.482 615.983 134.77C615.197 136.058 614.064 137.082 612.581 137.85C611.096 138.613 609.113 138.997 606.632 138.997C604.058 138.997 602.019 138.647 600.517 137.947C599.015 137.247 597.889 136.268 597.139 135.014C596.387 133.759 595.906 132.295 595.698 130.617C595.483 128.938 595.377 127.136 595.377 125.213C595.377 123.488 595.499 121.792 595.743 120.131C595.989 118.469 596.504 116.986 597.287 115.681C598.071 114.38 599.206 113.328 600.689 112.53C602.173 111.731 604.153 111.333 606.632 111.333C609.211 111.333 611.25 111.699 612.75 112.434C614.25 113.167 615.377 114.168 616.126 115.439C616.878 116.71 617.359 118.182 617.572 119.861C617.784 121.54 617.89 123.34 617.89 125.264C617.89 126.989 617.768 128.683 617.521 130.346Z" fill="#00934C"/>
</svg>
