<svg width="180" height="180" viewBox="0 0 180 180" fill="none" xmlns="http://www.w3.org/2000/svg">
<rect width="180" height="180" rx="15" fill="#ED3024"/>
<rect x="3" y="3" width="175" height="175" rx="30" fill="white"/>
<path d="M141.696 99.3285C137.875 91.7412 131.162 86.891 121.749 84.9169C121.037 84.7668 120.232 84.6754 119.464 84.5875L118.428 84.4631C117.804 84.379 116.926 84.2875 115.453 84.2765L114.643 84.2729L99.379 84.132L99.5236 68.9482C99.5785 66.9558 99.4852 65.8709 99.3992 65.1391L99.2894 64.0889C99.2217 63.3461 99.1339 62.5209 98.993 61.7909C97.1744 52.3448 92.4396 45.5588 84.9201 41.6143C79.1388 38.5863 73.8294 38.4381 73.7745 38.4381L72.9311 38.4216C71.4528 38.4161 70.3203 38.4765 69.0214 38.643C44.1688 41.7899 44.253 65.6477 44.2694 66.6668L43.9108 110.932C43.8376 119.814 46.2051 126.875 50.9509 131.908C55.8358 136.656 62.8412 139.126 71.7181 139.197L116.196 139.563C118.716 139.583 140.994 139.074 144.401 115.27C144.616 113.76 144.697 112.478 144.69 110.546C144.686 110.482 144.631 105.161 141.696 99.3285Z" fill="#ED3024"/>
<path d="M154.722 137.714C146.87 152.215 130.954 157.239 126.269 158.43C123.528 159.127 121.108 159.444 116.675 159.674H116.624L63.3179 159.242C63.2868 159.242 59.6844 159.191 56.051 158.253C53.5024 157.596 50.2623 156.546 47.6332 155.314C44.4992 153.856 40.9206 151.825 36.0028 146.907L35.2179 146.108C31.3374 142.116 27.6344 136.473 25.7976 131.731C24.7383 129.027 24.4401 127.708 23.8143 125.168C22.949 121.644 23.0075 117.899 23.0112 117.607L23.4356 65.0444C23.7467 60.4888 24.1034 58.0646 24.8444 55.3348C26.1104 50.6675 31.3942 34.8435 46.0854 27.194C54.3513 22.6145 62.8404 20.3184 71.2838 20.3879C84.3303 20.4959 92.7444 26.2609 93.0993 26.5079C115.965 40.4987 116.452 63.46 116.402 66.6984C119.761 66.6435 142.53 67.4595 156.306 90.805C156.382 90.9111 169.971 111.194 154.722 137.714ZM153.337 1.02177L28.1174 0.000869751C13.2743 -0.118042 1.14077 11.8181 1.02185 26.6597L0.000963333 151.886C-0.123446 166.731 11.818 178.857 26.6593 178.978L151.877 179.999C166.724 180.123 178.854 168.191 178.978 153.344L179.999 28.1198C180.118 13.28 168.186 1.14436 153.337 1.02177Z" fill="#ED3024"/>
</svg>
