<svg width="180" height="180" viewBox="0 0 180 180" fill="none" xmlns="http://www.w3.org/2000/svg">
<rect width="180" height="180" rx="15" fill="white"/>
<path d="M48.9933 92.9381C47.9264 90.8305 46.0526 89.4832 43.4251 88.9349C43.2264 88.8932 43.0017 88.8678 42.7872 88.8434L42.4982 88.8088C42.324 88.7854 42.0789 88.76 41.6677 88.757L41.4415 88.756L37.1807 88.7168L37.2211 84.4991C37.2364 83.9457 37.2103 83.6443 37.1863 83.441L37.1557 83.1493C37.1368 82.943 37.1123 82.7138 37.073 82.511C36.5653 79.8871 35.2436 78.0021 33.1446 76.9064C31.5308 76.0653 30.0488 76.0241 30.0334 76.0241L29.798 76.0195C29.3854 76.018 29.0692 76.0348 28.7066 76.081C21.7692 76.9551 21.7927 83.5823 21.7973 83.8654L21.6972 96.1612C21.6768 98.6286 22.3377 100.59 23.6624 101.988C25.026 103.307 26.9815 103.993 29.4594 104.013L41.8751 104.114C42.5783 104.12 48.7972 103.979 49.7481 97.3662C49.8083 96.9469 49.8308 96.5907 49.8288 96.054C49.8278 96.0362 49.8124 94.5583 48.9933 92.9381Z" fill="#ED3024"/>
<path d="M53.1894 103.254C50.9974 107.282 46.5548 108.678 45.2469 109.008C44.4819 109.202 43.8062 109.29 42.5688 109.354H42.5545L27.6747 109.234C27.666 109.234 26.6604 109.22 25.6462 108.959C24.9347 108.777 24.0303 108.485 23.2964 108.143C22.4216 107.738 21.4226 107.174 20.0499 105.808L19.8308 105.586C18.7476 104.477 17.7139 102.909 17.2012 101.592C16.9055 100.841 16.8222 100.474 16.6476 99.769C16.406 98.7901 16.4224 97.7498 16.4234 97.6685L16.5419 83.0679C16.6287 81.8024 16.7283 81.129 16.9351 80.3708C17.2885 79.0743 18.7634 74.6787 22.8644 72.5539C25.1717 71.2818 27.5414 70.644 29.8983 70.6633C33.5401 70.6933 35.8888 72.2947 35.9879 72.3633C42.3706 76.2496 42.5065 82.6278 42.4927 83.5273C43.4303 83.5121 49.786 83.7387 53.6316 90.2236C53.6526 90.2531 57.4461 95.8872 53.1894 103.254ZM52.8028 65.2838L17.8487 65.0002C13.7054 64.9672 10.3184 68.2828 10.2852 72.4055L10.0003 107.19C9.96554 111.314 13.2989 114.683 17.4417 114.716L52.3952 115C56.5396 115.034 59.9255 111.72 59.9603 107.596L60.2452 72.811C60.2784 68.6889 56.9476 65.3179 52.8028 65.2838Z" fill="#ED3024"/>
<path d="M75.7902 89.1788C74.7964 89.1706 73.8424 89.382 72.9537 89.8069C72.0631 90.2343 71.2771 90.8249 70.6183 91.5613C69.9574 92.3023 69.4202 93.1871 69.0213 94.1918C68.624 95.1981 68.4177 96.2903 68.4075 97.4419C68.3988 98.6225 68.5786 99.7278 68.9457 100.723C69.3114 101.721 69.8252 102.597 70.4727 103.33C71.1208 104.063 71.8966 104.65 72.7791 105.074C73.6606 105.499 74.6283 105.719 75.6533 105.728C76.6793 105.735 77.6497 105.531 78.5388 105.122C79.4279 104.711 80.2129 104.129 80.8727 103.393C81.5335 102.651 82.0621 101.775 82.4446 100.785C82.8266 99.7949 83.0248 98.6931 83.0345 97.5125C83.0442 96.3624 82.8639 95.2662 82.4972 94.2528C82.1316 93.2415 81.6173 92.348 80.9702 91.5994C80.3222 90.8508 79.5459 90.2557 78.6634 89.8303C77.7829 89.4059 76.8147 89.1869 75.7902 89.1788ZM75.6155 110.421C73.6396 110.405 71.8394 110.036 70.2634 109.324C68.6889 108.614 67.3299 107.652 66.2222 106.467C65.1139 105.283 64.2503 103.884 63.6579 102.306C63.0655 100.73 62.7714 99.0631 62.7857 97.3484C62.7994 95.6341 63.1207 93.9718 63.7396 92.4054C64.3571 90.8386 65.2513 89.4527 66.3948 88.2853C67.5383 87.12 68.9217 86.1813 70.5065 85.4952C72.0922 84.8091 73.8837 84.4681 75.8285 84.4849C77.7717 84.5001 79.5561 84.8696 81.1326 85.5811C82.7056 86.2931 84.0728 87.2536 85.1973 88.4378C86.3219 89.624 87.1921 91.0246 87.7845 92.5996C88.379 94.1781 88.6727 95.8456 88.6584 97.5588C88.6441 99.2704 88.3228 100.933 87.7039 102.501C87.0844 104.069 86.1906 105.454 85.0482 106.621C83.9047 107.787 82.5212 108.726 80.9376 109.411C79.3493 110.097 77.5593 110.436 75.6155 110.421Z" fill="#ED3024"/>
<path d="M104.354 89.4115C103.36 89.4029 102.406 89.6143 101.518 90.0402C100.626 90.4671 99.8415 91.0571 99.1822 91.7945C98.5209 92.535 97.9831 93.4203 97.5852 94.4246C97.1864 95.4303 96.9806 96.523 96.9719 97.6731C96.9617 98.8542 97.1425 99.9591 97.5091 100.956C97.8753 101.952 98.3881 102.828 99.0361 103.562C99.6842 104.295 100.46 104.882 101.344 105.306C102.225 105.73 103.192 105.951 104.217 105.959C105.243 105.967 106.213 105.763 107.101 105.352C107.99 104.944 108.776 104.361 109.437 103.624C110.097 102.883 110.626 102.008 111.008 101.018C111.391 100.027 111.589 98.9243 111.599 97.7443C111.609 96.5957 111.429 95.4984 111.062 94.4851C110.695 93.4742 110.182 92.5803 109.533 91.8306C108.885 91.083 108.109 90.4879 107.227 90.063C106.345 89.6387 105.379 89.4196 104.354 89.4115ZM104.179 110.652C102.204 110.638 100.403 110.267 98.8257 109.557C97.2533 108.845 95.8943 107.883 94.7851 106.699C93.6784 105.515 92.8148 104.116 92.2213 102.537C91.6289 100.962 91.3358 99.2943 91.3485 97.5801C91.3628 95.8664 91.6841 94.203 92.3025 92.6372C92.9205 91.0708 93.8152 89.6854 94.9582 88.5171C96.1027 87.3517 97.4846 86.4135 99.0683 85.7274C100.657 85.0403 102.447 84.7008 104.391 84.7171C106.335 84.7324 108.121 85.1023 109.696 85.8138C111.269 86.5243 112.637 87.4864 113.762 88.6705C114.885 89.8567 115.756 91.2574 116.349 92.8318C116.941 94.4109 117.236 96.0778 117.222 97.7905C117.207 99.5017 116.887 101.164 116.267 102.732C115.648 104.3 114.754 105.686 113.613 106.852C112.469 108.019 111.086 108.958 109.501 109.643C107.914 110.328 106.123 110.668 104.179 110.652Z" fill="#ED3024"/>
<path d="M130.512 110.867C129.495 110.859 128.455 110.77 127.424 110.602C126.383 110.435 125.355 110.194 124.364 109.888C123.365 109.579 122.402 109.202 121.497 108.767C120.588 108.331 119.775 107.834 119.08 107.289L118.997 107.221L121.341 103.535L121.444 103.607C124.442 105.726 127.471 106.812 130.45 106.836C132.007 106.849 133.254 106.562 134.156 105.985C135.056 105.41 135.494 104.609 135.502 103.534C135.513 102.532 135.034 101.811 134.041 101.329C133.027 100.838 131.378 100.31 129.146 99.7571C127.591 99.3637 126.244 98.9607 125.141 98.5592C124.028 98.1526 123.107 97.6942 122.409 97.1941C121.698 96.689 121.177 96.0781 120.859 95.3793C120.541 94.6866 120.384 93.8455 120.392 92.884C120.402 91.6068 120.672 90.4577 121.195 89.4692C121.716 88.4843 122.433 87.6391 123.322 86.9581C124.206 86.2817 125.267 85.7633 126.472 85.4233C127.672 85.0833 128.975 84.9166 130.344 84.9278C132.16 84.943 133.933 85.2465 135.615 85.8299C137.298 86.4138 138.825 87.2138 140.156 88.2073L140.249 88.277L137.845 91.6297L137.749 91.5555C135.411 89.7909 132.878 88.8843 130.215 88.8619C128.911 88.8528 127.791 89.1155 126.887 89.6476C125.993 90.1757 125.554 91 125.544 92.1674C125.54 92.6502 125.628 93.0634 125.805 93.3932C125.98 93.7225 126.277 94.0122 126.683 94.2551C127.098 94.5077 127.658 94.7374 128.343 94.9453C129.032 95.1547 129.894 95.3925 130.906 95.6522C132.608 96.0751 134.1 96.5035 135.334 96.9243C136.574 97.3466 137.614 97.8457 138.425 98.4093C139.244 98.979 139.853 99.6529 140.235 100.413C140.616 101.173 140.805 102.094 140.796 103.149C140.787 104.333 140.533 105.417 140.043 106.374C139.553 107.331 138.853 108.152 137.963 108.818C137.076 109.48 135.984 109.996 134.721 110.352C133.455 110.706 132.04 110.879 130.512 110.867Z" fill="#ED3024"/>
<path d="M152.236 110.948C151.404 110.941 150.615 110.822 149.893 110.593C149.169 110.362 148.516 110.014 147.956 109.561C147.392 109.103 146.945 108.503 146.626 107.774C146.31 107.049 146.153 106.162 146.16 105.138L146.287 89.7519L142.952 89.725L142.987 85.457L146.322 85.4844L146.39 77.329L151.867 77.3737L151.801 85.5291L157.232 85.5728L157.197 89.8408L151.767 89.7966L151.654 103.523C151.648 104.367 151.883 104.982 152.357 105.355C152.836 105.736 153.435 105.932 154.136 105.939C154.849 105.943 155.544 105.824 156.193 105.582C156.857 105.338 157.354 105.135 157.663 104.984L157.794 104.92L158.968 109.291L158.875 109.332C158.171 109.644 157.226 109.996 156.067 110.38C154.897 110.768 153.609 110.959 152.236 110.948Z" fill="#ED3024"/>
<path d="M164.898 78.7225L163.605 78.7113L163.575 82.1209L162.339 82.1107L162.367 78.7021L161.066 78.6909L161.075 77.6176L164.908 77.6491L164.898 78.7225Z" fill="#ED3024"/>
<path d="M168.728 82.1635L168.747 79.8028L167.978 81.4566L167.318 81.452L166.576 79.7846L166.558 82.1457L165.321 82.1366L165.357 77.6541L166.709 77.6648L167.662 79.7815L168.656 77.681L170 77.6917L169.964 82.1742L168.728 82.1635Z" fill="#ED3024"/>
</svg>
