<svg width="180" height="180" viewBox="0 0 180 180" fill="none" xmlns="http://www.w3.org/2000/svg">
<circle cx="90" cy="90" r="90" fill="#ED3024"/>
<rect x="22.333" y="22.3333" width="136.111" height="136.111" rx="30" fill="white"/>
<path d="M130.208 97.2554C127.236 91.3542 122.015 87.5818 114.693 86.0464C114.14 85.9297 113.514 85.8585 112.916 85.7902L112.111 85.6935C111.625 85.628 110.942 85.5569 109.797 85.5483L109.167 85.5455L97.2946 85.4359L97.407 73.6263C97.4497 72.0767 97.3771 71.2328 97.3102 70.6636L97.2249 69.8468C97.1722 69.2691 97.1039 68.6273 96.9943 68.0595C95.5799 60.7125 91.8972 55.4346 86.0488 52.3666C81.5521 50.0115 77.4227 49.8962 77.38 49.8962L76.724 49.8834C75.5742 49.8791 74.6934 49.9261 73.6831 50.0556C54.3533 52.5032 54.4187 71.0592 54.4316 71.8518L54.1526 106.28C54.0957 113.189 55.9371 118.68 59.6283 122.595C63.4276 126.288 68.8762 128.209 75.7805 128.264L110.375 128.549C112.334 128.564 129.662 128.169 132.311 109.654C132.479 108.48 132.542 107.483 132.536 105.98C132.533 105.93 132.491 101.792 130.208 97.2554Z" fill="#ED3024"/>
<path d="M140.339 127.111C134.232 138.389 121.853 142.297 118.209 143.223C116.078 143.766 114.195 144.012 110.747 144.191H110.707L69.2473 143.855C69.2231 143.855 66.4212 143.815 63.5952 143.085C61.613 142.574 59.0929 141.758 57.0481 140.8C54.6105 139.666 51.8271 138.086 48.0022 134.261L47.3917 133.639C44.3736 130.534 41.4935 126.146 40.0648 122.457C39.2409 120.354 39.0089 119.328 38.5223 117.353C37.8492 114.612 37.8947 111.699 37.8976 111.472L38.2277 70.5901C38.4696 67.0468 38.7471 65.1613 39.3234 63.0382C40.3081 59.4081 44.4177 47.1005 55.8442 41.1509C62.2732 37.5891 68.8759 35.8032 75.4429 35.8573C85.5902 35.9412 92.1345 40.4251 92.4106 40.6172C110.195 51.499 110.573 69.3578 110.535 71.8765C113.148 71.8338 130.857 72.4685 141.572 90.6261C141.63 90.7086 152.2 106.484 140.339 127.111ZM139.262 20.7947L41.8691 20.0007C30.3245 19.9082 20.8873 29.1919 20.7948 40.7354L20.0007 138.133C19.904 149.68 29.1918 159.111 40.735 159.205L138.127 159.999C149.674 160.096 159.109 150.815 159.205 139.267L159.999 41.8709C160.092 30.3289 150.811 20.8901 139.262 20.7947Z" fill="#ED3024"/>
</svg>
