<svg width="180" height="180" viewBox="0 0 180 180" fill="none" xmlns="http://www.w3.org/2000/svg">
<circle cx="90" cy="90" r="90" fill="white"/>
<path d="M51.9938 92.938C50.9269 90.8305 49.0531 89.4832 46.4256 88.9348C46.2269 88.8931 46.0022 88.8677 45.7877 88.8433L45.4986 88.8088C45.3245 88.7854 45.0794 88.76 44.6682 88.7569L44.442 88.7559L40.1812 88.7168L40.2216 84.4991C40.2369 83.9456 40.2108 83.6442 40.1868 83.441L40.1562 83.1492C40.1373 82.9429 40.1128 82.7137 40.0734 82.5109C39.5658 79.887 38.2441 78.002 36.1451 76.9063C34.5313 76.0652 33.0492 76.024 33.0339 76.024L32.7985 76.0195C32.3858 76.0179 32.0697 76.0347 31.7071 76.081C24.7697 76.9551 24.7932 83.5822 24.7978 83.8653L24.6977 96.1611C24.6773 98.6285 25.3381 100.59 26.6629 101.988C28.0265 103.307 29.982 103.993 32.4599 104.013L44.8756 104.114C45.5788 104.12 51.7976 103.979 52.7486 97.3661C52.8088 96.9469 52.8313 96.5906 52.8293 96.0539C52.8282 96.0361 52.8129 94.5582 51.9938 92.938Z" fill="#ED3024"/>
<path d="M56.1894 103.254C53.9974 107.282 49.5548 108.678 48.2469 109.008C47.4819 109.202 46.8062 109.29 45.5688 109.354H45.5545L30.6747 109.234C30.666 109.234 29.6604 109.22 28.6462 108.959C27.9347 108.777 27.0303 108.485 26.2964 108.143C25.4216 107.738 24.4226 107.174 23.0499 105.808L22.8308 105.586C21.7476 104.477 20.7139 102.909 20.2012 101.592C19.9055 100.841 19.8222 100.474 19.6476 99.769C19.406 98.7901 19.4224 97.7498 19.4234 97.6685L19.5419 83.0679C19.6287 81.8024 19.7283 81.129 19.9351 80.3708C20.2885 79.0743 21.7634 74.6787 25.8644 72.5539C28.1717 71.2818 30.5414 70.644 32.8983 70.6633C36.5401 70.6933 38.8888 72.2947 38.9879 72.3633C45.3706 76.2496 45.5065 82.6278 45.4927 83.5273C46.4303 83.5121 52.786 83.7387 56.6316 90.2236C56.6526 90.2531 60.4461 95.8872 56.1894 103.254ZM55.8028 65.2838L20.8487 65.0002C16.7054 64.9672 13.3184 68.2828 13.2852 72.4055L13.0003 107.19C12.9655 111.314 16.2989 114.683 20.4417 114.716L55.3952 115C59.5396 115.034 62.9255 111.72 62.9603 107.596L63.2452 72.811C63.2784 68.6889 59.9476 65.3179 55.8028 65.2838Z" fill="#ED3024"/>
<path d="M78.7902 89.1788C77.7964 89.1706 76.8424 89.382 75.9537 89.8069C75.0631 90.2343 74.2771 90.8249 73.6183 91.5613C72.9574 92.3023 72.4202 93.1871 72.0213 94.1918C71.624 95.1981 71.4177 96.2903 71.4075 97.4419C71.3988 98.6225 71.5786 99.7278 71.9457 100.723C72.3114 101.721 72.8252 102.597 73.4727 103.33C74.1208 104.063 74.8966 104.65 75.7791 105.074C76.6606 105.499 77.6283 105.719 78.6533 105.728C79.6793 105.735 80.6497 105.531 81.5388 105.122C82.4279 104.711 83.2129 104.129 83.8727 103.393C84.5335 102.651 85.0621 101.775 85.4446 100.785C85.8266 99.7949 86.0248 98.6931 86.0345 97.5125C86.0442 96.3624 85.8639 95.2662 85.4972 94.2528C85.1316 93.2415 84.6173 92.348 83.9702 91.5994C83.3222 90.8508 82.5459 90.2557 81.6634 89.8303C80.7829 89.4059 79.8147 89.1869 78.7902 89.1788ZM78.6155 110.421C76.6396 110.405 74.8394 110.036 73.2634 109.324C71.6889 108.614 70.3299 107.652 69.2222 106.467C68.1139 105.283 67.2503 103.884 66.6579 102.306C66.0655 100.73 65.7714 99.0631 65.7857 97.3484C65.7994 95.6341 66.1207 93.9718 66.7396 92.4054C67.3571 90.8386 68.2513 89.4527 69.3948 88.2853C70.5383 87.12 71.9217 86.1813 73.5065 85.4952C75.0922 84.8091 76.8837 84.4681 78.8285 84.4849C80.7717 84.5001 82.5561 84.8696 84.1326 85.5811C85.7056 86.2931 87.0728 87.2536 88.1973 88.4378C89.3219 89.624 90.1921 91.0246 90.7845 92.5996C91.379 94.1781 91.6727 95.8456 91.6584 97.5588C91.6441 99.2704 91.3228 100.933 90.7039 102.501C90.0844 104.069 89.1906 105.454 88.0482 106.621C86.9047 107.787 85.5212 108.726 83.9376 109.411C82.3493 110.097 80.5593 110.436 78.6155 110.421Z" fill="#ED3024"/>
<path d="M107.353 89.4115C106.359 89.4028 105.406 89.6142 104.518 90.0401C103.626 90.467 102.841 91.0571 102.182 91.7945C101.52 92.535 100.983 93.4203 100.585 94.4245C100.186 95.4303 99.9801 96.5229 99.9714 97.673C99.9612 98.8541 100.142 99.959 100.509 100.956C100.875 101.952 101.388 102.828 102.036 103.562C102.684 104.295 103.459 104.882 104.343 105.306C105.224 105.73 106.191 105.951 107.216 105.959C108.242 105.967 109.213 105.763 110.101 105.352C110.99 104.944 111.776 104.361 112.436 103.624C113.096 102.883 113.626 102.008 114.008 101.018C114.391 100.027 114.589 98.9243 114.598 97.7442C114.608 96.5956 114.428 95.4984 114.061 94.485C113.694 93.4741 113.181 92.5802 112.533 91.8306C111.885 91.083 111.109 90.4879 110.226 90.063C109.345 89.6386 108.378 89.4196 107.353 89.4115ZM107.178 110.652C105.204 110.638 103.402 110.267 101.825 109.557C100.253 108.845 98.8938 107.883 97.7846 106.699C96.6779 105.515 95.8143 104.116 95.2208 102.537C94.6284 100.962 94.3353 99.2943 94.3481 97.58C94.3624 95.8663 94.6836 94.2029 95.302 92.6371C95.92 91.0708 96.8147 89.6854 97.9577 88.517C99.1022 87.3516 100.484 86.4135 102.068 85.7274C103.656 85.0403 105.447 84.7008 107.391 84.717C109.335 84.7323 111.12 85.1023 112.696 85.8138C114.269 86.5243 115.637 87.4863 116.761 88.6705C117.884 89.8567 118.755 91.2573 119.348 92.8318C119.941 94.4108 120.235 96.0777 120.221 97.7904C120.207 99.5016 119.887 101.164 119.267 102.732C118.647 104.3 117.754 105.686 116.612 106.852C115.469 108.019 114.085 108.958 112.5 109.643C110.914 110.328 109.122 110.668 107.178 110.652Z" fill="#ED3024"/>
<path d="M133.512 110.867C132.495 110.859 131.455 110.77 130.423 110.602C129.382 110.435 128.354 110.194 127.364 109.888C126.365 109.579 125.401 109.202 124.497 108.767C123.588 108.331 122.775 107.834 122.08 107.289L121.996 107.221L124.341 103.535L124.443 103.607C127.441 105.726 130.471 106.812 133.449 106.836C135.007 106.849 136.254 106.562 137.156 105.985C138.055 105.41 138.494 104.609 138.502 103.534C138.512 102.532 138.034 101.811 137.04 101.329C136.026 100.838 134.378 100.31 132.145 99.7571C130.591 99.3637 129.243 98.9607 128.141 98.5592C127.027 98.1526 126.107 97.6942 125.408 97.1941C124.697 96.689 124.177 96.0781 123.859 95.3793C123.541 94.6866 123.384 93.8455 123.392 92.884C123.402 91.6068 123.672 90.4577 124.195 89.4692C124.716 88.4843 125.432 87.6391 126.321 86.9581C127.206 86.2817 128.266 85.7633 129.471 85.4233C130.671 85.0833 131.974 84.9166 133.344 84.9278C135.159 84.943 136.932 85.2465 138.614 85.8299C140.297 86.4138 141.824 87.2138 143.156 88.2073L143.249 88.277L140.844 91.6297L140.748 91.5555C138.41 89.7909 135.877 88.8843 133.215 88.8619C131.911 88.8528 130.791 89.1155 129.887 89.6476C128.993 90.1757 128.554 91 128.543 92.1674C128.539 92.6502 128.627 93.0634 128.804 93.3932C128.979 93.7225 129.277 94.0122 129.683 94.2551C130.097 94.5077 130.657 94.7374 131.342 94.9453C132.031 95.1547 132.894 95.3925 133.906 95.6522C135.608 96.0751 137.099 96.5035 138.334 96.9243C139.574 97.3466 140.614 97.8457 141.425 98.4093C142.243 98.979 142.852 99.6529 143.234 100.413C143.615 101.173 143.805 102.094 143.796 103.149C143.786 104.333 143.532 105.417 143.042 106.374C142.552 107.331 141.853 108.152 140.963 108.818C140.076 109.48 138.984 109.996 137.72 110.352C136.454 110.706 135.04 110.879 133.512 110.867Z" fill="#ED3024"/>
<path d="M155.236 110.948C154.403 110.941 153.614 110.822 152.892 110.593C152.169 110.362 151.516 110.014 150.956 109.561C150.391 109.103 149.944 108.503 149.626 107.774C149.31 107.049 149.152 106.162 149.16 105.138L149.286 89.7519L145.951 89.725L145.987 85.457L149.321 85.4844L149.389 77.329L154.867 77.3737L154.801 85.5291L160.232 85.5728L160.197 89.8408L154.766 89.7966L154.653 103.523C154.647 104.367 154.883 104.982 155.357 105.355C155.836 105.736 156.434 105.932 157.135 105.939C157.849 105.943 158.543 105.824 159.192 105.582C159.857 105.338 160.353 105.135 160.663 104.984L160.793 104.92L161.968 109.291L161.874 109.332C161.171 109.644 160.226 109.996 159.066 110.38C157.897 110.768 156.609 110.959 155.236 110.948Z" fill="#ED3024"/>
<path d="M167.898 78.7225L166.605 78.7113L166.575 82.121L165.34 82.1108L165.368 78.7022L164.066 78.691L164.076 77.6177L167.908 77.6492L167.898 78.7225Z" fill="#ED3024"/>
<path d="M171.728 82.1635L171.747 79.8028L170.978 81.4566L170.318 81.452L169.576 79.7846L169.557 82.1457L168.32 82.1366L168.357 77.6541L169.709 77.6648L170.661 79.7815L171.656 77.681L173 77.6917L172.964 82.1742L171.728 82.1635Z" fill="#ED3024"/>
</svg>
