<svg width="418" height="132" viewBox="0 0 418 132" fill="none" xmlns="http://www.w3.org/2000/svg">
<path d="M101.801 73.2982C99.016 67.7689 94.124 64.2342 87.264 62.7955C86.7453 62.6862 86.1587 62.6195 85.5987 62.5555L84.844 62.4649C84.3893 62.4035 83.7493 62.3369 82.676 62.3289L82.0853 62.3262L70.9613 62.2235L71.0667 51.1582C71.1067 49.7062 71.0387 48.9155 70.976 48.3822L70.896 47.6169C70.8467 47.0755 70.7827 46.4742 70.68 45.9422C69.3547 39.0582 65.904 34.1129 60.424 31.2382C56.2107 29.0315 52.3413 28.9235 52.3013 28.9235L51.6867 28.9115C50.6093 28.9075 49.784 28.9515 48.8373 29.0729C30.7253 31.3662 30.7867 48.7529 30.7987 49.4955L30.5373 81.7542C30.484 88.2275 32.2093 93.3729 35.668 97.0409C39.228 100.501 44.3333 102.301 50.8027 102.353L83.2173 102.62C85.0533 102.634 101.289 102.264 103.772 84.9155C103.929 83.8155 103.988 82.8809 103.983 81.4729C103.98 81.4262 103.94 77.5489 101.801 73.2982Z" fill="#ED3024"/>
<path d="M112.758 100.361C107.035 110.929 95.4367 114.59 92.022 115.458C90.0247 115.966 88.2607 116.197 85.03 116.365H84.9927L46.1447 116.05C46.122 116.05 43.4967 116.013 40.8487 115.329C38.9914 114.85 36.63 114.085 34.714 113.187C32.43 112.125 29.822 110.645 26.238 107.061L25.666 106.478C22.838 103.569 20.1394 99.4567 18.8007 96.0007C18.0287 94.03 17.8114 93.0687 17.3554 91.218C16.7247 88.65 16.7674 85.9207 16.77 85.7073L17.0794 47.402C17.306 44.082 17.566 42.3153 18.106 40.326C19.0287 36.9247 22.8794 25.3927 33.586 19.818C39.61 16.4807 45.7967 14.8073 51.95 14.858C61.458 14.9367 67.59 19.138 67.8487 19.318C84.5127 29.514 84.8674 46.2473 84.8314 48.6073C87.2794 48.5673 103.873 49.162 113.913 66.1753C113.967 66.2527 123.871 81.034 112.758 100.361ZM111.749 0.744659L20.4914 0.000671387C9.67404 -0.0859985 0.831367 8.61266 0.7447 19.4287L0.000702055 110.689C-0.0899646 121.507 8.6127 130.345 19.4287 130.433L110.685 131.177C121.505 131.267 130.345 122.571 130.435 111.751L131.179 20.4927C131.266 9.67799 122.57 0.834 111.749 0.744659Z" fill="#ED3024"/>
<path d="M171.763 63.4348C169.169 63.4135 166.678 63.9682 164.358 65.0828C162.033 66.2042 159.981 67.7535 158.261 69.6855C156.535 71.6295 155.133 73.9508 154.091 76.5868C153.054 79.2268 152.515 82.0922 152.489 85.1135C152.466 88.2108 152.935 91.1108 153.894 93.7228C154.849 96.3402 156.19 98.6388 157.881 100.561C159.573 102.484 161.598 104.025 163.902 105.137C166.203 106.251 168.73 106.829 171.406 106.852C174.085 106.872 176.618 106.335 178.939 105.263C181.261 104.185 183.31 102.657 185.033 100.725C186.758 98.7802 188.138 96.4815 189.137 93.8855C190.134 91.2868 190.651 88.3962 190.677 85.2988C190.702 82.2815 190.231 79.4055 189.274 76.7468C188.319 74.0935 186.977 71.7495 185.287 69.7855C183.595 67.8215 181.569 66.2602 179.265 65.1442C176.966 64.0308 174.438 63.4562 171.763 63.4348ZM171.307 119.164C166.149 119.123 161.449 118.153 157.334 116.287C153.223 114.424 149.675 111.9 146.783 108.792C143.89 105.684 141.635 102.013 140.089 97.8735C138.542 93.7402 137.774 89.3668 137.811 84.8682C137.847 80.3708 138.686 76.0095 140.302 71.9002C141.914 67.7895 144.249 64.1535 147.234 61.0908C150.219 58.0335 153.831 55.5708 157.969 53.7708C162.109 51.9708 166.786 51.0762 171.863 51.1202C176.937 51.1602 181.595 52.1295 185.711 53.9962C189.818 55.8642 193.387 58.3842 196.323 61.4908C199.259 64.6028 201.531 68.2775 203.078 72.4095C204.63 76.5508 205.397 80.9255 205.359 85.4202C205.322 89.9108 204.483 94.2722 202.867 98.3855C201.25 102.5 198.917 106.135 195.934 109.195C192.949 112.253 189.337 114.719 185.202 116.516C181.055 118.315 176.382 119.205 171.307 119.164Z" fill="#ED3024"/>
<path d="M246.338 64.0454C243.743 64.0228 241.254 64.5774 238.935 65.6948C236.607 66.8148 234.558 68.3628 232.836 70.2974C231.11 72.2401 229.706 74.5628 228.667 77.1974C227.626 79.8361 227.088 82.7028 227.066 85.7201C227.039 88.8188 227.511 91.7174 228.468 94.3321C229.424 96.9468 230.763 99.2454 232.455 101.169C234.147 103.092 236.172 104.632 238.479 105.745C240.78 106.859 243.304 107.437 245.98 107.459C248.659 107.479 251.192 106.945 253.511 105.867C255.832 104.795 257.884 103.265 259.608 101.332C261.332 99.3881 262.714 97.0921 263.711 94.4948C264.711 91.8948 265.228 89.0028 265.254 85.9068C265.279 82.8934 264.81 80.0148 263.851 77.3561C262.894 74.7041 261.554 72.3588 259.86 70.3921C258.168 68.4308 256.143 66.8694 253.839 65.7548C251.538 64.6414 249.014 64.0668 246.338 64.0454ZM245.882 119.771C240.726 119.733 236.023 118.761 231.906 116.897C227.8 115.031 224.252 112.507 221.356 109.4C218.467 106.293 216.212 102.623 214.663 98.4801C213.116 94.3481 212.351 89.9734 212.384 85.4761C212.422 80.9801 213.26 76.6161 214.875 72.5081C216.488 68.3988 218.824 64.7641 221.808 61.6988C224.796 58.6414 228.404 56.1801 232.539 54.3801C236.686 52.5774 241.36 51.6868 246.436 51.7294C251.511 51.7694 256.172 52.7401 260.286 54.6068C264.392 56.4708 267.964 58.9948 270.9 62.1014C273.832 65.2134 276.106 68.8881 277.655 73.0188C279.202 77.1614 279.97 81.5348 279.934 86.0281C279.896 90.5174 279.06 94.8788 277.442 98.9934C275.824 103.107 273.491 106.743 270.511 109.801C267.526 112.863 263.914 115.325 259.776 117.123C255.634 118.921 250.956 119.813 245.882 119.771Z" fill="#ED3024"/>
<path d="M314.633 120.335C311.977 120.313 309.263 120.08 306.569 119.64C303.852 119.2 301.168 118.569 298.581 117.765C295.973 116.955 293.459 115.967 291.097 114.824C288.724 113.68 286.601 112.376 284.787 110.947L284.568 110.769L290.689 101.099L290.957 101.288C298.784 106.845 306.693 109.695 314.469 109.757C318.536 109.792 321.792 109.04 324.147 107.525C326.495 106.017 327.64 103.916 327.661 101.096C327.688 98.4679 326.439 96.5759 323.845 95.3106C321.197 94.0213 316.893 92.6359 311.065 91.1866C307.007 90.1546 303.489 89.0973 300.611 88.0439C297.703 86.9773 295.3 85.7746 293.476 84.4626C291.62 83.1373 290.261 81.5346 289.431 79.7013C288.601 77.8839 288.191 75.6773 288.212 73.1546C288.237 69.8039 288.943 66.7893 290.308 64.1959C291.668 61.6119 293.539 59.3946 295.86 57.6079C298.169 55.8333 300.939 54.4733 304.084 53.5813C307.217 52.6893 310.619 52.2519 314.195 52.2813C318.935 52.3213 323.563 53.1173 327.955 54.6479C332.348 56.1799 336.335 58.2786 339.811 60.8853L340.055 61.0679L333.776 69.8639L333.525 69.6693C327.421 65.0399 320.809 62.6613 313.857 62.6026C310.453 62.5786 307.529 63.2679 305.169 64.6639C302.835 66.0493 301.688 68.2119 301.661 71.2746C301.651 72.5413 301.88 73.6253 302.343 74.4906C302.8 75.3546 303.576 76.1146 304.636 76.7519C305.719 77.4146 307.18 78.0173 308.969 78.5626C310.768 79.1119 313.02 79.7359 315.661 80.4173C320.105 81.5266 323.999 82.6506 327.223 83.7546C330.46 84.8626 333.175 86.1719 335.292 87.6506C337.429 89.1453 339.019 90.9133 340.016 92.9066C341.011 94.9013 341.505 97.3186 341.483 100.087C341.457 103.192 340.795 106.035 339.515 108.545C338.236 111.056 336.409 113.212 334.085 114.959C331.771 116.696 328.919 118.049 325.62 118.983C322.315 119.912 318.623 120.365 314.633 120.335Z" fill="#ED3024"/>
<path d="M371.348 120.547C369.175 120.528 367.115 120.216 365.229 119.615C363.341 119.008 361.636 118.096 360.173 116.908C358.7 115.707 357.533 114.131 356.701 112.22C355.876 110.318 355.465 107.99 355.485 105.303L355.815 64.9375L347.108 64.8669L347.201 53.6695L355.907 53.7416L356.084 32.3455L370.384 32.4629L370.212 53.8589L384.392 53.9735L384.3 65.1709L370.123 65.0549L369.827 101.067C369.812 103.28 370.427 104.895 371.664 105.872C372.915 106.872 374.477 107.387 376.307 107.404C378.171 107.416 379.983 107.103 381.677 106.47C383.412 105.828 384.709 105.296 385.517 104.9L385.857 104.731L388.924 116.199L388.68 116.307C386.843 117.126 384.376 118.05 381.348 119.056C378.295 120.075 374.932 120.576 371.348 120.547Z" fill="#ED3024"/>
<path d="M404.404 36.002L401.028 35.9726L400.951 44.918L397.724 44.8913L397.797 35.9486L394.4 35.9193L394.424 33.1033L404.431 33.186L404.404 36.002Z" fill="#ED3024"/>
<path d="M414.404 45.0286L414.453 38.8353L412.446 43.174L410.722 43.162L408.785 38.7873L408.737 44.982L405.508 44.958L405.602 33.198L409.133 33.226L411.62 38.7793L414.216 33.2686L417.725 33.2966L417.63 45.0566L414.404 45.0286Z" fill="#ED3024"/>
</svg>
