<svg width="180" height="180" viewBox="0 0 180 180" fill="none" xmlns="http://www.w3.org/2000/svg">
<rect width="180" height="180" rx="15" fill="#89AA3E"/>
<rect x="4.25" y="4.25" width="171.5" height="171.5" rx="13.75" stroke="white" stroke-width="2.5"/>
<path d="M138.947 49.1027L156.76 46.8119C158.588 46.6036 159.946 45.0937 159.998 43.2714C160.051 41.4492 158.745 39.8872 156.969 39.5748L136.91 36.0344C136.805 35.722 136.648 35.4096 136.544 35.0972C136.492 34.7327 136.439 34.4203 136.387 34.2121C135.29 29.7865 132.94 26.0378 129.44 23.0701C126.462 20.571 122.597 18.6966 118 17.3429C115.806 16.6661 113.403 16.3537 110.791 16.3537C101.858 16.3537 92.6124 20.3107 88.5901 23.018C87.0753 24.0073 86.5007 25.9858 87.2842 27.5998C87.9633 29.1097 88.7991 30.4113 89.6871 31.5047L88.8513 33.1187C86.5529 31.0882 84.0977 29.2138 81.4336 27.4436C72.8667 21.7164 62.4193 17.4471 51.2405 15.1041C50.9793 15.0521 50.7181 15 50.4569 15C49.6212 15 48.8376 15.2603 48.1585 15.781C47.3227 16.4578 46.8003 17.4991 46.8003 18.5925C46.7481 23.9552 47.0093 29.0576 47.6884 33.8476C44.5019 34.16 41.3154 34.6286 38.129 35.3055C37.032 35.5137 36.1439 36.2426 35.6216 37.1798C35.0992 38.117 35.047 39.3145 35.4649 40.3037C41.4199 54.4134 49.151 65.3471 58.5537 72.8445C60.7477 74.6147 63.0984 76.1767 65.5013 77.5824L51.7106 103.927L21.8832 120.64C20.6817 121.317 19.9504 122.671 20.0026 124.025C20.1071 125.43 20.9429 126.68 22.2488 127.201C24.7562 128.242 27.4203 128.763 30.1367 128.763C32.853 128.763 35.726 128.19 38.2334 127.044C38.0245 127.513 37.92 127.982 37.92 128.554V134.229C37.92 136.26 39.5916 137.926 41.6289 137.926H45.2332V154.17C45.2332 156.201 46.9048 157.867 48.9421 157.867H55.4195C57.4567 157.867 59.1283 156.201 59.1283 154.17V137.926H61.0611C60.7477 138.915 60.5387 139.957 60.4343 141.102V141.831C60.3298 142.612 60.5387 143.341 60.9044 143.966C60.1731 145.371 59.8074 146.985 59.8074 148.704C59.8074 151.619 60.9044 154.222 62.9417 155.941C64.77 157.555 67.1729 158.388 69.837 158.388C71.3519 158.388 72.8145 158.127 74.1727 157.555C74.5906 157.711 75.0607 157.815 75.5308 157.815H81.7993C82.3217 157.815 82.8441 157.711 83.3142 157.503C83.7843 157.711 84.3067 157.815 84.8291 157.815H91.2542C93.2915 157.815 94.9631 156.149 94.9631 154.118V149.068H95.6422C98.463 149.068 100.918 148.495 102.851 147.402C102.851 147.818 102.799 148.235 102.799 148.652C102.799 151.567 103.896 154.17 105.933 155.889C107.761 157.503 110.164 158.336 112.828 158.336C114.343 158.336 115.806 158.075 117.164 157.503C117.582 157.659 118.052 157.763 118.522 157.763H124.373V161.251C124.373 163.178 125.888 164.792 127.82 164.896H128.447C129.022 165 129.44 165 129.753 165C130.067 165 130.432 165 130.85 165C133.044 165 136.178 164.688 138.32 162.293C138.32 162.293 138.32 162.293 138.372 162.241C139.469 160.887 140.462 158.804 141.977 154.587L147.357 139.28C148.297 139.644 149.342 139.905 150.387 139.905C154.827 139.905 158.275 136.468 158.275 132.095C158.275 127.721 154.827 124.337 150.387 124.337C146.365 124.337 143.021 127.305 142.551 131.158H138.529C137.119 131.158 135.865 131.939 135.238 133.188C134.611 131.939 133.357 131.158 131.947 131.158H125.208C124.216 131.158 123.276 131.574 122.544 132.251C120.455 131.21 118.104 130.689 115.492 130.689C112.306 130.689 109.694 131.418 107.709 132.772C107.03 130.325 105.724 128.711 104.575 127.721C102.329 125.743 99.4555 124.754 95.9556 124.754H84.8291C82.7918 124.754 81.1202 126.42 81.1202 128.45V133.188C80.7023 132.876 80.2322 132.563 79.7098 132.303C77.5681 131.21 75.1652 130.689 72.5011 130.689C70.0982 130.689 68.0609 131.106 66.3371 131.887V128.502C66.3371 126.472 64.6655 124.806 62.6282 124.806H53.5912C53.9568 124.597 54.3225 124.389 54.6359 124.129L68.74 114.601L90.0528 118.089C91.9856 118.402 93.9184 118.558 95.8511 118.558C105.776 118.558 115.44 114.288 123.067 106.583C132.94 96.5863 138.424 81.9559 138.163 66.4405L138.059 59.7761C138.059 59.7761 138.059 59.3596 138.007 59.1513L137.589 56.9125C138.111 56.3398 138.424 55.6109 138.477 54.8299L138.999 48.8424L138.947 49.1027Z" fill="white"/>
<path d="M94.7391 78.9766C83.0902 81.7361 70.501 77.675 60.6804 69.8132C50.912 61.9513 43.7555 50.7052 38.6885 38.7302C59.0088 34.565 81.7842 36.9079 98.239 51.2259C103.515 55.8076 108.321 63.0447 106.231 69.8652C104.612 75.0197 99.5971 77.8312 94.6868 79.0287L94.7391 78.9766Z" fill="#657F37"/>
<path d="M62.6135 101.73L23.4355 123.65C28.3981 125.733 34.0919 125.264 38.6366 122.452L77.1877 98.5024L62.6135 101.73Z" fill="#657F37"/>
<path d="M37.4326 121.357L43.8578 122.71C46.8353 123.335 49.9173 122.71 52.3725 121.044L82.4089 100.687L77.3941 95.9487L37.3281 121.357H37.4326Z" fill="#89AB3E"/>
<path d="M134.282 66.4299C134.752 95.4823 113.962 118.287 90.4552 114.434L56.501 108.863L95.8356 33.785C97.4028 31.4941 99.3355 29.4115 101.582 27.6413C106.022 24.205 111.716 22.3306 118.036 23.8405C122.059 25.1422 125.663 27.0686 128.536 29.8801C131.409 32.6396 133.499 36.2841 134.491 40.97C134.543 41.2303 134.596 41.4386 134.596 41.6989C134.857 44.8228 132.976 48.6757 132.611 51.9037L134.126 59.8176L134.23 66.482L134.282 66.4299Z" fill="#657F37"/>
<path d="M132.457 63.2538C132.927 92.3062 112.137 115.111 88.63 111.258L54.6758 105.687L94.0104 30.6089C95.5776 28.318 97.5103 26.2354 99.7565 24.5173C104.197 21.081 109.891 19.2066 116.211 20.7165C120.234 22.0181 123.838 23.9445 126.711 26.7561C129.584 29.5155 131.674 33.1601 132.666 37.846C132.718 38.1063 132.771 38.3146 132.771 38.5749C133.032 41.6988 131.099 45.5516 130.785 48.7797L132.3 56.6936L132.405 63.3579L132.457 63.2538Z" fill="#89AB3E"/>
<path d="M123.054 43.9897L130.942 38.3667L156.172 42.7922L132.456 45.812L123.054 43.9897Z" fill="#1B1925"/>
<path d="M131.253 43.417C131.253 43.417 127.492 48.9359 120.597 48.9359C120.597 48.9359 126.134 55.4441 134.596 54.4028L135.432 45.031L131.253 43.4691V43.417Z" fill="#E7282B"/>
<path d="M132.975 37.0651C132.766 37.6899 130.99 40.189 130.572 40.7618C130.572 40.7618 131.146 37.0651 128.796 34.5139C118.244 22.9034 98.6026 43.1047 90.5059 25.767C94.7893 22.9034 107.326 17.6968 116.781 20.5604C120.647 21.6538 124.147 23.2678 126.915 25.5587C129.684 27.8496 131.721 30.8694 132.661 34.7222C132.661 34.9304 132.975 36.8048 132.975 37.0131V37.0651Z" fill="#D42D27"/>
<path d="M123.783 41.6465C123.783 44.1977 121.693 46.2803 119.133 46.2803C116.574 46.2803 114.484 44.1977 114.484 41.6465C114.484 39.0953 116.574 37.0127 119.133 37.0127C121.693 37.0127 123.783 39.0953 123.783 41.6465Z" fill="#E4E5F1"/>
<path d="M122.374 41.646C122.374 43.4162 120.912 44.9261 119.083 44.9261C117.255 44.9261 115.845 43.4683 115.845 41.646C115.845 39.8237 117.307 38.418 119.083 38.418C120.86 38.418 122.374 39.8758 122.374 41.646Z" fill="#1B1925"/>
<path d="M118.718 40.864C118.718 41.2805 118.353 41.645 117.935 41.645C117.517 41.645 117.151 41.2805 117.151 40.864C117.151 40.4475 117.517 40.083 117.935 40.083C118.353 40.083 118.718 40.4475 118.718 40.864Z" fill="white"/>
<path d="M129.426 82.62C122.896 101.624 106.546 114.171 88.5763 111.256L54.6221 105.685L80.9497 55.4419C80.9497 55.4419 83.9272 91.6272 129.426 82.5679" fill="#C5D892"/>
<path d="M87.1664 80.852C75.413 78.7694 65.4357 69.9704 59.6374 58.9325C53.8391 47.8426 51.8018 34.6701 51.9585 21.6538C72.2266 25.9232 92.1812 37.1172 101.584 56.7979C104.561 63.0977 106.129 71.6885 101.427 77.0512C97.8751 81.1123 92.129 81.7371 87.2187 80.852H87.1664Z" fill="#657F37"/>
<path d="M85.5446 77.623C73.7912 75.5404 63.8139 66.7414 58.0156 55.7035C52.165 44.6136 50.1277 31.4411 50.3367 18.4248C70.6047 22.6942 90.5594 33.8882 99.9621 53.5688C102.992 59.8687 104.507 68.4595 99.8054 73.8222C96.2532 77.8833 90.5071 78.5081 85.5446 77.623Z" fill="#89AB3E"/>
<path d="M61.7754 128.44H41.3506V134.063H48.6638V154.056H55.1935V134.063H62.4544V128.44H61.7754Z" fill="#89AA3E"/>
<path d="M81.1562 152.024C81.1562 152.024 80.7905 151.816 80.7383 151.712C80.7383 151.712 80.5816 151.4 80.5816 150.827C80.5816 150.046 80.5816 149.369 80.5816 148.796V140.57C80.5816 138.279 79.6935 136.457 77.9175 135.572C76.2981 134.739 74.4176 134.322 72.3281 134.322C69.1938 134.322 66.7909 135.155 65.3805 136.978C64.4925 138.123 64.0224 139.581 63.9179 141.247V141.976H69.7162L69.8207 141.403C69.9252 140.778 70.0819 140.362 70.3431 140.102C70.6043 139.789 71.1789 139.529 72.2236 139.529C73.1639 139.529 73.843 139.685 74.1564 139.841C74.4176 139.997 74.5743 140.154 74.5743 140.778C74.5743 141.091 74.522 141.247 73.9997 141.455C73.7385 141.559 73.1639 141.716 72.3281 141.82L70.7087 142.028C68.8282 142.288 67.3655 142.653 66.3208 143.277C64.388 144.371 63.3955 146.297 63.3955 148.64C63.3955 150.462 64.0224 152.024 65.2238 153.118C66.4253 154.159 67.9402 154.68 69.7162 154.68C71.1266 154.68 72.3803 154.367 73.5295 153.743C74.0519 153.43 74.522 153.118 74.9399 152.753C74.9922 153.066 75.0967 153.378 75.2534 153.691L75.4101 154.107H81.6786V152.285L81.2607 152.077L81.1562 152.024ZM74.4698 145.725V146.349C74.4698 147.807 74.0519 148.588 73.4251 149.005C72.6415 149.525 71.8579 149.786 70.9699 149.786C70.4475 149.786 70.0819 149.629 69.7685 149.421C69.5073 149.213 69.3506 148.901 69.3506 148.224C69.3506 147.495 69.5595 147.182 70.1341 146.818C70.4475 146.662 71.1266 146.401 72.0669 146.245L73.1639 146.037C73.6862 145.933 74.1564 145.829 74.522 145.672L74.4698 145.725Z" fill="#89AA3E"/>
<path d="M101.997 130.47C100.43 129.065 98.2882 128.44 95.7808 128.44H84.6543V154.056H91.0795V145.361H95.4674C98.1837 145.361 100.43 144.736 101.997 143.435C103.669 142.081 104.4 139.79 104.4 136.822C104.4 134.063 103.616 131.928 101.997 130.523V130.47ZM97.9226 136.822C97.9226 137.968 97.6091 138.645 97.1912 139.061C96.7211 139.478 95.9898 139.738 94.945 139.738H91.0795V133.959H94.945C95.9898 133.959 96.7211 134.219 97.1912 134.584C97.6091 134.948 97.9226 135.573 97.9226 136.77V136.822Z" fill="#E5262B"/>
<path d="M124.199 152.024C124.199 152.024 123.833 151.816 123.781 151.712C123.781 151.712 123.624 151.4 123.624 150.827C123.624 150.046 123.624 149.369 123.624 148.796V140.57C123.624 138.279 122.736 136.457 120.96 135.572C119.341 134.739 117.46 134.322 115.371 134.322C112.236 134.322 109.833 135.155 108.423 136.978C107.535 138.123 107.065 139.581 106.96 141.247V141.976H112.759L112.863 141.403C112.968 140.778 113.124 140.362 113.386 140.102C113.647 139.789 114.221 139.529 115.266 139.529C116.206 139.529 116.885 139.685 117.199 139.841C117.46 139.997 117.617 140.154 117.617 140.778C117.617 141.091 117.565 141.247 117.042 141.455C116.781 141.559 116.206 141.716 115.371 141.82L113.751 142.028C111.871 142.288 110.408 142.653 109.311 143.277C107.378 144.371 106.386 146.297 106.386 148.64C106.386 150.462 107.013 152.024 108.214 153.118C109.416 154.159 110.93 154.68 112.706 154.68C114.117 154.68 115.371 154.367 116.52 153.743C117.042 153.43 117.512 153.118 117.93 152.753C117.982 153.066 118.087 153.378 118.244 153.691L118.4 154.107H124.669V152.285L124.251 152.077L124.199 152.024ZM117.512 145.725V146.349C117.512 147.807 117.094 148.588 116.468 149.005C115.684 149.525 114.9 149.786 114.012 149.786C113.49 149.786 113.124 149.629 112.811 149.421C112.55 149.213 112.393 148.901 112.393 148.224C112.393 147.495 112.602 147.182 113.177 146.818C113.49 146.662 114.169 146.401 115.109 146.245L116.206 146.037C116.729 145.933 117.199 145.829 117.565 145.672L117.512 145.725Z" fill="#89AA3E"/>
<path d="M138.302 134.739L135.115 146.142L131.72 134.739H124.981L131.877 154.264C131.877 154.264 131.772 154.628 131.616 154.993C131.407 155.513 131.198 155.826 131.093 155.826C130.884 155.93 130.675 156.034 130.362 156.086C130.101 156.086 129.84 156.138 129.526 156.138C129.422 156.138 129.265 156.138 129.16 156.138H127.855V156.815V161.188H128.481C129.004 161.24 129.369 161.293 129.631 161.293C129.892 161.293 130.257 161.293 130.675 161.293C132.817 161.293 134.436 160.928 135.377 159.835C136.212 158.845 137.1 156.711 138.354 153.274L144.832 134.739H138.354H138.302Z" fill="#89AA3E"/>
<path d="M154.394 131.979C154.394 134.27 152.565 136.092 150.215 136.092C147.864 136.092 145.983 134.27 145.983 131.979C145.983 129.688 147.864 127.918 150.215 127.918C152.565 127.918 154.394 129.74 154.394 131.979ZM147.028 131.979C147.028 133.801 148.386 135.259 150.215 135.259C152.043 135.259 153.349 133.801 153.349 132.031C153.349 130.261 152.043 128.751 150.215 128.751C148.386 128.751 147.028 130.209 147.028 132.031V131.979ZM149.536 134.114H148.595V130.053C148.961 130.001 149.483 129.949 150.162 129.949C150.946 129.949 151.312 130.053 151.573 130.261C151.782 130.417 151.991 130.782 151.991 131.146C151.991 131.615 151.625 131.927 151.155 132.083C151.573 132.291 151.782 132.604 151.886 133.124C151.991 133.749 152.095 134.01 152.2 134.166H151.155C151.155 134.166 150.946 133.645 150.841 133.177C150.789 132.708 150.528 132.552 150.006 132.552H149.536V134.218V134.114ZM149.536 131.823H150.006C150.528 131.823 150.946 131.667 150.946 131.25C150.946 130.886 150.685 130.625 150.058 130.625C149.797 130.625 149.64 130.625 149.536 130.625V131.771V131.823Z" fill="#89AA3E"/>
</svg>
