<svg width="152" height="152" viewBox="0 0 152 152" fill="none" xmlns="http://www.w3.org/2000/svg">
<path d="M134.898 0L17.1017 0C7.6567 0 0 7.6567 0 17.1017L0 134.898C0 144.343 7.6567 152 17.1017 152H134.898C144.343 152 152 144.343 152 134.898V17.1017C152 7.6567 144.343 0 134.898 0Z" fill="#89AA3E"/>
<path d="M118.344 41.2714L133.895 39.2648C135.491 39.0824 136.677 37.7598 136.723 36.1637C136.768 34.5675 135.628 33.1994 134.077 32.9257L116.565 29.8246C116.474 29.551 116.337 29.2774 116.246 29.0038C116.2 28.6845 116.155 28.4109 116.109 28.2285C115.152 24.3521 113.099 21.0686 110.044 18.4691C107.444 16.2801 104.07 14.6383 100.056 13.4526C98.1411 12.8597 96.0432 12.5861 93.763 12.5861C85.9646 12.5861 77.8926 16.0521 74.3811 18.4235C73.0585 19.29 72.5569 21.023 73.241 22.4367C73.8338 23.7592 74.5635 24.8993 75.3388 25.857L74.6091 27.2708C72.6025 25.4922 70.4591 23.8504 68.1333 22.2999C60.6541 17.2834 51.5332 13.5438 41.7738 11.4916C41.5458 11.446 41.3178 11.4004 41.0898 11.4004C40.3601 11.4004 39.676 11.6284 39.0831 12.0845C38.3535 12.6773 37.8974 13.5894 37.8974 14.5471C37.8518 19.2444 38.0798 23.7136 38.6727 27.9092C35.8908 28.1829 33.109 28.5933 30.3271 29.1862C29.3694 29.3686 28.5941 30.0071 28.1381 30.8279C27.682 31.6488 27.6364 32.6977 28.0012 33.5642C33.2002 45.923 39.9496 55.5 48.1585 62.0671C50.0739 63.6176 52.1261 64.9858 54.2239 66.2171L42.1843 89.293L16.1441 103.932C15.0951 104.525 14.4567 105.711 14.5023 106.896C14.5935 108.128 15.3232 109.222 16.4633 109.678C18.6523 110.59 20.9781 111.046 23.3496 111.046C25.721 111.046 28.2293 110.545 30.4183 109.541C30.2359 109.952 30.1447 110.362 30.1447 110.864V115.835C30.1447 117.613 31.604 119.073 33.3826 119.073H36.5293V133.301C36.5293 135.08 37.9886 136.539 39.7672 136.539H45.4222C47.2008 136.539 48.6601 135.08 48.6601 133.301V119.073H50.3475C50.0738 119.939 49.8914 120.851 49.8002 121.855V122.493C49.709 123.177 49.8914 123.816 50.2107 124.363C49.5722 125.594 49.253 127.008 49.253 128.513C49.253 131.067 50.2107 133.347 51.9892 134.852C53.5854 136.266 55.6832 136.995 58.009 136.995C59.3316 136.995 60.6085 136.767 61.7942 136.266C62.1591 136.402 62.5695 136.494 62.9799 136.494H68.4525C68.9085 136.494 69.3646 136.403 69.775 136.22C70.1855 136.403 70.6415 136.494 71.0976 136.494H76.7069C78.4855 136.494 79.9448 135.034 79.9448 133.256V128.832H80.5377C83.0003 128.832 85.1438 128.33 86.8311 127.373C86.8311 127.738 86.7855 128.102 86.7855 128.467C86.7855 131.021 87.7432 133.301 89.5218 134.806C91.118 136.22 93.2158 136.95 95.5416 136.95C96.8641 136.95 98.1411 136.722 99.3268 136.22C99.6916 136.357 100.102 136.448 100.512 136.448H105.62V139.504C105.62 141.191 106.943 142.605 108.63 142.696H109.177C109.679 142.787 110.044 142.787 110.317 142.787C110.591 142.787 110.91 142.787 111.275 142.787C113.191 142.787 115.927 142.514 117.797 140.416C117.797 140.416 117.797 140.416 117.842 140.37C118.8 139.184 119.666 137.36 120.989 133.666L125.686 120.258C126.507 120.578 127.419 120.806 128.331 120.806C132.208 120.806 135.218 117.796 135.218 113.965C135.218 110.134 132.208 107.17 128.331 107.17C124.82 107.17 121.901 109.769 121.491 113.144H117.979C116.748 113.144 115.653 113.828 115.106 114.923C114.559 113.828 113.464 113.144 112.233 113.144H106.35C105.483 113.144 104.663 113.509 104.024 114.102C102.2 113.19 100.148 112.734 97.8674 112.734C95.0855 112.734 92.8053 113.372 91.0723 114.558C90.4795 112.414 89.3394 111.001 88.3361 110.134C86.3751 108.401 83.8668 107.535 80.8113 107.535H71.0976C69.319 107.535 67.8596 108.994 67.8596 110.773V114.923C67.4948 114.649 67.0844 114.375 66.6283 114.147C64.7585 113.19 62.6607 112.734 60.3349 112.734C58.2371 112.734 56.4585 113.099 54.9535 113.783V110.818C54.9535 109.04 53.4942 107.58 51.7156 107.58H43.826C44.1453 107.398 44.4645 107.216 44.7381 106.988L57.0513 98.6419L75.658 101.697C77.3454 101.971 79.0328 102.108 80.7201 102.108C89.385 102.108 97.8218 98.3683 104.48 91.6188C113.099 82.8627 117.888 70.0479 117.66 56.4577L117.569 50.6203C117.569 50.6203 117.569 50.2555 117.523 50.0731L117.158 48.1121C117.614 47.6104 117.888 46.9719 117.933 46.2879L118.389 41.0434L118.344 41.2714Z" fill="white"/>
<path d="M130.612 148.808H21.4345C11.4015 148.808 3.23828 140.645 3.23828 130.612V21.4345C3.23828 11.4015 11.4015 3.23828 21.4345 3.23828H130.612C140.645 3.23828 148.808 11.4015 148.808 21.4345V130.612C148.808 140.645 140.645 148.808 130.612 148.808ZM21.4345 5.88335C12.8608 5.88335 5.92895 12.8608 5.92895 21.3889V130.566C5.92895 139.14 12.9064 146.072 21.4345 146.072H130.612C139.185 146.072 146.117 139.094 146.117 130.566V21.4345C146.117 12.8608 139.14 5.92895 130.612 5.92895H21.4345V5.88335Z" fill="white"/>
<path d="M79.8517 67.7682C69.6818 70.1853 58.6911 66.6281 50.1175 59.7418C41.5894 52.8555 35.3416 43.005 30.918 32.5159C48.6581 28.8675 68.5417 30.9198 82.9072 43.461C87.5132 47.4742 91.7088 53.8132 89.8847 59.7874C88.4709 64.3023 84.0929 66.7649 79.8061 67.8138L79.8517 67.7682Z" fill="#657F37"/>
<path d="M51.805 87.6986L17.6016 106.898C21.934 108.722 26.9049 108.312 30.8725 105.849L64.5287 84.8711L51.805 87.6986Z" fill="#657F37"/>
<path d="M29.8217 104.89L35.431 106.076C38.0305 106.623 40.7212 106.076 42.8646 104.616L69.0872 86.7848L64.7092 82.6348L29.7305 104.89H29.8217Z" fill="#89AB3E"/>
<path d="M114.374 56.7783C114.784 82.2257 96.6338 102.2 76.1117 98.8257L46.4688 93.9461L80.809 28.1843C82.1771 26.1777 83.8645 24.3535 85.8255 22.8029C89.7019 19.793 94.6728 18.1513 100.191 19.4738C103.702 20.6139 106.849 22.3013 109.357 24.7639C111.866 27.181 113.69 30.3733 114.556 34.4777C114.602 34.7057 114.648 34.8881 114.648 35.1162C114.876 37.8524 113.234 41.2272 112.915 44.0547L114.237 50.9866L114.328 56.8239L114.374 56.7783Z" fill="#657F37"/>
<path d="M112.78 53.9964C113.191 79.4437 95.04 99.4185 74.518 96.0438L44.875 91.1641L79.2152 25.4023C80.5834 23.3957 82.2707 21.5716 84.2317 20.0666C88.1081 17.0567 93.079 15.4149 98.5972 16.7375C102.109 17.8776 105.255 19.565 107.764 22.0276C110.272 24.4446 112.096 27.637 112.963 31.7414C113.008 31.9694 113.054 32.1518 113.054 32.3798C113.282 35.1161 111.594 38.4908 111.321 41.3183L112.643 48.2502L112.735 54.0876L112.78 53.9964Z" fill="#89AB3E"/>
<path d="M104.57 37.1226L111.457 32.1973L133.484 36.0737L112.779 38.7187L104.57 37.1226Z" fill="#1B1925"/>
<path d="M111.729 36.6211C111.729 36.6211 108.446 41.4552 102.426 41.4552C102.426 41.4552 107.26 47.1558 114.648 46.2437L115.377 38.0348L111.729 36.6667V36.6211Z" fill="#E7282B"/>
<path d="M113.233 31.0577C113.05 31.605 111.5 33.794 111.135 34.2956C111.135 34.2956 111.637 31.0577 109.584 28.8231C100.372 18.6533 83.225 36.3478 76.1562 21.1615C79.8958 18.6533 90.8409 14.0928 99.0953 16.6011C102.47 17.5588 105.526 18.9725 107.943 20.9791C110.36 22.9857 112.138 25.6308 112.959 29.0055C112.959 29.1879 113.233 30.8297 113.233 31.0121V31.0577Z" fill="#D42D27"/>
<path d="M105.207 35.0705C105.207 37.3051 103.383 39.1293 101.149 39.1293C98.914 39.1293 97.0898 37.3051 97.0898 35.0705C97.0898 32.8359 98.914 31.0117 101.149 31.0117C103.383 31.0117 105.207 32.8359 105.207 35.0705Z" fill="#E4E5F1"/>
<path d="M103.978 35.0697C103.978 36.6202 102.701 37.9428 101.105 37.9428C99.5087 37.9428 98.2773 36.6658 98.2773 35.0697C98.2773 33.4735 99.5543 32.2422 101.105 32.2422C102.655 32.2422 103.978 33.5191 103.978 35.0697Z" fill="#1B1925"/>
<path d="M100.786 34.3852C100.786 34.7501 100.467 35.0693 100.102 35.0693C99.7372 35.0693 99.418 34.7501 99.418 34.3852C99.418 34.0204 99.7372 33.7012 100.102 33.7012C100.467 33.7012 100.786 34.0204 100.786 34.3852Z" fill="white"/>
<path d="M110.134 70.9599C104.433 87.6055 90.1591 98.5962 74.4711 96.0424L44.8281 91.1627L67.8128 47.1543C67.8128 47.1543 70.4123 78.8495 110.134 70.9143" fill="#C5D892"/>
<path d="M73.2408 69.411C62.9798 67.5868 54.2693 59.8796 49.2072 50.2115C44.1451 40.4977 42.3665 28.9597 42.5034 17.5586C60.1979 21.2982 77.6189 31.1032 85.8277 48.3417C88.4272 53.8598 89.7953 61.3846 85.6909 66.0818C82.5898 69.639 77.5733 70.1863 73.2864 69.411H73.2408Z" fill="#657F37"/>
<path d="M71.8243 66.5829C61.5633 64.7587 52.8528 57.0515 47.7907 47.3833C42.683 37.6696 40.9044 26.1316 41.0868 14.7305C58.7814 18.47 76.2023 28.275 84.4111 45.5135C87.0562 51.0317 88.3787 58.5564 84.2743 63.2537C81.1732 66.8109 76.1567 67.3581 71.8243 66.5829Z" fill="#89AB3E"/>
<path d="M51.0736 111.094H33.2422V116.019H39.6268V133.531H45.3274V116.019H51.6664V111.094H51.0736Z" fill="#89AA3E"/>
<path d="M67.9938 131.752C67.9938 131.752 67.6746 131.569 67.629 131.478C67.629 131.478 67.4922 131.204 67.4922 130.703C67.4922 130.019 67.4922 129.426 67.4922 128.924V121.719C67.4922 119.712 66.7169 118.116 65.1663 117.341C63.7526 116.611 62.1108 116.246 60.2867 116.246C57.5504 116.246 55.4526 116.976 54.2213 118.572C53.446 119.575 53.0355 120.852 52.9443 122.312V122.95H58.0064L58.0976 122.448C58.1888 121.901 58.3257 121.536 58.5537 121.308C58.7817 121.035 59.2834 120.807 60.1955 120.807C61.0163 120.807 61.6092 120.943 61.8828 121.08C62.1108 121.217 62.2477 121.354 62.2477 121.901C62.2477 122.175 62.2021 122.312 61.746 122.494C61.518 122.585 61.0163 122.722 60.2867 122.813L58.8729 122.996C57.2312 123.224 55.9542 123.543 55.0421 124.09C53.3548 125.048 52.4883 126.735 52.4883 128.787C52.4883 130.384 53.0355 131.752 54.0844 132.709C55.1333 133.621 56.4559 134.077 58.0064 134.077C59.2378 134.077 60.3323 133.804 61.3356 133.257C61.7916 132.983 62.2021 132.709 62.5669 132.39C62.6125 132.664 62.7037 132.937 62.8405 133.211L62.9773 133.576H68.4499V131.98L68.085 131.797L67.9938 131.752ZM62.1564 126.233V126.781C62.1564 128.058 61.7916 128.742 61.2444 129.107C60.5603 129.563 59.8762 129.791 59.1009 129.791C58.6449 129.791 58.3257 129.654 58.052 129.471C57.824 129.289 57.6872 129.015 57.6872 128.423C57.6872 127.784 57.8696 127.51 58.3713 127.191C58.6449 127.054 59.2378 126.826 60.0586 126.69L61.0163 126.507C61.4724 126.416 61.8828 126.325 62.2021 126.188L62.1564 126.233Z" fill="#89AA3E"/>
<path d="M86.1876 112.872C84.8195 111.641 82.9497 111.094 80.7606 111.094H71.0469V133.531H76.6562V125.915H80.487C82.8585 125.915 84.8195 125.368 86.1876 124.228C87.6469 123.042 88.2854 121.036 88.2854 118.436C88.2854 116.019 87.6013 114.149 86.1876 112.918V112.872ZM82.6304 118.436C82.6304 119.439 82.3568 120.032 81.992 120.397C81.5815 120.762 80.9431 120.99 80.031 120.99H76.6562V115.928H80.031C80.9431 115.928 81.5815 116.156 81.992 116.475C82.3568 116.794 82.6304 117.342 82.6304 118.39V118.436Z" fill="#E5262B"/>
<path d="M105.571 131.752C105.571 131.752 105.251 131.569 105.206 131.478C105.206 131.478 105.069 131.204 105.069 130.703C105.069 130.019 105.069 129.426 105.069 128.924V121.719C105.069 119.712 104.294 118.116 102.743 117.341C101.329 116.611 99.6877 116.246 97.8635 116.246C95.1272 116.246 93.0294 116.976 91.7981 118.572C91.0228 119.575 90.6124 120.852 90.5212 122.312V122.95H95.5833L95.6745 122.448C95.7657 121.901 95.9025 121.536 96.1305 121.308C96.3586 121.035 96.8602 120.807 97.7723 120.807C98.5932 120.807 99.186 120.943 99.4597 121.08C99.6877 121.217 99.8245 121.354 99.8245 121.901C99.8245 122.175 99.7789 122.312 99.3229 122.494C99.0948 122.585 98.5932 122.722 97.8635 122.813L96.4498 122.996C94.808 123.224 93.5311 123.543 92.5734 124.09C90.886 125.048 90.0195 126.735 90.0195 128.787C90.0195 130.384 90.5668 131.752 91.6157 132.709C92.6646 133.621 93.9871 134.077 95.5377 134.077C96.769 134.077 97.8635 133.804 98.8668 133.257C99.3229 132.983 99.7333 132.709 100.098 132.39C100.144 132.664 100.235 132.937 100.372 133.211L100.509 133.576H105.981V131.98L105.616 131.797L105.571 131.752ZM99.7333 126.233V126.781C99.7333 128.058 99.3685 128.742 98.8212 129.107C98.1371 129.563 97.4531 129.791 96.6778 129.791C96.2218 129.791 95.9025 129.654 95.6289 129.471C95.4009 129.289 95.2641 129.015 95.2641 128.423C95.2641 127.784 95.4465 127.51 95.9481 127.191C96.2218 127.054 96.8146 126.826 97.6355 126.69L98.5932 126.507C99.0492 126.416 99.4597 126.325 99.7789 126.188L99.7333 126.233Z" fill="#89AA3E"/>
<path d="M117.883 116.611L115.101 126.599L112.137 116.611H106.254L112.274 133.713C112.274 133.713 112.183 134.032 112.046 134.351C111.863 134.808 111.681 135.081 111.59 135.081C111.407 135.172 111.225 135.264 110.951 135.309C110.723 135.309 110.495 135.355 110.222 135.355C110.13 135.355 109.993 135.355 109.902 135.355H108.762V135.948V139.778H109.309C109.765 139.824 110.085 139.87 110.313 139.87C110.541 139.87 110.86 139.87 111.225 139.87C113.095 139.87 114.508 139.55 115.329 138.593C116.059 137.726 116.834 135.856 117.929 132.847L123.584 116.611H117.929H117.883Z" fill="#89AA3E"/>
<path d="M131.932 114.194C131.932 116.2 130.336 117.797 128.284 117.797C126.232 117.797 124.59 116.2 124.59 114.194C124.59 112.187 126.232 110.637 128.284 110.637C130.336 110.637 131.932 112.233 131.932 114.194ZM125.502 114.194C125.502 115.79 126.688 117.067 128.284 117.067C129.88 117.067 131.02 115.79 131.02 114.239C131.02 112.689 129.88 111.366 128.284 111.366C126.688 111.366 125.502 112.643 125.502 114.239V114.194ZM127.691 116.064H126.87V112.507C127.189 112.461 127.645 112.415 128.238 112.415C128.922 112.415 129.242 112.507 129.47 112.689C129.652 112.826 129.834 113.145 129.834 113.464C129.834 113.875 129.515 114.148 129.105 114.285C129.47 114.467 129.652 114.741 129.743 115.197C129.834 115.744 129.926 115.972 130.017 116.109H129.105C129.105 116.109 128.922 115.653 128.831 115.243C128.785 114.832 128.557 114.696 128.101 114.696H127.691V116.155V116.064ZM127.691 114.057H128.101C128.557 114.057 128.922 113.92 128.922 113.555C128.922 113.236 128.694 113.008 128.147 113.008C127.919 113.008 127.782 113.008 127.691 113.008V114.011V114.057Z" fill="#89AA3E"/>
</svg>
