<svg width="180" height="180" viewBox="0 0 180 180" fill="none" xmlns="http://www.w3.org/2000/svg">
<circle cx="90" cy="90" r="90" fill="#89AA3E"/>
<circle cx="90" cy="90" r="85.75" stroke="white" stroke-width="2.5"/>
<path d="M135.451 51.8292L151.991 49.6911C153.689 49.4967 154.95 48.0875 154.999 46.3867C155.047 44.6859 153.834 43.228 152.185 42.9365L133.559 39.6321C133.462 39.3405 133.316 39.0489 133.219 38.7574C133.171 38.4172 133.122 38.1257 133.074 37.9313C132.055 33.8008 129.872 30.302 126.623 27.5321C123.858 25.1996 120.268 23.4502 116 22.1867C113.962 21.555 111.731 21.2635 109.306 21.2635C101.011 21.2635 92.4258 24.9566 88.6909 27.4835C87.2842 28.4068 86.7506 30.2534 87.4782 31.7598C88.1088 33.169 88.8849 34.3839 89.7095 35.4044L88.9334 36.9108C86.7991 35.0156 84.5193 33.2662 82.0455 31.614C74.0905 26.2687 64.3893 22.2839 54.009 20.0972C53.7665 20.0486 53.524 20 53.2815 20C52.5054 20 51.7778 20.243 51.1472 20.7289C50.3711 21.3606 49.886 22.3325 49.886 23.353C49.8375 28.3582 50.0801 33.1204 50.7106 37.5911C47.7518 37.8827 44.7929 38.32 41.834 38.9518C40.8154 39.1461 39.9908 39.8265 39.5057 40.7011C39.0207 41.5758 38.9722 42.6935 39.3602 43.6168C44.8899 56.7858 52.0688 66.9906 60.7999 73.9882C62.8371 75.6404 65.0199 77.0982 67.2512 78.4103L54.4456 102.999L26.7487 118.598C25.633 119.229 24.9539 120.493 25.0024 121.756C25.0994 123.068 25.8755 124.235 27.0882 124.721C29.4165 125.692 31.8903 126.178 34.4126 126.178C36.9349 126.178 39.6028 125.644 41.931 124.575C41.737 125.012 41.64 125.45 41.64 125.984V131.281C41.64 133.176 43.1922 134.731 45.0839 134.731H48.4309V149.892C48.4309 151.788 49.983 153.343 51.8748 153.343H57.8895C59.7813 153.343 61.3335 151.788 61.3335 149.892V134.731H63.1282C62.8371 135.654 62.6431 136.626 62.5461 137.695V138.376C62.4491 139.104 62.6431 139.785 62.9827 140.368C62.3036 141.68 61.964 143.186 61.964 144.79C61.964 147.511 62.9827 149.941 64.8744 151.545C66.5721 153.051 68.8034 153.829 71.2772 153.829C72.6839 153.829 74.042 153.586 75.3032 153.051C75.6912 153.197 76.1278 153.294 76.5644 153.294H82.3851C82.8701 153.294 83.3552 153.197 83.7917 153.002C84.2283 153.197 84.7134 153.294 85.1984 153.294H91.1647C93.0564 153.294 94.6086 151.739 94.6086 149.844V145.13H95.2392C97.8585 145.13 100.138 144.596 101.933 143.575C101.933 143.964 101.884 144.353 101.884 144.741C101.884 147.463 102.903 149.892 104.795 151.496C106.493 153.002 108.724 153.78 111.198 153.78C112.604 153.78 113.962 153.537 115.224 153.002C115.612 153.148 116.048 153.245 116.485 153.245H121.917V156.501C121.917 158.299 123.324 159.806 125.119 159.903H125.701C126.235 160 126.623 160 126.914 160C127.205 160 127.544 160 127.932 160C129.969 160 132.88 159.708 134.869 157.473C134.869 157.473 134.869 157.473 134.917 157.425C135.936 156.161 136.857 154.217 138.264 150.281L143.26 135.994C144.133 136.335 145.103 136.578 146.073 136.578C150.196 136.578 153.398 133.37 153.398 129.288C153.398 125.207 150.196 122.048 146.073 122.048C142.339 122.048 139.234 124.818 138.798 128.414H135.063C133.753 128.414 132.589 129.143 132.007 130.309C131.425 129.143 130.261 128.414 128.951 128.414H122.694C121.772 128.414 120.899 128.803 120.22 129.434C118.28 128.462 116.097 127.976 113.671 127.976C110.713 127.976 108.287 128.657 106.444 129.92C105.813 127.636 104.601 126.13 103.534 125.207C101.448 123.36 98.7801 122.437 95.5302 122.437H85.1984C83.3067 122.437 81.7545 123.992 81.7545 125.887V130.309C81.3664 130.017 80.9299 129.726 80.4448 129.483C78.4561 128.462 76.2248 127.976 73.751 127.976C71.5197 127.976 69.628 128.365 68.0273 129.094V125.935C68.0273 124.04 66.4751 122.485 64.5834 122.485H56.1918C56.5314 122.291 56.8709 122.096 57.1619 121.854L70.2586 112.961L90.049 116.217C91.8438 116.508 93.6385 116.654 95.4332 116.654C104.649 116.654 113.623 112.669 120.705 105.477C129.872 96.1472 134.966 82.4922 134.723 68.0111L134.626 61.791C134.626 61.791 134.626 61.4023 134.578 61.2079L134.19 59.1184C134.675 58.5838 134.966 57.9035 135.014 57.1746L135.499 51.5863L135.451 51.8292Z" fill="white"/>
<path d="M94.3995 79.7113C83.5827 82.2868 71.8927 78.4964 62.7736 71.1587C53.7029 63.821 47.0576 53.3246 42.3525 42.148C61.2214 38.2604 82.37 40.4472 97.6494 53.8106C102.549 58.0869 107.011 64.8415 105.071 71.2073C103.567 76.0181 98.9106 78.6422 94.351 79.7599L94.3995 79.7113Z" fill="#657F37"/>
<path d="M64.569 100.948L28.1895 121.407C32.7975 123.35 38.0847 122.913 42.3047 120.289L78.1022 97.9355L64.569 100.948Z" fill="#657F37"/>
<path d="M41.1869 119.266L47.1531 120.53C49.9179 121.113 52.7798 120.53 55.0596 118.975L82.9505 99.9743L78.294 95.5522L41.0898 119.266H41.1869Z" fill="#89AB3E"/>
<path d="M131.118 68.0012C131.555 95.1168 112.249 116.401 90.4215 112.805L58.8926 107.606L95.4176 37.5327C96.8728 35.3945 98.6675 33.4507 100.753 31.7985C104.876 28.5913 110.163 26.8419 116.033 28.2512C119.768 29.466 123.115 31.264 125.782 33.8881C128.45 36.4636 130.39 39.8652 131.312 44.2387C131.361 44.4816 131.409 44.676 131.409 44.919C131.652 47.8346 129.905 51.4306 129.566 54.4435L130.973 61.8298L131.07 68.0498L131.118 68.0012Z" fill="#657F37"/>
<path d="M129.424 65.0371C129.86 92.1527 110.555 113.437 88.7272 109.841L57.1982 104.641L93.7233 34.5685C95.1785 32.4304 96.9732 30.4866 99.0589 28.883C103.182 25.6758 108.469 23.9264 114.338 25.3356C118.073 26.5505 121.42 28.3485 124.088 30.9726C126.756 33.5481 128.696 36.9497 129.618 41.3231C129.666 41.5661 129.715 41.7605 129.715 42.0035C129.957 44.9191 128.163 48.5151 127.872 51.5279L129.278 58.9142L129.375 65.1343L129.424 65.0371Z" fill="#89AB3E"/>
<path d="M120.692 47.0573L128.017 41.8091L151.445 45.9396L129.423 48.7581L120.692 47.0573Z" fill="#1B1925"/>
<path d="M128.305 46.5225C128.305 46.5225 124.813 51.6735 118.41 51.6735C118.41 51.6735 123.552 57.7477 131.41 56.7758L132.186 48.0289L128.305 46.5711V46.5225Z" fill="#E7282B"/>
<path d="M129.904 40.5943C129.71 41.1774 128.061 43.51 127.673 44.0445C127.673 44.0445 128.206 40.5943 126.024 38.2132C116.225 27.3767 97.9872 46.2312 90.4688 30.0494C94.4462 27.3767 106.088 22.5173 114.867 25.1899C118.457 26.2104 121.707 27.7168 124.277 29.855C126.848 31.9931 128.74 34.8116 129.613 38.4076C129.613 38.6019 129.904 40.3513 129.904 40.5457V40.5943Z" fill="#D42D27"/>
<path d="M121.368 44.8703C121.368 47.2514 119.428 49.1952 117.051 49.1952C114.675 49.1952 112.734 47.2514 112.734 44.8703C112.734 42.4892 114.675 40.5454 117.051 40.5454C119.428 40.5454 121.368 42.4892 121.368 44.8703Z" fill="#E4E5F1"/>
<path d="M120.061 44.8698C120.061 46.522 118.703 47.9312 117.005 47.9312C115.308 47.9312 113.998 46.5706 113.998 44.8698C113.998 43.169 115.356 41.8569 117.005 41.8569C118.655 41.8569 120.061 43.2176 120.061 44.8698Z" fill="#1B1925"/>
<path d="M116.666 44.1396C116.666 44.5283 116.327 44.8685 115.939 44.8685C115.55 44.8685 115.211 44.5283 115.211 44.1396C115.211 43.7508 115.55 43.4106 115.939 43.4106C116.327 43.4106 116.666 43.7508 116.666 44.1396Z" fill="white"/>
<path d="M126.609 83.1118C120.546 100.849 105.363 112.56 88.6774 109.839L57.1484 104.639L81.5955 57.7456C81.5955 57.7456 84.3603 91.5186 126.609 83.0632" fill="#C5D892"/>
<path d="M87.3678 81.4621C76.4539 79.5183 67.1893 71.3059 61.8051 61.0039C56.4209 50.6533 54.5292 38.359 54.6747 26.2104C73.4951 30.1952 92.0244 40.6429 100.755 59.0116C103.52 64.8915 104.975 72.9095 100.61 77.9147C97.3115 81.7051 91.9759 82.2882 87.4163 81.4621H87.3678Z" fill="#657F37"/>
<path d="M85.8617 78.4479C74.9479 76.5042 65.6832 68.2917 60.299 57.9898C54.8664 47.6392 52.9746 35.3448 53.1687 23.1963C71.989 27.181 90.5183 37.6288 99.2494 55.9974C102.063 61.8773 103.469 69.8953 99.1039 74.9005C95.8055 78.6909 90.4698 79.274 85.8617 78.4479Z" fill="#89AB3E"/>
<path d="M63.7911 125.877H44.8252V131.126H51.616V149.786H57.6793V131.126H64.4216V125.877H63.7911Z" fill="#89AA3E"/>
<path d="M81.7879 147.89C81.7879 147.89 81.4484 147.695 81.3999 147.598C81.3999 147.598 81.2544 147.307 81.2544 146.772C81.2544 146.043 81.2544 145.411 81.2544 144.877V137.199C81.2544 135.061 80.4298 133.36 78.7806 132.534C77.2769 131.756 75.5307 131.368 73.5904 131.368C70.6801 131.368 68.4488 132.145 67.1391 133.846C66.3145 134.915 65.878 136.276 65.781 137.831V138.511H71.1651L71.2621 137.976C71.3592 137.393 71.5047 137.005 71.7472 136.762C71.9897 136.47 72.5233 136.227 73.4934 136.227C74.3665 136.227 74.9971 136.373 75.2881 136.519C75.5307 136.664 75.6762 136.81 75.6762 137.393C75.6762 137.685 75.6277 137.831 75.1426 138.025C74.9001 138.122 74.3665 138.268 73.5904 138.365L72.0867 138.56C70.3405 138.803 68.9824 139.143 68.0122 139.726C66.2175 140.746 65.2959 142.544 65.2959 144.731C65.2959 146.432 65.878 147.89 66.9936 148.91C68.1092 149.882 69.5159 150.368 71.1651 150.368C72.4748 150.368 73.6389 150.076 74.7061 149.493C75.1911 149.202 75.6277 148.91 76.0157 148.57C76.0642 148.862 76.1612 149.153 76.3068 149.445L76.4523 149.833H82.273V148.133L81.885 147.938L81.7879 147.89ZM75.5792 142.01V142.593C75.5792 143.954 75.1911 144.682 74.6091 145.071C73.8815 145.557 73.1539 145.8 72.3293 145.8C71.8442 145.8 71.5047 145.654 71.2136 145.46C70.9711 145.266 70.8256 144.974 70.8256 144.342C70.8256 143.662 71.0196 143.37 71.5532 143.03C71.8442 142.885 72.4748 142.642 73.3479 142.496L74.3665 142.301C74.8516 142.204 75.2881 142.107 75.6277 141.961L75.5792 142.01Z" fill="#89AA3E"/>
<path d="M101.14 127.773C99.685 126.461 97.6962 125.877 95.3679 125.877H85.0361V149.786H91.0024V141.671H95.0769C97.5992 141.671 99.685 141.087 101.14 139.873C102.692 138.609 103.371 136.471 103.371 133.701C103.371 131.126 102.644 129.133 101.14 127.821V127.773ZM97.3567 133.701C97.3567 134.77 97.0656 135.402 96.6776 135.791C96.241 136.179 95.5619 136.422 94.5918 136.422H91.0024V131.028H94.5918C95.5619 131.028 96.241 131.271 96.6776 131.612C97.0656 131.952 97.3567 132.535 97.3567 133.653V133.701Z" fill="#E5262B"/>
<path d="M121.755 147.89C121.755 147.89 121.416 147.695 121.367 147.598C121.367 147.598 121.222 147.307 121.222 146.772C121.222 146.043 121.222 145.411 121.222 144.877V137.199C121.222 135.061 120.397 133.36 118.748 132.534C117.244 131.756 115.498 131.368 113.558 131.368C110.648 131.368 108.416 132.145 107.107 133.846C106.282 134.915 105.845 136.276 105.748 137.831V138.511H111.133L111.23 137.976C111.327 137.393 111.472 137.005 111.715 136.762C111.957 136.47 112.491 136.227 113.461 136.227C114.334 136.227 114.965 136.373 115.256 136.519C115.498 136.664 115.644 136.81 115.644 137.393C115.644 137.685 115.595 137.831 115.11 138.025C114.868 138.122 114.334 138.268 113.558 138.365L112.054 138.56C110.308 138.803 108.95 139.143 107.931 139.726C106.136 140.746 105.215 142.544 105.215 144.731C105.215 146.432 105.797 147.89 106.913 148.91C108.028 149.882 109.435 150.368 111.084 150.368C112.394 150.368 113.558 150.076 114.625 149.493C115.11 149.202 115.547 148.91 115.935 148.57C115.983 148.862 116.08 149.153 116.226 149.445L116.371 149.833H122.192V148.133L121.804 147.938L121.755 147.89ZM115.547 142.01V142.593C115.547 143.954 115.159 144.682 114.577 145.071C113.849 145.557 113.121 145.8 112.297 145.8C111.812 145.8 111.472 145.654 111.181 145.46C110.939 145.266 110.793 144.974 110.793 144.342C110.793 143.662 110.987 143.37 111.521 143.03C111.812 142.885 112.442 142.642 113.315 142.496L114.334 142.301C114.819 142.204 115.256 142.107 115.595 141.961L115.547 142.01Z" fill="#89AA3E"/>
<path d="M134.851 131.757L131.893 142.399L128.74 131.757H122.482L128.885 149.98C128.885 149.98 128.788 150.32 128.643 150.66C128.449 151.146 128.255 151.438 128.158 151.438C127.964 151.535 127.77 151.632 127.479 151.68C127.236 151.68 126.993 151.729 126.702 151.729C126.605 151.729 126.46 151.729 126.363 151.729H125.15V152.361V156.443H125.732C126.217 156.491 126.557 156.54 126.799 156.54C127.042 156.54 127.382 156.54 127.77 156.54C129.758 156.54 131.262 156.2 132.135 155.179C132.911 154.256 133.736 152.264 134.9 149.056L140.915 131.757H134.9H134.851Z" fill="#89AA3E"/>
<path d="M149.794 129.18C149.794 131.319 148.096 133.019 145.913 133.019C143.731 133.019 141.984 131.319 141.984 129.18C141.984 127.042 143.731 125.39 145.913 125.39C148.096 125.39 149.794 127.091 149.794 129.18ZM142.954 129.18C142.954 130.881 144.216 132.242 145.913 132.242C147.611 132.242 148.824 130.881 148.824 129.229C148.824 127.577 147.611 126.168 145.913 126.168C144.216 126.168 142.954 127.528 142.954 129.229V129.18ZM145.283 131.173H144.41V127.382C144.749 127.334 145.234 127.285 145.865 127.285C146.592 127.285 146.932 127.382 147.175 127.577C147.369 127.723 147.563 128.063 147.563 128.403C147.563 128.84 147.223 129.132 146.786 129.278C147.175 129.472 147.369 129.764 147.466 130.25C147.563 130.833 147.66 131.076 147.757 131.221H146.786C146.786 131.221 146.592 130.736 146.495 130.298C146.447 129.861 146.204 129.715 145.719 129.715H145.283V131.27V131.173ZM145.283 129.035H145.719C146.204 129.035 146.592 128.889 146.592 128.5C146.592 128.16 146.35 127.917 145.768 127.917C145.525 127.917 145.38 127.917 145.283 127.917V128.986V129.035Z" fill="#89AA3E"/>
</svg>
