<svg width="180" height="180" viewBox="0 0 180 180" fill="none" xmlns="http://www.w3.org/2000/svg">
<circle cx="90" cy="90" r="90" fill="white"/>
<path d="M135.451 51.8292L151.991 49.6911C153.689 49.4967 154.95 48.0875 154.999 46.3867C155.047 44.6859 153.834 43.228 152.185 42.9365L133.559 39.6321C133.462 39.3405 133.316 39.0489 133.219 38.7574C133.171 38.4172 133.122 38.1257 133.074 37.9313C132.055 33.8008 129.872 30.302 126.623 27.5321C123.858 25.1996 120.268 23.4502 116 22.1867C113.962 21.555 111.731 21.2635 109.306 21.2635C101.011 21.2635 92.4258 24.9566 88.6909 27.4835C87.2842 28.4068 86.7506 30.2534 87.4782 31.7598C88.1088 33.169 88.8849 34.3839 89.7095 35.4044L88.9334 36.9108C86.7991 35.0156 84.5193 33.2662 82.0455 31.614C74.0905 26.2687 64.3893 22.2839 54.009 20.0972C53.7665 20.0486 53.524 20 53.2815 20C52.5054 20 51.7778 20.243 51.1472 20.7289C50.3711 21.3606 49.886 22.3325 49.886 23.353C49.8375 28.3582 50.0801 33.1204 50.7106 37.5911C47.7518 37.8827 44.7929 38.32 41.834 38.9518C40.8154 39.1461 39.9908 39.8265 39.5057 40.7011C39.0207 41.5758 38.9722 42.6935 39.3602 43.6168C44.8899 56.7858 52.0688 66.9906 60.7999 73.9882C62.8371 75.6404 65.0199 77.0982 67.2512 78.4103L54.4456 102.999L26.7487 118.598C25.633 119.229 24.9539 120.493 25.0024 121.756C25.0994 123.068 25.8755 124.235 27.0882 124.721C29.4165 125.692 31.8903 126.178 34.4126 126.178C36.9349 126.178 39.6028 125.644 41.931 124.575C41.737 125.012 41.64 125.45 41.64 125.984V131.281C41.64 133.176 43.1922 134.731 45.0839 134.731H48.4309V149.892C48.4309 151.788 49.983 153.343 51.8748 153.343H57.8895C59.7813 153.343 61.3335 151.788 61.3335 149.892V134.731H63.1282C62.8371 135.654 62.6431 136.626 62.5461 137.695V138.376C62.4491 139.104 62.6431 139.785 62.9827 140.368C62.3036 141.68 61.964 143.186 61.964 144.79C61.964 147.511 62.9827 149.941 64.8744 151.545C66.5721 153.051 68.8034 153.829 71.2772 153.829C72.6839 153.829 74.042 153.586 75.3032 153.051C75.6912 153.197 76.1278 153.294 76.5644 153.294H82.3851C82.8701 153.294 83.3552 153.197 83.7917 153.002C84.2283 153.197 84.7134 153.294 85.1984 153.294H91.1647C93.0564 153.294 94.6086 151.739 94.6086 149.844V145.13H95.2392C97.8585 145.13 100.138 144.596 101.933 143.575C101.933 143.964 101.884 144.353 101.884 144.741C101.884 147.463 102.903 149.892 104.795 151.496C106.493 153.002 108.724 153.78 111.198 153.78C112.604 153.78 113.962 153.537 115.224 153.002C115.612 153.148 116.048 153.245 116.485 153.245H121.917V156.501C121.917 158.299 123.324 159.806 125.119 159.903H125.701C126.235 160 126.623 160 126.914 160C127.205 160 127.544 160 127.932 160C129.969 160 132.88 159.708 134.869 157.473C134.869 157.473 134.869 157.473 134.917 157.425C135.936 156.161 136.857 154.217 138.264 150.281L143.26 135.994C144.133 136.335 145.103 136.578 146.073 136.578C150.196 136.578 153.398 133.37 153.398 129.288C153.398 125.207 150.196 122.048 146.073 122.048C142.339 122.048 139.234 124.818 138.798 128.414H135.063C133.753 128.414 132.589 129.143 132.007 130.309C131.425 129.143 130.261 128.414 128.951 128.414H122.694C121.772 128.414 120.899 128.803 120.22 129.434C118.28 128.462 116.097 127.976 113.671 127.976C110.713 127.976 108.287 128.657 106.444 129.92C105.813 127.636 104.601 126.13 103.534 125.207C101.448 123.36 98.7801 122.437 95.5302 122.437H85.1984C83.3067 122.437 81.7545 123.992 81.7545 125.887V130.309C81.3664 130.017 80.9299 129.726 80.4448 129.483C78.4561 128.462 76.2248 127.976 73.751 127.976C71.5197 127.976 69.628 128.365 68.0273 129.094V125.935C68.0273 124.04 66.4751 122.485 64.5834 122.485H56.1918C56.5314 122.291 56.8709 122.096 57.1619 121.854L70.2586 112.961L90.049 116.217C91.8438 116.508 93.6385 116.654 95.4332 116.654C104.649 116.654 113.623 112.669 120.705 105.477C129.872 96.1472 134.966 82.4922 134.723 68.0111L134.626 61.791C134.626 61.791 134.626 61.4023 134.578 61.2079L134.19 59.1184C134.675 58.5838 134.966 57.9035 135.014 57.1746L135.499 51.5863L135.451 51.8292Z" fill="white"/>
<path d="M94.4005 79.7113C83.5836 82.2868 71.8937 78.4964 62.7746 71.1587C53.7039 63.821 47.0586 53.3246 42.3535 42.148C61.2224 38.2604 82.371 40.4472 97.6504 53.8106C102.549 58.0869 107.012 64.8415 105.072 71.2073C103.568 76.0181 98.9115 78.6422 94.352 79.7599L94.4005 79.7113Z" fill="#657F37"/>
<path d="M64.57 100.948L28.1904 121.407C32.7985 123.35 38.0857 122.913 42.3057 120.289L78.1031 97.9355L64.57 100.948Z" fill="#657F37"/>
<path d="M41.1878 119.267L47.1541 120.53C49.9189 121.113 52.7808 120.53 55.0606 118.975L82.9515 99.9748L78.2949 95.5527L41.0908 119.267H41.1878Z" fill="#89AB3E"/>
<path d="M131.12 68.0012C131.557 95.1168 112.251 116.401 90.4235 112.805L58.8945 107.606L95.4196 37.5327C96.8748 35.3945 98.6695 33.4507 100.755 31.7985C104.878 28.5913 110.165 26.8419 116.035 28.2512C119.77 29.466 123.117 31.264 125.784 33.8881C128.452 36.4636 130.392 39.8652 131.314 44.2387C131.363 44.4816 131.411 44.676 131.411 44.919C131.654 47.8346 129.907 51.4306 129.568 54.4435L130.974 61.8298L131.072 68.0498L131.12 68.0012Z" fill="#657F37"/>
<path d="M129.425 65.0371C129.861 92.1527 110.556 113.437 88.7281 109.841L57.1992 104.641L93.7243 34.5685C95.1794 32.4304 96.9742 30.4866 99.0599 28.883C103.183 25.6758 108.47 23.9264 114.339 25.3356C118.074 26.5505 121.421 28.3485 124.089 30.9726C126.757 33.5481 128.697 36.9497 129.619 41.3231C129.667 41.5661 129.716 41.7605 129.716 42.0035C129.958 44.9191 128.164 48.5151 127.873 51.5279L129.279 58.9142L129.376 65.1343L129.425 65.0371Z" fill="#89AB3E"/>
<path d="M120.692 47.0568L128.017 41.8086L151.445 45.9391L129.423 48.7576L120.692 47.0568Z" fill="#1B1925"/>
<path d="M128.306 46.5225C128.306 46.5225 124.814 51.6735 118.411 51.6735C118.411 51.6735 123.553 57.7477 131.411 56.7758L132.187 48.0289L128.306 46.5711V46.5225Z" fill="#E7282B"/>
<path d="M129.905 40.5943C129.711 41.1774 128.062 43.51 127.674 44.0445C127.674 44.0445 128.207 40.5943 126.025 38.2132C116.226 27.3767 97.9882 46.2312 90.4697 30.0494C94.4472 27.3767 106.089 22.5173 114.868 25.1899C118.458 26.2104 121.708 27.7168 124.278 29.855C126.849 31.9931 128.741 34.8116 129.614 38.4076C129.614 38.6019 129.905 40.3513 129.905 40.5457V40.5943Z" fill="#D42D27"/>
<path d="M121.369 44.8703C121.369 47.2514 119.429 49.1952 117.052 49.1952C114.676 49.1952 112.735 47.2514 112.735 44.8703C112.735 42.4892 114.676 40.5454 117.052 40.5454C119.429 40.5454 121.369 42.4892 121.369 44.8703Z" fill="#E4E5F1"/>
<path d="M120.062 44.8693C120.062 46.5215 118.704 47.9307 117.006 47.9307C115.309 47.9307 113.999 46.5701 113.999 44.8693C113.999 43.1685 115.357 41.8564 117.006 41.8564C118.656 41.8564 120.062 43.2171 120.062 44.8693Z" fill="#1B1925"/>
<path d="M116.667 44.1396C116.667 44.5283 116.328 44.8685 115.94 44.8685C115.551 44.8685 115.212 44.5283 115.212 44.1396C115.212 43.7508 115.551 43.4106 115.94 43.4106C116.328 43.4106 116.667 43.7508 116.667 44.1396Z" fill="white"/>
<path d="M126.61 83.1123C120.547 100.849 105.364 112.56 88.6783 109.839L57.1494 104.64L81.5965 57.7461C81.5965 57.7461 84.3613 91.5191 126.61 83.0637" fill="#C5D892"/>
<path d="M87.3688 81.4621C76.4549 79.5183 67.1903 71.3059 61.8061 61.0039C56.4219 50.6534 54.5302 38.359 54.6757 26.2104C73.496 30.1952 92.0253 40.6429 100.756 59.0116C103.521 64.8915 104.976 72.9095 100.611 77.9147C97.3125 81.7051 91.9768 82.2882 87.4173 81.4621H87.3688Z" fill="#657F37"/>
<path d="M85.8627 78.4479C74.9488 76.5042 65.6842 68.2917 60.3 57.9898C54.8674 47.6392 52.9756 35.3448 53.1696 23.1963C71.99 27.181 90.5193 37.6288 99.2504 55.9974C102.064 61.8773 103.47 69.8953 99.1048 74.9006C95.8064 78.6909 90.4708 79.274 85.8627 78.4479Z" fill="#89AB3E"/>
<path d="M63.792 125.877H44.8262V131.126H51.617V149.786H57.6803V131.126H64.4226V125.877H63.792Z" fill="#89AA3E"/>
<path d="M81.7889 147.89C81.7889 147.89 81.4494 147.695 81.4009 147.598C81.4009 147.598 81.2554 147.307 81.2554 146.772C81.2554 146.043 81.2554 145.411 81.2554 144.877V137.199C81.2554 135.061 80.4308 133.36 78.7816 132.534C77.2779 131.756 75.5316 131.368 73.5914 131.368C70.681 131.368 68.4498 132.145 67.1401 133.846C66.3155 134.915 65.8789 136.276 65.7819 137.831V138.511H71.1661L71.2631 137.976C71.3601 137.393 71.5056 137.005 71.7482 136.762C71.9907 136.47 72.5243 136.227 73.4944 136.227C74.3675 136.227 74.9981 136.373 75.2891 136.519C75.5316 136.664 75.6772 136.81 75.6772 137.393C75.6772 137.685 75.6287 137.831 75.1436 138.025C74.9011 138.122 74.3675 138.268 73.5914 138.365L72.0877 138.56C70.3415 138.803 68.9833 139.143 68.0132 139.726C66.2185 140.746 65.2969 142.544 65.2969 144.731C65.2969 146.432 65.8789 147.89 66.9946 148.91C68.1102 149.882 69.5169 150.368 71.1661 150.368C72.4758 150.368 73.6399 150.076 74.707 149.493C75.1921 149.202 75.6287 148.91 76.0167 148.57C76.0652 148.862 76.1622 149.153 76.3077 149.445L76.4533 149.833H82.274V148.133L81.8859 147.938L81.7889 147.89ZM75.5802 142.01V142.593C75.5802 143.954 75.1921 144.682 74.61 145.071C73.8824 145.557 73.1549 145.8 72.3302 145.8C71.8452 145.8 71.5056 145.654 71.2146 145.46C70.9721 145.266 70.8266 144.974 70.8266 144.342C70.8266 143.662 71.0206 143.37 71.5542 143.03C71.8452 142.885 72.4758 142.642 73.3489 142.496L74.3675 142.301C74.8526 142.204 75.2891 142.107 75.6287 141.961L75.5802 142.01Z" fill="#89AA3E"/>
<path d="M101.14 127.773C99.685 126.461 97.6962 125.877 95.3679 125.877H85.0361V149.786H91.0024V141.671H95.0769C97.5992 141.671 99.685 141.087 101.14 139.873C102.692 138.609 103.371 136.471 103.371 133.701C103.371 131.126 102.644 129.133 101.14 127.821V127.773ZM97.3567 133.701C97.3567 134.77 97.0656 135.402 96.6776 135.791C96.241 136.179 95.5619 136.422 94.5918 136.422H91.0024V131.028H94.5918C95.5619 131.028 96.241 131.271 96.6776 131.612C97.0656 131.952 97.3567 132.535 97.3567 133.653V133.701Z" fill="#E5262B"/>
<path d="M121.756 147.89C121.756 147.89 121.417 147.695 121.368 147.598C121.368 147.598 121.223 147.307 121.223 146.772C121.223 146.043 121.223 145.411 121.223 144.877V137.199C121.223 135.061 120.398 133.36 118.749 132.534C117.245 131.756 115.499 131.368 113.559 131.368C110.648 131.368 108.417 132.145 107.108 133.846C106.283 134.915 105.846 136.276 105.749 137.831V138.511H111.134L111.231 137.976C111.328 137.393 111.473 137.005 111.716 136.762C111.958 136.47 112.492 136.227 113.462 136.227C114.335 136.227 114.966 136.373 115.257 136.519C115.499 136.664 115.645 136.81 115.645 137.393C115.645 137.685 115.596 137.831 115.111 138.025C114.869 138.122 114.335 138.268 113.559 138.365L112.055 138.56C110.309 138.803 108.951 139.143 107.932 139.726C106.137 140.746 105.216 142.544 105.216 144.731C105.216 146.432 105.798 147.89 106.914 148.91C108.029 149.882 109.436 150.368 111.085 150.368C112.395 150.368 113.559 150.076 114.626 149.493C115.111 149.202 115.548 148.91 115.936 148.57C115.984 148.862 116.081 149.153 116.227 149.445L116.372 149.833H122.193V148.133L121.805 147.938L121.756 147.89ZM115.548 142.01V142.593C115.548 143.954 115.16 144.682 114.577 145.071C113.85 145.557 113.122 145.8 112.298 145.8C111.813 145.8 111.473 145.654 111.182 145.46C110.94 145.266 110.794 144.974 110.794 144.342C110.794 143.662 110.988 143.37 111.522 143.03C111.813 142.885 112.443 142.642 113.316 142.496L114.335 142.301C114.82 142.204 115.257 142.107 115.596 141.961L115.548 142.01Z" fill="#89AA3E"/>
<path d="M134.852 131.757L131.894 142.399L128.741 131.757H122.483L128.886 149.98C128.886 149.98 128.789 150.32 128.644 150.66C128.45 151.146 128.256 151.438 128.159 151.438C127.965 151.535 127.771 151.632 127.48 151.68C127.237 151.68 126.994 151.729 126.703 151.729C126.606 151.729 126.461 151.729 126.364 151.729H125.151V152.361V156.443H125.733C126.218 156.491 126.558 156.54 126.8 156.54C127.043 156.54 127.383 156.54 127.771 156.54C129.759 156.54 131.263 156.2 132.136 155.179C132.912 154.256 133.737 152.264 134.901 149.056L140.916 131.757H134.901H134.852Z" fill="#89AA3E"/>
<path d="M149.796 129.18C149.796 131.319 148.098 133.019 145.915 133.019C143.733 133.019 141.986 131.319 141.986 129.18C141.986 127.042 143.733 125.39 145.915 125.39C148.098 125.39 149.796 127.091 149.796 129.18ZM142.956 129.18C142.956 130.881 144.218 132.242 145.915 132.242C147.613 132.242 148.826 130.881 148.826 129.229C148.826 127.577 147.613 126.168 145.915 126.168C144.218 126.168 142.956 127.528 142.956 129.229V129.18ZM145.285 131.173H144.412V127.382C144.751 127.334 145.236 127.285 145.867 127.285C146.594 127.285 146.934 127.382 147.176 127.577C147.37 127.723 147.565 128.063 147.565 128.403C147.565 128.84 147.225 129.132 146.788 129.278C147.176 129.472 147.371 129.764 147.468 130.25C147.565 130.833 147.662 131.076 147.759 131.221H146.788C146.788 131.221 146.594 130.736 146.497 130.298C146.449 129.861 146.206 129.715 145.721 129.715H145.285V131.27V131.173ZM145.285 129.035H145.721C146.206 129.035 146.594 128.889 146.594 128.5C146.594 128.16 146.352 127.917 145.77 127.917C145.527 127.917 145.382 127.917 145.285 127.917V128.986V129.035Z" fill="#89AA3E"/>
<circle cx="90" cy="90" r="85.75" stroke="#89AA3E" stroke-width="2.5"/>
</svg>
