<svg width="180" height="180" viewBox="0 0 180 180" fill="none" xmlns="http://www.w3.org/2000/svg">
<circle cx="90" cy="90" r="90" fill="#8CAD3E"/>
<path d="M15 75.1933H13.5V73.6933V71.8137V71.8064L13.5001 71.7991L13.5102 70.755V69.5875V68.1308V68.1259L13.5 66.5604H13.5V66.5507V65V63.5H15H30.3061H45.6122H47.1277L47.1122 65.0153L47.0684 69.2915L47.0683 69.299L47.0027 73.5987L46.9805 75.0559L45.5233 75.0757L40.3411 75.1462V75.1462L40.3342 75.1463L36.6125 75.1799L36.5729 89.2751L36.5729 89.2772L36.5073 104.831L36.5011 106.303L35.0296 106.325L30.2847 106.395V106.395L30.2772 106.395L25.5104 106.442L23.9956 106.457V104.942V89.3179V75.1933H20.2478H15Z" fill="#8CAD3E" stroke="white" stroke-width="3"/>
<path d="M76.2246 106.442H74.7246V104.942V84.9712V65V63.5H76.2246H86.2829C89.5649 63.5 92.0934 63.5176 93.8058 63.5562C94.6581 63.5754 95.3289 63.6002 95.7955 63.6324C96.0214 63.648 96.2399 63.6679 96.4192 63.6971C96.497 63.7098 96.6424 63.7356 96.7969 63.7898C96.8589 63.8115 97.0046 63.8653 97.1661 63.9737C97.5023 63.9912 97.824 64.0665 98.0975 64.166C98.3465 64.2565 98.6896 64.4154 98.9847 64.6852C99.2334 64.7092 99.5065 64.7775 99.768 64.918C99.8961 64.9868 100.075 65.1069 100.241 65.2853C100.359 65.333 100.476 65.3942 100.588 65.4711C100.71 65.5541 100.833 65.6624 100.944 65.7947C101.054 65.8477 101.15 65.9053 101.223 65.9525C101.392 66.0608 101.563 66.1929 101.718 66.3201C102.035 66.5797 102.395 66.9121 102.73 67.2417C103.064 67.5718 103.4 67.9252 103.662 68.2332C103.791 68.3843 103.923 68.5483 104.031 68.7069C104.085 68.785 104.151 68.8883 104.21 69.0062C104.24 69.0653 104.319 69.2237 104.366 69.442C104.383 69.4766 104.406 69.5196 104.435 69.5669C104.464 69.6157 104.496 69.6634 104.527 69.7065L104.561 69.7526L104.591 69.8011C104.879 70.2656 105.179 70.9546 105.311 71.4681C105.482 71.6359 105.578 71.7997 105.61 71.8567C105.739 72.0862 105.801 72.3146 105.834 72.4574C105.905 72.768 105.932 73.1163 105.932 73.4349C105.932 73.5612 105.943 73.6797 105.956 73.7683C105.993 73.83 106.016 73.8788 106.029 73.9056C106.088 74.0292 106.123 74.1409 106.142 74.2111C106.182 74.3553 106.207 74.5018 106.224 74.6197C106.26 74.8657 106.286 75.1732 106.306 75.5103C106.347 76.1941 106.369 77.1192 106.369 78.181C106.369 79.2874 106.347 80.1983 106.306 80.8459C106.286 81.162 106.259 81.4567 106.219 81.6923C106.201 81.798 106.168 81.9688 106.103 82.1433C106.079 82.208 106.028 82.3385 105.932 82.4848C105.932 82.4911 105.932 82.4975 105.932 82.5041C105.932 82.9208 105.815 83.4058 105.715 83.7699C105.6 84.1826 105.449 84.6364 105.288 85.0608C105.129 85.4824 104.949 85.9063 104.774 86.2531C104.688 86.4231 104.588 86.6067 104.476 86.7715C104.433 86.835 104.377 86.9114 104.31 86.9905C104.301 87.0176 104.293 87.0395 104.287 87.0557C104.245 87.1682 104.196 87.2667 104.157 87.3403C104.078 87.4892 103.982 87.6402 103.891 87.775C103.705 88.0503 103.469 88.3624 103.234 88.6513C103 88.9393 102.744 89.2342 102.513 89.4688C102.402 89.5824 102.268 89.7102 102.13 89.8201C102.063 89.8735 101.961 89.9493 101.836 90.0189L101.835 90.0192C101.8 90.0389 101.719 90.0839 101.603 90.1273C101.596 90.1319 101.589 90.1368 101.581 90.142C101.468 90.2186 101.311 90.3352 101.152 90.4688C100.879 90.6962 100.579 90.8989 100.298 91.0521C100.157 91.1287 99.9999 91.2047 99.8364 91.2655C99.7702 91.2902 99.6684 91.3258 99.5425 91.3549C99.4877 91.4005 99.4376 91.437 99.3963 91.4652C99.2394 91.5723 99.0799 91.6483 98.9395 91.7021C98.695 91.796 98.4148 91.8587 98.1227 91.8723C97.9604 91.9894 97.801 92.0712 97.6749 92.1285C97.4519 92.2298 97.2121 92.3076 96.9778 92.3702C96.5092 92.4954 95.9342 92.593 95.2871 92.6718C93.9857 92.8303 92.2293 92.9316 90.0991 92.9791L90.0975 92.9791L87.1269 93.042V98.2462V104.942V106.442H85.6269H80.9258H76.2246ZM96.9905 63.9681C96.9903 63.9681 96.9913 63.9683 96.9935 63.9686L96.9905 63.9681ZM93.5966 76.4775C93.4628 76.257 93.3792 76.0171 93.3391 75.7764C93.3261 75.7628 93.3117 75.7486 93.2962 75.734C93.2566 75.697 93.2194 75.6674 93.1892 75.6459C92.9291 75.6121 92.697 75.533 92.5117 75.4452C92.4432 75.4127 92.3479 75.3636 92.242 75.2936C92.1231 75.2808 91.9658 75.2675 91.7672 75.255C91.1573 75.2166 90.2787 75.1933 89.2129 75.1933H87.1269V78.04V80.8867H89.4097C91.0205 80.8867 91.9098 80.8679 92.4471 80.817C92.6921 80.7938 92.8125 80.7677 92.8622 80.7535C93.3855 80.3579 93.4941 80.1799 93.5637 79.9962C93.6757 79.7006 93.7479 79.1852 93.7479 77.9225C93.7479 77.3774 93.7301 76.9358 93.7034 76.6331C93.659 76.5751 93.6235 76.5218 93.5966 76.4775ZM92.8914 80.7429C92.8905 80.7427 92.8831 80.745 92.872 80.7506C92.8868 80.746 92.8923 80.7432 92.8914 80.7429Z" fill="#ED1C24" stroke="white" stroke-width="3"/>
<path d="M52.5744 72.6582C53.0686 72.4181 53.7514 72.2219 54.3047 72.1962C54.3687 72.153 54.4213 72.1244 54.4527 72.1077C54.583 72.0385 54.7015 71.9978 54.7754 71.9749C54.9266 71.9281 55.0785 71.8997 55.1969 71.8808C55.4446 71.8414 55.7515 71.8129 56.0843 71.7912C56.7603 71.7472 57.6758 71.7234 58.7318 71.7234C59.7879 71.7234 60.7034 71.7472 61.3794 71.7912C61.7122 71.8129 62.0191 71.8414 62.2668 71.8808C62.3851 71.8997 62.5371 71.9281 62.6883 71.9749C62.7622 71.9978 62.8807 72.0385 63.011 72.1077C63.0422 72.1242 63.0941 72.1526 63.1575 72.1952C63.4935 72.2079 63.8276 72.2839 64.0856 72.3592C64.3849 72.4465 64.71 72.571 64.9957 72.7244L65.0138 72.7341L65.0316 72.7444C65.0723 72.7677 65.1236 72.7943 65.1814 72.8213C65.2389 72.8482 65.2954 72.872 65.345 72.8909C65.3611 72.8971 65.3752 72.9022 65.3871 72.9064C65.6185 72.9266 65.8274 72.9803 65.9735 73.0246C66.18 73.0873 66.405 73.1762 66.6138 73.2883L66.6436 73.3044L66.6727 73.3217C66.8121 73.4049 67.2161 73.6132 67.5602 73.7857L67.5602 73.7857L67.5666 73.7889C67.934 73.9754 68.3157 74.2761 68.6257 74.5434C68.9619 74.8332 69.3165 75.1742 69.6444 75.517C69.9711 75.8584 70.2904 76.2216 70.5493 76.5583C70.6783 76.7261 70.8047 76.9035 70.9124 77.0798C70.9761 77.1841 71.0579 77.3274 71.1283 77.4954C71.3614 77.6945 71.4815 77.9098 71.5093 77.9597L71.5105 77.9618C71.6311 78.1778 71.691 78.3908 71.7229 78.525C71.7921 78.8169 71.8208 79.1437 71.8208 79.4498C71.8208 79.4603 71.8209 79.4705 71.8211 79.4802C71.9224 79.64 71.9718 79.7826 71.9912 79.8413C72.0403 79.9898 72.0638 80.1297 72.0753 80.2052C72.1021 80.3791 72.1205 80.5922 72.135 80.8143C72.1649 81.2724 72.1879 81.9315 72.2058 82.7688C72.2417 84.4508 72.2581 86.9311 72.2581 90.1402C72.2581 94.7026 72.2638 97.145 72.3144 98.5016C72.3358 99.0749 72.3638 99.3935 72.3895 99.5706C72.3983 99.5776 72.4073 99.5845 72.4164 99.5911C72.4329 99.6033 72.4465 99.6126 72.4566 99.6191C72.7362 99.7268 73.0404 99.9134 73.2874 100.23C73.5167 100.525 73.6225 100.837 73.6786 101.078C73.7789 101.509 73.7887 102.048 73.7887 102.593V104.003V105.503H72.2887H67.8281L67.6358 105.503C65.6234 105.503 64.4434 105.503 63.7491 105.43C63.3887 105.392 62.9456 105.318 62.5372 105.08C62.1569 104.859 61.9334 104.566 61.814 104.387C61.6418 104.588 61.4563 104.712 61.3599 104.768C61.0836 104.93 60.7711 105.017 60.4605 105.031C60.4563 105.032 60.4516 105.033 60.4465 105.035C60.4238 105.041 60.4007 105.049 60.3809 105.057C60.3714 105.061 60.3644 105.064 60.3601 105.066C60.359 105.066 60.3582 105.067 60.3576 105.067L60.3537 105.069L60.3472 105.072L60.3156 105.089C59.4312 105.553 58.7612 105.905 57.9317 106.076C57.1826 106.232 56.3332 106.231 55.1193 106.231C55.0633 106.231 55.0066 106.231 54.949 106.231C53.9206 106.231 53.1275 106.214 52.5133 106.153C51.9063 106.093 51.324 105.978 50.8044 105.687L50.783 105.675L50.762 105.662C50.6788 105.612 50.5642 105.558 50.4585 105.519C50.434 105.51 50.4138 105.503 50.3984 105.498C50.0362 105.472 49.695 105.344 49.416 105.139C49.3531 105.093 49.282 105.034 49.2098 104.962C49.0446 104.919 48.8824 104.856 48.7293 104.77C48.6142 104.706 48.3751 104.554 48.1724 104.296C48.044 104.223 47.9447 104.151 47.88 104.103C47.6344 103.918 47.4075 103.691 47.2113 103.473C46.8133 103.029 46.4023 102.46 46.0369 101.883C45.669 101.302 45.3189 100.668 45.0546 100.078C44.838 99.5935 44.5878 98.9456 44.5536 98.3371C44.5488 98.3297 44.5445 98.3229 44.5405 98.3166C44.4689 98.2027 44.4235 98.0991 44.3967 98.0318C44.3429 97.8967 44.3095 97.7679 44.2887 97.6773C44.2451 97.4873 44.2136 97.2719 44.1901 97.063C44.1419 96.6356 44.1123 96.0973 44.1123 95.5442C44.1123 94.9911 44.1419 94.4528 44.1901 94.0254C44.2136 93.8165 44.2451 93.6011 44.2887 93.4111C44.3095 93.3205 44.3429 93.1917 44.3967 93.0566C44.4235 92.9893 44.4689 92.8857 44.5405 92.7719C44.5428 92.7681 44.5453 92.7642 44.5479 92.7602C44.549 92.7417 44.5496 92.7219 44.5496 92.7012C44.5496 92.2701 44.6704 91.8115 44.7859 91.467C44.912 91.0906 45.0899 90.6799 45.3056 90.3157C45.4373 90.0934 45.5499 89.879 45.6244 89.7189C45.6435 89.6778 45.6579 89.6451 45.6683 89.6203C45.7018 89.4316 45.7597 89.2903 45.7884 89.2233C45.8434 89.0949 45.9069 88.9835 45.9583 88.9C46.0623 88.7311 46.1886 88.5613 46.3095 88.4092C46.5563 88.0989 46.8715 87.7494 47.185 87.4267C47.496 87.1067 47.8335 86.7841 48.1351 86.5298L46.7688 86.5874L45.2056 86.6532V85.0887V83.256C45.2056 82.7066 45.2284 82.1904 45.2761 81.7874C45.2986 81.5974 45.3339 81.3668 45.398 81.1532C45.4267 81.0573 45.4891 80.8674 45.6159 80.6703C45.6228 80.6596 45.6318 80.646 45.6429 80.6298C45.6429 80.6281 45.6429 80.6263 45.6429 80.6245C45.6429 80.2933 45.6819 79.9514 45.7645 79.65C45.8029 79.5095 45.8715 79.2996 45.999 79.0896C46.0358 79.029 46.0899 78.9476 46.1652 78.8597C46.1943 78.7533 46.2258 78.6622 46.2514 78.5924C46.3304 78.3764 46.4324 78.1557 46.5384 77.9479C46.7518 77.5301 47.029 77.0726 47.3121 76.6525C47.5936 76.2349 47.9074 75.8147 48.203 75.4824C48.3472 75.3202 48.519 75.1428 48.7047 74.9932C48.7971 74.9187 48.9254 74.8247 49.0822 74.7431C49.1243 74.7212 49.1801 74.6939 49.2481 74.6666C49.2908 74.6287 49.3407 74.581 49.3903 74.5276L49.4126 74.5037L49.4358 74.4809C49.8489 74.0739 50.5651 73.6159 51.0543 73.3669L51.085 73.3512L51.1164 73.337C51.22 73.2902 51.3887 73.2099 51.5812 73.1184C51.9128 72.9606 52.3147 72.7694 52.5744 72.6582ZM63.0613 72.1934C63.0624 72.1934 63.0634 72.1934 63.0645 72.1934C63.0615 72.1927 63.0621 72.1934 63.0613 72.1934ZM58.9367 82.75C58.3351 82.7434 57.7705 82.768 57.4012 82.8076C57.2849 82.9369 57.1624 83.0355 57.0582 83.1046C57.0542 83.1183 57.05 83.1319 57.0459 83.1454C57.0084 83.2661 56.9467 83.437 56.8451 83.6183C57.8786 83.5284 58.7971 83.4037 59.4648 83.2751C59.719 83.2261 59.917 83.1803 60.0612 83.1412C60.1161 83.0801 60.1745 83.023 60.2358 82.9703C60.2644 82.9457 60.2949 82.9211 60.3271 82.8967C60.2875 82.8678 60.2542 82.8464 60.2284 82.831C60.1872 82.8244 60.0924 82.8094 59.9259 82.7943C59.6559 82.7698 59.3099 82.7541 58.9367 82.75ZM44.5329 92.8806C44.533 92.8802 44.5331 92.8797 44.5332 92.8793L44.5329 92.8806ZM56.0796 95.4939C56.0898 95.5762 56.1029 95.6342 56.1133 95.6707C56.316 95.8707 56.4968 95.9989 56.639 96.074C56.7928 96.1552 56.8701 96.1587 56.8732 96.1588C56.8733 96.1588 56.8733 96.1588 56.8732 96.1588C56.8721 96.1588 56.8734 96.1587 56.8773 96.1582C56.9008 96.1556 57.0175 96.1425 57.245 96.0885C57.4796 96.0328 57.7539 95.9527 58.0209 95.8622C58.2909 95.7707 58.5235 95.6788 58.6809 95.6054C58.689 95.6016 58.6967 95.598 58.7039 95.5946C58.899 95.3938 59.1109 95.2683 59.2644 95.1943C59.4053 95.1265 59.5627 95.0701 59.7315 95.0329C59.7486 94.9826 59.7651 94.9407 59.7785 94.9085C59.8379 94.7657 59.9084 94.6413 59.972 94.542C60.0575 94.4082 60.1591 94.2752 60.2714 94.1511C60.2764 94.1304 60.281 94.1076 60.2847 94.084C60.2912 94.0428 60.2931 94.0113 60.2931 93.9935C60.2931 93.6623 60.3321 93.3202 60.4188 93.0157C60.4201 93.0111 60.4214 93.0065 60.4228 93.0017C60.2215 93.0448 60.0091 93.0809 59.7983 93.1081C59.3308 93.1684 58.7131 93.2945 58.1404 93.4463C57.5247 93.6095 57.1291 93.7589 57.0129 93.8236L57.0029 93.8292L56.9928 93.8346C56.8004 93.938 56.5945 94.0238 56.4064 94.0864C56.3644 94.1004 56.3091 94.1181 56.2439 94.1362C56.1985 94.2575 56.1507 94.4236 56.115 94.6278C56.0594 94.9459 56.0504 95.2586 56.0796 95.4939ZM61.7285 92.5816C61.7281 92.5816 61.7277 92.5816 61.7273 92.5815L61.7285 92.5816ZM56.335 93.9435C56.3349 93.9435 56.334 93.9447 56.3323 93.9472C56.3342 93.9448 56.335 93.9435 56.335 93.9435ZM56.1265 95.7101C56.1274 95.7122 56.1279 95.7132 56.1279 95.7132C56.1279 95.7131 56.1275 95.7121 56.1265 95.7101Z" fill="#8CAD3E" stroke="white" stroke-width="3"/>
<path d="M118.515 83.1088C118.436 83.2369 118.352 83.3889 118.272 83.554C119.268 83.4647 120.155 83.3428 120.806 83.2171C121.077 83.1645 121.285 83.1156 121.431 83.0747C121.516 82.989 121.603 82.9179 121.685 82.8598C121.368 82.8081 120.896 82.7712 120.202 82.7712C119.349 82.7712 118.967 82.7929 118.758 82.8315C118.734 82.8358 118.717 82.8396 118.706 82.8425C118.704 82.8444 118.701 82.8464 118.699 82.8487L118.697 82.8509C118.698 82.8494 118.697 82.8502 118.695 82.8535C118.681 82.8694 118.617 82.944 118.515 83.1088ZM118.684 82.8487C118.685 82.8487 118.685 82.8485 118.686 82.8481L118.684 82.8487ZM122.944 105.444V104.437C122.791 104.569 122.63 104.67 122.505 104.74C122.242 104.888 121.927 105.022 121.609 105.128C121.39 105.207 121.147 105.306 120.935 105.403C120.827 105.452 120.735 105.497 120.664 105.535C120.598 105.57 120.57 105.589 120.57 105.588C120.57 105.588 120.571 105.588 120.571 105.588L120.549 105.604L120.524 105.62C120.171 105.853 119.752 105.943 119.539 105.985C119.258 106.041 118.937 106.081 118.608 106.112C117.946 106.173 117.149 106.201 116.364 106.199C115.579 106.198 114.773 106.166 114.093 106.102C113.755 106.07 113.425 106.027 113.134 105.97C112.889 105.922 112.511 105.835 112.182 105.649L112.182 105.649L112.175 105.645C111.863 105.467 111.347 105.191 111.046 105.058L110.993 105.034L110.943 105.007C110.727 104.892 110.49 104.75 110.278 104.609C110.131 104.511 109.913 104.36 109.724 104.183C109.576 104.137 109.454 104.079 109.361 104.029C109.156 103.919 108.981 103.786 108.84 103.664C108.559 103.42 108.293 103.114 108.058 102.804C107.584 102.18 107.109 101.372 106.756 100.548C106.694 100.406 106.632 100.266 106.575 100.134C106.431 99.8036 106.311 99.5287 106.253 99.4173L106.244 99.3996L106.235 99.3818C106.132 99.1684 106.086 98.9577 106.066 98.8566C106.039 98.7261 106.019 98.5882 106.004 98.4564C105.972 98.1911 105.949 97.874 105.931 97.5383C105.896 96.8628 105.88 96.0355 105.883 95.237C105.886 94.4403 105.907 93.6448 105.947 93.0353C105.967 92.7381 105.994 92.4448 106.033 92.2069C106.051 92.0999 106.083 91.9291 106.146 91.756C106.171 91.6854 106.229 91.5337 106.342 91.3686C106.383 91.0197 106.494 90.6861 106.585 90.4505C106.716 90.1089 106.899 89.7373 107.116 89.4042C107.251 89.1971 107.365 89.0035 107.441 88.8637C107.455 88.8372 107.467 88.8151 107.476 88.7973C107.52 88.6354 107.578 88.5236 107.598 88.4845L107.6 88.4809C107.656 88.3704 107.717 88.2806 107.758 88.2232C107.843 88.1045 107.939 87.9916 108.022 87.8997C108.193 87.7092 108.406 87.4977 108.612 87.3049C108.819 87.1123 109.047 86.9128 109.254 86.7523C109.354 86.6744 109.476 86.5849 109.604 86.5074C109.647 86.4808 109.705 86.4471 109.774 86.413H107.782H106.087L106.293 84.7307L106.403 83.8378L106.404 83.8302L106.405 83.8225C106.55 82.7258 106.715 81.7608 106.872 81.0453C106.948 80.6929 107.03 80.3692 107.115 80.1102C107.156 79.9861 107.212 79.8306 107.288 79.6801C107.317 79.6226 107.361 79.5405 107.423 79.4499C107.438 79.182 107.492 78.9062 107.594 78.6508C107.648 78.5158 107.739 78.3261 107.892 78.1393C107.919 77.9811 107.963 77.8187 108.03 77.6598C108.093 77.5085 108.206 77.2878 108.409 77.0822C108.45 77.0407 108.498 76.9969 108.553 76.9532C108.769 76.4506 109.122 75.9792 109.452 75.6105C109.852 75.1629 110.356 74.7138 110.893 74.3786C110.991 74.3098 111.075 74.2455 111.139 74.1929C111.225 74.0493 111.32 73.9392 111.396 73.8639C111.587 73.6742 111.791 73.5627 111.937 73.498C112.057 73.4446 112.181 73.4038 112.305 73.374C112.431 73.2525 112.563 73.1596 112.68 73.0943C113.001 72.9154 113.334 72.8536 113.608 72.8421C113.629 72.8364 113.658 72.8277 113.695 72.8152C113.748 72.7969 113.805 72.7745 113.861 72.7501C113.917 72.7253 113.961 72.7028 113.99 72.6861L114.008 72.6759L114.026 72.6662C114.283 72.528 114.57 72.4069 114.838 72.3177C115.053 72.2461 115.396 72.1466 115.747 72.1361C115.751 72.1348 115.757 72.1332 115.762 72.1314C115.771 72.1288 115.778 72.1262 115.784 72.1241C116.043 71.9625 116.299 71.9033 116.382 71.884L116.386 71.883C116.533 71.8489 116.686 71.8262 116.824 71.8099C117.104 71.7766 117.442 71.7557 117.802 71.7426C118.528 71.7161 119.445 71.7181 120.375 71.7421C121.307 71.7661 122.273 71.8127 123.102 71.8784C123.879 71.94 124.668 72.0273 125.166 72.1644C125.526 72.2612 125.877 72.3794 126.168 72.4972C126.313 72.5558 126.462 72.6219 126.598 72.6935L126.602 72.6954C126.645 72.7182 126.734 72.7651 126.84 72.8364C126.863 72.8391 126.882 72.84 126.893 72.84C127.177 72.84 127.516 72.8779 127.839 72.9964C127.995 73.0539 128.234 73.1613 128.46 73.3645C128.461 73.3658 128.463 73.3671 128.464 73.3684C128.621 73.4047 128.783 73.4606 128.942 73.543C129.089 73.619 129.298 73.758 129.482 73.9704C129.568 74.0117 129.632 74.0493 129.668 74.0706L129.672 74.0728C129.854 74.1798 130.027 74.3089 130.176 74.4294C130.479 74.6745 130.804 74.9842 131.096 75.292C131.389 75.5999 131.683 75.9413 131.915 76.2595C132.029 76.4163 132.15 76.5962 132.248 76.7827C132.278 76.8389 132.333 76.944 132.385 77.0843C132.551 77.2522 132.661 77.4286 132.722 77.5506C132.857 77.8202 132.916 78.0967 132.934 78.3386C133.07 78.5223 133.139 78.6964 133.17 78.7802C133.212 78.8969 133.241 79.0076 133.26 79.0953C133.299 79.271 133.327 79.4687 133.349 79.6696C133.394 80.0775 133.431 80.6419 133.464 81.3768C133.531 82.8546 133.586 85.1356 133.641 88.4833L133.641 88.484C133.728 94.0292 133.794 96.972 133.92 98.5782C133.966 99.1551 134.015 99.4887 134.054 99.6759C134.168 99.7469 134.292 99.8367 134.412 99.9504C134.691 100.216 134.865 100.529 134.967 100.849C135.126 101.349 135.128 101.972 135.128 102.535V103.944V105.444H133.628H129.036H124.444H122.944ZM106.325 91.6428C106.326 91.6428 106.326 91.6401 106.326 91.6346C106.325 91.64 106.325 91.6427 106.325 91.6428ZM107.418 79.6189C107.418 79.6188 107.418 79.6176 107.419 79.6152C107.418 79.6177 107.418 79.6189 107.418 79.6189ZM118.567 93.7674L118.559 93.772L118.55 93.7764C118.358 93.8798 118.152 93.9656 117.964 94.0282C117.917 94.044 117.852 94.0646 117.775 94.0851C117.707 94.3132 117.592 94.5483 117.424 94.7524C117.419 94.8301 117.416 94.9186 117.416 95.0161C117.416 95.119 117.42 95.2139 117.426 95.297C117.464 95.3422 117.499 95.388 117.531 95.4336C117.614 95.5555 117.679 95.6821 117.728 95.8093C117.757 95.8227 117.79 95.8366 117.825 95.851C117.939 95.8969 118.069 95.9406 118.205 95.9779C118.341 96.0152 118.474 96.0437 118.595 96.0622C118.634 96.0683 118.671 96.073 118.704 96.0766C118.727 96.0594 118.749 96.0438 118.769 96.0299C118.949 95.9075 119.128 95.8297 119.272 95.7794C119.492 95.7024 119.727 95.6556 119.957 95.6383C120.115 95.4818 120.291 95.3473 120.472 95.2402C120.634 95.1443 120.876 95.0258 121.172 94.9653C121.252 94.8623 121.36 94.6938 121.474 94.4537C121.686 94.0083 121.849 93.4701 121.92 92.9637C121.764 92.9824 121.605 92.9917 121.448 92.9917C121.271 92.9917 120.717 93.0827 120.008 93.2726C119.306 93.4603 118.755 93.6633 118.567 93.7674ZM117.465 95.5935C117.465 95.5934 117.465 95.5919 117.464 95.5891C117.465 95.5921 117.465 95.5935 117.465 95.5935ZM117.464 94.4384C117.464 94.4383 117.463 94.4401 117.462 94.444C117.463 94.4404 117.464 94.4385 117.464 94.4384ZM121.073 95.0727C121.073 95.0735 121.08 95.0685 121.093 95.0552C121.08 95.0653 121.073 95.0719 121.073 95.0727Z" fill="#8CAD3E" stroke="white" stroke-width="3"/>
<mask id="path-6-outside-1_870_168" maskUnits="userSpaceOnUse" x="133.355" y="70" width="35" height="48" fill="black">
<rect fill="white" x="133.355" y="70" width="35" height="48"/>
<path d="M141.013 73.3449C136.53 73.4154 136.355 73.4389 136.355 73.8853C136.355 74.1438 136.443 74.3552 136.574 74.3552C136.683 74.3552 136.837 74.7312 136.924 75.1776C136.99 75.624 137.143 75.9999 137.252 75.9999C137.361 75.9999 137.449 76.3758 137.449 76.8223C137.449 77.2687 137.558 77.6446 137.667 77.6446C137.799 77.6446 137.886 77.8561 137.886 78.1145C137.886 78.5844 137.93 78.7489 138.608 80.1821C138.804 80.6285 138.979 81.2394 138.979 81.5449C138.979 81.8503 139.089 82.1088 139.198 82.1088C139.329 82.1088 139.417 82.4142 139.417 82.8136C139.417 83.1896 139.526 83.5185 139.635 83.5185C139.767 83.5185 139.854 83.7534 139.854 84.0354C139.876 84.3408 140.007 84.8342 140.182 85.1632C140.357 85.4921 140.488 85.9855 140.51 86.2675C140.51 86.5729 140.619 86.8079 140.729 86.8079C140.86 86.8079 140.947 87.0663 140.947 87.3953C140.947 87.7242 141.035 88.1706 141.144 88.4056C141.253 88.617 141.516 89.2749 141.713 89.8623C141.909 90.4497 142.172 91.1075 142.281 91.319C142.39 91.554 142.478 91.9534 142.478 92.1883C142.478 92.4468 142.587 92.7287 142.697 92.7992C142.828 92.8697 142.915 93.2456 142.915 93.6451C142.915 94.021 143.025 94.3264 143.134 94.3264C143.265 94.3264 143.353 94.5614 143.353 94.8668C143.353 95.1723 143.506 95.6187 143.681 95.8771C143.855 96.1121 144.009 96.6055 144.009 96.9579C144.009 97.3339 144.118 97.6158 144.227 97.6158C144.358 97.6158 144.446 97.8508 144.446 98.1562C144.446 98.4616 144.686 99.2605 144.992 99.9184C145.299 100.6 145.539 101.352 145.539 101.61C145.539 101.869 145.648 102.08 145.758 102.08C145.889 102.08 145.976 102.385 145.976 102.738C145.976 103.09 146.086 103.513 146.217 103.654C146.392 103.842 146.392 103.96 146.217 104.054C146.086 104.148 145.976 104.523 145.976 104.923C145.976 105.299 145.889 105.604 145.758 105.604C145.648 105.604 145.539 105.769 145.539 105.957C145.539 106.145 145.386 106.309 145.211 106.309C145.036 106.309 144.883 106.403 144.883 106.544C144.883 106.685 144.009 106.779 142.697 106.779H140.51V110.75V114.697L141.341 114.862C142.85 115.12 145.976 115.003 147.463 114.627C149.234 114.18 151.006 113.334 151.006 112.958C151.006 112.817 151.093 112.653 151.181 112.606C151.509 112.465 152.536 110.844 152.536 110.468C152.536 110.233 152.646 110.068 152.755 110.068C152.886 110.068 152.974 109.81 152.974 109.481C152.974 109.152 153.083 108.894 153.192 108.894C153.323 108.894 153.411 108.706 153.411 108.471C153.411 108.236 153.564 107.836 153.739 107.578C153.914 107.343 154.067 106.944 154.067 106.709C154.067 106.497 154.176 106.309 154.285 106.309C154.417 106.309 154.504 106.051 154.504 105.722C154.504 105.134 154.548 104.97 155.248 103.56C155.444 103.161 155.597 102.597 155.597 102.338C155.597 102.056 155.707 101.845 155.816 101.845C155.947 101.845 156.035 101.54 156.035 101.164C156.035 100.764 156.144 100.388 156.253 100.318C156.385 100.247 156.472 99.9889 156.472 99.7539C156.472 99.5189 156.625 99.002 156.8 98.6496C156.975 98.2737 157.128 97.7803 157.128 97.5453C157.128 97.3339 157.237 97.1459 157.347 97.1459C157.478 97.1459 157.565 96.77 157.565 96.3236C157.565 95.8771 157.675 95.5012 157.784 95.5012C157.915 95.5012 158.003 95.2898 158.003 95.0313C158.003 94.7729 158.09 94.3734 158.199 94.1385C158.702 93.0577 159.096 91.9064 159.096 91.507C159.096 91.2485 159.205 91.0371 159.315 91.0371C159.446 91.0371 159.533 90.7786 159.533 90.4497C159.533 90.1207 159.621 89.6743 159.73 89.4394C160.233 88.3586 160.627 87.2073 160.627 86.8079C160.627 86.5494 160.736 86.338 160.845 86.338C160.976 86.338 161.064 85.962 161.064 85.5156C161.064 85.0692 161.173 84.6933 161.283 84.6933C161.414 84.6933 161.501 84.4583 161.501 84.1529C161.501 83.8474 161.567 83.5185 161.654 83.4245C161.895 83.1661 162.595 81.0984 162.595 80.6285C162.595 80.4171 162.704 80.2291 162.813 80.2291C162.944 80.2291 163.032 79.9707 163.032 79.6417C163.032 79.0543 163.076 78.9134 163.753 77.4566C163.95 77.0102 164.125 76.3993 164.125 76.0939C164.125 75.7885 164.234 75.53 164.344 75.53C164.475 75.53 164.562 75.1541 164.562 74.7077C164.562 74.2612 164.672 73.8853 164.781 73.8853C164.912 73.8853 165 73.7678 165 73.6504C165 73.5094 163.294 73.4154 160.342 73.4154H155.685L155.313 74.8721C155.095 75.6945 154.832 76.5403 154.723 76.7518C154.592 76.9867 154.504 77.4801 154.504 77.8561C154.504 78.2555 154.417 78.6079 154.307 78.6784C154.198 78.7489 154.067 79.1483 154.001 79.5712C153.804 80.887 153.389 82.4612 153.17 82.6727C153.061 82.8136 152.974 83.26 152.974 83.683C152.974 84.1059 152.886 84.4583 152.755 84.4583C152.646 84.4583 152.536 84.8812 152.536 85.3981C152.536 85.915 152.449 86.338 152.318 86.338C152.208 86.338 152.099 86.6904 152.099 87.0898C152.077 87.5127 151.946 88.1236 151.771 88.4526C151.596 88.7815 151.465 89.2279 151.443 89.4629C151.443 89.8623 150.962 90.5672 150.699 90.5672C150.634 90.5672 150.568 90.3322 150.568 90.0268C150.568 89.7448 150.415 89.2044 150.24 88.8285C150.065 88.476 149.912 87.8652 149.912 87.4892C149.912 87.1133 149.825 86.8079 149.694 86.8079C149.584 86.8079 149.475 86.4319 149.475 85.9855C149.475 85.5391 149.388 85.1632 149.256 85.1632C149.147 85.1632 149.038 84.8107 149.038 84.3878C149.016 83.9884 148.885 83.3775 148.71 83.0486C148.535 82.7196 148.404 82.2262 148.382 81.9208C148.382 81.6388 148.294 81.4039 148.163 81.4039C148.054 81.4039 147.944 81.028 147.944 80.5816C147.944 80.1351 147.857 79.7592 147.726 79.7592C147.616 79.7592 147.507 79.4538 147.507 79.0543C147.507 78.6784 147.376 78.0205 147.201 77.5976C147.026 77.1747 146.764 76.3524 146.632 75.765C146.348 74.7077 145.78 73.1335 145.692 73.2274C145.67 73.2744 143.549 73.3214 141.013 73.3449Z"/>
</mask>
<path d="M141.013 73.3449C136.53 73.4154 136.355 73.4389 136.355 73.8853C136.355 74.1438 136.443 74.3552 136.574 74.3552C136.683 74.3552 136.837 74.7312 136.924 75.1776C136.99 75.624 137.143 75.9999 137.252 75.9999C137.361 75.9999 137.449 76.3758 137.449 76.8223C137.449 77.2687 137.558 77.6446 137.667 77.6446C137.799 77.6446 137.886 77.8561 137.886 78.1145C137.886 78.5844 137.93 78.7489 138.608 80.1821C138.804 80.6285 138.979 81.2394 138.979 81.5449C138.979 81.8503 139.089 82.1088 139.198 82.1088C139.329 82.1088 139.417 82.4142 139.417 82.8136C139.417 83.1896 139.526 83.5185 139.635 83.5185C139.767 83.5185 139.854 83.7534 139.854 84.0354C139.876 84.3408 140.007 84.8342 140.182 85.1632C140.357 85.4921 140.488 85.9855 140.51 86.2675C140.51 86.5729 140.619 86.8079 140.729 86.8079C140.86 86.8079 140.947 87.0663 140.947 87.3953C140.947 87.7242 141.035 88.1706 141.144 88.4056C141.253 88.617 141.516 89.2749 141.713 89.8623C141.909 90.4497 142.172 91.1075 142.281 91.319C142.39 91.554 142.478 91.9534 142.478 92.1883C142.478 92.4468 142.587 92.7287 142.697 92.7992C142.828 92.8697 142.915 93.2456 142.915 93.6451C142.915 94.021 143.025 94.3264 143.134 94.3264C143.265 94.3264 143.353 94.5614 143.353 94.8668C143.353 95.1723 143.506 95.6187 143.681 95.8771C143.855 96.1121 144.009 96.6055 144.009 96.9579C144.009 97.3339 144.118 97.6158 144.227 97.6158C144.358 97.6158 144.446 97.8508 144.446 98.1562C144.446 98.4616 144.686 99.2605 144.992 99.9184C145.299 100.6 145.539 101.352 145.539 101.61C145.539 101.869 145.648 102.08 145.758 102.08C145.889 102.08 145.976 102.385 145.976 102.738C145.976 103.09 146.086 103.513 146.217 103.654C146.392 103.842 146.392 103.96 146.217 104.054C146.086 104.148 145.976 104.523 145.976 104.923C145.976 105.299 145.889 105.604 145.758 105.604C145.648 105.604 145.539 105.769 145.539 105.957C145.539 106.145 145.386 106.309 145.211 106.309C145.036 106.309 144.883 106.403 144.883 106.544C144.883 106.685 144.009 106.779 142.697 106.779H140.51V110.75V114.697L141.341 114.862C142.85 115.12 145.976 115.003 147.463 114.627C149.234 114.18 151.006 113.334 151.006 112.958C151.006 112.817 151.093 112.653 151.181 112.606C151.509 112.465 152.536 110.844 152.536 110.468C152.536 110.233 152.646 110.068 152.755 110.068C152.886 110.068 152.974 109.81 152.974 109.481C152.974 109.152 153.083 108.894 153.192 108.894C153.323 108.894 153.411 108.706 153.411 108.471C153.411 108.236 153.564 107.836 153.739 107.578C153.914 107.343 154.067 106.944 154.067 106.709C154.067 106.497 154.176 106.309 154.285 106.309C154.417 106.309 154.504 106.051 154.504 105.722C154.504 105.134 154.548 104.97 155.248 103.56C155.444 103.161 155.597 102.597 155.597 102.338C155.597 102.056 155.707 101.845 155.816 101.845C155.947 101.845 156.035 101.54 156.035 101.164C156.035 100.764 156.144 100.388 156.253 100.318C156.385 100.247 156.472 99.9889 156.472 99.7539C156.472 99.5189 156.625 99.002 156.8 98.6496C156.975 98.2737 157.128 97.7803 157.128 97.5453C157.128 97.3339 157.237 97.1459 157.347 97.1459C157.478 97.1459 157.565 96.77 157.565 96.3236C157.565 95.8771 157.675 95.5012 157.784 95.5012C157.915 95.5012 158.003 95.2898 158.003 95.0313C158.003 94.7729 158.09 94.3734 158.199 94.1385C158.702 93.0577 159.096 91.9064 159.096 91.507C159.096 91.2485 159.205 91.0371 159.315 91.0371C159.446 91.0371 159.533 90.7786 159.533 90.4497C159.533 90.1207 159.621 89.6743 159.73 89.4394C160.233 88.3586 160.627 87.2073 160.627 86.8079C160.627 86.5494 160.736 86.338 160.845 86.338C160.976 86.338 161.064 85.962 161.064 85.5156C161.064 85.0692 161.173 84.6933 161.283 84.6933C161.414 84.6933 161.501 84.4583 161.501 84.1529C161.501 83.8474 161.567 83.5185 161.654 83.4245C161.895 83.1661 162.595 81.0984 162.595 80.6285C162.595 80.4171 162.704 80.2291 162.813 80.2291C162.944 80.2291 163.032 79.9707 163.032 79.6417C163.032 79.0543 163.076 78.9134 163.753 77.4566C163.95 77.0102 164.125 76.3993 164.125 76.0939C164.125 75.7885 164.234 75.53 164.344 75.53C164.475 75.53 164.562 75.1541 164.562 74.7077C164.562 74.2612 164.672 73.8853 164.781 73.8853C164.912 73.8853 165 73.7678 165 73.6504C165 73.5094 163.294 73.4154 160.342 73.4154H155.685L155.313 74.8721C155.095 75.6945 154.832 76.5403 154.723 76.7518C154.592 76.9867 154.504 77.4801 154.504 77.8561C154.504 78.2555 154.417 78.6079 154.307 78.6784C154.198 78.7489 154.067 79.1483 154.001 79.5712C153.804 80.887 153.389 82.4612 153.17 82.6727C153.061 82.8136 152.974 83.26 152.974 83.683C152.974 84.1059 152.886 84.4583 152.755 84.4583C152.646 84.4583 152.536 84.8812 152.536 85.3981C152.536 85.915 152.449 86.338 152.318 86.338C152.208 86.338 152.099 86.6904 152.099 87.0898C152.077 87.5127 151.946 88.1236 151.771 88.4526C151.596 88.7815 151.465 89.2279 151.443 89.4629C151.443 89.8623 150.962 90.5672 150.699 90.5672C150.634 90.5672 150.568 90.3322 150.568 90.0268C150.568 89.7448 150.415 89.2044 150.24 88.8285C150.065 88.476 149.912 87.8652 149.912 87.4892C149.912 87.1133 149.825 86.8079 149.694 86.8079C149.584 86.8079 149.475 86.4319 149.475 85.9855C149.475 85.5391 149.388 85.1632 149.256 85.1632C149.147 85.1632 149.038 84.8107 149.038 84.3878C149.016 83.9884 148.885 83.3775 148.71 83.0486C148.535 82.7196 148.404 82.2262 148.382 81.9208C148.382 81.6388 148.294 81.4039 148.163 81.4039C148.054 81.4039 147.944 81.028 147.944 80.5816C147.944 80.1351 147.857 79.7592 147.726 79.7592C147.616 79.7592 147.507 79.4538 147.507 79.0543C147.507 78.6784 147.376 78.0205 147.201 77.5976C147.026 77.1747 146.764 76.3524 146.632 75.765C146.348 74.7077 145.78 73.1335 145.692 73.2274C145.67 73.2744 143.549 73.3214 141.013 73.3449Z" fill="#8CAD3E"/>
<path d="M141.013 73.3449C136.53 73.4154 136.355 73.4389 136.355 73.8853C136.355 74.1438 136.443 74.3552 136.574 74.3552C136.683 74.3552 136.837 74.7312 136.924 75.1776C136.99 75.624 137.143 75.9999 137.252 75.9999C137.361 75.9999 137.449 76.3758 137.449 76.8223C137.449 77.2687 137.558 77.6446 137.667 77.6446C137.799 77.6446 137.886 77.8561 137.886 78.1145C137.886 78.5844 137.93 78.7489 138.608 80.1821C138.804 80.6285 138.979 81.2394 138.979 81.5449C138.979 81.8503 139.089 82.1088 139.198 82.1088C139.329 82.1088 139.417 82.4142 139.417 82.8136C139.417 83.1896 139.526 83.5185 139.635 83.5185C139.767 83.5185 139.854 83.7534 139.854 84.0354C139.876 84.3408 140.007 84.8342 140.182 85.1632C140.357 85.4921 140.488 85.9855 140.51 86.2675C140.51 86.5729 140.619 86.8079 140.729 86.8079C140.86 86.8079 140.947 87.0663 140.947 87.3953C140.947 87.7242 141.035 88.1706 141.144 88.4056C141.253 88.617 141.516 89.2749 141.713 89.8623C141.909 90.4497 142.172 91.1075 142.281 91.319C142.39 91.554 142.478 91.9534 142.478 92.1883C142.478 92.4468 142.587 92.7287 142.697 92.7992C142.828 92.8697 142.915 93.2456 142.915 93.6451C142.915 94.021 143.025 94.3264 143.134 94.3264C143.265 94.3264 143.353 94.5614 143.353 94.8668C143.353 95.1723 143.506 95.6187 143.681 95.8771C143.855 96.1121 144.009 96.6055 144.009 96.9579C144.009 97.3339 144.118 97.6158 144.227 97.6158C144.358 97.6158 144.446 97.8508 144.446 98.1562C144.446 98.4616 144.686 99.2605 144.992 99.9184C145.299 100.6 145.539 101.352 145.539 101.61C145.539 101.869 145.648 102.08 145.758 102.08C145.889 102.08 145.976 102.385 145.976 102.738C145.976 103.09 146.086 103.513 146.217 103.654C146.392 103.842 146.392 103.96 146.217 104.054C146.086 104.148 145.976 104.523 145.976 104.923C145.976 105.299 145.889 105.604 145.758 105.604C145.648 105.604 145.539 105.769 145.539 105.957C145.539 106.145 145.386 106.309 145.211 106.309C145.036 106.309 144.883 106.403 144.883 106.544C144.883 106.685 144.009 106.779 142.697 106.779H140.51V110.75V114.697L141.341 114.862C142.85 115.12 145.976 115.003 147.463 114.627C149.234 114.18 151.006 113.334 151.006 112.958C151.006 112.817 151.093 112.653 151.181 112.606C151.509 112.465 152.536 110.844 152.536 110.468C152.536 110.233 152.646 110.068 152.755 110.068C152.886 110.068 152.974 109.81 152.974 109.481C152.974 109.152 153.083 108.894 153.192 108.894C153.323 108.894 153.411 108.706 153.411 108.471C153.411 108.236 153.564 107.836 153.739 107.578C153.914 107.343 154.067 106.944 154.067 106.709C154.067 106.497 154.176 106.309 154.285 106.309C154.417 106.309 154.504 106.051 154.504 105.722C154.504 105.134 154.548 104.97 155.248 103.56C155.444 103.161 155.597 102.597 155.597 102.338C155.597 102.056 155.707 101.845 155.816 101.845C155.947 101.845 156.035 101.54 156.035 101.164C156.035 100.764 156.144 100.388 156.253 100.318C156.385 100.247 156.472 99.9889 156.472 99.7539C156.472 99.5189 156.625 99.002 156.8 98.6496C156.975 98.2737 157.128 97.7803 157.128 97.5453C157.128 97.3339 157.237 97.1459 157.347 97.1459C157.478 97.1459 157.565 96.77 157.565 96.3236C157.565 95.8771 157.675 95.5012 157.784 95.5012C157.915 95.5012 158.003 95.2898 158.003 95.0313C158.003 94.7729 158.09 94.3734 158.199 94.1385C158.702 93.0577 159.096 91.9064 159.096 91.507C159.096 91.2485 159.205 91.0371 159.315 91.0371C159.446 91.0371 159.533 90.7786 159.533 90.4497C159.533 90.1207 159.621 89.6743 159.73 89.4394C160.233 88.3586 160.627 87.2073 160.627 86.8079C160.627 86.5494 160.736 86.338 160.845 86.338C160.976 86.338 161.064 85.962 161.064 85.5156C161.064 85.0692 161.173 84.6933 161.283 84.6933C161.414 84.6933 161.501 84.4583 161.501 84.1529C161.501 83.8474 161.567 83.5185 161.654 83.4245C161.895 83.1661 162.595 81.0984 162.595 80.6285C162.595 80.4171 162.704 80.2291 162.813 80.2291C162.944 80.2291 163.032 79.9707 163.032 79.6417C163.032 79.0543 163.076 78.9134 163.753 77.4566C163.95 77.0102 164.125 76.3993 164.125 76.0939C164.125 75.7885 164.234 75.53 164.344 75.53C164.475 75.53 164.562 75.1541 164.562 74.7077C164.562 74.2612 164.672 73.8853 164.781 73.8853C164.912 73.8853 165 73.7678 165 73.6504C165 73.5094 163.294 73.4154 160.342 73.4154H155.685L155.313 74.8721C155.095 75.6945 154.832 76.5403 154.723 76.7518C154.592 76.9867 154.504 77.4801 154.504 77.8561C154.504 78.2555 154.417 78.6079 154.307 78.6784C154.198 78.7489 154.067 79.1483 154.001 79.5712C153.804 80.887 153.389 82.4612 153.17 82.6727C153.061 82.8136 152.974 83.26 152.974 83.683C152.974 84.1059 152.886 84.4583 152.755 84.4583C152.646 84.4583 152.536 84.8812 152.536 85.3981C152.536 85.915 152.449 86.338 152.318 86.338C152.208 86.338 152.099 86.6904 152.099 87.0898C152.077 87.5127 151.946 88.1236 151.771 88.4526C151.596 88.7815 151.465 89.2279 151.443 89.4629C151.443 89.8623 150.962 90.5672 150.699 90.5672C150.634 90.5672 150.568 90.3322 150.568 90.0268C150.568 89.7448 150.415 89.2044 150.24 88.8285C150.065 88.476 149.912 87.8652 149.912 87.4892C149.912 87.1133 149.825 86.8079 149.694 86.8079C149.584 86.8079 149.475 86.4319 149.475 85.9855C149.475 85.5391 149.388 85.1632 149.256 85.1632C149.147 85.1632 149.038 84.8107 149.038 84.3878C149.016 83.9884 148.885 83.3775 148.71 83.0486C148.535 82.7196 148.404 82.2262 148.382 81.9208C148.382 81.6388 148.294 81.4039 148.163 81.4039C148.054 81.4039 147.944 81.028 147.944 80.5816C147.944 80.1351 147.857 79.7592 147.726 79.7592C147.616 79.7592 147.507 79.4538 147.507 79.0543C147.507 78.6784 147.376 78.0205 147.201 77.5976C147.026 77.1747 146.764 76.3524 146.632 75.765C146.348 74.7077 145.78 73.1335 145.692 73.2274C145.67 73.2744 143.549 73.3214 141.013 73.3449Z" stroke="white" stroke-width="6" stroke-linejoin="bevel" mask="url(#path-6-outside-1_870_168)"/>
</svg>
