<svg width="180" height="180" viewBox="0 0 180 180" fill="none" xmlns="http://www.w3.org/2000/svg">
<rect width="180" height="180" rx="15" fill="white"/>
<path d="M138.947 49.1027L156.76 46.8119C158.588 46.6036 159.946 45.0937 159.998 43.2714C160.051 41.4492 158.745 39.8872 156.969 39.5748L136.91 36.0344C136.805 35.722 136.648 35.4096 136.544 35.0972C136.492 34.7327 136.439 34.4203 136.387 34.2121C135.29 29.7865 132.94 26.0378 129.44 23.0701C126.462 20.571 122.597 18.6966 118 17.3429C115.806 16.6661 113.403 16.3537 110.791 16.3537C101.858 16.3537 92.6124 20.3107 88.5901 23.018C87.0753 24.0073 86.5007 25.9858 87.2842 27.5998C87.9633 29.1097 88.7991 30.4113 89.6871 31.5047L88.8513 33.1187C86.5529 31.0882 84.0977 29.2138 81.4336 27.4436C72.8667 21.7164 62.4193 17.4471 51.2405 15.1041C50.9793 15.0521 50.7181 15 50.4569 15C49.6212 15 48.8376 15.2603 48.1585 15.781C47.3227 16.4578 46.8003 17.4991 46.8003 18.5925C46.7481 23.9552 47.0093 29.0576 47.6884 33.8476C44.5019 34.16 41.3154 34.6286 38.129 35.3055C37.032 35.5137 36.1439 36.2426 35.6216 37.1798C35.0992 38.117 35.047 39.3145 35.4649 40.3037C41.4199 54.4134 49.151 65.3471 58.5537 72.8445C60.7477 74.6147 63.0984 76.1767 65.5013 77.5824L51.7106 103.927L21.8832 120.64C20.6817 121.317 19.9504 122.671 20.0026 124.025C20.1071 125.43 20.9429 126.68 22.2488 127.201C24.7562 128.242 27.4203 128.763 30.1367 128.763C32.853 128.763 35.726 128.19 38.2334 127.044C38.0245 127.513 37.92 127.982 37.92 128.554V134.229C37.92 136.26 39.5916 137.926 41.6289 137.926H45.2332V154.17C45.2332 156.201 46.9048 157.867 48.9421 157.867H55.4195C57.4567 157.867 59.1283 156.201 59.1283 154.17V137.926H61.0611C60.7477 138.915 60.5387 139.957 60.4343 141.102V141.831C60.3298 142.612 60.5387 143.341 60.9044 143.966C60.1731 145.371 59.8074 146.985 59.8074 148.704C59.8074 151.619 60.9044 154.222 62.9417 155.941C64.77 157.555 67.1729 158.388 69.837 158.388C71.3519 158.388 72.8145 158.127 74.1727 157.555C74.5906 157.711 75.0607 157.815 75.5308 157.815H81.7993C82.3217 157.815 82.8441 157.711 83.3142 157.503C83.7843 157.711 84.3067 157.815 84.8291 157.815H91.2542C93.2915 157.815 94.9631 156.149 94.9631 154.118V149.068H95.6422C98.463 149.068 100.918 148.495 102.851 147.402C102.851 147.818 102.799 148.235 102.799 148.652C102.799 151.567 103.896 154.17 105.933 155.889C107.761 157.503 110.164 158.336 112.828 158.336C114.343 158.336 115.806 158.075 117.164 157.503C117.582 157.659 118.052 157.763 118.522 157.763H124.373V161.251C124.373 163.178 125.888 164.792 127.82 164.896H128.447C129.022 165 129.44 165 129.753 165C130.067 165 130.432 165 130.85 165C133.044 165 136.178 164.688 138.32 162.293C138.32 162.293 138.32 162.293 138.372 162.241C139.469 160.887 140.462 158.804 141.977 154.587L147.357 139.28C148.297 139.644 149.342 139.905 150.387 139.905C154.827 139.905 158.275 136.468 158.275 132.095C158.275 127.721 154.827 124.337 150.387 124.337C146.365 124.337 143.021 127.305 142.551 131.158H138.529C137.119 131.158 135.865 131.939 135.238 133.188C134.611 131.939 133.357 131.158 131.947 131.158H125.208C124.216 131.158 123.276 131.574 122.544 132.251C120.455 131.21 118.104 130.689 115.492 130.689C112.306 130.689 109.694 131.418 107.709 132.772C107.03 130.325 105.724 128.711 104.575 127.721C102.329 125.743 99.4555 124.754 95.9556 124.754H84.8291C82.7918 124.754 81.1202 126.42 81.1202 128.45V133.188C80.7023 132.876 80.2322 132.563 79.7098 132.303C77.5681 131.21 75.1652 130.689 72.5011 130.689C70.0982 130.689 68.0609 131.106 66.3371 131.887V128.502C66.3371 126.472 64.6655 124.806 62.6282 124.806H53.5912C53.9568 124.597 54.3225 124.389 54.6359 124.129L68.74 114.601L90.0528 118.089C91.9856 118.402 93.9184 118.558 95.8511 118.558C105.776 118.558 115.44 114.288 123.067 106.583C132.94 96.5863 138.424 81.9559 138.163 66.4405L138.059 59.7761C138.059 59.7761 138.059 59.3596 138.007 59.1513L137.589 56.9125C138.111 56.3398 138.424 55.6109 138.477 54.8299L138.999 48.8424L138.947 49.1027Z" fill="white"/>
<path d="M94.74 78.9766C83.0911 81.7361 70.5019 77.675 60.6813 69.8132C50.913 61.9513 43.7565 50.7052 38.6895 38.7302C59.0098 34.565 81.7852 36.9079 98.2399 51.2259C103.516 55.8076 108.322 63.0447 106.232 69.8652C104.613 75.0197 99.5981 77.8312 94.6878 79.0287L94.74 78.9766Z" fill="#657F37"/>
<path d="M62.6145 101.73L23.4365 123.65C28.3991 125.733 34.0929 125.264 38.6376 122.452L77.1887 98.5024L62.6145 101.73Z" fill="#657F37"/>
<path d="M37.4336 121.357L43.8588 122.711C46.8363 123.336 49.9183 122.711 52.3734 121.045L82.4099 100.687L77.3951 95.9492L37.3291 121.357H37.4336Z" fill="#89AB3E"/>
<path d="M134.283 66.4299C134.753 95.4823 113.963 118.287 90.4562 114.434L56.502 108.863L95.8366 33.785C97.4037 31.4941 99.3365 29.4115 101.583 27.6413C106.023 24.205 111.717 22.3306 118.037 23.8405C122.06 25.1422 125.664 27.0686 128.537 29.8801C131.41 32.6396 133.5 36.2841 134.492 40.97C134.544 41.2303 134.597 41.4386 134.597 41.6989C134.858 44.8228 132.977 48.6757 132.612 51.9037L134.127 59.8176L134.231 66.482L134.283 66.4299Z" fill="#657F37"/>
<path d="M132.458 63.2538C132.928 92.3062 112.138 115.111 88.631 111.258L54.6768 105.687L94.0114 30.6089C95.5785 28.318 97.5113 26.2354 99.7575 24.5173C104.198 21.081 109.892 19.2066 116.212 20.7165C120.235 22.0181 123.839 23.9445 126.712 26.7561C129.585 29.5155 131.674 33.1601 132.667 37.846C132.719 38.1063 132.771 38.3146 132.771 38.5749C133.033 41.6988 131.1 45.5516 130.786 48.7797L132.301 56.6936L132.406 63.3579L132.458 63.2538Z" fill="#89AB3E"/>
<path d="M123.054 43.9893L130.942 38.3662L156.172 42.7918L132.456 45.8115L123.054 43.9893Z" fill="#1B1925"/>
<path d="M131.254 43.417C131.254 43.417 127.493 48.9359 120.598 48.9359C120.598 48.9359 126.135 55.4441 134.597 54.4028L135.433 45.031L131.254 43.4691V43.417Z" fill="#E7282B"/>
<path d="M132.976 37.0651C132.767 37.6899 130.991 40.189 130.573 40.7618C130.573 40.7618 131.147 37.0651 128.797 34.5139C118.245 22.9034 98.6036 43.1047 90.5068 25.767C94.7903 22.9034 107.327 17.6968 116.782 20.5604C120.648 21.6538 124.148 23.2678 126.916 25.5587C129.685 27.8496 131.722 30.8694 132.662 34.7222C132.662 34.9304 132.976 36.8048 132.976 37.0131V37.0651Z" fill="#D42D27"/>
<path d="M123.784 41.6465C123.784 44.1977 121.694 46.2803 119.134 46.2803C116.575 46.2803 114.485 44.1977 114.485 41.6465C114.485 39.0953 116.575 37.0127 119.134 37.0127C121.694 37.0127 123.784 39.0953 123.784 41.6465Z" fill="#E4E5F1"/>
<path d="M122.375 41.6455C122.375 43.4157 120.913 44.9256 119.084 44.9256C117.256 44.9256 115.846 43.4678 115.846 41.6455C115.846 39.8232 117.308 38.4175 119.084 38.4175C120.86 38.4175 122.375 39.8753 122.375 41.6455Z" fill="#1B1925"/>
<path d="M118.719 40.864C118.719 41.2805 118.354 41.645 117.936 41.645C117.518 41.645 117.152 41.2805 117.152 40.864C117.152 40.4475 117.518 40.083 117.936 40.083C118.354 40.083 118.719 40.4475 118.719 40.864Z" fill="white"/>
<path d="M129.427 82.6204C122.897 101.624 106.547 114.172 88.5773 111.256L54.623 105.685L80.9506 55.4424C80.9506 55.4424 83.9281 91.6277 129.427 82.5684" fill="#C5D892"/>
<path d="M87.1674 80.852C75.414 78.7694 65.4367 69.9704 59.6384 58.9325C53.84 47.8426 51.8028 34.6701 51.9595 21.6538C72.2276 25.9232 92.1822 37.1172 101.585 56.7979C104.562 63.0978 106.13 71.6885 101.428 77.0512C97.8761 81.1123 92.13 81.7371 87.2196 80.852H87.1674Z" fill="#657F37"/>
<path d="M85.5456 77.623C73.7922 75.5404 63.8149 66.7414 58.0165 55.7035C52.166 44.6136 50.1287 31.4411 50.3377 18.4248C70.6057 22.6942 90.5604 33.8882 99.9631 53.5688C102.993 59.8687 104.508 68.4595 99.8063 73.8222C96.2542 77.8833 90.5081 78.5081 85.5456 77.623Z" fill="#89AB3E"/>
<path d="M61.7763 128.44H41.3516V134.063H48.6648V154.056H55.1944V134.063H62.4554V128.44H61.7763Z" fill="#89AA3E"/>
<path d="M81.1572 152.024C81.1572 152.024 80.7915 151.816 80.7393 151.712C80.7393 151.712 80.5825 151.4 80.5825 150.827C80.5825 150.046 80.5825 149.369 80.5825 148.796V140.57C80.5825 138.279 79.6945 136.457 77.9184 135.572C76.2991 134.739 74.4185 134.322 72.3291 134.322C69.1948 134.322 66.7919 135.155 65.3815 136.978C64.4935 138.123 64.0233 139.581 63.9189 141.247V141.976H69.7172L69.8217 141.403C69.9261 140.778 70.0829 140.362 70.344 140.102C70.6052 139.789 71.1798 139.529 72.2246 139.529C73.1649 139.529 73.8439 139.685 74.1574 139.841C74.4185 139.997 74.5753 140.154 74.5753 140.778C74.5753 141.091 74.523 141.247 74.0006 141.455C73.7395 141.559 73.1649 141.716 72.3291 141.82L70.7097 142.028C68.8292 142.288 67.3665 142.653 66.3218 143.277C64.389 144.371 63.3965 146.297 63.3965 148.64C63.3965 150.462 64.0233 152.024 65.2248 153.118C66.4262 154.159 67.9411 154.68 69.7172 154.68C71.1276 154.68 72.3813 154.367 73.5305 153.743C74.0529 153.43 74.523 153.118 74.9409 152.753C74.9932 153.066 75.0976 153.378 75.2543 153.691L75.4111 154.107H81.6795V152.285L81.2616 152.077L81.1572 152.024ZM74.4708 145.725V146.349C74.4708 147.807 74.0529 148.588 73.426 149.005C72.6425 149.525 71.8589 149.786 70.9709 149.786C70.4485 149.786 70.0829 149.629 69.7694 149.421C69.5082 149.213 69.3515 148.901 69.3515 148.224C69.3515 147.495 69.5605 147.182 70.1351 146.818C70.4485 146.662 71.1276 146.401 72.0679 146.245L73.1649 146.037C73.6872 145.933 74.1574 145.829 74.523 145.672L74.4708 145.725Z" fill="#89AA3E"/>
<path d="M101.997 130.47C100.43 129.065 98.2882 128.44 95.7808 128.44H84.6543V154.056H91.0795V145.361H95.4674C98.1837 145.361 100.43 144.736 101.997 143.435C103.669 142.081 104.4 139.79 104.4 136.822C104.4 134.063 103.616 131.928 101.997 130.523V130.47ZM97.9226 136.822C97.9226 137.968 97.6091 138.645 97.1912 139.061C96.7211 139.478 95.9898 139.738 94.945 139.738H91.0795V133.959H94.945C95.9898 133.959 96.7211 134.219 97.1912 134.584C97.6091 134.948 97.9226 135.573 97.9226 136.77V136.822Z" fill="#E5262B"/>
<path d="M124.2 152.024C124.2 152.024 123.834 151.816 123.782 151.712C123.782 151.712 123.625 151.4 123.625 150.827C123.625 150.046 123.625 149.369 123.625 148.796V140.57C123.625 138.279 122.737 136.457 120.961 135.572C119.342 134.739 117.461 134.322 115.372 134.322C112.237 134.322 109.834 135.155 108.424 136.978C107.536 138.123 107.066 139.581 106.961 141.247V141.976H112.76L112.864 141.403C112.969 140.778 113.125 140.362 113.387 140.102C113.648 139.789 114.222 139.529 115.267 139.529C116.207 139.529 116.886 139.685 117.2 139.841C117.461 139.997 117.618 140.154 117.618 140.778C117.618 141.091 117.565 141.247 117.043 141.455C116.782 141.559 116.207 141.716 115.372 141.82L113.752 142.028C111.872 142.288 110.409 142.653 109.312 143.277C107.379 144.371 106.387 146.297 106.387 148.64C106.387 150.462 107.014 152.024 108.215 153.118C109.416 154.159 110.931 154.68 112.707 154.68C114.118 154.68 115.372 154.367 116.521 153.743C117.043 153.43 117.513 153.118 117.931 152.753C117.983 153.066 118.088 153.378 118.245 153.691L118.401 154.107H124.67V152.285L124.252 152.077L124.2 152.024ZM117.513 145.725V146.349C117.513 147.807 117.095 148.588 116.469 149.005C115.685 149.525 114.901 149.786 114.013 149.786C113.491 149.786 113.125 149.629 112.812 149.421C112.551 149.213 112.394 148.901 112.394 148.224C112.394 147.495 112.603 147.182 113.178 146.818C113.491 146.662 114.17 146.401 115.11 146.245L116.207 146.037C116.73 145.933 117.2 145.829 117.565 145.672L117.513 145.725Z" fill="#89AA3E"/>
<path d="M138.303 134.739L135.116 146.142L131.721 134.739H124.982L131.878 154.264C131.878 154.264 131.773 154.628 131.617 154.993C131.408 155.513 131.199 155.826 131.094 155.826C130.885 155.93 130.676 156.034 130.363 156.086C130.102 156.086 129.84 156.138 129.527 156.138C129.423 156.138 129.266 156.138 129.161 156.138H127.855V156.815V161.188H128.482C129.005 161.24 129.37 161.293 129.632 161.293C129.893 161.293 130.258 161.293 130.676 161.293C132.818 161.293 134.437 160.928 135.378 159.835C136.213 158.845 137.101 156.711 138.355 153.274L144.833 134.739H138.355H138.303Z" fill="#89AA3E"/>
<path d="M154.396 131.979C154.396 134.27 152.567 136.092 150.217 136.092C147.866 136.092 145.985 134.27 145.985 131.979C145.985 129.688 147.866 127.918 150.217 127.918C152.567 127.918 154.396 129.74 154.396 131.979ZM147.03 131.979C147.03 133.801 148.388 135.259 150.217 135.259C152.045 135.259 153.351 133.801 153.351 132.031C153.351 130.261 152.045 128.751 150.217 128.751C148.388 128.751 147.03 130.209 147.03 132.031V131.979ZM149.537 134.114H148.597V130.053C148.963 130.001 149.485 129.949 150.164 129.949C150.948 129.949 151.314 130.053 151.575 130.261C151.784 130.417 151.993 130.782 151.993 131.146C151.993 131.615 151.627 131.927 151.157 132.083C151.575 132.291 151.784 132.604 151.888 133.124C151.993 133.749 152.097 134.01 152.202 134.166H151.157C151.157 134.166 150.948 133.645 150.843 133.177C150.791 132.708 150.53 132.552 150.008 132.552H149.537V134.218V134.114ZM149.537 131.823H150.008C150.53 131.823 150.948 131.667 150.948 131.25C150.948 130.886 150.687 130.625 150.06 130.625C149.799 130.625 149.642 130.625 149.537 130.625V131.771V131.823Z" fill="#89AA3E"/>
<rect x="4.25" y="4.25" width="171.5" height="171.5" rx="13.75" stroke="#89AA3E" stroke-width="2.5"/>
</svg>
