<svg width="180" height="180" viewBox="0 0 180 180" fill="none" xmlns="http://www.w3.org/2000/svg">
<circle cx="90" cy="90" r="90" fill="white"/>
<path d="M15 73.6933V71.8137L15.0105 70.7623V69.5875V68.1259L15 66.5507V65H30.7658H46.5315L46.4865 69.2762L46.4189 73.5758L41.0811 73.6463L35.7207 73.6933L35.6757 89.2709L35.6081 104.825L30.7207 104.895L25.8108 104.942V89.3179V73.6933H20.4054H15Z" fill="#8CAD3E"/>
<path d="M75.8105 84.9712V104.942H80.6529H85.4952V98.2462V91.5734L90.0673 91.4794C94.4142 91.3855 97.0718 91.08 97.5448 90.5866C97.6574 90.4691 97.9727 90.3752 98.243 90.3752C98.5358 90.3752 98.8286 90.2577 98.8961 90.1402C98.9637 89.9992 99.1889 89.9052 99.3916 89.9052C99.5943 89.9052 100.09 89.6468 100.495 89.3179C100.901 88.9889 101.306 88.7305 101.374 88.7305C101.644 88.7305 103.288 86.7568 103.288 86.4514C103.288 86.3104 103.378 86.146 103.468 86.099C103.829 85.9345 104.865 83.2795 104.865 82.5041C104.865 82.0577 104.977 81.6818 105.09 81.6818C105.225 81.6818 105.315 80.3661 105.315 78.181C105.315 76.0899 105.225 74.6096 105.09 74.5157C104.977 74.4452 104.865 73.9518 104.865 73.4349C104.865 72.9415 104.775 72.5185 104.639 72.5185C104.527 72.5185 104.347 72.2366 104.279 71.8607C104.189 71.5082 103.941 70.9443 103.716 70.5919C103.468 70.263 103.288 69.887 103.288 69.7696C103.266 69.4171 100.878 67.1146 100.495 67.1146C100.293 67.1146 100.135 66.9971 100.135 66.8796C100.135 66.7386 99.9772 66.6447 99.797 66.6447C99.6169 66.6447 99.4592 66.5272 99.4592 66.4097C99.4592 66.2687 99.2565 66.1748 99.0313 66.1748C98.7835 66.1748 98.4457 66.0103 98.243 65.8223C98.0628 65.6344 97.6123 65.4699 97.2295 65.4699C96.8466 65.4699 96.5313 65.3524 96.5313 65.2349C96.5313 65.0705 92.9277 65 86.1709 65H75.8105V84.9712ZM93.0403 73.9283C93.1078 74.0458 93.3556 74.1632 93.5583 74.1632C94.0763 74.1867 94.9547 74.9856 94.9547 75.432C94.9547 75.6435 95.0673 75.8079 95.1799 75.8079C95.3151 75.8079 95.4051 76.6773 95.4051 77.9225C95.4051 80.413 95.1574 81.0239 93.8286 81.9872C93.3556 82.3162 92.6799 82.3867 89.3916 82.3867H85.4952V78.04V73.6933H89.1889C91.4187 73.6933 92.9502 73.7873 93.0403 73.9283Z" fill="#ED1C24"/>
<path d="M56.3285 73.4584C56.261 73.5759 55.9231 73.6934 55.6078 73.6934C55.2925 73.6934 54.7294 73.8343 54.3466 74.0223C53.9412 74.1868 53.2655 74.5157 52.8376 74.7037C52.4096 74.9151 51.824 75.2911 51.5538 75.5495C51.2835 75.8315 50.9907 76.0429 50.9231 76.0429C50.4502 76.0429 48.5583 78.7684 48.5583 79.4498C48.5583 79.6377 48.4682 79.8022 48.3331 79.8022C48.2204 79.8022 48.1078 80.1781 48.1078 80.6245C48.1078 81.071 48.0177 81.4469 47.8826 81.4469C47.7475 81.4469 47.6574 82.2222 47.6574 83.256V85.0887L49.9547 84.9947C52.6799 84.9007 55.9907 85.1592 55.9907 85.4646C55.9907 85.5821 55.5403 85.6761 54.9997 85.6761C54.4367 85.6761 53.9412 85.7701 53.8736 85.8875C53.806 86.005 53.3781 86.1695 52.9502 86.24C52.5222 86.334 52.1619 86.4984 52.1619 86.6159C52.1619 86.7569 51.9592 86.8509 51.734 86.8509C51.4862 86.8509 51.2159 86.9448 51.1484 87.0858C51.0808 87.2033 50.8556 87.3208 50.6979 87.3208C50.315 87.3208 48.1078 89.5293 48.1078 89.9053C48.1078 90.0462 47.8601 90.5632 47.5448 91.0801C47.2294 91.597 46.9817 92.3253 46.9817 92.7012C46.9817 93.0772 46.8916 93.4766 46.7565 93.5471C46.6439 93.6176 46.5312 94.5339 46.5312 95.5442C46.5312 96.5545 46.6439 97.4708 46.7565 97.5413C46.8916 97.6118 46.9817 97.9173 46.9817 98.1992C46.9817 99.3975 49.3691 103.063 50.1574 103.063C50.27 103.063 50.3601 103.157 50.3601 103.298C50.3601 103.415 50.5628 103.533 50.8105 103.533C51.0583 103.533 51.261 103.627 51.261 103.768C51.261 103.885 51.4186 104.003 51.5988 104.003C51.8015 104.003 52.2745 104.167 52.6349 104.379C53.1529 104.66 54.0313 104.731 56.1484 104.731C58.9862 104.731 59.0538 104.731 60.9907 103.744C61.2159 103.627 61.5538 103.533 61.734 103.533C61.9141 103.533 62.0718 103.439 62.0718 103.345C62.0718 103.227 62.4322 102.945 62.8601 102.687C63.288 102.452 63.6484 102.17 63.6484 102.076C63.6484 101.958 63.761 101.888 63.8736 101.888C64.0087 101.888 64.0988 102.123 64.0988 102.428C64.0988 102.71 64.2565 103.204 64.4592 103.486C64.797 104.003 64.9096 104.003 69.4141 104.003H74.0087V102.593C74.0087 101.442 73.9412 101.136 73.6258 101.019C73.4006 100.948 73.0403 100.69 72.8376 100.455C72.4547 100.055 72.4322 99.233 72.4322 90.1402C72.4322 83.726 72.3646 80.2721 72.2069 80.2721C72.0943 80.2721 71.9817 79.8962 71.9817 79.4498C71.9817 79.0033 71.8916 78.6274 71.779 78.6274C71.6664 78.6274 71.4862 78.416 71.4186 78.1575C71.2385 77.5231 69.2565 75.526 68.4457 75.1266C68.1078 74.9621 67.6349 74.7272 67.4322 74.6097C67.2069 74.4922 66.8916 74.3982 66.7114 74.3982C66.5538 74.3982 66.1033 74.2338 65.7655 74.0458C65.4051 73.8578 64.8421 73.6934 64.5042 73.6934C64.1664 73.6934 63.8285 73.5759 63.761 73.4584C63.6709 73.3174 62.1844 73.2234 60.0448 73.2234C57.9051 73.2234 56.4186 73.3174 56.3285 73.4584ZM62.1394 81.4234C62.815 81.7053 63.6484 82.5747 63.6484 83.0446C63.6484 83.4205 63.1078 84.0314 62.7925 84.0314C62.6574 84.0314 62.5222 84.1489 62.4772 84.2898C62.3871 84.5718 60.3826 84.9477 57.9502 85.1357L56.1934 85.2532L56.3511 84.2429C56.4412 83.679 56.5763 83.1151 56.6889 82.9741C56.8015 82.8566 56.8916 82.5747 56.8916 82.3397C56.8916 82.1048 57.0493 81.9168 57.2294 81.9168C57.4096 81.9168 57.5673 81.8228 57.5673 81.7053C57.5673 81.5879 57.7925 81.4234 58.0853 81.3764C59.0538 81.1884 61.5988 81.2119 62.1394 81.4234ZM63.6484 92.1374C63.6484 92.7247 63.5583 93.1947 63.4231 93.1947C63.3105 93.1947 63.1979 93.5471 63.1979 93.9935C63.1979 94.4164 63.0403 94.9098 62.8601 95.0743C62.6799 95.2388 62.5222 95.4737 62.5222 95.5912C62.5222 95.9436 61.9141 96.484 61.5313 96.484C61.3511 96.484 61.1484 96.578 61.0808 96.6955C60.9006 96.9774 58.8511 97.6588 58.1304 97.6588C57.5222 97.6588 56.824 97.3064 56.1709 96.6485C55.315 95.8027 55.8781 92.7247 56.8691 92.7247C57.0042 92.7247 57.297 92.6308 57.5222 92.5133C58.1304 92.1843 59.8195 91.7614 60.9457 91.6205C61.5087 91.55 62.0493 91.409 62.1844 91.2915C62.297 91.174 62.6799 91.0801 63.0177 91.0801C63.6258 91.0801 63.6484 91.127 63.6484 92.1374Z" fill="#8CAD3E"/>
<path d="M116.245 73.4002C116.065 73.5177 115.704 73.6351 115.456 73.6351C115.209 73.6351 114.713 73.7996 114.353 73.9876C114.015 74.1755 113.519 74.34 113.294 74.34C113.047 74.34 112.866 74.434 112.866 74.575C112.866 74.6924 112.664 74.8099 112.416 74.8099C112.168 74.8099 111.965 74.9039 111.965 74.9979C111.965 75.0919 111.628 75.3738 111.245 75.6322C110.411 76.1257 109.556 77.0655 109.353 77.6764C109.285 77.9113 109.128 78.0993 109.015 78.0993C108.902 78.0993 108.812 78.3107 108.812 78.5692C108.812 78.8276 108.722 79.0391 108.587 79.0391C108.474 79.0391 108.362 79.2976 108.362 79.603C108.362 79.9084 108.272 80.2139 108.137 80.2609C107.956 80.3314 107.596 81.8821 107.303 84.0202L107.191 84.913H110.209C111.898 84.913 113.88 84.9835 114.646 85.054C115.929 85.1949 116.019 85.1949 116.019 84.725C116.019 83.9732 116.808 82.258 117.393 81.7411C117.844 81.3417 118.272 81.2712 119.983 81.2712C122.236 81.2712 123.159 81.6001 123.362 82.4695C123.542 83.2448 123.272 83.9732 122.776 83.9732C122.551 83.9732 122.326 84.0906 122.281 84.2316C122.191 84.5136 120.186 84.8895 117.776 85.0775C116.808 85.1479 116.019 85.2889 116.019 85.4064C116.019 85.5239 115.659 85.6179 115.209 85.6179C114.353 85.6179 112.123 86.2992 112.01 86.6047C111.965 86.7221 111.763 86.7926 111.538 86.7926C111.335 86.7926 110.929 87.0041 110.659 87.2625C110.389 87.521 110.096 87.7325 110.006 87.7325C109.781 87.7325 108.362 89.0247 108.362 89.2127C108.362 89.3067 108.114 89.7531 107.799 90.223C107.483 90.6929 107.236 91.3273 107.236 91.6327C107.236 91.9382 107.146 92.1966 107.01 92.1966C106.718 92.1966 106.695 98.141 106.988 98.7284C107.101 98.9398 107.348 99.5037 107.551 99.9501C108.182 101.383 109.263 102.77 109.758 102.77C109.848 102.77 110.051 102.911 110.209 103.052C110.366 103.216 110.817 103.498 111.177 103.686C111.56 103.85 112.146 104.156 112.483 104.344C113.339 104.814 118.767 104.814 119.465 104.367C119.736 104.179 120.389 103.897 120.929 103.709C121.447 103.545 121.875 103.31 121.875 103.193C121.875 103.099 122.01 103.005 122.168 103.005C122.326 103.005 122.709 102.746 123.047 102.417C123.79 101.712 123.902 101.689 123.902 102.3C123.902 102.558 124.015 102.77 124.128 102.77C124.263 102.77 124.353 103.028 124.353 103.357V103.944H129.083H133.812V102.535C133.812 101.266 133.745 101.078 133.272 100.866C132.551 100.514 132.461 99.5507 132.281 88.5078C132.168 81.8116 132.056 79.462 131.853 79.2271C131.695 79.0861 131.56 78.7572 131.56 78.5222C131.56 78.2872 131.47 78.0993 131.335 78.0993C131.222 78.0993 131.11 77.9348 131.11 77.7234C131.11 77.2534 129.173 75.2798 128.722 75.2798C128.542 75.2798 128.407 75.1623 128.407 75.0449C128.407 74.9039 128.204 74.8099 127.956 74.8099C127.709 74.8099 127.506 74.6924 127.506 74.575C127.506 74.434 127.213 74.34 126.875 74.34C126.538 74.34 126.155 74.246 126.019 74.1285C125.907 74.0111 125.321 73.7761 124.691 73.6116C123.294 73.2357 116.718 73.0712 116.245 73.4002ZM123.339 92.4316C123.339 94.2172 122.258 96.4258 121.38 96.4258C121.177 96.4258 120.907 96.5903 120.749 96.7782C120.592 96.9662 120.231 97.1307 119.938 97.1307C119.668 97.1307 119.353 97.2246 119.285 97.3656C118.925 97.9765 116.019 97.2012 116.019 96.4963C116.019 96.3318 115.929 96.1908 115.794 96.1908C115.682 96.1908 115.569 95.6504 115.569 95.0161C115.569 94.3582 115.682 93.8413 115.794 93.8413C115.929 93.8413 116.019 93.7238 116.019 93.5828C116.019 93.2539 116.583 92.6665 116.898 92.6665C117.033 92.6665 117.326 92.5725 117.551 92.4551C118.294 92.0556 120.456 91.4917 121.267 91.4917C121.718 91.4917 122.146 91.3743 122.213 91.2333C122.303 91.1158 122.596 91.0218 122.844 91.0688C123.294 91.1393 123.339 91.2803 123.339 92.4316Z" fill="#8CAD3E"/>
<path d="M140.292 73.3449C135.675 73.4154 135.495 73.4389 135.495 73.8853C135.495 74.1438 135.585 74.3552 135.72 74.3552C135.833 74.3552 135.991 74.7312 136.081 75.1776C136.148 75.624 136.306 75.9999 136.419 75.9999C136.531 75.9999 136.621 76.3758 136.621 76.8223C136.621 77.2687 136.734 77.6446 136.846 77.6446C136.982 77.6446 137.072 77.8561 137.072 78.1145C137.072 78.5844 137.117 78.7489 137.815 80.1821C138.018 80.6285 138.198 81.2394 138.198 81.5449C138.198 81.8503 138.31 82.1088 138.423 82.1088C138.558 82.1088 138.648 82.4142 138.648 82.8136C138.648 83.1896 138.761 83.5185 138.873 83.5185C139.009 83.5185 139.099 83.7534 139.099 84.0354C139.121 84.3408 139.256 84.8342 139.437 85.1632C139.617 85.4921 139.752 85.9855 139.774 86.2675C139.774 86.5729 139.887 86.8079 140 86.8079C140.135 86.8079 140.225 87.0663 140.225 87.3953C140.225 87.7242 140.315 88.1706 140.428 88.4056C140.54 88.617 140.81 89.2749 141.013 89.8623C141.216 90.4497 141.486 91.1075 141.599 91.319C141.711 91.554 141.801 91.9534 141.801 92.1883C141.801 92.4468 141.914 92.7287 142.027 92.7992C142.162 92.8697 142.252 93.2456 142.252 93.6451C142.252 94.021 142.364 94.3264 142.477 94.3264C142.612 94.3264 142.702 94.5614 142.702 94.8668C142.702 95.1723 142.86 95.6187 143.04 95.8771C143.22 96.1121 143.378 96.6055 143.378 96.9579C143.378 97.3339 143.491 97.6158 143.603 97.6158C143.738 97.6158 143.828 97.8508 143.828 98.1562C143.828 98.4616 144.076 99.2605 144.392 99.9184C144.707 100.6 144.955 101.352 144.955 101.61C144.955 101.869 145.067 102.08 145.18 102.08C145.315 102.08 145.405 102.385 145.405 102.738C145.405 103.09 145.518 103.513 145.653 103.654C145.833 103.842 145.833 103.96 145.653 104.054C145.518 104.148 145.405 104.523 145.405 104.923C145.405 105.299 145.315 105.604 145.18 105.604C145.067 105.604 144.955 105.769 144.955 105.957C144.955 106.145 144.797 106.309 144.617 106.309C144.437 106.309 144.279 106.403 144.279 106.544C144.279 106.685 143.378 106.779 142.027 106.779H139.774V110.75V114.697L140.63 114.862C142.184 115.12 145.405 115.003 146.937 114.627C148.761 114.18 150.585 113.334 150.585 112.958C150.585 112.817 150.675 112.653 150.765 112.606C151.103 112.465 152.162 110.844 152.162 110.468C152.162 110.233 152.274 110.068 152.387 110.068C152.522 110.068 152.612 109.81 152.612 109.481C152.612 109.152 152.725 108.894 152.837 108.894C152.973 108.894 153.063 108.706 153.063 108.471C153.063 108.236 153.22 107.836 153.401 107.578C153.581 107.343 153.738 106.944 153.738 106.709C153.738 106.497 153.851 106.309 153.964 106.309C154.099 106.309 154.189 106.051 154.189 105.722C154.189 105.134 154.234 104.97 154.955 103.56C155.157 103.161 155.315 102.597 155.315 102.338C155.315 102.056 155.428 101.845 155.54 101.845C155.675 101.845 155.765 101.54 155.765 101.164C155.765 100.764 155.878 100.388 155.991 100.318C156.126 100.247 156.216 99.9889 156.216 99.7539C156.216 99.5189 156.373 99.002 156.554 98.6496C156.734 98.2737 156.892 97.7803 156.892 97.5453C156.892 97.3339 157.004 97.1459 157.117 97.1459C157.252 97.1459 157.342 96.77 157.342 96.3236C157.342 95.8771 157.455 95.5012 157.567 95.5012C157.702 95.5012 157.792 95.2898 157.792 95.0313C157.792 94.7729 157.883 94.3734 157.995 94.1385C158.513 93.0577 158.919 91.9064 158.919 91.507C158.919 91.2485 159.031 91.0371 159.144 91.0371C159.279 91.0371 159.369 90.7786 159.369 90.4497C159.369 90.1207 159.459 89.6743 159.572 89.4394C160.09 88.3586 160.495 87.2073 160.495 86.8079C160.495 86.5494 160.608 86.338 160.72 86.338C160.855 86.338 160.946 85.962 160.946 85.5156C160.946 85.0692 161.058 84.6933 161.171 84.6933C161.306 84.6933 161.396 84.4583 161.396 84.1529C161.396 83.8474 161.464 83.5185 161.554 83.4245C161.801 83.1661 162.522 81.0984 162.522 80.6285C162.522 80.4171 162.635 80.2291 162.747 80.2291C162.883 80.2291 162.973 79.9707 162.973 79.6417C162.973 79.0543 163.018 78.9134 163.716 77.4566C163.919 77.0102 164.099 76.3993 164.099 76.0939C164.099 75.7885 164.211 75.53 164.324 75.53C164.459 75.53 164.549 75.1541 164.549 74.7077C164.549 74.2612 164.662 73.8853 164.774 73.8853C164.91 73.8853 165 73.7678 165 73.6504C165 73.5094 163.243 73.4154 160.202 73.4154H155.405L155.022 74.8721C154.797 75.6945 154.527 76.5403 154.414 76.7518C154.279 76.9867 154.189 77.4801 154.189 77.8561C154.189 78.2555 154.099 78.6079 153.986 78.6784C153.873 78.7489 153.738 79.1483 153.671 79.5712C153.468 80.887 153.04 82.4612 152.815 82.6727C152.702 82.8136 152.612 83.26 152.612 83.683C152.612 84.1059 152.522 84.4583 152.387 84.4583C152.274 84.4583 152.162 84.8812 152.162 85.3981C152.162 85.915 152.072 86.338 151.937 86.338C151.824 86.338 151.711 86.6904 151.711 87.0898C151.689 87.5127 151.554 88.1236 151.373 88.4526C151.193 88.7815 151.058 89.2279 151.036 89.4629C151.036 89.8623 150.54 90.5672 150.27 90.5672C150.202 90.5672 150.135 90.3322 150.135 90.0268C150.135 89.7448 149.977 89.2044 149.797 88.8285C149.617 88.476 149.459 87.8652 149.459 87.4892C149.459 87.1133 149.369 86.8079 149.234 86.8079C149.121 86.8079 149.009 86.4319 149.009 85.9855C149.009 85.5391 148.919 85.1632 148.783 85.1632C148.671 85.1632 148.558 84.8107 148.558 84.3878C148.536 83.9884 148.401 83.3775 148.22 83.0486C148.04 82.7196 147.905 82.2262 147.883 81.9208C147.883 81.6388 147.792 81.4039 147.657 81.4039C147.545 81.4039 147.432 81.028 147.432 80.5816C147.432 80.1351 147.342 79.7592 147.207 79.7592C147.094 79.7592 146.982 79.4538 146.982 79.0543C146.982 78.6784 146.846 78.0205 146.666 77.5976C146.486 77.1747 146.216 76.3524 146.081 75.765C145.788 74.7077 145.202 73.1335 145.112 73.2274C145.09 73.2744 142.905 73.3214 140.292 73.3449Z" fill="#8CAD3E"/>
</svg>
