<svg width="267" height="86" viewBox="0 0 267 86" fill="none" xmlns="http://www.w3.org/2000/svg">
<path d="M0 14.8V11.6L0.0186996 9.81006V7.81006V5.32178L0 2.63999V-7.62939e-06H28H56L55.92 7.27999L55.8 14.6L46.32 14.72L36.8 14.8L36.72 41.32L36.6 67.8L27.92 67.92L19.2 68V41.4V14.8H9.6H0Z" fill="#8CAD3E"/>
<path d="M108 34V68H116.6H125.2V56.6V45.24L133.32 45.08C141.04 44.92 145.76 44.4 146.6 43.56C146.8 43.36 147.36 43.2 147.84 43.2C148.36 43.2 148.88 43 149 42.8C149.12 42.56 149.52 42.4 149.88 42.4C150.24 42.4 151.12 41.96 151.84 41.4C152.56 40.84 153.28 40.4 153.4 40.4C153.88 40.4 156.8 37.04 156.8 36.52C156.8 36.28 156.96 36 157.12 35.92C157.76 35.64 159.6 31.12 159.6 29.8C159.6 29.04 159.8 28.4 160 28.4C160.24 28.4 160.4 26.16 160.4 22.44C160.4 18.88 160.24 16.36 160 16.2C159.8 16.08 159.6 15.24 159.6 14.36C159.6 13.52 159.44 12.8 159.2 12.8C159 12.8 158.68 12.32 158.56 11.68C158.4 11.08 157.96 10.12 157.56 9.52C157.12 8.96 156.8 8.32 156.8 8.12C156.76 7.52 152.52 3.6 151.84 3.6C151.48 3.6 151.2 3.4 151.2 3.2C151.2 2.96 150.92 2.8 150.6 2.8C150.28 2.8 150 2.6 150 2.4C150 2.16 149.64 2 149.24 2C148.8 2 148.2 1.72 147.84 1.4C147.52 1.08 146.72 0.800003 146.04 0.800003C145.36 0.800003 144.8 0.599998 144.8 0.400002C144.8 0.120003 138.4 0 126.4 0H108V34ZM138.6 15.2C138.72 15.4 139.16 15.6 139.52 15.6C140.44 15.64 142 17 142 17.76C142 18.12 142.2 18.4 142.4 18.4C142.64 18.4 142.8 19.88 142.8 22C142.8 26.24 142.36 27.28 140 28.92C139.16 29.48 137.96 29.6 132.12 29.6H125.2V22.2V14.8H131.76C135.72 14.8 138.44 14.96 138.6 15.2Z" fill="#ED1C24"/>
<path d="M73.4 14.4001C73.28 14.6001 72.68 14.8001 72.12 14.8001C71.56 14.8001 70.56 15.0401 69.88 15.3601C69.16 15.6401 67.96 16.2001 67.2 16.5201C66.44 16.8801 65.4 17.5201 64.92 17.9601C64.44 18.4401 63.92 18.8001 63.8 18.8001C62.96 18.8001 59.6 23.4401 59.6 24.6001C59.6 24.9201 59.44 25.2001 59.2 25.2001C59 25.2001 58.8 25.8401 58.8 26.6001C58.8 27.3601 58.64 28.0001 58.4 28.0001C58.16 28.0001 58 29.3201 58 31.0801V34.2001L62.08 34.0401C66.92 33.8801 72.8 34.3201 72.8 34.8401C72.8 35.0401 72 35.2001 71.04 35.2001C70.04 35.2001 69.16 35.3601 69.04 35.5601C68.92 35.7601 68.16 36.0401 67.4 36.1601C66.64 36.3201 66 36.6001 66 36.8001C66 37.0401 65.64 37.2001 65.24 37.2001C64.8 37.2001 64.32 37.3601 64.2 37.6001C64.08 37.8001 63.68 38.0001 63.4 38.0001C62.72 38.0001 58.8 41.7601 58.8 42.4001C58.8 42.6401 58.36 43.5201 57.8 44.4001C57.24 45.2801 56.8 46.5201 56.8 47.1601C56.8 47.8001 56.64 48.4801 56.4 48.6001C56.2 48.7201 56 50.2801 56 52.0001C56 53.7201 56.2 55.2801 56.4 55.4001C56.64 55.5201 56.8 56.0401 56.8 56.5201C56.8 58.5601 61.04 64.8001 62.44 64.8001C62.64 64.8001 62.8 64.9601 62.8 65.2001C62.8 65.4001 63.16 65.6001 63.6 65.6001C64.04 65.6001 64.4 65.7601 64.4 66.0001C64.4 66.2001 64.68 66.4001 65 66.4001C65.36 66.4001 66.2 66.6801 66.84 67.0401C67.76 67.5201 69.32 67.6401 73.08 67.6401C78.12 67.6401 78.24 67.6401 81.68 65.9601C82.08 65.7601 82.68 65.6001 83 65.6001C83.32 65.6001 83.6 65.4401 83.6 65.2801C83.6 65.0801 84.24 64.6001 85 64.1601C85.76 63.7601 86.4 63.2801 86.4 63.1201C86.4 62.9201 86.6 62.8001 86.8 62.8001C87.04 62.8001 87.2 63.2001 87.2 63.7201C87.2 64.2001 87.48 65.0401 87.84 65.5201C88.44 66.4001 88.64 66.4001 96.64 66.4001H104.8V64.0001C104.8 62.0401 104.68 61.5201 104.12 61.3201C103.72 61.2001 103.08 60.7601 102.72 60.3601C102.04 59.6801 102 58.2801 102 42.8001C102 31.8801 101.88 26.0001 101.6 26.0001C101.4 26.0001 101.2 25.3601 101.2 24.6001C101.2 23.8401 101.04 23.2001 100.84 23.2001C100.64 23.2001 100.32 22.8401 100.2 22.4001C99.88 21.3201 96.36 17.9201 94.92 17.2401C94.32 16.9601 93.48 16.5601 93.12 16.3601C92.72 16.1601 92.16 16.0001 91.84 16.0001C91.56 16.0001 90.76 15.7201 90.16 15.4001C89.52 15.0801 88.52 14.8001 87.92 14.8001C87.32 14.8001 86.72 14.6001 86.6 14.4001C86.44 14.1601 83.8 14.0001 80 14.0001C76.2 14.0001 73.56 14.1601 73.4 14.4001ZM83.72 27.9601C84.92 28.4401 86.4 29.9201 86.4 30.7201C86.4 31.3601 85.44 32.4001 84.88 32.4001C84.64 32.4001 84.4 32.6001 84.32 32.8401C84.16 33.3201 80.6 33.9601 76.28 34.2801L73.16 34.4801L73.44 32.7601C73.6 31.8001 73.84 30.8401 74.04 30.6001C74.24 30.4001 74.4 29.9201 74.4 29.5201C74.4 29.1201 74.68 28.8001 75 28.8001C75.32 28.8001 75.6 28.6401 75.6 28.4401C75.6 28.2401 76 27.9601 76.52 27.8801C78.24 27.5601 82.76 27.6001 83.72 27.9601ZM86.4 46.2001C86.4 47.2001 86.24 48.0001 86 48.0001C85.8 48.0001 85.6 48.6001 85.6 49.3601C85.6 50.0801 85.32 50.9201 85 51.2001C84.68 51.4801 84.4 51.8801 84.4 52.0801C84.4 52.6801 83.32 53.6001 82.64 53.6001C82.32 53.6001 81.96 53.7601 81.84 53.9601C81.52 54.4401 77.88 55.6001 76.6 55.6001C75.52 55.6001 74.28 55.0001 73.12 53.8801C71.6 52.4401 72.6 47.2001 74.36 47.2001C74.6 47.2001 75.12 47.0401 75.52 46.8401C76.6 46.2801 79.6 45.5601 81.6 45.3201C82.6 45.2001 83.56 44.9601 83.8 44.7601C84 44.5601 84.68 44.4001 85.28 44.4001C86.36 44.4001 86.4 44.4801 86.4 46.2001Z" fill="#8CAD3E"/>
<path d="M179.811 14.3008C179.491 14.5008 178.851 14.7008 178.411 14.7008C177.971 14.7008 177.091 14.9808 176.451 15.3008C175.851 15.6208 174.971 15.9008 174.571 15.9008C174.131 15.9008 173.811 16.0608 173.811 16.3008C173.811 16.5008 173.451 16.7008 173.011 16.7008C172.571 16.7008 172.211 16.8608 172.211 17.0208C172.211 17.1808 171.611 17.6608 170.931 18.1008C169.451 18.9408 167.931 20.5408 167.571 21.5808C167.451 21.9808 167.171 22.3008 166.971 22.3008C166.771 22.3008 166.611 22.6608 166.611 23.1008C166.611 23.5408 166.451 23.9008 166.211 23.9008C166.011 23.9008 165.811 24.3408 165.811 24.8608C165.811 25.3808 165.651 25.9008 165.411 25.9808C165.091 26.1008 164.451 28.7408 163.931 32.3808L163.731 33.9008H169.091C172.091 33.9008 175.611 34.0208 176.971 34.1408C179.251 34.3808 179.411 34.3808 179.411 33.5808C179.411 32.3008 180.811 29.3808 181.851 28.5008C182.651 27.8208 183.411 27.7008 186.451 27.7008C190.451 27.7008 192.091 28.2608 192.451 29.7408C192.771 31.0608 192.291 32.3008 191.411 32.3008C191.011 32.3008 190.611 32.5008 190.531 32.7408C190.371 33.2208 186.811 33.8608 182.531 34.1808C180.811 34.3008 179.411 34.5408 179.411 34.7408C179.411 34.9408 178.771 35.1008 177.971 35.1008C176.451 35.1008 172.491 36.2608 172.291 36.7808C172.211 36.9808 171.851 37.1008 171.451 37.1008C171.091 37.1008 170.371 37.4608 169.891 37.9008C169.411 38.3408 168.891 38.7008 168.731 38.7008C168.331 38.7008 165.811 40.9008 165.811 41.2208C165.811 41.3808 165.371 42.1408 164.811 42.9408C164.251 43.7408 163.811 44.8208 163.811 45.3408C163.811 45.8608 163.651 46.3008 163.411 46.3008C162.891 46.3008 162.851 56.4208 163.371 57.4208C163.571 57.7808 164.011 58.7408 164.371 59.5008C165.491 61.9408 167.411 64.3008 168.291 64.3008C168.451 64.3008 168.811 64.5408 169.091 64.7808C169.371 65.0608 170.171 65.5408 170.811 65.8608C171.491 66.1408 172.531 66.6608 173.131 66.9808C174.651 67.7808 184.291 67.7808 185.531 67.0208C186.011 66.7008 187.171 66.2208 188.131 65.9008C189.051 65.6208 189.811 65.2208 189.811 65.0208C189.811 64.8608 190.051 64.7008 190.331 64.7008C190.611 64.7008 191.291 64.2608 191.891 63.7008C193.211 62.5008 193.411 62.4608 193.411 63.5008C193.411 63.9408 193.611 64.3008 193.811 64.3008C194.051 64.3008 194.211 64.7408 194.211 65.3008V66.3008H202.611H211.011V63.9008C211.011 61.7408 210.891 61.4208 210.051 61.0608C208.771 60.4608 208.611 58.8208 208.291 40.0208C208.091 28.6208 207.891 24.6208 207.531 24.2208C207.251 23.9808 207.011 23.4208 207.011 23.0208C207.011 22.6208 206.851 22.3008 206.611 22.3008C206.411 22.3008 206.211 22.0208 206.211 21.6608C206.211 20.8608 202.771 17.5008 201.971 17.5008C201.651 17.5008 201.411 17.3008 201.411 17.1008C201.411 16.8608 201.051 16.7008 200.611 16.7008C200.171 16.7008 199.811 16.5008 199.811 16.3008C199.811 16.0608 199.291 15.9008 198.691 15.9008C198.091 15.9008 197.411 15.7408 197.171 15.5408C196.971 15.3408 195.931 14.9408 194.811 14.6608C192.331 14.0208 180.651 13.7408 179.811 14.3008ZM192.411 46.7008C192.411 49.7408 190.491 53.5008 188.931 53.5008C188.571 53.5008 188.091 53.7808 187.811 54.1008C187.531 54.4208 186.891 54.7008 186.371 54.7008C185.891 54.7008 185.331 54.8608 185.211 55.1008C184.571 56.1408 179.411 54.8208 179.411 53.6208C179.411 53.3408 179.251 53.1008 179.011 53.1008C178.811 53.1008 178.611 52.1808 178.611 51.1008C178.611 49.9808 178.811 49.1008 179.011 49.1008C179.251 49.1008 179.411 48.9008 179.411 48.6608C179.411 48.1008 180.411 47.1008 180.971 47.1008C181.211 47.1008 181.731 46.9408 182.131 46.7408C183.451 46.0608 187.291 45.1008 188.731 45.1008C189.531 45.1008 190.291 44.9008 190.411 44.6608C190.571 44.4608 191.091 44.3008 191.531 44.3808C192.331 44.5008 192.411 44.7408 192.411 46.7008Z" fill="#8CAD3E"/>
<path d="M222.52 14.2068C214.32 14.3268 214 14.3668 214 15.1268C214 15.5668 214.16 15.9268 214.4 15.9268C214.6 15.9268 214.88 16.5668 215.04 17.3268C215.16 18.0868 215.44 18.7268 215.64 18.7268C215.84 18.7268 216 19.3668 216 20.1268C216 20.8868 216.2 21.5268 216.4 21.5268C216.64 21.5268 216.8 21.8868 216.8 22.3268C216.8 23.1268 216.88 23.4068 218.12 25.8468C218.48 26.6068 218.8 27.6468 218.8 28.1668C218.8 28.6868 219 29.1268 219.2 29.1268C219.44 29.1268 219.6 29.6468 219.6 30.3268C219.6 30.9668 219.8 31.5268 220 31.5268C220.24 31.5268 220.4 31.9268 220.4 32.4068C220.44 32.9268 220.68 33.7668 221 34.3268C221.32 34.8868 221.56 35.7268 221.6 36.2068C221.6 36.7268 221.8 37.1268 222 37.1268C222.24 37.1268 222.4 37.5668 222.4 38.1268C222.4 38.6868 222.56 39.4468 222.76 39.8468C222.96 40.2068 223.44 41.3268 223.8 42.3268C224.16 43.3268 224.64 44.4468 224.84 44.8068C225.04 45.2068 225.2 45.8868 225.2 46.2868C225.2 46.7268 225.4 47.2068 225.6 47.3268C225.84 47.4468 226 48.0868 226 48.7668C226 49.4068 226.2 49.9268 226.4 49.9268C226.64 49.9268 226.8 50.3268 226.8 50.8468C226.8 51.3668 227.08 52.1268 227.4 52.5668C227.72 52.9668 228 53.8068 228 54.4068C228 55.0468 228.2 55.5268 228.4 55.5268C228.64 55.5268 228.8 55.9268 228.8 56.4468C228.8 56.9668 229.24 58.3268 229.8 59.4468C230.36 60.6068 230.8 61.8868 230.8 62.3268C230.8 62.7668 231 63.1268 231.2 63.1268C231.44 63.1268 231.6 63.6468 231.6 64.2468C231.6 64.8468 231.8 65.5668 232.04 65.8068C232.36 66.1268 232.36 66.3268 232.04 66.4868C231.8 66.6468 231.6 67.2868 231.6 67.9668C231.6 68.6068 231.44 69.1268 231.2 69.1268C231 69.1268 230.8 69.4068 230.8 69.7268C230.8 70.0468 230.52 70.3268 230.2 70.3268C229.88 70.3268 229.6 70.4868 229.6 70.7268C229.6 70.9668 228 71.1268 225.6 71.1268H221.6V77.8868V84.6068L223.12 84.8868C225.88 85.3268 231.6 85.1268 234.32 84.4868C237.56 83.7268 240.8 82.2868 240.8 81.6468C240.8 81.4068 240.96 81.1268 241.12 81.0468C241.72 80.8068 243.6 78.0468 243.6 77.4068C243.6 77.0068 243.8 76.7268 244 76.7268C244.24 76.7268 244.4 76.2868 244.4 75.7268C244.4 75.1668 244.6 74.7268 244.8 74.7268C245.04 74.7268 245.2 74.4068 245.2 74.0068C245.2 73.6068 245.48 72.9268 245.8 72.4868C246.12 72.0868 246.4 71.4068 246.4 71.0068C246.4 70.6468 246.6 70.3268 246.8 70.3268C247.04 70.3268 247.2 69.8868 247.2 69.3268C247.2 68.3268 247.28 68.0468 248.56 65.6468C248.92 64.9668 249.2 64.0068 249.2 63.5668C249.2 63.0868 249.4 62.7268 249.6 62.7268C249.84 62.7268 250 62.2068 250 61.5668C250 60.8868 250.2 60.2468 250.4 60.1268C250.64 60.0068 250.8 59.5668 250.8 59.1668C250.8 58.7668 251.08 57.8868 251.4 57.2868C251.72 56.6468 252 55.8068 252 55.4068C252 55.0468 252.2 54.7268 252.4 54.7268C252.64 54.7268 252.8 54.0868 252.8 53.3268C252.8 52.5668 253 51.9268 253.2 51.9268C253.44 51.9268 253.6 51.5668 253.6 51.1268C253.6 50.6868 253.76 50.0068 253.96 49.6068C254.88 47.7668 255.6 45.8068 255.6 45.1268C255.6 44.6868 255.8 44.3268 256 44.3268C256.24 44.3268 256.4 43.8868 256.4 43.3268C256.4 42.7668 256.56 42.0068 256.76 41.6068C257.68 39.7668 258.4 37.8068 258.4 37.1268C258.4 36.6868 258.6 36.3268 258.8 36.3268C259.04 36.3268 259.2 35.6868 259.2 34.9268C259.2 34.1668 259.4 33.5268 259.6 33.5268C259.84 33.5268 260 33.1268 260 32.6068C260 32.0868 260.12 31.5268 260.28 31.3668C260.72 30.9268 262 27.4068 262 26.6068C262 26.2468 262.2 25.9268 262.4 25.9268C262.64 25.9268 262.8 25.4868 262.8 24.9268C262.8 23.9268 262.88 23.6868 264.12 21.2068C264.48 20.4468 264.8 19.4068 264.8 18.8868C264.8 18.3668 265 17.9268 265.2 17.9268C265.44 17.9268 265.6 17.2868 265.6 16.5268C265.6 15.7668 265.8 15.1268 266 15.1268C266.24 15.1268 266.4 14.9268 266.4 14.7268C266.4 14.4868 263.28 14.3268 257.88 14.3268H249.36L248.68 16.8068C248.28 18.2068 247.8 19.6468 247.6 20.0068C247.36 20.4068 247.2 21.2468 247.2 21.8868C247.2 22.5668 247.04 23.1668 246.84 23.2868C246.64 23.4068 246.4 24.0868 246.28 24.8068C245.92 27.0468 245.16 29.7268 244.76 30.0868C244.56 30.3268 244.4 31.0868 244.4 31.8068C244.4 32.5268 244.24 33.1268 244 33.1268C243.8 33.1268 243.6 33.8468 243.6 34.7268C243.6 35.6068 243.44 36.3268 243.2 36.3268C243 36.3268 242.8 36.9268 242.8 37.6068C242.76 38.3268 242.52 39.3668 242.2 39.9268C241.88 40.4868 241.64 41.2468 241.6 41.6468C241.6 42.3268 240.72 43.5268 240.24 43.5268C240.12 43.5268 240 43.1268 240 42.6068C240 42.1268 239.72 41.2068 239.4 40.5668C239.08 39.9668 238.8 38.9268 238.8 38.2868C238.8 37.6468 238.64 37.1268 238.4 37.1268C238.2 37.1268 238 36.4868 238 35.7268C238 34.9668 237.84 34.3268 237.6 34.3268C237.4 34.3268 237.2 33.7268 237.2 33.0068C237.16 32.3268 236.92 31.2868 236.6 30.7268C236.28 30.1668 236.04 29.3268 236 28.8068C236 28.3268 235.84 27.9268 235.6 27.9268C235.4 27.9268 235.2 27.2868 235.2 26.5268C235.2 25.7668 235.04 25.1268 234.8 25.1268C234.6 25.1268 234.4 24.6068 234.4 23.9268C234.4 23.2868 234.16 22.1668 233.84 21.4468C233.52 20.7268 233.04 19.3268 232.8 18.3268C232.28 16.5268 231.24 13.8468 231.08 14.0068C231.04 14.0868 227.16 14.1668 222.52 14.2068Z" fill="#8CAD3E"/>
</svg>
