<svg width="277" height="71" viewBox="0 0 277 71" fill="none" xmlns="http://www.w3.org/2000/svg">
<path d="M10.384 69.998H4.048C1.71733 69.998 0 68.306 0 65.9434V4.13005C0 2.06605 1.384 -0.000617981 4.048 -0.000617981H17.1773C18.692 -0.000617981 19.7413 0.938049 20.132 1.32339L20.364 1.59672L55.508 47.854V4.13005C55.508 1.71405 57.248 -0.000617981 59.6573 -0.000617981H66.0067C68.6747 -0.000617981 70.0493 2.07671 70.0493 4.13005V65.9434C70.0493 68.2994 68.3507 69.998 66.0093 69.998H57.148C56.1093 69.998 55.3187 69.626 54.944 69.3967C54.512 69.126 54.1573 68.8074 53.9093 68.5607C53.6907 68.35 53.468 68.11 53.288 67.91C53.124 67.7047 52.988 67.5367 52.9213 67.4594L14.436 17.3674V65.9434C14.436 68.306 12.7187 69.998 10.384 69.998Z" fill="#EE3151"/>
<path d="M70.056 27.7057H118.783C120.704 27.7057 121.457 29.2097 121.457 30.6497V39.3963C121.457 40.835 120.704 42.3457 118.783 42.3457H70.056V27.7057ZM70.056 55.3803H120.879C122.652 55.3803 123.551 56.6737 123.551 58.1937V67.1963C123.551 68.711 122.652 70.0137 120.879 70.0137H64.6826L66.0093 69.9963C68.3493 69.9963 70.056 68.3003 70.056 65.9443V55.3803ZM70.056 4.12567C70.056 2.11767 68.732 0.0749969 66.1613 0.000335693H120.879C122.8 0.000335693 123.551 1.52033 123.551 2.94833V11.511C123.551 12.9723 122.909 14.6403 120.879 14.6403H70.056V4.12567Z" fill="#2A57A5"/>
<path d="M204.149 64.9507C199.192 61.0201 196.868 55.3387 196.868 48.4241C196.868 46.4987 198.148 44.3761 200.817 44.3761H207.156C209.485 44.3761 211.201 46.0761 211.201 48.4241C211.285 50.0747 211.578 51.2987 212.018 52.2134C212.352 52.9014 212.916 53.4961 213.876 53.9587C214.612 54.3241 215.74 54.7147 217.312 55.0067C218.893 55.3201 220.744 55.4481 222.868 55.4481H251.756C253.91 55.4481 255.581 55.2894 256.84 55.0187C258.158 54.7294 259.089 54.3667 259.701 53.9867C260.462 53.5294 260.926 52.9667 261.21 52.2467C261.573 51.2681 261.798 49.9947 261.798 48.3267C261.798 45.4867 260.65 43.8507 258.189 42.8561C257.117 42.3734 255.449 41.9374 253.217 41.6867C250.85 41.4227 227.953 41.6054 227.305 41.6054C218.566 41.6054 211.589 40.6054 206.718 38.2841C199.713 34.9787 196.372 28.7801 196.372 20.5427C196.372 18.4081 196.578 16.4307 196.96 14.6307H167.133V65.9441C167.133 68.3067 165.416 70.0134 163.081 70.0134H156.736C154.065 70.0134 152.785 67.8654 152.785 65.9441V14.6307H121.064C122.962 14.5281 123.55 12.9214 123.55 11.5107V2.94807C123.55 1.51475 122.806 7.62939e-05 120.872 7.62939e-05H250.961C266.568 7.62939e-05 275.654 7.07341 275.654 21.5427C275.654 23.3387 274.449 25.4974 271.801 25.4974H265.249C262.964 25.4974 261.3 23.8161 261.3 21.5561C261.242 19.9787 260.926 18.7614 260.492 17.8454C260.14 17.0747 259.558 16.4601 258.632 16.0214C257.004 15.2001 254.14 14.6307 249.752 14.6307H218.946C217 14.6307 215.536 14.7841 214.43 15.0361C213.325 15.3227 212.621 15.6467 212.208 15.9227C211.686 16.2654 210.805 17.3254 210.805 20.6401C210.805 22.9201 211.768 24.4361 214.385 25.4881C216.888 26.5134 221.121 27.1587 227.393 27.1587C227.762 27.1587 233.989 27.1521 240.537 27.2094C246.896 27.2641 254.112 27.3921 256.084 27.7054C259.628 28.2667 262.772 29.1347 265.374 30.2814C272.552 33.8254 276.148 40.1627 276.148 48.5281C276.148 55.8161 274.169 61.8281 269.546 65.6734C267.482 67.3041 265.689 68.8961 262.754 69.5801C260.012 70.1481 255.878 70.0134 252.066 70.0134H220.853C214.102 70.0134 208.397 68.4627 204.149 64.9507Z" fill="#EE3151"/>
</svg>
