<svg width="180" height="180" viewBox="0 0 180 180" fill="none" xmlns="http://www.w3.org/2000/svg">
<circle cx="90" cy="90" r="90" fill="#F11FB9"/>
<path d="M57.2158 144.928C51.1222 144.927 45.4091 144.888 39.6969 144.939C36.5368 144.967 35.0266 143.556 35.0445 140.347C35.097 130.952 34.8612 121.551 35.1358 112.163C35.6086 95.999 49.2527 82.7786 65.5681 82.4571C72.0401 82.3296 78.517 82.4745 84.9907 82.4087C95.4456 82.3023 102.304 74.8971 101.739 64.5224C101.303 56.5094 98.4596 49.4686 93.1888 42.9782C98.3557 37.9955 104.581 35.4338 111.549 35.195C121.186 34.8646 130.842 35.0885 140.489 35.0585C143.463 35.0492 144.94 36.4504 144.928 39.4667C144.89 49.1155 145.184 58.7764 144.8 68.4107C144.17 84.2076 130.583 97.1592 114.599 97.5331C108.001 97.6874 101.397 97.5192 94.7961 97.5961C84.4362 97.7167 77.5808 105.288 78.2252 115.656C78.7228 123.661 81.604 130.682 86.831 137.066C81.4154 142.063 75.0535 144.49 67.8778 144.869C64.4593 145.05 61.0243 144.918 57.2158 144.928Z" fill="white"/>
<path d="M90.9659 47.1399C95.002 52.4595 97.1471 58.2268 97.5118 64.6012C97.9729 72.6583 93.0741 77.9501 85.0181 78.1159C79.9395 78.2204 74.8526 78.2771 69.7773 78.1135C59.8877 77.7948 50.8961 80.1361 42.9773 86.849C38.0615 81.687 35.4608 75.5652 35.2151 68.7051C34.8653 58.9358 35.0907 49.1461 35.0607 39.3652C35.0514 36.3119 36.6538 35.0395 39.5951 35.0528C49.121 35.0958 58.6573 34.8323 68.1704 35.1935C77.4125 35.5443 84.9341 39.771 90.9659 47.1399Z" fill="white"/>
<path d="M82.4953 112.52C84.4101 104.978 88.1819 101.95 95.4972 101.866C100.067 101.814 104.643 101.679 109.205 101.857C119.445 102.258 128.877 100.173 137.024 93.1269C142.013 98.5197 144.609 104.76 144.814 111.793C145.093 121.306 144.883 130.834 144.938 140.355C144.956 143.557 143.455 144.969 140.29 144.951C130.897 144.898 121.495 145.15 112.111 144.849C95.3355 144.31 82.432 130.217 82.4953 112.52Z" fill="white"/>
</svg>
