<svg width="180" height="180" viewBox="0 0 180 180" fill="none" xmlns="http://www.w3.org/2000/svg">
<rect width="180" height="180" rx="15" fill="#F11FB9"/>
<path d="M57.2158 147.928C51.1222 147.927 45.4091 147.888 39.6969 147.939C36.5368 147.967 35.0266 146.556 35.0445 143.347C35.097 133.952 34.8612 124.551 35.1358 115.163C35.6086 98.999 49.2527 85.7786 65.5681 85.4571C72.0401 85.3296 78.517 85.4745 84.9907 85.4087C95.4456 85.3023 102.304 77.8971 101.739 67.5224C101.303 59.5094 98.4596 52.4686 93.1888 45.9782C98.3557 40.9955 104.581 38.4338 111.549 38.195C121.186 37.8646 130.842 38.0885 140.489 38.0585C143.463 38.0492 144.94 39.4504 144.928 42.4667C144.89 52.1155 145.184 61.7764 144.8 71.4107C144.17 87.2076 130.583 100.159 114.599 100.533C108.001 100.687 101.397 100.519 94.7961 100.596C84.4362 100.717 77.5808 108.288 78.2252 118.656C78.7228 126.661 81.604 133.682 86.831 140.066C81.4154 145.063 75.0535 147.49 67.8778 147.869C64.4593 148.05 61.0243 147.918 57.2158 147.928Z" fill="white"/>
<path d="M90.9659 50.1399C95.002 55.4595 97.1471 61.2268 97.5118 67.6012C97.9729 75.6583 93.0741 80.9501 85.0181 81.1159C79.9395 81.2204 74.8526 81.2771 69.7773 81.1135C59.8877 80.7948 50.8961 83.1361 42.9773 89.849C38.0615 84.687 35.4608 78.5652 35.2151 71.7051C34.8653 61.9358 35.0907 52.1461 35.0607 42.3652C35.0514 39.3119 36.6538 38.0395 39.5951 38.0528C49.121 38.0958 58.6573 37.8323 68.1704 38.1935C77.4125 38.5443 84.9341 42.771 90.9659 50.1399Z" fill="white"/>
<path d="M82.4953 115.52C84.4101 107.978 88.1819 104.95 95.4972 104.866C100.067 104.814 104.643 104.679 109.205 104.857C119.445 105.258 128.877 103.173 137.024 96.1269C142.013 101.52 144.609 107.76 144.814 114.793C145.093 124.306 144.883 133.834 144.938 143.355C144.956 146.557 143.455 147.969 140.29 147.951C130.897 147.898 121.495 148.15 112.111 147.849C95.3355 147.31 82.432 133.217 82.4953 115.52Z" fill="white"/>
</svg>
