<svg width="500" height="350" viewBox="0 0 500 350" fill="none" xmlns="http://www.w3.org/2000/svg">
<rect width="500" height="350" rx="15" fill="#F11FB9"/>
<path d="M283.393 297.804C282.184 297.804 281.057 297.804 279.875 297.804C279.875 275.533 279.875 255.122 279.875 232.856C280.126 232.843 280.361 232.856 280.596 232.856C288.355 232.854 296.213 232.856 303.873 232.856C308.66 232.881 312.968 233.311 316.56 236.383C319.578 238.964 321.39 242.179 321.979 245.942C322.726 250.709 321.634 255.103 318.539 259.003C317.238 260.643 315.653 261.994 313.749 263.005C313.596 263.086 313.457 263.19 313.352 263.258C314.742 263.842 316.174 264.302 317.452 265.007C322.294 267.677 325.108 271.741 326.127 276.846C327.367 283.063 325.973 288.684 321.188 293.323C318.004 296.41 314.032 297.342 309.488 297.804C307.883 297.804 306.639 297.801 305.214 297.804C297.967 297.819 290.72 297.804 283.393 297.804ZM294.466 290.696C298.048 290.691 301.632 290.763 305.211 290.661C309.024 290.553 312.192 289.095 314.48 286.176C315.913 284.347 316.684 282.307 316.721 279.989C316.751 278.088 316.654 276.241 315.771 274.503C313.549 270.132 309.743 268.063 304.675 267.999C299.72 267.935 294.764 267.984 289.808 267.986C289.573 267.986 287.464 268.007 287.213 268.019C287.213 275.592 287.213 283.117 287.213 290.696C288.991 290.696 292.584 290.696 294.466 290.696ZM310.964 244.813C308.734 241.376 305.326 240.009 301.189 239.98C297.391 239.952 293.593 239.973 289.795 239.975C289.561 239.976 287.46 239.958 287.213 239.972C287.213 246.748 287.213 253.515 287.213 260.269C287.445 260.285 289.496 260.308 289.679 260.308C293.639 260.31 297.598 260.313 301.558 260.305C302.122 260.304 302.695 260.297 303.25 260.212C310.937 259.04 314.873 251.283 310.964 244.813Z" fill="white"/>
<path d="M371.802 289.337C370.419 290.884 369.172 292.582 367.623 293.949C364.308 296.876 360.332 298.458 355.886 298.82C348.208 299.446 341.674 297.069 336.464 291.443C333.238 287.958 331.357 283.787 330.681 279.147C330.368 276.999 330.164 274.773 330.376 272.627C331.173 264.58 334.675 258.025 341.896 253.749C344.948 251.943 348.284 251.027 351.86 250.748C356.676 250.372 361.108 251.352 365.197 253.843C367.861 255.465 369.994 257.633 371.745 260.275C371.825 260.363 371.859 260.392 371.892 260.42C371.898 260.357 371.903 260.293 371.909 260.23C371.909 257.436 371.909 254.761 371.909 251.928C374.568 251.928 377.142 251.928 379.77 251.928C379.77 267.236 379.77 282.45 379.77 297.801C377.187 297.801 374.614 297.801 371.922 297.801C371.922 295.042 371.922 292.25 371.922 289.388C371.882 289.306 371.842 289.321 371.802 289.337ZM358.845 258.517C357.01 258.179 355.17 258.042 353.301 258.242C349.223 258.679 345.686 260.247 342.906 263.225C339.192 267.204 337.817 271.964 338.564 277.281C339.19 281.729 341.239 285.445 344.943 288.159C348.746 290.945 353.047 291.922 357.713 291.275C361.635 290.731 364.987 289.041 367.644 286.121C371.465 281.924 372.474 276.91 371.589 271.536C370.497 264.906 365.535 259.948 358.845 258.517Z" fill="white"/>
<path d="M403.542 258.605C399.541 259.793 396.664 262.198 395.081 266.065C394.265 268.058 394.007 270.154 394.01 272.303C394.025 280.505 394.016 288.706 394.016 296.908C394.016 297.189 394.016 297.47 394.016 297.804C391.431 297.804 388.89 297.804 386.307 297.804C386.307 282.44 386.307 267.086 386.307 251.675C388.837 251.675 391.38 251.675 393.983 251.675C393.983 254.023 393.983 256.377 393.983 258.906C394.673 258.061 395.226 257.324 395.839 256.64C398.806 253.334 402.547 251.466 406.879 250.791C408.262 250.575 409.683 250.477 411.082 250.508C415.17 250.599 419.001 251.581 422.333 254.111C425.894 256.813 427.981 260.436 428.8 264.799C429.078 266.275 429.222 267.799 429.229 269.302C429.267 278.591 429.248 287.88 429.248 297.169C429.248 297.376 429.248 297.565 429.248 297.804C426.652 297.804 424.126 297.804 421.498 297.804C421.498 297.529 421.498 297.274 421.498 297.002C421.498 288.729 421.522 280.456 421.485 272.184C421.473 269.532 421.153 266.918 419.832 264.533C417.802 260.866 414.707 258.812 410.589 258.275C408.238 257.968 405.907 258.012 403.542 258.605Z" fill="white"/>
<path d="M443.596 264.791C443.596 266.926 443.596 268.99 443.596 271.245C444.01 270.87 444.318 270.602 444.614 270.323C451.009 264.316 457.404 258.31 463.788 252.293C464.139 251.962 464.48 251.912 464.974 251.916C468.041 251.937 471.108 251.916 474.361 251.916C466.516 259.598 458.779 267.08 450.985 274.713C458.964 282.379 466.913 290.036 474.999 297.804C474.11 297.804 473.408 297.804 472.707 297.804C470.305 297.804 467.997 297.804 465.5 297.804C465.124 297.798 464.665 297.576 464.393 297.321C457.64 291.006 450.906 284.67 444.168 278.338C444.021 278.199 443.863 278.071 443.617 277.855C443.617 284.54 443.617 291.183 443.617 297.804C440.984 297.804 438.409 297.804 435.787 297.804C435.787 276.185 435.787 254.515 435.787 232.856C438.368 232.856 440.928 232.856 443.596 232.856C443.596 243.488 443.596 254.089 443.596 264.791Z" fill="white"/>
<path d="M366.976 257.367C367.004 257.427 366.998 257.492 366.992 257.557C366.96 257.528 366.927 257.499 366.887 257.436C366.88 257.401 366.942 257.372 366.976 257.367Z" fill="white"/>
<path d="M366.93 287.445C366.944 287.419 366.983 287.402 367.015 287.421C367.008 287.456 366.955 287.454 366.93 287.445Z" fill="white"/>
<path d="M202.04 264.878C202.04 245.886 186.017 231 165.541 231C145.173 231 129.219 245.886 129.219 264.878C129.219 283.855 145.173 298.732 165.541 298.732C186.017 298.731 202.04 283.855 202.04 264.878ZM193.249 264.878C193.249 272.021 190.448 278.639 185.345 283.503C180.207 288.382 173.262 291.03 165.731 291.03C150.196 291.03 138.023 279.549 138.023 264.878C138.023 250.197 150.196 238.692 165.731 238.692C173.263 238.692 180.207 241.383 185.345 246.246C190.448 251.108 193.249 257.719 193.249 264.878Z" fill="white"/>
<path d="M92.0184 241.031V290.581H123.146V297.804H83.5273V232.856H122.409V241.031H92.0184Z" fill="white"/>
<path d="M254.224 297.804L253.657 297.023L216.902 248.164V295.954V297.804H214.991H210.511H208.574V295.954V234.698V232.856H210.511H214.312H215.304L215.875 233.613L252.532 282.512V234.698V232.856H254.478H258.949H260.856V234.698V295.954V297.804H258.949H255.224H254.224Z" fill="white"/>
<path d="M28.714 297.804H33.6734H34.6041H35.1488L81.7616 235.825L83.996 232.856H80.2654H75.3124H74.4044L73.8432 233.578L27.2615 294.657L25 297.804H28.714Z" fill="white"/>
<path d="M139.921 256.207C140.001 255.538 141.281 255.643 141.281 255.643C158.374 257.174 163.763 261.552 163.763 264.904C163.763 270.731 143.058 275.536 117.589 275.536C92.0315 275.536 71.3359 270.731 71.3359 264.904C71.3359 258.754 88.895 254.199 121.57 254.199C121.57 254.199 123.149 254.103 123.183 254.916C123.183 255.61 121.515 255.537 121.515 255.537C98.4532 255.537 78.3238 258.866 78.3238 262.711C78.3238 266.573 95.8741 269.725 117.589 269.725C139.19 269.725 155.976 266.492 156.784 262.711C157.085 261.261 154.468 258.109 141.434 256.98C141.434 256.981 139.834 256.917 139.921 256.207Z" fill="white"/>
<path d="M208.275 189.909C200.519 189.907 193.248 189.858 185.978 189.922C181.956 189.958 180.034 188.163 180.057 184.079C180.123 172.121 179.823 160.156 180.173 148.208C180.775 127.635 198.14 110.809 218.905 110.4C227.142 110.238 235.385 110.422 243.625 110.338C256.931 110.203 265.66 100.778 264.941 87.5741C264.385 77.3758 260.767 68.4147 254.058 60.1543C260.635 53.8126 268.557 50.5523 277.426 50.2483C289.691 49.8279 301.98 50.1128 314.259 50.0746C318.044 50.0628 319.924 51.8461 319.909 55.6851C319.86 67.9654 320.234 80.261 319.745 92.5229C318.944 112.628 301.651 129.112 281.308 129.588C272.911 129.784 264.505 129.57 256.104 129.668C242.919 129.821 234.194 139.458 235.014 152.653C235.647 162.842 239.314 171.777 245.967 179.902C239.074 186.262 230.977 189.351 221.844 189.834C217.494 190.064 213.122 189.896 208.275 189.909Z" fill="white"/>
<path d="M251.23 65.4508C256.367 72.2211 259.097 79.5614 259.561 87.6743C260.148 97.9288 253.913 104.664 243.66 104.875C237.196 105.008 230.722 105.08 224.262 104.872C211.676 104.466 200.232 107.446 190.153 115.99C183.897 109.42 180.587 101.628 180.274 92.8974C179.829 80.4638 180.116 68.0041 180.078 55.5556C180.066 51.6698 182.105 50.0502 185.849 50.0671C197.973 50.122 210.11 49.7866 222.217 50.2462C233.98 50.6928 243.553 56.0722 251.23 65.4508Z" fill="white"/>
<path d="M240.448 148.662C242.884 139.063 247.685 135.209 256.995 135.102C262.811 135.036 268.635 134.864 274.442 135.092C287.475 135.601 299.479 132.947 309.848 123.98C316.198 130.843 319.501 138.786 319.763 147.736C320.117 159.845 319.85 171.97 319.92 184.088C319.944 188.164 318.032 189.961 314.004 189.938C302.049 189.871 290.084 190.192 278.141 189.808C256.79 189.122 240.367 171.185 240.448 148.662Z" fill="white"/>
</svg>
