<svg width="800" height="180" viewBox="0 0 800 180" fill="none" xmlns="http://www.w3.org/2000/svg">
<rect width="800" height="180" rx="15" fill="white"/>
<path d="M509.194 130.096C507.833 130.096 506.564 130.096 505.232 130.096C505.232 105.013 505.232 82.024 505.232 56.9453C505.516 56.9316 505.78 56.9454 506.045 56.9453C514.784 56.9434 523.634 56.9453 532.261 56.9455C537.653 56.9736 542.505 57.4586 546.55 60.9181C549.95 63.8249 551.991 67.4462 552.654 71.6843C553.495 77.054 552.265 82.0026 548.779 86.3954C547.314 88.2417 545.529 89.7635 543.384 90.902C543.212 90.9934 543.056 91.1109 542.937 91.1872C544.503 91.8456 546.116 92.3636 547.555 93.1574C553.008 96.1648 556.178 100.741 557.326 106.492C558.723 113.493 557.152 119.825 551.763 125.05C548.177 128.526 543.703 129.576 538.585 130.096C536.778 130.096 535.377 130.093 533.772 130.096C525.61 130.113 517.447 130.096 509.194 130.096ZM521.666 122.09C525.7 122.085 529.737 122.167 533.768 122.052C538.062 121.929 541.631 120.287 544.208 117C545.822 114.94 546.691 112.642 546.732 110.031C546.765 107.89 546.656 105.81 545.662 103.853C543.159 98.9295 538.873 96.5996 533.164 96.5266C527.584 96.4552 522.002 96.5103 516.42 96.5123C516.155 96.5124 513.78 96.5364 513.497 96.5501C513.497 105.079 513.497 113.555 513.497 122.09C515.5 122.09 519.547 122.09 521.666 122.09ZM540.248 70.4129C537.737 66.5417 533.898 65.0024 529.238 64.9689C524.961 64.9381 520.683 64.9615 516.405 64.9643C516.142 64.9645 513.775 64.9442 513.497 64.9606C513.497 72.5917 513.497 80.214 513.497 87.8213C513.758 87.8389 516.068 87.8648 516.275 87.8649C520.735 87.8668 525.194 87.8699 529.653 87.861C530.289 87.8598 530.934 87.8519 531.559 87.7566C540.217 86.4365 544.65 77.7004 540.248 70.4129Z" fill="#F11FB9"/>
<path d="M608.771 120.56C607.212 122.303 605.808 124.215 604.064 125.755C600.33 129.051 595.852 130.833 590.844 131.241C582.196 131.946 574.838 129.269 568.97 122.932C565.336 119.007 563.218 114.309 562.456 109.083C562.104 106.664 561.874 104.157 562.113 101.74C563.01 92.676 566.954 85.2931 575.087 80.478C578.525 78.4429 582.282 77.4122 586.31 77.0975C591.734 76.6739 596.725 77.7782 601.331 80.5832C604.332 82.4106 606.734 84.8517 608.706 87.8272C608.797 87.9273 608.834 87.9589 608.871 87.9906C608.878 87.9195 608.885 87.8485 608.891 87.7775C608.891 84.6296 608.891 81.6173 608.891 78.4263C611.886 78.4263 614.785 78.4263 617.745 78.4263C617.745 95.6677 617.745 112.804 617.745 130.093C614.835 130.093 611.938 130.093 608.906 130.093C608.906 126.986 608.906 123.841 608.906 120.617C608.861 120.525 608.816 120.542 608.771 120.56ZM594.177 85.8477C592.11 85.4672 590.038 85.3129 587.933 85.5383C583.339 86.0301 579.357 87.7962 576.226 91.1504C572.042 95.6322 570.493 100.993 571.335 106.981C572.039 111.991 574.348 116.177 578.52 119.234C582.802 122.371 587.646 123.471 592.902 122.743C597.32 122.131 601.094 120.227 604.088 116.938C608.391 112.211 609.527 106.564 608.53 100.511C607.301 93.0437 601.712 87.4591 594.177 85.8477Z" fill="#F11FB9"/>
<path d="M644.517 85.9468C640.011 87.2847 636.771 89.9936 634.988 94.3486C634.069 96.5937 633.778 98.9547 633.782 101.374C633.799 110.612 633.789 119.85 633.789 129.088C633.789 129.404 633.789 129.72 633.789 130.096C630.877 130.096 628.015 130.096 625.105 130.096C625.105 112.792 625.105 95.499 625.105 78.1414C627.956 78.1414 630.819 78.1414 633.751 78.1414C633.751 80.7858 633.751 83.4372 633.751 86.2862C634.528 85.3337 635.152 84.5034 635.842 83.7339C639.184 80.0096 643.397 77.9062 648.276 77.1455C649.834 76.9025 651.434 76.7924 653.01 76.8274C657.615 76.9297 661.929 78.0353 665.682 80.8846C669.692 83.929 672.043 88.0088 672.966 92.923C673.278 94.5859 673.441 96.3017 673.448 97.9943C673.491 108.456 673.47 118.919 673.47 129.381C673.47 129.614 673.47 129.827 673.47 130.096C670.546 130.096 667.702 130.096 664.742 130.096C664.742 129.786 664.742 129.5 664.742 129.193C664.741 119.875 664.768 110.558 664.726 101.24C664.713 98.2538 664.353 95.3091 662.865 92.6229C660.578 88.4938 657.093 86.1802 652.454 85.5748C649.807 85.2293 647.181 85.2788 644.517 85.9468Z" fill="#F11FB9"/>
<path d="M689.631 92.9143C689.631 95.3185 689.631 97.6434 689.631 100.183C690.098 99.7609 690.444 99.4587 690.778 99.1446C697.98 92.379 705.183 85.615 712.373 78.8377C712.769 78.4647 713.153 78.4089 713.709 78.4128C717.163 78.4369 720.617 78.4128 724.282 78.4128C715.446 87.0656 706.732 95.4918 697.953 104.089C706.94 112.723 715.892 121.347 725 130.096C723.999 130.096 723.209 130.096 722.419 130.096C719.713 130.096 717.113 130.096 714.301 130.096C713.878 130.09 713.361 129.839 713.055 129.553C705.448 122.44 697.864 115.303 690.275 108.172C690.109 108.016 689.932 107.871 689.655 107.628C689.655 115.157 689.655 122.639 689.655 130.096C686.689 130.096 683.789 130.096 680.836 130.096C680.836 105.747 680.836 81.3406 680.836 56.9453C683.743 56.9453 686.627 56.9453 689.631 56.9453C689.631 68.92 689.631 80.8602 689.631 92.9143Z" fill="#F11FB9"/>
<path d="M603.333 84.5526C603.364 84.62 603.358 84.6934 603.351 84.7668C603.315 84.7341 603.278 84.7014 603.233 84.6298C603.225 84.5908 603.295 84.5585 603.333 84.5526Z" fill="#F11FB9"/>
<path d="M603.281 118.429C603.297 118.4 603.341 118.381 603.377 118.402C603.369 118.442 603.31 118.439 603.281 118.429Z" fill="#F11FB9"/>
<path d="M417.566 93.0124C417.566 71.6211 399.52 54.8553 376.458 54.8553C353.517 54.8553 335.548 71.6211 335.548 93.0124C335.548 114.386 353.517 131.142 376.458 131.142C399.52 131.14 417.566 114.386 417.566 93.0124ZM407.665 93.0124C407.665 101.057 404.511 108.511 398.763 113.989C392.976 119.485 385.153 122.467 376.671 122.467C359.174 122.467 345.464 109.536 345.464 93.0124C345.464 76.4774 359.174 63.5191 376.671 63.5191C385.155 63.5191 392.976 66.5492 398.763 72.0267C404.511 77.503 407.665 84.9489 407.665 93.0124Z" fill="#F11FB9"/>
<path d="M293.65 66.1531V121.962H328.71V130.096H284.087V56.9453H327.879V66.1531H293.65Z" fill="#F11FB9"/>
<path d="M476.343 130.096L475.704 129.217L434.307 74.1872V128.012V130.096H432.155H427.109H424.928V128.012V59.0202V56.9453H427.109H431.391H432.508L433.151 57.7982L474.437 112.873V59.0202V56.9453H476.629H481.664H483.813V59.0202V128.012V130.096H481.664H477.47H476.343Z" fill="#F11FB9"/>
<path d="M222.35 130.096H227.936H228.984H229.597L282.097 60.2901L284.614 56.9453H280.412H274.834H273.811L273.179 57.7588L220.714 126.552L218.167 130.096H222.35Z" fill="#F11FB9"/>
<path d="M347.601 83.2459C347.69 82.4922 349.133 82.6102 349.133 82.6102C368.384 84.3353 374.454 89.2655 374.454 93.0411C374.454 99.6047 351.134 105.016 322.448 105.016C293.663 105.016 270.354 99.6047 270.354 93.0411C270.354 86.1142 290.13 80.9847 326.931 80.9847C326.931 80.9847 328.71 80.8759 328.749 81.7923C328.749 82.5735 326.87 82.4911 326.87 82.4911C300.896 82.4911 278.224 86.2402 278.224 90.5714C278.224 94.9208 297.991 98.4707 322.448 98.4707C346.778 98.4707 365.683 94.8303 366.594 90.5714C366.932 88.9379 363.984 85.388 349.305 84.1165C349.305 84.1177 347.502 84.0455 347.601 83.2459Z" fill="#F11FB9"/>
<path d="M98.2159 148.102C91.8479 148.101 85.8777 148.062 79.9083 148.113C76.606 148.142 75.0278 146.691 75.0465 143.389C75.1014 133.723 74.8549 124.05 75.1419 114.391C75.636 97.7605 89.8943 84.1583 106.944 83.8276C113.707 83.6964 120.476 83.8455 127.241 83.7778C138.167 83.6684 145.334 76.0493 144.743 65.375C144.287 57.1307 141.316 49.8865 135.808 43.2088C141.208 38.0821 147.713 35.4465 154.995 35.2008C165.065 34.8609 175.156 35.0912 185.238 35.0603C188.346 35.0508 189.89 36.4924 189.877 39.5958C189.837 49.5233 190.144 59.4631 189.743 69.3756C189.085 85.6286 174.886 98.9542 158.183 99.3389C151.288 99.4977 144.386 99.3247 137.488 99.4037C126.662 99.5278 119.498 107.318 120.171 117.985C120.691 126.222 123.702 133.445 129.164 140.013C123.505 145.154 116.857 147.651 109.358 148.042C105.785 148.228 102.196 148.092 98.2159 148.102Z" fill="#F11FB9"/>
<path d="M133.486 47.4905C137.703 52.9636 139.945 58.8975 140.326 65.456C140.808 73.7457 135.689 79.1903 127.27 79.3609C121.963 79.4684 116.647 79.5267 111.343 79.3584C101.008 79.0305 91.6119 81.4394 83.3367 88.3462C78.1995 83.0351 75.4818 76.7365 75.225 69.6784C74.8594 59.627 75.095 49.5546 75.0637 39.4912C75.0539 36.3498 76.7284 35.0406 79.8022 35.0543C89.7569 35.0986 99.7225 34.8275 109.664 35.1991C119.322 35.5601 127.182 39.9088 133.486 47.4905Z" fill="#F11FB9"/>
<path d="M124.633 114.758C126.634 106.998 130.576 103.883 138.22 103.797C142.995 103.743 147.778 103.604 152.545 103.788C163.246 104.2 173.103 102.055 181.616 94.8054C186.83 100.354 189.542 106.774 189.758 114.01C190.049 123.799 189.829 133.601 189.887 143.397C189.906 146.692 188.337 148.145 185.029 148.126C175.213 148.072 165.389 148.331 155.582 148.021C138.051 147.466 124.567 132.966 124.633 114.758Z" fill="#F11FB9"/>
</svg>
