<svg width="800" height="180" viewBox="0 0 800 180" fill="none" xmlns="http://www.w3.org/2000/svg">
<rect width="800" height="180" rx="15" fill="#F11FB9"/>
<path d="M509.194 130.096C507.833 130.096 506.564 130.096 505.232 130.096C505.232 105.013 505.232 82.024 505.232 56.9452C505.516 56.9315 505.78 56.9453 506.045 56.9452C514.784 56.9434 523.634 56.9453 532.261 56.9454C537.653 56.9736 542.505 57.4585 546.55 60.918C549.95 63.8248 551.991 67.4461 552.654 71.6842C553.495 77.0539 552.265 82.0026 548.779 86.3953C547.314 88.2416 545.529 89.7635 543.384 90.9019C543.212 90.9933 543.056 91.1108 542.937 91.1871C544.503 91.8455 546.116 92.3635 547.555 93.1573C553.008 96.1647 556.178 100.741 557.326 106.492C558.723 113.493 557.152 119.825 551.763 125.05C548.177 128.526 543.703 129.576 538.585 130.096C536.778 130.096 535.377 130.093 533.772 130.096C525.61 130.113 517.447 130.096 509.194 130.096ZM521.666 122.09C525.7 122.085 529.737 122.167 533.768 122.052C538.062 121.929 541.631 120.287 544.208 117C545.822 114.94 546.691 112.642 546.732 110.031C546.765 107.89 546.656 105.81 545.662 103.853C543.159 98.9294 538.873 96.5995 533.164 96.5265C527.584 96.4551 522.002 96.5102 516.42 96.5123C516.155 96.5124 513.78 96.5363 513.497 96.55C513.497 105.079 513.497 113.555 513.497 122.09C515.5 122.09 519.547 122.09 521.666 122.09ZM540.248 70.4129C537.737 66.5417 533.898 65.0024 529.238 64.9688C524.961 64.938 520.683 64.9614 516.405 64.9642C516.142 64.9644 513.775 64.9441 513.497 64.9605C513.497 72.5917 513.497 80.214 513.497 87.8212C513.758 87.8388 516.068 87.8647 516.275 87.8648C520.735 87.8668 525.194 87.8698 529.653 87.861C530.289 87.8597 530.934 87.8519 531.559 87.7566C540.217 86.4364 544.65 77.7003 540.248 70.4129Z" fill="white"/>
<path d="M608.771 120.56C607.212 122.303 605.808 124.215 604.064 125.754C600.33 129.051 595.852 130.832 590.844 131.241C582.196 131.946 574.838 129.269 568.97 122.932C565.336 119.007 563.218 114.309 562.456 109.083C562.104 106.664 561.874 104.156 562.113 101.74C563.01 92.6759 566.954 85.293 575.087 80.4779C578.525 78.4428 582.282 77.412 586.31 77.0974C591.734 76.6738 596.725 77.7781 601.331 80.583C604.332 82.4105 606.734 84.8516 608.706 87.8271C608.797 87.9272 608.834 87.9588 608.871 87.9905C608.878 87.9194 608.885 87.8484 608.891 87.7774C608.891 84.6295 608.891 81.6172 608.891 78.4262C611.886 78.4262 614.785 78.4262 617.745 78.4262C617.745 95.6675 617.745 112.804 617.745 130.093C614.835 130.093 611.938 130.093 608.906 130.093C608.906 126.986 608.906 123.841 608.906 120.617C608.861 120.525 608.816 120.542 608.771 120.56ZM594.177 85.8476C592.11 85.467 590.038 85.3128 587.933 85.5382C583.339 86.03 579.357 87.796 576.226 91.1503C572.042 95.6321 570.493 100.993 571.335 106.981C572.039 111.991 574.348 116.177 578.52 119.234C582.802 122.371 587.646 123.471 592.902 122.743C597.32 122.13 601.094 120.227 604.088 116.938C608.391 112.211 609.527 106.564 608.53 100.511C607.301 93.0436 601.712 87.459 594.177 85.8476Z" fill="white"/>
<path d="M644.517 85.9467C640.011 87.2846 636.771 89.9936 634.988 94.3486C634.069 96.5937 633.778 98.9547 633.782 101.374C633.799 110.612 633.789 119.85 633.789 129.088C633.789 129.404 633.789 129.72 633.789 130.096C630.877 130.096 628.015 130.096 625.105 130.096C625.105 112.792 625.105 95.499 625.105 78.1413C627.956 78.1413 630.819 78.1413 633.751 78.1413C633.751 80.7858 633.751 83.4371 633.751 86.2861C634.528 85.3336 635.152 84.5033 635.842 83.7338C639.184 80.0096 643.397 77.9062 648.276 77.1454C649.834 76.9024 651.434 76.7923 653.01 76.8273C657.615 76.9296 661.929 78.0353 665.682 80.8845C669.692 83.9289 672.043 88.0088 672.966 92.923C673.278 94.5859 673.441 96.3017 673.448 97.9942C673.491 108.456 673.47 118.919 673.47 129.381C673.47 129.614 673.47 129.827 673.47 130.096C670.546 130.096 667.702 130.096 664.742 130.096C664.742 129.786 664.742 129.5 664.742 129.193C664.741 119.875 664.768 110.557 664.726 101.24C664.713 98.2537 664.353 95.309 662.865 92.6228C660.578 88.4937 657.093 86.1801 652.454 85.5747C649.807 85.2292 647.181 85.2788 644.517 85.9467Z" fill="white"/>
<path d="M689.631 92.9142C689.631 95.3185 689.631 97.6433 689.631 100.183C690.098 99.7609 690.444 99.4587 690.778 99.1445C697.98 92.3789 705.183 85.6149 712.373 78.8376C712.769 78.4647 713.153 78.4088 713.709 78.4127C717.163 78.4369 720.617 78.4127 724.282 78.4127C715.446 87.0656 706.732 95.4917 697.953 104.089C706.94 112.723 715.892 121.347 725 130.096C723.999 130.096 723.209 130.096 722.419 130.096C719.713 130.096 717.113 130.096 714.301 130.096C713.878 130.089 713.361 129.839 713.055 129.552C705.448 122.44 697.864 115.303 690.275 108.172C690.109 108.016 689.932 107.871 689.655 107.628C689.655 115.157 689.655 122.639 689.655 130.096C686.689 130.096 683.789 130.096 680.836 130.096C680.836 105.747 680.836 81.3405 680.836 56.9453C683.743 56.9453 686.627 56.9453 689.631 56.9453C689.631 68.9199 689.631 80.8602 689.631 92.9142Z" fill="white"/>
<path d="M603.333 84.5525C603.364 84.62 603.358 84.6934 603.351 84.7667C603.315 84.7341 603.278 84.7014 603.233 84.6297C603.225 84.5907 603.295 84.5584 603.333 84.5525Z" fill="white"/>
<path d="M603.281 118.429C603.297 118.4 603.341 118.381 603.377 118.402C603.369 118.441 603.31 118.439 603.281 118.429Z" fill="white"/>
<path d="M417.566 93.0123C417.566 71.621 399.52 54.8552 376.458 54.8552C353.517 54.8552 335.548 71.621 335.548 93.0123C335.548 114.386 353.517 131.141 376.458 131.141C399.52 131.14 417.566 114.386 417.566 93.0123ZM407.665 93.0123C407.665 101.057 404.511 108.511 398.763 113.989C392.976 119.485 385.153 122.467 376.671 122.467C359.174 122.467 345.464 109.536 345.464 93.0123C345.464 76.4773 359.174 63.519 376.671 63.519C385.155 63.519 392.976 66.5491 398.763 72.0266C404.511 77.5029 407.665 84.9487 407.665 93.0123Z" fill="white"/>
<path d="M293.65 66.153V121.962H328.71V130.096H284.087V56.9453H327.879V66.153H293.65Z" fill="white"/>
<path d="M476.343 130.096L475.704 129.217L434.307 74.1871V128.012V130.096H432.155H427.109H424.928V128.012V59.0202V56.9453H427.109H431.391H432.508L433.151 57.7981L474.437 112.873V59.0202V56.9453H476.629H481.664H483.813V59.0202V128.012V130.096H481.664H477.47H476.343Z" fill="white"/>
<path d="M222.35 130.096H227.936H228.984H229.597L282.097 60.29L284.614 56.9453H280.412H274.834H273.811L273.179 57.7587L220.714 126.552L218.167 130.096H222.35Z" fill="white"/>
<path d="M347.601 83.2459C347.69 82.4921 349.133 82.6101 349.133 82.6101C368.384 84.3352 374.454 89.2654 374.454 93.041C374.454 99.6047 351.134 105.016 322.448 105.016C293.663 105.016 270.354 99.6047 270.354 93.041C270.354 86.1142 290.13 80.9847 326.931 80.9847C326.931 80.9847 328.71 80.8758 328.749 81.7922C328.749 82.5734 326.87 82.491 326.87 82.491C300.896 82.491 278.224 86.2402 278.224 90.5713C278.224 94.9207 297.991 98.4706 322.448 98.4706C346.778 98.4706 365.683 94.8303 366.594 90.5713C366.932 88.9378 363.984 85.388 349.305 84.1165C349.305 84.1176 347.502 84.0454 347.601 83.2459Z" fill="white"/>
<path d="M98.2159 148.102C91.8479 148.101 85.8777 148.062 79.9083 148.114C76.606 148.142 75.0278 146.691 75.0465 143.389C75.1014 133.723 74.8549 124.05 75.1419 114.392C75.636 97.7606 89.8943 84.1584 106.944 83.8276C113.707 83.6964 120.476 83.8456 127.241 83.7778C138.167 83.6684 145.334 76.0493 144.743 65.3751C144.287 57.1307 141.316 49.8866 135.808 43.2088C141.208 38.0822 147.713 35.4466 154.995 35.2008C165.065 34.8609 175.156 35.0912 185.238 35.0603C188.346 35.0508 189.89 36.4924 189.877 39.5959C189.837 49.5233 190.144 59.4632 189.743 69.3757C189.085 85.6287 174.886 98.9542 158.183 99.3389C151.288 99.4977 144.386 99.3247 137.488 99.4038C126.662 99.5279 119.498 107.318 120.171 117.985C120.691 126.222 123.702 133.445 129.164 140.013C123.505 145.154 116.857 147.651 109.358 148.042C105.785 148.228 102.196 148.092 98.2159 148.102Z" fill="white"/>
<path d="M133.486 47.4905C137.703 52.9636 139.945 58.8975 140.326 65.456C140.808 73.7457 135.689 79.1903 127.27 79.3609C121.963 79.4684 116.647 79.5267 111.343 79.3584C101.008 79.0305 91.6119 81.4394 83.3367 88.3462C78.1995 83.0351 75.4818 76.7365 75.225 69.6784C74.8594 59.627 75.095 49.5546 75.0637 39.4912C75.0539 36.3498 76.7284 35.0406 79.8022 35.0543C89.7569 35.0986 99.7225 34.8275 109.664 35.1991C119.322 35.5601 127.182 39.9088 133.486 47.4905Z" fill="white"/>
<path d="M124.633 114.758C126.634 106.998 130.576 103.883 138.22 103.797C142.995 103.743 147.778 103.604 152.545 103.788C163.246 104.2 173.103 102.055 181.616 94.8054C186.83 100.354 189.542 106.774 189.758 114.01C190.049 123.799 189.829 133.601 189.887 143.397C189.906 146.692 188.337 148.145 185.029 148.126C175.213 148.072 165.389 148.331 155.582 148.021C138.051 147.466 124.567 132.966 124.633 114.758Z" fill="white"/>
</svg>
