<svg width="622" height="109" viewBox="0 0 622 109" fill="none" xmlns="http://www.w3.org/2000/svg">
<path d="M415.49 91C414.188 91 412.973 91 411.699 91C411.699 66.9969 411.699 44.9984 411.699 21C411.97 20.9868 412.223 21 412.477 21C420.839 20.9982 429.308 21 437.563 21.0002C442.723 21.0271 447.366 21.4912 451.237 24.8016C454.49 27.5832 456.443 31.0485 457.078 35.1041C457.883 40.2424 456.706 44.9779 453.37 49.1814C451.968 50.9482 450.26 52.4045 448.208 53.4939C448.043 53.5813 447.893 53.6938 447.78 53.7668C449.278 54.3968 450.822 54.8925 452.199 55.6522C457.417 58.53 460.45 62.9094 461.548 68.4121C462.885 75.1122 461.383 81.1708 456.225 86.1708C452.794 89.4974 448.513 90.5018 443.615 91C441.886 91 440.545 90.9969 439.009 91C431.199 91.0158 423.388 91 415.49 91ZM427.425 83.3387C431.285 83.3339 435.148 83.4118 439.005 83.3017C443.115 83.1845 446.53 81.6131 448.996 78.4673C450.54 76.4966 451.372 74.2972 451.411 71.7988C451.443 69.7505 451.339 67.7596 450.387 65.8868C447.992 61.1756 443.891 58.9461 438.428 58.8762C433.088 58.8079 427.746 58.8606 422.405 58.8626C422.152 58.8627 419.878 58.8856 419.608 58.8987C419.608 67.0599 419.608 75.1708 419.608 83.3387C421.524 83.3387 425.397 83.3387 427.425 83.3387ZM445.207 33.8875C442.803 30.183 439.13 28.71 434.67 28.6779C430.577 28.6485 426.484 28.6708 422.391 28.6735C422.139 28.6737 419.874 28.6543 419.608 28.67C419.608 35.9724 419.608 43.2664 419.608 50.5459C419.858 50.5627 422.068 50.5876 422.266 50.5876C426.534 50.5895 430.801 50.5924 435.068 50.5839C435.677 50.5827 436.294 50.5752 436.892 50.484C445.177 49.2208 449.419 40.861 445.207 33.8875Z" fill="#F11FB9"/>
<path d="M510.777 81.8741C509.286 83.5422 507.942 85.3718 506.273 86.8451C502.7 89.9995 498.415 91.7044 493.623 92.095C485.347 92.7696 478.306 90.208 472.691 84.144C469.213 80.3886 467.186 75.8924 466.458 70.8914C466.121 68.5772 465.9 66.1775 466.129 63.8647C466.988 55.1915 470.762 48.1266 478.545 43.5189C481.834 41.5715 485.43 40.5851 489.284 40.2841C494.474 39.8787 499.251 40.9354 503.658 43.6195C506.53 45.3683 508.828 47.7042 510.716 50.5515C510.802 50.6473 510.838 50.6776 510.874 50.7079C510.88 50.6399 510.886 50.5719 510.893 50.5039C510.893 47.4917 510.893 44.6092 510.893 41.5556C513.758 41.5556 516.533 41.5556 519.365 41.5556C519.365 58.0543 519.365 74.4522 519.365 90.9963C516.58 90.9963 513.808 90.9963 510.906 90.9963C510.906 88.0234 510.906 85.0142 510.906 81.9291C510.863 81.8406 510.82 81.8573 510.777 81.8741ZM496.812 48.6573C494.834 48.2932 492.851 48.1456 490.837 48.3612C486.441 48.8319 482.63 50.5218 479.634 53.7316C475.63 58.0203 474.148 63.1505 474.954 68.8802C475.628 73.6748 477.837 77.6801 481.829 80.6051C485.927 83.6077 490.563 84.6603 495.592 83.9632C499.819 83.3773 503.431 81.5554 506.296 78.4086C510.414 73.8848 511.501 68.4811 510.547 62.6893C509.37 55.5433 504.022 50.1993 496.812 48.6573Z" fill="#F11FB9"/>
<path d="M544.985 48.7521C540.673 50.0324 537.572 52.6247 535.866 56.7921C534.987 58.9405 534.708 61.1998 534.712 63.5152C534.728 72.355 534.718 81.1948 534.718 90.0346C534.718 90.3373 534.718 90.64 534.718 90.9999C531.932 90.9999 529.193 90.9999 526.409 90.9999C526.409 74.4412 526.409 57.8929 526.409 41.283C529.136 41.283 531.877 41.283 534.682 41.283C534.682 43.8135 534.682 46.3507 534.682 49.0769C535.426 48.1655 536.023 47.3709 536.683 46.6346C539.881 43.0707 543.913 41.058 548.581 40.33C550.073 40.0975 551.603 39.9921 553.112 40.0256C557.518 40.1235 561.647 41.1815 565.238 43.908C569.075 46.8213 571.325 50.7254 572.208 55.4279C572.507 57.0192 572.663 58.6611 572.67 60.2807C572.711 70.2922 572.691 80.3039 572.691 90.3155C572.691 90.5388 572.691 90.7425 572.691 91C569.892 91 567.171 91 564.338 91C564.338 90.7031 564.338 90.429 564.338 90.1353C564.338 81.2191 564.363 72.3028 564.323 63.3867C564.31 60.529 563.966 57.7111 562.542 55.1407C560.354 51.1894 557.019 48.9755 552.58 48.3962C550.046 48.0656 547.533 48.113 544.985 48.7521Z" fill="#F11FB9"/>
<path d="M588.154 55.4195C588.154 57.7202 588.154 59.9449 588.154 62.3753C588.601 61.9713 588.932 61.6821 589.252 61.3815C596.144 54.9073 603.036 48.4347 609.917 41.9493C610.296 41.5924 610.663 41.539 611.196 41.5427C614.501 41.5658 617.806 41.5427 621.313 41.5427C612.858 49.8228 604.519 57.886 596.118 66.1131C604.718 74.3751 613.285 82.6276 622 91C621.042 91 620.286 91 619.53 91C616.94 91 614.453 91 611.762 91C611.357 90.9934 610.863 90.7539 610.569 90.4795C603.29 83.6731 596.033 76.8442 588.771 70.0201C588.612 69.8706 588.443 69.7317 588.177 69.4996C588.177 76.7045 588.177 83.8637 588.177 91C585.339 91 582.564 91 579.738 91C579.738 67.6994 579.738 44.3444 579.738 21C582.52 21 585.279 21 588.154 21C588.154 32.4588 588.154 43.8847 588.154 55.4195Z" fill="#F11FB9"/>
<path d="M505.575 47.418C505.605 47.4825 505.599 47.5528 505.593 47.623C505.558 47.5917 505.523 47.5604 505.48 47.4919C505.472 47.4546 505.539 47.4236 505.575 47.418Z" fill="#F11FB9"/>
<path d="M505.525 79.835C505.54 79.8072 505.583 79.7893 505.617 79.8093C505.61 79.8471 505.553 79.8449 505.525 79.835Z" fill="#F11FB9"/>
<path d="M327.81 55.5134C327.81 35.0435 310.54 19 288.472 19C266.519 19 249.324 35.0435 249.324 55.5134C249.324 75.9665 266.519 92 288.472 92C310.54 91.9989 327.81 75.9665 327.81 55.5134ZM318.335 55.5134C318.335 63.2117 315.316 70.3447 309.816 75.5862C304.279 80.8456 296.793 83.6994 288.676 83.6994C271.933 83.6994 258.813 71.3249 258.813 55.5134C258.813 39.6907 271.933 27.2905 288.676 27.2905C296.794 27.2905 304.279 30.1901 309.816 35.4316C315.316 40.6721 318.335 47.7972 318.335 55.5134Z" fill="#F11FB9"/>
<path d="M209.232 29.8111V83.2156H242.781V91H200.08V21H241.986V29.8111H209.232Z" fill="#F11FB9"/>
<path d="M384.054 91L383.443 90.1582L343.829 37.4991V89.0055V91H341.769H336.941H334.854V89.0055V22.9855V21H336.941H341.038H342.107L342.723 21.8161L382.23 74.5188V22.9855V21H384.327H389.146H391.202V22.9855V89.0055V91H389.146H385.132H384.054Z" fill="#F11FB9"/>
<path d="M141.003 91H146.348H147.351H147.938L198.176 24.2007L200.585 21H196.564H191.226H190.247L189.642 21.7784L139.437 87.6087L137 91H141.003Z" fill="#F11FB9"/>
<path d="M260.858 46.1676C260.944 45.4464 262.324 45.5593 262.324 45.5593C280.746 47.2101 286.555 51.9279 286.555 55.5408C286.555 61.8218 264.239 67 236.789 67C209.244 67 186.938 61.8218 186.938 55.5408C186.938 48.9124 205.863 44.0038 241.079 44.0038C241.079 44.0038 242.781 43.8997 242.818 44.7766C242.818 45.5242 241.021 45.4453 241.021 45.4453C216.165 45.4453 194.47 49.033 194.47 53.1775C194.47 57.3396 213.385 60.7366 236.789 60.7366C260.071 60.7366 278.162 57.253 279.033 53.1775C279.357 51.6144 276.536 48.2175 262.489 47.0007C262.489 47.0018 260.764 46.9328 260.858 46.1676Z" fill="#F11FB9"/>
<path d="M22.2158 108.23C16.1222 108.229 10.4091 108.191 4.69687 108.241C1.53683 108.268 0.0265669 106.88 0.0445024 103.72C0.0970164 94.4705 -0.138831 85.214 0.135752 75.9716C0.608558 60.057 14.2527 47.0408 30.5681 46.7243C37.0401 46.5987 43.517 46.7415 49.9907 46.6766C60.4456 46.5719 67.3042 39.281 66.7391 29.0666C66.3027 21.1774 63.4596 14.2453 58.1888 7.8552C63.3557 2.94942 69.5808 0.427313 76.5487 0.192157C86.1857 -0.133078 95.8416 0.0872861 105.489 0.0577396C108.463 0.0486327 109.94 1.42814 109.928 4.39791C109.89 13.8977 110.184 23.4094 109.8 32.8949C109.17 48.4478 95.5832 61.1993 79.5994 61.5674C73.0015 61.7194 66.3967 61.5538 59.7961 61.6295C49.4362 61.7482 42.5808 69.2025 43.2252 79.4104C43.7228 87.2921 46.604 94.2044 51.831 100.49C46.4154 105.409 40.0535 107.799 32.8778 108.173C29.4593 108.351 26.0243 108.221 22.2158 108.23Z" fill="#F11FB9"/>
<path d="M55.9659 11.9524C60.002 17.1898 62.1471 22.8681 62.5118 29.144C62.9729 37.0767 58.0741 42.2867 50.0181 42.4499C44.9395 42.5529 39.8526 42.6086 34.7773 42.4476C24.8877 42.1338 15.8961 44.4389 7.97732 51.0482C3.06147 45.9659 0.460804 39.9386 0.215128 33.1845C-0.134733 23.5661 0.090679 13.9276 0.0607218 4.29773C0.051368 1.29168 1.65375 0.0388429 4.59508 0.0519403C14.121 0.0943561 23.6573 -0.165088 33.1704 0.19049C42.4125 0.535941 49.9341 4.69731 55.9659 11.9524Z" fill="#F11FB9"/>
<path d="M47.4953 76.3227C49.4101 68.8968 53.1819 65.9159 60.4972 65.8334C65.0666 65.7818 69.6429 65.6491 74.2054 65.8249C84.4453 66.2193 93.877 64.1662 102.024 57.2291C107.013 62.5387 109.609 68.6826 109.814 75.6066C110.093 84.9734 109.883 94.3536 109.938 103.728C109.956 106.88 108.455 108.271 105.29 108.253C95.8966 108.201 86.4954 108.449 77.1112 108.152C60.3355 107.622 47.432 93.7462 47.4953 76.3227Z" fill="#F11FB9"/>
</svg>
