<svg width="180" height="180" viewBox="0 0 180 180" fill="none" xmlns="http://www.w3.org/2000/svg">
<rect width="180" height="180" rx="30" fill="#00A0E9"/>
<path d="M151.246 0H28.7539C12.8573 0 0 12.8575 0 28.7542V151.014C0 167.143 12.8573 180 28.7539 180H151.012C167.143 180 180 167.143 180 151.248V149.377C180 149.377 133.481 129.973 109.869 118.52C93.9747 137.688 73.6363 149.611 52.5976 149.611C16.8309 149.611 4.67598 118.286 21.5069 97.7153C25.2485 93.2734 31.559 88.8315 41.1429 86.4946C56.3371 82.7529 80.6491 88.8315 103.324 96.3128C107.298 88.8315 110.806 80.416 113.377 71.5322H43.2479V64.5192H79.4807V51.6618H36.0009V44.6488H79.7148V26.4151C79.7148 26.4151 79.7148 23.3758 82.7541 23.3758H100.519V44.6488H143.765V51.6618H100.519V64.5192H135.818C132.544 78.311 127.402 91.1685 120.858 102.389C131.61 106.361 141.194 109.87 148.441 112.441C174.156 121.091 180 121.559 180 121.559V28.7542C180 12.8575 167.143 0 151.246 0Z" fill="white"/>
<path d="M27.5849 102.389C13.5592 114.078 21.9746 135.583 50.2602 135.583C66.6229 135.583 82.9877 125.533 95.845 109.402C77.6093 100.752 61.9491 94.6737 45.3501 96.3104C40.6763 96.5446 32.2609 98.4176 27.5849 102.389Z" fill="white"/>
</svg>
