<svg width="180" height="180" viewBox="0 0 180 180" fill="none" xmlns="http://www.w3.org/2000/svg">
<circle cx="90" cy="90" r="90" fill="#00A0E9"/>
<rect x="20" y="20" width="140" height="140" rx="24" fill="white"/>
<path d="M137.636 20H42.3641C30.0001 20 20 30.0002 20 42.3644V137.455C20 150 30.0001 160 42.3641 160H137.454C150 160 160 150 160 137.637V136.182C160 136.182 123.818 121.09 105.454 112.182C93.0914 127.091 77.2727 136.364 60.9093 136.364C33.0907 136.364 23.6369 112 36.7276 96.0008C39.6378 92.546 44.5459 89.0912 52 87.2736C63.8178 84.3634 82.7271 89.0912 100.363 94.9099C103.454 89.0912 106.182 82.5458 108.182 75.6361H53.6372V70.1816H81.8183V60.1814H48.0007V54.7268H82.0004V40.5451C82.0004 40.5451 82.0004 38.1812 84.3643 38.1812H98.1817V54.7268H131.817V60.1814H98.1817V70.1816H125.636C123.09 80.9086 119.091 90.9088 114 99.636C122.363 102.725 129.818 105.455 135.454 107.454C155.454 114.182 160 114.546 160 114.546V42.3644C160 30.0002 150 20 137.636 20Z" fill="#00A0E9"/>
<path d="M41.4546 99.6361C30.5457 108.728 37.091 125.454 59.091 125.454C71.8175 125.454 84.5457 117.637 94.5458 105.091C80.3625 98.3631 68.1823 93.6353 55.272 94.9083C51.6368 95.0904 45.0915 96.5472 41.4546 99.6361Z" fill="#00A0E9"/>
</svg>
