<svg width="180" height="180" viewBox="0 0 180 180" fill="none" xmlns="http://www.w3.org/2000/svg">
<rect width="180" height="180" rx="15" fill="#0202E6"/>
<path fill-rule="evenodd" clip-rule="evenodd" d="M50.3658 77.7212C50.366 77.654 50.3663 77.5878 50.3665 77.5223C50.3663 77.5876 50.366 77.6542 50.3658 77.7212Z" fill="white"/>
<path fill-rule="evenodd" clip-rule="evenodd" d="M50.3658 77.7212C50.366 77.654 50.3663 77.5878 50.3665 77.5223C50.3663 77.5876 50.366 77.6542 50.3658 77.7212Z" fill="white"/>
<path fill-rule="evenodd" clip-rule="evenodd" d="M40 114.598H50.2848V96.2436H56.2184L66.5032 114.598H77.8165L67.2023 95.2723C71.4837 92.9438 74.3929 88.3897 74.393 83.1507V81.7734C74.393 74.1665 68.262 68 60.6991 68H40V114.598ZM50.3639 88.0217V78.4808C50.3639 78.2415 50.3647 78.0207 50.3654 77.8106C50.3655 77.7808 50.3656 77.7506 50.3658 77.7212C50.366 77.6547 50.3663 77.5871 50.3665 77.5223C50.367 77.3784 50.3673 77.2381 50.3673 77.0989C50.3673 77.0989 50.7924 77.0993 50.9909 77.0989C53.4417 77.0944 55.8925 77.0946 58.3433 77.0978C58.6329 77.0981 58.9248 77.1034 59.2114 77.1397C61.3178 77.4058 63.0471 78.2809 63.6956 80.4368C64.3553 82.6306 64.258 84.7816 62.5388 86.5517C61.5493 87.5705 60.2334 87.9661 58.875 88.0005C57.0296 88.0471 55.1829 88.0413 53.2966 88.0321C53.2944 88.032 53.2923 88.032 53.2901 88.032C53.2878 88.032 53.2854 88.032 53.2831 88.032C53.1618 88.0314 53.0404 88.0308 52.9188 88.0302C52.0767 88.0259 51.2261 88.0217 50.3639 88.0217Z" fill="white"/>
<path fill-rule="evenodd" clip-rule="evenodd" d="M40 114.598H50.2848V96.2436H56.2184L66.5032 114.598H77.8165L67.2023 95.2723C71.4837 92.9438 74.3929 88.3897 74.393 83.1507V81.7734C74.393 74.1665 68.262 68 60.6991 68H40V114.598ZM50.3658 77.7212L50.3665 77.5223C50.367 77.3784 50.3673 77.2381 50.3673 77.0989C50.3673 77.0989 50.7924 77.0993 50.9909 77.0989C53.4417 77.0944 55.8925 77.0946 58.3433 77.0978C58.6329 77.0981 58.9248 77.1034 59.2114 77.1397C61.3178 77.4058 63.0471 78.2809 63.6956 80.4368C64.3553 82.6306 64.258 84.7816 62.5388 86.5517C61.5493 87.5705 60.2334 87.9661 58.875 88.0005C57.0296 88.0471 55.1829 88.0413 53.2966 88.0321L53.2901 88.032L53.2831 88.032L52.9188 88.0302C52.0767 88.0259 51.2261 88.0217 50.3639 88.0217V78.4808C50.3639 78.2415 50.3647 78.0207 50.3654 77.8106L50.3658 77.7212Z" fill="white"/>
<path d="M116.424 88.0158L125.68 70.3735H130.981V79.3925H140V88.095H130.823V103.127C130.717 105.002 131.636 106.164 134.066 106.133H140V114.598H133.038H131.772C123.625 114.05 121.41 109.795 121.092 103.285V88.0158H116.424Z" fill="white"/>
<path d="M79.4773 117.842H68.3223L79.7938 138.411H86.202L117.056 79.5508H106.93L83.2748 124.646L79.4773 117.842Z" fill="white"/>
<path d="M88.1804 79.5508H77.5L89.1298 106.054L94.826 95.1362L88.1804 79.5508Z" fill="white"/>
</svg>
