<svg width="800" height="150" viewBox="0 0 800 150" fill="none" xmlns="http://www.w3.org/2000/svg">
<rect width="800" height="150" rx="15" fill="#0202E6"/>
<path d="M373.961 41.0996C383.337 41.0078 392.68 41.0148 402.127 41C405.628 41.3011 408.953 41.9106 412.041 43.4629C418.625 46.7723 421.831 52.6212 421.146 59.942C420.732 64.365 419.14 68.1979 415.65 71.0492C414.484 72.0017 413.087 72.6723 412.05 73.3145C413.538 74.1629 415.434 74.896 416.895 76.1401C421.702 80.2347 423.3 85.688 422.492 91.7661C421.453 99.5947 416.48 104.103 409.176 106.178C406.765 106.862 404.18 107.187 401.669 107.221C392.706 107.343 383.741 107.27 374.777 107.267C374.523 107.267 374.269 107.226 373.94 107.199C373.92 106.835 373.886 106.509 373.885 106.184C373.883 84.7447 373.883 63.3059 373.885 41.8672C373.885 41.6443 373.913 41.4214 373.961 41.0996ZM407.085 91.1844C407.195 90.8675 407.312 90.5525 407.416 90.2333C409.073 85.1351 405.827 79.8084 400.515 79.4041C396.549 79.1022 392.541 79.3446 388.496 79.3446C388.496 84.7143 388.496 90.0688 388.496 95.426C392.668 95.426 396.774 95.5557 400.868 95.3804C403.594 95.2637 405.755 93.8932 407.085 91.1844ZM395.392 68.3396C396.549 68.3325 397.709 68.378 398.862 68.3089C403.011 68.0603 405.945 65.2387 406.224 61.2765C406.53 56.9368 404.091 53.6754 399.895 52.8463C399.277 52.7242 398.638 52.657 398.008 52.6532C394.85 52.634 391.69 52.6444 388.499 52.6444C388.499 57.9257 388.499 63.0941 388.499 68.3396C390.771 68.3396 392.97 68.3396 395.392 68.3396Z" fill="white"/>
<path fill-rule="evenodd" clip-rule="evenodd" d="M226.689 54.9995C226.689 54.9043 226.689 54.8104 226.69 54.7177C226.689 54.8102 226.689 54.9045 226.689 54.9995Z" fill="white"/>
<path fill-rule="evenodd" clip-rule="evenodd" d="M226.689 54.9995C226.689 54.9043 226.689 54.8104 226.69 54.7177C226.689 54.8102 226.689 54.9045 226.689 54.9995Z" fill="white"/>
<path fill-rule="evenodd" clip-rule="evenodd" d="M212 107.256H226.574V81.2466H234.982L249.556 107.256H265.588L250.547 79.8703C256.614 76.5706 260.736 70.1172 260.736 62.6933V60.7416C260.736 49.9624 252.048 41.2241 241.331 41.2241H212V107.256ZM226.686 69.5957V56.0758C226.686 55.7368 226.687 55.4239 226.688 55.1262C226.688 55.084 226.689 55.0412 226.689 54.9995C226.689 54.9052 226.689 54.8095 226.69 54.7177C226.69 54.5137 226.691 54.315 226.691 54.1177C226.691 54.1177 227.293 54.1182 227.575 54.1177C231.047 54.1113 234.52 54.1116 237.993 54.116C238.404 54.1166 238.817 54.1241 239.223 54.1754C242.208 54.5526 244.659 55.7926 245.578 58.8476C246.513 61.9563 246.375 65.0044 243.938 67.5128C242.536 68.9564 240.672 69.517 238.747 69.5657C236.132 69.6318 233.515 69.6236 230.842 69.6104C230.839 69.6104 230.836 69.6104 230.833 69.6104C230.829 69.6104 230.826 69.6104 230.823 69.6103C230.651 69.6095 230.479 69.6086 230.306 69.6078C229.113 69.6018 227.908 69.5957 226.686 69.5957Z" fill="white"/>
<path fill-rule="evenodd" clip-rule="evenodd" d="M212 107.256H226.574V81.2466H234.982L249.556 107.256H265.588L250.547 79.8703C256.614 76.5706 260.736 70.1172 260.736 62.6933V60.7416C260.736 49.9624 252.048 41.2241 241.331 41.2241H212V107.256ZM226.689 54.9995L226.69 54.7177C226.69 54.5137 226.691 54.315 226.691 54.1177C226.691 54.1177 227.293 54.1182 227.575 54.1177C231.047 54.1113 234.52 54.1116 237.993 54.116C238.404 54.1166 238.817 54.1241 239.223 54.1754C242.208 54.5526 244.659 55.7926 245.578 58.8476C246.513 61.9563 246.375 65.0044 243.938 67.5128C242.536 68.9564 240.672 69.517 238.747 69.5657C236.132 69.6318 233.515 69.6236 230.842 69.6104L230.833 69.6104L230.823 69.6103L230.306 69.6078C229.113 69.6018 227.908 69.5957 226.686 69.5957V56.0758C226.686 55.7368 226.687 55.4239 226.688 55.1262L226.689 54.9995Z" fill="white"/>
<path d="M320.297 69.5873L333.413 44.5874H340.925V57.3677H353.705V69.6994H340.7V90.9999C340.551 93.6577 341.854 95.3045 345.297 95.26H353.705V107.256H343.84H342.046C330.502 106.479 327.362 100.45 326.911 91.2242V69.5873H320.297Z" fill="white"/>
<path d="M267.942 111.852H252.135L268.39 141H277.471L321.193 57.5918H306.843L273.323 121.493L267.942 111.852Z" fill="white"/>
<path d="M280.274 57.5918H265.14L281.619 95.1479L289.691 79.677L280.274 57.5918Z" fill="white"/>
<path d="M447.092 108.057C438.176 107.102 432.27 102.264 429.366 94.0828C426.314 85.4889 426.419 76.8007 430.598 68.5205C436.355 57.1153 448.4 55.2081 456.296 58.151C459.626 59.3918 462.037 61.6927 463.701 64.806C463.87 65.122 464.045 65.4345 464.4 65.7148C464.4 63.0973 464.4 60.4799 464.4 57.776C469.081 57.776 473.647 57.776 478.282 57.776C478.282 74.2911 478.282 90.7831 478.282 107.372C473.718 107.372 469.154 107.372 464.489 107.372C464.489 104.664 464.489 101.956 464.489 99.2482C460.485 105.754 454.793 108.771 447.092 108.057ZM446.481 93.5308C452.523 97.7967 460.208 95.8016 463.13 89.0551C465.061 84.597 464.952 80.0268 462.875 75.6026C459.858 69.1738 451.796 67.3016 446.248 71.7375C443.198 74.1755 441.868 77.52 441.645 81.3253C441.366 86.0623 442.529 90.2742 446.481 93.5308Z" fill="white"/>
<path d="M506.166 59.3202C513.544 55.2543 523.387 56.469 528.754 62.084C531.823 65.2952 533.219 69.2631 533.779 73.5728C533.947 74.8654 534.036 76.1775 534.039 77.4809C534.06 87.1199 534.05 96.759 534.048 106.398V107.256H520.14C520.14 106.786 520.14 106.349 520.14 105.946C520.14 97.0547 520.152 88.1628 520.133 79.2711C520.127 76.2225 519.397 73.3762 517.07 71.2496C513.916 68.3674 510.157 68.009 506.283 69.3246C502.334 70.6658 500.637 73.8488 500.161 77.795C500.045 78.7563 500.008 79.7322 500.007 80.7015C499.995 89.1076 500 97.5138 500 105.92C500 106.327 500 106.734 500 107.215C495.38 107.215 490.842 107.215 486.216 107.215C486.216 90.6871 486.216 74.1607 486.216 57.5709C490.782 57.5709 495.32 57.5709 500 57.5709C500 59.9916 500 62.3916 500 64.7915C501.794 62.6138 503.69 60.7082 506.166 59.3202Z" fill="white"/>
<path d="M542.045 107.144V41H555.834V80.0135L571.866 57.592H586.776L570.745 78.8924L588.009 107.144H571.753L559.646 84.4978H555.834V107.144H542.045Z" fill="white"/>
</svg>
