<svg width="180" height="180" viewBox="0 0 180 180" fill="none" xmlns="http://www.w3.org/2000/svg">
<circle cx="90" cy="90" r="90" fill="white"/>
<path fill-rule="evenodd" clip-rule="evenodd" d="M50.3658 76.7212C50.366 76.654 50.3663 76.5878 50.3665 76.5223C50.3663 76.5876 50.366 76.6542 50.3658 76.7212Z" fill="#0202E6"/>
<path fill-rule="evenodd" clip-rule="evenodd" d="M50.3658 76.7212C50.366 76.654 50.3663 76.5878 50.3665 76.5223C50.3663 76.5876 50.366 76.6542 50.3658 76.7212Z" fill="#0202E6"/>
<path fill-rule="evenodd" clip-rule="evenodd" d="M40 113.598H50.2848V95.2436H56.2184L66.5032 113.598H77.8165L67.2023 94.2723C71.4837 91.9438 74.3929 87.3897 74.393 82.1507V80.7734C74.393 73.1665 68.262 67 60.6991 67H40V113.598ZM50.3639 87.0217V77.4808C50.3639 77.2415 50.3647 77.0207 50.3654 76.8106C50.3655 76.7808 50.3656 76.7506 50.3658 76.7212C50.366 76.6547 50.3663 76.5871 50.3665 76.5223C50.367 76.3784 50.3673 76.2381 50.3673 76.0989C50.3673 76.0989 50.7924 76.0993 50.9909 76.0989C53.4417 76.0944 55.8925 76.0946 58.3433 76.0978C58.6329 76.0981 58.9248 76.1034 59.2114 76.1397C61.3178 76.4058 63.0471 77.2809 63.6956 79.4368C64.3553 81.6306 64.258 83.7816 62.5388 85.5517C61.5493 86.5705 60.2334 86.9661 58.875 87.0005C57.0296 87.0471 55.1829 87.0413 53.2966 87.0321C53.2944 87.032 53.2923 87.032 53.2901 87.032C53.2878 87.032 53.2854 87.032 53.2831 87.032C53.1618 87.0314 53.0404 87.0308 52.9188 87.0302C52.0767 87.0259 51.2261 87.0217 50.3639 87.0217Z" fill="#0202E6"/>
<path fill-rule="evenodd" clip-rule="evenodd" d="M40 113.598H50.2848V95.2436H56.2184L66.5032 113.598H77.8165L67.2023 94.2723C71.4837 91.9438 74.3929 87.3897 74.393 82.1507V80.7734C74.393 73.1665 68.262 67 60.6991 67H40V113.598ZM50.3658 76.7212L50.3665 76.5223C50.367 76.3784 50.3673 76.2381 50.3673 76.0989C50.3673 76.0989 50.7924 76.0993 50.9909 76.0989C53.4417 76.0944 55.8925 76.0946 58.3433 76.0978C58.6329 76.0981 58.9248 76.1034 59.2114 76.1397C61.3178 76.4058 63.0471 77.2809 63.6956 79.4368C64.3553 81.6306 64.258 83.7816 62.5388 85.5517C61.5493 86.5705 60.2334 86.9661 58.875 87.0005C57.0296 87.0471 55.1829 87.0413 53.2966 87.0321L53.2901 87.032L53.2831 87.032L52.9188 87.0302C52.0767 87.0259 51.2261 87.0217 50.3639 87.0217V77.4808C50.3639 77.2415 50.3647 77.0207 50.3654 76.8106L50.3658 76.7212Z" fill="#0202E6"/>
<path d="M116.424 87.0158L125.68 69.3735H130.981V78.3925H140V87.095H130.823V102.127C130.717 104.002 131.636 105.164 134.066 105.133H140V113.598H133.038H131.772C123.625 113.05 121.41 108.795 121.092 102.285V87.0158H116.424Z" fill="#0202E6"/>
<path d="M79.4773 116.842H68.3223L79.7938 137.411H86.202L117.056 78.5508H106.93L83.2748 123.646L79.4773 116.842Z" fill="#0202E6"/>
<path d="M88.1804 78.5508H77.5L89.1298 105.054L94.826 94.1362L88.1804 78.5508Z" fill="#0202E6"/>
</svg>
