<svg width="500" height="350" viewBox="0 0 500 350" fill="none" xmlns="http://www.w3.org/2000/svg">
<rect width="500" height="350" rx="15" fill="white"/>
<path d="M223.962 141.1C233.338 141.008 242.681 141.015 252.128 141C255.629 141.301 258.954 141.911 262.042 143.463C268.626 146.772 271.832 152.621 271.147 159.942C270.733 164.365 269.141 168.198 265.651 171.049C264.485 172.002 263.088 172.672 262.051 173.315C263.539 174.163 265.435 174.896 266.896 176.14C271.703 180.235 273.3 185.688 272.493 191.766C271.454 199.595 266.481 204.103 259.177 206.178C256.766 206.862 254.181 207.187 251.67 207.221C242.707 207.343 233.742 207.27 224.778 207.267C224.524 207.267 224.27 207.226 223.941 207.199C223.92 206.835 223.887 206.509 223.886 206.184C223.884 184.745 223.884 163.306 223.886 141.867C223.886 141.644 223.914 141.421 223.962 141.1ZM257.086 191.184C257.196 190.867 257.313 190.552 257.417 190.233C259.074 185.135 255.828 179.808 250.516 179.404C246.55 179.102 242.541 179.345 238.497 179.345C238.497 184.714 238.497 190.069 238.497 195.426C242.669 195.426 246.775 195.556 250.869 195.38C253.595 195.264 255.756 193.893 257.086 191.184ZM245.393 168.34C246.55 168.333 247.71 168.378 248.863 168.309C253.012 168.06 255.946 165.239 256.225 161.277C256.531 156.937 254.092 153.675 249.896 152.846C249.278 152.724 248.639 152.657 248.009 152.653C244.85 152.634 241.691 152.644 238.5 152.644C238.5 157.926 238.5 163.094 238.5 168.34C240.772 168.34 242.971 168.34 245.393 168.34Z" fill="#0202E6"/>
<path fill-rule="evenodd" clip-rule="evenodd" d="M76.6887 155C76.6891 154.904 76.6894 154.81 76.6897 154.718C76.6894 154.81 76.6891 154.905 76.6887 155Z" fill="#0202E6"/>
<path fill-rule="evenodd" clip-rule="evenodd" d="M76.6887 155C76.6891 154.904 76.6894 154.81 76.6897 154.718C76.6894 154.81 76.6891 154.905 76.6887 155Z" fill="#0202E6"/>
<path fill-rule="evenodd" clip-rule="evenodd" d="M62 207.256H76.574V181.247H84.9821L99.5561 207.256H115.588L100.547 179.87C106.614 176.571 110.736 170.117 110.736 162.693V160.742C110.736 149.962 102.048 141.224 91.3315 141.224H62V207.256ZM76.6861 169.596V156.076C76.6861 155.737 76.6872 155.424 76.6882 155.126C76.6884 155.084 76.6886 155.041 76.6887 155C76.6891 154.905 76.6894 154.81 76.6897 154.718C76.6904 154.514 76.6909 154.315 76.6909 154.118C76.6909 154.118 77.2933 154.118 77.5746 154.118C81.0475 154.111 84.5204 154.112 87.9933 154.116C88.4035 154.117 88.8172 154.124 89.2234 154.175C92.2083 154.553 94.6587 155.793 95.5776 158.848C96.5125 161.956 96.3745 165.004 93.9384 167.513C92.5363 168.956 90.6716 169.517 88.7467 169.566C86.1317 169.632 83.5148 169.624 80.8418 169.61C80.8388 169.61 80.8357 169.61 80.8327 169.61C80.8293 169.61 80.826 169.61 80.8227 169.61C80.6508 169.61 80.4788 169.609 80.3065 169.608C79.1132 169.602 77.9079 169.596 76.6861 169.596Z" fill="#0202E6"/>
<path fill-rule="evenodd" clip-rule="evenodd" d="M62 207.256H76.574V181.247H84.9821L99.5561 207.256H115.588L100.547 179.87C106.614 176.571 110.736 170.117 110.736 162.693V160.742C110.736 149.962 102.048 141.224 91.3315 141.224H62V207.256ZM76.6887 155L76.6897 154.718C76.6904 154.514 76.6909 154.315 76.6909 154.118C76.6909 154.118 77.2933 154.118 77.5746 154.118C81.0475 154.111 84.5204 154.112 87.9933 154.116C88.4035 154.117 88.8172 154.124 89.2234 154.175C92.2083 154.553 94.6587 155.793 95.5776 158.848C96.5125 161.956 96.3745 165.004 93.9384 167.513C92.5363 168.956 90.6716 169.517 88.7467 169.566C86.1317 169.632 83.5148 169.624 80.8418 169.61L80.8327 169.61L80.8227 169.61L80.3065 169.608C79.1132 169.602 77.9079 169.596 76.6861 169.596V156.076C76.6861 155.737 76.6872 155.424 76.6882 155.126L76.6887 155Z" fill="#0202E6"/>
<path d="M170.297 169.587L183.413 144.587H190.925V157.368H203.705V169.699H190.7V191C190.551 193.658 191.854 195.305 195.297 195.26H203.705V207.256H193.84H192.046C180.502 206.479 177.362 200.45 176.911 191.224V169.587H170.297Z" fill="#0202E6"/>
<path d="M117.942 211.852H102.135L118.39 241H127.471L171.193 157.592H156.843L123.323 221.493L117.942 211.852Z" fill="#0202E6"/>
<path d="M130.273 157.592H115.139L131.619 195.148L139.69 179.677L130.273 157.592Z" fill="#0202E6"/>
<path d="M297.091 208.057C288.175 207.102 282.269 202.264 279.365 194.083C276.313 185.489 276.418 176.801 280.597 168.521C286.354 157.115 298.399 155.208 306.295 158.151C309.625 159.392 312.036 161.693 313.7 164.806C313.869 165.122 314.044 165.435 314.399 165.715C314.399 163.097 314.399 160.48 314.399 157.776C319.08 157.776 323.646 157.776 328.281 157.776C328.281 174.291 328.281 190.783 328.281 207.372C323.717 207.372 319.153 207.372 314.488 207.372C314.488 204.664 314.488 201.956 314.488 199.248C310.484 205.754 304.792 208.771 297.091 208.057ZM296.48 193.531C302.522 197.797 310.207 195.802 313.129 189.055C315.06 184.597 314.951 180.027 312.874 175.603C309.857 169.174 301.795 167.302 296.247 171.737C293.197 174.176 291.867 177.52 291.644 181.325C291.365 186.062 292.528 190.274 296.48 193.531Z" fill="#0202E6"/>
<path d="M356.165 159.32C363.543 155.254 373.386 156.469 378.753 162.084C381.822 165.295 383.218 169.263 383.778 173.573C383.946 174.865 384.035 176.177 384.038 177.481C384.059 187.12 384.05 196.759 384.047 206.398V207.256H370.139C370.139 206.786 370.139 206.349 370.139 205.946C370.139 197.055 370.151 188.163 370.132 179.271C370.126 176.223 369.397 173.376 367.069 171.25C363.915 168.367 360.156 168.009 356.282 169.325C352.333 170.666 350.636 173.849 350.16 177.795C350.044 178.756 350.007 179.732 350.006 180.702C349.994 189.108 349.999 197.514 349.999 205.92C349.999 206.327 349.999 206.734 349.999 207.215C345.379 207.215 340.841 207.215 336.215 207.215C336.215 190.687 336.215 174.161 336.215 157.571C340.781 157.571 345.319 157.571 349.999 157.571C349.999 159.992 349.999 162.392 349.999 164.792C351.793 162.614 353.689 160.708 356.165 159.32Z" fill="#0202E6"/>
<path d="M392.045 207.144V141H405.834V180.014L421.866 157.592H436.776L420.745 178.892L438.009 207.144H421.753L409.646 184.498H405.834V207.144H392.045Z" fill="#0202E6"/>
</svg>
