<svg width="1200" height="320" viewBox="0 0 1200 320" fill="none" xmlns="http://www.w3.org/2000/svg">
<path d="M516.882 0.318016C546.805 0.0247742 576.624 0.0471249 606.772 0C617.946 0.960943 628.556 2.90617 638.412 7.86001C659.424 18.4216 669.657 37.088 667.47 60.4516C666.148 74.5673 661.069 86.7996 649.929 95.8992C646.208 98.9392 641.751 101.079 638.44 103.129C643.19 105.836 649.24 108.176 653.902 112.146C669.244 125.214 674.342 142.618 671.766 162.015C668.448 187 652.578 201.386 629.268 208.008C621.573 210.194 613.325 211.23 605.31 211.339C576.707 211.728 548.096 211.494 519.489 211.485C518.677 211.485 517.865 211.356 516.816 211.267C516.751 210.105 516.642 209.066 516.642 208.027C516.635 139.607 516.635 71.1874 516.642 2.76748C516.642 2.05619 516.73 1.3449 516.882 0.318016ZM622.594 160.159C622.947 159.147 623.32 158.142 623.651 157.123C628.94 140.853 618.582 123.854 601.629 122.563C588.969 121.6 576.178 122.373 563.269 122.373C563.269 139.51 563.269 156.599 563.269 173.696C576.585 173.696 589.69 174.11 602.753 173.55C611.455 173.178 618.352 168.804 622.594 160.159ZM585.279 87.2519C588.971 87.2292 592.673 87.3743 596.353 87.1538C609.595 86.3606 618.957 77.3557 619.848 64.7107C620.824 50.8609 613.041 40.4524 599.648 37.8063C597.676 37.4167 595.638 37.2022 593.628 37.19C583.547 37.1289 573.465 37.162 563.28 37.162C563.28 54.0167 563.28 70.5114 563.28 87.2519C570.531 87.2519 577.547 87.2519 585.279 87.2519Z" fill="#0202E6"/>
<path fill-rule="evenodd" clip-rule="evenodd" d="M46.8777 44.6783C46.8788 44.3743 46.8799 44.0748 46.8809 43.7789C46.8799 44.074 46.8788 44.3751 46.8777 44.6783Z" fill="#0202E6"/>
<path fill-rule="evenodd" clip-rule="evenodd" d="M46.8777 44.6783C46.8788 44.3743 46.8799 44.0748 46.8809 43.7789C46.8799 44.074 46.8788 44.3751 46.8777 44.6783Z" fill="#0202E6"/>
<path fill-rule="evenodd" clip-rule="evenodd" d="M0 211.449H46.5116V128.443H73.3453L119.857 211.449H171.02L123.019 124.051C142.381 113.521 155.537 92.9249 155.537 69.2324V63.0036C155.537 28.6027 127.811 0.715332 93.6087 0.715332H0V211.449ZM46.8694 91.2607V48.1132C46.8695 47.0314 46.8727 46.0325 46.8762 45.0826C46.8767 44.9477 46.8772 44.8113 46.8777 44.6783C46.8788 44.3773 46.8799 44.0719 46.8809 43.7789C46.8831 43.1278 46.8848 42.4936 46.8848 41.8639C46.8848 41.8639 48.8072 41.8655 49.7049 41.8639C60.7883 41.8436 71.8718 41.8446 82.9552 41.8587C84.2644 41.8604 85.5847 41.8845 86.8809 42.0483C96.4069 43.252 104.227 47.2092 107.16 56.9591C110.144 66.8802 109.703 76.6078 101.928 84.6131C97.4538 89.2205 91.5026 91.0096 85.3596 91.1648C77.0141 91.3758 68.6627 91.3496 60.132 91.3077C60.1223 91.3076 60.1125 91.3076 60.1028 91.3075C60.0921 91.3075 60.0815 91.3074 60.0708 91.3074C59.5224 91.3047 58.9733 91.3019 58.4234 91.2992C54.6152 91.28 50.7685 91.2607 46.8694 91.2607Z" fill="#0202E6"/>
<path fill-rule="evenodd" clip-rule="evenodd" d="M0 211.449H46.5116V128.443H73.3453L119.857 211.449H171.02L123.019 124.051C142.381 113.521 155.537 92.9249 155.537 69.2324V63.0036C155.537 28.6027 127.811 0.715332 93.6087 0.715332H0V211.449ZM46.8777 44.6783L46.8809 43.7789C46.8831 43.1278 46.8848 42.4936 46.8848 41.8639C46.8848 41.8639 48.8072 41.8655 49.7049 41.8639C60.7883 41.8436 71.8718 41.8446 82.9552 41.8587C84.2644 41.8604 85.5847 41.8845 86.8809 42.0483C96.4069 43.252 104.227 47.2092 107.16 56.9591C110.144 66.8802 109.703 76.6078 101.928 84.6131C97.4538 89.2205 91.5026 91.0096 85.3596 91.1648C77.0141 91.3758 68.6627 91.3496 60.132 91.3077L60.1028 91.3075L60.0708 91.3074L58.4234 91.2992C54.6152 91.28 50.7685 91.2607 46.8694 91.2607V48.1132C46.8695 47.0314 46.8727 46.0325 46.8762 45.0826L46.8777 44.6783Z" fill="#0202E6"/>
<path d="M345.617 91.2343L387.478 11.4492H411.449V52.2363H452.236V91.592H410.733V159.571C410.255 168.053 414.414 173.308 425.403 173.166H452.236V211.449H420.751H415.027C378.186 208.97 368.166 189.73 366.726 160.286V91.2343H345.617Z" fill="#0202E6"/>
<path d="M178.533 226.118H128.086L179.964 319.141H208.945L348.479 52.9517H302.683L195.707 256.887L178.533 226.118Z" fill="#0202E6"/>
<path d="M217.889 52.9517H169.589L222.183 172.809L247.943 123.435L217.889 52.9517Z" fill="#0202E6"/>
<path d="M750.274 214.006C721.819 210.957 702.973 195.518 693.703 169.409C683.965 141.982 684.297 114.254 697.636 87.829C716.009 51.4304 754.448 45.3436 779.65 54.7357C790.275 58.6956 797.97 66.0385 803.281 75.9745C803.82 76.983 804.38 77.9802 805.511 78.8747C805.511 70.5214 805.511 62.1682 805.511 53.5388C820.452 53.5388 835.022 53.5388 849.815 53.5388C849.815 106.245 849.815 158.878 849.815 211.82C835.25 211.82 820.684 211.82 805.794 211.82C805.794 203.178 805.794 194.536 805.794 185.893C793.016 206.655 774.853 216.286 750.274 214.006ZM748.323 167.647C767.608 181.261 792.133 174.894 801.459 153.363C807.621 139.136 807.272 124.55 800.645 110.431C791.015 89.9139 765.288 83.9389 747.58 98.0957C737.847 105.876 733.604 116.55 732.89 128.694C732.001 143.812 735.711 157.254 748.323 167.647Z" fill="#0202E6"/>
<path d="M938.804 58.467C962.349 45.4911 993.763 49.3677 1010.89 67.2874C1020.68 77.5356 1025.14 90.1989 1026.93 103.953C1027.46 108.078 1027.75 112.266 1027.76 116.425C1027.82 147.187 1027.79 177.949 1027.79 208.711V211.449H983.4C983.4 209.949 983.4 208.554 983.4 207.27C983.4 178.893 983.437 150.516 983.379 122.138C983.359 112.409 981.03 103.325 973.603 96.5386C963.537 87.3403 951.541 86.1965 939.177 90.3953C926.572 94.6756 921.158 104.834 919.638 117.428C919.268 120.495 919.151 123.61 919.147 126.704C919.11 153.531 919.126 180.358 919.126 207.186C919.126 208.485 919.126 209.785 919.126 211.319C904.381 211.319 889.897 211.319 875.134 211.319C875.134 158.572 875.134 105.829 875.134 52.8842C889.705 52.8842 904.19 52.8842 919.125 52.8842C919.125 60.6099 919.125 68.2691 919.125 75.9283C924.849 68.9782 930.9 62.8966 938.804 58.467Z" fill="#0202E6"/>
<path d="M1053.31 211.091V0H1097.32V124.508L1148.48 52.9517H1196.06L1144.9 120.93L1200 211.091H1148.12L1109.48 138.819H1097.32V211.091H1053.31Z" fill="#0202E6"/>
</svg>
