<svg width="514" height="205" viewBox="0 0 514 205" fill="none" xmlns="http://www.w3.org/2000/svg">
<path d="M370.718 84.37C366.201 80.8517 361.018 78.284 355.483 76.8215C349.947 75.359 344.173 75.0319 338.508 75.86C330.838 76.94 322.018 81.69 317.958 86.2V47.27H302.598V161.72H318.148V153.85C324.718 161.45 337.148 164.69 344.728 164.69C352.261 164.574 359.623 162.418 366.028 158.45C382.098 148.95 389.108 133.85 386.888 113.57C386.302 107.864 384.567 102.335 381.788 97.3166C379.009 92.2983 375.244 87.8944 370.718 84.37ZM351.068 148.86C347.243 149.761 343.272 149.844 339.414 149.104C335.555 148.364 331.896 146.818 328.677 144.566C325.457 142.315 322.749 139.409 320.729 136.039C318.71 132.669 317.425 128.911 316.958 125.01C315.578 112.25 319.048 102.79 327.568 96.11C332.391 92.242 338.385 90.1265 344.568 90.11C363.778 90.11 372.298 107.74 371.978 120.11C371.718 134.71 363.648 145.71 351.048 148.86H351.068Z" fill="#002E6D"/>
<path d="M287.077 149.89C287.077 149.89 280.077 151.38 278.497 149.03C277.597 147.68 277.037 145.98 276.957 142.52V77.9799H261.587V86.11C260.135 84.6593 258.574 83.322 256.917 82.11C242.967 73.11 228.267 72.85 213.217 81.42C196.497 90.95 188.617 111.31 193.627 132.08C195.934 141.305 201.244 149.502 208.721 155.377C216.198 161.252 225.418 164.472 234.927 164.53C241.225 164.544 247.437 163.07 253.057 160.23C254.937 159.29 258.327 156.8 262.877 153.03C263.734 156.433 265.75 159.432 268.577 161.51C272.147 163.95 276.967 164.51 283.317 163.28C284.517 163.05 287.067 161.84 287.077 159.96C287.087 158.08 287.077 149.89 287.077 149.89ZM249.717 145.39C245.201 148.235 239.954 149.701 234.617 149.61C221.267 149.53 211.527 139.37 208.147 126.13C204.357 111.33 213.637 89.5399 233.627 89.3399C252.397 89.1399 260.427 101.5 262.147 112.9C264.147 126.2 260.027 138.82 249.717 145.39Z" fill="#002E6D"/>
<path d="M430.317 149.64C426.427 149.64 424.177 149.11 422.797 147.8C421.417 146.49 420.587 143.94 420.587 140.35V47.1201H405.157V144.2C405.079 147.243 405.703 150.263 406.981 153.026C408.259 155.789 410.157 158.22 412.527 160.13C416.037 162.92 420.667 164.33 426.277 164.33C428.475 164.375 430.672 164.177 432.827 163.74C434.437 163.38 436.317 161.74 436.377 160.08C436.457 157.53 436.377 149.26 436.377 149.26C436.377 149.26 432.637 149.6 430.317 149.64Z" fill="#002E6D"/>
<path d="M483.467 81.8601C477.983 82.4168 472.746 84.4258 468.297 87.6801V81.8601C468.297 79.4101 467.137 78.0101 465.027 77.9201C462.477 77.8101 452.797 77.8201 452.797 77.8201V161.82H468.297V109.75C469.157 101.39 476.137 96.9801 484.907 96.0901C488.249 95.7548 491.619 96.3475 494.647 97.803C497.674 99.2584 500.241 101.52 502.067 104.34L513.967 96.3401C510.692 91.3699 506.117 87.3923 500.74 84.8395C495.362 82.2866 489.389 81.2562 483.467 81.8601Z" fill="#002E6D"/>
<path d="M136.947 164.39H155.077V155.91H130.007C131.067 154.36 132.067 152.84 133.007 151.32H155.057V142.84H138.057C142.494 134.991 146.149 126.724 148.967 118.16L128.637 112.07C125.343 121.745 120.877 130.981 115.337 139.57C107.667 130.67 100.497 122.29 94.9073 115.76C87.7973 107.45 82.5173 101.29 78.5873 96.76C111.017 78.88 119.127 52.95 115.587 34.68C111.587 13.94 93.5373 0 70.7773 0C50.0273 0 32.9673 10.58 26.2773 27.61C22.5973 36.94 17.8173 60.3 43.3973 89.99C9.00727 108.61 1.47728 132.48 0.217278 145.94C-0.659697 155.624 1.12872 165.364 5.38897 174.105C9.64922 182.845 16.219 190.254 24.3873 195.53C42.7773 207.53 66.6073 207.62 88.1273 195.69L88.3773 195.55C98.7105 189.406 108.112 181.815 116.297 173.01C129.527 188.17 138.437 198.07 144.717 204.53L159.717 189.53C153.807 183.41 145.717 174.36 136.947 164.39ZM46.0073 35.39C49.4973 26.53 58.7573 21.24 70.7773 21.24C83.2773 21.24 92.6973 28.11 94.7773 38.76C97.0673 50.5 90.0273 68 63.5873 80.66C47.7773 64.12 41.2273 47.53 46.0073 35.35V35.39ZM77.7173 177.21C63.0173 185.3 47.8173 185.51 35.9973 177.77C31.0574 174.606 27.0785 170.149 24.4924 164.883C21.9062 159.617 20.8116 153.744 21.3273 147.9C22.8373 131.83 36.3273 116.82 58.5873 106.03C63.3973 111.53 71.1973 120.64 78.8173 129.54L90.2173 142.84H74.9473V151.32H97.5273C98.8606 152.893 100.177 154.423 101.477 155.91H74.9473V164.39H94.8573C89.608 169.251 83.8633 173.548 77.7173 177.21Z" fill="#00A1E2"/>
</svg>
