<svg width="180" height="180" viewBox="0 0 180 180" fill="none" xmlns="http://www.w3.org/2000/svg">
<circle cx="90" cy="90" r="90" fill="#002E6D"/>
<path d="M125.744 128.442H137.095V123.26H121.398C122.062 122.313 122.688 121.385 123.277 120.456H137.082V115.275H126.439C129.217 110.479 131.505 105.428 133.269 100.195L120.541 96.4743C118.478 102.386 115.682 108.029 112.213 113.277C107.411 107.839 102.922 102.719 99.422 98.7289C94.9704 93.6515 91.6646 89.8878 89.204 87.12C109.509 76.1954 114.586 60.3522 112.37 49.1893C109.865 36.5173 98.5643 28 84.3141 28C71.3224 28 60.641 34.4643 56.4524 44.8696C54.1483 50.5702 51.1555 64.8431 67.1713 82.9835C45.6395 94.3603 40.9249 108.945 40.136 117.169C39.587 123.086 40.7067 129.037 43.3741 134.377C46.0414 139.718 50.1548 144.245 55.269 147.468C66.7831 154.8 81.7032 154.855 95.177 147.566L95.3336 147.48C101.803 143.726 107.69 139.088 112.814 133.708C121.098 142.971 126.676 149.02 130.608 152.967L140 143.802C136.3 140.063 131.235 134.533 125.744 128.442ZM68.8054 49.6231C70.9906 44.2097 76.7883 40.9776 84.3141 40.9776C92.1404 40.9776 98.0383 45.1751 99.3407 51.6822C100.774 58.8553 96.3666 69.5477 79.8124 77.2829C69.9137 67.1771 65.8127 57.0406 68.8054 49.5987V49.6231ZM88.6593 136.275C79.4555 141.218 69.9387 141.346 62.5381 136.617C59.4452 134.683 56.954 131.96 55.3348 128.743C53.7156 125.525 53.0303 121.937 53.3531 118.366C54.2986 108.548 62.7447 99.3765 76.6819 92.7839C79.6934 96.1444 84.5771 101.711 89.348 107.148L96.4856 115.275H86.925V120.456H101.062C101.897 121.417 102.722 122.352 103.536 123.26H86.925V128.442H99.3907C96.1042 131.412 92.5073 134.037 88.6593 136.275Z" fill="#00A1E2"/>
</svg>
