<svg width="180" height="180" viewBox="0 0 180 180" fill="none" xmlns="http://www.w3.org/2000/svg">
<circle cx="90" cy="90" r="90" fill="white"/>
<path d="M98.2339 79.0099C96.1287 77.2144 93.7133 75.904 91.1332 75.1576C88.5532 74.4112 85.8619 74.2443 83.2214 74.667C79.6466 75.2181 75.5357 77.6422 73.6434 79.9438V60.0765H66.4844V118.484H73.732V114.468C76.7941 118.347 82.5875 120 86.1205 120C89.6318 119.941 93.0627 118.84 96.048 116.816C103.538 111.967 106.805 104.261 105.771 93.9117C105.498 90.9995 104.689 88.178 103.394 85.617C102.099 83.056 100.343 80.8085 98.2339 79.0099ZM89.0754 111.921C87.293 112.381 85.4421 112.423 83.6437 112.046C81.8454 111.668 80.1401 110.879 78.6394 109.73C77.1387 108.581 75.8764 107.098 74.9352 105.379C73.9939 103.659 73.3949 101.741 73.1773 99.7499C72.5341 93.238 74.1514 88.4103 78.1225 85.0012C80.3706 83.0273 83.1642 81.9477 86.0459 81.9392C94.9993 81.9392 98.9704 90.9364 98.8212 97.2493C98.7 104.7 94.9387 110.314 89.0661 111.921H89.0754Z" fill="#002E6D"/>
<path d="M59.2507 112.447C59.2507 112.447 55.9881 113.207 55.2517 112.008C54.8322 111.319 54.5712 110.452 54.5339 108.686V75.7488H47.3702V79.8978C46.6934 79.1575 45.9657 78.4751 45.1936 77.8565C38.6918 73.2635 31.8403 73.1308 24.8258 77.5044C17.0329 82.3678 13.3601 92.7583 15.6952 103.358C16.7701 108.066 19.245 112.249 22.7301 115.247C26.2152 118.245 30.5123 119.889 34.9444 119.918C37.8796 119.925 40.7749 119.173 43.3945 117.724C44.2708 117.244 45.8508 115.973 47.9715 114.049C48.3708 115.786 49.3102 117.316 50.6281 118.377C52.292 119.622 54.5386 119.908 57.4982 119.28C58.0575 119.163 59.246 118.545 59.2507 117.586C59.2553 116.627 59.2507 112.447 59.2507 112.447ZM41.8378 110.15C39.733 111.602 37.2872 112.351 34.8 112.304C28.5777 112.263 24.0381 107.078 22.4627 100.321C20.6963 92.7685 25.0215 81.6483 34.3385 81.5462C43.0869 81.4441 46.8296 87.7519 47.6312 93.5697C48.5634 100.357 46.6431 106.798 41.8378 110.15Z" fill="#002E6D"/>
<path d="M126.013 112.32C124.2 112.32 123.151 112.049 122.508 111.381C121.865 110.712 121.478 109.411 121.478 107.579V60H114.286V109.543C114.25 111.096 114.541 112.638 115.137 114.047C115.732 115.457 116.617 116.698 117.721 117.673C119.357 119.097 121.515 119.816 124.13 119.816C125.155 119.839 126.178 119.738 127.183 119.515C127.933 119.332 128.809 118.495 128.837 117.647C128.875 116.346 128.837 112.126 128.837 112.126C128.837 112.126 127.094 112.299 126.013 112.32Z" fill="#002E6D"/>
<path d="M150.785 77.7289C148.229 78.0131 145.788 79.0383 143.715 80.6991V77.7289C143.715 76.4786 143.174 75.7641 142.19 75.7182C141.002 75.6621 136.49 75.6672 136.49 75.6672V118.535H143.715V91.9622C144.115 87.6958 147.369 85.4452 151.456 84.991C153.014 84.8199 154.585 85.1224 155.996 85.8652C157.407 86.6079 158.603 87.7622 159.454 89.2013L165.001 85.1186C163.474 82.5821 161.342 80.5522 158.836 79.2494C156.329 77.9466 153.545 77.4208 150.785 77.7289Z" fill="#002E6D"/>
</svg>
