<svg width="500" height="350" viewBox="0 0 500 350" fill="none" xmlns="http://www.w3.org/2000/svg">
<rect width="500" height="350" rx="15" fill="white"/>
<path d="M221.784 135.096C217.455 140.116 211.076 143.288 203.926 143.288C190.93 143.288 180.402 132.755 180.402 119.747C180.402 106.744 190.93 96.2058 203.926 96.2058C216.923 96.2058 227.461 106.744 227.461 119.747V179.728H263.897L263.868 119.996C263.868 86.8531 237.034 60 203.926 60C170.833 60 144 86.8531 144 119.996C144 153.129 170.833 179.982 203.926 179.982C210.131 179.982 216.122 179.041 221.754 177.278L221.784 135.096Z" fill="#ED1C24"/>
<path d="M221.784 135.096C217.455 140.116 211.076 143.288 203.926 143.288C190.93 143.288 180.402 132.755 180.402 119.747C180.402 106.744 190.93 96.2058 203.926 96.2058C216.923 96.2058 227.461 106.744 227.461 119.747V179.728H263.897L263.868 119.996C263.868 86.8531 237.034 60 203.926 60C170.833 60 144 86.8531 144 119.996C144 153.129 170.833 179.982 203.926 179.982C210.131 179.982 216.122 179.041 221.754 177.278L221.784 135.096Z" stroke="#ED1C24" stroke-width="0.275"/>
<path d="M280.702 179.477C283.299 179.821 285.961 180 288.638 180C321.741 180 348.569 153.142 348.569 120.019C348.569 86.8807 321.741 60.0176 288.638 60.0176C274.164 60.0176 260.859 65.1721 250.49 73.743L250.56 73.8774C259.585 83.0609 265.914 94.8938 268.278 108.096L268.367 108.061C272.462 101.109 280.01 96.4675 288.638 96.4675C301.644 96.4675 312.173 107.006 312.173 120.019C312.173 133.007 301.644 143.565 288.638 143.565C285.847 143.565 283.165 143.072 280.657 142.166L280.702 179.477Z" fill="#ED1C24"/>
<path d="M280.702 179.477C283.299 179.821 285.961 180 288.638 180C321.741 180 348.569 153.142 348.569 120.019C348.569 86.8807 321.741 60.0176 288.638 60.0176C274.164 60.0176 260.859 65.1721 250.49 73.743L250.56 73.8774C259.585 83.0609 265.914 94.8938 268.278 108.096L268.367 108.061C272.462 101.109 280.01 96.4675 288.638 96.4675C301.644 96.4675 312.173 107.006 312.173 120.019C312.173 133.007 301.644 143.565 288.638 143.565C285.847 143.565 283.165 143.072 280.657 142.166L280.702 179.477Z" stroke="#ED1C24" stroke-width="0.275"/>
<path d="M65.4647 271.313L74.0467 246.311L82.6287 271.313H65.4647ZM84.7588 228.099H63.9239L38 298.299H56.2566L61.1553 284.075H86.9381L91.8429 298.299H110.683L84.7588 228.099Z" fill="#ED1C24"/>
<path d="M166.041 260.628V298.299H149.105V271.749C149.105 269.162 149.037 266.963 148.914 265.15C148.792 263.331 148.448 261.857 147.883 260.72C147.318 259.589 146.465 258.76 145.323 258.238C144.175 257.721 142.573 257.457 140.504 257.457C138.847 257.457 137.226 257.795 135.661 258.471C134.095 259.153 132.683 259.872 131.437 260.628V298.299H114.494V245.42H131.437V251.104C134.341 248.806 137.122 247.012 139.78 245.721C142.438 244.431 145.378 243.78 148.595 243.78C152.07 243.78 155.133 244.56 157.791 246.121C160.449 247.682 162.53 249.973 164.028 252.996C167.404 250.133 170.688 247.878 173.874 246.244C177.067 244.603 180.191 243.78 183.254 243.78C188.945 243.78 193.267 245.5 196.219 248.935C199.172 252.364 200.652 257.31 200.652 263.761V298.299H183.715V271.749C183.715 269.132 183.653 266.926 183.543 265.119C183.439 263.325 183.101 261.857 182.536 260.72C182.002 259.589 181.161 258.76 180.001 258.238C178.841 257.721 177.208 257.457 175.114 257.457C173.703 257.457 172.321 257.703 170.977 258.195C169.633 258.68 167.981 259.491 166.041 260.628Z" fill="#ED1C24"/>
<path d="M248.184 251.903C247.681 253.064 246.619 253.998 244.998 254.729C243.838 255.264 242.254 255.583 240.253 255.669C238.252 255.774 235.833 255.817 232.991 255.817H230.173V240.867H231.861C235.397 240.867 238.141 240.892 240.093 240.941C242.046 240.984 243.679 241.267 244.998 241.771C246.459 242.342 247.485 243.208 248.062 244.376C248.645 245.549 248.933 246.723 248.933 247.89C248.933 249.408 248.688 250.741 248.184 251.903ZM268.037 265.457C265.342 262.594 261.708 260.708 257.116 259.792V259.423C260.364 257.979 262.881 255.964 264.661 253.377C266.441 250.778 267.331 247.792 267.331 244.4C267.331 241.482 266.68 238.883 265.385 236.603C264.084 234.33 262.101 232.517 259.437 231.165C256.871 229.875 254.28 229.052 251.665 228.671C249.05 228.296 244.925 228.106 239.289 228.106H212.144V298.299H242.715C247.791 298.299 251.99 297.863 255.299 296.978C258.602 296.099 261.64 294.618 264.397 292.535C266.785 290.778 268.651 288.566 270.02 285.887C271.383 283.221 272.07 280.179 272.07 276.775C272.07 272.099 270.72 268.32 268.037 265.457ZM252.254 281.076C251.548 282.397 250.259 283.454 248.387 284.247C246.545 285.045 244.532 285.457 242.346 285.488C240.161 285.519 236.539 285.531 231.487 285.531H230.173V267.853H234.108C236.791 267.853 239.363 267.866 241.837 267.903C244.299 267.927 246.232 268.148 247.638 268.566C249.701 269.168 251.156 270.084 252.015 271.307C252.874 272.529 253.304 274.268 253.304 276.523C253.304 278.244 252.954 279.761 252.254 281.076Z" fill="#ED1C24"/>
<path d="M306.615 287.406C304.921 288.1 303.251 288.451 301.6 288.451C299.531 288.451 298.003 288.303 297.027 287.996C296.05 287.695 295.209 287.228 294.51 286.595C293.779 285.962 293.319 285.299 293.135 284.598C292.95 283.898 292.864 282.988 292.864 281.882C292.864 280.199 293.294 278.841 294.166 277.815C295.038 276.776 296.296 275.99 297.941 275.455C299.279 275.007 301.25 274.626 303.847 274.288C306.437 273.956 308.85 273.692 311.078 273.501V284.641C309.795 285.784 308.31 286.712 306.615 287.406ZM311.078 298.3H328.021V262.239C328.021 255.879 325.885 251.216 321.624 248.248C317.364 245.268 310.44 243.781 300.857 243.781C296.824 243.781 292.809 244.107 288.801 244.74C284.786 245.385 281.888 245.938 280.114 246.405V259.099H281.649C283.006 258.558 285.259 257.778 288.389 256.776C291.52 255.775 294.461 255.271 297.223 255.271C301.809 255.271 305.283 255.842 307.64 256.985C309.998 258.128 311.17 260.193 311.17 263.185V263.474C306.241 263.756 301.483 264.205 296.898 264.801C292.312 265.409 288.463 266.417 285.369 267.842C282.238 269.262 279.82 271.216 278.113 273.68C276.406 276.15 275.559 279.332 275.559 283.222C275.559 288.1 277.229 292.1 280.581 295.24C283.926 298.368 288.076 299.941 293.036 299.941C295.148 299.941 297.088 299.725 298.85 299.308C300.618 298.884 302.318 298.288 303.963 297.495C305.142 296.936 306.394 296.162 307.726 295.191C309.058 294.214 310.176 293.385 311.078 292.69V298.3Z" fill="#ED1C24"/>
<path d="M391.504 298.296H374.561V271.937C374.561 269.792 374.457 267.66 374.23 265.528C374.009 263.396 373.634 261.823 373.1 260.815C372.474 259.648 371.553 258.8 370.344 258.265C369.135 257.725 367.446 257.454 365.279 257.454C363.739 257.454 362.179 257.706 360.596 258.216C359.012 258.72 357.287 259.525 355.439 260.625V298.296H338.496V245.424H355.439V251.107C358.441 248.742 361.326 246.929 364.101 245.669C366.876 244.41 369.951 243.783 373.333 243.783C379.03 243.783 383.481 245.448 386.691 248.791C389.896 252.127 391.504 257.116 391.504 263.765V298.296Z" fill="#ED1C24"/>
<path d="M458 298.296H438.411L423.488 275.169L418.835 280.864V298.296H401.898V225H418.835V268.539L436.987 245.424H456.729L437.62 268.213L458 298.296Z" fill="#ED1C24"/>
</svg>
