<svg width="180" height="180" viewBox="0 0 180 180" fill="none" xmlns="http://www.w3.org/2000/svg">
<circle cx="90" cy="90" r="90" fill="white"/>
<path d="M72.0348 101.064C68.8607 104.745 64.1835 107.071 58.9408 107.071C49.4113 107.071 41.6914 99.3477 41.6914 89.8094C41.6914 80.2748 49.4113 72.5478 58.9408 72.5478C68.4703 72.5478 76.1976 80.2748 76.1976 89.8094V133.791H102.914L102.893 89.992C102.893 65.6899 83.217 45.9999 58.9408 45.9999C34.6756 45.9999 15 65.6899 15 89.992C15 114.287 34.6756 133.977 58.9408 133.977C63.4903 133.977 67.883 133.287 72.0129 131.994L72.0348 101.064Z" fill="#ED1C24"/>
<path d="M72.0348 101.064C68.8607 104.745 64.1835 107.071 58.9408 107.071C49.4113 107.071 41.6914 99.3477 41.6914 89.8094C41.6914 80.2748 49.4113 72.5478 58.9408 72.5478C68.4703 72.5478 76.1976 80.2748 76.1976 89.8094V133.791H102.914L102.893 89.992C102.893 65.6899 83.217 45.9999 58.9408 45.9999C34.6756 45.9999 15 65.6899 15 89.992C15 114.287 34.6756 133.977 58.9408 133.977C63.4903 133.977 67.883 133.287 72.0129 131.994L72.0348 101.064Z" stroke="#ED1C24" stroke-width="0.275"/>
<path d="M115.236 133.606C117.141 133.858 119.093 133.99 121.055 133.99C145.328 133.99 165 114.296 165 90.0086C165 65.7102 145.328 46.0129 121.055 46.0129C110.442 46.0129 100.687 49.7924 93.0835 56.077L93.1346 56.1756C99.7527 62.9093 104.393 71.5857 106.126 81.2664L106.192 81.2408C109.195 76.1431 114.729 72.7397 121.055 72.7397C130.592 72.7397 138.312 80.4667 138.312 90.0086C138.312 99.5322 130.592 107.274 121.055 107.274C119.009 107.274 117.042 106.912 115.203 106.248L115.236 133.606Z" fill="#ED1C24"/>
<path d="M115.236 133.606C117.141 133.858 119.093 133.99 121.055 133.99C145.328 133.99 165 114.296 165 90.0086C165 65.7102 145.328 46.0129 121.055 46.0129C110.442 46.0129 100.687 49.7924 93.0835 56.077L93.1346 56.1756C99.7527 62.9093 104.393 71.5857 106.126 81.2664L106.192 81.2408C109.195 76.1431 114.729 72.7397 121.055 72.7397C130.592 72.7397 138.312 80.4667 138.312 90.0086C138.312 99.5322 130.592 107.274 121.055 107.274C119.009 107.274 117.042 106.912 115.203 106.248L115.236 133.606Z" stroke="#ED1C24" stroke-width="0.275"/>
</svg>
