<svg width="800" height="180" viewBox="0 0 800 180" fill="none" xmlns="http://www.w3.org/2000/svg">
<rect width="800" height="180" rx="15" fill="white"/>
<path d="M110.837 101.735C107.451 105.661 102.462 108.142 96.8702 108.142C86.7054 108.142 78.4708 99.9042 78.4708 89.7301C78.4708 79.5599 86.7054 71.3177 96.8702 71.3177C107.035 71.3177 115.277 79.5599 115.277 89.7301V136.643H143.775L143.752 89.9248C143.752 64.0026 122.765 43 96.8702 43C70.9873 43 50 64.0026 50 89.9248C50 115.839 70.9873 136.842 96.8702 136.842C101.723 136.842 106.408 136.106 110.814 134.727L110.837 101.735Z" fill="#ED1C24"/>
<path d="M110.837 101.735C107.451 105.661 102.462 108.142 96.8702 108.142C86.7054 108.142 78.4708 99.9042 78.4708 89.7301C78.4708 79.5599 86.7054 71.3177 96.8702 71.3177C107.035 71.3177 115.277 79.5599 115.277 89.7301V136.643H143.775L143.752 89.9248C143.752 64.0026 122.765 43 96.8702 43C70.9873 43 50 64.0026 50 89.9248C50 115.839 70.9873 136.842 96.8702 136.842C101.723 136.842 106.408 136.106 110.814 134.727L110.837 101.735Z" stroke="#ED1C24" stroke-width="0.275"/>
<path d="M156.919 136.447C158.95 136.715 161.032 136.856 163.126 136.856C189.017 136.856 210 115.849 210 89.9425C210 64.0242 189.017 43.0138 163.126 43.0138C151.805 43.0138 141.399 47.0453 133.289 53.7488L133.344 53.854C140.403 61.0366 145.353 70.2915 147.201 80.6176L147.272 80.5903C150.474 75.1527 156.378 71.5224 163.126 71.5224C173.298 71.5224 181.533 79.7645 181.533 89.9425C181.533 100.101 173.298 108.359 163.126 108.359C160.943 108.359 158.845 107.973 156.884 107.264L156.919 136.447Z" fill="#ED1C24"/>
<path d="M156.919 136.447C158.95 136.715 161.032 136.856 163.126 136.856C189.017 136.856 210 115.849 210 89.9425C210 64.0242 189.017 43.0138 163.126 43.0138C151.805 43.0138 141.399 47.0453 133.289 53.7488L133.344 53.854C140.403 61.0366 145.353 70.2915 147.201 80.6176L147.272 80.5903C150.474 75.1527 156.378 71.5224 163.126 71.5224C173.298 71.5224 181.533 79.7645 181.533 89.9425C181.533 100.101 173.298 108.359 163.126 108.359C160.943 108.359 158.845 107.973 156.884 107.264L156.919 136.447Z" stroke="#ED1C24" stroke-width="0.275"/>
<path d="M283.465 99.3128L292.047 74.3113L300.629 99.3128H283.465ZM302.759 56.0994H281.924L256 126.299H274.257L279.155 112.075H304.938L309.843 126.299H328.683L302.759 56.0994Z" fill="#ED1C24"/>
<path d="M384.041 88.6277V126.299H367.105V99.749C367.105 97.1622 367.037 94.9625 366.914 93.15C366.792 91.3312 366.448 89.8566 365.883 88.7199C365.318 87.5893 364.465 86.7598 363.323 86.2375C362.175 85.7214 360.573 85.4572 358.504 85.4572C356.847 85.4572 355.226 85.7952 353.661 86.471C352.095 87.1531 350.683 87.8719 349.437 88.6277V126.299H332.494V73.4204H349.437V79.1039C352.341 76.8059 355.122 75.0118 357.78 73.7215C360.438 72.4311 363.378 71.7798 366.595 71.7798C370.07 71.7798 373.133 72.5602 375.791 74.1208C378.449 75.6815 380.53 77.9734 382.028 80.9964C385.404 78.1331 388.688 75.8781 391.874 74.2437C395.067 72.6032 398.191 71.7798 401.254 71.7798C406.945 71.7798 411.267 73.5003 414.219 76.935C417.172 80.3635 418.652 85.3097 418.652 91.7613V126.299H401.715V99.749C401.715 97.1315 401.653 94.9257 401.543 93.1192C401.439 91.3251 401.101 89.8566 400.536 88.7199C400.002 87.5893 399.161 86.7598 398.001 86.2375C396.841 85.7214 395.208 85.4572 393.114 85.4572C391.703 85.4572 390.321 85.703 388.977 86.1945C387.633 86.6799 385.981 87.491 384.041 88.6277Z" fill="#ED1C24"/>
<path d="M466.184 79.9027C465.681 81.064 464.619 81.9979 462.998 82.7291C461.838 83.2637 460.254 83.5832 458.253 83.6692C456.252 83.7737 453.833 83.8167 450.991 83.8167H448.173V68.8674H449.861C453.397 68.8674 456.141 68.892 458.093 68.9411C460.046 68.9842 461.679 69.2668 462.998 69.7706C464.459 70.3421 465.485 71.2084 466.062 72.3758C466.645 73.5494 466.933 74.723 466.933 75.8904C466.933 77.4081 466.688 78.7414 466.184 79.9027ZM486.037 93.4572C483.342 90.5939 479.708 88.7076 475.116 87.7921V87.4234C478.364 85.9795 480.881 83.9641 482.661 81.3773C484.441 78.7783 485.331 75.7921 485.331 72.4004C485.331 69.4818 484.68 66.8828 483.385 64.6032C482.084 62.3298 480.101 60.5172 477.437 59.1655C474.871 57.8751 472.28 57.0518 469.665 56.6708C467.05 56.296 462.925 56.1056 457.289 56.1056H430.144V126.299H460.715C465.791 126.299 469.99 125.863 473.299 124.978C476.602 124.099 479.64 122.618 482.397 120.535C484.785 118.778 486.651 116.566 488.02 113.887C489.383 111.221 490.07 108.179 490.07 104.775C490.07 100.099 488.72 96.3205 486.037 93.4572ZM470.254 109.076C469.548 110.397 468.259 111.454 466.387 112.247C464.545 113.045 462.532 113.457 460.346 113.488C458.161 113.519 454.539 113.531 449.487 113.531H448.173V95.8535H452.108C454.791 95.8535 457.363 95.8658 459.837 95.9026C462.299 95.9272 464.232 96.1484 465.638 96.5662C467.701 97.1684 469.156 98.0839 470.015 99.3066C470.874 100.529 471.304 102.268 471.304 104.523C471.304 106.244 470.954 107.761 470.254 109.076Z" fill="#ED1C24"/>
<path d="M524.615 115.406C522.921 116.1 521.251 116.451 519.6 116.451C517.531 116.451 516.003 116.303 515.027 115.996C514.05 115.695 513.209 115.228 512.51 114.595C511.779 113.962 511.319 113.299 511.135 112.598C510.95 111.898 510.864 110.988 510.864 109.882C510.864 108.199 511.294 106.841 512.166 105.815C513.038 104.776 514.296 103.99 515.941 103.455C517.279 103.007 519.25 102.626 521.847 102.288C524.437 101.956 526.85 101.692 529.078 101.501V112.641C527.795 113.784 526.31 114.712 524.615 115.406ZM529.078 126.3H546.021V90.2387C546.021 83.8793 543.885 79.2157 539.624 76.248C535.364 73.268 528.44 71.781 518.857 71.781C514.824 71.781 510.809 72.1067 506.801 72.7395C502.786 73.3847 499.888 73.9377 498.114 74.4047V87.0989H499.649C501.006 86.5582 503.259 85.7779 506.389 84.7764C509.52 83.7748 512.461 83.271 515.223 83.271C519.809 83.271 523.283 83.8424 525.64 84.9853C527.998 86.1281 529.17 88.1926 529.17 91.1849V91.4737C524.241 91.7564 519.483 92.2049 514.898 92.8009C510.312 93.4092 506.463 94.4169 503.369 95.8424C500.238 97.2617 497.82 99.2156 496.113 101.68C494.406 104.15 493.559 107.332 493.559 111.222C493.559 116.1 495.229 120.1 498.581 123.24C501.926 126.368 506.076 127.941 511.036 127.941C513.148 127.941 515.088 127.725 516.85 127.308C518.618 126.884 520.318 126.288 521.963 125.495C523.142 124.936 524.394 124.162 525.726 123.191C527.058 122.214 528.176 121.385 529.078 120.69V126.3Z" fill="#ED1C24"/>
<path d="M609.504 126.296H592.561V99.9367C592.561 97.7923 592.457 95.6602 592.23 93.5282C592.009 91.3961 591.634 89.8231 591.1 88.8154C590.474 87.648 589.553 86.8001 588.344 86.2655C587.135 85.7248 585.446 85.4545 583.279 85.4545C581.739 85.4545 580.179 85.7064 578.596 86.2164C577.012 86.7202 575.287 87.5251 573.439 88.6249V126.296H556.496V73.4238H573.439V79.1073C576.441 76.7417 579.326 74.9291 582.101 73.6696C584.876 72.41 587.951 71.7832 591.333 71.7832C597.03 71.7832 601.481 73.4483 604.691 76.7909C607.896 80.1273 609.504 85.1165 609.504 91.7647V126.296Z" fill="#ED1C24"/>
<path d="M676 126.296H656.411L641.488 103.169L636.835 108.865V126.296H619.898V52.9999H636.835V96.5389L654.987 73.4238H674.729L655.62 96.2133L676 126.296Z" fill="#ED1C24"/>
</svg>
