<svg width="800" height="180" viewBox="0 0 800 180" fill="none" xmlns="http://www.w3.org/2000/svg">
<rect width="800" height="180" rx="15" fill="#ED1C24"/>
<path d="M110.837 101.735C107.451 105.661 102.462 108.142 96.8702 108.142C86.7054 108.142 78.4708 99.9042 78.4708 89.7301C78.4708 79.5599 86.7054 71.3177 96.8702 71.3177C107.035 71.3177 115.277 79.5599 115.277 89.7301V136.643H143.775L143.752 89.9249C143.752 64.0026 122.765 43 96.8702 43C70.9873 43 50 64.0026 50 89.9249C50 115.839 70.9873 136.842 96.8702 136.842C101.723 136.842 106.408 136.106 110.814 134.727L110.837 101.735Z" fill="#FFF200"/>
<path d="M110.837 101.735C107.451 105.661 102.462 108.142 96.8702 108.142C86.7054 108.142 78.4708 99.9042 78.4708 89.7301C78.4708 79.5599 86.7054 71.3177 96.8702 71.3177C107.035 71.3177 115.277 79.5599 115.277 89.7301V136.643H143.775L143.752 89.9248C143.752 64.0026 122.765 43 96.8702 43C70.9873 43 50 64.0026 50 89.9248C50 115.839 70.9873 136.842 96.8702 136.842C101.723 136.842 106.408 136.106 110.814 134.727L110.837 101.735Z" stroke="#FFF200" stroke-width="0.275"/>
<path d="M156.919 136.447C158.95 136.715 161.032 136.856 163.126 136.856C189.017 136.856 210 115.849 210 89.9425C210 64.0242 189.017 43.0138 163.126 43.0138C151.805 43.0138 141.399 47.0453 133.289 53.7488L133.344 53.854C140.403 61.0366 145.353 70.2915 147.201 80.6176L147.272 80.5903C150.474 75.1527 156.378 71.5224 163.126 71.5224C173.298 71.5224 181.533 79.7645 181.533 89.9425C181.533 100.101 173.298 108.359 163.126 108.359C160.943 108.359 158.845 107.973 156.884 107.264L156.919 136.447Z" fill="#FFF200"/>
<path d="M156.919 136.447C158.95 136.715 161.032 136.856 163.126 136.856C189.017 136.856 210 115.849 210 89.9425C210 64.0242 189.017 43.0138 163.126 43.0138C151.805 43.0138 141.399 47.0453 133.289 53.7488L133.344 53.854C140.403 61.0366 145.353 70.2915 147.201 80.6176L147.272 80.5903C150.474 75.1527 156.378 71.5224 163.126 71.5224C173.298 71.5224 181.533 79.7645 181.533 89.9425C181.533 100.101 173.298 108.359 163.126 108.359C160.943 108.359 158.845 107.973 156.884 107.264L156.919 136.447Z" stroke="#FFF200" stroke-width="0.275"/>
<path d="M272.672 95.7997L278.194 79.7126L283.716 95.7997H272.672ZM285.087 67.9942H271.681L255 113.164H266.747L269.899 104.011H286.489L289.645 113.164H301.767L285.087 67.9942Z" fill="#FFF200"/>
<path d="M337.388 88.9245V113.164H326.49V96.0804C326.49 94.416 326.446 93.0006 326.367 91.8343C326.288 90.664 326.067 89.7152 325.704 88.9838C325.34 88.2563 324.791 87.7226 324.057 87.3865C323.318 87.0544 322.287 86.8844 320.956 86.8844C319.889 86.8844 318.847 87.1019 317.839 87.5368C316.832 87.9756 315.924 88.4382 315.122 88.9245V113.164H304.22V79.1394H315.122V82.7964C316.99 81.3178 318.779 80.1633 320.49 79.3331C322.2 78.5028 324.092 78.0838 326.162 78.0838C328.398 78.0838 330.369 78.5859 332.079 79.5901C333.789 80.5943 335.128 82.069 336.092 84.0141C338.265 82.1718 340.378 80.7208 342.428 79.6692C344.482 78.6135 346.492 78.0838 348.463 78.0838C352.125 78.0838 354.906 79.1908 356.806 81.4008C358.706 83.6069 359.658 86.7895 359.658 90.9408V113.164H348.76V96.0804C348.76 94.3962 348.72 92.9769 348.649 91.8145C348.582 90.6601 348.365 89.7152 348.001 88.9838C347.658 88.2563 347.116 87.7226 346.37 87.3865C345.623 87.0544 344.573 86.8844 343.226 86.8844C342.317 86.8844 341.429 87.0426 340.563 87.3589C339.698 87.6712 338.636 88.1931 337.388 88.9245Z" fill="#FFF200"/>
<path d="M390.242 83.3104C389.919 84.0576 389.235 84.6586 388.192 85.129C387.446 85.473 386.427 85.6786 385.139 85.7339C383.851 85.8011 382.295 85.8288 380.466 85.8288H378.653V76.2098H379.739C382.015 76.2098 383.78 76.2256 385.036 76.2572C386.292 76.2849 387.343 76.4668 388.192 76.791C389.132 77.1586 389.792 77.7161 390.163 78.4673C390.539 79.2224 390.724 79.9775 390.724 80.7287C390.724 81.7052 390.566 82.5632 390.242 83.3104ZM403.017 92.032C401.283 90.1896 398.944 88.9759 395.99 88.3868V88.1496C398.079 87.2205 399.699 85.9237 400.844 84.2592C401.99 82.5869 402.562 80.6655 402.562 78.4831C402.562 76.6051 402.144 74.9328 401.31 73.466C400.473 72.0032 399.197 70.8369 397.483 69.9671C395.832 69.1368 394.165 68.6071 392.482 68.3619C390.799 68.1208 388.145 67.9982 384.519 67.9982H367.052V113.164H386.723C389.99 113.164 392.691 112.883 394.82 112.314C396.945 111.748 398.901 110.796 400.674 109.455C402.211 108.325 403.412 106.901 404.292 105.178C405.169 103.462 405.612 101.505 405.612 99.3145C405.612 96.3058 404.743 93.8743 403.017 92.032ZM392.861 102.082C392.407 102.932 391.578 103.612 390.373 104.122C389.188 104.636 387.892 104.901 386.486 104.921C385.08 104.94 382.749 104.948 379.499 104.948H378.653V93.5739H381.185C382.911 93.5739 384.566 93.5818 386.158 93.6055C387.742 93.6213 388.986 93.7636 389.891 94.0325C391.218 94.4199 392.154 95.009 392.707 95.7958C393.26 96.5825 393.537 97.7014 393.537 99.1524C393.537 100.259 393.312 101.236 392.861 102.082Z" fill="#FFF200"/>
<path d="M427.839 106.155C426.749 106.602 425.675 106.827 424.612 106.827C423.281 106.827 422.298 106.732 421.67 106.534C421.042 106.341 420.5 106.04 420.05 105.633C419.58 105.226 419.284 104.799 419.165 104.348C419.047 103.897 418.992 103.312 418.992 102.601C418.992 101.517 419.268 100.644 419.829 99.9834C420.39 99.3152 421.2 98.8092 422.258 98.4652C423.119 98.1766 424.387 97.9315 426.058 97.714C427.725 97.5006 429.277 97.3306 430.711 97.208V104.376C429.886 105.111 428.93 105.708 427.839 106.155ZM430.711 113.165H441.613V89.9611C441.613 85.8691 440.238 82.8684 437.497 80.9588C434.756 79.0413 430.3 78.0846 424.134 78.0846C421.539 78.0846 418.956 78.2941 416.377 78.7013C413.793 79.1164 411.929 79.4723 410.788 79.7727V87.9408H411.775C412.648 87.5929 414.098 87.0908 416.112 86.4464C418.127 85.8019 420.019 85.4777 421.796 85.4777C424.747 85.4777 426.982 85.8454 428.499 86.5808C430.016 87.3162 430.77 88.6446 430.77 90.5699V90.7558C427.599 90.9376 424.537 91.2262 421.587 91.6097C418.636 92.0011 416.159 92.6495 414.169 93.5668C412.154 94.48 410.598 95.7373 409.5 97.3226C408.402 98.912 407.857 100.96 407.857 103.463C407.857 106.602 408.931 109.175 411.088 111.196C413.24 113.208 415.911 114.22 419.102 114.22C420.461 114.22 421.709 114.082 422.843 113.813C423.98 113.54 425.075 113.157 426.133 112.647C426.892 112.287 427.697 111.789 428.554 111.164C429.412 110.535 430.13 110.002 430.711 109.555V113.165Z" fill="#FFF200"/>
<path d="M482.461 113.162H471.559V96.2013C471.559 94.8215 471.492 93.4496 471.346 92.0777C471.204 90.7058 470.963 89.6937 470.619 89.0453C470.216 88.2941 469.624 87.7485 468.846 87.4046C468.067 87.0567 466.981 86.8827 465.587 86.8827C464.595 86.8827 463.592 87.0448 462.573 87.373C461.554 87.6971 460.444 88.2151 459.255 88.9228V113.162H448.353V79.1416H459.255V82.7987C461.187 81.2765 463.043 80.1102 464.829 79.2998C466.614 78.4893 468.593 78.086 470.769 78.086C474.435 78.086 477.299 79.1574 479.364 81.3082C481.426 83.455 482.461 86.6653 482.461 90.943V113.162Z" fill="#FFF200"/>
<path d="M525.248 113.162H512.643L503.041 98.2809L500.047 101.946V113.162H489.149V65.9999H500.047V94.015L511.727 79.1416H524.43L512.134 93.8054L525.248 113.162Z" fill="#FFF200"/>
<path d="M585.598 110.583C583.584 111.369 580.913 112.156 577.592 112.935C574.262 113.71 570.952 114.101 567.65 114.101C559.991 114.101 553.998 112.014 549.665 107.831C545.332 103.652 543.168 97.8719 543.168 90.5064C543.168 83.4769 545.352 77.8154 549.721 73.5139C554.085 69.2125 560.172 67.0578 567.977 67.0578C570.936 67.0578 573.752 67.3266 576.43 67.8603C579.108 68.398 582.083 69.4576 585.365 71.0509V81.6069H584.066C583.505 81.1918 582.679 80.6067 581.593 79.8515C580.507 79.0964 579.464 78.4559 578.461 77.9222C577.295 77.2936 575.929 76.7519 574.372 76.3012C572.816 75.8505 571.161 75.6212 569.411 75.6212C567.361 75.6212 565.501 75.9256 563.838 76.5345C562.167 77.1433 560.666 78.0724 559.343 79.3257C558.075 80.5394 557.076 82.0813 556.345 83.9553C555.606 85.8293 555.243 87.988 555.243 90.4392C555.243 95.4365 556.558 99.2636 559.185 101.912C561.815 104.561 565.698 105.89 570.837 105.89C571.28 105.89 571.769 105.882 572.299 105.858C572.828 105.838 573.318 105.811 573.76 105.767V96.8558H564.853V88.2924H585.598V110.583Z" fill="#FFF200"/>
<path d="M616.688 89.7001H615.721C615.258 89.542 614.512 89.4234 613.489 89.3483C612.458 89.2692 611.605 89.2297 610.921 89.2297C609.369 89.2297 607.998 89.3285 606.809 89.5301C605.621 89.7357 604.345 90.0718 602.974 90.5541V113.161H592.076V79.1402H602.974V84.1414C605.372 82.0816 607.453 80.7334 609.227 80.0969C611 79.4604 612.628 79.1402 614.121 79.1402C614.5 79.1402 614.935 79.152 615.416 79.1718C615.902 79.1955 616.325 79.2232 616.688 79.2627V89.7001Z" fill="#FFF200"/>
<path d="M638.543 106.094C637.646 106.43 636.706 106.592 635.714 106.592C634.561 106.592 633.534 106.41 632.641 106.05C631.741 105.687 630.967 105.113 630.323 104.327C629.655 103.5 629.153 102.409 628.81 101.049C628.466 99.6891 628.3 98.08 628.3 96.2258C628.3 94.1502 628.494 92.4304 628.889 91.0624C629.28 89.6905 629.809 88.6112 630.477 87.8245C631.223 86.9823 632.005 86.417 632.823 86.1323C633.641 85.8556 634.573 85.7093 635.624 85.7093C636.67 85.7093 637.65 85.8832 638.558 86.2272C639.467 86.5672 640.241 87.1523 640.893 87.9786C641.537 88.7852 642.042 89.8645 642.402 91.2127C642.765 92.5608 642.951 94.2332 642.951 96.2258C642.951 98.3805 642.769 100.073 642.417 101.29C642.066 102.512 641.537 103.552 640.83 104.418C640.201 105.204 639.443 105.762 638.543 106.094ZM649.35 82.9299C646.119 79.7038 641.544 78.0868 635.624 78.0868C629.782 78.0868 625.223 79.692 621.957 82.9023C618.682 86.1126 617.047 90.5326 617.047 96.1665C617.047 101.761 618.674 106.169 621.925 109.387C625.176 112.609 629.742 114.219 635.624 114.219C641.505 114.219 646.071 112.609 649.322 109.387C652.577 106.169 654.2 101.761 654.2 96.1665C654.2 90.5761 652.585 86.16 649.35 82.9299Z" fill="#FFF200"/>
<path d="M692.567 113.163H681.669V109.506C679.654 111.048 677.81 112.218 676.139 113.017C674.468 113.819 672.469 114.219 670.155 114.219C666.41 114.219 663.523 113.135 661.496 110.969C659.474 108.798 658.463 105.596 658.463 101.361V79.1424H669.361V96.1032C669.361 97.8309 669.416 99.2661 669.527 100.413C669.637 101.559 669.894 102.508 670.301 103.259C670.684 104.01 671.269 104.56 672.043 104.904C672.821 105.248 673.907 105.422 675.302 105.422C676.234 105.422 677.261 105.248 678.394 104.904C679.524 104.56 680.614 104.05 681.669 103.378V79.1424H692.567V113.163Z" fill="#FFF200"/>
<path d="M721.629 103.581C720.215 105.277 718.062 106.123 715.175 106.123C714.365 106.123 713.548 106.083 712.722 106C711.893 105.921 711.114 105.735 710.388 105.451V88.2409C711.379 87.6558 712.418 87.2011 713.508 86.8888C714.598 86.5725 715.661 86.4183 716.692 86.4183C719.133 86.4183 720.922 87.1655 722.052 88.6679C723.186 90.1702 723.75 92.5898 723.75 95.9187C723.75 99.3307 723.043 101.885 721.629 103.581ZM731.469 82.7691C729.114 79.6458 725.816 78.0842 721.574 78.0842C719.287 78.0842 717.272 78.523 715.523 79.3849C713.777 80.2547 712.062 81.3538 710.388 82.6861V79.1398H699.49V125.594H710.388V111.504C711.802 112.251 713.188 112.828 714.539 113.243C715.894 113.658 717.541 113.868 719.484 113.868C721.586 113.868 723.557 113.461 725.394 112.65C727.23 111.836 728.877 110.642 730.331 109.056C731.725 107.558 732.855 105.652 733.712 103.336C734.569 101.027 735 98.4609 735 95.642C735 90.186 733.823 85.8964 731.469 82.7691Z" fill="#FFF200"/>
</svg>
