<svg width="500" height="350" viewBox="0 0 500 350" fill="none" xmlns="http://www.w3.org/2000/svg">
<rect width="500" height="350" rx="15" fill="#EA0029"/>
<path d="M327.603 184.918C326.488 183.068 325.14 181.598 323.55 180.509C322.417 179.74 321.345 179.126 320.325 178.659C321.051 177.994 321.785 177.337 322.555 176.697C323.531 175.876 324.37 174.83 325.053 173.559C325.736 172.288 326.082 170.516 326.082 168.234C326.082 165.641 325.563 163.272 324.535 161.129C323.498 158.985 321.717 157.265 319.175 155.968C316.633 154.671 313.064 154.023 308.456 154.023H290.908V206.996H310.046C314.014 206.996 317.446 206.477 320.334 205.448C323.22 204.42 325.425 202.803 326.964 200.607C328.502 198.412 329.272 195.542 329.272 191.989C329.272 189.128 328.719 186.776 327.603 184.918ZM296.631 159.503H309.018C312.562 159.503 315.346 160.126 317.359 161.371C319.373 162.615 320.377 165.036 320.377 168.641C320.377 171.13 319.849 172.971 318.786 174.164C317.723 175.357 316.391 176.127 314.775 176.464C313.158 176.809 311.481 176.982 309.735 176.982H296.631V159.512V159.503ZM321.725 198.057C320.506 199.518 318.907 200.478 316.918 200.953C314.93 201.429 312.804 201.671 310.522 201.671H296.622V182.368H310.279C311.819 182.368 313.366 182.463 314.922 182.644C316.487 182.835 317.913 183.232 319.21 183.837C320.506 184.442 321.552 185.376 322.348 186.612C323.143 187.857 323.54 189.534 323.54 191.652C323.54 194.461 322.935 196.588 321.717 198.049L321.725 198.057Z" fill="white"/>
<path d="M371.001 174.795C370.551 173.447 369.911 172.254 369.09 171.216C368.268 170.188 367.274 169.34 366.108 168.675C364.941 168.009 363.618 167.508 362.14 167.171C360.653 166.825 359.045 166.652 357.299 166.652C354.705 166.652 352.026 166.929 349.277 167.482C346.52 168.035 344.324 168.848 342.681 169.902V175.616C344.376 174.294 346.398 173.326 348.758 172.721C351.11 172.115 353.348 171.804 355.466 171.804C358.802 171.804 361.37 172.522 363.168 173.948C364.967 175.374 365.865 177.63 365.865 180.699V185.41C365.062 184.961 364.214 184.529 363.281 184.148C362.036 183.647 360.618 183.258 359.028 182.999C357.438 182.731 355.561 182.601 353.392 182.601C350.53 182.601 348.007 183.042 345.811 183.915C343.615 184.788 341.895 186.214 340.65 188.202C339.405 190.191 338.783 192.819 338.783 196.103C338.783 198.489 339.25 200.46 340.174 202.016C341.099 203.581 342.318 204.808 343.83 205.707C345.344 206.606 346.978 207.246 348.758 207.609C350.53 207.981 352.294 208.162 354.04 208.162C357.108 208.162 359.978 207.946 362.659 207.523C365.33 207.099 367.5 206.2 369.168 204.826C370.836 203.451 371.666 201.359 371.666 198.55V179.333C371.666 177.639 371.441 176.118 370.992 174.769L371.001 174.795ZM363.22 202.353C361.448 202.855 358.837 203.105 355.397 203.105C353.652 203.105 351.939 202.863 350.271 202.388C348.603 201.912 347.228 201.091 346.139 199.924C345.05 198.757 344.514 197.201 344.514 195.239C344.514 192.801 345.413 190.951 347.211 189.681C349.009 188.41 351.576 187.779 354.913 187.779C357.662 187.779 360.195 188.107 362.494 188.773C363.791 189.145 364.915 189.56 365.865 190.009V198.896C365.865 200.694 364.975 201.852 363.203 202.353H363.22Z" fill="white"/>
<path d="M384.379 170.543C385.65 169.903 386.965 169.341 388.313 168.831C389.661 168.321 391.036 167.915 392.445 167.603C393.845 167.284 395.272 167.05 396.733 166.886C398.184 166.73 399.654 166.644 401.141 166.644C405.005 166.644 408.074 167.214 410.355 168.356C412.629 169.497 414.289 171.148 415.317 173.317C416.355 175.487 416.865 178.106 416.865 181.184V206.996H411.151V181.184C411.151 180.233 411.031 179.222 410.796 178.167C410.555 177.112 410.096 176.092 409.405 175.107C408.713 174.13 407.659 173.335 406.223 172.721C404.788 172.107 402.887 171.805 400.51 171.805C398.867 171.805 397.173 171.934 395.427 172.202C393.681 172.47 391.908 172.868 390.101 173.395V206.987H384.388V170.534L384.379 170.543Z" fill="white"/>
<path d="M462.999 206.996L440.705 184.555L460.146 167.37H452.997L436.875 182.091V152.277H431.152V206.996H436.875V188.281L455.374 206.996H462.999Z" fill="white"/>
<path d="M259 153.85H265.051C265.83 153.85 266.459 154.481 266.459 155.259V165.494H277.084C277.862 165.494 278.493 166.125 278.493 166.903V171.104C278.493 171.882 277.862 172.513 277.084 172.513H266.459V187.243C266.459 195.896 269.597 199.077 277.982 199.371C278.743 199.397 279.339 200.02 279.339 200.772V205.639C279.339 206.434 278.675 207.065 277.879 207.048C263.062 206.667 257.582 200.417 257.582 187.857V155.259C257.582 154.481 258.213 153.85 258.991 153.85H259Z" fill="white"/>
<path d="M126.381 186.094C126.381 171.977 132.631 164.569 147.127 164.569C161.624 164.569 167.804 171.822 167.804 186.094C167.804 200.365 161.477 207.151 147.127 207.151C132.778 207.151 126.381 200.21 126.381 186.094ZM135.639 186.094C135.639 196.199 139.261 199.976 147.136 199.976C155.011 199.976 158.555 196.277 158.555 186.094C158.555 175.911 155.011 171.666 147.136 171.666C139.261 171.666 135.639 175.988 135.639 186.094Z" fill="white"/>
<path d="M173.5 186.094C173.5 171.977 179.75 164.569 194.246 164.569C208.743 164.569 214.924 171.822 214.924 186.094C214.924 200.365 208.596 207.151 194.246 207.151C179.897 207.151 173.5 200.21 173.5 186.094ZM182.759 186.094C182.759 196.199 186.38 199.976 194.256 199.976C202.13 199.976 205.675 196.277 205.675 186.094C205.675 175.911 202.13 171.666 194.256 171.666C186.38 171.666 182.759 175.988 182.759 186.094Z" fill="white"/>
<path d="M233.952 188.565C225.394 187.174 220.761 184.399 220.761 176.532C220.761 169.124 225.775 164.577 236.961 164.577C241.965 164.577 247.099 165.71 250.022 166.609C250.609 166.79 250.998 167.335 250.998 167.948V172.495C250.998 173.489 249.996 174.155 249.071 173.801C245.32 172.348 241.697 171.674 237.341 171.674C232.016 171.674 229.007 173.144 229.007 176.152C229.007 179.549 233.018 180.932 239.423 182.013C247.679 183.405 252.226 185.946 252.226 194.124C252.226 202.301 247.679 207.004 235.413 207.004C229.672 207.004 224.331 205.776 220.934 204.315C220.415 204.091 220.078 203.581 220.078 203.019V198.515C220.069 197.486 221.124 196.821 222.057 197.227C226.249 199.042 230.97 199.898 234.946 199.898C241.04 199.898 244.048 198.204 244.048 194.651C244.048 191.098 241.508 189.793 233.943 188.557L233.952 188.565Z" fill="white"/>
<path d="M109.964 174.225C103.515 163.498 92.9953 163.204 91.4392 163.238C91.4479 161.743 91.1367 151.136 80.5215 144.765C80.3573 144.653 76.45 142.025 70.4249 142.025C66.5263 142.025 62.6104 143.114 58.8155 145.258C52.0556 148.845 49.6784 156.176 49.1079 158.337C48.7794 159.599 48.6238 160.723 48.4942 162.823V187.105C48.4942 187.244 48.4855 188.972 48.8918 190.598C49.1943 191.765 49.3326 192.378 49.834 193.623C50.6985 195.81 52.436 198.403 54.2426 200.227L54.6057 200.59C56.8964 202.847 58.5561 203.772 60.0084 204.429C61.2273 204.982 62.7313 205.457 63.907 205.751C65.5926 206.175 67.2524 206.183 67.2696 206.183H91.9147C93.9634 206.054 95.0785 205.898 96.3405 205.57C98.5016 204.999 105.832 202.622 109.402 195.897C116.344 183.587 109.99 174.268 109.955 174.225H109.964Z" fill="#EA0029"/>
<path d="M102.322 178.807C100.532 175.315 97.4118 173.102 93.0551 172.228C92.7266 172.159 92.3549 172.125 92.0004 172.082L91.525 172.03C91.2397 171.995 90.8335 171.952 90.1505 171.952H89.7789H82.7251V164.941C82.751 164.025 82.7078 163.524 82.6645 163.187L82.6127 162.702C82.5781 162.357 82.5349 161.976 82.4657 161.639C81.5927 157.282 79.3798 154.162 75.8874 152.372C73.2077 150.998 70.7526 150.946 70.7267 150.946H70.3377C69.6548 150.946 69.1362 150.972 68.5311 151.058C57.0601 152.606 57.1897 163.627 57.2071 164.094V184.538C57.2071 188.636 58.3307 191.886 60.5351 194.202C62.8086 196.381 66.0502 197.496 70.1563 197.496H90.7039C91.8708 197.496 102.158 197.176 103.644 186.172C103.74 185.472 103.774 184.875 103.757 183.985C103.757 183.959 103.714 181.504 102.33 178.815L102.322 178.807Z" fill="white"/>
<path d="M108.261 133H50.4133C43.5583 133 38 138.558 38 145.413V204.264C38 211.119 43.5583 216.677 50.4133 216.677H108.253C115.108 216.677 120.666 211.119 120.666 204.264V145.413C120.666 138.558 115.108 133 108.253 133H108.261ZM109.411 195.896C105.841 202.622 98.5104 205.008 96.3493 205.569C95.0872 205.898 93.9721 206.054 91.9234 206.183H91.8975H67.2698C67.2611 206.183 65.5927 206.175 63.9072 205.751C62.7315 205.457 61.2273 204.982 60.0085 204.428C58.5562 203.763 56.8966 202.838 54.6057 200.59L54.2427 200.227C52.4361 198.403 50.7071 195.81 49.8341 193.623C49.3414 192.378 49.1944 191.773 48.8919 190.597C48.4769 188.972 48.4942 187.243 48.4942 187.105V162.823C48.6239 160.714 48.7795 159.599 49.108 158.337C49.6785 156.175 52.0557 148.845 58.8156 145.258C62.6192 143.114 66.5263 142.025 70.4249 142.025C76.45 142.025 80.3573 144.653 80.5215 144.765C91.1368 151.145 91.448 161.743 91.4394 163.238C92.9866 163.203 103.507 163.489 109.964 174.225C109.999 174.277 116.352 183.587 109.411 195.896Z" fill="white"/>
<path d="M471.529 153.75H468.271V162.246H466.28V153.75H463V152H471.529V153.75Z" fill="white"/>
<path d="M481.449 162.236V155.458L478.814 160.507H477.728L475.093 155.458V162.236H473.1V152H475.23L478.256 157.829L481.313 152H483.431V162.236H481.439H481.449Z" fill="white"/>
<path d="M414.003 220.066C413.306 220.066 412.664 220.751 412.548 221.626L412.021 225.452C411.904 226.327 412.358 227.013 413.044 227.013C413.728 227.013 414.383 226.327 414.509 225.452L415.035 221.626C415.152 220.751 414.699 220.066 414.003 220.066ZM406.74 235.414L408.553 222.69C408.953 219.886 411.926 217.43 415.099 217.43C418.273 217.43 419.853 219.665 419.537 221.826L419.273 223.671C419.052 225.231 417.914 226.717 415.88 227.824L417.956 231.345C418.198 231.735 418.293 232.325 418.198 232.958C417.988 234.297 416.975 235.404 415.88 235.404C415.279 235.404 414.803 235.077 414.519 234.571L411.462 229.279L410.935 232.99C410.746 234.328 409.734 235.404 408.669 235.404H406.74V235.414Z" fill="white"/>
<path d="M421.582 220.244C421.792 218.695 423.016 217.409 424.26 217.409C425.503 217.409 426.336 218.695 426.125 220.244L425.251 226.664H427.707L428.613 220.244C428.823 218.695 430.046 217.409 431.29 217.409C432.534 217.409 433.378 218.695 433.155 220.244L431.437 232.578C431.216 234.138 430.004 235.414 428.76 235.414C427.516 235.414 426.684 234.128 426.894 232.578L427.443 228.583H424.955L424.406 232.578C424.196 234.138 422.973 235.414 421.729 235.414H419.484L421.591 220.234L421.582 220.244Z" fill="white"/>
<path d="M440.566 220.065C439.776 220.065 439.058 220.866 438.891 221.857L438.605 223.618C438.437 224.609 438.995 225.41 439.785 225.41C440.577 225.41 441.314 224.609 441.483 223.618L441.767 221.857C441.937 220.866 441.368 220.065 440.577 220.065M439.618 226.601C438.826 226.601 438.089 227.413 437.941 228.393L437.583 230.965C437.435 231.945 437.963 232.747 438.753 232.747C439.543 232.747 440.313 231.945 440.451 230.965L440.808 228.393C440.957 227.413 440.408 226.601 439.607 226.601M445.752 222.574C445.563 223.776 444.91 224.935 443.77 226.011C444.562 226.843 444.888 227.95 444.72 229.026L444.562 230.122C444.129 232.968 441.187 235.414 438.036 235.414H433.039L434.884 222.669C435.295 219.854 438.257 217.409 441.431 217.409C444.603 217.409 446.206 219.643 445.879 221.794L445.763 222.574H445.752Z" fill="white"/>
<path d="M454.618 218.163L446.4 226.388L454.625 234.607L462.844 226.382L454.618 218.163Z" fill="white"/>
<path d="M262.383 224.503C261.455 223.385 260.032 222.827 258.113 222.827C257.755 222.827 257.323 222.88 256.827 222.974C256.332 223.069 255.847 223.196 255.373 223.343C255.162 223.407 254.973 223.48 254.792 223.544V217.777H253V233.305C253 233.801 253.138 234.212 253.401 234.528C253.665 234.844 254.023 235.097 254.476 235.287C254.93 235.477 255.456 235.614 256.047 235.688C256.637 235.761 257.249 235.804 257.892 235.804C258.535 235.804 259.179 235.719 259.852 235.54C260.527 235.361 261.159 235.045 261.75 234.57C262.34 234.096 262.825 233.421 263.205 232.536C263.584 231.65 263.774 230.491 263.774 229.067C263.774 227.149 263.311 225.631 262.383 224.513V224.503ZM261.581 231.555C261.371 232.325 260.97 232.947 260.38 233.432C259.779 233.917 258.894 234.148 257.723 234.148C257.323 234.148 256.901 234.117 256.447 234.064C255.995 234.011 255.605 233.885 255.278 233.706C254.951 233.526 254.792 233.252 254.792 232.883V225.336C255.309 225.041 255.858 224.819 256.458 224.682C257.048 224.545 257.608 224.471 258.124 224.471C259.03 224.471 259.768 224.672 260.306 225.051C260.843 225.431 261.254 225.979 261.507 226.664C261.762 227.349 261.888 228.15 261.888 229.057C261.888 229.964 261.782 230.786 261.581 231.555Z" fill="white"/>
<path d="M275.391 223.027L271.479 233.126L267.548 223.027H265.514L270.648 235.466C270.49 235.951 270.309 236.415 270.12 236.836C269.878 237.364 269.582 237.785 269.235 238.101C268.887 238.418 268.433 238.576 267.864 238.576C267.632 238.576 267.422 238.555 267.241 238.502C267.063 238.449 266.916 238.407 266.799 238.354V239.988C266.936 240.041 267.094 240.083 267.295 240.136C267.496 240.189 267.717 240.21 267.97 240.21C268.37 240.21 268.792 240.115 269.246 239.925C269.698 239.735 270.151 239.377 270.616 238.871C271.079 238.365 271.49 237.616 271.869 236.636L277.184 223.027H275.391Z" fill="white"/>
<path d="M319.506 222.501C321.203 222.501 322.553 222.701 323.734 223.892C324.619 224.788 324.915 226.169 324.915 227.877V235.172H321.91V234.518L321.825 234.603C321.825 234.603 321.614 234.803 321.098 235.003C320.581 235.204 319.749 235.414 318.515 235.414C317.377 235.414 316.006 235.13 315.279 234.529C314.573 233.949 313.961 232.979 313.961 231.598C313.961 230.386 314.573 229.237 315.342 228.626C316.228 227.94 317.503 227.666 318.98 227.666C320.454 227.666 321.847 227.824 321.847 227.824H321.899V227.782C321.899 227.782 321.899 227.687 321.899 227.55C321.899 227.15 321.825 226.327 321.224 225.832C320.698 225.4 319.896 225.294 318.957 225.294C318.031 225.294 316.512 225.526 315.353 225.916V224.24C315.353 223.892 315.532 223.629 315.785 223.439C316.09 223.207 317.724 222.511 319.485 222.511M317.841 232.916C318.23 233.159 318.695 233.274 319.179 233.274C319.654 233.274 320.16 233.169 320.623 232.958C321.594 232.547 321.888 231.63 321.888 230.955V229.922C321.888 229.922 321.172 229.669 319.865 229.669C319.781 229.669 319.686 229.669 319.601 229.669C318.442 229.701 317.724 230.049 317.377 230.607C317.23 230.839 317.135 231.177 317.135 231.524C317.135 232.041 317.334 232.589 317.841 232.905M350.362 222.501C352.059 222.501 353.408 222.701 354.588 223.892C355.474 224.788 355.769 226.169 355.769 227.877V235.172H352.764V234.518L352.681 234.603C352.681 234.603 352.47 234.803 351.953 235.003C351.437 235.204 350.604 235.414 349.371 235.414C348.233 235.414 346.862 235.13 346.135 234.529C345.428 233.949 344.828 232.979 344.828 231.598C344.828 230.386 345.438 229.237 346.208 228.626C347.093 227.94 348.369 227.666 349.845 227.666C351.31 227.666 352.712 227.824 352.712 227.824H352.764V227.782C352.764 227.782 352.764 227.687 352.764 227.55C352.764 227.15 352.692 226.327 352.091 225.832C351.574 225.4 350.762 225.294 349.824 225.294C348.896 225.294 347.379 225.526 346.219 225.916V224.24C346.219 223.892 346.397 223.629 346.65 223.439C346.957 223.207 348.59 222.511 350.351 222.511M348.707 232.916C349.097 233.159 349.56 233.274 350.046 233.274C350.52 233.274 351.026 233.169 351.489 232.958C352.459 232.547 352.755 231.63 352.755 230.955V229.922C352.755 229.922 352.037 229.669 350.73 229.669C350.646 229.669 350.551 229.669 350.468 229.669C349.296 229.701 348.59 230.049 348.242 230.607C348.095 230.839 348 231.177 348 231.524C348 232.041 348.201 232.589 348.707 232.905M371.318 222.501C373.016 222.501 374.365 222.701 375.546 223.892C376.431 224.788 376.725 226.169 376.725 227.877V235.172H373.722V234.518L373.637 234.603C373.637 234.603 373.427 234.803 372.91 235.003C372.393 235.204 371.561 235.414 370.327 235.414C369.189 235.414 367.818 235.13 367.091 234.529C366.385 233.949 365.773 232.979 365.773 231.598C365.773 230.386 366.385 229.237 367.155 228.626C368.04 227.94 369.315 227.666 370.792 227.666C372.257 227.666 373.659 227.824 373.659 227.824H373.711V227.782C373.711 227.782 373.722 227.687 373.722 227.55C373.722 227.15 373.648 226.327 373.047 225.832C372.519 225.4 371.719 225.294 370.781 225.294C369.853 225.294 368.335 225.526 367.175 225.916V224.24C367.175 223.892 367.355 223.629 367.608 223.439C367.913 223.207 369.548 222.511 371.308 222.511M369.663 232.916C370.053 233.159 370.517 233.274 371.002 233.274C371.476 233.274 371.982 233.169 372.447 232.958C373.415 232.547 373.711 231.63 373.711 230.955V229.922C373.711 229.922 372.995 229.669 371.688 229.669C371.602 229.669 371.508 229.669 371.424 229.669C370.264 229.701 369.548 230.049 369.2 230.607C369.051 230.839 368.956 231.177 368.956 231.524C368.956 232.041 369.157 232.589 369.663 232.905M359.016 234.613C359.627 235.172 360.355 235.383 361.452 235.383C362.601 235.383 363.434 235.119 364.161 234.708V232.547C363.676 232.768 363.127 232.895 362.526 232.895C362.095 232.895 361.747 232.779 361.515 232.537C361.282 232.283 361.188 231.925 361.188 231.482V225.273H363.908L365.373 222.648H361.177V217.905C359.944 218.337 358.911 219.043 358.553 219.465C358.162 219.929 358.025 220.319 358.025 221.078V231.693C358.025 233.159 358.395 234.065 359.006 234.613M342.877 235.172V222.311C342.519 222.395 341.033 222.849 340.231 223.692C339.884 224.051 339.703 224.462 339.703 224.799V235.182H342.877V235.172ZM334.928 235.172L332.314 231.366L329.668 235.172H326.073L330.395 228.942L325.936 222.648H329.816L332.314 226.538L332.357 226.475C332.357 226.475 333.411 224.841 333.864 224.177C334.729 222.912 336.046 222.648 336.931 222.648H338.45L334.086 228.742L338.407 235.172H334.928Z" fill="white"/>
<path d="M297.74 217.261V228.014C296.518 227.307 289.644 223.344 288.422 222.637C289.644 221.931 296.518 217.967 297.74 217.261Z" fill="white"/>
<path d="M297.74 229.785V240.537C296.518 239.831 289.644 235.867 288.422 235.161C289.644 234.455 296.518 230.491 297.74 229.785Z" fill="white"/>
<path d="M308.587 223.522V234.275C307.364 233.569 300.491 229.605 299.268 228.899C300.491 228.192 307.364 224.229 308.587 223.522Z" fill="white"/>
<path d="M298.762 217.261C299.985 217.967 306.858 221.931 308.081 222.637C306.858 223.344 299.985 227.307 298.762 228.014V217.261Z" fill="white"/>
<path d="M298.762 229.785C299.985 230.491 306.858 234.455 308.081 235.161C306.858 235.867 299.985 239.831 298.762 240.537V229.785Z" fill="white"/>
<path d="M287.914 211C289.136 211.706 296.01 215.67 297.232 216.376C296.01 217.082 289.136 221.046 287.914 221.752V211Z" fill="white"/>
<path d="M399.814 235.593L397.041 232.283C397.441 231.618 397.757 230.944 398.012 230.259C398.265 229.552 398.432 228.93 398.527 228.382H396.915C396.863 228.561 396.799 228.804 396.704 229.099C396.608 229.394 396.504 229.71 396.366 230.058C396.251 230.364 396.102 230.67 395.944 230.965L392.171 226.474C392.803 226.105 393.352 225.747 393.804 225.388C394.3 224.998 394.68 224.577 394.944 224.113C395.208 223.649 395.343 223.111 395.343 222.5C395.343 221.825 395.174 221.203 394.838 220.655C394.501 220.097 394.047 219.664 393.488 219.337C392.93 219.011 392.287 218.853 391.58 218.853C390.873 218.853 390.273 219.021 389.704 219.359C389.135 219.696 388.681 220.149 388.333 220.708C387.997 221.267 387.828 221.899 387.828 222.595C387.828 223.175 388.006 223.775 388.376 224.408C388.735 225.04 389.103 225.578 389.471 226.021C388.661 226.495 388.017 226.991 387.543 227.528C387.006 228.129 386.636 228.73 386.425 229.331C386.215 229.932 386.109 230.49 386.109 231.018C386.109 231.481 386.204 231.987 386.394 232.536C386.584 233.084 386.879 233.6 387.29 234.096C387.701 234.591 388.229 235.002 388.893 235.308C389.557 235.624 390.358 235.782 391.307 235.782C391.981 235.782 392.634 235.666 393.246 235.445C393.858 235.224 394.416 234.939 394.933 234.591C395.312 234.328 395.65 234.053 395.966 233.758L397.495 235.582H399.825L399.814 235.593ZM390.168 221.224C390.568 220.834 391.054 220.645 391.623 220.645C392.192 220.645 392.688 220.824 393.088 221.182C393.488 221.541 393.689 221.994 393.689 222.531C393.689 222.816 393.636 223.111 393.53 223.417C393.425 223.723 393.183 224.039 392.824 224.376C392.487 224.682 391.959 225.03 391.275 225.42C391.054 225.167 390.821 224.882 390.579 224.556C390.304 224.187 390.074 223.839 389.873 223.491C389.672 223.143 389.577 222.858 389.577 222.648C389.577 222.099 389.778 221.635 390.189 221.245L390.168 221.224ZM393.53 233.474C392.867 233.864 392.149 234.053 391.37 234.053C390.652 234.053 390.074 233.938 389.609 233.706C389.146 233.474 388.787 233.189 388.545 232.841C388.292 232.493 388.123 232.145 388.028 231.808C387.933 231.471 387.88 231.197 387.88 230.975C387.88 230.68 387.954 230.322 388.092 229.9C388.229 229.478 388.523 229.015 388.977 228.519C389.345 228.108 389.873 227.707 390.548 227.307L394.88 232.472C394.51 232.82 394.079 233.157 393.551 233.474H393.53Z" fill="white"/>
</svg>
