<svg width="180" height="180" viewBox="0 0 180 180" fill="none" xmlns="http://www.w3.org/2000/svg">
<rect width="180" height="180" rx="15" fill="white"/>
<path d="M146.774 89.7421C134.209 68.8394 113.711 68.2668 110.679 68.334C110.696 65.4202 110.089 44.7531 89.4055 32.3394C89.0855 32.1205 81.4721 27 69.7322 27C62.1357 27 54.5056 29.1223 47.1112 33.2996C33.9395 40.2896 29.3076 54.5728 28.1959 58.7838C27.5559 61.2429 27.2527 63.4326 27 67.5256V114.839C27 115.109 26.9832 118.477 27.7748 121.644C28.3643 123.918 28.6338 125.114 29.6108 127.539C31.2952 131.801 34.6808 136.854 38.201 140.408L38.9084 141.115C43.3718 145.511 46.6059 147.313 49.4355 148.594C51.8106 149.672 54.7413 150.598 57.032 151.171C60.3165 151.996 63.5505 152.013 63.5841 152.013H111.605C115.597 151.76 117.77 151.457 120.229 150.817C124.44 149.705 138.723 145.073 145.68 131.969C159.205 107.984 146.825 89.8265 146.758 89.7421H146.774Z" fill="#EA0029"/>
<path d="M131.885 98.6686C128.398 91.8639 122.318 87.5519 113.829 85.8507C113.188 85.7161 112.464 85.6487 111.774 85.5643L110.847 85.4633C110.291 85.3959 109.5 85.3118 108.169 85.3118H107.445H93.7005V71.6516C93.751 69.8663 93.6669 68.8894 93.5825 68.2325L93.4815 67.2892C93.4141 66.6153 93.33 65.8743 93.1951 65.2174C91.4941 56.7282 87.1822 50.6478 80.3772 47.161C75.1558 44.4829 70.3721 44.3818 70.3216 44.3818H69.5637C68.2329 44.3818 67.2225 44.4323 66.0435 44.6008C43.6921 47.6159 43.9446 69.0914 43.9785 70.0009V109.836C43.9785 117.82 46.1679 124.153 50.4632 128.667C54.8931 132.912 61.2093 135.085 69.2101 135.085H109.247C111.521 135.085 131.565 134.461 134.462 113.019C134.647 111.655 134.714 110.493 134.681 108.758C134.681 108.708 134.597 103.924 131.902 98.6855L131.885 98.6686Z" fill="white"/>
</svg>
