<svg width="180" height="180" viewBox="0 0 180 180" fill="none" xmlns="http://www.w3.org/2000/svg">
<circle cx="90" cy="90" r="90" fill="white"/>
<path d="M146.774 88.7421C134.209 67.8394 113.711 67.2668 110.679 67.334C110.696 64.4202 110.089 43.7531 89.4055 31.3394C89.0855 31.1205 81.4721 26 69.7322 26C62.1357 26 54.5056 28.1223 47.1112 32.2996C33.9395 39.2896 29.3076 53.5728 28.1959 57.7838C27.5559 60.2429 27.2527 62.4326 27 66.5256V113.839C27 114.109 26.9832 117.477 27.7748 120.644C28.3643 122.918 28.6338 124.114 29.6108 126.539C31.2952 130.801 34.6808 135.854 38.201 139.408L38.9084 140.115C43.3718 144.511 46.6059 146.313 49.4355 147.594C51.8106 148.672 54.7413 149.598 57.032 150.171C60.3165 150.996 63.5505 151.013 63.5841 151.013H111.605C115.597 150.76 117.77 150.457 120.229 149.817C124.44 148.705 138.723 144.073 145.68 130.969C159.205 106.984 146.825 88.8265 146.758 88.7421H146.774Z" fill="#EA0029"/>
<path d="M131.885 97.6686C128.398 90.8639 122.318 86.5519 113.829 84.8507C113.188 84.7161 112.464 84.6487 111.774 84.5643L110.847 84.4633C110.291 84.3959 109.5 84.3118 108.169 84.3118H107.445H93.7005V70.6516C93.751 68.8663 93.6669 67.8894 93.5825 67.2325L93.4815 66.2892C93.4141 65.6153 93.33 64.8743 93.1951 64.2174C91.4941 55.7282 87.1822 49.6478 80.3772 46.161C75.1558 43.4829 70.3721 43.3818 70.3216 43.3818H69.5637C68.2329 43.3818 67.2225 43.4323 66.0435 43.6008C43.6921 46.6159 43.9446 68.0914 43.9785 69.0009V108.836C43.9785 116.82 46.1679 123.153 50.4632 127.667C54.8931 131.912 61.2093 134.085 69.2101 134.085H109.247C111.521 134.085 131.565 133.461 134.462 112.019C134.647 110.655 134.714 109.493 134.681 107.758C134.681 107.708 134.597 102.924 131.902 97.6855L131.885 97.6686Z" fill="white"/>
</svg>
