<svg width="800" height="150" viewBox="0 0 800 150" fill="none" xmlns="http://www.w3.org/2000/svg">
<rect width="800" height="150" rx="15" fill="#EA0029"/>
<path d="M483.164 87.3129C481.805 85.057 480.161 83.2649 478.221 81.9367C476.84 80.9986 475.533 80.25 474.289 79.6808C475.174 78.8691 476.07 78.0679 477.009 77.2878C478.199 76.2863 479.222 75.0109 480.055 73.4612C480.888 71.9116 481.31 69.7507 481.31 66.9676C481.31 63.8052 480.676 60.9167 479.423 58.3023C478.158 55.6881 475.986 53.5903 472.887 52.0091C469.787 50.4278 465.434 49.6372 459.815 49.6372H438.416V114.236H461.754C466.593 114.236 470.778 113.604 474.3 112.349C477.82 111.095 480.509 109.124 482.385 106.446C484.261 103.768 485.2 100.269 485.2 95.936C485.2 92.4467 484.525 89.5794 483.164 87.3129ZM445.395 56.3205H460.501C464.822 56.3205 468.218 57.0795 470.672 58.5976C473.129 60.1155 474.352 63.0672 474.352 67.4631C474.352 70.4991 473.709 72.7444 472.413 74.1991C471.116 75.6539 469.492 76.592 467.521 77.0031C465.549 77.4249 463.504 77.6357 461.375 77.6357H445.395V56.3311V56.3205ZM475.996 103.336C474.51 105.118 472.56 106.288 470.135 106.868C467.71 107.447 465.118 107.742 462.334 107.742H445.384V84.2032H462.039C463.917 84.2032 465.802 84.319 467.701 84.5405C469.609 84.7723 471.347 85.2573 472.929 85.9951C474.51 86.7331 475.786 87.8717 476.756 89.379C477.725 90.897 478.21 92.9421 478.21 95.5249C478.21 98.9508 477.472 101.544 475.986 103.326L475.996 103.336Z" fill="white"/>
<path d="M536.085 74.9684C535.536 73.3238 534.755 71.869 533.755 70.604C532.753 69.3496 531.54 68.3165 530.118 67.5048C528.695 66.6932 527.081 66.0816 525.279 65.6707C523.466 65.2489 521.505 65.0381 519.375 65.0381C516.213 65.0381 512.945 65.3754 509.593 66.05C506.231 66.7248 503.553 67.7157 501.549 69.0017V75.9697C503.616 74.3568 506.082 73.1762 508.961 72.4384C511.828 71.7004 514.558 71.3208 517.14 71.3208C521.209 71.3208 524.34 72.1959 526.533 73.9352C528.727 75.6746 529.822 78.4259 529.822 82.1682V87.9134C528.842 87.3652 527.808 86.8381 526.67 86.3743C525.153 85.7629 523.424 85.2886 521.484 84.9723C519.545 84.6454 517.256 84.4873 514.611 84.4873C511.121 84.4873 508.044 85.0249 505.366 86.0896C502.689 87.1544 500.591 88.8937 499.072 91.3183C497.555 93.7428 496.796 96.9476 496.796 100.953C496.796 103.863 497.365 106.266 498.492 108.164C499.621 110.072 501.106 111.569 502.951 112.665C504.797 113.761 506.789 114.541 508.961 114.984C511.121 115.438 513.273 115.659 515.402 115.659C519.143 115.659 522.643 115.395 525.911 114.879C529.169 114.362 531.815 113.266 533.849 111.59C535.884 109.914 536.895 107.363 536.895 103.937V80.5027C536.895 78.4365 536.622 76.5811 536.073 74.9366L536.085 74.9684ZM526.596 108.575C524.435 109.186 521.252 109.492 517.057 109.492C514.928 109.492 512.839 109.197 510.805 108.617C508.771 108.037 507.094 107.036 505.766 105.613C504.438 104.19 503.784 102.292 503.784 99.8991C503.784 96.9264 504.881 94.6705 507.073 93.121C509.266 91.5713 512.397 90.8017 516.465 90.8017C519.818 90.8017 522.907 91.2024 525.711 92.0141C527.293 92.4674 528.663 92.9734 529.822 93.5215V104.358C529.822 106.551 528.736 107.963 526.575 108.575H526.596Z" fill="white"/>
<path d="M552.402 69.7824C553.953 69.0024 555.556 68.3172 557.2 67.6953C558.843 67.0734 560.521 66.5778 562.239 66.1983C563.946 65.8084 565.686 65.5237 567.468 65.3234C569.238 65.1336 571.03 65.0283 572.843 65.0283C577.555 65.0283 581.298 65.724 584.08 67.1156C586.853 68.507 588.877 70.5204 590.131 73.1664C591.397 75.8123 592.018 79.0065 592.018 82.7593V114.236H585.051V82.7593C585.051 81.5997 584.904 80.3663 584.618 79.0803C584.324 77.7941 583.764 76.5503 582.921 75.3485C582.077 74.1574 580.792 73.1875 579.041 72.439C577.291 71.6906 574.972 71.3215 572.074 71.3215C570.071 71.3215 568.005 71.4797 565.876 71.8065C563.747 72.1333 561.584 72.6183 559.381 73.2613V114.226H552.413V69.772L552.402 69.7824Z" fill="white"/>
<path d="M648.278 114.236L621.091 86.8701L644.799 65.9134H636.08L616.42 83.8657V47.5078H609.441V114.236H616.42V91.4137L638.979 114.236H648.278Z" fill="white"/>
<path d="M399.507 49.4263H406.885C407.835 49.4263 408.603 50.1959 408.603 51.1446V63.6259H421.56C422.508 63.6259 423.278 64.3955 423.278 65.3442V70.4674C423.278 71.4161 422.508 72.1857 421.56 72.1857H408.603V90.1485C408.603 100.701 412.43 104.58 422.655 104.939C423.583 104.97 424.31 105.729 424.31 106.646V112.581C424.31 113.551 423.499 114.32 422.529 114.299C404.46 113.836 397.777 106.214 397.777 90.897V51.1446C397.777 50.1959 398.547 49.4263 399.495 49.4263H399.507Z" fill="white"/>
<path d="M237.777 88.7466C237.777 71.5322 245.399 62.498 263.077 62.498C280.756 62.498 288.292 71.3426 288.292 88.7466C288.292 106.151 280.576 114.426 263.077 114.426C245.578 114.426 237.777 105.961 237.777 88.7466ZM249.067 88.7466C249.067 101.07 253.484 105.676 263.088 105.676C272.691 105.676 277.013 101.165 277.013 88.7466C277.013 76.3287 272.691 71.1527 263.088 71.1527C253.484 71.1527 249.067 76.4236 249.067 88.7466Z" fill="white"/>
<path d="M295.239 88.7466C295.239 71.5322 302.861 62.498 320.539 62.498C338.217 62.498 345.755 71.3426 345.755 88.7466C345.755 106.151 338.038 114.426 320.539 114.426C303.04 114.426 295.239 105.961 295.239 88.7466ZM306.53 88.7466C306.53 101.07 310.946 105.676 320.55 105.676C330.153 105.676 334.476 101.165 334.476 88.7466C334.476 76.3287 330.153 71.1527 320.55 71.1527C310.946 71.1527 306.53 76.4236 306.53 88.7466Z" fill="white"/>
<path d="M368.957 91.7607C358.52 90.0636 352.871 86.6797 352.871 77.0869C352.871 68.0527 358.985 62.5078 372.626 62.5078C378.729 62.5078 384.99 63.8888 388.554 64.9852C389.27 65.2065 389.745 65.8706 389.745 66.6191V72.164C389.745 73.3762 388.523 74.188 387.394 73.7557C382.82 71.9848 378.402 71.1625 373.089 71.1625C366.596 71.1625 362.927 72.9546 362.927 76.623C362.927 80.7659 367.818 82.4526 375.629 83.7702C385.696 85.4675 391.241 88.5667 391.241 98.539C391.241 108.511 385.696 114.246 370.739 114.246C363.738 114.246 357.224 112.749 353.081 110.968C352.449 110.694 352.038 110.072 352.038 109.386V103.894C352.027 102.64 353.314 101.828 354.452 102.324C359.564 104.537 365.32 105.581 370.17 105.581C377.6 105.581 381.269 103.515 381.269 99.182C381.269 94.8495 378.171 93.2578 368.946 91.7503L368.957 91.7607Z" fill="white"/>
<path d="M217.759 74.2733C209.895 61.1912 197.066 60.8329 195.169 60.8749C195.179 59.0513 194.8 46.1167 181.855 38.3476C181.654 38.2105 176.889 35.0059 169.542 35.0059C164.788 35.0059 160.012 36.3341 155.385 38.9485C147.141 43.3232 144.242 52.2624 143.546 54.8979C143.146 56.4369 142.956 57.8074 142.798 60.369V89.9804C142.798 90.149 142.787 92.2573 143.283 94.2391C143.652 95.6623 143.82 96.4108 144.432 97.9287C145.486 100.596 147.605 103.758 149.808 105.983L150.251 106.425C153.044 109.177 155.068 110.305 156.839 111.106C158.326 111.78 160.16 112.36 161.593 112.719C163.649 113.235 165.673 113.246 165.694 113.246H195.748C198.247 113.088 199.607 112.898 201.146 112.497C203.781 111.802 212.72 108.902 217.074 100.701C225.539 85.6899 217.791 74.3261 217.749 74.2733H217.759Z" fill="#EA0029"/>
<path d="M208.44 79.8603C206.258 75.6016 202.452 72.903 197.139 71.8382C196.739 71.754 196.285 71.7118 195.853 71.659L195.273 71.5958C194.925 71.5536 194.43 71.5009 193.597 71.5009H193.144H184.542V62.9517C184.574 61.8343 184.521 61.2229 184.468 60.8118L184.405 60.2214C184.363 59.7997 184.31 59.3359 184.226 58.9248C183.161 53.6118 180.463 49.8064 176.204 47.6241C172.936 45.948 169.942 45.8848 169.91 45.8848H169.436C168.603 45.8848 167.971 45.9164 167.233 46.0218C153.244 47.9088 153.402 61.3494 153.423 61.9186V86.8495C153.423 91.8463 154.794 95.8099 157.482 98.635C160.254 101.292 164.207 102.651 169.215 102.651H194.272C195.695 102.651 208.24 102.261 210.053 88.8419C210.169 87.988 210.211 87.2606 210.19 86.1749C210.19 86.1433 210.137 83.1494 208.45 79.8709L208.44 79.8603Z" fill="white"/>
<path d="M215.682 24H145.138C136.778 24 130 30.7782 130 39.1377V110.905C130 119.264 136.778 126.043 145.138 126.043H215.672C224.031 126.043 230.809 119.264 230.809 110.905V39.1377C230.809 30.7782 224.031 24 215.672 24H215.682ZM217.084 100.701C212.731 108.902 203.791 111.812 201.156 112.497C199.617 112.897 198.257 113.087 195.759 113.245H195.727H165.694C165.683 113.245 163.649 113.235 161.593 112.718C160.16 112.36 158.325 111.78 156.839 111.105C155.068 110.294 153.044 109.166 150.25 106.425L149.808 105.982C147.605 103.758 145.496 100.595 144.431 97.9284C143.831 96.4103 143.651 95.6725 143.282 94.2388C142.776 92.257 142.798 90.1486 142.798 89.9799V60.3685C142.956 57.7965 143.145 56.4365 143.546 54.8974C144.242 52.262 147.141 43.3228 155.384 38.948C160.023 36.3337 164.787 35.0054 169.542 35.0054C176.889 35.0054 181.654 38.2101 181.854 38.3471C194.799 46.1269 195.179 59.0509 195.168 60.8745C197.055 60.8324 209.884 61.1803 217.759 74.273C217.801 74.3362 225.549 85.6896 217.084 100.701Z" fill="white"/>
<path d="M657.703 51.1767H654.445V59.6732H652.454V51.1767H649.174V49.4268H657.703V51.1767Z" fill="white"/>
<path d="M667.622 59.6627V52.8844L664.987 57.9338H663.902L661.267 52.8844V59.6627H659.273V49.4268H661.404L664.43 55.2562L667.486 49.4268H669.605V59.6627H667.613H667.622Z" fill="white"/>
<path d="M600.003 125.066C599.306 125.066 598.664 125.751 598.548 126.626L598.021 130.452C597.904 131.327 598.358 132.013 599.044 132.013C599.728 132.013 600.383 131.327 600.509 130.452L601.035 126.626C601.152 125.751 600.699 125.066 600.003 125.066ZM592.74 140.414L594.553 127.69C594.953 124.886 597.926 122.43 601.099 122.43C604.273 122.43 605.853 124.665 605.537 126.826L605.273 128.671C605.052 130.231 603.914 131.717 601.88 132.824L603.956 136.345C604.198 136.735 604.293 137.325 604.198 137.958C603.988 139.297 602.975 140.404 601.88 140.404C601.279 140.404 600.803 140.077 600.519 139.571L597.462 134.279L596.935 137.99C596.746 139.328 595.734 140.404 594.669 140.404H592.74V140.414Z" fill="white"/>
<path d="M607.582 125.244C607.792 123.695 609.016 122.409 610.26 122.409C611.503 122.409 612.336 123.695 612.125 125.244L611.251 131.664H613.707L614.613 125.244C614.823 123.695 616.046 122.409 617.29 122.409C618.534 122.409 619.378 123.695 619.155 125.244L617.437 137.578C617.216 139.138 616.004 140.414 614.76 140.414C613.516 140.414 612.684 139.128 612.894 137.578L613.443 133.583H610.955L610.406 137.578C610.196 139.138 608.973 140.414 607.729 140.414H605.484L607.591 125.234L607.582 125.244Z" fill="white"/>
<path d="M626.566 125.065C625.776 125.065 625.058 125.866 624.891 126.857L624.605 128.618C624.437 129.609 624.995 130.41 625.785 130.41C626.577 130.41 627.314 129.609 627.483 128.618L627.767 126.857C627.937 125.866 627.368 125.065 626.577 125.065M625.618 131.601C624.826 131.601 624.089 132.413 623.941 133.393L623.583 135.965C623.435 136.945 623.963 137.747 624.753 137.747C625.543 137.747 626.313 136.945 626.451 135.965L626.808 133.393C626.957 132.413 626.408 131.601 625.607 131.601M631.752 127.574C631.563 128.776 630.91 129.935 629.77 131.011C630.562 131.843 630.888 132.95 630.72 134.026L630.562 135.122C630.129 137.968 627.187 140.414 624.036 140.414H619.039L620.884 127.669C621.295 124.854 624.257 122.409 627.431 122.409C630.603 122.409 632.206 124.643 631.879 126.794L631.763 127.574H631.752Z" fill="white"/>
<path d="M640.618 123.163L632.4 131.388L640.625 139.607L648.844 131.382L640.618 123.163Z" fill="white"/>
<path d="M448.383 129.503C447.455 128.385 446.032 127.827 444.113 127.827C443.755 127.827 443.323 127.88 442.827 127.974C442.332 128.069 441.847 128.196 441.373 128.343C441.162 128.407 440.973 128.48 440.792 128.544V122.777H439V138.305C439 138.801 439.138 139.212 439.401 139.528C439.665 139.844 440.023 140.097 440.476 140.287C440.93 140.477 441.456 140.614 442.047 140.688C442.637 140.761 443.249 140.804 443.892 140.804C444.535 140.804 445.179 140.719 445.852 140.54C446.527 140.361 447.159 140.045 447.75 139.57C448.34 139.096 448.825 138.421 449.205 137.536C449.584 136.65 449.774 135.491 449.774 134.067C449.774 132.149 449.311 130.631 448.383 129.513V129.503ZM447.581 136.555C447.371 137.325 446.97 137.947 446.38 138.432C445.779 138.917 444.894 139.148 443.723 139.148C443.323 139.148 442.901 139.117 442.447 139.064C441.995 139.011 441.605 138.885 441.278 138.706C440.951 138.526 440.792 138.252 440.792 137.883V130.336C441.309 130.041 441.858 129.819 442.458 129.682C443.048 129.545 443.608 129.471 444.124 129.471C445.03 129.471 445.768 129.672 446.306 130.051C446.843 130.431 447.254 130.979 447.507 131.664C447.762 132.349 447.888 133.15 447.888 134.057C447.888 134.964 447.782 135.786 447.581 136.555Z" fill="white"/>
<path d="M461.391 128.027L457.479 138.126L453.548 128.027H451.514L456.648 140.466C456.49 140.951 456.309 141.415 456.12 141.836C455.878 142.364 455.582 142.785 455.235 143.101C454.887 143.418 454.433 143.576 453.864 143.576C453.632 143.576 453.422 143.555 453.241 143.502C453.063 143.449 452.916 143.407 452.799 143.354V144.988C452.936 145.041 453.094 145.083 453.295 145.136C453.496 145.189 453.717 145.21 453.97 145.21C454.37 145.21 454.792 145.115 455.246 144.925C455.698 144.735 456.151 144.377 456.616 143.871C457.079 143.365 457.49 142.616 457.869 141.636L463.184 128.027H461.391Z" fill="white"/>
<path d="M505.507 127.501C507.204 127.501 508.554 127.701 509.735 128.892C510.62 129.788 510.916 131.169 510.916 132.877V140.172H507.911V139.518L507.826 139.603C507.826 139.603 507.615 139.803 507.099 140.003C506.582 140.204 505.75 140.414 504.516 140.414C503.378 140.414 502.007 140.13 501.28 139.529C500.574 138.949 499.962 137.979 499.962 136.598C499.962 135.386 500.574 134.237 501.343 133.626C502.229 132.94 503.504 132.666 504.98 132.666C506.455 132.666 507.848 132.824 507.848 132.824H507.9V132.782C507.9 132.782 507.9 132.687 507.9 132.55C507.9 132.15 507.826 131.327 507.225 130.832C506.699 130.4 505.897 130.294 504.958 130.294C504.032 130.294 502.513 130.526 501.354 130.916V129.24C501.354 128.892 501.533 128.629 501.786 128.439C502.091 128.207 503.725 127.511 505.486 127.511M503.842 137.916C504.231 138.159 504.696 138.274 505.18 138.274C505.655 138.274 506.161 138.169 506.624 137.958C507.595 137.547 507.889 136.63 507.889 135.955V134.922C507.889 134.922 507.173 134.669 505.866 134.669C505.782 134.669 505.687 134.669 505.602 134.669C504.443 134.701 503.725 135.049 503.378 135.607C503.231 135.839 503.136 136.177 503.136 136.524C503.136 137.041 503.335 137.589 503.842 137.905M536.363 127.501C538.06 127.501 539.409 127.701 540.589 128.892C541.475 129.788 541.77 131.169 541.77 132.877V140.172H538.765V139.518L538.681 139.603C538.681 139.603 538.471 139.803 537.954 140.003C537.438 140.204 536.605 140.414 535.372 140.414C534.234 140.414 532.863 140.13 532.136 139.529C531.429 138.949 530.829 137.979 530.829 136.598C530.829 135.386 531.439 134.237 532.209 133.626C533.094 132.94 534.369 132.666 535.846 132.666C537.311 132.666 538.713 132.824 538.713 132.824H538.765V132.782C538.765 132.782 538.765 132.687 538.765 132.55C538.765 132.15 538.693 131.327 538.092 130.832C537.575 130.4 536.763 130.294 535.825 130.294C534.897 130.294 533.38 130.526 532.22 130.916V129.24C532.22 128.892 532.398 128.629 532.651 128.439C532.958 128.207 534.591 127.511 536.352 127.511M534.708 137.916C535.098 138.159 535.561 138.274 536.047 138.274C536.521 138.274 537.027 138.169 537.49 137.958C538.46 137.547 538.756 136.63 538.756 135.955V134.922C538.756 134.922 538.038 134.669 536.731 134.669C536.647 134.669 536.552 134.669 536.469 134.669C535.297 134.701 534.591 135.049 534.243 135.607C534.096 135.839 534.001 136.177 534.001 136.524C534.001 137.041 534.202 137.589 534.708 137.905M557.319 127.501C559.017 127.501 560.366 127.701 561.547 128.892C562.432 129.788 562.726 131.169 562.726 132.877V140.172H559.723V139.518L559.638 139.603C559.638 139.603 559.428 139.803 558.911 140.003C558.394 140.204 557.562 140.414 556.328 140.414C555.19 140.414 553.819 140.13 553.092 139.529C552.386 138.949 551.774 137.979 551.774 136.598C551.774 135.386 552.386 134.237 553.156 133.626C554.041 132.94 555.316 132.666 556.793 132.666C558.258 132.666 559.66 132.824 559.66 132.824H559.712V132.782C559.712 132.782 559.723 132.687 559.723 132.55C559.723 132.15 559.649 131.327 559.048 130.832C558.52 130.4 557.72 130.294 556.781 130.294C555.854 130.294 554.336 130.526 553.176 130.916V129.24C553.176 128.892 553.356 128.629 553.609 128.439C553.914 128.207 555.549 127.511 557.309 127.511M555.664 137.916C556.054 138.159 556.518 138.274 557.003 138.274C557.477 138.274 557.983 138.169 558.448 137.958C559.416 137.547 559.712 136.63 559.712 135.955V134.922C559.712 134.922 558.996 134.669 557.689 134.669C557.603 134.669 557.509 134.669 557.425 134.669C556.265 134.701 555.549 135.049 555.201 135.607C555.052 135.839 554.957 136.177 554.957 136.524C554.957 137.041 555.158 137.589 555.664 137.905M545.017 139.613C545.628 140.172 546.356 140.383 547.453 140.383C548.602 140.383 549.435 140.119 550.162 139.708V137.547C549.676 137.768 549.128 137.895 548.527 137.895C548.096 137.895 547.748 137.779 547.516 137.537C547.283 137.283 547.189 136.925 547.189 136.482V130.273H549.909L551.374 127.648H547.177V122.905C545.945 123.337 544.912 124.043 544.554 124.465C544.163 124.929 544.026 125.319 544.026 126.078V136.693C544.026 138.159 544.396 139.065 545.007 139.613M528.878 140.172V127.311C528.52 127.395 527.034 127.849 526.232 128.692C525.885 129.051 525.704 129.462 525.704 129.799V140.182H528.878V140.172ZM520.929 140.172L518.315 136.366L515.669 140.172H512.074L516.396 133.942L511.937 127.648H515.817L518.315 131.538L518.358 131.475C518.358 131.475 519.412 129.841 519.865 129.177C520.73 127.912 522.047 127.648 522.932 127.648H524.451L520.087 133.742L524.408 140.172H520.929Z" fill="white"/>
<path d="M483.739 122.261V133.014C482.517 132.307 475.643 128.344 474.421 127.637C475.643 126.931 482.517 122.967 483.739 122.261Z" fill="white"/>
<path d="M483.739 134.785V145.537C482.517 144.831 475.643 140.867 474.421 140.161C475.643 139.455 482.517 135.491 483.739 134.785Z" fill="white"/>
<path d="M494.587 128.522V139.275C493.364 138.569 486.491 134.605 485.268 133.899C486.491 133.192 493.364 129.229 494.587 128.522Z" fill="white"/>
<path d="M484.762 122.261C485.985 122.967 492.858 126.931 494.081 127.637C492.858 128.344 485.985 132.307 484.762 133.014V122.261Z" fill="white"/>
<path d="M484.762 134.785C485.985 135.491 492.858 139.455 494.081 140.161C492.858 140.867 485.985 144.831 484.762 145.537V134.785Z" fill="white"/>
<path d="M473.915 116C475.137 116.706 482.011 120.67 483.233 121.376C482.011 122.082 475.137 126.046 473.915 126.752V116Z" fill="white"/>
<path d="M585.814 140.593L583.041 137.283C583.441 136.618 583.757 135.944 584.012 135.259C584.265 134.552 584.432 133.93 584.527 133.382H582.915C582.863 133.561 582.799 133.804 582.704 134.099C582.608 134.394 582.504 134.71 582.366 135.058C582.251 135.364 582.102 135.67 581.944 135.965L578.171 131.474C578.803 131.105 579.352 130.747 579.804 130.388C580.3 129.998 580.68 129.577 580.944 129.113C581.208 128.649 581.343 128.111 581.343 127.5C581.343 126.825 581.174 126.203 580.838 125.655C580.501 125.097 580.047 124.664 579.488 124.337C578.93 124.011 578.287 123.853 577.58 123.853C576.873 123.853 576.273 124.021 575.704 124.359C575.135 124.696 574.681 125.149 574.333 125.708C573.997 126.267 573.828 126.899 573.828 127.595C573.828 128.175 574.006 128.775 574.376 129.408C574.735 130.04 575.103 130.578 575.471 131.021C574.661 131.495 574.017 131.991 573.543 132.528C573.006 133.129 572.636 133.73 572.425 134.331C572.215 134.932 572.109 135.49 572.109 136.018C572.109 136.481 572.204 136.987 572.394 137.536C572.584 138.084 572.879 138.6 573.29 139.096C573.701 139.591 574.229 140.002 574.893 140.308C575.557 140.624 576.358 140.782 577.307 140.782C577.981 140.782 578.634 140.666 579.246 140.445C579.858 140.224 580.416 139.939 580.933 139.591C581.312 139.328 581.65 139.053 581.966 138.758L583.495 140.582H585.825L585.814 140.593ZM576.168 126.224C576.568 125.834 577.054 125.645 577.623 125.645C578.192 125.645 578.688 125.824 579.088 126.182C579.488 126.541 579.689 126.994 579.689 127.531C579.689 127.816 579.636 128.111 579.53 128.417C579.425 128.723 579.183 129.039 578.824 129.376C578.487 129.682 577.959 130.03 577.275 130.42C577.054 130.167 576.821 129.882 576.579 129.556C576.304 129.187 576.074 128.839 575.873 128.491C575.672 128.143 575.577 127.858 575.577 127.648C575.577 127.099 575.778 126.635 576.189 126.245L576.168 126.224ZM579.53 138.474C578.867 138.864 578.149 139.053 577.37 139.053C576.652 139.053 576.074 138.938 575.609 138.706C575.146 138.474 574.787 138.189 574.545 137.841C574.292 137.493 574.123 137.145 574.028 136.808C573.933 136.471 573.88 136.197 573.88 135.975C573.88 135.68 573.954 135.322 574.092 134.9C574.229 134.478 574.523 134.015 574.977 133.519C575.345 133.108 575.873 132.707 576.548 132.307L580.88 137.472C580.51 137.82 580.079 138.157 579.551 138.474H579.53Z" fill="white"/>
</svg>
