<svg width="1000" height="241" viewBox="0 0 1000 241" fill="none" xmlns="http://www.w3.org/2000/svg">
<path d="M654.488 117.333C651.969 113.152 648.923 109.831 645.329 107.369C642.768 105.631 640.346 104.243 638.041 103.189C639.681 101.684 641.342 100.2 643.082 98.7539C645.288 96.8979 647.183 94.5343 648.727 91.6624C650.27 88.7906 651.052 84.786 651.052 79.6284C651.052 73.7678 649.878 68.4148 647.555 63.5698C645.211 58.725 641.187 54.8373 635.442 51.9072C629.698 48.9767 621.631 47.5115 611.217 47.5115H571.561V167.227H614.811C623.778 167.227 631.535 166.055 638.061 163.73C644.585 161.405 649.567 157.752 653.044 152.79C656.521 147.828 658.261 141.342 658.261 133.313C658.261 126.847 657.011 121.533 654.488 117.333ZM584.493 59.8971H612.488C620.497 59.8971 626.789 61.3037 631.338 64.117C635.89 66.93 638.158 72.4001 638.158 80.5467C638.158 86.173 636.966 90.334 634.563 93.0298C632.161 95.7259 629.15 97.4645 625.497 98.2264C621.845 99.0079 618.054 99.3987 614.108 99.3987H584.493V59.9167V59.8971ZM641.204 147.027C638.451 150.329 634.836 152.497 630.342 153.572C625.849 154.646 621.045 155.193 615.886 155.193H584.473V111.57H615.339C618.819 111.57 622.313 111.784 625.831 112.195C629.367 112.624 632.589 113.523 635.521 114.89C638.451 116.258 640.815 118.368 642.613 121.161C644.409 123.975 645.308 127.765 645.308 132.551C645.308 138.9 643.94 143.706 641.187 147.007L641.204 147.027Z" fill="white"/>
<path d="M752.561 94.4554C751.545 91.4078 750.098 88.7117 748.243 86.3674C746.386 84.0427 744.139 82.1281 741.503 80.6239C738.867 79.1197 735.876 77.9864 732.537 77.2248C729.177 76.4433 725.541 76.0525 721.596 76.0525C715.734 76.0525 709.679 76.6776 703.466 77.9278C697.236 79.1783 692.274 81.0147 688.559 83.3979V96.3111C692.391 93.3221 696.96 91.1342 702.295 89.7668C707.608 88.3991 712.667 87.6958 717.454 87.6958C724.994 87.6958 730.797 89.3174 734.86 92.5408C738.925 95.7642 740.955 100.863 740.955 107.798V118.445C739.139 117.429 737.223 116.453 735.114 115.593C732.302 114.46 729.098 113.581 725.503 112.995C721.909 112.389 717.668 112.096 712.767 112.096C706.299 112.096 700.596 113.092 695.634 115.066C690.671 117.039 686.784 120.262 683.969 124.755C681.157 129.248 679.751 135.188 679.751 142.611C679.751 148.003 680.806 152.457 682.894 155.973C684.986 159.51 687.739 162.284 691.158 164.315C694.579 166.347 698.27 167.793 702.295 168.613C706.299 169.453 710.286 169.864 714.232 169.864C721.165 169.864 727.651 169.375 733.708 168.418C739.746 167.461 744.649 165.429 748.419 162.323C752.189 159.216 754.064 154.489 754.064 148.14V104.712C754.064 100.883 753.557 97.4441 752.541 94.3965L752.561 94.4554ZM734.977 156.736C730.972 157.869 725.073 158.435 717.298 158.435C713.353 158.435 709.483 157.888 705.713 156.814C701.943 155.739 698.835 153.883 696.375 151.246C693.914 148.609 692.701 145.092 692.701 140.657C692.701 135.148 694.734 130.968 698.797 128.096C702.86 125.224 708.663 123.798 716.203 123.798C722.416 123.798 728.14 124.541 733.336 126.045C736.268 126.885 738.808 127.823 740.955 128.838V148.921C740.955 152.985 738.943 155.602 734.939 156.736H734.977Z" fill="white"/>
<path d="M782.8 84.8446C785.673 83.399 788.644 82.1291 791.69 80.9768C794.737 79.8241 797.845 78.9058 801.029 78.2024C804.192 77.4798 807.417 76.9522 810.719 76.5811C814 76.2293 817.321 76.0342 820.681 76.0342C829.413 76.0342 836.35 77.3234 841.505 79.9023C846.643 82.4809 850.396 86.2122 852.719 91.1159C855.065 96.0192 856.216 101.939 856.216 108.893V167.227H843.304V108.893C843.304 106.744 843.032 104.459 842.501 102.075C841.957 99.6919 840.92 97.3869 839.358 95.1597C837.794 92.9522 835.413 91.1548 832.167 89.7678C828.924 88.3808 824.627 87.6968 819.255 87.6968C815.543 87.6968 811.715 87.99 807.769 88.5955C803.823 89.2013 799.816 90.1 795.733 91.2916V167.208H782.82V84.8252L782.8 84.8446Z" fill="white"/>
<path d="M960.48 167.226L910.097 116.511L954.033 77.6739H937.875L901.441 110.943V43.5645H888.508V167.226H901.441V124.931L943.247 167.226H960.48Z" fill="white"/>
<path d="M499.454 47.1201H513.128C514.888 47.1201 516.312 48.5464 516.312 50.3045V73.435H540.323C542.08 73.435 543.507 74.8613 543.507 76.6194V86.1138C543.507 87.872 542.08 89.2982 540.323 89.2982H516.312V122.587C516.312 142.143 523.403 149.332 542.353 149.996C544.072 150.055 545.42 151.461 545.42 153.161V164.159C545.42 165.957 543.917 167.383 542.119 167.344C508.634 166.484 496.249 152.36 496.249 123.974V50.3045C496.249 48.5464 497.676 47.1201 499.433 47.1201H499.454Z" fill="white"/>
<path d="M199.734 119.989C199.734 88.087 213.859 71.3447 246.62 71.3447C279.382 71.3447 293.349 87.7355 293.349 119.989C293.349 152.243 279.05 167.578 246.62 167.578C214.191 167.578 199.734 151.891 199.734 119.989ZM220.657 119.989C220.657 142.826 228.843 151.364 246.64 151.364C264.437 151.364 272.447 143.002 272.447 119.989C272.447 96.9759 264.437 87.3837 246.64 87.3837C228.843 87.3837 220.657 97.1517 220.657 119.989Z" fill="white"/>
<path d="M306.224 119.989C306.224 88.087 320.349 71.3447 353.11 71.3447C385.871 71.3447 399.84 87.7355 399.84 119.989C399.84 152.243 385.54 167.578 353.11 167.578C320.68 167.578 306.224 151.891 306.224 119.989ZM327.147 119.989C327.147 142.826 335.332 151.364 353.13 151.364C370.926 151.364 378.937 143.002 378.937 119.989C378.937 96.9759 370.926 87.3837 353.13 87.3837C335.332 87.3837 327.147 97.1517 327.147 119.989Z" fill="white"/>
<path d="M442.839 125.576C423.497 122.431 413.028 116.16 413.028 98.3822C413.028 81.6399 424.359 71.364 449.638 71.364C460.948 71.364 472.551 73.9233 479.157 75.9551C480.484 76.3652 481.362 77.5961 481.362 78.9831V89.259C481.362 91.5054 479.098 93.0099 477.007 92.2088C468.529 88.9268 460.342 87.403 450.497 87.403C438.463 87.403 431.664 90.7242 431.664 97.5225C431.664 105.2 440.727 108.326 455.204 110.768C473.861 113.913 484.136 119.657 484.136 138.138C484.136 156.618 473.861 167.246 446.141 167.246C433.167 167.246 421.095 164.472 413.418 161.17C412.246 160.662 411.485 159.51 411.485 158.24V148.062C411.464 145.737 413.848 144.233 415.957 145.151C425.431 149.254 436.099 151.187 445.086 151.187C458.857 151.187 465.656 147.359 465.656 139.329C465.656 131.3 459.914 128.35 442.819 125.557L442.839 125.576Z" fill="white"/>
<path d="M162.636 93.1671C148.062 68.9233 124.287 68.2592 120.771 68.3371C120.79 64.9576 120.087 40.987 96.0972 26.5891C95.7261 26.3351 86.8957 20.3962 73.2793 20.3962C64.4686 20.3962 55.619 22.8578 47.0426 27.7027C31.7655 35.8101 26.3932 52.3763 25.1039 57.2603C24.3615 60.1126 24.0098 62.6523 23.7168 67.3994V122.276C23.7168 122.588 23.6973 126.495 24.6155 130.168C25.2992 132.806 25.6118 134.193 26.7449 137.006C28.6986 141.948 32.6253 147.809 36.7081 151.931L37.5286 152.752C42.7055 157.85 46.4565 159.941 49.7384 161.425C52.4931 162.676 55.8923 163.75 58.5491 164.415C62.3586 165.372 66.1096 165.391 66.1485 165.391H121.845C126.475 165.098 128.995 164.746 131.848 164.004C136.732 162.715 153.298 157.342 161.366 142.144C177.054 114.324 162.695 93.265 162.617 93.1671H162.636Z" fill="#EA0029"/>
<path d="M145.366 103.52C141.322 95.628 134.27 90.6268 124.424 88.6537C123.681 88.4976 122.841 88.4193 122.04 88.3215L120.966 88.2043C120.321 88.1261 119.403 88.0286 117.86 88.0286H117.02H101.078V72.185C101.137 70.1143 101.039 68.9812 100.942 68.2193L100.824 67.1252C100.746 66.3437 100.649 65.4843 100.492 64.7224C98.5194 54.8762 93.5182 47.8239 85.6255 43.7798C79.5696 40.6736 74.0212 40.5564 73.9626 40.5564H73.0835C71.5401 40.5564 70.3681 40.615 69.0007 40.8104C43.0766 44.3073 43.3695 69.2156 43.4088 70.2704V116.473C43.4088 125.733 45.9482 133.078 50.93 138.314C56.068 143.237 63.3938 145.757 72.6734 145.757H119.11C121.747 145.757 144.995 145.034 148.355 120.165C148.57 118.583 148.648 117.235 148.609 115.223C148.609 115.164 148.512 109.616 145.386 103.54L145.366 103.52Z" fill="white"/>
<path d="M158.787 0H28.0535C12.5615 0 0 12.5615 0 28.0534V161.053C0 176.545 12.5615 189.107 28.0535 189.107H158.768C174.26 189.107 186.821 176.545 186.821 161.053V28.0534C186.821 12.5615 174.26 0 158.768 0H158.787ZM161.385 142.143C153.317 157.342 136.751 162.733 131.867 164.003C129.015 164.746 126.495 165.097 121.864 165.391H121.806H66.1484C66.1288 165.391 62.3583 165.371 58.549 164.414C55.8922 163.749 52.4927 162.675 49.7383 161.425C46.4561 159.92 42.7054 157.83 37.5282 152.751L36.7077 151.93C32.6249 147.808 28.7175 141.948 26.7446 137.005C25.631 134.192 25.2989 132.824 24.6151 130.167C23.6774 126.495 23.7165 122.587 23.7165 122.275V67.3986C24.0095 62.632 24.3612 60.1117 25.1035 57.2595C26.3929 52.3755 31.7652 35.8092 47.0422 27.7019C55.6382 22.8569 64.4682 20.3954 73.2789 20.3954C86.8954 20.3954 95.7257 26.3343 96.0968 26.5883C120.087 41.0058 120.79 64.9567 120.771 68.3362C124.267 68.2583 148.043 68.903 162.636 93.1665C162.714 93.2837 177.073 114.324 161.385 142.143Z" fill="white"/>
<path d="M977.946 50.3639H971.909V66.1096H968.218V50.3639H962.14V47.1208H977.946V50.3639Z" fill="white"/>
<path d="M996.327 66.0903V53.5286L991.444 62.8862H989.431L984.548 53.5286V66.0903H980.854V47.1208H984.803L990.41 57.924L996.075 47.1208H1000V66.0903H996.309H996.327Z" fill="white"/>
<path d="M869.951 202.979C868.659 202.979 867.47 204.249 867.253 205.87L866.278 212.962C866.061 214.584 866.902 215.853 868.173 215.853C869.441 215.853 870.654 214.584 870.889 212.962L871.864 205.87C872.081 204.249 871.24 202.979 869.951 202.979ZM856.491 231.423L859.851 207.844C860.592 202.647 866.102 198.095 871.981 198.095C877.863 198.095 880.792 202.237 880.207 206.242L879.717 209.66C879.307 212.552 877.198 215.306 873.428 217.358L877.277 223.883C877.725 224.605 877.901 225.699 877.726 226.872C877.336 229.352 875.458 231.404 873.428 231.404C872.315 231.404 871.433 230.798 870.906 229.861L865.241 220.053L864.265 226.93C863.914 229.411 862.039 231.404 860.065 231.404H856.491V231.423Z" fill="white"/>
<path d="M883.997 203.311C884.387 200.439 886.654 198.056 888.96 198.056C891.265 198.056 892.809 200.439 892.416 203.311L890.796 215.209H895.348L897.027 203.311C897.417 200.439 899.684 198.056 901.989 198.056C904.294 198.056 905.859 200.439 905.446 203.311L902.262 226.168C901.851 229.059 899.605 231.423 897.299 231.423C894.994 231.423 893.453 229.04 893.843 226.168L894.859 218.764H890.249L889.232 226.168C888.842 229.059 886.575 231.423 884.27 231.423H880.11L884.015 203.292L883.997 203.311Z" fill="white"/>
<path d="M919.181 202.979C917.716 202.979 916.386 204.464 916.076 206.3L915.545 209.563C915.235 211.399 916.269 212.884 917.734 212.884C919.201 212.884 920.566 211.399 920.88 209.563L921.407 206.3C921.72 204.464 920.666 202.979 919.201 202.979M917.423 215.091C915.956 215.091 914.591 216.596 914.315 218.412L913.653 223.179C913.378 224.996 914.356 226.481 915.821 226.481C917.285 226.481 918.712 224.996 918.967 223.179L919.629 218.412C919.904 216.596 918.888 215.091 917.403 215.091M928.792 207.629C928.44 209.856 927.23 212.005 925.118 213.997C926.586 215.541 927.189 217.592 926.879 219.585L926.586 221.616C925.783 226.891 920.332 231.423 914.491 231.423H905.231L908.65 207.805C909.412 202.588 914.901 198.056 920.783 198.056C926.662 198.056 929.632 202.198 929.026 206.183L928.812 207.629H928.792Z" fill="white"/>
<path d="M945.222 199.454L929.993 214.696L945.234 229.928L960.466 214.686L945.222 199.454Z" fill="white"/>
<path d="M588.966 211.203C587.247 209.132 584.61 208.097 581.054 208.097C580.389 208.097 579.59 208.194 578.67 208.37C577.753 208.546 576.854 208.781 575.975 209.054C575.585 209.171 575.234 209.308 574.9 209.425V198.739H571.578V227.515C571.578 228.433 571.833 229.195 572.322 229.781C572.811 230.368 573.473 230.836 574.314 231.188C575.155 231.54 576.13 231.794 577.226 231.93C578.318 232.067 579.452 232.145 580.644 232.145C581.836 232.145 583.029 231.989 584.277 231.657C585.527 231.325 586.699 230.739 587.795 229.86C588.887 228.981 589.787 227.73 590.49 226.089C591.193 224.448 591.544 222.299 591.544 219.662C591.544 216.106 590.686 213.293 588.966 211.222V211.203ZM587.481 224.272C587.092 225.699 586.348 226.851 585.255 227.75C584.142 228.648 582.501 229.078 580.331 229.078C579.59 229.078 578.808 229.02 577.967 228.922C577.129 228.824 576.406 228.59 575.799 228.258C575.193 227.925 574.9 227.418 574.9 226.734V212.746C575.858 212.199 576.874 211.789 577.987 211.535C579.08 211.281 580.117 211.144 581.075 211.144C582.753 211.144 584.121 211.515 585.117 212.219C586.113 212.922 586.875 213.938 587.343 215.208C587.815 216.478 588.049 217.962 588.049 219.642C588.049 221.323 587.853 222.846 587.481 224.272Z" fill="white"/>
<path d="M613.075 208.468L605.825 227.183L598.54 208.468H594.77L604.284 231.52C603.991 232.419 603.657 233.278 603.305 234.06C602.857 235.037 602.31 235.818 601.665 236.404C601.021 236.99 600.18 237.283 599.125 237.283C598.695 237.283 598.305 237.244 597.971 237.147C597.64 237.049 597.368 236.971 597.151 236.873V239.901C597.406 239.999 597.699 240.077 598.071 240.175C598.443 240.272 598.853 240.311 599.322 240.311C600.063 240.311 600.845 240.136 601.686 239.784C602.523 239.432 603.364 238.768 604.225 237.831C605.084 236.893 605.845 235.506 606.548 233.689L616.396 208.468H613.075Z" fill="white"/>
<path d="M694.831 207.492C697.977 207.492 700.478 207.864 702.666 210.071C704.307 211.732 704.855 214.291 704.855 217.456V230.975H699.286V229.763L699.128 229.919C699.128 229.919 698.738 230.291 697.78 230.662C696.823 231.033 695.282 231.424 692.994 231.424C690.885 231.424 688.345 230.896 686.998 229.783C685.688 228.709 684.555 226.911 684.555 224.352C684.555 222.105 685.688 219.976 687.115 218.843C688.755 217.573 691.119 217.065 693.855 217.065C696.588 217.065 699.169 217.358 699.169 217.358H699.266V217.28C699.266 217.28 699.266 217.104 699.266 216.85C699.266 216.108 699.128 214.584 698.015 213.666C697.039 212.865 695.554 212.67 693.814 212.67C692.098 212.67 689.283 213.099 687.135 213.822V210.716C687.135 210.071 687.466 209.583 687.935 209.231C688.5 208.801 691.529 207.512 694.793 207.512M691.746 226.794C692.467 227.243 693.328 227.458 694.224 227.458C695.106 227.458 696.043 227.263 696.902 226.872C698.7 226.11 699.245 224.41 699.245 223.16V221.246C699.245 221.246 697.918 220.777 695.496 220.777C695.34 220.777 695.165 220.777 695.006 220.777C692.859 220.835 691.529 221.48 690.885 222.515C690.612 222.945 690.437 223.571 690.437 224.215C690.437 225.172 690.806 226.188 691.746 226.774M752.013 207.492C755.159 207.492 757.658 207.864 759.846 210.071C761.486 211.732 762.034 214.291 762.034 217.456V230.975H756.466V229.763L756.31 229.919C756.31 229.919 755.921 230.291 754.963 230.662C754.005 231.033 752.461 231.424 750.176 231.424C748.067 231.424 745.528 230.896 744.18 229.783C742.871 228.709 741.758 226.911 741.758 224.352C741.758 222.105 742.888 219.976 744.315 218.843C745.955 217.573 748.319 217.065 751.055 217.065C753.771 217.065 756.369 217.358 756.369 217.358H756.466V217.28C756.466 217.28 756.466 217.104 756.466 216.85C756.466 216.108 756.331 214.584 755.218 213.666C754.26 212.865 752.754 212.67 751.017 212.67C749.298 212.67 746.486 213.099 744.335 213.822V210.716C744.335 210.071 744.666 209.583 745.135 209.231C745.703 208.801 748.729 207.512 751.993 207.512M748.946 226.794C749.67 227.243 750.528 227.458 751.427 227.458C752.306 227.458 753.243 227.263 754.102 226.872C755.9 226.11 756.448 224.41 756.448 223.16V221.246C756.448 221.246 755.118 220.777 752.696 220.777C752.54 220.777 752.365 220.777 752.209 220.777C750.039 220.835 748.729 221.48 748.085 222.515C747.812 222.945 747.637 223.571 747.637 224.215C747.637 225.172 748.009 226.188 748.946 226.774M790.849 207.492C793.995 207.492 796.497 207.864 798.685 210.071C800.326 211.732 800.871 214.291 800.871 217.456V230.975H795.305V229.763L795.147 229.919C795.147 229.919 794.757 230.291 793.799 230.662C792.841 231.033 791.301 231.424 789.013 231.424C786.904 231.424 784.364 230.896 783.017 229.783C781.707 228.709 780.573 226.911 780.573 224.352C780.573 222.105 781.707 219.976 783.134 218.843C784.774 217.573 787.138 217.065 789.874 217.065C792.589 217.065 795.188 217.358 795.188 217.358H795.284V217.28C795.284 217.28 795.305 217.104 795.305 216.85C795.305 216.108 795.167 214.584 794.054 213.666C793.076 212.865 791.593 212.67 789.853 212.67C788.134 212.67 785.322 213.099 783.172 213.822V210.716C783.172 210.071 783.506 209.583 783.974 209.231C784.54 208.801 787.569 207.512 790.832 207.512M787.782 226.794C788.506 227.243 789.364 227.458 790.264 227.458C791.142 227.458 792.08 227.263 792.941 226.872C794.737 226.11 795.284 224.41 795.284 223.16V221.246C795.284 221.246 793.957 220.777 791.535 220.777C791.377 220.777 791.201 220.777 791.046 220.777C788.896 220.835 787.569 221.48 786.924 222.515C786.649 222.945 786.473 223.571 786.473 224.215C786.473 225.172 786.845 226.188 787.782 226.774M768.051 229.939C769.184 230.975 770.532 231.365 772.565 231.365C774.694 231.365 776.238 230.877 777.586 230.115V226.11C776.686 226.52 775.67 226.755 774.557 226.755C773.757 226.755 773.113 226.54 772.682 226.091C772.251 225.622 772.076 224.958 772.076 224.137V212.63H777.117L779.832 207.766H772.055V198.975C769.77 199.776 767.858 201.085 767.193 201.866C766.469 202.726 766.214 203.448 766.214 204.855V224.528C766.214 227.243 766.9 228.923 768.033 229.939M738.143 230.975V207.141C737.478 207.297 734.724 208.137 733.239 209.7C732.595 210.364 732.261 211.126 732.261 211.751V230.994H738.143V230.975ZM723.412 230.975L718.567 223.922L713.663 230.975H707.002L715.01 219.429L706.747 207.766H713.938L718.567 214.975L718.646 214.857C718.646 214.857 720.599 211.829 721.44 210.599C723.042 208.254 725.483 207.766 727.123 207.766H729.938L721.85 219.058L729.859 230.975H723.412Z" fill="white"/>
<path d="M654.489 197.782V217.709C652.224 216.4 639.485 209.054 637.221 207.745C639.485 206.436 652.224 199.091 654.489 197.782Z" fill="white"/>
<path d="M654.489 220.991V240.918C652.224 239.609 639.485 232.263 637.221 230.954C639.485 229.645 652.224 222.3 654.489 220.991Z" fill="white"/>
<path d="M674.592 209.386V229.313C672.325 228.004 659.589 220.658 657.321 219.35C659.589 218.04 672.325 210.695 674.592 209.386Z" fill="white"/>
<path d="M656.384 197.782C658.651 199.091 671.388 206.436 673.655 207.745C671.388 209.054 658.651 216.4 656.384 217.709V197.782Z" fill="white"/>
<path d="M656.384 220.991C658.651 222.3 671.388 229.645 673.655 230.954C671.388 232.263 658.651 239.609 656.384 240.918V220.991Z" fill="white"/>
<path d="M636.283 186.179C638.548 187.488 651.287 194.833 653.551 196.142C651.287 197.451 638.548 204.796 636.283 206.105V186.179Z" fill="white"/>
<path d="M843.656 231.754L838.518 225.62C839.259 224.389 839.845 223.139 840.316 221.869C840.785 220.56 841.095 219.408 841.271 218.392H838.283C838.187 218.724 838.069 219.173 837.894 219.72C837.715 220.267 837.522 220.853 837.267 221.498C837.053 222.065 836.778 222.631 836.485 223.178L829.493 214.856C830.664 214.172 831.681 213.508 832.518 212.844C833.438 212.121 834.141 211.339 834.63 210.48C835.12 209.62 835.372 208.624 835.372 207.491C835.372 206.241 835.058 205.088 834.434 204.072C833.81 203.037 832.97 202.236 831.933 201.63C830.899 201.024 829.706 200.731 828.397 200.731C827.088 200.731 825.974 201.044 824.92 201.669C823.865 202.294 823.025 203.134 822.38 204.17C821.756 205.205 821.443 206.377 821.443 207.667C821.443 208.741 821.774 209.855 822.459 211.027C823.124 212.199 823.807 213.195 824.489 214.016C822.987 214.895 821.794 215.813 820.916 216.809C819.92 217.923 819.234 219.037 818.845 220.15C818.455 221.264 818.259 222.299 818.259 223.276C818.259 224.135 818.435 225.073 818.786 226.089C819.138 227.105 819.685 228.062 820.447 228.98C821.209 229.899 822.187 230.66 823.417 231.227C824.648 231.813 826.133 232.106 827.89 232.106C829.141 232.106 830.351 231.891 831.484 231.481C832.618 231.071 833.652 230.543 834.61 229.899C835.313 229.41 835.94 228.902 836.526 228.355L839.358 231.735H843.676L843.656 231.754ZM825.781 205.127C826.522 204.404 827.422 204.052 828.476 204.052C829.531 204.052 830.45 204.385 831.191 205.049C831.933 205.713 832.305 206.553 832.305 207.549C832.305 208.077 832.208 208.624 832.012 209.19C831.815 209.757 831.367 210.343 830.702 210.968C830.078 211.535 829.1 212.179 827.832 212.902C827.421 212.433 826.991 211.906 826.543 211.3C826.033 210.617 825.605 209.972 825.233 209.327C824.861 208.682 824.686 208.155 824.686 207.764C824.686 206.748 825.058 205.889 825.819 205.166L825.781 205.127ZM832.012 227.828C830.781 228.551 829.451 228.902 828.007 228.902C826.677 228.902 825.605 228.687 824.744 228.257C823.886 227.828 823.221 227.3 822.773 226.656C822.304 226.011 821.991 225.366 821.815 224.741C821.639 224.116 821.54 223.608 821.54 223.198C821.54 222.651 821.677 221.986 821.932 221.205C822.187 220.424 822.732 219.564 823.572 218.646C824.255 217.884 825.233 217.142 826.484 216.399L834.513 225.972C833.828 226.616 833.028 227.241 832.05 227.828H832.012Z" fill="white"/>
</svg>
