<svg width="500" height="350" viewBox="0 0 500 350" fill="none" xmlns="http://www.w3.org/2000/svg">
<rect width="500" height="350" rx="15" fill="white"/>
<path d="M310.318 95.0187C306.124 94.485 302.013 93.69 297.877 92.6084C278.482 87.3605 261.899 75.9492 250.172 60L236.451 67.9541C242.523 76.4449 249.748 83.9431 258.09 90.2716C268.766 98.4422 280.715 104.355 293.767 107.865C299.258 109.301 304.745 110.277 310.318 110.871V95.0187Z" fill="#181F40"/>
<path d="M310.318 137.957V122.096C303.773 121.457 297.292 120.364 290.916 118.637C276.528 114.724 263.179 108.214 251.445 99.1739C241.918 91.9601 233.689 83.358 226.829 73.5805L213.216 81.4895C221.148 93.1363 230.751 103.279 241.918 111.815C255.342 122.048 270.556 129.452 286.793 133.95C294.637 136.02 302.38 137.317 310.318 137.957Z" fill="#181F40"/>
<path d="M203.607 87.0624C212.24 100.012 222.907 111.281 235.271 120.669C249.868 131.833 266.231 139.874 283.973 144.674C292.682 146.984 301.414 148.469 310.318 149.121V164.964C300.034 164.332 289.939 162.608 279.951 159.893C260.253 154.6 242.007 145.602 225.757 133.26C211.735 122.538 199.78 109.693 190 94.9765L203.607 87.0624Z" fill="#181F40"/>
<path d="M203.607 172.919C212.24 159.988 222.907 148.719 235.271 139.292C249.868 128.212 266.231 120.126 283.973 115.335C292.682 113.002 301.414 111.52 310.318 110.874V95.0156C300.034 95.7119 289.939 97.39 279.951 100.111C260.253 105.451 242.007 114.384 225.757 126.733C211.735 137.456 199.78 150.307 190 165.021L203.607 172.919Z" fill="#ED2824"/>
<path d="M310.318 122.096V137.957C303.773 138.535 297.292 139.638 290.916 141.365C276.528 145.266 263.179 151.783 251.445 160.833C241.918 168.035 233.689 176.633 226.829 186.471L213.216 178.516C221.148 166.896 230.751 156.719 241.918 148.222C255.342 137.957 270.556 130.548 286.793 126.102C294.637 124.003 302.38 122.69 310.318 122.096Z" fill="#ED2824"/>
<path d="M310.318 164.969C306.124 165.509 302.013 166.266 297.877 167.405C278.482 172.64 261.899 184.051 250.172 200L236.451 192.057C242.523 183.512 249.748 176.045 258.09 169.709C268.766 161.565 280.715 155.633 293.767 152.125C299.258 150.643 304.745 149.662 310.318 149.116V164.969Z" fill="#ED2824"/>
<path d="M355.827 266.79H352.981V283.868C354.588 284.553 356.382 284.867 358.977 284.867C364.542 284.867 368.864 282.62 368.864 276.386C368.864 269.719 365.035 266.79 355.827 266.79ZM358.605 247.721C356.382 247.721 354.713 248.031 352.981 248.66V263.923H355.766C364.542 263.923 367.505 261.183 367.505 255.571C367.505 250.34 364.415 247.721 358.605 247.721ZM359.221 288.541C354.405 288.541 350.326 287.669 347.603 286.174V246.788C349.952 245.417 354.033 244.421 358.669 244.421C368.003 244.421 373.005 248.905 373.005 255.139C373.005 261.244 368.555 264.36 364.724 265.11V265.235C368.677 265.981 374.614 269.784 374.614 276.326C374.614 284.925 368.003 288.541 359.221 288.541Z" fill="#181F40"/>
<path d="M399.502 268.847C391.099 269.907 386.093 271.716 386.093 278.511C386.093 283.369 389.055 285.365 393.999 285.365C396.101 285.365 398.142 284.988 399.502 284.238V268.847ZM393.573 288.542C384.912 288.542 380.896 284.739 380.896 278.634C380.896 269.723 389.177 267.106 399.502 266.044V263.985C399.502 258.814 396.412 257.318 392.147 257.318C388.932 257.318 385.969 258.501 384.117 259.436L382.814 256.2C384.73 255.137 388.439 253.701 393.008 253.701C399.193 253.701 404.629 256.384 404.629 264.611V286.171C402.094 287.609 398.206 288.542 393.573 288.542Z" fill="#181F40"/>
<path d="M432.129 287.916V263.802C432.129 260.685 430.83 257.254 425.147 257.254C422.054 257.254 420.572 257.693 418.842 258.439V287.916H413.404V256.071C416.371 254.64 420.261 253.705 425.574 253.705C434.848 253.705 437.569 258.876 437.569 263.673V287.916H432.129Z" fill="#181F40"/>
<path d="M464.822 287.916L452.09 270.593H451.967V287.916H446.654V239H451.967V269.907H452.09L463.955 254.328H469.644L457.034 270.03L471.001 287.916H464.822Z" fill="#181F40"/>
<path d="M211.443 266.181C211.614 260.521 213.972 257.688 217.538 257.688C221.108 257.688 223.032 260.268 223.086 266.181H211.443ZM217.954 251.966C208.352 251.966 202.924 258.751 202.924 269.282C202.924 280.018 208.785 286.815 218.987 286.815C224.606 286.815 228.34 285.687 230.944 284.376L228.757 278.352C226.952 279.274 223.983 280.151 220.124 280.151C215.189 280.151 212.945 277.893 212.046 272.787C211.928 272.205 211.867 271.563 211.8 270.927H232.018V269.924C232.454 258.568 227.558 251.966 217.954 251.966Z" fill="#181F40"/>
<path d="M61.8316 286.172V267.582H51.0623V286.172H41V243.251H51.0623V260.969H61.8316V243.251H71.9049V286.172H61.8316Z" fill="#181F40"/>
<path d="M90.6853 257.985C86.3967 257.985 85.4834 263.223 85.4834 269.22C85.4834 275.25 86.4466 280.175 90.6853 280.175C94.9162 280.175 95.8248 275.25 95.8248 269.22C95.8248 263.223 94.9162 257.985 90.6853 257.985ZM90.6853 286.815C81.0273 286.815 75.957 279.391 75.957 269.342C75.957 259.3 81.0273 251.931 90.5647 251.931C100.292 251.931 105.355 259.3 105.355 269.342C105.355 279.391 100.292 286.815 90.6853 286.815Z" fill="#181F40"/>
<path d="M127.692 286.172V262.678C127.692 260.299 126.655 257.985 122.747 257.985C120.874 257.985 119.785 258.297 118.694 258.663V286.172H109.04V254.431C112.361 252.934 117.066 251.931 122.975 251.931C133.609 251.931 137.35 256.46 137.35 262.587V286.172H127.692Z" fill="#181F40"/>
<path d="M160.597 258.111C159.815 257.751 158.842 257.529 157.524 257.529C152.563 257.529 150.513 261.614 150.513 269.642C150.513 277.262 152.506 280.886 157.334 280.886C158.674 280.886 159.747 280.572 160.597 280.054V258.111ZM155.354 300.333C150.225 300.333 145.617 299.327 142.91 297.836L145.384 291.529C147.442 292.662 150.447 293.547 153.667 293.547C158.722 293.547 160.597 291.109 160.597 287.243V285.357C159.452 285.998 157.524 286.425 154.743 286.425C146.775 286.425 141.037 280.239 141.037 270.199C141.037 258.996 146.713 251.93 158.188 251.93C163.255 251.93 167.598 253.002 169.954 254.429V286.425C169.954 295.981 163.908 300.333 155.354 300.333Z" fill="#181F40"/>
<path d="M179.017 286.172V243.251H189.033V279.394H199.849V286.172H179.017Z" fill="#181F40"/>
<path d="M250.49 257.985C246.276 257.985 245.354 263.223 245.354 269.22C245.354 275.25 246.335 280.175 250.49 280.175C254.795 280.175 255.618 275.25 255.618 269.22C255.618 263.223 254.795 257.985 250.49 257.985ZM250.49 286.815C240.841 286.815 235.771 279.391 235.771 269.342C235.771 259.3 240.841 251.931 250.435 251.931C260.164 251.931 265.227 259.3 265.227 269.342C265.227 279.391 260.164 286.815 250.49 286.815Z" fill="#181F40"/>
<path d="M288.836 286.172V262.678C288.836 260.299 287.749 257.985 283.89 257.985C281.954 257.985 280.88 258.297 279.776 258.663V286.172H270.126V254.431C273.449 252.934 278.153 251.931 284.134 251.931C294.703 251.931 298.443 256.46 298.443 262.587V286.172H288.836Z" fill="#181F40"/>
<path d="M321.676 258.111C320.902 257.751 319.942 257.529 318.61 257.529C313.649 257.529 311.663 261.614 311.663 269.642C311.663 277.262 313.598 280.886 318.424 280.886C319.757 280.886 320.841 280.572 321.676 280.054V258.111ZM316.492 300.333C311.295 300.333 306.706 299.327 304.06 297.836L306.535 291.529C308.52 292.662 311.605 293.547 314.743 293.547C319.827 293.547 321.676 291.109 321.676 287.243V285.357C320.545 285.998 318.61 286.425 315.819 286.425C307.864 286.425 302.131 280.239 302.131 270.199C302.131 258.996 307.787 251.93 319.259 251.93C324.399 251.93 328.682 253.002 331.051 254.429V286.425C331.051 295.981 325.009 300.333 316.492 300.333Z" fill="#181F40"/>
</svg>
