<svg width="500" height="350" viewBox="0 0 500 350" fill="none" xmlns="http://www.w3.org/2000/svg">
<rect width="500" height="350" rx="15" fill="#F7B70E"/>
<path d="M76.6219 289.636L93.5629 243.386L99.1029 289.636H117.003L107.307 221.701H85.4645L71.0014 262.519L56.537 221.701H34.6953L25 289.636H42.8999L48.4399 243.386L65.3808 289.636H76.6219Z" fill="#231F20"/>
<path d="M170.703 239.124L193.717 289.636L184.607 309.457H204.425L236.07 239.124H215.613L203.466 274.451L191.16 239.124H170.703Z" fill="#231F20"/>
<path d="M475 289.583L454.065 262.569L473.136 239.124H451.827L434.885 261.183V216.106H416.346V289.583H434.885V264L453.903 289.583H475Z" fill="#231F20"/>
<path d="M257.911 277.922V251.346C261.667 250.08 275.279 246.682 275.279 263.953C275.279 281.546 261.315 278.844 257.911 277.922ZM239.052 287.036C239.052 287.036 248.854 290.703 262.599 290.703C276.344 290.703 294.243 286.439 294.243 262.782C294.243 239.124 270.484 238.271 267.713 238.271C262.479 238.271 259.134 239.693 257.911 240.321V216H239.052V287.036Z" fill="#231F20"/>
<path d="M313.849 274.076C313.849 266.811 327.645 266.294 331.429 266.289C331.429 271.614 331.429 277.186 331.429 279.227C327.485 279.694 313.849 280.823 313.849 274.076ZM304.366 251.912C331.428 243.92 331.429 253.511 331.429 254.79C331.429 254.966 331.429 255.585 331.429 256.503C309.53 256.682 296.482 262.947 296.482 274.291C296.482 285.8 308.629 290.808 324.717 290.808C340.805 290.808 349.01 287.079 349.01 287.079C349.01 287.079 349.01 266.723 349.01 255.643C349.01 244.56 341.871 237.526 324.717 237.526C307.562 237.526 300.105 241.575 300.105 241.575L304.366 251.912Z" fill="#231F20"/>
<path d="M136.767 274.076C136.767 266.811 150.563 266.294 154.347 266.289C154.347 271.614 154.347 277.186 154.347 279.227C150.403 279.694 136.767 280.823 136.767 274.076ZM127.284 251.912C154.346 243.92 154.347 253.511 154.347 254.79C154.347 254.966 154.347 255.585 154.347 256.503C132.448 256.682 119.4 262.947 119.4 274.291C119.4 285.8 131.547 290.808 147.635 290.808C163.723 290.808 171.928 287.079 171.928 287.079C171.928 287.079 171.928 266.723 171.928 255.643C171.928 244.56 164.789 237.526 147.635 237.526C130.48 237.526 123.023 241.575 123.023 241.575L127.284 251.912Z" fill="#231F20"/>
<path d="M390.671 289.529H409.316V257.56C409.316 240.937 397.383 237.42 382.68 237.42C367.976 237.42 356.149 241.468 356.149 241.468V289.529H374.795V251.306C389.131 247.11 390.671 254.01 390.671 257.347V289.529Z" fill="#231F20"/>
<path d="M314.148 120.012C314.148 155.447 285.427 184.172 250 184.172C214.572 184.172 185.852 155.447 185.852 120.012C185.852 84.5776 214.572 55.8528 250 55.8528C285.427 55.8528 314.148 84.5776 314.148 120.012Z" fill="#F7B70E"/>
<path d="M250 50.0001C211.402 50.0001 180 81.408 180 120.012C180 158.617 211.402 190.022 250 190.022C288.597 190.022 320 158.617 320 120.012C320 81.408 288.597 50.0001 250 50.0001ZM250 55.8529C285.427 55.8529 314.149 84.5777 314.149 120.012C314.149 155.447 285.427 184.172 250 184.172C214.572 184.172 185.852 155.447 185.852 120.012C185.852 84.5777 214.572 55.8529 250 55.8529Z" fill="#231F20"/>
<path d="M219.853 95.4954C219.853 95.4954 221.336 89.6627 223.708 87.6856C226.08 85.7084 234.612 80.0747 246.936 76.1191C248.4 75.6477 250.106 76.1883 250.183 76.213C250.102 76.6967 250.053 77.0273 250.032 77.1398C249.868 78.0641 249.176 78.6573 249.176 78.6573C251.679 78.986 253.328 77.2065 253.788 75.1626C254.25 73.1212 255.83 65.0264 258.401 65.1457C265.583 65.4744 270.723 88.6742 270.196 89.7276C269.852 90.4177 267.033 89.8605 267.033 89.8605C271.514 96.9116 277.379 96.8454 278.696 95.7253C280.015 94.6057 279.29 90.98 279.29 90.98C293.392 99.3509 292.6 109.304 292.6 109.304C296.817 92.8275 287.065 85.7732 287.065 85.7732C290.887 85.6416 295.039 88.081 295.039 88.081C289.108 80.1055 276.851 75.6915 276.851 75.6915C276.851 75.6915 262.553 59.8073 257.94 60.4005C254.119 60.8916 251.934 67.9057 250.865 72.7096C250.338 72.6622 249.334 72.625 248.033 72.7776C247.022 71.5222 242.742 66.4402 241.071 68.1115C240.427 68.7552 240.221 73.3263 240.166 75.2553C233.238 78.0097 221.452 83.1906 219.062 86.9935C216.888 90.4536 216.394 93.0239 216.394 93.0239C216.394 93.0239 202.259 102.119 198.8 112.005C198.8 112.005 208.289 100.933 219.853 95.4954Z" fill="#231F20"/>
<path d="M265.321 88.146C265.123 80.8304 261.499 74.965 259.653 74.6363C257.808 74.3057 257.216 81.292 257.216 81.292C262.092 84.5222 265.321 88.146 265.321 88.146Z" fill="#231F20"/>
<path d="M230.594 86.8277C227.759 88.543 229.012 89.9912 229.012 89.9912C229.012 89.9912 228.551 88.5411 232.044 87.5525C238.272 85.7898 243.904 83.9936 243.773 82.4779C243.641 80.9629 239.424 80.3698 239.424 80.3698C240.61 81.9515 233.427 85.115 230.594 86.8277Z" fill="#231F20"/>
<path d="M233.526 96.5163C234.382 96.5163 235.076 95.823 235.076 94.9692C235.076 94.5021 234.86 94.0973 234.535 93.815C235.56 93.747 237.909 93.8798 237.909 93.8798C237.644 93.8131 237.053 94.473 235.734 96.1209C234.416 97.7694 233.164 96.5163 233.164 96.5163L233.143 96.4391C233.268 96.4719 233.39 96.5163 233.526 96.5163ZM228.552 103.568C228.552 103.568 230.332 99.4178 231.649 98.8889C231.649 98.8889 233.956 99.4821 235.207 99.0205C236.459 98.5602 238.832 95.3967 239.754 95.33C239.754 95.33 237.316 105.941 227.432 105.743C227.432 105.743 234.549 109.763 238.173 106.929C241.797 104.096 239.03 101.921 243.708 97.3739C248.386 92.8264 245.289 92.6268 245.091 92.6935C244.894 92.7597 243.444 92.2981 243.444 92.2981C243.444 92.2981 244.102 91.4424 245.421 90.8492C246.739 90.2561 254.316 86.8281 254.449 84.7848C254.58 82.7428 248.979 80.4369 246.146 80.5011C246.146 80.5011 248.715 81.5546 248.584 83.0054C248.452 84.4555 241.072 87.6857 241.072 91.8378C241.072 91.8378 238.435 92.0355 236.525 91.6401C234.614 91.2447 232.572 91.4424 230.463 92.8264C228.354 94.2104 228.222 91.1118 228.42 90.7164C228.42 90.7164 224.335 93.2867 229.474 96.583C229.474 96.583 227.366 98.7579 227.168 99.2843C226.971 99.8114 226.114 102.646 228.552 103.568Z" fill="#231F20"/>
<path d="M222.028 117.146C222.028 117.146 221.929 113.389 218.47 114.18C212.648 115.509 210.661 125.845 210.661 125.845C217.185 113.784 222.028 117.146 222.028 117.146Z" fill="#231F20"/>
<path d="M224.203 126.34C227.365 121.199 223.511 117.937 218.569 120.705C213.627 123.473 212.44 130.096 212.44 130.096C222.226 119.419 224.203 126.34 224.203 126.34Z" fill="#231F20"/>
<path d="M211.551 116.75C215.109 111.016 219.162 111.115 219.162 111.115C214.318 107.556 211.551 116.75 211.551 116.75Z" fill="#231F20"/>
<path d="M270.855 119.716C270.855 119.716 267.297 116.553 267.692 110.72C268.088 104.887 269.175 96.0888 259.291 89.9596C259.291 89.9596 263.343 96.1877 261.861 102.317C260.378 108.446 255.425 118.913 255.831 122.385C256.721 129.997 264.628 131.382 264.035 141.762C264.035 141.762 268.681 136.127 267.791 129.503C266.901 122.88 261.07 120.013 263.64 114.773C263.64 114.773 266.605 119.123 270.855 119.716Z" fill="#231F20"/>
<path d="M225.931 150.164C225.042 149.867 224.251 146.605 224.251 146.605C225.536 147.643 228.156 147.693 228.156 147.693C226.92 148.879 226.821 150.461 225.931 150.164ZM235.8 139.75C235.8 139.75 238.896 139.883 239.029 139.354C239.16 138.826 238.04 135.202 238.04 135.202C238.04 135.202 241.928 135.598 241.994 136.849C242.059 138.103 239.819 141.267 235.075 143.309C235.075 143.309 235.932 140.806 235.8 139.75ZM215.692 136.398C216.117 136.148 216.519 135.879 216.888 135.598C217.847 134.872 218.573 134.526 219.06 134.362C218.959 135.749 218.877 138.199 219.309 140.229C219.309 140.229 216.754 138.588 215.692 136.398ZM203.314 123.735C201.798 123.735 199.097 119.715 198.635 118.925C198.174 118.134 201.205 116.683 202.128 116.419C203.051 116.155 204.025 116.377 204.17 116.814C204.303 117.21 202.26 118.462 201.996 118.925C201.733 119.385 203.611 121.122 203.907 121.495C204.434 122.155 204.83 123.735 203.314 123.735ZM299.312 92.1318C299.312 92.1318 307.955 115.63 298.202 136.982C298.202 136.982 298.755 133.88 296.357 127.757C293.787 121.198 294.644 112.729 295.698 111.147C295.698 111.147 290.952 115.894 291.217 123.803C291.481 131.711 293.589 153.985 277.511 162.29C277.511 162.29 283.606 151.153 281.333 138.103C281.333 138.103 283.408 138.894 284.496 141.662C284.496 141.662 288.845 130.194 283.211 116.156C283.211 116.156 286.374 116.75 288.351 118.43C288.351 118.43 290.428 108.384 279.059 101.328C276.192 99.5482 276.588 98.5596 276.588 98.5596C276.588 98.5596 275.699 100.833 277.577 103.107C279.455 105.381 282.025 109.83 281.629 112.103C281.629 112.103 278.565 109.928 274.117 110.522C274.117 110.522 282.618 117.738 281.333 133.259C281.333 133.259 279.158 130.886 273.623 129.898C273.623 129.898 279.85 141.563 274.315 152.734C274.315 152.734 273.92 148.78 272.141 146.308C272.141 146.308 270.757 154.514 260.873 157.381C260.873 157.381 268.879 147.396 259.39 142.354C249.901 137.312 241.895 148.483 240.314 158.27C240.314 158.27 229.342 159.061 228.255 154.613C227.168 150.164 230.331 148.286 230.331 148.286C230.331 148.286 232.011 149.373 235.866 147.594C239.721 145.814 247.826 140.97 247.035 134.841C246.244 128.712 236.656 122.681 229.046 125.153C221.435 127.624 217.086 134.347 213.132 134.248C209.178 134.149 204.335 128.118 205.027 124.955C205.719 121.791 208.289 120.902 209.178 115.563C209.178 115.563 207.793 115.694 206.872 115.101C205.949 114.508 203.512 113.521 202.193 113.851C200.876 114.179 197.647 116.354 197.515 115.959C197.383 115.563 197.844 113.191 197.844 113.191C197.844 113.191 194.286 116.947 194.813 118.462C195.341 119.98 198.438 123.735 201.667 125.845C201.667 125.845 202.26 130.457 206.477 134.742C208.996 137.3 211.343 137.763 213.35 137.334C214.196 138.591 217.082 142.373 221.681 143.195C221.681 143.195 220.886 137.896 221.461 133.892C221.644 133.803 221.819 133.698 221.962 133.556C222.687 132.83 231.121 125.054 237.381 132.567C237.381 132.567 234.548 133.621 233.427 137.179C232.307 140.738 231.648 149.571 222.357 143.902C222.357 143.902 221.566 148.978 224.4 152.008C224.4 152.008 224.005 157.415 230.133 160.38C236.261 163.346 240.544 161.103 244.498 163.081C244.498 163.081 244.102 154.974 247.463 150.031C250.823 145.088 255.569 143.442 257.875 145.354C260.181 147.263 261.631 154.514 252.735 162.027C252.735 162.027 262.949 163.346 269.933 158.008C269.933 158.008 269.068 167.424 262.017 175.401C287.56 169.917 306.636 147.198 306.636 120.012C306.636 109.876 303.974 100.362 299.312 92.1318Z" fill="#231F20"/>
<path d="M258.269 94.3413C258.269 94.3413 251.614 90.5865 248.649 94.4748C245.861 98.1307 247.674 104.407 246.037 108.322C245.985 108.276 245.932 108.227 245.882 108.182C242.192 104.887 237.645 110.49 236.788 112.136C235.932 113.784 234.811 113.982 234.811 113.982C226.706 115.629 228.419 109.106 225.718 107.129C223.017 105.152 218.47 108.051 218.47 108.051C223.016 107.193 224.07 110.356 223.939 111.609C223.808 112.861 224.729 116.552 225.982 118.596C227.233 120.64 232.308 119.19 236.459 119.518C240.61 119.847 242.982 124.921 242.982 124.921C245.486 118.86 238.765 116.09 238.765 116.09C238.765 116.09 240.729 112.37 243.048 113.653C250.428 117.739 248.583 134.282 248.583 134.282C254.941 122.32 252.141 115.31 248.823 111.2C249.245 107.472 251.13 95.7253 258.269 94.3413Z" fill="#231F20"/>
</svg>
