<svg width="800" height="180" viewBox="0 0 800 180" fill="none" xmlns="http://www.w3.org/2000/svg">
<rect width="800" height="180" rx="15" fill="#F7B70E"/>
<path d="M291.622 121.636L308.563 75.386L314.103 121.636H332.003L322.307 53.7006H300.464L286.001 94.5194L271.537 53.7006H249.695L240 121.636H257.9L263.44 75.386L280.381 121.636H291.622Z" fill="#231F20"/>
<path d="M385.703 71.1241L408.717 121.636L399.607 141.457H419.425L451.07 71.1241H430.613L418.466 106.451L406.16 71.1241H385.703Z" fill="#231F20"/>
<path d="M690 121.583L669.065 94.5691L688.136 71.1238H666.828L649.885 93.1829V48.1056H631.346V121.583H649.885V96.0002L668.904 121.583H690Z" fill="#231F20"/>
<path d="M472.911 109.922V83.3459C476.667 82.0796 490.279 78.6819 490.279 95.9529C490.279 113.546 476.315 110.844 472.911 109.922ZM454.052 119.036C454.052 119.036 463.854 122.703 477.599 122.703C491.344 122.703 509.243 118.439 509.243 94.7816C509.243 71.124 485.484 70.2707 482.713 70.2707C477.479 70.2707 474.134 71.6934 472.911 72.3213V47.9999H454.052V119.036Z" fill="#231F20"/>
<path d="M528.849 106.076C528.849 98.8109 542.645 98.2938 546.429 98.2889C546.429 103.614 546.429 109.186 546.429 111.227C542.485 111.694 528.849 112.823 528.849 106.076ZM519.366 83.9124C546.428 75.92 546.429 85.5109 546.429 86.7897C546.429 86.9661 546.429 87.585 546.429 88.503C524.53 88.682 511.482 94.947 511.482 106.291C511.482 117.8 523.629 122.808 539.717 122.808C555.805 122.808 564.01 119.079 564.01 119.079C564.01 119.079 564.01 98.7234 564.01 87.6429C564.01 76.5604 556.871 69.5261 539.717 69.5261C522.562 69.5261 515.105 73.5747 515.105 73.5747L519.366 83.9124Z" fill="#231F20"/>
<path d="M351.767 106.076C351.767 98.8109 365.562 98.2938 369.347 98.2889C369.347 103.614 369.347 109.186 369.347 111.227C365.402 111.694 351.767 112.823 351.767 106.076ZM342.284 83.9124C369.346 75.92 369.347 85.5109 369.347 86.7897C369.347 86.9661 369.347 87.585 369.347 88.503C347.448 88.682 334.4 94.947 334.4 106.291C334.4 117.8 346.546 122.808 362.634 122.808C378.723 122.808 386.927 119.079 386.927 119.079C386.927 119.079 386.927 98.7234 386.927 87.6429C386.927 76.5604 379.789 69.5261 362.634 69.5261C345.48 69.5261 338.022 73.5747 338.022 73.5747L342.284 83.9124Z" fill="#231F20"/>
<path d="M605.671 121.529H624.316V89.5596C624.316 72.9368 612.383 69.4202 597.68 69.4202C582.976 69.4202 571.149 73.4683 571.149 73.4683V121.529H589.795V83.3055C604.131 79.1105 605.671 86.0104 605.671 89.3473V121.529Z" fill="#231F20"/>
<path d="M184.148 90.0124C184.148 125.447 155.427 154.172 120 154.172C84.5717 154.172 55.8516 125.447 55.8516 90.0124C55.8516 54.5776 84.5717 25.8528 120 25.8528C155.427 25.8528 184.148 54.5776 184.148 90.0124Z" fill="#F7B70E"/>
<path d="M120 20.0001C81.4019 20.0001 50 51.408 50 90.0124C50 128.617 81.4019 160.022 120 160.022C158.597 160.022 190 128.617 190 90.0124C190 51.408 158.597 20.0001 120 20.0001ZM120 25.8529C155.427 25.8529 184.149 54.5777 184.149 90.0124C184.149 125.447 155.427 154.172 120 154.172C84.5722 154.172 55.852 125.447 55.852 90.0124C55.852 54.5777 84.5722 25.8529 120 25.8529Z" fill="#231F20"/>
<path d="M89.8535 65.4954C89.8535 65.4954 91.3361 59.6627 93.7083 57.6856C96.0805 55.7084 104.612 50.0747 116.936 46.1191C118.401 45.6477 120.106 46.1883 120.184 46.213C120.103 46.6967 120.053 47.0273 120.033 47.1398C119.869 48.0641 119.176 48.6573 119.176 48.6573C121.679 48.986 123.328 47.2065 123.789 45.1626C124.25 43.1212 125.831 35.0264 128.402 35.1457C135.584 35.4744 140.724 58.6742 140.197 59.7276C139.852 60.4177 137.034 59.8605 137.034 59.8605C141.515 66.9116 147.379 66.8454 148.697 65.7253C150.015 64.6057 149.29 60.98 149.29 60.98C163.392 69.3509 162.601 79.3036 162.601 79.3036C166.818 62.8275 157.066 55.7732 157.066 55.7732C160.887 55.6416 165.039 58.081 165.039 58.081C159.109 50.1055 146.852 45.6915 146.852 45.6915C146.852 45.6915 132.553 29.8073 127.94 30.4005C124.119 30.8916 121.935 37.9057 120.865 42.7096C120.339 42.6622 119.335 42.625 118.034 42.7776C117.023 41.5222 112.743 36.4402 111.072 38.1115C110.428 38.7552 110.221 43.3263 110.166 45.2553C103.239 48.0097 91.4522 53.1906 89.0628 56.9935C86.8883 60.4536 86.3941 63.0239 86.3941 63.0239C86.3941 63.0239 72.2597 72.119 68.8003 82.0049C68.8003 82.0049 78.2891 70.9327 89.8535 65.4954Z" fill="#231F20"/>
<path d="M135.321 58.146C135.123 50.8304 131.499 44.965 129.653 44.6363C127.808 44.3057 127.216 51.292 127.216 51.292C132.092 54.5222 135.321 58.146 135.321 58.146Z" fill="#231F20"/>
<path d="M100.594 56.8277C97.7593 58.543 99.0122 59.9912 99.0122 59.9912C99.0122 59.9912 98.5513 58.5411 102.044 57.5525C108.272 55.7898 113.904 53.9936 113.773 52.4779C113.641 50.9629 109.424 50.3698 109.424 50.3698C110.61 51.9515 103.427 55.115 100.594 56.8277Z" fill="#231F20"/>
<path d="M103.526 66.5163C104.382 66.5163 105.076 65.823 105.076 64.9692C105.076 64.5021 104.86 64.0973 104.535 63.815C105.56 63.747 107.909 63.8798 107.909 63.8798C107.644 63.8131 107.053 64.473 105.734 66.1209C104.416 67.7694 103.164 66.5163 103.164 66.5163L103.143 66.4391C103.268 66.4719 103.39 66.5163 103.526 66.5163ZM98.5521 73.568C98.5521 73.568 100.332 69.4178 101.649 68.8889C101.649 68.8889 103.956 69.4821 105.207 69.0205C106.459 68.5602 108.832 65.3967 109.754 65.33C109.754 65.33 107.316 75.9407 97.4315 75.7429C97.4315 75.7429 104.549 79.7634 108.173 76.9292C111.797 74.0963 109.03 71.9214 113.708 67.3739C118.386 62.8264 115.289 62.6268 115.091 62.6935C114.894 62.7597 113.444 62.2981 113.444 62.2981C113.444 62.2981 114.102 61.4424 115.421 60.8492C116.739 60.2561 124.316 56.8281 124.449 54.7848C124.58 52.7428 118.979 50.4369 116.146 50.5011C116.146 50.5011 118.715 51.5546 118.584 53.0054C118.452 54.4555 111.072 57.6857 111.072 61.8378C111.072 61.8378 108.435 62.0355 106.525 61.6401C104.614 61.2447 102.572 61.4424 100.463 62.8264C98.3545 64.2104 98.2223 61.1118 98.4199 60.7164C98.4199 60.7164 94.3347 63.2867 99.4745 66.583C99.4745 66.583 97.366 68.7579 97.1684 69.2843C96.9707 69.8114 96.1138 72.6456 98.5521 73.568Z" fill="#231F20"/>
<path d="M92.0279 87.1456C92.0279 87.1456 91.9291 83.389 88.4696 84.1798C82.6484 85.5095 80.6611 95.8452 80.6611 95.8452C87.1847 83.7844 92.0279 87.1456 92.0279 87.1456Z" fill="#231F20"/>
<path d="M94.2031 96.3395C97.366 91.1989 93.5112 87.9365 88.5691 90.7046C83.627 93.4726 82.4409 100.096 82.4409 100.096C92.2262 89.4194 94.2031 96.3395 94.2031 96.3395Z" fill="#231F20"/>
<path d="M81.5508 86.75C85.1091 81.0162 89.1616 81.115 89.1616 81.115C84.3183 77.5561 81.5508 86.75 81.5508 86.75Z" fill="#231F20"/>
<path d="M140.856 89.7161C140.856 89.7161 137.297 86.5527 137.693 80.72C138.088 74.8873 139.175 66.0888 129.291 59.9596C129.291 59.9596 133.344 66.1877 131.861 72.317C130.378 78.4462 125.426 88.9129 125.832 92.3853C126.721 99.9975 134.629 101.382 134.036 111.762C134.036 111.762 138.681 106.127 137.791 99.5032C136.902 92.8796 131.07 90.0127 133.64 84.7732C133.64 84.7732 136.605 89.123 140.856 89.7161Z" fill="#231F20"/>
<path d="M95.9319 120.164C95.0423 119.867 94.2516 116.605 94.2516 116.605C95.5365 117.643 98.1565 117.693 98.1565 117.693C96.9203 118.879 96.8215 120.461 95.9319 120.164ZM105.8 109.75C105.8 109.75 108.897 109.883 109.029 109.354C109.161 108.826 108.041 105.202 108.041 105.202C108.041 105.202 111.928 105.598 111.994 106.849C112.06 108.103 109.82 111.267 105.075 113.309C105.075 113.309 105.932 110.806 105.8 109.75ZM85.6926 106.398C86.1177 106.148 86.5192 105.879 86.8886 105.598C87.8479 104.872 88.5738 104.526 89.0606 104.362C88.9599 105.749 88.8778 108.199 89.3095 110.229C89.3095 110.229 86.7545 108.588 85.6926 106.398ZM73.3146 93.7346C71.7986 93.7346 69.0972 89.7154 68.6357 88.9245C68.1748 88.1337 71.2056 86.6829 72.1285 86.4191C73.0514 86.1546 74.025 86.3771 74.1708 86.8145C74.303 87.2099 72.2601 88.4623 71.9963 88.9245C71.7331 89.3848 73.6111 91.1224 73.9077 91.4949C74.4346 92.1548 74.8306 93.7346 73.3146 93.7346ZM169.312 62.1318C169.312 62.1318 177.956 85.6301 168.202 106.982C168.202 106.982 168.756 103.88 166.357 97.757C163.787 91.1983 164.644 82.7285 165.698 81.1468C165.698 81.1468 160.953 85.8939 161.217 93.8026C161.481 101.711 163.59 123.985 147.511 132.29C147.511 132.29 153.607 121.153 151.333 108.103C151.333 108.103 153.409 108.894 154.496 111.662C154.496 111.662 158.845 100.194 153.211 86.1565C153.211 86.1565 156.374 86.7496 158.351 88.4302C158.351 88.4302 160.429 78.3836 149.06 71.3276C146.192 69.5482 146.589 68.5596 146.589 68.5596C146.589 68.5596 145.699 70.8333 147.577 73.1071C149.455 75.3808 152.025 79.8295 151.63 82.1033C151.63 82.1033 148.566 79.9284 144.118 80.5215C144.118 80.5215 152.618 87.7382 151.333 103.259C151.333 103.259 149.159 100.886 143.624 99.8979C143.624 99.8979 149.851 111.563 144.316 122.734C144.316 122.734 143.92 118.78 142.141 116.308C142.141 116.308 140.757 124.514 130.873 127.381C130.873 127.381 138.879 117.396 129.39 112.354C119.902 107.312 111.896 118.483 110.314 128.27C110.314 128.27 99.3426 129.061 98.2554 124.613C97.1681 120.164 100.331 118.286 100.331 118.286C100.331 118.286 102.011 119.373 105.866 117.594C109.721 115.814 117.826 110.97 117.035 104.841C116.245 98.7116 106.657 92.6812 99.0461 95.1527C91.4353 97.6241 87.0863 104.347 83.1326 104.248C79.179 104.149 74.3358 98.1184 75.0276 94.9549C75.7195 91.7914 78.2894 90.9017 79.179 85.5633C79.179 85.5633 77.7939 85.6943 76.8723 85.1011C75.95 84.508 73.5123 83.5213 72.194 83.8506C70.8763 84.1793 67.6473 86.3542 67.5157 85.9588C67.3835 85.5633 67.845 83.1907 67.845 83.1907C67.845 83.1907 64.286 86.9474 64.8136 88.4623C65.3412 89.9799 68.438 93.7346 71.667 95.8447C71.667 95.8447 72.2607 100.457 76.4775 104.742C78.9966 107.3 81.3435 107.763 83.3501 107.334C84.197 108.591 87.0825 112.373 91.6817 113.195C91.6817 113.195 90.8861 107.896 91.4613 103.892C91.6441 103.803 91.8196 103.698 91.9623 103.556C92.6875 102.83 101.122 95.0538 107.382 102.567C107.382 102.567 104.549 103.621 103.428 107.179C102.308 110.738 101.649 119.571 92.3576 113.902C92.3576 113.902 91.5663 118.978 94.4006 122.008C94.4006 122.008 94.0052 127.415 100.133 130.38C106.262 133.346 110.544 131.103 114.498 133.081C114.498 133.081 114.103 124.974 117.463 120.031C120.824 115.088 125.57 113.442 127.875 115.354C130.181 117.263 131.631 124.514 122.735 132.027C122.735 132.027 132.949 133.346 139.934 128.008C139.934 128.008 139.068 137.424 132.017 145.401C157.561 139.917 176.637 117.198 176.637 90.012C176.637 79.8758 173.975 70.362 169.312 62.1318Z" fill="#231F20"/>
<path d="M128.269 64.3413C128.269 64.3413 121.614 60.5865 118.649 64.4748C115.861 68.1307 117.674 74.407 116.036 78.3225C115.985 78.2761 115.931 78.2266 115.881 78.1815C112.192 74.8871 107.644 80.4899 106.788 82.1359C105.931 83.7844 104.811 83.9821 104.811 83.9821C96.7058 85.6287 98.4189 79.1059 95.7174 77.1287C93.0166 75.1516 88.4692 78.0506 88.4692 78.0506C93.0159 77.193 94.0698 80.3564 93.9383 81.6095C93.8073 82.8607 94.729 86.5525 95.9812 88.5964C97.2328 90.6397 102.307 89.1895 106.458 89.5182C110.61 89.8469 112.982 94.9215 112.982 94.9215C115.486 88.8602 108.764 86.0903 108.764 86.0903C108.764 86.0903 110.728 82.3695 113.047 83.6534C120.428 87.7388 118.583 104.282 118.583 104.282C124.94 92.3203 122.14 85.3105 118.822 81.1998C119.244 77.4717 121.129 65.7253 128.269 64.3413Z" fill="#231F20"/>
</svg>
