<svg width="648" height="155" viewBox="0 0 648 155" fill="none" xmlns="http://www.w3.org/2000/svg">
<path d="M648 155H0V0H648V155Z" fill="#F7B70E"/>
<path d="M211.241 112.96L228.926 64.6789L234.709 112.96H253.395L243.274 42.0412H220.472L205.373 84.6524L190.274 42.0412H167.473L157.352 112.96H176.038L181.821 64.6789L199.506 112.96H211.241Z" fill="#231F20"/>
<path d="M309.453 60.2301L333.477 112.96L323.968 133.651H344.655L377.689 60.2301H356.334L343.654 97.1079L330.808 60.2301H309.453Z" fill="#231F20"/>
<path d="M627.111 112.905L605.257 84.7046L625.165 60.2298H602.921L585.235 83.2576V36.2009H565.882V112.905H585.235V86.1986L605.089 112.905H627.111Z" fill="#231F20"/>
<path d="M400.49 100.732V72.9888C404.411 71.6669 418.621 68.12 418.621 86.1494C418.621 104.515 404.044 101.694 400.49 100.732ZM380.803 110.246C380.803 110.246 391.036 114.074 405.384 114.074C419.733 114.074 438.418 109.623 438.418 84.9266C438.418 60.2302 413.616 59.3395 410.723 59.3395C405.259 59.3395 401.767 60.8247 400.49 61.4801V36.0908H380.803V110.246Z" fill="#231F20"/>
<path d="M458.885 96.7167C458.885 89.1321 473.286 88.5924 477.237 88.5872C477.237 94.146 477.237 99.9629 477.237 102.093C473.119 102.581 458.885 103.759 458.885 96.7167ZM448.985 73.5795C477.235 65.2362 477.237 75.2482 477.237 76.5831C477.237 76.7672 477.237 77.4134 477.237 78.3717C454.376 78.5585 440.755 85.0986 440.755 96.941C440.755 108.955 453.435 114.183 470.23 114.183C487.024 114.183 495.589 110.29 495.589 110.29C495.589 110.29 495.589 89.0408 495.589 77.4738C495.589 65.9047 488.137 58.5614 470.23 58.5614C452.322 58.5614 444.537 62.7879 444.537 62.7879L448.985 73.5795Z" fill="#231F20"/>
<path d="M274.027 96.7167C274.027 89.1321 288.428 88.5924 292.379 88.5872C292.379 94.146 292.379 99.9629 292.379 102.093C288.261 102.581 274.027 103.759 274.027 96.7167ZM264.127 73.5795C292.378 65.2362 292.379 75.2482 292.379 76.5831C292.379 76.7672 292.379 77.4134 292.379 78.3717C269.518 78.5585 255.897 85.0986 255.897 96.941C255.897 108.955 268.577 114.183 285.372 114.183C302.166 114.183 310.731 110.29 310.731 110.29C310.731 110.29 310.731 89.0408 310.731 77.4738C310.731 65.9047 303.279 58.5614 285.372 58.5614C267.464 58.5614 259.679 62.7879 259.679 62.7879L264.127 73.5795Z" fill="#231F20"/>
<path d="M539.079 112.848H558.543V79.4746C558.543 62.122 546.086 58.4509 530.737 58.4509C515.388 58.4509 503.042 62.6768 503.042 62.6768V112.848H522.506V72.946C537.472 68.5667 539.079 75.7696 539.079 79.253V112.848Z" fill="#231F20"/>
<path d="M134.105 77.5009C134.105 107.407 109.865 131.649 79.9661 131.649C50.066 131.649 25.8271 107.407 25.8271 77.5009C25.8271 47.5951 50.066 23.3523 79.9661 23.3523C109.865 23.3523 134.105 47.5951 134.105 77.5009Z" fill="#F7B70E"/>
<path d="M79.9665 18.4126C47.3908 18.4126 20.8887 44.9198 20.8887 77.5007C20.8887 110.082 47.3908 136.587 79.9665 136.587C112.541 136.587 139.044 110.082 139.044 77.5007C139.044 44.9198 112.541 18.4126 79.9665 18.4126ZM79.9665 23.3521C109.866 23.3521 134.106 47.5949 134.106 77.5007C134.106 107.406 109.866 131.649 79.9665 131.649C50.0665 131.649 25.8276 107.406 25.8276 77.5007C25.8276 47.5949 50.0665 23.3521 79.9665 23.3521Z" fill="#231F20"/>
<path d="M54.5236 56.8092C54.5236 56.8092 55.7749 51.8866 57.777 50.218C59.779 48.5493 66.9796 43.7946 77.3804 40.4562C78.6166 40.0584 80.0561 40.5147 80.1212 40.5355C80.0529 40.9437 80.0113 41.2227 79.994 41.3176C79.8554 42.0978 79.2709 42.5984 79.2709 42.5984C81.3835 42.8758 82.775 41.374 83.164 39.649C83.5534 37.9261 84.8871 31.0944 87.057 31.195C93.1184 31.4724 97.4562 51.0523 97.0115 51.9414C96.7211 52.5238 94.3421 52.0535 94.3421 52.0535C98.1241 58.0044 103.073 57.9486 104.186 57.0032C105.298 56.0583 104.686 52.9984 104.686 52.9984C116.588 60.0631 115.92 68.4629 115.92 68.4629C119.479 54.5576 111.249 48.604 111.249 48.604C114.474 48.493 117.978 50.5517 117.978 50.5517C112.973 43.8207 102.628 40.0954 102.628 40.0954C102.628 40.0954 90.5606 26.6896 86.6676 27.1902C83.4429 27.6047 81.5993 33.5244 80.6964 37.5787C80.252 37.5387 79.4049 37.5073 78.3068 37.6361C77.4534 36.5766 73.8413 32.2876 72.4311 33.6981C71.8877 34.2414 71.7131 38.0992 71.6667 39.7272C65.8201 42.0519 55.8729 46.4243 53.8563 49.6339C52.021 52.5541 51.604 54.7234 51.604 54.7234C51.604 54.7234 39.675 62.3993 36.7554 70.7427C36.7554 70.7427 44.7636 61.3981 54.5236 56.8092Z" fill="#231F20"/>
<path d="M92.8965 50.6064C92.7297 44.4323 89.6708 39.4821 88.1135 39.2047C86.5556 38.9257 86.0562 44.8219 86.0562 44.8219C90.1713 47.5481 92.8965 50.6064 92.8965 50.6064Z" fill="#231F20"/>
<path d="M63.588 49.4942C61.196 50.9418 62.2533 52.1641 62.2533 52.1641C62.2533 52.1641 61.8644 50.9402 64.8117 50.1059C70.0687 48.6182 74.822 47.1022 74.7109 45.8231C74.5993 44.5445 71.0405 44.0439 71.0405 44.0439C72.0415 45.3788 65.9795 48.0487 63.588 49.4942Z" fill="#231F20"/>
<path d="M66.063 57.671C66.7851 57.671 67.3706 57.0859 67.3706 56.3653C67.3706 55.9711 67.1887 55.6295 66.9144 55.3912C67.7793 55.3338 69.7616 55.4459 69.7616 55.4459C69.5385 55.3896 69.039 55.9465 67.9264 57.3372C66.8138 58.7285 65.7575 57.671 65.7575 57.671L65.7398 57.6058C65.8451 57.6335 65.9484 57.671 66.063 57.671ZM61.865 63.6224C61.865 63.6224 63.3671 60.1198 64.4786 59.6734C64.4786 59.6734 66.4254 60.174 67.4817 59.7845C68.5385 59.396 70.5411 56.7261 71.319 56.6698C71.319 56.6698 69.2611 65.6248 60.9192 65.458C60.9192 65.458 66.9259 68.8511 69.9843 66.4592C73.0431 64.0683 70.7079 62.2327 74.6557 58.3948C78.604 54.5568 75.9904 54.3884 75.8236 54.4447C75.6568 54.5005 74.4331 54.111 74.4331 54.111C74.4331 54.111 74.9889 53.3888 76.1015 52.8882C77.2141 52.3875 83.6092 49.4945 83.7208 47.77C83.8318 46.0466 79.1046 44.1005 76.7136 44.1547C76.7136 44.1547 78.8814 45.0438 78.7709 46.2682C78.6598 47.4921 72.431 50.2183 72.431 53.7225C72.431 53.7225 70.2058 53.8894 68.5938 53.5556C66.9812 53.2219 65.2575 53.3888 63.4776 54.5568C61.6981 55.7249 61.5866 53.1098 61.7534 52.776C61.7534 52.776 58.3056 54.9453 62.6434 57.7273C62.6434 57.7273 60.864 59.5629 60.6971 60.0071C60.5303 60.4519 59.8071 62.8439 61.865 63.6224Z" fill="#231F20"/>
<path d="M56.3588 75.0812C56.3588 75.0812 56.2754 71.9107 53.3557 72.5781C48.4428 73.7003 46.7656 82.4233 46.7656 82.4233C52.2713 72.2444 56.3588 75.0812 56.3588 75.0812Z" fill="#231F20"/>
<path d="M58.1944 82.8407C60.8638 78.5022 57.6105 75.7489 53.4396 78.085C49.2686 80.4212 48.2676 86.0112 48.2676 86.0112C56.5261 77.0004 58.1944 82.8407 58.1944 82.8407Z" fill="#231F20"/>
<path d="M47.5166 74.7476C50.5197 69.9084 53.9399 69.9918 53.9399 69.9918C49.8523 66.9882 47.5166 74.7476 47.5166 74.7476Z" fill="#231F20"/>
<path d="M97.5677 77.2507C97.5677 77.2507 94.5647 74.5808 94.8983 69.6582C95.232 64.7356 96.1496 57.31 87.8077 52.1371C87.8077 52.1371 91.2279 57.3935 89.9766 62.5663C88.7253 67.7392 84.5454 76.5728 84.8881 79.5034C85.6388 85.9278 92.3123 87.0959 91.8118 95.8564C91.8118 95.8564 95.7325 91.1007 94.9818 85.5106C94.231 79.9206 89.3093 77.501 91.4782 73.079C91.4782 73.079 93.9807 76.7501 97.5677 77.2507Z" fill="#231F20"/>
<path d="M59.6536 102.948C58.9028 102.698 58.2354 99.9443 58.2354 99.9443C59.3199 100.82 61.5311 100.862 61.5311 100.862C60.4878 101.863 60.4043 103.198 59.6536 102.948ZM67.982 94.1587C67.982 94.1587 70.5956 94.2708 70.7072 93.825C70.8182 93.3791 69.873 90.3207 69.873 90.3207C69.873 90.3207 73.154 90.6545 73.2097 91.7104C73.265 92.769 71.3745 95.4389 67.3704 97.1623C67.3704 97.1623 68.0936 95.0504 67.982 94.1587ZM51.0119 91.3298C51.3707 91.1186 51.7095 90.8918 52.0213 90.6545C52.831 90.0417 53.4436 89.7498 53.8544 89.6116C53.7694 90.7822 53.7001 92.8498 54.0645 94.5629C54.0645 94.5629 51.9081 93.1783 51.0119 91.3298ZM40.5653 80.6424C39.2858 80.6424 37.0059 77.2503 36.6164 76.5829C36.2275 75.9154 38.7853 74.691 39.5643 74.4683C40.3432 74.2451 41.1648 74.4329 41.2879 74.8021C41.3995 75.1358 39.6753 76.1928 39.4527 76.5829C39.2306 76.9713 40.8156 78.4378 41.0658 78.7521C41.5105 79.3091 41.8447 80.6424 40.5653 80.6424ZM121.584 53.9707C121.584 53.9707 128.879 73.8025 120.648 91.8226C120.648 91.8226 121.115 89.2049 119.09 84.0372C116.921 78.5018 117.644 71.3536 118.534 70.0187C118.534 70.0187 114.529 74.0251 114.752 80.6998C114.975 87.3745 116.754 106.173 103.185 113.182C103.185 113.182 108.329 103.782 106.41 92.769C106.41 92.769 108.162 93.4365 109.08 95.7726C109.08 95.7726 112.75 86.0943 107.995 74.2467C107.995 74.2467 110.665 74.7473 112.333 76.1657C112.333 76.1657 114.087 67.6867 104.492 61.7316C102.072 60.2298 102.406 59.3955 102.406 59.3955C102.406 59.3955 101.656 61.3145 103.241 63.2335C104.826 65.1524 106.994 68.907 106.661 70.8259C106.661 70.8259 104.075 68.9904 100.321 69.491C100.321 69.491 107.495 75.5817 106.41 88.6808C106.41 88.6808 104.575 86.6784 99.9038 85.844C99.9038 85.844 105.159 95.6892 100.488 105.117C100.488 105.117 100.154 101.78 98.6525 99.694C98.6525 99.694 97.4847 106.619 89.1428 109.039C89.1428 109.039 95.8997 100.612 87.8915 96.3567C79.8833 92.1016 73.1263 101.53 71.7916 109.79C71.7916 109.79 62.5321 110.457 61.6145 106.702C60.6969 102.948 63.3663 101.363 63.3663 101.363C63.3663 101.363 64.7844 102.28 68.0378 100.779C71.2911 99.2769 78.1315 95.1886 77.4641 90.0157C76.7968 84.8428 68.7051 79.7533 62.2819 81.8392C55.8586 83.925 52.1882 89.5985 48.8514 89.5151C45.5146 89.4317 41.4271 84.3422 42.011 81.6723C42.595 79.0024 44.7639 78.2515 45.5146 73.7461C45.5146 73.7461 44.3457 73.8566 43.5678 73.356C42.7894 72.8554 40.7321 72.0227 39.6195 72.3006C38.5075 72.578 35.7823 74.4136 35.6712 74.0798C35.5596 73.7461 35.9491 71.7437 35.9491 71.7437C35.9491 71.7437 32.9455 74.9142 33.3907 76.1928C33.836 77.4735 36.4496 80.6424 39.1748 82.4232C39.1748 82.4232 39.6759 86.3159 43.2347 89.9323C45.3608 92.0911 47.3415 92.4823 49.0349 92.1198C49.7497 93.181 52.185 96.3723 56.0665 97.0659C56.0665 97.0659 55.3951 92.5943 55.8805 89.2153C56.0348 89.1397 56.1829 89.0509 56.3033 88.9311C56.9154 88.3183 64.0337 81.7558 69.3167 88.0967C69.3167 88.0967 66.9257 88.9858 65.9799 91.9894C65.0347 94.993 64.4784 102.447 56.637 97.6629C56.637 97.6629 55.9691 101.947 58.3612 104.504C58.3612 104.504 58.0275 109.067 63.1995 111.57C68.3714 114.073 71.9861 112.18 75.3229 113.849C75.3229 113.849 74.9892 107.008 77.8254 102.836C80.6617 98.6641 84.6669 97.2745 86.6126 98.8884C88.5588 100.5 89.7825 106.619 82.2748 112.96C82.2748 112.96 90.8951 114.073 96.7897 109.568C96.7897 109.568 96.0592 117.515 90.1083 124.247C111.666 119.619 127.766 100.445 127.766 77.5006C127.766 68.9461 125.519 60.9167 121.584 53.9707Z" fill="#231F20"/>
<path d="M86.9452 55.8351C86.9452 55.8351 81.3285 52.6662 78.8259 55.9478C76.4729 59.0332 78.0032 64.3302 76.621 67.6348C76.5777 67.5956 76.5323 67.5539 76.4902 67.5158C73.3766 64.7354 69.5388 69.464 68.8156 70.8532C68.093 72.2444 67.1472 72.4113 67.1472 72.4113C60.3069 73.801 61.7526 68.296 59.4727 66.6273C57.1933 64.9586 53.3555 67.4053 53.3555 67.4053C57.1927 66.6815 58.0822 69.3514 57.9711 70.4089C57.8606 71.4648 58.6385 74.5806 59.6953 76.3056C60.7516 78.0301 65.0341 76.8062 68.5377 77.0836C72.0413 77.361 74.0434 81.6438 74.0434 81.6438C76.1565 76.5283 70.484 74.1905 70.484 74.1905C70.484 74.1905 72.1414 71.0503 74.0986 72.1339C80.3274 75.5818 78.7701 89.5439 78.7701 89.5439C84.136 79.4485 81.7726 73.5324 78.9724 70.0632C79.3284 66.9167 80.9196 57.0032 86.9452 55.8351Z" fill="#231F20"/>
</svg>
