<svg width="180" height="180" viewBox="0 0 180 180" fill="none" xmlns="http://www.w3.org/2000/svg">
<circle cx="90" cy="90" r="90" fill="#F7B70E"/>
<path d="M154.148 90.0124C154.148 125.447 125.427 154.172 89.9997 154.172C54.5717 154.172 25.8516 125.447 25.8516 90.0124C25.8516 54.5776 54.5717 25.8528 89.9997 25.8528C125.427 25.8528 154.148 54.5776 154.148 90.0124Z" fill="#F7B70E"/>
<path d="M90.0002 20.0001C51.4019 20.0001 20 51.408 20 90.0124C20 128.617 51.4019 160.022 90.0002 160.022C128.597 160.022 160 128.617 160 90.0124C160 51.408 128.597 20.0001 90.0002 20.0001ZM90.0002 25.8529C125.427 25.8529 154.149 54.5777 154.149 90.0124C154.149 125.447 125.427 154.172 90.0002 154.172C54.5722 154.172 25.852 125.447 25.852 90.0124C25.852 54.5777 54.5722 25.8529 90.0002 25.8529Z" fill="#231F20"/>
<path d="M59.8535 65.4954C59.8535 65.4954 61.3361 59.6627 63.7083 57.6856C66.0805 55.7084 74.6124 50.0747 86.9361 46.1191C88.4008 45.6477 90.1065 46.1883 90.1836 46.213C90.1027 46.6967 90.0533 47.0273 90.0329 47.1398C89.8686 48.0641 89.1761 48.6573 89.1761 48.6573C91.6792 48.986 93.3281 47.2065 93.7889 45.1626C94.2504 43.1212 95.8306 35.0264 98.4017 35.1457C105.584 35.4744 110.724 58.6742 110.197 59.7276C109.852 60.4177 107.034 59.8605 107.034 59.8605C111.515 66.9116 117.379 66.8454 118.697 65.7253C120.015 64.6057 119.29 60.98 119.29 60.98C133.392 69.3509 132.601 79.3036 132.601 79.3036C136.818 62.8275 127.066 55.7732 127.066 55.7732C130.887 55.6416 135.039 58.081 135.039 58.081C129.109 50.1055 116.852 45.6915 116.852 45.6915C116.852 45.6915 102.553 29.8073 97.9402 30.4005C94.1194 30.8916 91.9349 37.9057 90.8651 42.7096C90.3386 42.6622 89.3348 42.625 88.0338 42.7776C87.0226 41.5222 82.7427 36.4402 81.0717 38.1115C80.4279 38.7552 80.221 43.3263 80.166 45.2553C73.2386 48.0097 61.4522 53.1906 59.0628 56.9935C56.8883 60.4536 56.3941 63.0239 56.3941 63.0239C56.3941 63.0239 42.2597 72.119 38.8003 82.0049C38.8003 82.0049 48.2891 70.9327 59.8535 65.4954Z" fill="#231F20"/>
<path d="M105.321 58.146C105.123 50.8304 101.499 44.965 99.6535 44.6363C97.8076 44.3057 97.2158 51.292 97.2158 51.292C102.092 54.5222 105.321 58.146 105.321 58.146Z" fill="#231F20"/>
<path d="M70.5936 56.8277C67.7593 58.543 69.0122 59.9912 69.0122 59.9912C69.0122 59.9912 68.5513 58.5411 72.0435 57.5525C78.2724 55.7898 83.9045 53.9936 83.7729 52.4779C83.6407 50.9629 79.4239 50.3698 79.4239 50.3698C80.61 51.9515 73.4273 55.115 70.5936 56.8277Z" fill="#231F20"/>
<path d="M73.5263 66.5163C74.3819 66.5163 75.0757 65.823 75.0757 64.9692C75.0757 64.5021 74.8601 64.0973 74.5351 63.815C75.5599 63.747 77.9087 63.8798 77.9087 63.8798C77.6443 63.8131 77.0525 64.473 75.7342 66.1209C74.4159 67.7694 73.1643 66.5163 73.1643 66.5163L73.1433 66.4391C73.2681 66.4719 73.3905 66.5163 73.5263 66.5163ZM68.5521 73.568C68.5521 73.568 70.3319 69.4178 71.649 68.8889C71.649 68.8889 73.9557 69.4821 75.2073 69.0205C76.4595 68.5602 78.8323 65.3967 79.754 65.33C79.754 65.33 77.3157 75.9407 67.4315 75.7429C67.4315 75.7429 74.5487 79.7634 78.1725 76.9292C81.7969 74.0963 79.03 71.9214 83.7076 67.3739C88.3859 62.8264 85.2891 62.6268 85.0914 62.6935C84.8937 62.7597 83.4438 62.2981 83.4438 62.2981C83.4438 62.2981 84.1024 61.4424 85.4207 60.8492C86.739 60.2561 94.3164 56.8281 94.4486 54.7848C94.5802 52.7428 88.979 50.4369 86.1459 50.5011C86.1459 50.5011 88.7145 51.5546 88.5836 53.0054C88.452 54.4555 81.0716 57.6857 81.0716 61.8378C81.0716 61.8378 78.435 62.0355 76.5249 61.6401C74.6142 61.2447 72.5719 61.4424 70.4629 62.8264C68.3545 64.2104 68.2223 61.1118 68.4199 60.7164C68.4199 60.7164 64.3347 63.2867 69.4745 66.583C69.4745 66.583 67.366 68.7579 67.1684 69.2843C66.9707 69.8114 66.1138 72.6456 68.5521 73.568Z" fill="#231F20"/>
<path d="M62.0279 87.1456C62.0279 87.1456 61.9291 83.389 58.4696 84.1798C52.6484 85.5095 50.6611 95.8452 50.6611 95.8452C57.1847 83.7844 62.0279 87.1456 62.0279 87.1456Z" fill="#231F20"/>
<path d="M64.2031 96.3395C67.366 91.1989 63.5112 87.9365 58.5691 90.7046C53.627 93.4726 52.4409 100.096 52.4409 100.096C62.2262 89.4194 64.2031 96.3395 64.2031 96.3395Z" fill="#231F20"/>
<path d="M51.5508 86.75C55.1091 81.0162 59.1616 81.115 59.1616 81.115C54.3183 77.5561 51.5508 86.75 51.5508 86.75Z" fill="#231F20"/>
<path d="M110.856 89.7161C110.856 89.7161 107.297 86.5527 107.693 80.72C108.088 74.8873 109.175 66.0888 99.2911 59.9596C99.2911 59.9596 103.344 66.1877 101.861 72.317C100.378 78.4462 95.4257 88.9129 95.8317 92.3853C96.7212 99.9975 104.629 101.382 104.036 111.762C104.036 111.762 108.681 106.127 107.791 99.5032C106.902 92.8796 101.07 90.0127 103.64 84.7732C103.64 84.7732 106.605 89.123 110.856 89.7161Z" fill="#231F20"/>
<path d="M65.9319 120.164C65.0423 119.867 64.2516 116.605 64.2516 116.605C65.5365 117.643 68.1565 117.693 68.1565 117.693C66.9203 118.879 66.8215 120.461 65.9319 120.164ZM75.8001 109.75C75.8001 109.75 78.8969 109.883 79.0291 109.354C79.1607 108.826 78.0407 105.202 78.0407 105.202C78.0407 105.202 81.9282 105.598 81.9944 106.849C82.0598 108.103 79.8198 111.267 75.0754 113.309C75.0754 113.309 75.9323 110.806 75.8001 109.75ZM55.6926 106.398C56.1177 106.148 56.5192 105.879 56.8886 105.598C57.8479 104.872 58.5738 104.526 59.0606 104.362C58.9599 105.749 58.8778 108.199 59.3095 110.229C59.3095 110.229 56.7545 108.588 55.6926 106.398ZM43.3146 93.7346C41.7986 93.7346 39.0972 89.7154 38.6357 88.9245C38.1748 88.1337 41.2056 86.6829 42.1285 86.4191C43.0514 86.1546 44.025 86.3771 44.1708 86.8145C44.303 87.2099 42.2601 88.4623 41.9963 88.9245C41.7331 89.3848 43.6111 91.1224 43.9077 91.4949C44.4346 92.1548 44.8306 93.7346 43.3146 93.7346ZM139.312 62.1318C139.312 62.1318 147.956 85.6301 138.202 106.982C138.202 106.982 138.756 103.88 136.357 97.757C133.787 91.1983 134.644 82.7285 135.698 81.1468C135.698 81.1468 130.953 85.8939 131.217 93.8026C131.481 101.711 133.59 123.985 117.511 132.29C117.511 132.29 123.607 121.153 121.333 108.103C121.333 108.103 123.409 108.894 124.496 111.662C124.496 111.662 128.845 100.194 123.211 86.1565C123.211 86.1565 126.374 86.7496 128.351 88.4302C128.351 88.4302 130.429 78.3836 119.06 71.3276C116.192 69.5482 116.589 68.5596 116.589 68.5596C116.589 68.5596 115.699 70.8333 117.577 73.1071C119.455 75.3808 122.025 79.8295 121.63 82.1033C121.63 82.1033 118.566 79.9284 114.118 80.5215C114.118 80.5215 122.618 87.7382 121.333 103.259C121.333 103.259 119.159 100.886 113.624 99.8979C113.624 99.8979 119.851 111.563 114.316 122.734C114.316 122.734 113.92 118.78 112.141 116.308C112.141 116.308 110.757 124.514 100.873 127.381C100.873 127.381 108.879 117.396 99.3905 112.354C89.9017 107.312 81.8955 118.483 80.314 128.27C80.314 128.27 69.3426 129.061 68.2554 124.613C67.1681 120.164 70.3311 118.286 70.3311 118.286C70.3311 118.286 72.0114 119.373 75.8662 117.594C79.721 115.814 87.826 110.97 87.0353 104.841C86.2445 98.7116 76.6569 92.6812 69.0461 95.1527C61.4353 97.6241 57.0863 104.347 53.1326 104.248C49.179 104.149 44.3358 98.1184 45.0276 94.9549C45.7195 91.7914 48.2894 90.9017 49.179 85.5633C49.179 85.5633 47.7939 85.6943 46.8723 85.1011C45.95 84.508 43.5123 83.5213 42.194 83.8506C40.8763 84.1793 37.6473 86.3542 37.5157 85.9588C37.3835 85.5633 37.845 83.1907 37.845 83.1907C37.845 83.1907 34.286 86.9474 34.8136 88.4623C35.3412 89.9799 38.438 93.7346 41.667 95.8447C41.667 95.8447 42.2607 100.457 46.4775 104.742C48.9966 107.3 51.3435 107.763 53.3501 107.334C54.197 108.591 57.0825 112.373 61.6817 113.195C61.6817 113.195 60.8861 107.896 61.4613 103.892C61.6441 103.803 61.8196 103.698 61.9623 103.556C62.6875 102.83 71.1218 95.0538 77.3815 102.567C77.3815 102.567 74.5485 103.621 73.4279 107.179C72.3079 110.738 71.6487 119.571 62.3576 113.902C62.3576 113.902 61.5663 118.978 64.4006 122.008C64.4006 122.008 64.0052 127.415 70.1334 130.38C76.2615 133.346 80.5445 131.103 84.4981 133.081C84.4981 133.081 84.1028 124.974 87.4634 120.031C90.824 115.088 95.5696 113.442 97.8751 115.354C100.181 117.263 101.631 124.514 92.7353 132.027C92.7353 132.027 102.949 133.346 109.934 128.008C109.934 128.008 109.068 137.424 102.017 145.401C127.561 139.917 146.637 117.198 146.637 90.012C146.637 79.8758 143.975 70.362 139.312 62.1318Z" fill="#231F20"/>
<path d="M98.269 64.3413C98.269 64.3413 91.6139 60.5865 88.6486 64.4748C85.8607 68.1307 87.6738 74.407 86.036 78.3225C85.9848 78.2761 85.931 78.2266 85.8811 78.1815C82.1918 74.8871 77.6445 80.4899 76.7877 82.1359C75.9314 83.7844 74.8108 83.9821 74.8108 83.9821C66.7058 85.6287 68.4189 79.1059 65.7174 77.1287C63.0166 75.1516 58.4692 78.0506 58.4692 78.0506C63.0159 77.193 64.0698 80.3564 63.9383 81.6095C63.8073 82.8607 64.729 86.5525 65.9812 88.5964C67.2328 90.6397 72.307 89.1895 76.4584 89.5182C80.6097 89.8469 82.9819 94.9215 82.9819 94.9215C85.4857 88.8602 78.7645 86.0903 78.7645 86.0903C78.7645 86.0903 80.7283 82.3695 83.0474 83.6534C90.4278 87.7388 88.5825 104.282 88.5825 104.282C94.9405 92.3203 92.1402 85.3105 88.8223 81.1998C89.244 77.4717 91.1295 65.7253 98.269 64.3413Z" fill="#231F20"/>
</svg>
