<svg width="781" height="124" viewBox="0 0 781 124" fill="none" xmlns="http://www.w3.org/2000/svg">
<path fill-rule="evenodd" clip-rule="evenodd" d="M131.998 122H2V2.00297H131.998V122Z" fill="#76101C"/>
<path d="M131.998 122H2V2H131.998V122Z" stroke="#482B2B" stroke-width="2.58667"/>
<path fill-rule="evenodd" clip-rule="evenodd" d="M18.3823 22.9267H88.0327L122.855 61.8024L88.0327 104.322H18.3823L49.5636 61.8024L18.3823 22.9267Z" fill="#EC2328"/>
<path d="M18.3823 22.9267H88.0327L122.855 61.8024L88.0327 104.322H18.3823L49.5636 61.8024L18.3823 22.9267Z" stroke="#482B2B" stroke-width="1.29333"/>
<path fill-rule="evenodd" clip-rule="evenodd" d="M122.855 61.8029L88.0327 22.9271H18.3823L49.5636 61.8029" fill="white"/>
<path d="M122.855 61.8029L88.0327 22.9271H18.3823L49.5636 61.8029" stroke="#482B2B" stroke-width="1.29333"/>
<path d="M220.041 45.1705C216.459 40.9433 211.263 38.5454 204.564 38.5454C190.937 38.5454 180.891 49.5096 180.891 64.5862C180.891 79.6657 190.937 90.63 203.986 90.63C211.263 90.63 217.154 87.4309 220.848 81.9487L235.86 93.0308C229.046 102.625 217.499 107.079 206.296 107.079C180.777 107.079 162.18 90.5151 162.18 64.5862C162.18 38.6573 180.777 22.0961 206.296 22.0961C215.422 22.0961 226.969 25.1803 233.895 33.9735L220.041 45.1705Z" fill="#76101C"/>
<path d="M245.444 24.1523H263.461V105.023H245.444V24.1523Z" fill="#76101C"/>
<path d="M279.86 24.1523H307.111L325.935 76.9232H326.165L345.106 24.1523H372.246V105.023H354.229V42.9965H354L332.519 105.023H318.777L298.106 42.9965H297.873V105.023H279.86V24.1523Z" fill="#76101C"/>
<path d="M406.889 89.9466H423.055C428.714 89.9466 435.065 87.5458 435.065 80.4641C435.065 72.8109 426.404 71.5559 420.516 71.5559H406.889V89.9466ZM406.889 56.4794H419.938C425.479 56.4794 431.253 54.1905 431.253 47.6803C431.253 40.9433 424.787 39.2288 419.128 39.2288H406.889V56.4794ZM388.875 24.1523H419.358C433.68 24.1523 449.273 27.1216 449.273 44.711C449.273 53.7369 443.614 59.9053 435.18 62.53V62.7569C445.92 64.1296 453.079 72.0126 453.079 82.5202C453.079 99.4262 436.912 105.023 422.363 105.023H388.875V24.1523Z" fill="#76101C"/>
<path d="M485.647 98.1683H503.086C520.987 98.1683 523.874 88.347 523.874 82.6322C523.874 70.6398 513.944 65.9561 504.244 65.9561H485.647V98.1683ZM485.647 59.1041H501.469C517.29 59.1041 520.295 50.5378 520.295 45.5122C520.295 34.2033 512.212 31.0041 502.511 31.0041H485.647V59.1041ZM478.026 24.1523H501.583C514.059 24.1523 527.916 27.2365 527.916 45.5122C527.916 53.7369 522.949 60.3619 513.249 62.3032V62.53C523.989 63.3313 531.498 71.0964 531.498 82.4053C531.498 101.026 515.211 105.023 504.129 105.023H478.026V24.1523Z" fill="#76101C"/>
<path d="M579.417 32.3769L560.363 76.6964H597.896L579.417 32.3769ZM575.838 24.1523H583.691L618.104 105.023H609.561L600.668 83.5483H557.362L548.124 105.023H540.155L575.838 24.1523Z" fill="#76101C"/>
<path d="M629.884 24.1523H639.699L689.474 94.9721H689.704V24.1523H697.328V105.023H687.509L637.737 34.2033H637.504V105.023H629.884V24.1523Z" fill="#76101C"/>
<path d="M719.729 24.1523H727.353V59.7905H728.045L767.657 24.1523H778.165L736.824 61.1603L780.474 105.023H769.504L728.045 63.2164H727.353V105.023H719.729V24.1523Z" fill="#76101C"/>
</svg>
