<svg width="180" height="180" viewBox="0 0 180 180" fill="none" xmlns="http://www.w3.org/2000/svg">
<rect width="180" height="180" rx="15" fill="#F36664"/>
<path d="M10 97.0369C10 86.6048 17.2793 78.0986 27.3248 78.0986C32.2748 78.0986 35.7689 79.3826 38.535 81.6295C39.263 82.111 39.9909 83.2344 39.9909 84.8394C39.9909 87.0863 38.3894 88.8517 36.3512 88.8517C35.1865 88.8517 34.6042 88.3702 34.1674 88.0492C32.1292 86.6048 30.091 85.6418 27.0337 85.6418C21.7925 85.6418 17.5705 90.9381 17.5705 96.8764V97.0369C17.5705 103.617 21.647 108.592 27.616 108.592C30.2366 108.592 32.566 107.95 34.4586 106.346V101.049H29.6542C27.9072 101.049 26.4513 99.6048 26.4513 97.6789C26.4513 95.753 27.7616 94.148 29.6542 94.148H38.0983C40.1365 94.148 41.7379 95.9134 41.7379 98.1604V106.988C41.7379 109.395 41.01 111 39.1174 112.123C36.4968 113.889 32.566 115.815 27.616 115.815C17.1338 115.815 10 107.79 10 97.0369Z" fill="white"/>
<path d="M59.4994 83.7161C50.9097 83.7161 44.5039 90.9383 44.5039 99.7654C44.5039 108.593 50.7641 115.815 59.4994 115.815C68.089 115.815 74.4948 108.593 74.4948 99.7654V99.605C74.3492 90.6173 68.089 83.7161 59.4994 83.7161ZM69.5448 97.1975C69.1081 97.679 68.5257 98.4815 68.3802 99.284C68.6713 103.778 65.614 107.951 61.1008 108.593C56.2965 109.395 51.9288 106.185 51.2009 101.37C50.473 96.5556 53.5303 91.9012 58.3347 91.0988C60.9552 90.6173 63.5758 91.5803 65.4684 93.1852C66.4875 93.8272 67.2155 93.8272 67.6522 93.6667C67.7978 93.5062 67.9434 93.5062 68.089 93.5062C69.1081 93.0247 70.1272 93.9877 70.4184 94.9506C70.7095 95.7531 70.1272 96.7161 69.5448 97.1975Z" fill="white"/>
<path d="M118.462 95.5925C118.462 93.5061 119.918 91.9011 121.811 91.9011C123.704 91.9011 125.159 93.5061 125.159 95.5925V111.642C125.159 113.728 123.704 115.333 121.811 115.333C119.918 115.333 118.462 113.728 118.462 111.642V95.5925Z" fill="white"/>
<path d="M118.317 79.0617C119.482 76.8148 122.248 76.1728 123.995 77.6172C126.033 78.9012 126.615 81.9506 125.305 83.8765C124.14 86.1234 121.374 86.7654 119.627 85.3209C117.735 84.1975 117.152 81.4691 118.317 79.0617Z" fill="white"/>
<path d="M130.691 111.963C130.691 110.518 131.128 109.074 132.002 108.111L146.852 85.6419H135.205C133.312 85.6419 131.856 84.1975 131.856 82.111C131.856 80.0246 133.312 78.4197 135.205 78.4197H153.403C155.296 78.4197 156.751 80.0246 156.751 82.111V82.2715C156.751 83.716 156.315 84.8394 155.441 85.9629L140.591 108.432H151.947C153.84 108.432 155.296 110.037 155.296 112.123C155.296 114.21 153.84 115.654 151.947 115.654H133.894C132.147 115.494 130.691 113.889 130.691 111.963Z" fill="white"/>
<path d="M110.309 96.3951C109.727 95.4321 108.999 94.6296 108.126 93.8272C107.98 93.6667 107.834 93.5062 107.689 93.5062C107.252 93.0247 106.815 92.8642 106.379 92.3827C110.455 89.0123 113.367 83.8765 113.367 78.0988C113.367 67.9877 105.36 59 95.314 59C85.7053 59 77.8436 67.6667 77.2612 77.2963V88.8518C78.4259 88.3704 83.3759 87.2469 84.1038 81.4691C84.2494 80.6667 84.1038 78.2593 84.1038 78.2593C84.1038 72.321 89.0538 66.7037 95.1684 66.7037C101.283 66.7037 106.233 72.321 106.233 78.2593C106.233 84.1975 101.283 89.0123 95.1684 89.0123C95.1684 89.0123 86.7244 88.6914 84.1038 89.0123C82.2112 89.1728 79.2994 89.6543 77.2612 92.7037V93.8272V105.704V106.827C77.2612 116.938 85.2685 124 95.314 124C105.36 124 113.367 116.778 113.367 106.827C113.512 102.975 112.348 99.284 110.309 96.3951ZM95.4596 115.494C89.7817 115.494 85.1229 112.123 85.1229 106.667V102.975V96.716H95.4596C101.137 96.716 105.796 101.049 105.796 106.506C105.942 111.963 101.429 115.494 95.4596 115.494Z" fill="white"/>
<path d="M157.771 108.271H162.284V109.234H160.537V115.494H159.373V109.234H157.625L157.771 108.271Z" fill="white"/>
<path d="M163.303 108.271H164.468L166.652 113.889L168.836 108.271H170V115.494H168.836V110.518L166.798 115.494H166.07L164.031 110.518V115.494H162.867L163.303 108.271Z" fill="white"/>
</svg>
