<svg width="180" height="180" viewBox="0 0 180 180" fill="none" xmlns="http://www.w3.org/2000/svg">
<circle cx="90" cy="90" r="90" fill="white"/>
<path d="M10 95.0369C10 84.6048 17.2793 76.0986 27.3248 76.0986C32.2748 76.0986 35.7689 77.3826 38.535 79.6295C39.263 80.111 39.9909 81.2344 39.9909 82.8394C39.9909 85.0863 38.3894 86.8517 36.3512 86.8517C35.1865 86.8517 34.6042 86.3702 34.1674 86.0492C32.1292 84.6048 30.091 83.6418 27.0337 83.6418C21.7925 83.6418 17.5705 88.9381 17.5705 94.8764V95.0369C17.5705 101.617 21.647 106.592 27.616 106.592C30.2366 106.592 32.566 105.95 34.4586 104.346V99.0492H29.6542C27.9072 99.0492 26.4513 97.6048 26.4513 95.6789C26.4513 93.753 27.7616 92.148 29.6542 92.148H38.0983C40.1365 92.148 41.7379 93.9134 41.7379 96.1604V104.988C41.7379 107.395 41.01 109 39.1174 110.123C36.4968 111.889 32.566 113.815 27.616 113.815C17.1338 113.815 10 105.79 10 95.0369Z" fill="#F36664"/>
<path d="M59.4994 81.7161C50.9097 81.7161 44.5039 88.9383 44.5039 97.7654C44.5039 106.593 50.7641 113.815 59.4994 113.815C68.089 113.815 74.4948 106.593 74.4948 97.7654V97.605C74.3492 88.6173 68.089 81.7161 59.4994 81.7161ZM69.5448 95.1975C69.1081 95.679 68.5257 96.4815 68.3802 97.284C68.6713 101.778 65.614 105.951 61.1008 106.593C56.2965 107.395 51.9288 104.185 51.2009 99.3704C50.473 94.5556 53.5303 89.9012 58.3347 89.0988C60.9552 88.6173 63.5758 89.5803 65.4684 91.1852C66.4875 91.8272 67.2155 91.8272 67.6522 91.6667C67.7978 91.5062 67.9434 91.5062 68.089 91.5062C69.1081 91.0247 70.1272 91.9877 70.4184 92.9506C70.7095 93.7531 70.1272 94.7161 69.5448 95.1975Z" fill="#F36664"/>
<path d="M118.462 93.5925C118.462 91.5061 119.918 89.9011 121.811 89.9011C123.704 89.9011 125.159 91.5061 125.159 93.5925V109.642C125.159 111.728 123.704 113.333 121.811 113.333C119.918 113.333 118.462 111.728 118.462 109.642V93.5925Z" fill="#F36664"/>
<path d="M118.317 77.0617C119.482 74.8148 122.248 74.1728 123.995 75.6172C126.033 76.9012 126.615 79.9506 125.305 81.8765C124.14 84.1234 121.374 84.7654 119.627 83.3209C117.735 82.1975 117.152 79.4691 118.317 77.0617Z" fill="#F36664"/>
<path d="M130.691 109.963C130.691 108.518 131.128 107.074 132.002 106.111L146.852 83.6419H135.205C133.312 83.6419 131.856 82.1975 131.856 80.111C131.856 78.0246 133.312 76.4197 135.205 76.4197H153.403C155.296 76.4197 156.751 78.0246 156.751 80.111V80.2715C156.751 81.716 156.315 82.8394 155.441 83.9629L140.591 106.432H151.947C153.84 106.432 155.296 108.037 155.296 110.123C155.296 112.21 153.84 113.654 151.947 113.654H133.894C132.147 113.494 130.691 111.889 130.691 109.963Z" fill="#F36664"/>
<path d="M110.309 94.3951C109.727 93.4321 108.999 92.6296 108.126 91.8272C107.98 91.6667 107.834 91.5062 107.689 91.5062C107.252 91.0247 106.815 90.8642 106.379 90.3827C110.455 87.0123 113.367 81.8765 113.367 76.0988C113.367 65.9877 105.36 57 95.314 57C85.7053 57 77.8436 65.6667 77.2612 75.2963V86.8518C78.4259 86.3704 83.3759 85.2469 84.1038 79.4691C84.2494 78.6667 84.1038 76.2593 84.1038 76.2593C84.1038 70.321 89.0538 64.7037 95.1684 64.7037C101.283 64.7037 106.233 70.321 106.233 76.2593C106.233 82.1975 101.283 87.0123 95.1684 87.0123C95.1684 87.0123 86.7244 86.6914 84.1038 87.0123C82.2112 87.1728 79.2994 87.6543 77.2612 90.7037V91.8272V103.704V104.827C77.2612 114.938 85.2685 122 95.314 122C105.36 122 113.367 114.778 113.367 104.827C113.512 100.975 112.348 97.284 110.309 94.3951ZM95.4596 113.494C89.7817 113.494 85.1229 110.123 85.1229 104.667V100.975V94.716H95.4596C101.137 94.716 105.796 99.0494 105.796 104.506C105.942 109.963 101.429 113.494 95.4596 113.494Z" fill="#F36664"/>
<path d="M157.771 106.271H162.284V107.234H160.537V113.494H159.373V107.234H157.625L157.771 106.271Z" fill="#F36664"/>
<path d="M163.303 106.271H164.468L166.652 111.889L168.836 106.271H170V113.494H168.836V108.518L166.798 113.494H166.07L164.031 108.518V113.494H162.867L163.303 106.271Z" fill="#F36664"/>
</svg>
