<svg width="200" height="80" viewBox="0 0 200 80" fill="none" xmlns="http://www.w3.org/2000/svg">
<path d="M0 46.8147C0 33.9752 9.09918 23.5061 21.6561 23.5061C27.8435 23.5061 32.2112 25.0863 35.6689 27.8518C36.5788 28.4444 37.4887 29.8271 37.4887 31.8024C37.4887 34.5678 35.4869 36.7407 32.9391 36.7407C31.4832 36.7407 30.7553 36.1481 30.2093 35.753C27.6616 33.9752 25.1138 32.7901 21.2921 32.7901C14.7407 32.7901 9.46316 39.3086 9.46316 46.6172V46.8147C9.46316 54.9135 14.5587 61.037 22.0201 61.037C25.2958 61.037 28.2075 60.2468 30.5733 58.2715V51.753H24.5678C22.384 51.753 20.5642 49.9752 20.5642 47.6049C20.5642 45.2345 22.202 43.2592 24.5678 43.2592H35.1229C37.6707 43.2592 39.6725 45.432 39.6725 48.1975V59.0617C39.6725 62.0246 38.7626 63.9999 36.3968 65.3826C33.1211 67.5555 28.2075 69.9258 22.0201 69.9258C8.91722 69.9258 0 60.0493 0 46.8147Z" fill="#F36664"/>
<path d="M61.8747 30.4199C51.1377 30.4199 43.1304 39.3088 43.1304 50.173C43.1304 61.0372 50.9557 69.9261 61.8747 69.9261C72.6118 69.9261 80.6191 61.0372 80.6191 50.173V49.9755C80.4371 38.9137 72.6118 30.4199 61.8747 30.4199ZM74.4316 47.0125C73.8856 47.6051 73.1577 48.5928 72.9757 49.5804C73.3397 55.1113 69.5181 60.2471 63.8766 61.0372C57.8711 62.0249 52.4116 58.0742 51.5016 52.1483C50.5917 46.2224 54.4134 40.494 60.4188 39.5063C63.6945 38.9137 66.9703 40.0989 69.3361 42.0742C70.61 42.8644 71.5199 42.8644 72.0658 42.6668C72.2478 42.4693 72.4298 42.4693 72.6118 42.4693C73.8856 41.8767 75.1595 43.0619 75.5235 44.2471C75.8875 45.2347 75.1595 46.4199 74.4316 47.0125Z" fill="#F36664"/>
<path d="M135.578 45.0369C135.578 42.469 137.398 40.4937 139.764 40.4937C142.13 40.4937 143.949 42.469 143.949 45.0369V64.7899C143.949 67.3578 142.13 69.3332 139.764 69.3332C137.398 69.3332 135.578 67.3578 135.578 64.7899V45.0369Z" fill="#F36664"/>
<path d="M135.397 24.6914C136.852 21.926 140.31 21.1358 142.494 22.9136C145.042 24.4939 145.77 28.2469 144.132 30.6173C142.676 33.3828 139.218 34.1729 137.034 32.3951C134.669 31.0124 133.941 27.6544 135.397 24.6914Z" fill="#F36664"/>
<path d="M150.865 65.1853C150.865 63.4075 151.411 61.6298 152.503 60.4446L171.065 32.7903H156.506C154.14 32.7903 152.321 31.0125 152.321 28.4446C152.321 25.8767 154.14 23.9014 156.506 23.9014H179.254C181.62 23.9014 183.44 25.8767 183.44 28.4446V28.6421C183.44 30.4199 182.894 31.8026 181.802 33.1853L163.24 60.8396H177.434C179.8 60.8396 181.62 62.8149 181.62 65.3828C181.62 67.9507 179.8 69.7285 177.434 69.7285H154.868C152.685 69.531 150.865 67.5557 150.865 65.1853Z" fill="#F36664"/>
<path d="M125.387 46.0247C124.66 44.8395 123.75 43.8518 122.658 42.8642C122.476 42.6667 122.294 42.4691 122.112 42.4691C121.566 41.8765 121.02 41.679 120.474 41.0864C125.569 36.9383 129.209 30.6173 129.209 23.5062C129.209 11.0617 119.2 0 106.643 0C94.6322 0 84.8051 10.6667 84.0771 22.5185V36.7407C85.533 36.1481 91.7205 34.7654 92.6304 27.6543C92.8124 26.6667 92.6304 23.7037 92.6304 23.7037C92.6304 16.3951 98.8179 9.48148 106.461 9.48148C114.104 9.48148 120.292 16.3951 120.292 23.7037C120.292 31.0123 114.104 36.9383 106.461 36.9383C106.461 36.9383 95.9061 36.5432 92.6304 36.9383C90.2646 37.1358 86.6249 37.7284 84.0771 41.4815V42.8642V57.4815V58.8642C84.0771 71.3086 94.0863 80 106.643 80C119.2 80 129.209 71.1111 129.209 58.8642C129.391 54.1235 127.935 49.5802 125.387 46.0247ZM106.825 69.5309C99.7278 69.5309 93.9043 65.3827 93.9043 58.6667V54.1235V46.4198H106.825C113.923 46.4198 119.746 51.7531 119.746 58.4691C119.928 65.1852 114.286 69.5309 106.825 69.5309Z" fill="#F36664"/>
<path d="M184.714 60.6421H190.355V61.8273H188.171V69.531H186.716V61.8273H184.532L184.714 60.6421Z" fill="#F36664"/>
<path d="M191.629 60.6421H193.085L195.815 67.5557L198.544 60.6421H200V69.531H198.544V63.4075L195.997 69.531H195.087L192.539 63.4075V69.531H191.083L191.629 60.6421Z" fill="#F36664"/>
</svg>
