<svg width="500" height="350" viewBox="0 0 500 350" fill="none" xmlns="http://www.w3.org/2000/svg">
<rect width="500" height="350" rx="15" fill="#70CDE3"/>
<path d="M425 175.206L373.785 226.464L322.57 175.206L373.785 123.948L425 175.206Z" fill="#EF3E42"/>
<path d="M75 231.411L86.2712 152.05C89.0396 134.437 107.429 119.198 127.203 119.198C147.373 119.198 156.865 133.249 154.887 146.707L153.107 158.186C151.723 167.883 144.605 177.383 131.949 184.111L145.198 206.079C146.78 209.246 147.373 212.808 146.78 216.172C145.396 224.484 139.068 231.411 132.345 231.411C128.785 231.411 125.424 229.432 123.842 226.266L104.463 193.215L101.102 216.37C99.9153 224.682 93.5876 231.411 87.2599 231.411H75ZM120.48 135.624C116.13 135.624 112.175 139.978 111.582 145.322L108.22 169.07C107.627 174.414 110.198 178.768 114.746 178.768C119.294 178.768 123.051 174.612 123.644 169.268L126.808 145.52C127.203 139.978 124.633 135.822 120.48 135.624ZM167.543 136.812C168.927 127.114 176.441 119 184.153 119C191.865 119 197.204 127.114 195.819 136.812L190.283 176.789H205.509L211.045 136.812C212.43 127.114 219.944 119 227.656 119C235.367 119 240.706 127.114 239.322 136.812L228.644 213.797C227.26 223.495 219.548 231.609 212.034 231.609C204.52 231.609 198.983 223.495 200.367 213.797L203.927 188.861H188.503L185.141 213.797C183.757 223.495 176.243 231.609 168.531 231.609H154.689L167.543 136.812ZM318.221 151.259C316.639 159.571 312.289 167.091 305.961 172.633C310.707 177.58 313.079 184.705 312.091 191.434L310.904 198.361C308.136 216.172 289.746 231.411 270.17 231.411H239.125L250.594 151.853C252.966 134.239 271.752 119 291.526 119C311.695 119 321.385 132.853 319.209 146.509L318.221 151.259ZM279.859 176.393C274.916 176.393 270.368 181.341 269.577 187.674L267.401 203.704C266.413 209.839 269.774 214.985 274.916 214.985C280.057 214.985 284.605 210.037 285.396 203.704L287.571 187.674C288.362 181.539 284.803 176.393 279.859 176.393ZM285.989 135.624C281.046 135.624 276.498 140.572 275.707 146.905L273.927 157.988C272.74 164.123 276.3 169.268 281.441 169.268C286.582 169.268 290.933 164.321 291.921 157.988L293.701 146.905C294.294 140.572 290.735 135.624 285.989 135.624Z" fill="#0067B1"/>
</svg>
