<svg width="181" height="180" viewBox="0 0 181 180" fill="none" xmlns="http://www.w3.org/2000/svg">
<rect x="0.583008" width="180" height="180" rx="15" fill="#009DC5"/>
<path d="M110.412 35.0171C104.114 34.9034 97.8721 36.2572 92.1526 38.9772C86.4331 41.6973 81.3837 45.7135 77.3814 50.726C72.5535 58.3374 68.9982 63.8191 68.9982 85.5232V94.1618C76.3845 91.8095 81.7042 82.9005 86.0204 71.9063C86.5487 70.595 86.7813 69.0234 87.2929 67.7189C88.4771 64.4995 90.2651 61.552 92.5548 59.0446C94.8444 56.5372 97.5909 54.5192 100.637 53.1056C103.684 51.692 106.971 50.9107 110.311 50.8061C113.65 50.7015 116.977 51.2758 120.101 52.4962C120.343 52.5921 120.585 52.6914 120.829 52.7941C127.292 55.2233 132.56 60.1884 135.483 66.6055C138.406 73.0227 138.748 80.3709 136.432 87.0464C134.117 93.7219 129.333 99.1826 123.125 102.237C116.917 105.291 109.788 105.69 103.295 103.348C86.017 98.6334 76.1121 97.5891 68.9982 99.9448V137.125C68.9853 139.172 69.7513 141.143 71.1321 142.615C72.5129 144.088 74.3985 144.944 76.3845 145C78.3562 144.987 80.2422 144.168 81.628 142.723C83.0137 141.278 83.7857 139.324 83.7742 137.293V137.142V112.767C91.4088 118.556 100.679 121.596 110.156 121.42C121.144 121.688 131.786 117.448 139.741 109.633C147.696 101.818 152.313 91.0664 152.577 79.7437C152.577 79.2335 152.577 78.7165 152.577 78.22V77.9701C152.667 72.4196 151.695 66.9051 149.716 61.7417C147.738 56.5783 144.792 51.867 141.047 47.8769C137.301 43.8867 132.83 40.6958 127.888 38.4864C122.946 36.277 117.629 35.0923 112.243 35C111.632 35 111.024 35 110.412 35.0171Z" fill="white"/>
<path d="M39.1611 120.966C41.5576 121.307 42.9499 121.411 44.2676 121.347C44.9185 121.315 45.5507 121.242 46.2725 121.141L48.8164 120.761L48.9131 120.737C51.1008 119.956 53.6522 118.612 55.1123 117.226L55.3896 116.948L55.3916 116.945C55.9673 116.325 56.8101 115.052 57.7324 113.509C58.6638 111.95 59.702 110.073 60.6719 108.211C61.6416 106.349 62.5461 104.496 63.21 102.985C63.5416 102.231 63.8164 101.555 64.0088 101.004C64.1927 100.477 64.327 99.9957 64.3271 99.6632C64.3271 99.3516 64.1828 99.0906 63.9492 98.9122C63.7364 98.7498 63.4663 98.6664 63.1943 98.6241C62.6474 98.5391 61.9021 98.5916 61.0186 98.7599V98.7609C59.9029 98.9187 59.3064 98.8933 58.71 98.5665C58.0608 98.2109 57.3595 97.4713 56.1553 95.9767L56.1543 95.9777C54.6222 94.0231 51.6831 91.7559 49.6396 90.8195C49.6354 90.8175 49.6312 90.8154 49.627 90.8136C47.3065 89.8313 45.5325 89.4122 43.7803 89.4376C42.038 89.4629 40.3589 89.928 38.2441 90.6339C38.2342 90.6372 38.2236 90.6407 38.2139 90.6447C30.6266 93.7214 26.9166 100.116 27.0889 106.359C27.2612 112.606 31.3203 118.629 39.0889 120.95L39.1611 120.966Z" fill="white" stroke="white" stroke-linejoin="round"/>
</svg>
