<svg width="502" height="325" viewBox="0 0 502 325" fill="none" xmlns="http://www.w3.org/2000/svg">
<path d="M0.0177265 78.0582C-0.213527 65.8002 4.40841 53.9517 12.8671 45.1183C21.3259 36.2849 32.9288 31.1899 45.1243 30.9537C45.6101 30.9537 46.0958 30.9537 46.5816 30.9537C57.4194 30.3139 68.1447 33.4538 76.9457 39.8429C78.2412 40.7265 79.297 41.9211 80.0173 43.3183C80.7376 44.7156 81.0997 46.2714 81.0708 47.8448C81.0536 50.4324 80.0233 52.9091 78.2029 54.7389C76.3825 56.5686 73.9184 57.6042 71.3439 57.6214C69.1958 57.6599 67.1049 56.9245 65.4493 55.5483C59.8633 51.308 53.004 49.1124 46.0072 49.3251C38.9372 49.6941 32.3006 52.863 27.5493 58.1382C22.7981 63.4133 20.3192 70.3653 20.655 77.4731V77.7676C20.1876 84.9024 22.5591 91.9316 27.2476 97.3091C31.9362 102.687 38.5579 105.972 45.6563 106.443C46.2655 106.484 46.8746 106.503 47.4837 106.501C53.9862 106.733 60.3916 104.865 65.7615 101.173V88.1371H52.4917C50.2221 88.1319 48.0472 87.2221 46.4441 85.6072C44.841 83.9923 43.9407 81.8042 43.9407 79.5229C43.9407 77.2383 44.8437 75.0473 46.4509 73.4318C48.0581 71.8164 50.238 70.9088 52.511 70.9088H74.8985C77.4773 70.9271 79.9448 71.9668 81.7658 73.8022C83.5867 75.6375 84.6142 78.1206 84.6253 80.7126V102.637C84.8083 105.189 84.268 107.741 83.0671 109.996C81.8662 112.252 80.0538 114.12 77.8401 115.382C68.5886 121.31 57.8611 124.494 46.89 124.57C41.0224 124.857 35.156 123.98 29.6259 121.988C24.0958 119.996 19.0103 116.928 14.66 112.96C10.3098 108.992 6.77994 104.201 4.27219 98.8614C1.76445 93.5218 0.327936 87.7379 0.0447132 81.8402C-0.00926049 80.5808 -0.00926038 79.3176 0.0177265 78.0582Z" fill="white"/>
<path d="M357.015 92.8956L332.839 59.4001C331.469 57.6293 330.741 55.4426 330.772 53.2001C330.772 50.9155 331.675 48.7244 333.283 47.109C334.89 45.4935 337.07 44.5859 339.343 44.5859C341.117 44.6153 342.851 45.1268 344.36 46.0662C345.869 47.0056 347.096 48.3379 347.913 49.9218L365.601 76.0006L383.582 49.6273C384.365 48.0841 385.541 46.7772 386.99 45.8399C388.44 44.9025 390.11 44.3682 391.832 44.2914C392.908 44.2414 393.984 44.4051 394.997 44.773C396.01 45.141 396.941 45.706 397.737 46.4358C398.533 47.1656 399.178 48.0459 399.636 49.0263C400.093 50.0068 400.353 51.0682 400.402 52.1499C400.402 52.4083 400.402 52.6666 400.402 52.9249C400.385 55.215 399.549 57.4224 398.047 59.1443L374.402 92.3066V115.688C374.482 116.817 374.34 117.95 373.983 119.023C373.627 120.096 373.064 121.088 372.327 121.943C371.589 122.797 370.691 123.497 369.684 124.003C368.677 124.508 367.581 124.81 366.459 124.889C365.336 124.969 364.209 124.826 363.141 124.468C362.073 124.11 361.086 123.544 360.236 122.803C359.386 122.061 358.69 121.159 358.187 120.147C357.684 119.135 357.384 118.033 357.304 116.905C357.277 116.5 357.277 116.093 357.304 115.688L357.015 92.8956Z" fill="white"/>
<path d="M395.044 115.692V115.398C395.004 111.904 396.266 108.521 398.583 105.916L438.678 50.2085H416.865C414.517 50.2086 412.265 49.2728 410.603 47.6064C408.941 45.94 408.004 43.679 407.998 41.3193C407.976 40.1728 408.18 39.0332 408.596 37.9657C409.013 36.8982 409.635 35.9237 410.427 35.0979C411.218 34.272 412.164 33.611 413.21 33.1526C414.255 32.6942 415.381 32.4474 416.522 32.4262C416.63 32.4262 416.737 32.4262 416.845 32.4262H456.35C458.679 32.4823 460.897 33.4374 462.543 35.0933C464.19 36.7491 465.139 38.9787 465.194 41.3193V41.6138C465.185 45.0984 463.931 48.4637 461.659 51.0959L421.271 106.803H451.932C454.26 106.859 456.477 107.814 458.124 109.469C459.771 111.124 460.72 113.352 460.776 115.692C460.776 118.052 459.845 120.315 458.187 121.986C456.529 123.657 454.28 124.599 451.932 124.605H403.88C401.534 124.596 399.286 123.654 397.63 121.983C395.974 120.313 395.044 118.051 395.044 115.692Z" fill="white"/>
<path d="M230.254 0.131928C222.947 0.00326016 215.704 1.53533 209.068 4.61379C202.432 7.69224 196.573 12.2375 191.929 17.9104C186.327 26.5246 182.202 32.7284 182.202 57.292V67.0687C190.773 64.4066 196.945 54.3238 201.953 41.8812C202.566 40.3971 202.836 38.6184 203.429 37.142C204.803 33.4985 206.878 30.1626 209.535 27.3249C212.191 24.4872 215.378 22.2033 218.913 20.6035C222.448 19.0037 226.261 18.1194 230.136 18.001C234.011 17.8827 237.871 18.5327 241.496 19.9138C241.776 20.0223 242.058 20.1347 242.341 20.2509C249.839 23.0002 255.952 28.6194 259.344 35.882C262.735 43.1446 263.131 51.4609 260.445 59.0159C257.759 66.5708 252.208 72.751 245.005 76.2075C237.801 79.664 229.53 80.1161 221.996 77.4653C201.949 72.1294 190.456 70.9475 182.202 73.6135V115.692C182.187 118.009 183.076 120.24 184.678 121.906C186.28 123.572 188.468 124.541 190.773 124.605C193.06 124.59 195.249 123.663 196.856 122.028C198.464 120.392 199.36 118.181 199.347 115.882V115.712V88.1254C208.205 94.6768 218.961 98.1177 229.957 97.9175C242.707 98.2213 255.054 93.4231 264.284 84.578C273.514 75.733 278.871 63.5655 279.178 50.751C279.178 50.1737 279.178 49.5885 279.178 49.0267V48.7438C279.282 42.462 278.154 36.2211 275.858 30.3774C273.563 24.5338 270.145 19.2018 265.799 14.6859C261.453 10.1701 256.265 6.55879 250.531 4.05829C244.797 1.55778 238.628 0.217016 232.379 0.112549C231.669 0.112549 230.964 0.112553 230.254 0.131928Z" fill="white"/>
<path d="M132.692 44.5782C122.196 44.3601 112.044 48.3417 104.468 55.6472C96.8925 62.9527 92.5145 72.9837 92.2969 83.5335C92.2969 83.8784 92.2969 84.2272 92.2969 84.5759V84.8704C92.6713 95.4077 97.1084 105.385 104.67 112.694C112.232 120.002 122.325 124.068 132.815 124.031C143.305 123.994 153.37 119.858 160.881 112.497C168.392 105.136 172.759 95.1272 173.061 84.5875V84.293C173.087 79.099 172.095 73.9506 170.14 69.1423C168.186 64.3339 165.307 59.96 161.67 56.2705C158.033 52.5809 153.707 49.6482 148.942 47.64C144.176 45.6317 139.063 44.5874 133.895 44.5665C133.494 44.564 133.093 44.5678 132.692 44.5782ZM160.4 82.2122C158.782 83.2793 157.544 84.8359 156.865 86.6568C156.186 92.278 153.461 97.4475 149.214 101.168C144.968 104.889 139.501 106.898 133.868 106.807C127.91 106.948 122.14 104.705 117.826 100.571C113.513 96.4373 111.01 90.7506 110.868 84.7619V84.5875C110.892 81.6042 111.501 78.6548 112.659 75.9079C113.817 73.161 115.503 70.6704 117.619 68.5783C119.735 66.4862 122.241 64.8336 124.992 63.7149C127.744 62.5962 130.688 62.0333 133.656 62.0583H134.13C137.512 62.0892 140.851 62.8146 143.943 64.19C147.035 65.5654 149.815 67.5617 152.111 70.0563C152.692 70.9055 153.496 71.5765 154.433 71.9951C155.37 72.4136 156.404 72.5634 157.42 72.4278C157.713 72.4278 158.029 72.1294 158.6 72.1294C159.965 72.0227 161.318 72.4597 162.366 73.3463C163.414 74.2329 164.073 75.4979 164.201 76.8685C164.075 78.0146 163.655 79.1083 162.984 80.0433C162.312 80.9783 161.412 81.7228 160.369 82.2044L160.4 82.2122Z" fill="white"/>
<path d="M342.272 112.429L314.858 51.6927C314.147 49.5903 312.791 47.7687 310.985 46.4902C309.179 45.2117 307.016 44.5422 304.807 44.5782H303.951C301.747 44.5498 299.591 45.2226 297.791 46.5005C295.99 47.7783 294.638 49.5957 293.927 51.6927L266.513 112.429C265.892 113.679 265.59 115.065 265.636 116.461C265.682 117.857 266.074 119.219 266.776 120.425C267.478 121.63 268.469 122.64 269.657 123.364C270.846 124.088 272.195 124.502 273.583 124.57C275.294 124.606 276.974 124.115 278.397 123.161C279.821 122.208 280.919 120.838 281.544 119.238L283.314 114.813H325.174L326.944 118.664C327.552 120.382 328.669 121.871 330.145 122.93C331.621 123.99 333.385 124.569 335.198 124.589C337.423 124.528 339.534 123.591 341.078 121.98C342.621 120.368 343.472 118.212 343.448 115.975C343.19 114.753 342.795 113.563 342.272 112.429ZM303.951 66.5029L318.397 98.8011H289.802L303.951 66.5029Z" fill="white"/>
<path d="M467.857 106.799H479.944V109.171H475.229V124.554H472.279V109.171H467.564V106.799H467.857Z" fill="white"/>
<path d="M482.893 106.799H485.846L492.014 120.726L498.206 106.799H501.174V124.578H498.225V112.429L492.916 124.578H490.854L485.545 112.429V124.578H482.6V106.799H482.893Z" fill="white"/>
<path d="M254.106 200.019C246.798 199.891 239.556 201.423 232.92 204.501C226.283 207.58 220.425 212.125 215.781 217.798C210.179 226.412 206.054 232.616 206.054 257.179V266.956C214.624 264.294 220.796 254.211 225.804 241.769C226.417 240.285 226.687 238.506 227.281 237.029C228.655 233.386 230.73 230.05 233.386 227.212C236.043 224.375 239.23 222.091 242.764 220.491C246.299 218.891 250.113 218.007 253.988 217.888C257.863 217.77 261.723 218.42 265.348 219.801C265.628 219.91 265.909 220.022 266.192 220.138C273.691 222.888 279.803 228.507 283.195 235.769C286.587 243.032 286.983 251.348 284.297 258.903C281.61 266.458 276.06 272.638 268.856 276.095C261.653 279.551 253.382 280.004 245.848 277.353C225.801 272.017 214.308 270.835 206.054 273.501V315.58C206.039 317.897 206.928 320.127 208.53 321.793C210.132 323.46 212.32 324.428 214.624 324.492C216.912 324.478 219.1 323.551 220.708 321.915C222.316 320.279 223.212 318.069 223.198 315.77V315.599V288.013C232.057 294.564 242.813 298.005 253.809 297.805C266.558 298.109 278.906 293.311 288.136 284.465C297.366 275.62 302.723 263.453 303.029 250.638C303.029 250.061 303.029 249.476 303.029 248.914V248.631C303.133 242.349 302.005 236.109 299.71 230.265C297.414 224.421 293.996 219.089 289.65 214.573C285.305 210.058 280.117 206.446 274.382 203.946C268.648 201.445 262.48 200.104 256.23 200C255.521 200 254.815 200 254.106 200.019Z" fill="white"/>
<path d="M183.541 263.225L183.555 263.231C185.915 264.286 189.318 266.846 191.088 269.05C192.481 270.737 193.304 271.585 194.073 271.996C194.794 272.382 195.514 272.404 196.824 272.223C197.84 272.035 198.688 271.977 199.305 272.071C199.613 272.117 199.91 272.208 200.142 272.381C200.395 272.569 200.553 272.846 200.553 273.182C200.553 273.548 200.401 274.085 200.187 274.682C199.964 275.304 199.647 276.067 199.262 276.92C198.493 278.628 197.443 280.724 196.319 282.83C195.194 284.937 193.99 287.061 192.91 288.823C191.839 290.571 190.865 292.006 190.203 292.702L190.201 292.704C188.594 294.369 185.419 296.031 182.718 296.972C182.687 296.983 182.656 296.99 182.624 296.995C182.073 297.073 181.574 297.147 181.113 297.216C179.607 297.439 178.507 297.602 177.354 297.657C175.834 297.728 174.226 297.612 171.447 297.227C171.423 297.224 171.399 297.218 171.376 297.212C162.399 294.595 157.706 287.807 157.507 280.758C157.307 273.714 161.599 266.504 170.369 263.035C170.379 263.031 170.389 263.028 170.399 263.025C172.852 262.226 174.788 261.704 176.795 261.676C178.81 261.647 180.855 262.116 183.541 263.225Z" fill="white" stroke="white" stroke-linejoin="round"/>
</svg>
