<svg width="181" height="180" viewBox="0 0 181 180" fill="none" xmlns="http://www.w3.org/2000/svg">
<circle cx="90.583" cy="90" r="90" fill="#009DC5"/>
<path d="M10.5887 94.9829C10.5148 91.054 11.9904 87.2564 14.6908 84.4251C17.3913 81.5939 21.0955 79.9608 24.9889 79.8851C25.144 79.8851 25.2991 79.8851 25.4542 79.8851C28.9141 79.68 32.3382 80.6864 35.1479 82.7343C35.5615 83.0175 35.8986 83.4004 36.1285 83.8482C36.3585 84.296 36.4741 84.7947 36.4648 85.299C36.4594 86.1284 36.1304 86.9222 35.5493 87.5087C34.9681 88.0951 34.1814 88.427 33.3595 88.4326C32.6738 88.4449 32.0062 88.2092 31.4777 87.7681C29.6944 86.409 27.5045 85.7053 25.2708 85.7735C23.0137 85.8918 20.895 86.9074 19.3781 88.5982C17.8613 90.289 17.0699 92.5172 17.1771 94.7954V94.8897C17.0279 97.1766 17.785 99.4296 19.2818 101.153C20.7786 102.877 22.8926 103.93 25.1588 104.081C25.3532 104.094 25.5477 104.1 25.7422 104.099C27.8181 104.174 29.863 103.575 31.5774 102.391V98.2134H27.341C26.6164 98.2117 25.9221 97.9201 25.4103 97.4025C24.8985 96.8849 24.6111 96.1836 24.6111 95.4524C24.6111 94.7201 24.8993 94.0179 25.4124 93.5001C25.9256 92.9823 26.6215 92.6914 27.3471 92.6914H34.4943C35.3176 92.6973 36.1054 93.0305 36.6867 93.6188C37.2681 94.207 37.5961 95.0029 37.5996 95.8337V102.861C37.658 103.679 37.4855 104.497 37.1022 105.22C36.7188 105.943 36.1402 106.541 35.4334 106.946C32.4799 108.846 29.0552 109.867 25.5526 109.891C23.6794 109.983 21.8066 109.702 20.0411 109.063C18.2756 108.425 16.652 107.441 15.2632 106.169C13.8744 104.898 12.7475 103.362 11.9469 101.651C11.1463 99.9393 10.6877 98.0854 10.5973 96.1951C10.5801 95.7914 10.5801 95.3866 10.5887 94.9829Z" fill="white"/>
<path d="M124.56 99.7385L116.842 89.0026C116.404 88.4351 116.172 87.7342 116.182 87.0154C116.182 86.2832 116.47 85.5809 116.983 85.0631C117.496 84.5454 118.192 84.2545 118.918 84.2545C119.485 84.2639 120.038 84.4278 120.52 84.7289C121.001 85.03 121.393 85.457 121.654 85.9647L127.301 94.3234L133.041 85.8703C133.291 85.3757 133.667 84.9568 134.129 84.6564C134.592 84.3559 135.126 84.1847 135.675 84.1601C136.019 84.1441 136.362 84.1965 136.686 84.3144C137.009 84.4324 137.306 84.6135 137.56 84.8474C137.815 85.0813 138.02 85.3634 138.166 85.6777C138.312 85.9919 138.396 86.3321 138.411 86.6789C138.411 86.7617 138.411 86.8445 138.411 86.9273C138.406 87.6613 138.139 88.3688 137.659 88.9207L130.111 99.5497V107.044C130.136 107.406 130.091 107.769 129.977 108.113C129.863 108.457 129.684 108.775 129.448 109.049C129.213 109.322 128.926 109.547 128.605 109.709C128.283 109.871 127.933 109.967 127.575 109.993C127.216 110.019 126.856 109.973 126.516 109.858C126.175 109.743 125.86 109.562 125.588 109.324C125.317 109.087 125.095 108.797 124.934 108.473C124.773 108.149 124.678 107.796 124.652 107.434C124.644 107.304 124.644 107.174 124.652 107.044L124.56 99.7385Z" fill="white"/>
<path d="M136.7 107.045V106.951C136.688 105.831 137.091 104.747 137.83 103.912L150.631 86.0566H143.667C142.917 86.0566 142.198 85.7567 141.668 85.2226C141.137 84.6885 140.838 83.9638 140.836 83.2075C140.829 82.84 140.894 82.4747 141.027 82.1326C141.16 81.7904 141.359 81.4781 141.611 81.2134C141.864 80.9487 142.166 80.7368 142.5 80.5899C142.834 80.443 143.193 80.3638 143.557 80.3571C143.592 80.3571 143.626 80.3571 143.661 80.3571H156.273C157.016 80.375 157.724 80.6812 158.25 81.2119C158.775 81.7426 159.078 82.4572 159.096 83.2075V83.3018C159.093 84.4187 158.693 85.4973 157.967 86.341L145.074 104.196H154.862C155.605 104.214 156.313 104.52 156.839 105.05C157.364 105.581 157.668 106.295 157.685 107.045C157.685 107.802 157.388 108.527 156.859 109.063C156.33 109.598 155.612 109.9 154.862 109.902H139.521C138.772 109.899 138.055 109.597 137.526 109.062C136.997 108.526 136.7 107.801 136.7 107.045Z" fill="white"/>
<path d="M84.0916 70.0062C81.7586 69.965 79.4465 70.456 77.3279 71.4427C75.2093 72.4294 73.3389 73.8863 71.8563 75.7045C70.068 78.4655 68.751 80.4539 68.751 88.327V91.4606C71.4871 90.6073 73.4576 87.3756 75.0564 83.3875C75.2521 82.9119 75.3382 82.3418 75.5278 81.8686C75.9664 80.7008 76.6287 79.6316 77.4769 78.722C78.325 77.8125 79.3424 77.0805 80.4709 76.5677C81.5994 76.0549 82.8169 75.7715 84.0539 75.7336C85.291 75.6956 86.5233 75.904 87.6806 76.3466C87.77 76.3814 87.8599 76.4174 87.9502 76.4547C90.3441 77.3359 92.2955 79.1369 93.3784 81.4647C94.4612 83.7925 94.5876 86.458 93.73 88.8795C92.8724 91.301 91.1003 93.2818 88.8007 94.3897C86.501 95.4976 83.8604 95.6425 81.4553 94.7929C75.0552 93.0826 71.3862 92.7038 68.751 93.5583V107.045C68.7462 107.788 69.03 108.503 69.5415 109.037C70.0529 109.571 70.7514 109.881 71.4871 109.902C72.2174 109.897 72.916 109.6 73.4293 109.076C73.9427 108.552 74.2286 107.843 74.2244 107.106V107.051V98.2096C77.0524 100.309 80.4863 101.412 83.9969 101.348C88.067 101.445 92.0089 99.9076 94.9556 97.0726C97.9024 94.2376 99.6126 90.3377 99.7104 86.2305C99.7104 86.0454 99.7104 85.8579 99.7104 85.6778V85.5871C99.7436 83.5737 99.3835 81.5734 98.6507 79.7004C97.9179 77.8274 96.8266 76.1184 95.4392 74.671C94.0519 73.2236 92.3955 72.0661 90.5649 71.2647C88.7342 70.4632 86.765 70.0335 84.7698 70C84.5433 70 84.3181 70 84.0916 70.0062Z" fill="white"/>
<path d="M52.9451 84.252C49.5942 84.1821 46.353 85.4583 43.9345 87.7998C41.516 90.1413 40.1183 93.3564 40.0488 96.7378C40.0488 96.8484 40.0488 96.9602 40.0488 97.0719V97.1663C40.1683 100.544 41.5849 103.742 43.999 106.084C46.413 108.427 49.6353 109.73 52.9843 109.718C56.3333 109.706 59.5464 108.38 61.9442 106.021C64.342 103.662 65.7365 100.454 65.8327 97.0757V96.9813C65.8411 95.3165 65.5243 93.6663 64.9003 92.1252C64.2763 90.584 63.3574 89.1821 62.1962 87.9996C61.035 86.817 59.6541 85.877 58.1326 85.2334C56.6111 84.5897 54.9788 84.2549 53.3291 84.2483C53.2011 84.2474 53.0731 84.2487 52.9451 84.252ZM61.7908 96.3143C61.2743 96.6564 60.8791 97.1553 60.6621 97.7389C60.4455 99.5406 59.5754 101.197 58.2197 102.39C56.864 103.583 55.1187 104.226 53.3205 104.197C51.4183 104.243 49.5761 103.524 48.1991 102.199C46.8221 100.874 46.023 99.051 45.9775 97.1316V97.0757C45.9853 96.1194 46.1796 95.1741 46.5494 94.2937C46.9192 93.4133 47.4573 92.615 48.1329 91.9444C48.8085 91.2739 49.6083 90.7442 50.4868 90.3856C51.3653 90.0271 52.3052 89.8466 53.2528 89.8547H53.4041C54.4836 89.8646 55.5497 90.0971 56.5368 90.5379C57.524 90.9787 58.4114 91.6186 59.1446 92.4182C59.33 92.6903 59.5865 92.9054 59.8857 93.0396C60.1848 93.1737 60.5149 93.2217 60.8394 93.1783C60.9329 93.1783 61.0338 93.0826 61.216 93.0826C61.6519 93.0484 62.0838 93.1885 62.4183 93.4727C62.7529 93.7568 62.9633 94.1623 63.0043 94.6016C62.9639 94.9689 62.83 95.3195 62.6156 95.6192C62.4013 95.9188 62.1137 96.1575 61.7809 96.3118L61.7908 96.3143Z" fill="white"/>
<path d="M119.853 105.999L111.101 86.5323C110.874 85.8585 110.441 85.2746 109.865 84.8648C109.288 84.455 108.598 84.2405 107.892 84.252H107.619C106.916 84.2429 106.227 84.4586 105.652 84.8681C105.078 85.2777 104.646 85.8602 104.419 86.5323L95.667 105.999C95.4687 106.4 95.3725 106.844 95.3872 107.292C95.4019 107.739 95.527 108.176 95.7511 108.562C95.9752 108.948 96.2914 109.272 96.6708 109.504C97.0503 109.736 97.4811 109.869 97.9242 109.891C98.4702 109.902 99.0067 109.745 99.4611 109.439C99.9156 109.134 100.266 108.695 100.466 108.182L101.031 106.763H114.395L114.96 107.998C115.154 108.548 115.51 109.026 115.982 109.365C116.453 109.705 117.016 109.89 117.595 109.897C118.305 109.877 118.979 109.577 119.472 109.06C119.965 108.544 120.236 107.853 120.229 107.136C120.146 106.744 120.02 106.363 119.853 105.999ZM107.619 91.2792L112.231 101.631H103.102L107.619 91.2792Z" fill="white"/>
<path d="M159.947 104.195H163.806V104.955H162.3V109.886H161.359V104.955H159.854V104.195H159.947Z" fill="white"/>
<path d="M164.747 104.195H165.69L167.659 108.659L169.636 104.195H170.583V109.893H169.642V105.999L167.947 109.893H167.288L165.594 105.999V109.893H164.653V104.195H164.747Z" fill="white"/>
</svg>
