<svg width="181" height="180" viewBox="0 0 181 180" fill="none" xmlns="http://www.w3.org/2000/svg">
<rect x="0.583008" width="180" height="180" rx="15" fill="#009DC5"/>
<path d="M110.412 35.0171C104.114 34.9034 97.8721 36.2572 92.1526 38.9772C86.4331 41.6973 81.3837 45.7135 77.3814 50.726C72.5535 58.3374 68.9982 63.8191 68.9982 85.5232V94.1618C76.3845 91.8095 81.7042 82.9005 86.0204 71.9063C86.5487 70.595 86.7813 69.0234 87.2929 67.7189C88.4771 64.4995 90.2651 61.552 92.5548 59.0446C94.8444 56.5372 97.5909 54.5192 100.637 53.1056C103.684 51.692 106.971 50.9107 110.311 50.8061C113.65 50.7015 116.977 51.2758 120.101 52.4962C120.343 52.5921 120.585 52.6914 120.829 52.7941C127.292 55.2233 132.56 60.1884 135.483 66.6055C138.406 73.0227 138.748 80.3709 136.432 87.0464C134.117 93.7219 129.333 99.1826 123.125 102.237C116.917 105.291 109.788 105.69 103.295 103.348C86.017 98.6334 76.1121 97.5891 68.9982 99.9448V137.125C68.9853 139.172 69.7513 141.143 71.1321 142.615C72.5129 144.088 74.3985 144.944 76.3845 145C78.3562 144.987 80.2422 144.168 81.628 142.723C83.0137 141.278 83.7857 139.324 83.7742 137.293V137.142V112.767C91.4088 118.556 100.679 121.596 110.156 121.42C121.144 121.688 131.786 117.448 139.741 109.633C147.696 101.818 152.313 91.0664 152.577 79.7437C152.577 79.2335 152.577 78.7165 152.577 78.22V77.9701C152.667 72.4196 151.695 66.9051 149.716 61.7417C147.738 56.5783 144.792 51.867 141.047 47.8769C137.301 43.8867 132.83 40.6958 127.888 38.4864C122.946 36.277 117.629 35.0923 112.243 35C111.632 35 111.024 35 110.412 35.0171Z" fill="white"/>
<path d="M49.6266 90.8132L49.64 90.8191C51.6843 91.7559 54.6256 94.0244 56.1571 95.9796C57.3599 97.4724 58.0614 98.2109 58.7101 98.5663C59.3087 98.8942 59.907 98.9179 61.0304 98.7582C61.9089 98.5916 62.6498 98.5391 63.1943 98.6238C63.4663 98.6661 63.7363 98.7495 63.9491 98.9119C64.1828 99.0903 64.327 99.3511 64.327 99.6628C64.327 99.9953 64.1926 100.477 64.0086 101.004C63.8162 101.556 63.5418 102.231 63.2102 102.985C62.5463 104.496 61.6413 106.349 60.6716 108.211C59.7016 110.073 58.6635 111.951 57.732 113.509C56.8096 115.053 55.9674 116.326 55.3916 116.946L55.3893 116.948C53.994 118.431 51.2462 119.904 48.9127 120.737C48.8815 120.748 48.8494 120.756 48.8167 120.761C48.3442 120.83 47.9151 120.895 47.5183 120.956C46.2186 121.153 45.2652 121.298 44.2676 121.347C42.9499 121.41 41.5577 121.307 39.1611 120.966C39.1365 120.963 39.1122 120.957 39.0884 120.95C31.3199 118.628 27.2611 112.606 27.0887 106.359C26.9165 100.116 30.6268 93.7214 38.2143 90.6447C38.218 90.6432 38.2217 90.6418 38.2254 90.6404C38.2315 90.638 38.2377 90.6358 38.2439 90.6338C40.3587 89.9278 42.0379 89.4632 43.7801 89.4378C45.5324 89.4124 47.306 89.8308 49.6266 90.8132Z" fill="white" stroke="white" stroke-linejoin="round"/>
</svg>
