<svg width="181" height="180" viewBox="0 0 181 180" fill="none" xmlns="http://www.w3.org/2000/svg">
<circle cx="90.583" cy="90" r="90" fill="#009DC5"/>
<path d="M111.412 35.0171C105.114 34.9034 98.8721 36.2572 93.1526 38.9772C87.4331 41.6973 82.3837 45.7135 78.3814 50.726C73.5535 58.3374 69.9982 63.8191 69.9982 85.5232V94.1618C77.3845 91.8095 82.7042 82.9005 87.0204 71.9063C87.5487 70.595 87.7813 69.0234 88.2929 67.7189C89.4771 64.4995 91.2651 61.552 93.5548 59.0446C95.8444 56.5372 98.5909 54.5192 101.637 53.1056C104.684 51.692 107.971 50.9107 111.311 50.8061C114.65 50.7015 117.977 51.2758 121.101 52.4962C121.343 52.5921 121.585 52.6914 121.829 52.7941C128.292 55.2233 133.56 60.1884 136.483 66.6055C139.406 73.0227 139.748 80.3709 137.432 87.0464C135.117 93.7219 130.333 99.1826 124.125 102.237C117.917 105.291 110.788 105.69 104.295 103.348C87.017 98.6334 77.1121 97.5891 69.9982 99.9448V137.125C69.9853 139.172 70.7513 141.143 72.1321 142.615C73.5129 144.088 75.3985 144.944 77.3845 145C79.3562 144.987 81.2422 144.168 82.628 142.723C84.0137 141.278 84.7857 139.324 84.7742 137.293V137.142V112.767C92.4088 118.556 101.679 121.596 111.156 121.42C122.144 121.688 132.786 117.448 140.741 109.633C148.696 101.818 153.313 91.0664 153.577 79.7437C153.577 79.2335 153.577 78.7165 153.577 78.22V77.9701C153.667 72.4196 152.695 66.9051 150.716 61.7417C148.738 56.5783 145.792 51.867 142.047 47.8769C138.301 43.8867 133.83 40.6958 128.888 38.4864C123.946 36.277 118.629 35.0923 113.243 35C112.632 35 112.024 35 111.412 35.0171Z" fill="white"/>
<path d="M50.6266 90.8132L50.64 90.8191C52.6843 91.7559 55.6256 94.0244 57.1571 95.9796C58.3599 97.4724 59.0614 98.2109 59.7101 98.5663C60.3087 98.8942 60.907 98.9179 62.0304 98.7582C62.9089 98.5916 63.6498 98.5391 64.1943 98.6238C64.4663 98.6661 64.7363 98.7495 64.9491 98.9119C65.1828 99.0903 65.327 99.3511 65.327 99.6628C65.327 99.9953 65.1926 100.477 65.0086 101.004C64.8162 101.556 64.5418 102.231 64.2102 102.985C63.5463 104.496 62.6413 106.349 61.6716 108.211C60.7016 110.073 59.6635 111.951 58.732 113.509C57.8096 115.053 56.9674 116.326 56.3916 116.946L56.3893 116.948C54.994 118.431 52.2462 119.904 49.9127 120.737C49.8815 120.748 49.8494 120.756 49.8167 120.761C49.3442 120.83 48.9151 120.895 48.5183 120.956C47.2186 121.153 46.2652 121.298 45.2676 121.347C43.9499 121.41 42.5577 121.307 40.1611 120.966C40.1365 120.963 40.1122 120.957 40.0884 120.95C32.3199 118.628 28.2611 112.606 28.0887 106.359C27.9165 100.116 31.6268 93.7214 39.2143 90.6447C39.218 90.6432 39.2217 90.6418 39.2254 90.6404C39.2315 90.638 39.2377 90.6358 39.2439 90.6338C41.3587 89.9278 43.0379 89.4632 44.7801 89.4378C46.5324 89.4124 48.306 89.8308 50.6266 90.8132Z" fill="white" stroke="white" stroke-linejoin="round"/>
</svg>
