<svg width="181" height="180" viewBox="0 0 181 180" fill="none" xmlns="http://www.w3.org/2000/svg">
<circle cx="90.583" cy="90" r="90" fill="#009DC5"/>
<path d="M111.412 35.0171C105.114 34.9034 98.8721 36.2572 93.1526 38.9772C87.4331 41.6973 82.3837 45.7135 78.3814 50.726C73.5535 58.3374 69.9982 63.8191 69.9982 85.5232V94.1618C77.3845 91.8095 82.7042 82.9005 87.0204 71.9063C87.5487 70.595 87.7813 69.0234 88.2929 67.7189C89.4771 64.4995 91.2651 61.552 93.5548 59.0446C95.8444 56.5372 98.5909 54.5192 101.637 53.1056C104.684 51.692 107.971 50.9107 111.311 50.8061C114.65 50.7015 117.977 51.2758 121.101 52.4962C121.343 52.5921 121.585 52.6914 121.829 52.7941C128.292 55.2233 133.56 60.1884 136.483 66.6055C139.406 73.0227 139.748 80.3709 137.432 87.0464C135.117 93.7219 130.333 99.1826 124.125 102.237C117.917 105.291 110.788 105.69 104.295 103.348C87.017 98.6334 77.1121 97.5891 69.9982 99.9448V137.125C69.9853 139.172 70.7513 141.143 72.1321 142.615C73.5129 144.088 75.3985 144.944 77.3845 145C79.3562 144.987 81.2422 144.168 82.628 142.723C84.0137 141.278 84.7857 139.324 84.7742 137.293V137.142V112.767C92.4088 118.556 101.679 121.596 111.156 121.42C122.144 121.688 132.786 117.448 140.741 109.633C148.696 101.818 153.313 91.0664 153.577 79.7437C153.577 79.2335 153.577 78.7165 153.577 78.22V77.9701C153.667 72.4196 152.695 66.9051 150.716 61.7417C148.738 56.5783 145.792 51.867 142.047 47.8769C138.301 43.8867 133.83 40.6958 128.888 38.4864C123.946 36.277 118.629 35.0923 113.243 35C112.632 35 112.024 35 111.412 35.0171Z" fill="white"/>
<path d="M40.1611 120.966C42.5576 121.307 43.9499 121.411 45.2676 121.347C45.9185 121.315 46.5507 121.242 47.2725 121.141L49.8164 120.761L49.9131 120.737C52.1008 119.956 54.6522 118.612 56.1123 117.226L56.3896 116.948L56.3916 116.945C56.9673 116.325 57.8101 115.052 58.7324 113.509C59.6638 111.95 60.702 110.073 61.6719 108.211C62.6416 106.349 63.5461 104.496 64.21 102.985C64.5416 102.231 64.8164 101.555 65.0088 101.004C65.1927 100.477 65.327 99.9957 65.3271 99.6632C65.3271 99.3516 65.1828 99.0906 64.9492 98.9122C64.7364 98.7498 64.4663 98.6664 64.1943 98.6241C63.6474 98.5391 62.9021 98.5916 62.0186 98.7599V98.7609C60.9029 98.9187 60.3064 98.8933 59.71 98.5665C59.0608 98.2109 58.3595 97.4713 57.1553 95.9767L57.1543 95.9777C55.6222 94.0231 52.6831 91.7559 50.6396 90.8195C50.6354 90.8175 50.6312 90.8154 50.627 90.8136C48.3065 89.8313 46.5325 89.4122 44.7803 89.4376C43.038 89.4629 41.3589 89.928 39.2441 90.6339C39.2342 90.6372 39.2236 90.6407 39.2139 90.6447C31.6266 93.7214 27.9166 100.116 28.0889 106.359C28.2612 112.606 32.3203 118.629 40.0889 120.95L40.1611 120.966Z" fill="white" stroke="white" stroke-linejoin="round"/>
</svg>
