<svg width="180" height="180" viewBox="0 0 180 180" fill="none" xmlns="http://www.w3.org/2000/svg">
<rect width="180" height="180" rx="15" fill="#EA1F33"/>
<path fill-rule="evenodd" clip-rule="evenodd" d="M61.4386 66.3133L30.5555 45.5025C35.5245 38.6859 41.5589 32.5829 48.6587 27.9196L75.2828 55.5511C69.9581 58.0612 64.9895 61.6499 61.4386 66.3133ZM53.2734 86.0519L18.1295 72.4162C20.2606 63.8032 23.4557 55.9079 28.0705 48.7344L59.6632 68.4706C56.1143 73.4909 53.9846 79.5942 53.2734 86.0519ZM95.5168 102.201L57.5339 87.487C58.5977 81.7466 61.0844 76.005 64.6321 71.3416L95.5168 91.0766V102.201ZM95.5168 89.2818L66.0534 69.5452C69.6027 65.2387 74.2174 62.0108 79.5418 59.8576L95.5168 76.005V89.2818ZM20.2606 114.761C17.4212 106.866 16 98.6118 16 90.0012C16 84.9765 16.3557 80.3115 17.4212 75.6482L53.2734 88.5645C53.2734 88.9238 53.2734 89.2818 53.2734 90.0012C53.2734 98.6118 56.1143 106.866 61.4386 113.324H61.7928C58.5978 107.584 56.8239 101.124 56.8239 94.3065C56.8239 92.8714 56.8239 91.4347 57.1781 90.0012L95.5168 103.637V114.761H20.2606ZM22.7457 121.579C22.3899 120.144 21.6803 118.709 20.9703 117.273H43.3339L47.239 121.579H80.2534L73.1532 129.116H32.331C31.2652 125.168 27.3605 121.938 22.7457 121.579ZM107.231 123.374C109.717 121.938 112.2 120.144 114.332 118.349C115.751 117.273 117.171 115.838 118.236 114.402C123.915 107.584 127.466 99.3296 127.466 90.0012C127.466 69.1884 110.781 52.3191 90.1925 52.3191C85.9335 52.3191 81.673 53.0409 78.1221 54.4764L52.2092 25.4095C63.2141 18.9497 76.3483 15 90.1925 15C131.37 15 164.383 48.3735 164.383 90.0012C164.383 131.268 131.37 165 90.1925 165C69.9581 165 51.4995 156.745 38.0096 143.11H128.885L129.595 142.391L33.749 138.444L33.039 137.728H134.566L134.92 137.01L28.7801 131.986L28.4243 131.626H69.6027C69.6027 131.626 90.5467 132.344 107.231 123.374Z" fill="white"/>
</svg>
