<svg width="705" height="150" viewBox="0 0 705 150" fill="none" xmlns="http://www.w3.org/2000/svg">
<path fill-rule="evenodd" clip-rule="evenodd" d="M526.088 89.3537C526.088 81.8185 521.475 74.2817 512.597 72.4869V72.1293C519.698 69.6167 524.668 62.7993 524.668 55.6238C524.668 43.422 515.438 36.9622 499.111 36.9622C489.524 36.9622 479.584 36.9622 473.193 37.319V112.321C482.781 112.321 490.944 112.679 495.561 112.679C518.635 112.679 526.088 100.119 526.088 89.3537ZM509.051 57.7771C509.051 64.5941 504.081 68.5413 493.784 68.5413C491.654 68.5413 489.881 68.5413 488.104 68.5413V48.8031C490.591 48.8031 493.431 48.4462 496.624 48.4462C505.854 48.4462 509.051 52.3919 509.051 57.7771ZM510.467 89.7134C510.467 96.5309 505.501 100.838 495.914 100.838C492.721 100.838 489.881 100.479 488.104 100.479V79.3064C489.524 79.3064 493.431 79.3064 494.494 79.3064C504.081 79.3064 510.467 82.1766 510.467 89.7134Z" fill="#EA1F33"/>
<path fill-rule="evenodd" clip-rule="evenodd" d="M580.043 112.32C579.69 108.013 579.69 102.631 579.69 98.3237V75.0008C579.69 63.1571 574.363 55.9803 556.617 55.9803C549.159 55.9803 542.059 57.4158 536.379 59.2082L537.803 71.4112C542.416 68.541 549.159 67.1043 554.13 67.1043C562.297 67.1043 565.133 69.9761 565.133 75.7181V78.5883C545.966 78.5883 532.833 85.7659 532.833 99.0431C532.833 108.013 538.509 113.396 548.806 113.396C557.323 113.396 564.07 109.09 566.91 102.99C566.557 105.861 566.2 109.09 566.2 112.32H580.043ZM565.133 89.3534C565.133 95.8132 560.163 102.631 553.067 102.631C549.159 102.631 546.676 100.478 546.676 96.8903C546.676 92.2236 549.869 87.9183 565.133 87.9183V89.3534Z" fill="#EA1F33"/>
<path fill-rule="evenodd" clip-rule="evenodd" d="M641.812 112.321V73.5643C641.812 63.8763 637.909 55.9806 625.129 55.9806C615.898 55.9806 609.508 60.648 605.958 67.1045C606.668 63.8762 606.668 59.5693 606.668 57.0551H593.178V112.321H607.378V85.7661C607.378 76.0764 613.411 67.8235 620.512 67.8235C625.839 67.8235 627.612 71.4114 627.612 77.1535V112.321H641.812Z" fill="#EA1F33"/>
<path fill-rule="evenodd" clip-rule="evenodd" d="M705 112.321L684.057 82.5362L703.58 57.0551H685.83L669.503 80.0237V31.2201H655.303V112.321H669.503V85.0483L686.897 112.321H705Z" fill="#EA1F33"/>
<path fill-rule="evenodd" clip-rule="evenodd" d="M244.585 73.5655C244.585 47.3687 228.61 35.8846 207.666 35.8846C185.658 35.8846 167.909 51.3143 167.909 75.7195C167.909 99.4026 179.978 113.757 204.827 113.757C226.834 113.757 244.585 98.3251 244.585 73.5655ZM225.059 75.0022C225.059 91.8674 214.766 97.9671 205.89 97.9671C193.112 97.9671 187.432 88.9968 187.432 74.2828C187.432 58.8527 196.663 51.6752 206.246 51.6752C218.315 51.6752 225.059 59.5705 225.059 75.0022Z" fill="#EA1F33"/>
<path fill-rule="evenodd" clip-rule="evenodd" d="M309.547 110.526L307.415 95.0955C303.511 96.5306 297.476 97.608 293.217 97.608C278.662 97.608 272.273 89.3535 272.273 74.6411C272.273 61.0046 279.373 52.3916 292.507 52.3916C297.476 52.3916 302.447 53.1093 307.061 54.5448L309.191 38.7583C304.222 37.3188 298.188 36.9619 292.863 36.9619C266.239 36.9619 252.039 53.1093 252.039 77.5113C252.039 94.7362 260.205 113.396 289.667 113.396C296.413 113.396 303.511 112.32 309.547 110.526Z" fill="#EA1F33"/>
<path fill-rule="evenodd" clip-rule="evenodd" d="M380.188 88.9957C380.188 81.4589 375.222 74.2817 367.055 72.4869V72.1293C374.155 69.2591 378.768 62.7993 378.768 55.9806C378.768 43.422 368.475 36.9622 351.08 36.9622C341.141 36.9622 329.072 36.9622 321.618 37.319V112.321C333.331 112.321 342.206 112.679 347.175 112.679C370.605 112.679 380.188 100.838 380.188 88.9957ZM359.245 58.4908C359.245 64.2344 354.631 67.4643 345.756 67.4643C343.626 67.4643 341.851 67.4643 340.433 67.4643V50.9564C342.562 50.9564 345.046 50.9564 347.887 50.9564C355.696 50.9564 359.245 53.8274 359.245 58.4908ZM360.311 89.3537C360.311 95.0958 355.696 98.6837 347.531 98.6837C344.691 98.6837 341.851 98.324 340.433 98.324V80.3818C341.851 80.3818 345.401 80.3818 346.467 80.3818C354.985 80.3818 360.311 83.2536 360.311 89.3537Z" fill="#EA1F33"/>
<path fill-rule="evenodd" clip-rule="evenodd" d="M445.507 110.526L443.377 95.0955C439.474 96.5306 433.436 97.608 429.533 97.608C414.98 97.608 408.59 89.3535 408.59 74.6411C408.59 61.0046 415.69 52.3916 428.466 52.3916C433.436 52.3916 438.407 53.1093 443.024 54.5448L445.15 38.7583C440.184 37.3188 434.503 36.9619 428.823 36.9619C402.199 36.9619 387.999 53.1093 387.999 77.5113C387.999 94.7362 396.166 113.396 425.63 113.396C432.73 113.396 439.827 112.32 445.507 110.526Z" fill="#EA1F33"/>
<path fill-rule="evenodd" clip-rule="evenodd" d="M45.4386 51.3133L14.5555 30.5025C19.5245 23.6859 25.5589 17.5829 32.6587 12.9196L59.2828 40.5511C53.9581 43.0612 48.9895 46.6499 45.4386 51.3133ZM37.2734 71.0519L2.1295 57.4162C4.26056 48.8032 7.45574 40.9079 12.0705 33.7344L43.6632 53.4706C40.1143 58.4909 37.9846 64.5942 37.2734 71.0519ZM79.5168 87.2014L41.5339 72.487C42.5977 66.7466 45.0844 61.005 48.6321 56.3416L79.5168 76.0766V87.2014ZM79.5168 74.2818L50.0534 54.5452C53.6027 50.2387 58.2174 47.0108 63.5418 44.8576L79.5168 61.005V74.2818ZM4.26056 99.7609C1.42124 91.8664 0 83.6118 0 75.0012C0 69.9765 0.355692 65.3115 1.42124 60.6482L37.2734 73.5645C37.2734 73.9238 37.2734 74.2818 37.2734 75.0012C37.2734 83.6118 40.1143 91.8664 45.4386 98.3242H45.7928C42.5978 92.5837 40.8239 86.124 40.8239 79.3065C40.8239 77.8714 40.8239 76.4347 41.1781 75.0012L79.5168 88.6365V99.7609H4.26056ZM6.74572 106.579C6.38991 105.144 5.68028 103.709 4.97026 102.273H27.3339L31.239 106.579H64.2534L57.1532 114.116H16.331C15.2652 110.168 11.3605 106.938 6.74572 106.579ZM91.2314 108.374C93.7168 106.938 96.2003 105.144 98.3316 103.349C99.7512 102.273 101.171 100.838 102.236 99.4016C107.915 92.5837 111.466 84.3296 111.466 75.0012C111.466 54.1884 94.7807 37.3191 74.1925 37.3191C69.9335 37.3191 65.673 38.0409 62.1221 39.4764L36.2092 10.4095C47.2141 3.94969 60.3483 0 74.1925 0C115.37 0 148.383 33.3735 148.383 75.0012C148.383 116.268 115.37 150 74.1925 150C53.9581 150 35.4995 141.745 22.0096 128.11H112.885L113.595 127.391L17.749 123.444L17.039 122.728H118.566L118.92 122.01L12.7801 116.986L12.4243 116.626H53.6027C53.6027 116.626 74.5467 117.344 91.2314 108.374Z" fill="#EA1F33"/>
</svg>
