<svg width="500" height="350" viewBox="0 0 500 350" fill="none" xmlns="http://www.w3.org/2000/svg">
<rect width="500" height="350" rx="15" fill="#EA1F33"/>
<path fill-rule="evenodd" clip-rule="evenodd" d="M325.099 280.707C325.099 274.394 321.234 268.079 313.796 266.575V266.276C319.745 264.171 323.909 258.459 323.909 252.447C323.909 242.223 316.175 236.811 302.496 236.811C294.464 236.811 286.135 236.811 280.781 237.11V299.95C288.814 299.95 295.653 300.25 299.522 300.25C318.854 300.25 325.099 289.727 325.099 280.707ZM310.825 254.251C310.825 259.962 306.661 263.27 298.033 263.27C296.248 263.27 294.763 263.27 293.274 263.27V246.732C295.358 246.732 297.737 246.433 300.413 246.433C308.146 246.433 310.825 249.739 310.825 254.251ZM312.011 281.009C312.011 286.721 307.85 290.329 299.818 290.329C297.142 290.329 294.763 290.028 293.274 290.028V272.289C294.464 272.289 297.737 272.289 298.628 272.289C306.661 272.289 312.011 274.694 312.011 281.009Z" fill="white"/>
<path fill-rule="evenodd" clip-rule="evenodd" d="M370.305 299.95C370.009 296.341 370.009 291.831 370.009 288.223V268.682C370.009 258.758 365.546 252.745 350.677 252.745C344.429 252.745 338.48 253.948 333.721 255.45L334.914 265.674C338.779 263.269 344.429 262.066 348.593 262.066C355.436 262.066 357.812 264.472 357.812 269.283V271.687C341.754 271.687 330.75 277.701 330.75 288.825C330.75 296.341 335.506 300.851 344.133 300.851C351.269 300.851 356.922 297.244 359.301 292.133C359.006 294.537 358.706 297.244 358.706 299.95H370.305ZM357.812 280.707C357.812 286.119 353.648 291.831 347.703 291.831C344.429 291.831 342.349 290.028 342.349 287.022C342.349 283.112 345.024 279.505 357.812 279.505V280.707Z" fill="white"/>
<path fill-rule="evenodd" clip-rule="evenodd" d="M422.058 299.95V267.478C422.058 259.361 418.788 252.746 408.08 252.746C400.346 252.746 394.992 256.656 392.018 262.066C392.612 259.361 392.612 255.752 392.612 253.646H381.31V299.95H393.207V277.701C393.207 269.583 398.262 262.668 404.211 262.668C408.674 262.668 410.16 265.674 410.16 270.485V299.95H422.058Z" fill="white"/>
<path fill-rule="evenodd" clip-rule="evenodd" d="M475 299.95L457.453 274.995L473.81 253.646H458.938L445.259 272.89V232H433.361V299.95H445.259V277.1L459.832 299.95H475Z" fill="white"/>
<path fill-rule="evenodd" clip-rule="evenodd" d="M89.2426 267.479C89.2426 245.53 75.858 235.908 58.3101 235.908C39.8709 235.908 25 248.836 25 269.284C25 289.127 35.1118 301.153 55.9312 301.153C74.3704 301.153 89.2426 288.224 89.2426 267.479ZM72.8832 268.683C72.8832 282.813 64.2586 287.924 56.8225 287.924C46.1162 287.924 41.3571 280.408 41.3571 268.08C41.3571 255.152 49.0913 249.138 57.1206 249.138C67.2324 249.138 72.8832 255.753 72.8832 268.683Z" fill="white"/>
<path fill-rule="evenodd" clip-rule="evenodd" d="M143.671 298.446L141.885 285.518C138.614 286.72 133.558 287.623 129.989 287.623C117.794 287.623 112.442 280.707 112.442 268.38C112.442 256.955 118.39 249.739 129.395 249.739C133.558 249.739 137.722 250.34 141.588 251.543L143.373 238.316C139.21 237.11 134.154 236.811 129.693 236.811C107.386 236.811 95.4883 250.34 95.4883 270.785C95.4883 285.217 102.33 300.851 127.014 300.851C132.666 300.851 138.614 299.95 143.671 298.446Z" fill="white"/>
<path fill-rule="evenodd" clip-rule="evenodd" d="M202.857 280.407C202.857 274.092 198.696 268.079 191.853 266.575V266.276C197.802 263.871 201.667 258.459 201.667 252.746C201.667 242.223 193.043 236.811 178.469 236.811C170.141 236.811 160.03 236.811 153.784 237.11V299.95C163.598 299.95 171.034 300.25 175.197 300.25C194.828 300.25 202.857 290.329 202.857 280.407ZM185.31 254.849C185.31 259.661 181.444 262.367 174.008 262.367C172.223 262.367 170.736 262.367 169.548 262.367V248.536C171.332 248.536 173.413 248.536 175.793 248.536C182.336 248.536 185.31 250.942 185.31 254.849ZM186.203 280.707C186.203 285.518 182.336 288.524 175.495 288.524C173.116 288.524 170.736 288.223 169.548 288.223V273.19C170.736 273.19 173.711 273.19 174.604 273.19C181.74 273.19 186.203 275.596 186.203 280.707Z" fill="white"/>
<path fill-rule="evenodd" clip-rule="evenodd" d="M257.585 298.446L255.8 285.518C252.53 286.72 247.472 287.623 244.202 287.623C232.008 287.623 226.654 280.707 226.654 268.38C226.654 256.955 232.603 249.739 243.308 249.739C247.472 249.739 251.636 250.34 255.505 251.543L257.286 238.316C253.125 237.11 248.366 236.811 243.607 236.811C221.3 236.811 209.402 250.34 209.402 270.785C209.402 285.217 216.245 300.851 240.931 300.851C246.88 300.851 252.826 299.95 257.585 298.446Z" fill="white"/>
<path fill-rule="evenodd" clip-rule="evenodd" d="M221.439 101.313L190.556 80.5025C195.524 73.6859 201.559 67.5829 208.659 62.9196L235.283 90.5511C229.958 93.0612 224.99 96.6499 221.439 101.313ZM213.273 121.052L178.129 107.416C180.261 98.8032 183.456 90.9079 188.07 83.7344L219.663 103.471C216.114 108.491 213.985 114.594 213.273 121.052ZM255.517 137.201L217.534 122.487C218.598 116.747 221.084 111.005 224.632 106.342L255.517 126.077V137.201ZM255.517 124.282L226.053 104.545C229.603 100.239 234.217 97.0108 239.542 94.8576L255.517 111.005V124.282ZM180.261 149.761C177.421 141.866 176 133.612 176 125.001C176 119.977 176.356 115.312 177.421 110.648L213.273 123.564C213.273 123.924 213.273 124.282 213.273 125.001C213.273 133.612 216.114 141.866 221.439 148.324H221.793C218.598 142.584 216.824 136.124 216.824 129.307C216.824 127.871 216.824 126.435 217.178 125.001L255.517 138.637V149.761H180.261ZM182.746 156.579C182.39 155.144 181.68 153.709 180.97 152.273H203.334L207.239 156.579H240.253L233.153 164.116H192.331C191.265 160.168 187.36 156.938 182.746 156.579ZM267.231 158.374C269.717 156.938 272.2 155.144 274.332 153.349C275.751 152.273 277.171 150.838 278.236 149.402C283.915 142.584 287.466 134.33 287.466 125.001C287.466 104.188 270.781 87.3191 250.192 87.3191C245.934 87.3191 241.673 88.0409 238.122 89.4764L212.209 60.4095C223.214 53.9497 236.348 50 250.192 50C291.37 50 324.383 83.3735 324.383 125.001C324.383 166.268 291.37 200 250.192 200C229.958 200 211.5 191.745 198.01 178.11H288.885L289.595 177.391L193.749 173.444L193.039 172.728H294.566L294.92 172.01L188.78 166.986L188.424 166.626H229.603C229.603 166.626 250.547 167.344 267.231 158.374Z" fill="white"/>
</svg>
