<svg width="180" height="180" viewBox="0 0 180 180" fill="none" xmlns="http://www.w3.org/2000/svg">
<circle cx="90" cy="90" r="90" fill="#008250"/>
<path d="M136.459 52.2894C126.235 58.1315 122.949 58.8617 111.995 65.4341L112.36 64.3387C118.203 58.1315 120.758 55.2104 124.41 49.7335C114.186 50.4637 99.2157 51.5591 88.627 53.7499L89.3572 52.6545C99.2157 47.9078 117.107 43.1611 126.235 42.0657C124.045 38.7796 105.788 28.921 101.407 27.0954L101.772 26C115.647 27.4605 133.903 34.0329 141.571 38.7796C144.857 37.6842 148.508 37.6842 154.716 36.9539C154.716 36.9539 153.62 40.6052 147.048 45.3519C148.873 49.7335 144.857 74.9275 141.206 81.4998C141.206 71.2762 140.475 58.1315 136.459 52.2894Z" fill="url(#paint0_linear_2139_1702)"/>
<path d="M61.6084 142.113L61.9735 141.017C56.4966 138.827 51.0196 137.366 46.6381 132.984C48.0986 128.968 49.5591 126.047 52.115 122.396L52.4802 121.3C47.7335 122.031 43.717 123.856 39.7006 124.586C36.4144 119.11 35.319 111.442 33.4934 104.139V104.869C32.7631 113.267 32.398 119.11 33.4934 125.682C30.2072 126.777 27.2862 126.777 24.3651 127.873L24 128.968C28.3816 131.524 31.6677 133.715 36.7796 135.906C39.3355 141.382 42.2565 145.399 46.6381 149.78L47.0032 148.685C46.2729 145.399 45.1776 142.843 45.5427 139.192C51.0196 141.017 55.4012 141.748 61.6084 142.113Z" fill="url(#paint1_linear_2139_1702)"/>
<path d="M76.9414 58.8616C76.9414 58.8616 74.7506 62.878 72.9249 67.9898H72.5598C85.3394 69.8155 97.3886 74.9273 100.31 76.753L99.9446 77.8484C86.7999 75.6576 79.8624 75.6576 74.7506 76.3878C70.0039 76.753 68.9085 77.4832 68.9085 77.4832C65.9874 83.6904 64.5269 93.9141 63.7967 97.5654L63.4315 98.6608C60.8756 92.8187 57.5895 81.1345 57.5895 81.1345C51.0171 84.7858 35.6816 99.0259 35.6816 99.0259C44.0796 82.2299 52.8428 74.5622 52.8428 74.5622C49.9217 71.6411 42.254 70.1806 36.4119 69.8155L36.777 68.7201C40.4283 67.6247 47.7309 67.2596 52.4776 66.8944C58.3197 66.8944 61.6059 66.8944 61.6059 66.8944C66.3526 62.878 74.0203 59.2267 76.9414 58.8616Z" fill="url(#paint2_linear_2139_1702)"/>
<path d="M93.0074 131.524C90.4515 135.175 87.8956 138.096 84.9746 141.383C80.593 142.478 75.4812 142.113 71.4647 142.113L71.0996 143.208C74.0207 144.669 76.9417 145.764 80.2279 146.494C77.672 148.685 74.3858 150.511 71.8299 152.337L71.4647 153.432C76.5766 152.337 83.514 150.146 88.6259 146.86C91.1818 146.86 93.7377 146.86 95.5633 146.494L95.9285 145.399C95.5633 144.304 94.4679 143.573 94.1028 141.748C98.8495 138.096 102.136 134.81 106.152 130.794L106.882 129.698C102.866 132.254 98.1192 136.271 93.7377 138.462C93.3726 135.906 93.0074 134.08 93.0074 131.524Z" fill="url(#paint3_linear_2139_1702)"/>
<path d="M137.192 51.194C126.968 57.0361 123.682 57.7663 112.728 64.3387C119.3 57.4012 121.491 54.4802 125.507 48.273C115.284 48.6381 100.313 50.0986 89.7246 52.2894C98.8529 47.1776 117.475 41.7006 126.968 40.6052C124.777 37.6842 106.521 28.1908 101.774 26C116.014 27.0954 133.905 32.5723 142.303 37.6842C145.59 36.5888 149.241 36.5888 155.448 35.8585C153.988 38.7796 153.988 40.6052 147.78 44.6217C149.606 49.0032 145.59 74.1972 141.938 80.7696C141.938 70.1808 140.843 57.0361 137.192 51.194Z" fill="white"/>
<path d="M62.3369 141.015C56.4948 138.824 52.1133 136.269 47.7317 131.887C49.1922 127.871 50.6528 124.95 53.2087 121.298C48.462 122.028 44.8107 122.394 40.7942 123.489C37.1429 117.282 35.6824 111.44 34.2219 103.772C33.1265 112.17 33.1265 118.012 34.2219 124.584C30.5706 125.68 27.6496 126.41 24.7285 127.871C29.1101 130.427 32.7614 132.617 37.5081 134.808C40.064 140.285 42.985 144.301 47.3666 148.683C46.2712 145.032 45.9061 142.111 46.6363 138.094C51.383 139.92 56.1297 140.65 62.3369 141.015Z" fill="white"/>
<path d="M77.6737 57.7671C75.848 60.323 73.6572 64.7046 73.2921 66.5302C88.2624 68.721 100.677 76.3887 100.677 76.3887C87.5322 74.198 80.5947 74.198 75.4829 74.9282C70.7362 75.2933 69.6408 76.0236 69.6408 76.0236C65.9895 83.6914 63.7987 97.2012 63.7987 97.2012C61.2428 91.3591 57.9566 79.6749 57.9566 79.6749C51.3843 83.3262 36.0488 97.5663 36.0488 97.5663C44.4468 80.7703 53.2099 73.1026 53.2099 73.1026C50.2889 70.1815 42.6212 68.721 36.7791 68.3559C39.7001 67.2605 47.3679 65.8 53.2099 65.4348C59.052 65.4348 62.3382 65.4348 62.3382 65.4348C67.0849 61.7835 74.7526 58.1322 77.6737 57.7671Z" fill="white"/>
<path d="M93.7397 130.429C91.1838 134.08 88.6279 137.001 85.7069 140.287C80.5951 141.748 76.5786 142.113 71.4668 142.113C74.3878 143.573 77.3089 144.669 80.5951 145.399C77.3089 148.32 74.753 150.146 71.4668 152.337C76.5786 151.241 83.5161 149.05 88.6279 145.764C91.1838 145.764 93.7397 145.764 95.5654 145.399C95.2003 143.939 94.8351 142.843 94.47 140.652C99.2167 137.001 102.868 133.715 106.519 129.698C102.138 132.62 98.4864 134.81 93.7397 137.001C93.7397 134.81 93.7397 132.985 93.7397 130.429Z" fill="white"/>
<defs>
<linearGradient id="paint0_linear_2139_1702" x1="121.94" y1="152.2" x2="121.94" y2="25.078" gradientUnits="userSpaceOnUse">
<stop stop-color="#00B387"/>
<stop offset="1" stop-color="#00A76D"/>
</linearGradient>
<linearGradient id="paint1_linear_2139_1702" x1="43.0693" y1="152.208" x2="43.0693" y2="25.0479" gradientUnits="userSpaceOnUse">
<stop stop-color="#00B387"/>
<stop offset="1" stop-color="#00A76D"/>
</linearGradient>
<linearGradient id="paint2_linear_2139_1702" x1="67.6364" y1="152.178" x2="67.6364" y2="25.1016" gradientUnits="userSpaceOnUse">
<stop stop-color="#00B387"/>
<stop offset="1" stop-color="#00A76D"/>
</linearGradient>
<linearGradient id="paint3_linear_2139_1702" x1="88.8793" y1="152.198" x2="88.8793" y2="25.0773" gradientUnits="userSpaceOnUse">
<stop stop-color="#00B387"/>
<stop offset="1" stop-color="#00A76D"/>
</linearGradient>
</defs>
</svg>
