<svg width="800" height="150" viewBox="0 0 800 150" fill="none" xmlns="http://www.w3.org/2000/svg">
<rect width="800" height="150" rx="15" fill="url(#paint0_linear_2139_1253)"/>
<path d="M197.075 42.6932C188.25 47.7361 185.413 48.3664 175.958 54.0397L176.273 53.0942C181.316 47.7361 183.522 45.2146 186.674 40.4869C177.849 41.1172 164.926 42.0628 155.786 43.9539L156.416 43.0083C164.926 38.911 180.37 34.8136 188.25 33.868C186.359 31.0314 170.6 22.5215 166.818 20.9455L167.133 20C179.11 21.2607 194.869 26.934 201.488 31.0314C204.324 30.0858 207.476 30.0858 212.834 29.4555C212.834 29.4555 211.889 32.6073 206.215 36.7047C207.791 40.4869 204.324 62.2345 201.172 67.9078C201.172 59.0827 200.542 47.7361 197.075 42.6932Z" fill="url(#paint1_linear_2139_1253)"/>
<path d="M132.464 120.229L132.779 119.284C128.051 117.393 123.324 116.132 119.541 112.35C120.802 108.883 122.063 106.361 124.269 103.209L124.584 102.264C120.487 102.894 117.02 104.47 113.553 105.1C110.716 100.373 109.771 93.7538 108.195 87.4502V88.0806C107.564 95.3298 107.249 100.373 108.195 106.046C105.358 106.992 102.837 106.992 100.315 107.937L100 108.883C103.782 111.089 106.619 112.98 111.031 114.871C113.238 119.599 115.759 123.066 119.541 126.848L119.856 125.902C119.226 123.066 118.281 120.86 118.596 117.708C123.324 119.284 127.106 119.914 132.464 120.229Z" fill="url(#paint2_linear_2139_1253)"/>
<path d="M145.7 48.3663C145.7 48.3663 143.809 51.8333 142.233 56.2458H141.917C152.949 57.8218 163.35 62.2343 165.871 63.8102L165.556 64.7558C154.21 62.8647 148.221 62.8647 143.809 63.495C139.711 63.8102 138.766 64.4406 138.766 64.4406C136.244 69.7987 134.983 78.6238 134.353 81.7756L134.038 82.7212C131.832 77.6783 128.995 67.5924 128.995 67.5924C123.322 70.7442 110.084 83.0364 110.084 83.0364C117.333 68.538 124.898 61.9191 124.898 61.9191C122.376 59.3977 115.757 58.1369 110.714 57.8218L111.03 56.8762C114.181 55.9307 120.485 55.6155 124.582 55.3003C129.625 55.3003 132.462 55.3003 132.462 55.3003C136.559 51.8333 143.178 48.6815 145.7 48.3663Z" fill="url(#paint3_linear_2139_1253)"/>
<path d="M159.567 111.089C157.361 114.241 155.155 116.762 152.633 119.599C148.851 120.545 144.438 120.229 140.971 120.229L140.656 121.175C143.178 122.436 145.699 123.381 148.536 124.012C146.33 125.903 143.493 127.479 141.287 129.054L140.971 130C145.384 129.054 151.372 127.163 155.785 124.327C157.991 124.327 160.198 124.327 161.773 124.012L162.089 123.066C161.773 122.12 160.828 121.49 160.513 119.914C164.61 116.762 167.447 113.926 170.914 110.459L171.544 109.513C168.077 111.719 163.98 115.186 160.198 117.077C159.882 114.871 159.567 113.295 159.567 111.089Z" fill="url(#paint4_linear_2139_1253)"/>
<path d="M197.707 41.7476C188.882 46.7905 186.045 47.4209 176.59 53.0942C182.263 47.1057 184.154 44.5842 187.621 39.2261C178.796 39.5413 165.874 40.8021 156.733 42.6931C164.613 38.2806 180.687 33.5529 188.882 32.6073C186.991 30.0858 171.232 21.8911 167.134 20C179.427 20.9455 194.87 25.6733 202.12 30.0858C204.956 29.1403 208.108 29.1403 213.466 28.5099C212.206 31.0314 212.206 32.6073 206.847 36.0743C208.423 39.8565 204.956 61.6041 201.805 67.2774C201.805 58.1371 200.859 46.7905 197.707 41.7476Z" fill="white"/>
<path d="M133.093 119.282C128.05 117.391 124.268 115.184 120.485 111.402C121.746 107.935 123.007 105.414 125.213 102.262C121.116 102.892 117.964 103.208 114.497 104.153C111.345 98.795 110.084 93.7521 108.824 87.1332C107.878 94.3824 107.878 99.4254 108.824 105.099C105.672 106.044 103.15 106.675 100.629 107.935C104.411 110.142 107.563 112.033 111.66 113.924C113.867 118.652 116.388 122.119 120.17 125.901C119.225 122.749 118.909 120.227 119.54 116.76C123.637 118.336 127.735 118.967 133.093 119.282Z" fill="white"/>
<path d="M146.331 47.4215C144.755 49.6278 142.864 53.41 142.549 54.9859C155.471 56.877 166.188 63.4958 166.188 63.4958C154.841 61.6047 148.853 61.6047 144.44 62.2351C140.343 62.5503 139.397 63.1806 139.397 63.1806C136.245 69.7995 134.354 81.4612 134.354 81.4612C132.148 76.4183 129.311 66.3325 129.311 66.3325C123.638 69.4843 110.4 81.7764 110.4 81.7764C117.65 67.278 125.214 60.6592 125.214 60.6592C122.693 58.1377 116.074 56.877 111.031 56.5618C113.552 55.6163 120.171 54.3555 125.214 54.0403C130.257 54.0403 133.094 54.0403 133.094 54.0403C137.191 50.8885 143.81 47.7367 146.331 47.4215Z" fill="white"/>
<path d="M160.2 110.143C157.993 113.295 155.787 115.817 153.266 118.653C148.853 119.914 145.386 120.229 140.974 120.229C143.495 121.49 146.017 122.436 148.853 123.066C146.017 125.587 143.81 127.163 140.974 129.054C145.386 128.109 151.375 126.218 155.787 123.381C157.993 123.381 160.2 123.381 161.776 123.066C161.46 121.805 161.145 120.86 160.83 118.969C164.928 115.817 168.079 112.98 171.231 109.513C167.449 112.035 164.297 113.926 160.2 115.817C160.2 113.926 160.2 112.35 160.2 110.143Z" fill="white"/>
<path d="M265.794 59.2039C274.384 59.2039 277.432 60.8665 277.432 65.5771C277.432 66.9626 277.155 68.0709 276.324 68.9022C274.661 70.8419 271.613 71.9503 267.457 71.6732H267.18L264.686 77.7692H267.18C271.89 77.7692 276.047 79.1547 277.987 81.6485C278.818 82.7569 279.372 84.1424 279.372 85.5279C279.372 90.2385 275.216 92.7323 266.903 92.7323C265.517 92.7323 263.301 92.7323 261.915 92.7323C261.638 86.3591 261.638 77.4921 261.638 74.9983C261.638 71.9503 261.915 65.3 261.915 59.481C262.746 59.2039 264.409 59.2039 265.794 59.2039ZM250.277 54.7704C250.554 59.2039 250.831 70.8419 250.831 74.9983C250.831 78.8776 250.831 91.901 250.277 97.4429V97.9971H270.228C280.203 97.9971 290.733 94.949 290.733 86.082C290.733 80.5402 286.577 76.3838 279.095 74.167C284.637 72.7815 288.516 68.9022 288.516 64.4687C288.516 57.2643 280.203 54.4933 272.445 54.2162H250L250.277 54.7704Z" fill="black"/>
<path d="M337.561 54.2162H327.586L327.863 65.3C328.14 70.8419 328.14 76.3838 328.694 81.6485C328.14 79.986 327.586 79.1547 324.538 74.7212C324.538 74.4441 314.285 58.6498 310.683 54.2162H299.322V54.7704C299.599 59.2039 299.876 70.8419 299.876 74.9983C299.876 78.8776 299.876 91.901 299.322 97.4429V97.9971H309.575V97.4429C309.021 86.9133 309.021 76.1067 309.021 65.5771C309.298 66.9626 309.852 67.7938 311.514 70.2877C311.514 70.5648 329.248 96.0574 330.08 97.72V97.9971H338.393V97.4429C337.838 91.901 337.838 78.8776 337.838 74.9983C337.838 70.8419 338.116 59.2039 338.393 54.7704V54.4933H337.561V54.2162Z" fill="black"/>
<path d="M364.439 59.481C370.258 59.481 374.137 60.5894 376.077 62.8062C376.908 63.9145 377.462 65.3 377.462 66.6855C377.462 73.0586 370.258 74.4441 364.439 74.4441H361.945C361.945 74.4441 361.391 74.4441 360.836 74.4441C360.836 73.0586 360.836 71.119 360.836 68.9022C360.836 66.1313 360.836 62.8062 360.836 59.7581C361.668 59.7581 363.053 59.481 364.439 59.481ZM349.476 54.7704C349.753 59.2039 350.03 70.8419 350.03 74.9983C350.03 78.8776 350.03 91.901 349.476 97.4429V97.9971H361.668V97.4429C361.391 93.2865 361.114 85.805 361.114 79.986C361.668 79.986 363.33 79.986 363.33 79.986H364.993C381.064 79.986 388.823 75.8296 388.823 66.9626C388.823 56.7101 378.016 54.4933 368.872 54.2162H349.753V54.7704" fill="black"/>
<path d="M426.784 59.481C432.603 59.481 436.483 60.5894 438.422 62.8062C439.254 63.9145 439.808 65.3 439.808 66.6855C439.808 73.0586 432.603 74.4441 426.784 74.4441H424.291C424.291 74.4441 423.736 74.4441 423.182 74.4441C423.182 73.0586 423.182 71.119 423.182 68.9022C423.182 66.1313 423.182 62.8062 423.182 59.7581C424.013 59.7581 425.399 59.481 426.784 59.481ZM411.821 54.7704C412.098 59.2039 412.375 70.8419 412.375 74.9983C412.375 78.8776 412.375 91.901 411.821 97.4429V97.9971H424.013V97.4429C423.736 93.2865 423.459 85.805 423.459 79.986C424.013 79.986 425.676 79.986 425.676 79.986H427.339C443.41 79.986 451.169 75.8296 451.169 66.9626C451.169 56.7101 440.085 54.4933 430.941 54.2162H411.821V54.7704Z" fill="black"/>
<path d="M470.291 67.2397C471.122 69.4564 473.893 74.9983 476.664 81.9256C476.11 81.9256 475.556 81.9256 475.556 81.9256H470.291C470.291 81.9256 464.749 81.9256 463.918 81.9256C466.135 76.3838 468.351 71.3961 470.291 67.2397ZM467.243 54.2162C464.749 60.5894 450.063 92.4552 447.846 97.4429L447.569 97.9971H457.822V97.72C458.653 94.672 460.039 91.3468 461.424 87.7446C461.978 87.7446 470.014 87.7446 470.014 87.7446H477.218C477.218 87.7446 478.327 87.7446 478.604 87.7446C480.544 92.4552 481.929 96.0574 482.483 97.72V97.9971H494.398L475.002 54.2162H475.279H467.243Z" fill="black"/>
<path d="M499.662 54.7704C499.939 59.2039 500.216 70.8419 500.216 74.9983C500.216 78.8776 500.216 91.901 499.662 97.4429V97.9971H511.854V97.4429C511.3 91.901 511.023 78.8776 511.023 74.9983C511.023 71.9503 511.023 65.3 511.3 59.7581C512.131 59.7581 513.517 59.481 514.625 59.481C520.167 59.481 524.324 60.5894 526.263 62.8062C527.094 63.9145 527.649 65.3 527.649 66.6855C527.649 71.6732 522.938 74.167 518.505 74.4441C517.119 74.4441 516.011 74.4441 516.011 74.4441L515.179 74.167L515.734 74.9983C520.167 81.3714 526.54 92.1781 529.311 97.4429V97.72H542.335L542.058 97.1658C541.503 96.3345 532.913 83.8653 529.311 78.6005L529.034 78.3234C535.684 76.3838 539.01 72.5044 539.01 66.9626C539.01 56.9872 528.203 54.4933 518.782 54.2162H499.662V54.7704Z" fill="black"/>
<path d="M559.515 54.2162H547.877V54.4933C548.154 58.9268 548.431 70.5648 548.431 74.7212C548.431 78.6005 548.431 91.6239 547.877 97.1658V97.72H560.069V97.1658C559.515 91.6239 559.515 78.6005 559.515 74.7212C559.515 70.5648 559.792 58.9268 560.069 54.4933V54.2162H559.515Z" fill="black"/>
<path d="M586.392 59.2039C594.982 59.2039 598.03 60.8665 598.03 65.5771C598.03 66.9626 597.753 68.0709 596.922 68.9022C595.259 70.8419 592.211 71.9503 588.055 71.6732H587.778L585.561 77.7692H587.778C592.488 77.7692 596.368 79.1547 598.584 81.6485C599.693 82.7569 599.97 84.1424 599.97 85.5279C599.97 90.2385 595.814 92.7323 587.224 92.7323C585.838 92.7323 583.621 92.7323 582.236 92.7323C581.959 86.3591 581.959 77.4921 581.959 74.9983C581.959 71.9503 581.959 65.3 582.236 59.481C583.344 59.2039 585.007 59.2039 586.392 59.2039ZM570.875 54.7704C571.152 59.2039 571.429 70.8419 571.429 74.9983C571.429 78.8776 571.429 91.901 570.875 97.4429V97.9971H591.103C601.078 97.9971 611.608 94.949 611.608 86.082C611.608 80.5402 607.452 76.3838 599.97 74.167C605.512 72.7815 609.391 68.9022 609.391 64.4687C609.391 57.2643 601.078 54.4933 593.32 54.2162H570.875V54.7704Z" fill="black"/>
<path d="M636.271 66.9626C637.379 68.9022 639.873 74.7212 642.644 81.6485C642.09 81.6485 641.813 81.6485 641.813 81.6485H636.548C636.548 81.6485 631.006 81.6485 630.175 81.6485C632.114 76.3838 634.331 71.3961 636.271 66.9626ZM641.259 54.2162H633.223V54.4933C630.729 61.1436 615.489 94.672 614.103 97.4429L613.826 97.9971H624.356V97.72C625.187 94.672 626.295 91.3468 627.681 87.7446C627.958 87.7446 636.271 87.7446 636.271 87.7446H643.475H644.861C646.8 92.4552 648.186 96.0574 648.74 97.72V97.9971H660.655L641.259 54.2162Z" fill="black"/>
<path d="M664.531 65.5776C664.531 73.3362 672.29 76.3843 678.94 79.1552C684.205 81.372 689.747 83.5887 689.747 87.1909C689.747 88.2993 689.47 89.1306 688.916 89.9619C687.53 91.3473 685.036 92.1786 680.88 91.9015C676.723 91.6244 672.29 90.5161 667.025 88.0222L665.085 86.9138V88.5764V96.335L666.471 96.6121H667.302C669.796 97.1663 674.784 98.2747 679.494 98.2747C692.241 98.2747 699.999 93.287 699.999 84.6971C699.999 76.6614 692.241 73.6133 685.036 70.8424C679.771 68.6256 674.507 66.686 674.507 63.3609C674.507 62.2525 674.507 59.4815 681.157 59.4815C686.145 59.4815 690.855 61.4212 693.626 62.5296L696.12 63.6379V61.9754V53.9397L693.626 53.3855C691.132 52.8313 686.976 52 682.819 52C671.736 52.5542 664.531 57.819 664.531 65.5776Z" fill="black"/>
<defs>
<linearGradient id="paint0_linear_2139_1253" x1="399.189" y1="-41.9951" x2="399.189" y2="145.247" gradientUnits="userSpaceOnUse">
<stop stop-color="#00A76D"/>
<stop offset="0.3" stop-color="#7FCBAE"/>
<stop offset="0.55" stop-color="#00A76D"/>
<stop offset="0.8352" stop-color="#008053"/>
<stop offset="0.8691" stop-color="#008558"/>
<stop offset="0.9244" stop-color="#009264"/>
<stop offset="0.9939" stop-color="#00A97A"/>
<stop offset="1" stop-color="#00AD7D"/>
</linearGradient>
<linearGradient id="paint1_linear_2139_1253" x1="184.542" y1="128.937" x2="184.542" y2="19.2042" gradientUnits="userSpaceOnUse">
<stop stop-color="#00B387"/>
<stop offset="1" stop-color="#00A76D"/>
</linearGradient>
<linearGradient id="paint2_linear_2139_1253" x1="116.461" y1="128.944" x2="116.461" y2="19.1782" gradientUnits="userSpaceOnUse">
<stop stop-color="#00B387"/>
<stop offset="1" stop-color="#00A76D"/>
</linearGradient>
<linearGradient id="paint3_linear_2139_1253" x1="137.667" y1="128.918" x2="137.667" y2="19.2245" gradientUnits="userSpaceOnUse">
<stop stop-color="#00B387"/>
<stop offset="1" stop-color="#00A76D"/>
</linearGradient>
<linearGradient id="paint4_linear_2139_1253" x1="156.004" y1="128.935" x2="156.004" y2="19.2035" gradientUnits="userSpaceOnUse">
<stop stop-color="#00B387"/>
<stop offset="1" stop-color="#00A76D"/>
</linearGradient>
</defs>
</svg>
