<svg width="800" height="166" viewBox="0 0 800 166" fill="none" xmlns="http://www.w3.org/2000/svg">
<path d="M165.769 0H0V165.769H165.769V0Z" fill="url(#paint0_linear_2139_1000)"/>
<path d="M160.656 83.6142C160.656 118.302 162.117 153.719 162.117 153.719C162.117 157.736 159.561 160.292 156.275 160.292H12.7784C9.49227 160.292 7.30148 157.371 6.93635 153.719C6.93635 153.719 2.91992 123.413 2.91992 77.407C2.91992 31.0355 7.30148 9.49276 7.30148 9.49276C7.66661 5.84145 9.8574 2.92041 13.1436 2.92041H156.64C159.926 2.92041 162.482 5.84145 162.482 9.49276C162.117 9.49276 160.656 49.292 160.656 83.6142Z" fill="url(#paint1_linear_2139_1000)"/>
<path d="M128.525 44.546C118.302 50.3881 115.016 51.1183 104.062 57.6907L104.427 56.5953C110.269 50.3881 112.825 47.467 116.476 41.9901C106.252 42.7203 91.2821 43.8157 80.6934 46.0065L81.4236 44.9111C91.2821 40.1644 109.174 35.4177 118.302 34.3223C116.111 31.0362 97.8545 21.1776 93.4729 19.352L93.838 18.2566C107.713 19.7171 125.969 26.2895 133.637 31.0362C136.923 29.9408 140.575 29.9408 146.782 29.2105C146.782 29.2105 145.687 32.8618 139.114 37.6085C140.94 41.9901 136.923 67.1841 133.272 73.7564C133.272 63.5328 132.542 50.3881 128.525 44.546Z" fill="url(#paint2_linear_2139_1000)"/>
<path d="M53.6748 134.369L54.0399 133.274C48.563 131.083 43.086 129.623 38.7045 125.241C40.165 121.225 41.6255 118.304 44.1814 114.652L44.5466 113.557C39.7999 114.287 35.7834 116.113 31.767 116.843C28.4808 111.366 27.3854 103.698 25.5598 96.3958V97.126C24.8295 105.524 24.4644 111.366 25.5598 117.938C22.2736 119.034 19.3526 119.034 16.4315 120.129L16.0664 121.225C20.448 123.781 23.7341 125.971 28.846 128.162C31.4019 133.639 34.3229 137.655 38.7045 142.037L39.0696 140.942C38.3393 137.655 37.244 135.1 37.6091 131.448C43.086 133.274 47.4676 134.004 53.6748 134.369Z" fill="url(#paint3_linear_2139_1000)"/>
<path d="M69.0078 51.1182C69.0078 51.1182 66.817 55.1346 64.9913 60.2464H64.6262C77.4058 62.0721 89.455 67.1839 92.3761 69.0096L92.011 70.1049C78.8663 67.9142 71.9288 67.9142 66.817 68.6444C62.0703 69.0096 60.9749 69.7398 60.9749 69.7398C58.0539 75.947 56.5933 86.1707 55.8631 89.822L55.4979 90.9174C52.942 85.0753 49.6559 73.3911 49.6559 73.3911C43.0835 77.0424 27.748 91.2825 27.748 91.2825C36.146 74.4865 44.9092 66.8188 44.9092 66.8188C41.9881 63.8977 34.3204 62.4372 28.4783 62.0721L28.8434 60.9767C32.4947 59.8813 39.7973 59.5162 44.544 59.151C50.3861 59.151 53.6723 59.151 53.6723 59.151C58.419 55.1346 66.0867 51.4833 69.0078 51.1182Z" fill="url(#paint4_linear_2139_1000)"/>
<path d="M85.0738 123.781C82.5179 127.432 79.962 130.353 77.041 133.639C72.6594 134.735 67.5476 134.37 63.5311 134.37L63.166 135.465C66.0871 136.925 69.0081 138.021 72.2943 138.751C69.7384 140.942 66.4522 142.767 63.8963 144.593L63.5311 145.689C68.643 144.593 75.5804 142.402 80.6923 139.116C83.2482 139.116 85.8041 139.116 87.6297 138.751L87.9949 137.656C87.6297 136.56 86.5344 135.83 86.1692 134.004C90.9159 130.353 94.2021 127.067 98.2185 123.05L98.9488 121.955C94.9324 124.511 90.1857 128.527 85.8041 130.718C85.439 128.162 85.0738 126.337 85.0738 123.781Z" fill="url(#paint5_linear_2139_1000)"/>
<path d="M129.258 43.4506C119.034 49.2927 115.748 50.0229 104.794 56.5953C111.367 49.6578 113.557 46.7368 117.574 40.5295C107.35 40.8947 92.3798 42.3552 81.791 44.546C90.9193 39.4342 109.541 33.9572 119.034 32.8618C116.844 29.9408 98.587 20.4474 93.8403 18.2566C108.08 19.352 125.972 24.8289 134.37 29.9408C137.656 28.8454 141.307 28.8454 147.514 28.1151C146.054 31.0362 146.054 32.8618 139.847 36.8782C141.672 41.2598 137.656 66.4538 134.005 73.0261C134.005 62.4374 132.909 49.2927 129.258 43.4506Z" fill="white"/>
<path d="M54.4033 133.272C48.5612 131.081 44.1797 128.525 39.7981 124.144C41.2586 120.127 42.7192 117.206 45.2751 113.555C40.5284 114.285 36.8771 114.65 32.8607 115.746C29.2093 109.538 27.7488 103.696 26.2883 96.0286C25.1929 104.427 25.1929 110.269 26.2883 116.841C22.637 117.936 19.716 118.667 16.7949 120.127C21.1765 122.683 24.8278 124.874 29.5745 127.065C32.1304 132.542 35.0514 136.558 39.433 140.94C38.3376 137.288 37.9725 134.367 38.7027 130.351C43.4494 132.176 48.1961 132.907 54.4033 133.272Z" fill="white"/>
<path d="M69.7401 50.0237C67.9144 52.5796 65.7236 56.9612 65.3585 58.7868C80.3289 60.9776 92.7433 68.6453 92.7433 68.6453C79.5986 66.4545 72.6611 66.4546 67.5493 67.1848C62.8026 67.5499 61.7072 68.2802 61.7072 68.2802C58.0559 75.9479 55.8651 89.4578 55.8651 89.4578C53.3092 83.6157 50.023 71.9315 50.023 71.9315C43.4507 75.5828 28.1152 89.8229 28.1152 89.8229C36.5132 73.0269 45.2764 65.3592 45.2764 65.3592C42.3553 62.4381 34.6876 60.9776 28.8455 60.6125C31.7665 59.5171 39.4343 58.0566 45.2764 57.6914C51.1184 57.6914 54.4046 57.6914 54.4046 57.6914C59.1513 54.0401 66.819 50.3888 69.7401 50.0237Z" fill="white"/>
<path d="M85.8062 122.685C83.2502 126.337 80.6943 129.258 77.7733 132.544C72.6615 134.004 68.645 134.37 63.5332 134.37C66.4542 135.83 69.3753 136.925 72.6615 137.656C69.3753 140.577 66.8194 142.402 63.5332 144.593C68.645 143.498 75.5825 141.307 80.6943 138.021C83.2502 138.021 85.8062 138.021 87.6318 137.656C87.2667 136.195 86.9015 135.1 86.5364 132.909C91.2831 129.258 94.9344 125.972 98.5857 121.955C94.2041 124.876 90.5528 127.067 85.8062 129.258C85.8062 127.067 85.8062 125.241 85.8062 122.685Z" fill="white"/>
<path d="M227.842 60.6109C239.161 60.6109 243.177 62.8017 243.177 69.0089C243.177 70.8346 242.812 72.2951 241.717 73.3905C239.526 75.9464 235.509 77.4069 230.032 77.0418H229.667L226.381 85.0747H229.667C235.875 85.0747 241.352 86.9003 243.907 90.1865C245.003 91.647 245.733 93.4727 245.733 95.2983C245.733 101.506 240.256 104.792 229.302 104.792C227.477 104.792 224.556 104.792 222.73 104.792C222.365 96.3937 222.365 84.7095 222.365 81.4234C222.365 77.4069 222.73 68.6438 222.73 60.9761C223.825 60.6109 226.016 60.6109 227.842 60.6109ZM207.394 54.7688C207.76 60.6109 208.125 75.9464 208.125 81.4234C208.125 86.5352 208.125 103.696 207.394 110.999V111.729H233.684C246.828 111.729 260.703 107.713 260.703 96.0286C260.703 88.726 255.226 83.249 245.368 80.328C252.671 78.5023 257.782 73.3905 257.782 67.5484C257.782 58.055 246.829 54.4037 236.605 54.0386H207.029L207.394 54.7688Z" fill="black"/>
<path d="M322.409 54.0386H309.265L309.63 68.6438C309.995 75.9464 309.995 83.249 310.725 90.1865C309.995 87.9957 309.265 86.9003 305.248 81.0582C305.248 80.6931 291.739 59.8807 286.992 54.0386H272.021V54.7688C272.387 60.6109 272.752 75.9464 272.752 81.4234C272.752 86.5352 272.752 103.696 272.021 110.999V111.729H285.531V110.999C284.801 97.124 284.801 82.8839 284.801 69.0089C285.166 70.8346 285.896 71.93 288.087 75.2161C288.087 75.5813 311.456 109.173 312.551 111.364V111.729H323.505V110.999C322.775 103.696 322.775 86.5352 322.775 81.4234C322.775 75.9464 323.14 60.6109 323.505 54.7688V54.4037H322.409V54.0386Z" fill="black"/>
<path d="M357.826 60.9761C365.494 60.9761 370.606 62.4366 373.162 65.3576C374.257 66.8181 374.988 68.6438 374.988 70.4694C374.988 78.8674 365.494 80.6931 357.826 80.6931H354.54C354.54 80.6931 353.81 80.6931 353.08 80.6931C353.08 78.8674 353.08 76.3115 353.08 73.3905C353.08 69.7392 353.08 65.3576 353.08 61.3412C354.175 61.3412 356.001 60.9761 357.826 60.9761ZM338.109 54.7688C338.475 60.6109 338.84 75.9464 338.84 81.4234C338.84 86.5352 338.84 103.696 338.109 110.999V111.729H354.175V110.999C353.81 105.522 353.445 95.6634 353.445 87.9957C354.175 87.9957 356.366 87.9957 356.366 87.9957H358.557C379.734 87.9957 389.958 82.5187 389.958 70.8346C389.958 57.3247 375.718 54.4037 363.668 54.0386H338.474V54.7688" fill="black"/>
<path d="M439.981 60.9761C447.648 60.9761 452.76 62.4366 455.316 65.3576C456.412 66.8181 457.142 68.6438 457.142 70.4694C457.142 78.8674 447.648 80.6931 439.981 80.6931H436.695C436.695 80.6931 435.964 80.6931 435.234 80.6931C435.234 78.8674 435.234 76.3115 435.234 73.3905C435.234 69.7392 435.234 65.3576 435.234 61.3412C436.329 61.3412 438.155 60.9761 439.981 60.9761ZM420.264 54.7688C420.629 60.6109 420.994 75.9464 420.994 81.4234C420.994 86.5352 420.994 103.696 420.264 110.999V111.729H436.329V110.999C435.964 105.522 435.599 95.6634 435.599 87.9957C436.329 87.9957 438.52 87.9957 438.52 87.9957H440.711C461.889 87.9957 472.112 82.5187 472.112 70.8346C472.112 57.3247 457.507 54.4037 445.458 54.0386H420.264V54.7688Z" fill="black"/>
<path d="M497.308 71.1997C498.403 74.1207 502.055 81.4234 505.706 90.5516C504.976 90.5516 504.245 90.5516 504.245 90.5516H497.308C497.308 90.5516 490.005 90.5516 488.91 90.5516C491.831 83.249 494.752 76.6767 497.308 71.1997ZM493.291 54.0386C490.005 62.4366 470.653 104.427 467.732 110.999L467.367 111.729H480.877V111.364C481.972 107.348 483.798 102.966 485.624 98.2194C486.354 98.2194 496.943 98.2194 496.943 98.2194H506.436C506.436 98.2194 507.897 98.2194 508.262 98.2194C510.818 104.427 512.643 109.173 513.374 111.364V111.729H529.074L503.515 54.0386H503.88H493.291Z" fill="black"/>
<path d="M536.01 54.7688C536.375 60.6109 536.74 75.9464 536.74 81.4234C536.74 86.5352 536.74 103.696 536.01 110.999V111.729H552.075V110.999C551.345 103.696 550.98 86.5352 550.98 81.4234C550.98 77.4069 550.98 68.6438 551.345 61.3412C552.441 61.3412 554.266 60.9761 555.727 60.9761C563.029 60.9761 568.506 62.4366 571.062 65.3576C572.158 66.8181 572.888 68.6438 572.888 70.4694C572.888 77.0418 566.681 80.328 560.839 80.6931C559.013 80.6931 557.552 80.6931 557.552 80.6931L556.457 80.328L557.187 81.4234C563.029 89.8213 571.427 104.061 575.079 110.999V111.364H592.24L591.875 110.634C591.144 109.538 579.825 93.1075 575.079 86.1701L574.714 85.8049C583.477 83.249 587.858 78.1372 587.858 70.8346C587.858 57.6899 573.618 54.4037 561.204 54.0386H536.01V54.7688Z" fill="black"/>
<path d="M614.88 54.0386H599.545V54.4037C599.91 60.2458 600.275 75.5813 600.275 81.0582C600.275 86.17 600.275 103.331 599.545 110.634V111.364H615.611V110.634C614.88 103.331 614.88 86.17 614.88 81.0582C614.88 75.5813 615.246 60.2458 615.611 54.4037V54.0386H614.88Z" fill="black"/>
<path d="M650.297 60.6109C661.616 60.6109 665.632 62.8017 665.632 69.0089C665.632 70.8346 665.267 72.2951 664.172 73.3905C661.981 75.9464 657.965 77.4069 652.488 77.0418H652.123L649.202 85.0747H652.123C658.33 85.0747 663.442 86.9003 666.363 90.1865C667.823 91.647 668.188 93.4727 668.188 95.2983C668.188 101.506 662.711 104.792 651.392 104.792C649.567 104.792 646.646 104.792 644.82 104.792C644.455 96.3937 644.455 84.7095 644.455 81.4234C644.455 77.4069 644.455 68.6438 644.82 60.9761C646.28 60.6109 648.471 60.6109 650.297 60.6109ZM629.85 54.7688C630.215 60.6109 630.58 75.9464 630.58 81.4234C630.58 86.5352 630.58 103.696 629.85 110.999V111.729H656.504C669.649 111.729 683.524 107.713 683.524 96.0286C683.524 88.726 678.047 83.249 668.188 80.328C675.491 78.5023 680.603 73.3905 680.603 67.5484C680.603 58.055 669.649 54.4037 659.425 54.0386H629.85V54.7688Z" fill="black"/>
<path d="M716.021 70.8346C717.481 73.3905 720.768 81.0582 724.419 90.1865C723.689 90.1865 723.323 90.1865 723.323 90.1865H716.386C716.386 90.1865 709.083 90.1865 707.988 90.1865C710.544 83.249 713.465 76.6767 716.021 70.8346ZM722.593 54.0386H712.004V54.4037C708.718 63.1668 688.636 107.348 686.81 110.999L686.445 111.729H700.32V111.364C701.416 107.348 702.876 102.966 704.702 98.2194C705.067 98.2194 716.021 98.2194 716.021 98.2194H725.514H727.34C729.896 104.427 731.721 109.173 732.452 111.364V111.729H748.152L722.593 54.0386Z" fill="black"/>
<path d="M753.264 69.0096C753.264 79.2332 763.487 83.2496 772.25 86.9009C779.188 89.822 786.49 92.743 786.49 97.4897C786.49 98.9502 786.125 100.046 785.395 101.141C783.569 102.967 780.283 104.062 774.806 103.697C769.329 103.332 763.487 101.871 756.55 98.5851L753.994 97.1246V99.3154V109.539L755.82 109.904H756.915C760.201 110.634 766.773 112.095 772.981 112.095C789.777 112.095 800 105.523 800 94.2035C800 83.6148 789.777 79.5983 780.283 75.947C773.346 73.026 766.408 70.4701 766.408 66.0885C766.408 64.628 766.408 60.9767 775.171 60.9767C781.744 60.9767 787.951 63.5326 791.602 64.9931L794.888 66.4536V64.2629V53.6741L791.602 52.9438C788.316 52.2136 782.839 51.1182 777.362 51.1182C762.757 51.8484 753.264 58.7859 753.264 69.0096Z" fill="black"/>
<defs>
<linearGradient id="paint0_linear_2139_1000" x1="82.8013" y1="-4.07376" x2="82.8013" y2="170.74" gradientUnits="userSpaceOnUse">
<stop stop-color="#008053"/>
<stop offset="0.6" stop-color="#7FCBAE"/>
<stop offset="1" stop-color="#00A76D"/>
</linearGradient>
<linearGradient id="paint1_linear_2139_1000" x1="82.5391" y1="-41.1384" x2="82.5391" y2="155.305" gradientUnits="userSpaceOnUse">
<stop stop-color="#00A76D"/>
<stop offset="0.3" stop-color="#7FCBAE"/>
<stop offset="0.55" stop-color="#00A76D"/>
<stop offset="0.8352" stop-color="#008053"/>
<stop offset="0.8691" stop-color="#008558"/>
<stop offset="0.9244" stop-color="#009264"/>
<stop offset="0.9939" stop-color="#00A97A"/>
<stop offset="1" stop-color="#00AD7D"/>
</linearGradient>
<linearGradient id="paint2_linear_2139_1000" x1="114.006" y1="144.457" x2="114.006" y2="17.3346" gradientUnits="userSpaceOnUse">
<stop stop-color="#00B387"/>
<stop offset="1" stop-color="#00A76D"/>
</linearGradient>
<linearGradient id="paint3_linear_2139_1000" x1="35.1357" y1="144.465" x2="35.1357" y2="17.3045" gradientUnits="userSpaceOnUse">
<stop stop-color="#00B387"/>
<stop offset="1" stop-color="#00A76D"/>
</linearGradient>
<linearGradient id="paint4_linear_2139_1000" x1="59.7028" y1="144.435" x2="59.7028" y2="17.3582" gradientUnits="userSpaceOnUse">
<stop stop-color="#00B387"/>
<stop offset="1" stop-color="#00A76D"/>
</linearGradient>
<linearGradient id="paint5_linear_2139_1000" x1="80.9457" y1="144.454" x2="80.9457" y2="17.3339" gradientUnits="userSpaceOnUse">
<stop stop-color="#00B387"/>
<stop offset="1" stop-color="#00A76D"/>
</linearGradient>
</defs>
</svg>
