<svg width="500" height="350" viewBox="0 0 500 350" fill="none" xmlns="http://www.w3.org/2000/svg">
<rect width="500" height="350" rx="15" fill="#008250"/>
<path d="M64.0395 240.404C71.675 240.404 74.3844 241.881 74.3844 246.069C74.3844 247.3 74.1381 248.285 73.3992 249.024C71.9213 250.748 69.2119 251.734 65.5173 251.487H65.271L63.0543 256.906H65.271C69.4583 256.906 73.1529 258.138 74.877 260.354C75.6159 261.339 76.1085 262.571 76.1085 263.803C76.1085 267.99 72.4139 270.206 65.0247 270.206C63.7932 270.206 61.8227 270.206 60.5912 270.206C60.3449 264.541 60.3449 256.66 60.3449 254.443C60.3449 251.734 60.5912 245.822 60.5912 240.65C61.3301 240.404 62.808 240.404 64.0395 240.404ZM50.2463 236.463C50.4926 240.404 50.7389 250.748 50.7389 254.443C50.7389 257.891 50.7389 269.468 50.2463 274.394V274.886H67.9804C76.8475 274.886 86.2071 272.177 86.2071 264.295C86.2071 259.369 82.5125 255.674 75.8622 253.704C80.7884 252.472 84.2367 249.024 84.2367 245.083C84.2367 238.679 76.8475 236.216 69.9509 235.97H50L50.2463 236.463Z" fill="black"/>
<path d="M127.832 235.97H118.965L119.211 245.822C119.458 250.748 119.458 255.674 119.95 260.354C119.458 258.876 118.965 258.138 116.256 254.197C116.256 253.95 107.142 239.911 103.94 235.97H93.8418V236.463C94.0881 240.404 94.3344 250.748 94.3344 254.443C94.3344 257.891 94.3344 269.468 93.8418 274.394V274.886H102.955V274.394C102.463 265.034 102.463 255.428 102.463 246.069C102.709 247.3 103.201 248.039 104.679 250.256C104.679 250.502 120.443 273.162 121.182 274.64V274.886H128.571V274.394C128.078 269.468 128.078 257.891 128.078 254.443C128.078 250.748 128.325 240.404 128.571 236.463V236.216H127.832V235.97Z" fill="black"/>
<path d="M151.724 240.65C156.897 240.65 160.345 241.635 162.069 243.605C162.808 244.591 163.301 245.822 163.301 247.054C163.301 252.719 156.897 253.95 151.724 253.95H149.508C149.508 253.95 149.015 253.95 148.522 253.95C148.522 252.719 148.522 250.995 148.522 249.024C148.522 246.561 148.522 243.605 148.522 240.896C149.261 240.896 150.493 240.65 151.724 240.65ZM138.424 236.463C138.67 240.404 138.916 250.748 138.916 254.443C138.916 257.891 138.916 269.468 138.424 274.394V274.886H149.261V274.394C149.015 270.699 148.769 264.049 148.769 258.876C149.261 258.876 150.739 258.876 150.739 258.876H152.217C166.503 258.876 173.399 255.182 173.399 247.3C173.399 238.187 163.793 236.216 155.665 235.97H138.67V236.463" fill="black"/>
<path d="M207.142 240.65C212.315 240.65 215.763 241.635 217.487 243.605C218.226 244.591 218.719 245.822 218.719 247.054C218.719 252.719 212.315 253.95 207.142 253.95H204.926C204.926 253.95 204.433 253.95 203.94 253.95C203.94 252.719 203.94 250.995 203.94 249.024C203.94 246.561 203.94 243.605 203.94 240.896C204.679 240.896 205.911 240.65 207.142 240.65ZM193.842 236.463C194.088 240.404 194.334 250.748 194.334 254.443C194.334 257.891 194.334 269.468 193.842 274.394V274.886H204.679V274.394C204.433 270.699 204.187 264.049 204.187 258.876C204.679 258.876 206.157 258.876 206.157 258.876H207.635C221.921 258.876 228.817 255.182 228.817 247.3C228.817 238.187 218.965 236.216 210.837 235.97H193.842V236.463Z" fill="black"/>
<path d="M245.812 247.546C246.551 249.517 249.014 254.443 251.477 260.601C250.985 260.601 250.492 260.601 250.492 260.601H245.812C245.812 260.601 240.886 260.601 240.147 260.601C242.118 255.674 244.088 251.241 245.812 247.546ZM243.103 235.97C240.886 241.635 227.832 269.96 225.862 274.394L225.615 274.886H234.729V274.64C235.468 271.931 236.699 268.975 237.931 265.773C238.423 265.773 245.566 265.773 245.566 265.773H251.97C251.97 265.773 252.955 265.773 253.202 265.773C254.926 269.96 256.157 273.162 256.65 274.64V274.886H267.241L250 235.97H250.246H243.103Z" fill="black"/>
<path d="M271.924 236.463C272.17 240.404 272.416 250.748 272.416 254.443C272.416 257.891 272.416 269.468 271.924 274.394V274.886H282.761V274.394C282.269 269.468 282.022 257.891 282.022 254.443C282.022 251.734 282.022 245.822 282.269 240.896C283.008 240.896 284.239 240.65 285.224 240.65C290.151 240.65 293.845 241.635 295.569 243.605C296.308 244.591 296.801 245.822 296.801 247.054C296.801 251.487 292.614 253.704 288.673 253.95C287.441 253.95 286.456 253.95 286.456 253.95L285.717 253.704L286.21 254.443C290.151 260.108 295.816 269.714 298.279 274.394V274.64H309.855L309.609 274.147C309.116 273.408 301.481 262.325 298.279 257.645L298.032 257.399C303.944 255.674 306.899 252.226 306.899 247.3C306.899 238.433 297.293 236.216 288.919 235.97H271.924V236.463Z" fill="black"/>
<path d="M325.124 235.97H314.779V236.216C315.026 240.157 315.272 250.502 315.272 254.197C315.272 257.645 315.272 269.221 314.779 274.147V274.64H325.617V274.147C325.124 269.221 325.124 257.645 325.124 254.197C325.124 250.502 325.371 240.157 325.617 236.216V235.97H325.124Z" fill="black"/>
<path d="M349.016 240.404C356.651 240.404 359.361 241.881 359.361 246.069C359.361 247.3 359.114 248.285 358.375 249.024C356.898 250.748 354.188 251.734 350.494 251.487H350.247L348.277 256.906H350.247C354.435 256.906 357.883 258.138 359.853 260.354C360.839 261.339 361.085 262.571 361.085 263.803C361.085 267.99 357.39 270.206 349.755 270.206C348.523 270.206 346.553 270.206 345.321 270.206C345.075 264.541 345.075 256.66 345.075 254.443C345.075 251.734 345.075 245.822 345.321 240.65C346.306 240.404 347.784 240.404 349.016 240.404ZM335.223 236.463C335.469 240.404 335.715 250.748 335.715 254.443C335.715 257.891 335.715 269.468 335.223 274.394V274.886H353.203C362.07 274.886 371.43 272.177 371.43 264.295C371.43 259.369 367.735 255.674 361.085 253.704C366.011 252.472 369.459 249.024 369.459 245.083C369.459 238.679 362.07 236.216 355.174 235.97H335.223V236.463Z" fill="black"/>
<path d="M393.351 247.3C394.336 249.024 396.553 254.197 399.016 260.354C398.524 260.354 398.277 260.354 398.277 260.354H393.598C393.598 260.354 388.671 260.354 387.932 260.354C389.657 255.674 391.627 251.241 393.351 247.3ZM397.785 235.97H390.642V236.216C388.425 242.128 374.878 271.931 373.647 274.394L373.4 274.886H382.76V274.64C383.499 271.931 384.484 268.975 385.716 265.773C385.962 265.773 393.351 265.773 393.351 265.773H399.755H400.987C402.711 269.96 403.942 273.162 404.435 274.64V274.886H415.026L397.785 235.97Z" fill="black"/>
<path d="M418.473 246.069C418.473 252.966 425.369 255.675 431.281 258.138C435.96 260.108 440.887 262.079 440.887 265.281C440.887 266.266 440.64 267.005 440.148 267.744C438.916 268.975 436.699 269.714 433.005 269.468C429.31 269.222 425.369 268.236 420.689 266.02L418.965 265.035V266.512V273.409L420.197 273.655H420.936C423.152 274.148 427.586 275.133 431.773 275.133C443.103 275.133 450 270.7 450 263.064C450 255.921 443.103 253.212 436.699 250.749C432.02 248.778 427.34 247.054 427.34 244.099C427.34 243.113 427.34 240.65 433.251 240.65C437.685 240.65 441.872 242.374 444.335 243.36L446.552 244.345V242.867V235.724L444.335 235.232C442.118 234.739 438.424 234 434.729 234C424.877 234.493 418.473 239.172 418.473 246.069Z" fill="black"/>
<path d="M296.221 90.9998C286.11 96.7775 282.86 97.4997 272.027 104L272.388 102.916C278.166 96.7775 280.694 93.8886 284.305 88.472C274.194 89.1942 259.388 90.2776 248.916 92.4442L249.638 91.3609C259.388 86.6665 277.083 81.9721 286.11 80.8888C283.944 77.6388 265.888 67.8889 261.555 66.0833L261.916 65C275.638 66.4444 293.694 72.9444 301.277 77.6388C304.527 76.5555 308.138 76.5555 314.277 75.8332C314.277 75.8332 313.194 79.4443 306.694 84.1387C308.499 88.472 304.527 113.388 300.916 119.888C300.916 109.777 300.194 96.7775 296.221 90.9998Z" fill="url(#paint0_linear_2139_1278)"/>
<path d="M222.194 179.834L222.555 178.75C217.139 176.584 211.722 175.139 207.389 170.806C208.833 166.834 210.278 163.945 212.805 160.334L213.167 159.25C208.472 159.973 204.5 161.778 200.528 162.5C197.278 157.084 196.194 149.501 194.389 142.278V143.001C193.667 151.306 193.306 157.084 194.389 163.584C191.139 164.667 188.25 164.667 185.361 165.75L185 166.834C189.333 169.362 192.583 171.528 197.639 173.695C200.167 179.111 203.056 183.084 207.389 187.417L207.75 186.334C207.028 183.084 205.944 180.556 206.306 176.945C211.722 178.75 216.055 179.473 222.194 179.834Z" fill="url(#paint1_linear_2139_1278)"/>
<path d="M237.358 97.4996C237.358 97.4996 235.192 101.472 233.386 106.527H233.025C245.664 108.333 257.58 113.388 260.469 115.194L260.108 116.277C247.108 114.111 240.247 114.111 235.192 114.833C230.497 115.194 229.414 115.916 229.414 115.916C226.525 122.055 225.08 132.166 224.358 135.777L223.997 136.86C221.469 131.083 218.219 119.527 218.219 119.527C211.719 123.138 196.553 137.221 196.553 137.221C204.858 120.611 213.525 113.027 213.525 113.027C210.636 110.138 203.053 108.694 197.275 108.333L197.636 107.25C201.247 106.166 208.469 105.805 213.164 105.444C218.942 105.444 222.192 105.444 222.192 105.444C226.886 101.472 234.469 97.8607 237.358 97.4996Z" fill="url(#paint2_linear_2139_1278)"/>
<path d="M253.247 169.362C250.719 172.973 248.191 175.862 245.302 179.112C240.969 180.195 235.913 179.834 231.941 179.834L231.58 180.917C234.469 182.362 237.358 183.445 240.608 184.167C238.08 186.334 234.83 188.139 232.302 189.945L231.941 191.028C236.997 189.945 243.858 187.778 248.913 184.528C251.441 184.528 253.969 184.528 255.774 184.167L256.136 183.084C255.774 182 254.691 181.278 254.33 179.473C259.024 175.862 262.274 172.612 266.247 168.639L266.969 167.556C262.997 170.084 258.302 174.056 253.969 176.223C253.608 173.695 253.247 171.889 253.247 169.362Z" fill="url(#paint3_linear_2139_1278)"/>
<path d="M296.944 89.9165C286.833 95.6942 283.583 96.4164 272.75 102.916C279.25 96.0553 281.417 93.1664 285.389 87.0276C275.278 87.3887 260.472 88.8331 250 90.9998C259.028 85.9443 277.444 80.5276 286.833 79.4443C284.667 76.5555 266.611 67.1666 261.917 65C276 66.0833 293.694 71.4999 302 76.5555C305.25 75.4721 308.861 75.4721 315 74.7499C313.555 77.6388 313.555 79.4443 307.417 83.4165C309.222 87.7498 305.25 112.666 301.639 119.166C301.639 108.694 300.555 95.6942 296.944 89.9165Z" fill="white"/>
<path d="M222.917 178.748C217.139 176.582 212.806 174.054 208.473 169.721C209.917 165.748 211.361 162.859 213.889 159.248C209.195 159.971 205.584 160.332 201.612 161.415C198 155.276 196.556 149.498 195.112 141.915C194.028 150.221 194.028 155.998 195.112 162.498C191.5 163.582 188.612 164.304 185.723 165.748C190.056 168.276 193.667 170.443 198.362 172.609C200.889 178.026 203.778 181.998 208.111 186.332C207.028 182.72 206.667 179.832 207.389 175.859C212.084 177.665 216.778 178.387 222.917 178.748Z" fill="white"/>
<path d="M238.085 96.4171C236.279 98.9449 234.112 103.278 233.751 105.084C248.557 107.25 260.834 114.834 260.834 114.834C247.835 112.667 240.973 112.667 235.918 113.389C231.223 113.75 230.14 114.473 230.14 114.473C226.529 122.056 224.362 135.417 224.362 135.417C221.835 129.639 218.585 118.084 218.585 118.084C212.085 121.695 196.918 135.778 196.918 135.778C205.224 119.167 213.89 111.584 213.89 111.584C211.001 108.695 203.418 107.25 197.64 106.889C200.529 105.806 208.112 104.362 213.89 104C219.668 104 222.918 104 222.918 104C227.612 100.389 235.196 96.7783 238.085 96.4171Z" fill="white"/>
<path d="M253.971 168.278C251.443 171.889 248.916 174.778 246.027 178.028C240.971 179.473 236.999 179.834 231.943 179.834C234.832 181.278 237.721 182.362 240.971 183.084C237.721 185.973 235.193 187.778 231.943 189.945C236.999 188.861 243.86 186.695 248.916 183.445C251.443 183.445 253.971 183.445 255.777 183.084C255.416 181.639 255.054 180.556 254.693 178.389C259.388 174.778 262.999 171.528 266.61 167.556C262.277 170.445 258.666 172.612 253.971 174.778C253.971 172.612 253.971 170.806 253.971 168.278Z" fill="white"/>
<defs>
<linearGradient id="paint0_linear_2139_1278" x1="281.862" y1="189.81" x2="281.862" y2="64.0882" gradientUnits="userSpaceOnUse">
<stop stop-color="#00B387"/>
<stop offset="1" stop-color="#00A76D"/>
</linearGradient>
<linearGradient id="paint1_linear_2139_1278" x1="203.859" y1="189.818" x2="203.859" y2="64.0584" gradientUnits="userSpaceOnUse">
<stop stop-color="#00B387"/>
<stop offset="1" stop-color="#00A76D"/>
</linearGradient>
<linearGradient id="paint2_linear_2139_1278" x1="228.156" y1="189.788" x2="228.156" y2="64.1116" gradientUnits="userSpaceOnUse">
<stop stop-color="#00B387"/>
<stop offset="1" stop-color="#00A76D"/>
</linearGradient>
<linearGradient id="paint3_linear_2139_1278" x1="249.164" y1="189.808" x2="249.164" y2="64.0875" gradientUnits="userSpaceOnUse">
<stop stop-color="#00B387"/>
<stop offset="1" stop-color="#00A76D"/>
</linearGradient>
</defs>
</svg>
