<svg width="180" height="180" viewBox="0 0 180 180" fill="none" xmlns="http://www.w3.org/2000/svg">
<rect width="180" height="180" rx="15" fill="black"/>
<path d="M42.1868 144.759V137.456C42.1868 134.662 40.3854 132.833 37.2929 132.833C35.7467 132.833 34.0653 133.315 32.9094 134.903C32.0087 133.57 30.7177 132.833 28.7811 132.833C27.4901 132.833 26.1991 133.202 25.1782 134.535V133.074H22.4761V144.759H25.1782V138.307C25.1782 136.236 26.3342 135.258 28.1356 135.258C29.937 135.258 30.8378 136.35 30.8378 138.307V144.759H33.5399V138.307C33.5399 136.236 34.831 135.258 36.4973 135.258C38.2987 135.258 39.1995 136.35 39.1995 138.307V144.759H42.1868ZM82.2689 133.074H77.8854V129.543H75.1832V133.074H72.7363V135.386H75.1832V140.746C75.1832 143.426 76.3392 145 79.4316 145C80.5876 145 81.8786 144.631 82.7793 144.149L81.9987 141.951C81.2181 142.433 80.3173 142.561 79.6718 142.561C78.3808 142.561 77.8704 141.824 77.8704 140.618V135.386H82.2539V133.074H82.2689ZM105.207 132.819C103.661 132.819 102.625 133.556 101.98 134.521V133.06H99.2775V144.745H101.98V138.165C101.98 136.222 102.88 135.116 104.562 135.116C105.072 135.116 105.718 135.244 106.243 135.357L107.024 132.918C106.483 132.819 105.718 132.819 105.207 132.819ZM70.5445 134.038C69.2535 133.188 67.4521 132.819 65.5155 132.819C62.423 132.819 60.3664 134.279 60.3664 136.591C60.3664 138.534 61.9126 139.64 64.6148 139.994L65.9058 140.122C67.3169 140.363 68.0976 140.732 68.0976 141.341C68.0976 142.192 67.0617 142.802 65.2603 142.802C63.4589 142.802 62.0327 142.192 61.132 141.583L59.841 143.525C61.2521 144.504 63.1886 144.986 65.1252 144.986C68.7281 144.986 70.7997 143.398 70.7997 141.214C70.7997 139.143 69.1184 138.052 66.5513 137.683L65.2603 137.555C64.1044 137.428 63.2037 137.187 63.2037 136.463C63.2037 135.612 64.1044 135.13 65.5305 135.13C67.0768 135.13 68.623 135.74 69.4036 136.109L70.5445 134.038ZM142.437 132.819C140.891 132.819 139.855 133.556 139.209 134.521V133.06H136.507V144.745H139.209V138.165C139.209 136.222 140.11 135.116 141.792 135.116C142.302 135.116 142.947 135.244 143.473 135.357L144.253 132.946C143.728 132.819 142.962 132.819 142.437 132.819ZM107.909 138.917C107.909 142.448 110.491 145 114.485 145C116.286 145 117.577 144.631 118.868 143.667L117.577 141.597C116.541 142.334 115.521 142.689 114.35 142.689C112.158 142.689 110.612 141.228 110.612 138.917C110.612 136.719 112.158 135.258 114.35 135.144C115.505 135.144 116.541 135.513 117.577 136.236L118.868 134.166C117.577 133.188 116.286 132.833 114.485 132.833C110.491 132.819 107.909 135.386 107.909 138.917ZM132.904 138.917V133.074H130.202V134.535C129.302 133.443 128.01 132.833 126.329 132.833C122.846 132.833 120.144 135.386 120.144 138.917C120.144 142.448 122.846 145 126.329 145C128.131 145 129.422 144.39 130.202 143.298V144.759H132.904V138.917ZM122.981 138.917C122.981 136.846 124.393 135.144 126.719 135.144C128.911 135.144 130.457 136.733 130.457 138.917C130.457 140.987 128.911 142.689 126.719 142.689C124.408 142.561 122.981 140.973 122.981 138.917ZM90.6456 132.819C87.0427 132.819 84.4607 135.258 84.4607 138.902C84.4607 142.561 87.0427 144.986 90.7807 144.986C92.5822 144.986 94.3836 144.504 95.8097 143.398L94.5187 141.568C93.4829 142.306 92.1918 142.788 90.9158 142.788C89.2345 142.788 87.5681 142.051 87.1778 139.994H96.3202C96.3202 139.626 96.3202 139.385 96.3202 139.016C96.4402 135.258 94.1134 132.819 90.6456 132.819ZM90.6456 135.017C92.327 135.017 93.4829 135.995 93.7381 137.81H87.2979C87.5531 136.236 88.7091 135.017 90.6456 135.017ZM157.779 138.917V128.451H155.077V134.535C154.176 133.443 152.885 132.833 151.204 132.833C147.721 132.833 145.019 135.386 145.019 138.917C145.019 142.448 147.721 145 151.204 145C153.005 145 154.297 144.39 155.077 143.298V144.759H157.779V138.917ZM147.856 138.917C147.856 136.846 149.268 135.144 151.594 135.144C153.786 135.144 155.332 136.733 155.332 138.917C155.332 140.987 153.786 142.689 151.594 142.689C149.268 142.561 147.856 140.973 147.856 138.917ZM57.394 138.917V133.074H54.6918V134.535C53.7911 133.443 52.5001 132.833 50.8187 132.833C47.336 132.833 44.6338 135.386 44.6338 138.917C44.6338 142.448 47.336 145 50.8187 145C52.6202 145 53.9112 144.39 54.6918 143.298V144.759H57.394V138.917ZM47.351 138.917C47.351 136.846 48.7621 135.144 51.089 135.144C53.2807 135.144 54.827 136.733 54.827 138.917C54.827 140.987 53.2807 142.689 51.089 142.689C48.7621 142.561 47.351 140.973 47.351 138.917Z" fill="white"/>
<path d="M110.236 44.3735H69.6436V113.264H110.236V44.3735Z" fill="#FF5A00"/>
<path d="M72.3459 78.8185C72.3459 64.8221 79.3114 52.3998 90 44.3735C82.1337 38.531 72.2108 35 61.3871 35C35.7466 35 15 54.5978 15 78.8185C15 103.039 35.7466 122.637 61.3871 122.637C72.2108 122.637 82.1337 119.106 90 113.264C79.2964 105.351 72.3459 92.8149 72.3459 78.8185Z" fill="#EB001B"/>
<path d="M165 78.8185C165 103.039 144.253 122.637 118.613 122.637C107.789 122.637 97.8663 119.106 90 113.264C100.824 105.223 107.654 92.8149 107.654 78.8185C107.654 64.8221 100.689 52.3998 90 44.3735C97.8513 38.531 107.774 35 118.598 35C144.253 35 165 54.7254 165 78.8185Z" fill="#F79E1B"/>
</svg>
