<svg width="250" height="194" viewBox="0 0 250 194" fill="none" xmlns="http://www.w3.org/2000/svg">
<path d="M45.3112 193.5V180.625C45.3112 175.7 42.3088 172.475 37.1547 172.475C34.5777 172.475 31.7754 173.325 29.8489 176.125C28.3477 173.775 26.196 172.475 22.9684 172.475C20.8166 172.475 18.6649 173.125 16.9636 175.475V172.9H12.46V193.5H16.9636V182.125C16.9636 178.475 18.8901 176.75 21.8925 176.75C24.8949 176.75 26.3961 178.675 26.3961 182.125V193.5H30.8997V182.125C30.8997 178.475 33.0514 176.75 35.8287 176.75C38.8311 176.75 40.3323 178.675 40.3323 182.125V193.5H45.3112ZM112.115 172.9H104.809V166.675H100.305V172.9H96.227V176.975H100.305V186.425C100.305 191.15 102.232 193.925 107.386 193.925C109.312 193.925 111.464 193.275 112.965 192.425L111.664 188.55C110.363 189.4 108.862 189.625 107.786 189.625C105.634 189.625 104.784 188.325 104.784 186.2V176.975H112.09V172.9H112.115ZM150.345 172.45C147.768 172.45 146.042 173.75 144.966 175.45V172.875H140.462V193.475H144.966V181.875C144.966 178.45 146.467 176.5 149.269 176.5C150.12 176.5 151.196 176.725 152.072 176.925L153.373 172.625C152.472 172.45 151.196 172.45 150.345 172.45ZM92.5741 174.6C90.4223 173.1 87.4199 172.45 84.1923 172.45C79.0382 172.45 75.6105 175.025 75.6105 179.1C75.6105 182.525 78.1875 184.475 82.6911 185.1L84.8429 185.325C87.1947 185.75 88.4958 186.4 88.4958 187.475C88.4958 188.975 86.7694 190.05 83.767 190.05C80.7646 190.05 78.3877 188.975 76.8865 187.9L74.7348 191.325C77.0867 193.05 80.3142 193.9 83.5418 193.9C89.5466 193.9 92.9994 191.1 92.9994 187.25C92.9994 183.6 90.1972 181.675 85.9187 181.025L83.767 180.8C81.8405 180.575 80.3393 180.15 80.3393 178.875C80.3393 177.375 81.8405 176.525 84.2174 176.525C86.7944 176.525 89.3715 177.6 90.6725 178.25L92.5741 174.6ZM212.395 172.45C209.818 172.45 208.091 173.75 207.016 175.45V172.875H202.512V193.475H207.016V181.875C207.016 178.45 208.517 176.5 211.319 176.5C212.17 176.5 213.246 176.725 214.121 176.925L215.422 172.675C214.547 172.45 213.271 172.45 212.395 172.45ZM154.849 183.2C154.849 189.425 159.152 193.925 165.808 193.925C168.81 193.925 170.962 193.275 173.113 191.575L170.962 187.925C169.235 189.225 167.534 189.85 165.582 189.85C161.93 189.85 159.352 187.275 159.352 183.2C159.352 179.325 161.93 176.75 165.582 176.55C167.509 176.55 169.235 177.2 170.962 178.475L173.113 174.825C170.962 173.1 168.81 172.475 165.808 172.475C159.152 172.45 154.849 176.975 154.849 183.2ZM196.507 183.2V172.9H192.004V175.475C190.502 173.55 188.351 172.475 185.548 172.475C179.744 172.475 175.24 176.975 175.24 183.2C175.24 189.425 179.744 193.925 185.548 193.925C188.551 193.925 190.703 192.85 192.004 190.925V193.5H196.507V183.2ZM179.969 183.2C179.969 179.55 182.321 176.55 186.199 176.55C189.852 176.55 192.429 179.35 192.429 183.2C192.429 186.85 189.852 189.85 186.199 189.85C182.346 189.625 179.969 186.825 179.969 183.2ZM126.076 172.45C120.071 172.45 115.768 176.75 115.768 183.175C115.768 189.625 120.071 193.9 126.301 193.9C129.303 193.9 132.306 193.05 134.683 191.1L132.531 187.875C130.805 189.175 128.653 190.025 126.526 190.025C123.724 190.025 120.947 188.725 120.296 185.1H135.533C135.533 184.45 135.533 184.025 135.533 183.375C135.734 176.75 131.855 172.45 126.076 172.45ZM126.076 176.325C128.878 176.325 130.805 178.05 131.23 181.25H120.496C120.922 178.475 122.848 176.325 126.076 176.325ZM237.965 183.2V164.75H233.462V175.475C231.961 173.55 229.809 172.475 227.007 172.475C221.202 172.475 216.698 176.975 216.698 183.2C216.698 189.425 221.202 193.925 227.007 193.925C230.009 193.925 232.161 192.85 233.462 190.925V193.5H237.965V183.2ZM221.427 183.2C221.427 179.55 223.779 176.55 227.657 176.55C231.31 176.55 233.887 179.35 233.887 183.2C233.887 186.85 231.31 189.85 227.657 189.85C223.779 189.625 221.427 186.825 221.427 183.2ZM70.6565 183.2V172.9H66.1529V175.475C64.6517 173.55 62.5 172.475 59.6978 172.475C53.8931 172.475 49.3895 176.975 49.3895 183.2C49.3895 189.425 53.8931 193.925 59.6978 193.925C62.7002 193.925 64.8519 192.85 66.1529 190.925V193.5H70.6565V183.2ZM53.9181 183.2C53.9181 179.55 56.27 176.55 60.1481 176.55C63.801 176.55 66.3781 179.35 66.3781 183.2C66.3781 186.85 63.801 189.85 60.1481 189.85C56.27 189.625 53.9181 186.825 53.9181 183.2Z" fill="black"/>
<path d="M158.727 16.5249H91.0728V137.975H158.727V16.5249Z" fill="#FF5A00"/>
<path d="M95.5765 77.25C95.5765 52.575 107.186 30.675 125 16.525C111.89 6.225 95.3513 0 77.3118 0C34.5777 0 0 34.55 0 77.25C0 119.95 34.5777 154.5 77.3118 154.5C95.3513 154.5 111.89 148.275 125 137.975C107.161 124.025 95.5765 101.925 95.5765 77.25Z" fill="#EB001B"/>
<path d="M250 77.25C250 119.95 215.422 154.5 172.688 154.5C154.649 154.5 138.11 148.275 125 137.975C143.039 123.8 154.424 101.925 154.424 77.25C154.424 52.575 142.814 30.675 125 16.525C138.085 6.225 154.624 0 172.663 0C215.422 0 250 34.775 250 77.25Z" fill="#F79E1B"/>
</svg>
