<svg width="180" height="180" viewBox="0 0 180 180" fill="none" xmlns="http://www.w3.org/2000/svg">
<rect width="180" height="180" rx="15" fill="black"/>
<path d="M110.236 55.3735H69.6436V124.264H110.236V55.3735Z" fill="#FF5A00"/>
<path d="M72.3459 89.8185C72.3459 75.8221 79.3114 63.3998 90 55.3735C82.1337 49.531 72.2108 46 61.3871 46C35.7466 46 15 65.5978 15 89.8185C15 114.039 35.7466 133.637 61.3871 133.637C72.2108 133.637 82.1337 130.106 90 124.264C79.2964 116.351 72.3459 103.815 72.3459 89.8185Z" fill="#EB001B"/>
<path d="M165 89.8185C165 114.039 144.253 133.637 118.613 133.637C107.789 133.637 97.8663 130.106 90 124.264C100.824 116.223 107.654 103.815 107.654 89.8185C107.654 75.8221 100.689 63.3998 90 55.3735C97.8513 49.531 107.774 46 118.598 46C144.253 46 165 65.7254 165 89.8185Z" fill="#F79E1B"/>
</svg>
