<svg width="180" height="180" viewBox="0 0 180 180" fill="none" xmlns="http://www.w3.org/2000/svg">
<circle cx="90" cy="90" r="90" fill="#F0FF5F"/>
<path fill-rule="evenodd" clip-rule="evenodd" d="M122.66 128.239C119.726 128.239 117.389 129.464 115.901 131.78L115.692 132.104L115.489 131.777C114.047 129.463 111.804 128.239 109.003 128.239C106.322 128.239 104.141 129.363 102.693 131.489L102.498 131.75L101.296 128.832L94.5579 128.822L96.3662 133.213V152.408H102.921V138.791C102.921 135.865 104.333 134.117 106.698 134.117C109.034 134.117 110.429 135.865 110.429 138.791V152.408H116.983V138.791C116.983 135.865 118.395 134.117 120.76 134.117C123.096 134.117 124.492 135.865 124.492 138.791V152.408H131.045V137.802C131.045 131.992 127.754 128.239 122.66 128.239ZM150.317 138.174L150.255 137.845C149.747 135.17 147.914 133.574 145.352 133.574C142.762 133.574 140.912 135.17 140.405 137.844L140.343 138.174H150.317ZM156 137.339V143.263H140.492L140.591 143.617C141.09 145.388 142.273 146.619 144.012 147.228C145.451 147.684 147.381 147.663 148.826 147.18C150.138 146.741 150.911 146.269 150.911 146.269L154.327 150.46C152.158 152.053 149.237 153 146.482 153C139.195 153 134.298 148.024 134.298 140.62C134.298 133.446 138.947 128.239 145.352 128.239C150.889 128.239 154.768 131.554 156 137.339ZM86.1256 140.619C86.1256 137.224 83.909 134.76 80.8566 134.76C77.8033 134.76 75.5868 137.224 75.5868 140.62C75.5868 144.015 77.8033 146.479 80.8566 146.479C83.909 146.479 86.1256 144.014 86.1256 140.619ZM92.679 140.619C92.679 144.121 91.4129 147.31 89.1156 149.599C86.9128 151.792 83.9796 153 80.8566 153C77.7327 153 74.7996 151.792 72.5968 149.599C70.2985 147.31 69.0334 144.121 69.0334 140.62C69.0334 137.117 70.2995 133.928 72.5968 131.639C74.7996 129.447 77.7327 128.239 80.8566 128.239C83.9796 128.239 86.9118 129.447 89.1156 131.639C91.4138 133.928 92.679 137.117 92.679 140.619ZM61.2542 123H54.6999V128.833H51.5806V134.712H54.6999V144.624C54.6999 150.08 57.0596 152.409 62.5901 152.409H65.7305V146.522L63.8552 146.491C62.0809 146.491 61.2542 145.473 61.2542 143.288V134.71H65.8186L68.2177 128.831H61.2542V123ZM41.0922 140.372C40.9528 137.115 38.7371 134.76 35.8233 134.76C32.77 134.76 30.5534 137.224 30.5534 140.62C30.5534 144.015 32.77 146.479 35.8233 146.479C38.7389 146.479 40.9546 144.124 41.0922 140.879V140.372ZM47.6456 147.279L48.9245 152.408H43.0216L42.184 149.123L41.8803 149.478C39.9353 151.75 37.3022 153 34.4673 153C31.7094 153 29.1167 151.796 27.168 149.611C25.1248 147.32 24 144.127 24 140.62C24 137.112 25.1248 133.919 27.168 131.628C29.1167 129.443 31.7094 128.239 34.4663 128.239C37.1701 128.239 39.6922 129.369 41.5693 131.42L41.9968 131.888V128.832H47.6456V147.279Z" fill="black"/>
<path fill-rule="evenodd" clip-rule="evenodd" d="M145 120H125.251L113.972 98.4705C106.434 104.388 98.5954 107.366 90.4978 107.366C90.1774 107.366 89.8571 107.363 89.5367 107.352C80.759 107.1 72.9029 103.3 66.2099 98.1228L54.7511 120H35L90.0025 15L111.2 55.4172C111.2 55.4172 108.6 57.986 105.389 60.4707C103.051 62.2768 97.7526 66.1497 93.174 58.6815L90 52.7053L74.9606 81.4169C79.5712 85.1271 84.6944 87.738 90.0025 87.8811C99.071 88.1222 108.287 81.3271 117.489 67.6584H138.058C134.399 74.3498 130.636 80.2026 126.777 85.2113L145 119.997V120Z" fill="black"/>
</svg>
