<svg width="180" height="180" viewBox="0 0 180 180" fill="none" xmlns="http://www.w3.org/2000/svg">
<circle cx="90" cy="90" r="90" fill="#F0FF5F"/>
<path fill-rule="evenodd" clip-rule="evenodd" d="M125.134 78.9376C121.978 78.9376 119.464 80.3255 117.863 82.9507L117.639 83.3179L117.42 82.9474C115.869 80.3244 113.456 78.9376 110.443 78.9376C107.559 78.9376 105.212 80.211 103.655 82.6206L103.444 82.917L102.151 79.6091L94.9032 79.5979L96.8485 84.5744V106.329H103.899V90.896C103.899 87.5803 105.418 85.5995 107.963 85.5995C110.476 85.5995 111.977 87.5803 111.977 90.896V106.329H119.028V90.896C119.028 87.5803 120.546 85.5995 123.09 85.5995C125.604 85.5995 127.105 87.5803 127.105 90.896V106.329H134.155V89.7754C134.155 83.191 130.614 78.9376 125.134 78.9376ZM154.887 90.1976L154.82 89.8248C154.273 86.7931 152.302 84.9842 149.545 84.9842C146.759 84.9842 144.769 86.7931 144.224 89.8237L144.157 90.1976H154.887ZM161 89.2511V95.9646H144.317L144.424 96.3655C144.961 98.3731 146.233 99.7677 148.103 100.458C149.652 100.975 151.729 100.951 153.283 100.404C154.694 99.9069 155.525 99.3713 155.525 99.3713L159.2 104.121C156.867 105.927 153.724 107 150.761 107C142.922 107 137.654 101.361 137.654 92.9688C137.654 84.8394 142.655 78.9376 149.545 78.9376C155.502 78.9376 159.675 82.6947 161 89.2511ZM85.8321 92.9677C85.8321 89.1208 83.4476 86.3283 80.1639 86.3283C76.8793 86.3283 74.4948 89.1208 74.4948 92.9688C74.4948 96.8168 76.8793 99.6094 80.1639 99.6094C83.4476 99.6094 85.8321 96.8157 85.8321 92.9677ZM92.8819 92.9677C92.8819 96.937 91.5199 100.551 89.0486 103.145C86.6789 105.631 83.5236 107 80.1639 107C76.8033 107 73.648 105.631 71.2783 103.145C68.806 100.551 67.445 96.937 67.445 92.9688C67.445 88.9995 68.807 85.3851 71.2783 82.7913C73.648 80.3064 76.8033 78.9376 80.1639 78.9376C83.5236 78.9376 86.6779 80.3064 89.0486 82.7913C91.5209 85.3851 92.8819 88.9995 92.8819 92.9677ZM59.0765 73H52.0257V79.6102H48.67V86.2732H52.0257V97.5074C52.0257 103.691 54.5642 106.33 60.5136 106.33H63.8919V99.6588L61.8746 99.6229C59.9658 99.6229 59.0765 98.4697 59.0765 95.9927V86.271H63.9867L66.5676 79.608H59.0765V73ZM37.3871 92.6881C37.2371 88.9973 34.8536 86.3283 31.719 86.3283C28.4344 86.3283 26.0499 89.1208 26.0499 92.9688C26.0499 96.8168 28.4344 99.6094 31.719 99.6094C34.8555 99.6094 37.239 96.9404 37.3871 93.263V92.6881ZM44.4369 100.517L45.8128 106.329H39.4627L38.5616 102.606L38.2349 103.008C36.1425 105.583 33.3099 107 30.2602 107C27.2934 107 24.5043 105.636 22.408 103.159C20.21 100.563 19 96.9437 19 92.9688C19 88.9939 20.21 85.375 22.408 82.7789C24.5043 80.3019 27.2934 78.9376 30.2593 78.9376C33.1678 78.9376 35.881 80.2177 37.9003 82.5431L38.3602 83.0731V79.6091H44.4369V100.517Z" fill="black"/>
</svg>
