<svg width="515" height="115" viewBox="0 0 515 115" fill="none" xmlns="http://www.w3.org/2000/svg">
<path fill-rule="evenodd" clip-rule="evenodd" d="M284.97 39.0032C276.496 39.0032 269.746 42.7437 265.448 49.8192L264.846 50.8088L264.258 49.8101C260.095 42.7407 253.616 39.0032 245.525 39.0032C237.782 39.0032 231.48 42.435 227.298 48.9295L226.734 49.7284L223.263 40.8129L203.801 40.7826L209.024 54.1953V112.827H227.956V71.2334C227.956 62.2967 232.034 56.9583 238.866 56.9583C245.615 56.9583 249.643 62.2967 249.643 71.2334V112.827H268.575V71.2334C268.575 62.2967 272.653 56.9583 279.482 56.9583C286.232 56.9583 290.262 62.2967 290.262 71.2334V112.827H309.191V68.2132C309.191 50.4668 299.686 39.0032 284.97 39.0032ZM364.857 69.3511L364.677 68.3463C363.209 60.1753 357.917 55.2999 350.516 55.2999C343.035 55.2999 337.692 60.1753 336.227 68.3433L336.047 69.3511H364.857ZM381.271 66.7999V84.8942H336.478L336.765 85.9746C338.206 91.3857 341.622 95.1443 346.644 97.0055C350.802 98.3976 356.377 98.3341 360.551 96.8603C364.341 95.5196 366.572 94.0761 366.572 94.0761L376.438 106.877C370.173 111.744 361.736 114.637 353.78 114.637C332.731 114.637 318.588 99.4387 318.588 76.82C318.588 54.9095 332.016 39.0032 350.516 39.0032C366.508 39.0032 377.712 49.1292 381.271 66.7999ZM179.445 76.817C179.445 66.4488 173.042 58.9224 164.226 58.9224C155.407 58.9224 149.004 66.4488 149.004 76.82C149.004 87.1912 155.407 94.7176 164.226 94.7176C173.042 94.7176 179.445 87.1882 179.445 76.817ZM198.374 76.817C198.374 87.515 194.717 97.2567 188.081 104.247C181.718 110.948 173.246 114.637 164.226 114.637C155.203 114.637 146.731 110.948 140.368 104.247C133.73 97.2567 130.075 87.515 130.075 76.82C130.075 66.122 133.732 56.3803 140.368 49.3895C146.731 42.6922 155.203 39.0032 164.226 39.0032C173.246 39.0032 181.716 42.6922 188.081 49.3895C194.719 56.3803 198.374 66.122 198.374 76.817ZM107.606 23H88.6743V40.8159H79.6643V58.7741H88.6743V89.0524C88.6743 105.718 95.4901 112.83 111.464 112.83H120.535V94.8508L115.119 94.754C109.994 94.754 107.606 91.6459 107.606 84.9699V58.768H120.79L127.719 40.8099H107.606V23ZM49.3695 76.0634C48.9667 66.1159 42.567 58.9224 34.1506 58.9224C25.3314 58.9224 18.929 66.4488 18.929 76.82C18.929 87.1912 25.3314 94.7176 34.1506 94.7176C42.5723 94.7176 48.972 87.5241 49.3695 77.6129V76.0634ZM68.2985 97.1629L71.9926 112.827H54.9425L52.523 102.795L51.6459 103.878C46.0279 110.818 38.4224 114.637 30.2339 114.637C22.268 114.637 14.7791 110.96 9.15045 104.284C3.2489 97.287 0 87.5332 0 76.82C0 66.1068 3.2489 56.353 9.15045 49.3562C14.7791 42.6801 22.268 39.0032 30.2312 39.0032C38.0408 39.0032 45.3256 42.4532 50.7475 48.7207L51.9824 50.1491V40.8129H68.2985V97.1629Z" fill="black"/>
<path fill-rule="evenodd" clip-rule="evenodd" d="M515 115H493.456L481.152 91.4201C472.928 97.9009 464.377 101.163 455.543 101.163C455.194 101.163 454.844 101.16 454.495 101.148C444.919 100.871 436.349 96.7092 429.047 91.0392L416.547 115H395L455.003 0L478.127 44.2664C478.127 44.2664 475.291 47.0799 471.788 49.8013C469.237 51.7793 463.457 56.0211 458.463 47.8417L455 41.2963L438.593 72.7423C443.623 76.8059 449.212 79.6655 455.003 79.8221C464.896 80.0863 474.95 72.644 484.988 57.6735H507.427C503.435 65.0021 499.33 71.4123 495.12 76.898L515 114.997V115Z" fill="black"/>
</svg>
