<svg width="180" height="180" viewBox="0 0 180 180" fill="none" xmlns="http://www.w3.org/2000/svg">
<rect width="180" height="180" rx="15" fill="#F0FF5F"/>
<path fill-rule="evenodd" clip-rule="evenodd" d="M150 148H128.456L116.152 124.42C107.928 130.901 99.3768 134.163 90.543 134.163C90.1936 134.163 89.8441 134.16 89.4946 134.148C79.9189 133.871 71.3486 129.709 64.0472 124.039L51.5467 148H30L90.0027 33L113.127 77.2664C113.127 77.2664 110.291 80.0799 106.788 82.8013C104.237 84.7793 98.4574 89.0211 93.4625 80.8417L90 74.2963L73.5934 105.742C78.6232 109.806 84.2121 112.665 90.0027 112.822C99.8956 113.086 109.95 105.644 119.988 90.6735H142.427C138.435 98.0021 134.33 104.412 130.12 109.898L150 147.997V148Z" fill="black"/>
</svg>
