<svg width="800" height="150" viewBox="0 0 800 150" fill="none" xmlns="http://www.w3.org/2000/svg">
<rect width="800" height="150" rx="15" fill="white"/>
<rect x="536.8" y="20" width="110" height="110" rx="30" fill="#F0FF5F"/>
<path fill-rule="evenodd" clip-rule="evenodd" d="M628.467 110.444H615.301L607.782 96.0339C602.757 99.9944 597.531 101.988 592.132 101.988C591.919 101.988 591.705 101.986 591.492 101.978C585.64 101.809 580.402 99.2661 575.94 95.8011L568.301 110.444H555.134L591.802 40.166L605.934 67.2177C605.934 67.2177 604.201 68.9371 602.06 70.6001C600.501 71.8089 596.969 74.4011 593.916 69.4026L591.8 65.4026L581.774 84.6197C584.848 87.103 588.263 88.8505 591.802 88.9462C597.848 89.1076 603.992 84.5596 610.126 75.411H623.839C621.4 79.8895 618.891 83.8069 616.318 87.1593L628.467 110.442V110.444Z" fill="black"/>
<path fill-rule="evenodd" clip-rule="evenodd" d="M413.393 48.3496C405.679 48.3496 399.535 51.7621 395.622 58.2171L395.075 59.1199L394.539 58.2088C390.75 51.7593 384.852 48.3496 377.488 48.3496C370.439 48.3496 364.703 51.4805 360.897 57.4054L360.383 58.1343L357.223 50.0006L339.509 49.973L344.263 62.2093V115.699H361.495V77.7532C361.495 69.6003 365.208 64.73 371.426 64.73C377.57 64.73 381.236 69.6003 381.236 77.7532V115.699H398.469V77.7532C398.469 69.6003 402.181 64.73 408.397 64.73C414.541 64.73 418.21 69.6003 418.21 77.7532V115.699H435.44V74.9978C435.44 58.8079 426.787 48.3496 413.393 48.3496ZM486.109 76.0359L485.945 75.1193C484.609 67.6649 479.792 63.2171 473.055 63.2171C466.245 63.2171 461.382 67.6649 460.048 75.1165L459.884 76.0359H486.109ZM501.05 73.7085V90.2159H460.277L460.538 91.2015C461.85 96.138 464.959 99.567 469.53 101.265C473.315 102.535 478.39 102.477 482.189 101.132C485.639 99.9094 487.67 98.5925 487.67 98.5925L496.65 110.271C490.948 114.711 483.268 117.35 476.026 117.35C456.867 117.35 443.993 103.485 443.993 82.8498C443.993 62.8609 456.215 48.3496 473.055 48.3496C487.612 48.3496 497.81 57.5876 501.05 73.7085ZM317.338 82.847C317.338 73.3882 311.511 66.5219 303.486 66.5219C295.458 66.5219 289.63 73.3882 289.63 82.8498C289.63 92.3114 295.458 99.1778 303.486 99.1778C311.511 99.1778 317.338 92.3086 317.338 82.847ZM334.568 82.847C334.568 92.6068 331.24 101.494 325.2 107.872C319.408 113.984 311.696 117.35 303.486 117.35C295.272 117.35 287.561 113.984 281.769 107.872C275.727 101.494 272.4 92.6068 272.4 82.8498C272.4 73.09 275.729 64.2027 281.769 57.825C287.561 51.7152 295.272 48.3496 303.486 48.3496C311.696 48.3496 319.406 51.7152 325.2 57.825C331.242 64.2027 334.568 73.09 334.568 82.847ZM251.948 33.75H234.715V50.0034H226.514V66.3866H234.715V94.0094C234.715 109.214 240.919 115.702 255.46 115.702H263.716V99.2992L258.786 99.2109C254.121 99.2109 251.948 96.3755 251.948 90.2849V66.3811H263.948L270.256 49.9979H251.948V33.75ZM198.938 82.1596C198.572 73.0845 192.746 66.5219 185.085 66.5219C177.058 66.5219 171.23 73.3882 171.23 82.8498C171.23 92.3114 177.058 99.1778 185.085 99.1778C192.751 99.1778 198.576 92.6151 198.938 83.5732V82.1596ZM216.168 101.409L219.531 115.699H204.011L201.809 106.547L201.01 107.535C195.897 113.866 188.974 117.35 181.52 117.35C174.269 117.35 167.453 113.995 162.329 107.905C156.957 101.522 154 92.6234 154 82.8498C154 73.0762 156.957 64.1779 162.329 57.7947C167.453 51.7041 174.269 48.3496 181.518 48.3496C188.626 48.3496 195.257 51.4971 200.193 57.2149L201.317 58.518V50.0006H216.168V101.409Z" fill="black"/>
</svg>
