<svg width="180" height="180" viewBox="0 0 180 180" fill="none" xmlns="http://www.w3.org/2000/svg">
<rect width="180" height="180" rx="15" fill="#F0FF5F"/>
<path fill-rule="evenodd" clip-rule="evenodd" d="M125.134 139.938C121.978 139.938 119.464 141.325 117.863 143.951L117.639 144.318L117.42 143.947C115.869 141.324 113.456 139.938 110.443 139.938C107.559 139.938 105.212 141.211 103.655 143.621L103.444 143.917L102.151 140.609L94.9032 140.598L96.8485 145.574V167.329H103.899V151.896C103.899 148.58 105.418 146.6 107.963 146.6C110.476 146.6 111.977 148.58 111.977 151.896V167.329H119.028V151.896C119.028 148.58 120.546 146.6 123.09 146.6C125.604 146.6 127.105 148.58 127.105 151.896V167.329H134.155V150.775C134.155 144.191 130.614 139.938 125.134 139.938ZM154.887 151.198L154.82 150.825C154.273 147.793 152.302 145.984 149.545 145.984C146.759 145.984 144.769 147.793 144.224 150.824L144.157 151.198H154.887ZM161 150.251V156.965H144.317L144.424 157.365C144.961 159.373 146.233 160.768 148.103 161.458C149.652 161.975 151.729 161.951 153.283 161.404C154.694 160.907 155.525 160.371 155.525 160.371L159.2 165.121C156.867 166.927 153.724 168 150.761 168C142.922 168 137.654 162.361 137.654 153.969C137.654 145.839 142.655 139.938 149.545 139.938C155.502 139.938 159.675 143.695 161 150.251ZM85.8321 153.968C85.8321 150.121 83.4476 147.328 80.1639 147.328C76.8793 147.328 74.4948 150.121 74.4948 153.969C74.4948 157.817 76.8793 160.609 80.1639 160.609C83.4476 160.609 85.8321 157.816 85.8321 153.968ZM92.8819 153.968C92.8819 157.937 91.5199 161.551 89.0486 164.145C86.6789 166.631 83.5236 168 80.1639 168C76.8033 168 73.648 166.631 71.2783 164.145C68.806 161.551 67.445 157.937 67.445 153.969C67.445 150 68.807 146.385 71.2783 143.791C73.648 141.306 76.8033 139.938 80.1639 139.938C83.5236 139.938 86.6779 141.306 89.0486 143.791C91.5209 146.385 92.8819 150 92.8819 153.968ZM59.0765 134H52.0257V140.61H48.67V147.273H52.0257V158.507C52.0257 164.691 54.5642 167.33 60.5136 167.33H63.8919V160.659L61.8746 160.623C59.9658 160.623 59.0765 159.47 59.0765 156.993V147.271H63.9867L66.5676 140.608H59.0765V134ZM37.3871 153.688C37.2371 149.997 34.8536 147.328 31.719 147.328C28.4344 147.328 26.0499 150.121 26.0499 153.969C26.0499 157.817 28.4344 160.609 31.719 160.609C34.8555 160.609 37.239 157.94 37.3871 154.263V153.688ZM44.4369 161.517L45.8128 167.329H39.4627L38.5616 163.606L38.2349 164.008C36.1425 166.583 33.3099 168 30.2602 168C27.2934 168 24.5043 166.636 22.408 164.159C20.21 161.563 19 157.944 19 153.969C19 149.994 20.21 146.375 22.408 143.779C24.5043 141.302 27.2934 139.938 30.2593 139.938C33.1678 139.938 35.881 141.218 37.9003 143.543L38.3602 144.073V140.609H44.4369V161.517Z" fill="black"/>
<path fill-rule="evenodd" clip-rule="evenodd" d="M150 130H128.456L116.152 106.42C107.928 112.901 99.3768 116.163 90.543 116.163C90.1936 116.163 89.8441 116.16 89.4946 116.148C79.9189 115.871 71.3486 111.709 64.0472 106.039L51.5467 130H30L90.0027 15L113.127 59.2664C113.127 59.2664 110.291 62.0799 106.788 64.8013C104.237 66.7793 98.4574 71.0211 93.4625 62.8417L90 56.2963L73.5934 87.7423C78.6232 91.8059 84.2121 94.6655 90.0027 94.8221C99.8956 95.0863 109.95 87.644 119.988 72.6735H142.427C138.435 80.0021 134.33 86.4123 130.12 91.898L150 129.997V130Z" fill="black"/>
</svg>
