<svg width="181" height="180" viewBox="0 0 181 180" fill="none" xmlns="http://www.w3.org/2000/svg">
<rect x="0.936523" width="180" height="180" rx="15" fill="white"/>
<path d="M54.4795 153.978C52.3614 153.978 50.5133 153.61 48.9348 152.874C47.3565 152.139 46.1288 151.035 45.2519 149.564C44.375 148.078 43.9365 146.239 43.9365 144.047C43.9365 143.797 43.9365 143.577 43.9365 143.385C43.9365 143.179 43.9365 142.951 43.9365 142.701H49.2586C49.2586 142.922 49.2586 143.128 49.2586 143.319C49.2586 143.496 49.2586 143.702 49.2586 143.937C49.2586 145.702 49.6971 147.026 50.574 147.909C51.4644 148.777 52.773 149.211 54.4997 149.211C56.24 149.211 57.5688 148.895 58.4863 148.262C59.4171 147.63 59.8825 146.615 59.8825 145.217C59.8825 144.202 59.5655 143.341 58.9314 142.635C58.3108 141.914 57.4543 141.281 56.3615 140.737C55.2688 140.193 54.0275 139.685 52.638 139.214C51.0731 138.685 49.6499 138.001 48.3682 137.162C47.0867 136.323 46.0613 135.264 45.2923 133.984C44.5234 132.704 44.1389 131.13 44.1389 129.262C44.1389 127.393 44.5774 125.804 45.4542 124.495C46.3446 123.186 47.5588 122.192 49.0967 121.516C50.6481 120.824 52.4088 120.479 54.3784 120.479C56.4424 120.479 58.2569 120.832 59.8218 121.538C61.4002 122.244 62.6346 123.296 63.525 124.694C64.4154 126.091 64.8605 127.835 64.8605 129.924C64.8605 130.203 64.8605 130.446 64.8605 130.652C64.8605 130.858 64.8605 131.093 64.8605 131.358H59.5183C59.5183 131.167 59.5183 130.976 59.5183 130.784C59.5183 130.578 59.5183 130.38 59.5183 130.188C59.5183 128.511 59.1001 127.275 58.2636 126.481C57.4272 125.672 56.1592 125.267 54.4593 125.267C52.7999 125.267 51.5251 125.584 50.6347 126.216C49.7443 126.849 49.2991 127.857 49.2991 129.24C49.2991 130.269 49.6026 131.13 50.2097 131.822C50.8168 132.513 51.6464 133.116 52.6987 133.631C53.7644 134.131 54.9719 134.639 56.3209 135.154C58.1152 135.801 59.6666 136.537 60.9753 137.361C62.2839 138.17 63.2956 139.185 64.0107 140.406C64.7257 141.612 65.0832 143.15 65.0832 145.018C65.0832 146.931 64.638 148.557 63.7476 149.895C62.8708 151.219 61.6363 152.234 60.0444 152.941C58.466 153.632 56.6111 153.978 54.4795 153.978Z" fill="black"/>
<path d="M69.8453 143.65V139.523H84.8807L84.2735 140.627C84.2735 140.539 84.2735 140.443 84.2735 140.34C84.2735 140.222 84.2735 140.127 84.2735 140.053C84.2735 139.038 84.0644 138.089 83.6462 137.206C83.228 136.309 82.5939 135.588 81.7441 135.044C80.8941 134.485 79.8149 134.205 78.5063 134.205C77.2112 134.205 76.0847 134.507 75.1269 135.11C74.1826 135.698 73.4473 136.551 72.9211 137.67C72.4085 138.788 72.1522 140.127 72.1522 141.686C72.1522 143.29 72.4018 144.673 72.901 145.835C73.4001 146.982 74.1286 147.865 75.0865 148.483C76.0578 149.086 77.2381 149.388 78.6278 149.388C79.572 149.388 80.3883 149.292 81.0763 149.101C81.7642 148.91 82.3242 148.652 82.7558 148.329C83.2011 147.99 83.5315 147.63 83.7474 147.247C83.9768 146.865 84.1116 146.482 84.1522 146.1H89.454C89.373 147.085 89.0695 148.049 88.5433 148.991C88.0307 149.917 87.309 150.763 86.3781 151.528C85.4473 152.279 84.314 152.882 82.9785 153.338C81.6563 153.779 80.1454 154 78.4456 154C76.1386 154 74.1218 153.485 72.395 152.455C70.6682 151.425 69.3191 149.991 68.3478 148.152C67.3899 146.313 66.9111 144.209 66.9111 141.841C66.9111 139.413 67.3967 137.287 68.3681 135.463C69.3529 133.639 70.7155 132.219 72.4557 131.204C74.1961 130.174 76.1926 129.659 78.4456 129.659C80.7661 129.659 82.7693 130.174 84.4557 131.204C86.1555 132.234 87.4641 133.668 88.3814 135.507C89.2989 137.331 89.7575 139.457 89.7575 141.885C89.7575 142.194 89.7508 142.525 89.7372 142.878C89.7239 143.231 89.7036 143.488 89.6765 143.65H69.8453Z" fill="black"/>
<path d="M102.057 153.934C101.288 153.934 100.506 153.853 99.7097 153.691C98.9137 153.529 98.1852 153.228 97.5242 152.786C96.8631 152.345 96.3303 151.698 95.9255 150.844C95.5208 149.991 95.3184 148.866 95.3184 147.468C95.3184 147.144 95.3184 146.821 95.3184 146.497C95.3184 146.158 95.3184 145.813 95.3184 145.46V134.69H90.2393V130.056H92.3033C93.0049 130.056 93.5579 130.027 93.9626 129.968C94.3673 129.894 94.6642 129.732 94.853 129.482C95.0418 129.232 95.1633 128.842 95.2173 128.313C95.2847 127.768 95.3184 127.018 95.3184 126.062V122.332H100.661V130.056H107.055V134.69H100.661V144.091C100.661 144.371 100.661 144.65 100.661 144.93C100.661 145.195 100.661 145.452 100.661 145.702C100.661 146.791 100.782 147.666 101.025 148.329C101.268 148.991 101.841 149.322 102.745 149.322C103.177 149.322 103.581 149.277 103.959 149.189C104.35 149.101 104.64 149.013 104.829 148.924V153.47C104.573 153.573 104.202 153.676 103.716 153.779C103.231 153.882 102.678 153.934 102.057 153.934Z" fill="black"/>
<path d="M110.778 143.65V139.523H125.813L125.206 140.627C125.206 140.539 125.206 140.443 125.206 140.34C125.206 140.222 125.206 140.127 125.206 140.053C125.206 139.038 124.997 138.089 124.579 137.206C124.161 136.309 123.527 135.588 122.677 135.044C121.827 134.485 120.748 134.205 119.439 134.205C118.144 134.205 117.017 134.507 116.06 135.11C115.115 135.698 114.38 136.551 113.854 137.67C113.341 138.788 113.085 140.127 113.085 141.686C113.085 143.29 113.335 144.673 113.834 145.835C114.333 146.982 115.061 147.865 116.019 148.483C116.991 149.086 118.171 149.388 119.56 149.388C120.505 149.388 121.321 149.292 122.009 149.101C122.697 148.91 123.257 148.652 123.689 148.329C124.134 147.99 124.464 147.63 124.68 147.247C124.91 146.865 125.044 146.482 125.085 146.1H130.387C130.306 147.085 130.002 148.049 129.476 148.991C128.963 149.917 128.242 150.763 127.311 151.528C126.38 152.279 125.247 152.882 123.911 153.338C122.589 153.779 121.078 154 119.378 154C117.071 154 115.055 153.485 113.328 152.455C111.601 151.425 110.252 149.991 109.281 148.152C108.323 146.313 107.844 144.209 107.844 141.841C107.844 139.413 108.329 137.287 109.301 135.463C110.286 133.639 111.648 132.219 113.388 131.204C115.129 130.174 117.125 129.659 119.378 129.659C121.699 129.659 123.702 130.174 125.388 131.204C127.088 132.234 128.397 133.668 129.314 135.507C130.232 137.331 130.69 139.457 130.69 141.885C130.69 142.194 130.684 142.525 130.67 142.878C130.656 143.231 130.636 143.488 130.609 143.65H110.778Z" fill="black"/>
<path d="M138.936 119V153.492H133.695V119H138.936Z" fill="black"/>
<path fill-rule="evenodd" clip-rule="evenodd" d="M105.212 102.998C106.662 102.709 107.935 101.854 108.748 100.625L126.936 73.0991L97.7493 54.0803L62.5207 106.721C61.1556 108.761 62.951 111.425 65.3665 110.943L105.212 102.998Z" fill="#00B0FF"/>
<path fill-rule="evenodd" clip-rule="evenodd" d="M71.3827 34.0059C69.9529 34.2928 68.6956 35.1368 67.8875 36.3519L52.858 58.9542C51.1778 61.481 51.8593 64.8923 54.3809 66.5782L78.8262 82.9196L113.827 30.2786C115.184 28.2387 113.4 25.5756 110.999 26.0571L71.3827 34.0059Z" fill="#00B0FF"/>
<path d="M126.936 73.1825L78.9023 82.9196L97.9713 54.0803L126.936 73.1825Z" fill="#2F48FA"/>
</svg>
