<svg width="275" height="80" viewBox="0 0 275 80" fill="none" xmlns="http://www.w3.org/2000/svg">
<path d="M104.039 74.1903C99.7519 74.1903 96.0116 73.4187 92.817 71.8758C89.6227 70.3332 87.138 68.0187 85.3633 64.9332C83.5886 61.8165 82.7012 57.9594 82.7012 53.3616C82.7012 52.8372 82.7012 52.3743 82.7012 51.9732C82.7012 51.5412 82.7012 51.0627 82.7012 50.5383H93.4723C93.4723 51.0012 93.4723 51.4332 93.4723 51.8343C93.4723 52.2045 93.4723 52.6365 93.4723 53.1303C93.4723 56.8332 94.3598 59.6103 96.1345 61.4616C97.9365 63.2823 100.585 64.1925 104.08 64.1925C107.602 64.1925 110.291 63.5292 112.148 62.2023C114.032 60.8754 114.974 58.7463 114.974 55.8147C114.974 53.6856 114.332 51.8805 113.049 50.3994C111.793 48.8874 110.059 47.5605 107.848 46.4187C105.636 45.2772 103.124 44.2125 100.312 43.2252C97.1446 42.1143 94.2643 40.6794 91.6703 38.9205C89.0766 37.1616 87.0014 34.9398 85.4451 32.2554C83.8889 29.5707 83.1107 26.2692 83.1107 22.3502C83.1107 18.4313 83.9982 15.0988 85.7728 12.3525C87.5749 9.60618 90.0322 7.52331 93.1447 6.10389C96.2845 4.6536 99.8478 3.92847 103.834 3.92847C108.011 3.92847 111.684 4.66902 114.851 6.15018C118.045 7.63131 120.543 9.8376 122.345 12.769C124.147 15.7005 125.048 19.357 125.048 23.7387C125.048 24.325 125.048 24.8342 125.048 25.2663C125.048 25.6983 125.048 26.1918 125.048 26.7474H114.236C114.236 26.3463 114.236 25.9452 114.236 25.5438C114.236 25.1118 114.236 24.6953 114.236 24.2942C114.236 20.7765 113.39 18.1845 111.697 16.5182C110.004 14.821 107.438 13.9725 103.998 13.9725C100.639 13.9725 98.0594 14.6359 96.2574 15.9628C94.4553 17.2896 93.5542 19.4033 93.5542 22.3039C93.5542 24.4639 94.1685 26.2692 95.3973 27.7194C96.6258 29.1696 98.305 30.4347 100.435 31.5147C102.591 32.5638 105.035 33.6285 107.765 34.7085C111.397 36.0663 114.537 37.6092 117.185 39.3372C119.834 41.0343 121.881 43.1634 123.328 45.7245C124.775 48.2547 125.499 51.4794 125.499 55.3983C125.499 59.4096 124.598 62.8194 122.796 65.6274C121.021 68.4045 118.523 70.5336 115.301 72.0147C112.107 73.4652 108.353 74.1903 104.039 74.1903Z" fill="black"/>
<path d="M135.136 52.5283V43.873H165.566L164.337 46.1872C164.337 46.0021 164.337 45.8014 164.337 45.5854C164.337 45.3385 164.337 45.1381 164.337 44.9836C164.337 42.8545 163.914 40.8643 163.068 39.013C162.221 37.1305 160.938 35.6185 159.218 34.477C157.498 33.3043 155.314 32.7181 152.665 32.7181C150.044 32.7181 147.764 33.3505 145.826 34.6156C143.915 35.8501 142.427 37.6396 141.362 39.985C140.324 42.3301 139.805 45.1381 139.805 48.409C139.805 51.7723 140.31 54.673 141.321 57.1105C142.331 59.5174 143.805 61.369 145.744 62.665C147.71 63.9301 150.099 64.5625 152.911 64.5625C154.822 64.5625 156.474 64.3621 157.867 63.961C159.259 63.5596 160.392 63.0196 161.266 62.341C162.167 61.6312 162.836 60.8752 163.272 60.073C163.737 59.2705 164.01 58.4683 164.092 57.6661H174.822C174.658 59.7334 174.044 61.7545 172.979 63.7294C171.941 65.6734 170.481 67.4476 168.597 69.0523C166.713 70.6261 164.419 71.8912 161.716 72.8476C159.04 73.7734 155.982 74.2363 152.542 74.2363C147.873 74.2363 143.792 73.1563 140.297 70.9963C136.802 68.8363 134.072 65.8276 132.106 61.9705C130.167 58.1134 129.198 53.701 129.198 48.733C129.198 43.6414 130.181 39.1825 132.147 35.3563C134.14 31.5301 136.898 28.5523 140.42 26.4232C143.942 24.2631 147.983 23.1831 152.542 23.1831C157.239 23.1831 161.293 24.2631 164.706 26.4232C168.146 28.5832 170.795 31.5916 172.651 35.449C174.508 39.2752 175.436 43.7341 175.436 48.8254C175.436 49.4734 175.422 50.1676 175.395 50.9083C175.368 51.649 175.327 52.189 175.272 52.5283H135.136Z" fill="black"/>
<path d="M200.33 74.0975C198.773 74.0975 197.19 73.9277 195.579 73.5884C193.968 73.2491 192.494 72.6164 191.156 71.6906C189.818 70.7651 188.739 69.4073 187.92 67.6175C187.101 65.8277 186.692 63.4673 186.692 60.5357C186.692 59.8571 186.692 59.1782 186.692 58.4993C186.692 57.7895 186.692 57.0644 186.692 56.3237V33.7364H176.412V24.0164H180.589C182.009 24.0164 183.129 23.9547 183.948 23.8312C184.767 23.677 185.368 23.3375 185.75 22.813C186.132 22.2884 186.378 21.4707 186.487 20.3598C186.623 19.2181 186.692 17.6444 186.692 15.6387V7.81641H197.504V24.0164H210.446V33.7364H197.504V53.4542C197.504 54.0404 197.504 54.6266 197.504 55.2131C197.504 55.7684 197.504 56.3084 197.504 56.8331C197.504 59.1164 197.749 60.9524 198.241 62.3411C198.732 63.7295 199.893 64.4237 201.722 64.4237C202.596 64.4237 203.415 64.3313 204.179 64.1462C204.971 63.9611 205.558 63.7757 205.94 63.5906V73.1255C205.422 73.3415 204.671 73.5575 203.688 73.7735C202.705 73.9895 201.586 74.0975 200.33 74.0975Z" fill="black"/>
<path d="M217.98 52.5283V43.873H248.409L247.18 46.1872C247.18 46.0021 247.18 45.8014 247.18 45.5854C247.18 45.3385 247.18 45.1381 247.18 44.9836C247.18 42.8545 246.757 40.8643 245.911 39.013C245.064 37.1305 243.781 35.6185 242.061 34.477C240.341 33.3043 238.157 32.7181 235.508 32.7181C232.887 32.7181 230.607 33.3505 228.669 34.6156C226.758 35.8501 225.27 37.6396 224.205 39.985C223.167 42.3301 222.648 45.1381 222.648 48.409C222.648 51.7723 223.154 54.673 224.164 57.1105C225.174 59.5174 226.648 61.369 228.587 62.665C230.553 63.9301 232.942 64.5625 235.754 64.5625C237.665 64.5625 239.317 64.3621 240.709 63.961C242.102 63.5596 243.235 63.0196 244.109 62.341C245.01 61.6312 245.679 60.8752 246.115 60.073C246.58 59.2705 246.853 58.4683 246.935 57.6661H257.665C257.501 59.7334 256.887 61.7545 255.822 63.7294C254.784 65.6734 253.324 67.4476 251.44 69.0523C249.556 70.6261 247.262 71.8912 244.559 72.8476C241.883 73.7734 238.825 74.2363 235.385 74.2363C230.716 74.2363 226.635 73.1563 223.14 70.9963C219.645 68.8363 216.915 65.8276 214.949 61.9705C213.01 58.1134 212.041 53.701 212.041 48.733C212.041 43.6414 213.024 39.1825 214.99 35.3563C216.983 31.5301 219.741 28.5523 223.263 26.4232C226.785 24.2631 230.826 23.1831 235.385 23.1831C240.081 23.1831 244.136 24.2631 247.549 26.4232C250.989 28.5832 253.638 31.5916 255.494 35.449C257.351 39.2752 258.279 43.7341 258.279 48.8254C258.279 49.4734 258.265 50.1676 258.238 50.9083C258.211 51.649 258.17 52.189 258.115 52.5283H217.98Z" fill="black"/>
<path d="M274.968 0.827148V73.1716H264.36V0.827148H274.968Z" fill="black"/>
<path fill-rule="evenodd" clip-rule="evenodd" d="M46.2463 72.1619C47.4955 71.8916 48.5924 71.093 49.2923 69.944L64.9637 44.2142L39.8161 26.4365L9.46321 75.6422C8.28703 77.549 9.83392 80.0387 11.9151 79.5884L46.2463 72.1619Z" fill="#00B0FF"/>
<path fill-rule="evenodd" clip-rule="evenodd" d="M16.8612 7.59486C15.6215 7.86303 14.5313 8.65188 13.8306 9.78774L0.798997 30.9152C-0.657838 33.2771 -0.0669552 36.4658 2.11949 38.0417L23.3153 53.3168L53.6637 4.11075C54.8398 2.20398 53.2929 -0.28542 51.2118 0.16473L16.8612 7.59486Z" fill="#00B0FF"/>
<path d="M64.9639 44.2139L23.2607 53.2757L39.8167 26.4365L64.9639 44.2139Z" fill="#2F48FA"/>
</svg>
