<svg width="180" height="180" viewBox="0 0 180 180" fill="none" xmlns="http://www.w3.org/2000/svg">
<rect width="180" height="180" rx="15" fill="white"/>
<path fill-rule="evenodd" clip-rule="evenodd" d="M111.035 138.703C112.968 138.295 114.666 137.089 115.749 135.353L140 96.4931L101.084 69.6431L54.1126 143.959C52.2924 146.839 54.6863 150.6 57.9069 149.92L111.035 138.703Z" fill="#00B0FF"/>
<path fill-rule="evenodd" clip-rule="evenodd" d="M65.9282 41.3025C64.0218 41.7075 62.3454 42.8989 61.268 44.6145L41.2287 76.5236C38.9884 80.0908 39.897 84.9068 43.2592 87.2869L75.853 110.357L122.521 36.0404C124.329 33.1606 121.951 29.4008 118.751 30.0807L65.9282 41.3025Z" fill="#00B0FF"/>
<path d="M140 96.6109L75.9551 110.357L101.38 69.6431L140 96.6109Z" fill="#2F48FA"/>
<rect width="180" height="180" rx="15" fill="#00B0FF"/>
<circle cx="90" cy="90" r="75" fill="white"/>
<path fill-rule="evenodd" clip-rule="evenodd" d="M107.528 130.585C109.139 130.245 110.553 129.24 111.456 127.794L131.666 95.4104L99.2356 73.0354L60.0927 134.966C58.5759 137.366 60.5707 140.499 63.2546 139.932L107.528 130.585Z" fill="#00B0FF"/>
<path fill-rule="evenodd" clip-rule="evenodd" d="M69.9399 49.4188C68.3512 49.7563 66.9542 50.7491 66.0563 52.1787L49.3569 78.7697C47.49 81.7424 48.2472 85.7557 51.049 87.7391L78.2105 106.964L117.1 45.0337C118.608 42.6338 116.625 39.5007 113.959 40.0672L69.9399 49.4188Z" fill="#00B0FF"/>
<path d="M131.665 95.5086L78.2949 106.964L99.4827 73.0354L131.665 95.5086Z" fill="#2F48FA"/>
</svg>
