<svg width="181" height="180" viewBox="0 0 181 180" fill="none" xmlns="http://www.w3.org/2000/svg">
<circle cx="90.9365" cy="90" r="90" fill="white"/>
<path fill-rule="evenodd" clip-rule="evenodd" d="M111.971 138.703C113.905 138.295 115.602 137.089 116.685 135.353L140.937 96.4931L102.021 69.6431L55.0491 143.959C53.2289 146.839 55.6228 150.6 58.8434 149.92L111.971 138.703Z" fill="#00B0FF"/>
<path fill-rule="evenodd" clip-rule="evenodd" d="M66.8648 41.3025C64.9583 41.7075 63.2819 42.8989 62.2045 44.6145L42.1652 76.5236C39.9249 80.0908 40.8336 84.9068 44.1958 87.2869L76.7895 110.357L123.457 36.0404C125.266 33.1606 122.887 29.4008 119.687 30.0807L66.8648 41.3025Z" fill="#00B0FF"/>
<path d="M140.936 96.6109L76.8916 110.357L102.317 69.6431L140.936 96.6109Z" fill="#2F48FA"/>
</svg>
