<svg width="180" height="180" viewBox="0 0 180 180" fill="none" xmlns="http://www.w3.org/2000/svg">
<rect width="180" height="180" rx="15" fill="white"/>
<path d="M121.634 35.0273L33.8784 46.7343C33.8784 46.7343 30 47.1999 30 51.8555C30 56.5123 30 135.245 30 135.245C30 135.245 30.5097 145 41.6787 145C52.8475 145 141.135 145 141.135 145C141.135 145 150 142.872 150 134.003C150 125.135 150 65.1814 150 65.1814C150 65.1814 150.176 55.4253 138.476 55.4253C126.775 55.4253 42.565 55.4253 42.565 55.4253C42.565 55.4253 38.8421 54.8045 37.8892 50.8805C37.601 49.3287 38.2217 49.1727 39.8614 49.1727C41.5011 49.1727 127.927 49.1727 127.927 49.1727V39.6839C127.927 39.6839 127.618 34.5845 121.634 35.0273Z" fill="#EE3929"/>
<path d="M91.7799 130.85C84.5009 130.85 79.1433 127.884 71.2413 120.059C69.8321 118.663 69.8205 116.39 71.2154 114.98C72.6102 113.57 74.8825 113.558 76.2923 114.954C84.612 123.191 88.4772 125.237 95.1227 123.433C98.9853 122.385 102.452 117.456 102.655 111.806C102.812 107.41 99.7159 104.545 93.4502 103.291C82.2034 101.04 75.5668 96.7359 73.7244 90.4972C72.2393 85.4717 74.1856 79.8644 79.0628 75.1124L79.2647 74.9305C89.7519 66.1597 101.926 72.6945 106.898 77.3762C108.342 78.7363 108.411 81.0086 107.051 82.4531C105.695 83.8973 103.429 83.9659 101.984 82.6142C101.563 82.2222 92.1435 73.6585 83.9738 80.3564C81.1807 83.1181 79.9241 86.1406 80.6096 88.4614C81.6089 91.8429 86.6689 94.608 94.8587 96.2473C108.782 99.0337 109.967 108.236 109.831 112.064C109.532 120.397 102.563 129.733 96.0232 130.56C94.5248 130.75 93.1198 130.85 91.7799 130.85Z" fill="white"/>
</svg>
