<svg width="360" height="158" viewBox="0 0 360 158" fill="none" xmlns="http://www.w3.org/2000/svg">
<path d="M112.092 0.0334015L4.74427 14.3467C4.74427 14.3467 0 14.9161 0 20.6081C0 26.3017 0 122.562 0 122.562C0 122.562 0.623436 134.489 14.286 134.489C27.9484 134.489 135.947 134.489 135.947 134.489C135.947 134.489 146.791 131.888 146.791 121.044C146.791 110.201 146.791 36.9007 146.791 36.9007C146.791 36.9007 147.007 24.9726 132.694 24.9726C118.381 24.9726 15.3703 24.9726 15.3703 24.9726C15.3703 24.9726 10.8161 24.2137 9.65052 19.4161C9.29792 17.5187 10.0573 17.3281 12.063 17.3281C14.0688 17.3281 119.79 17.3281 119.79 17.3281V5.72673C119.79 5.72673 119.411 -0.507935 112.092 0.0334015Z" fill="#EE3929"/>
<path d="M75.5727 117.189C66.6686 117.189 60.1148 113.563 50.4487 103.995C48.7248 102.289 48.7107 99.5099 50.417 97.7853C52.1232 96.0619 54.9028 96.0473 56.6274 97.7547C66.8044 107.824 71.5326 110.326 79.6618 108.12C84.3867 106.839 88.6279 100.813 88.8758 93.9057C89.068 88.5301 85.2804 85.0281 77.6159 83.4948C63.8582 80.7427 55.7399 75.4801 53.4862 67.8525C51.6695 61.7083 54.0503 54.8525 60.0164 49.0427L60.2634 48.8203C73.0919 38.0968 87.9836 46.0864 94.0659 51.8104C95.832 53.4733 95.9164 56.2515 94.2534 58.0176C92.594 59.7833 89.8222 59.8672 88.0555 58.2145C87.5399 57.7353 76.0175 47.2651 66.0238 55.4541C62.6071 58.8307 61.07 62.526 61.9086 65.3635C63.131 69.4979 69.3206 72.8785 79.3388 74.8828C96.3711 78.2895 97.8206 89.5405 97.6534 94.2208C97.2878 104.409 88.7638 115.823 80.7634 116.835C78.9304 117.067 77.2118 117.189 75.5727 117.189Z" fill="white"/>
<path d="M191.943 24.3742C190.215 23.3149 188.154 22.3682 185.7 21.6989C181.186 20.4176 177.896 18.7442 176.335 16.6269C174.942 14.7869 174.942 12.3909 176.614 9.32424C177.562 7.48424 179.847 6.31357 182.802 6.0909C185.867 5.86824 189.602 6.59225 193.504 8.59891C194.452 9.10158 195.679 8.7109 196.18 7.7069C196.682 6.76024 196.292 5.53358 195.288 5.03225C190.718 2.69091 186.202 1.79891 182.467 2.07758C178.119 2.41224 174.719 4.30824 173.047 7.37357C170.539 12.0002 170.706 15.7896 173.047 18.9669C175.22 21.8096 179.179 23.9846 184.586 25.4894C186.703 26.1024 188.487 26.8832 189.88 27.719C191.999 29.0009 193.392 30.5061 194.062 32.1228C194.731 33.628 194.787 35.2998 194.34 36.9165C194.118 37.6966 193.727 38.4774 193.282 39.2581C193.282 39.369 193.17 39.4805 193.059 39.6477C191.442 42.0452 188.822 43.2712 185.644 43.2712C182.134 43.2712 177.84 41.878 173.27 39.0909C172.602 38.7004 171.988 38.3102 171.431 37.9201C170.483 37.307 169.256 37.5857 168.643 38.4774C168.03 39.4248 168.308 40.6513 169.2 41.2644C169.926 41.766 170.594 42.1565 171.096 42.6024C176.335 45.7794 181.296 47.3398 185.532 47.3398C190.104 47.3398 193.895 45.557 196.292 41.9894C196.347 41.878 196.459 41.6545 196.626 41.4321C197.295 40.3728 197.796 39.2018 198.131 38.0868C198.856 35.6342 198.744 33.0144 197.686 30.6176C196.682 28.2764 194.787 26.1024 191.943 24.3742Z" fill="#EE3929"/>
<path d="M222.657 19.9709C220.594 19.4136 218.197 19.4696 215.745 20.1936C213.418 20.8802 211.068 22.1669 208.833 24.1065V3.97225C208.833 2.91359 207.941 2.07758 206.826 2.07758C205.71 2.07758 204.818 2.91359 204.818 3.97225V45.3894C204.818 46.4482 205.71 47.2846 206.826 47.2846C207.941 47.2846 208.833 46.4482 208.833 45.3894V29.8884C208.869 29.8518 208.91 29.8212 208.944 29.7816C211.453 26.716 214.24 24.8206 216.914 23.9846C218.642 23.4829 220.26 23.4269 221.653 23.8176C222.992 24.207 224.05 24.9321 224.83 25.9909C225.612 27.1056 226.057 28.6108 226.057 30.5061V45.3337C226.057 46.4488 226.949 47.3398 228.064 47.3398C229.18 47.3398 230.07 46.4488 230.07 45.3337V30.5061C230.07 27.7748 229.346 25.4894 228.064 23.7056C226.726 21.8096 224.83 20.5842 222.657 19.9709Z" fill="#EE3929"/>
<path d="M256.771 40.4842C254.932 42.268 252.479 43.3826 249.747 43.3826C247.017 43.3826 244.508 42.268 242.724 40.4842C240.94 38.7004 239.825 36.1914 239.825 33.4608C239.825 30.7294 240.94 28.2212 242.724 26.4368C244.564 24.6529 247.017 23.5389 249.747 23.5389C252.479 23.5389 254.988 24.6529 256.771 26.4368C258.555 28.2212 259.671 30.7294 259.671 33.4608C259.671 36.1914 258.555 38.7004 256.771 40.4842ZM249.747 19.5816C245.957 19.5816 242.446 21.1416 239.938 23.6496C237.428 26.1581 235.868 29.6138 235.868 33.4608C235.868 37.307 237.428 40.7628 239.938 43.2712C242.446 45.7794 245.903 47.3398 249.747 47.3398C253.593 47.3398 257.051 45.7794 259.559 43.2712C262.067 40.7628 263.628 37.307 263.628 33.4608C263.628 29.6138 262.067 26.1581 259.559 23.6496C257.051 21.1416 253.593 19.5816 249.747 19.5816Z" fill="#EE3929"/>
<path d="M290.551 40.4842C288.712 42.2679 286.259 43.3826 283.527 43.3826C280.797 43.3826 278.288 42.2679 276.504 40.4842C274.72 38.7003 273.605 36.1914 273.605 33.4607C273.605 30.7294 274.72 28.2211 276.504 26.4367C278.344 24.6528 280.797 23.5388 283.527 23.5388C286.259 23.5388 288.767 24.6528 290.551 26.4367C292.335 28.2211 293.451 30.7294 293.451 33.4607C293.451 36.1914 292.335 38.7003 290.551 40.4842ZM283.583 19.5815C279.737 19.5815 276.281 21.1415 273.773 23.6495C273.605 23.7615 273.495 23.9282 273.327 24.096V21.5868C273.327 20.4722 272.435 19.5815 271.32 19.5815C270.205 19.5815 269.313 20.4722 269.313 21.5868V61.0528C269.313 62.1675 270.205 63.0591 271.32 63.0591C272.435 63.0591 273.327 62.1675 273.327 61.0528V42.8247C273.495 42.9361 273.605 43.1034 273.773 43.2711C276.281 45.7794 279.737 47.3398 283.583 47.3398C287.429 47.3398 290.885 45.7794 293.395 43.2711C295.903 40.7627 297.464 37.307 297.464 33.4607C297.464 29.6138 295.903 26.158 293.395 23.6495C290.885 21.1415 287.429 19.5815 283.583 19.5815Z" fill="#EE3929"/>
<path d="M307.664 30.3943C308.165 28.7219 309.113 27.2728 310.284 26.102C311.901 24.5416 314.019 23.5932 316.304 23.5932C318.589 23.5932 320.708 24.5416 322.324 26.102C323.495 27.2728 324.387 28.7219 325 30.3943H307.664ZM325.112 23.2599C322.825 20.9172 319.704 19.5812 316.304 19.5812C312.904 19.5812 309.727 20.8626 307.497 23.2599C302.703 28.4432 302.759 34.0176 304.653 39.6474C305.491 42.2115 307.273 44.0515 309.336 45.3891C311.399 46.7271 313.908 47.3958 316.749 47.3395C319.537 47.2843 322.659 46.6151 326.004 45.2219C327.007 44.776 327.508 43.6052 327.063 42.602C326.617 41.599 325.447 41.0968 324.443 41.5427C321.544 42.7692 318.924 43.3823 316.693 43.3823C314.632 43.3823 312.848 42.9359 311.455 42.0448C310.117 41.1526 309.057 39.8703 308.333 38.1422C307.943 37.0282 307.608 35.8015 307.441 34.4635H325.892C326.896 34.4635 330.184 34.6864 328.456 29.0567C327.788 27.05 327.007 25.1547 325.112 23.2599Z" fill="#EE3929"/>
<path d="M338.099 30.3943C338.602 28.7219 339.548 27.2728 340.719 26.102C342.336 24.5416 344.455 23.5932 346.74 23.5932C349.024 23.5932 351.143 24.5416 352.759 26.102C353.93 27.2728 354.822 28.7219 355.435 30.3943H338.099ZM358.892 29.0567C358.223 27.05 357.443 25.1547 355.547 23.2599C353.262 20.9172 350.139 19.5812 346.74 19.5812C343.34 19.5812 340.162 20.8626 337.932 23.2599C333.138 28.4432 333.194 34.0176 335.09 39.6474C335.926 42.2115 337.71 44.0515 339.772 45.3891C341.835 46.7271 344.343 47.3958 347.186 47.3395C349.972 47.2843 353.094 46.6151 356.439 45.2219C357.443 44.776 357.944 43.6052 357.498 42.602C357.052 41.599 355.882 41.0968 354.878 41.5427C351.979 42.7692 349.359 43.3823 347.131 43.3823C345.068 43.3823 343.284 42.9359 341.89 42.0448C340.552 41.1526 339.494 39.8703 338.768 38.1422C338.378 37.0282 338.044 35.8015 337.876 34.4635H356.327C357.331 34.4635 360.62 34.6864 358.892 29.0567Z" fill="#EE3929"/>
<path d="M202.26 99.0934H181.429V68.835H200.228C200.555 68.835 200.872 68.8511 201.197 68.8876C204.056 69.2063 216.561 71.3705 216.561 84.7767C216.561 99.0934 202.26 99.0934 202.26 99.0934ZM198.583 57.2855H169.719V134.489H181.429V111.447H199.84C206.011 111.447 212.137 109.961 217.447 106.814C223.76 103.075 230.073 96.4877 230.073 85.0986C230.073 74.4221 224.524 67.6434 218.629 63.4543C212.801 59.3131 205.733 57.2855 198.583 57.2855Z" fill="#EE3929"/>
<path d="M259.1 123.861C249.514 123.861 241.726 116.088 241.726 106.485C241.726 96.8962 249.514 89.1238 259.1 89.1238C268.696 89.1238 276.464 96.8858 276.475 106.464V106.506C276.464 116.099 268.696 123.861 259.1 123.861ZM276.475 79.6224V85.0541C271.734 81.1894 265.688 78.877 259.1 78.877C243.876 78.877 231.478 91.2609 231.478 106.485C231.478 121.723 243.876 134.108 259.1 134.108C265.688 134.108 271.734 131.795 276.475 127.932V134.11H288.187V79.6224H276.475Z" fill="#EE3929"/>
<path d="M293.45 78.8775H309.113L327.492 114.05L345.221 78.8775H359.384L317.245 157.315H303.454L319.522 128.2L293.45 78.8775Z" fill="#EE3929"/>
</svg>
