<svg width="180" height="180" viewBox="0 0 180 180" fill="none" xmlns="http://www.w3.org/2000/svg">
<circle cx="90" cy="90" r="90" fill="#EE4D2D"/>
<path d="M51.0635 139.329V105.187C51.0635 104.477 51.6384 103.91 52.341 103.91H63.8706C70.362 103.997 75.6397 109.275 75.6397 115.695C75.6397 122.114 70.354 127.392 63.8626 127.472H55.5268V139.329C55.5268 140.04 54.9519 140.606 54.2493 140.606H52.349C51.6384 140.606 51.0715 140.032 51.0715 139.329H51.0635ZM55.5268 122.833H63.8227C65.7629 122.833 67.5914 122.082 68.9647 120.717C70.338 119.352 71.0966 117.539 71.0966 115.607C71.0966 111.623 67.8469 108.381 63.8467 108.381H55.5348V122.841L55.5268 122.833Z" fill="white"/>
<path d="M105.031 150.842L113.758 135.847L103.307 118.744C102.995 118.233 103.363 117.579 103.961 117.579H108.193L116.601 131.208L124.721 117.579H128.625C129.224 117.579 129.592 118.225 129.288 118.736L109.622 152H105.702C105.111 152 104.736 151.353 105.039 150.842H105.031Z" fill="white"/>
<path d="M95.2189 139.153V137.181L94.5721 137.724C92.4722 139.472 89.7814 140.439 87.0108 140.439C80.6073 140.439 75.4014 135.312 75.4014 129.005C75.4014 122.697 80.6073 117.747 87.0108 117.747C89.7814 117.747 92.4722 118.713 94.5721 120.461L95.2189 121.004V119.032C95.2189 118.321 95.7938 117.755 96.4964 117.755H99.1552V140.439H96.4964C95.7858 140.439 95.2189 139.864 95.2189 139.161V139.153ZM86.9789 122.002C82.9547 122.002 79.6811 125.148 79.6811 129.013C79.6811 132.877 83.0266 136.199 86.9789 136.199C90.9312 136.199 94.2767 132.909 94.2767 129.013C94.2767 125.116 91.0031 122.002 86.9789 122.002Z" fill="white"/>
<path d="M121.926 36.9357H62.4019C60.5894 36.9357 59.1202 35.4666 59.1202 33.6541C59.1202 32.8317 59.7909 32.161 60.6133 32.161H113.958C114.78 32.161 115.451 31.4903 115.451 30.6679V25.2863C115.451 23.3621 113.798 21.845 111.882 22.0127L57.8188 26.7874C53.9622 27.1228 51 30.3485 51 34.221V86.1841C51 90.3041 54.3375 93.6496 58.4655 93.6496H121.934C126.054 93.6496 129.4 90.3121 129.4 86.1841V44.3932C129.4 40.2732 126.062 36.9277 121.934 36.9277M103.546 75.9639C103.075 79.8125 100.727 82.8945 97.0945 84.4355C95.0744 85.2978 92.3597 85.7529 90.2039 85.6092C86.8584 85.4815 83.7125 84.675 80.8221 83.1979C79.7681 82.6629 78.2191 81.601 77.0534 80.6269C76.7899 80.4033 76.6542 80.2117 76.9097 79.8524C77.1812 79.4452 78.2591 77.8882 78.4267 77.6327C78.6583 77.2814 79.0336 77.2654 79.3769 77.5369C79.4248 77.5768 79.7761 77.8483 79.848 77.8962C82.6346 80.068 86.2356 81.6968 90.2278 81.8485C95.266 81.7766 98.9229 79.533 99.5777 76.0597C100.296 72.2272 97.2382 68.9456 91.3536 67.1091C89.4853 66.5263 84.7744 64.6579 83.9121 64.1469C79.8081 61.7595 77.8998 58.6216 78.1712 54.7651C78.5864 49.4155 83.5767 45.4152 89.9084 45.3833C92.9106 45.3833 95.7371 46.038 98.2443 47.092C99.1705 47.4752 100.887 48.4014 101.502 48.8566C101.933 49.168 101.901 49.5193 101.725 49.7907C101.478 50.2059 100.727 51.3637 100.432 51.8428C100.216 52.1701 99.945 52.2101 99.5537 51.9705C96.312 49.8067 92.9825 49.0801 89.9883 49.0162C85.6607 49.1041 82.403 51.6511 82.1874 55.1563C82.1315 58.3182 84.5508 60.6097 89.6849 62.3663C100.288 65.7518 104.304 69.728 103.546 75.9639Z" fill="white"/>
</svg>
