<svg width="180" height="180" viewBox="0 0 180 180" fill="none" xmlns="http://www.w3.org/2000/svg">
<circle cx="90" cy="90" r="90" fill="#EE3929"/>
<path d="M37.313 47.2681C36.0468 46.4495 34.5365 45.718 32.7389 45.2007C29.431 44.2106 27.0208 42.9175 25.8768 41.2813C24.8559 39.8594 24.8559 38.0078 26.081 35.638C26.7756 34.2161 28.4501 33.3115 30.615 33.1394C32.861 32.9674 35.5975 33.5268 38.457 35.0775C39.1516 35.466 40.0504 35.1641 40.4177 34.3882C40.785 33.6567 40.4998 32.7087 39.7641 32.3213C36.4152 30.512 33.1062 29.8227 30.3698 30.0381C27.184 30.2967 24.6928 31.7618 23.4677 34.1306C21.63 37.7059 21.7521 40.6342 23.4677 43.0895C25.0601 45.2863 27.9606 46.9671 31.9222 48.1299C33.4736 48.6036 34.7807 49.207 35.8016 49.8529C37.354 50.8435 38.3749 52.0066 38.8653 53.2559C39.3558 54.4191 39.3968 55.7111 39.0695 56.9604C38.9064 57.5632 38.6201 58.1666 38.2938 58.7699C38.2938 58.8556 38.2118 58.9417 38.1307 59.0709C36.9456 60.9236 35.0259 61.871 32.6979 61.871C30.1256 61.871 26.9798 60.7944 23.6308 58.6407C23.1414 58.3389 22.692 58.0374 22.2836 57.7359C21.589 57.2621 20.6902 57.4775 20.2408 58.1666C19.7914 58.8987 19.9956 59.8465 20.6492 60.3202C21.1806 60.7078 21.6701 61.0096 22.0384 61.3542C25.8768 63.8093 29.512 65.0151 32.6158 65.0151C35.9658 65.0151 38.7432 63.6375 40.4998 60.8805C40.5398 60.7944 40.6219 60.6217 40.744 60.4499C41.2344 59.6312 41.6018 58.7264 41.847 57.8647C42.3785 55.9695 42.2964 53.9449 41.5207 52.0928C40.7851 50.2836 39.3968 48.6036 37.313 47.2681Z" fill="white"/>
<path d="M59.8177 43.8654C58.3063 43.4347 56.5498 43.478 54.7532 44.0375C53.0484 44.5681 51.326 45.5624 49.6887 47.0612V31.5022C49.6887 30.6841 49.0351 30.0381 48.2183 30.0381C47.4006 30.0381 46.7471 30.6841 46.7471 31.5022V63.5079C46.7471 64.3261 47.4006 64.9725 48.2183 64.9725C49.0351 64.9725 49.6887 64.3261 49.6887 63.5079V51.5293C49.715 51.501 49.7453 51.4773 49.7697 51.4467C51.6084 49.0777 53.6502 47.6131 55.6099 46.9671C56.8761 46.5793 58.0611 46.5361 59.082 46.838C60.0629 47.1389 60.8386 47.6992 61.4101 48.5174C61.9826 49.3788 62.3089 50.542 62.3089 52.0066V63.4649C62.3089 64.3266 62.9625 65.0151 63.7792 65.0151C64.5969 65.0151 65.2495 64.3266 65.2495 63.4649V52.0066C65.2495 49.896 64.719 48.1299 63.7792 46.7514C62.7993 45.2863 61.4101 44.3394 59.8177 43.8654Z" fill="white"/>
<path d="M84.8137 59.7174C83.4665 61.0958 81.6689 61.9572 79.6671 61.9572C77.6673 61.9572 75.8287 61.0958 74.5215 59.7174C73.2144 58.3389 72.3976 56.4 72.3976 54.2899C72.3976 52.1792 73.2144 50.2409 74.5215 48.862C75.8697 47.4835 77.6673 46.6226 79.6671 46.6226C81.6689 46.6226 83.5075 47.4835 84.8137 48.862C86.1208 50.2409 86.9385 52.1792 86.9385 54.2899C86.9385 56.4 86.1208 58.3389 84.8137 59.7174ZM79.6671 43.5645C76.8906 43.5645 74.3173 44.7701 72.4797 46.7081C70.6411 48.6466 69.498 51.3171 69.498 54.2899C69.498 57.2621 70.6411 59.9326 72.4797 61.871C74.3173 63.8093 76.8506 65.0151 79.6671 65.0151C82.4856 65.0151 85.0188 63.8093 86.8565 61.871C88.6941 59.9326 89.8381 57.2621 89.8381 54.2899C89.8381 51.3171 88.6941 48.6466 86.8565 46.7081C85.0188 44.7701 82.4856 43.5645 79.6671 43.5645Z" fill="white"/>
<path d="M109.564 59.7173C108.217 61.0957 106.419 61.957 104.417 61.957C102.417 61.957 100.579 61.0957 99.2716 59.7173C97.9645 58.3387 97.1477 56.3999 97.1477 54.2898C97.1477 52.1791 97.9645 50.2408 99.2716 48.8619C100.62 47.4834 102.417 46.6225 104.417 46.6225C106.419 46.6225 108.257 47.4834 109.564 48.8619C110.871 50.2408 111.689 52.1791 111.689 54.2898C111.689 56.3999 110.871 58.3387 109.564 59.7173ZM104.458 43.5644C101.641 43.5644 99.1085 44.7699 97.2708 46.708C97.1477 46.7946 97.0666 46.9234 96.9435 47.0531V45.1141C96.9435 44.2527 96.29 43.5644 95.4732 43.5644C94.6565 43.5644 94.0029 44.2527 94.0029 45.1141V75.612C94.0029 76.4734 94.6565 77.1624 95.4732 77.1624C96.29 77.1624 96.9435 76.4734 96.9435 75.612V61.5259C97.0666 61.6121 97.1477 61.7413 97.2708 61.8709C99.1085 63.8092 101.641 65.015 104.458 65.015C107.277 65.015 109.809 63.8092 111.648 61.8709C113.485 59.9325 114.629 57.262 114.629 54.2898C114.629 51.317 113.485 48.6465 111.648 46.708C109.809 44.7699 107.277 43.5644 104.458 43.5644Z" fill="white"/>
<path d="M122.103 51.9202C122.47 50.6278 123.165 49.508 124.023 48.6032C125.208 47.3974 126.759 46.6645 128.434 46.6645C130.108 46.6645 131.661 47.3974 132.845 48.6032C133.702 49.508 134.356 50.6278 134.805 51.9202H122.103ZM134.887 46.4069C133.212 44.5966 130.925 43.5642 128.434 43.5642C125.943 43.5642 123.614 44.5544 121.981 46.4069C118.468 50.4124 118.509 54.7201 119.897 59.0706C120.511 61.0521 121.817 62.474 123.328 63.5076C124.84 64.5416 126.678 65.0583 128.76 65.0148C130.803 64.9721 133.09 64.455 135.541 63.3784C136.276 63.0338 136.643 62.1291 136.317 61.3539C135.99 60.5787 135.133 60.1907 134.397 60.5352C132.273 61.4831 130.353 61.9568 128.719 61.9568C127.209 61.9568 125.901 61.6119 124.881 60.9233C123.901 60.2338 123.124 59.2429 122.594 57.9074C122.307 57.0466 122.062 56.0986 121.94 55.0647H135.459C136.195 55.0647 138.604 55.237 137.338 50.8865C136.848 49.3358 136.276 47.8712 134.887 46.4069Z" fill="white"/>
<path d="M144.403 51.9202C144.771 50.6278 145.465 49.508 146.322 48.6032C147.507 47.3974 149.06 46.6645 150.734 46.6645C152.408 46.6645 153.96 47.3974 155.144 48.6032C156.002 49.508 156.656 50.6278 157.105 51.9202H144.403ZM159.638 50.8865C159.148 49.3358 158.576 47.8712 157.187 46.4069C155.513 44.5966 153.225 43.5642 150.734 43.5642C148.243 43.5642 145.914 44.5544 144.281 46.4069C140.767 50.4124 140.808 54.7201 142.198 59.0706C142.81 61.0521 144.117 62.474 145.629 63.5076C147.14 64.5416 148.978 65.0583 151.061 65.0148C153.102 64.9721 155.389 64.455 157.841 63.3784C158.576 63.0338 158.944 62.1291 158.616 61.3539C158.29 60.5787 157.432 60.1907 156.697 60.5352C154.573 61.4831 152.653 61.9568 151.021 61.9568C149.509 61.9568 148.202 61.6119 147.18 60.9233C146.2 60.2338 145.425 59.2429 144.893 57.9074C144.607 57.0466 144.363 56.0986 144.24 55.0647H157.759C158.494 55.0647 160.904 55.237 159.638 50.8865Z" fill="white"/>
<path d="M44.8727 105.008H29.6098V81.6258H43.3838C43.6232 81.6258 43.8557 81.6383 44.0941 81.6665C46.1886 81.9128 55.3514 83.5851 55.3514 93.945C55.3514 105.008 44.8727 105.008 44.8727 105.008ZM42.1783 72.7008H21.0293V132.361H29.6098V114.555H43.0995C47.6209 114.555 52.1099 113.406 56.0001 110.975C60.626 108.085 65.2518 102.995 65.2518 94.1937C65.2518 85.9433 61.1858 80.705 56.8667 77.4678C52.5964 74.2676 47.4176 72.7008 42.1783 72.7008Z" fill="white"/>
<path d="M86.5197 124.148C79.4955 124.148 73.7891 118.141 73.7891 110.72C73.7891 103.31 79.4955 97.3041 86.5197 97.3041C93.5508 97.3041 99.2425 103.302 99.2503 110.704V110.736C99.2425 118.15 93.5508 124.148 86.5197 124.148ZM99.2503 89.9617V94.1592C95.7763 91.1727 91.3468 89.3858 86.5197 89.3858C75.3649 89.3858 66.2803 98.9556 66.2803 110.72C66.2803 122.496 75.3649 132.066 86.5197 132.066C91.3468 132.066 95.7763 130.279 99.2503 127.293V132.068H107.832V89.9617H99.2503Z" fill="white"/>
<path d="M111.689 89.3863H123.166L136.632 116.567L149.622 89.3863H160L129.124 150H119.02L130.793 127.501L111.689 89.3863Z" fill="white"/>
</svg>
