<svg width="180" height="180" viewBox="0 0 180 180" fill="none" xmlns="http://www.w3.org/2000/svg">
<rect width="180" height="180" rx="15" fill="#EE3929"/>
<path d="M58.5805 55.5834L13.9715 61.0112C13.9715 61.0112 12 61.2271 12 63.3856C12 65.5447 12 102.048 12 102.048C12 102.048 12.2591 106.571 17.9367 106.571C23.6142 106.571 68.4936 106.571 68.4936 106.571C68.4936 106.571 72.9999 105.584 72.9999 101.472C72.9999 97.3604 72.9999 69.564 72.9999 69.564C72.9999 69.564 73.0897 65.0407 67.1418 65.0407C61.1939 65.0407 18.3872 65.0407 18.3872 65.0407C18.3872 65.0407 16.4947 64.7529 16.0103 62.9336C15.8638 62.2141 16.1794 62.1418 17.0129 62.1418C17.8464 62.1418 61.7797 62.1418 61.7797 62.1418V57.7424C61.7797 57.7424 61.6223 55.3782 58.5805 55.5834Z" fill="white"/>
<path d="M87.7819 63.587C86.9541 63.0851 85.9665 62.6366 84.7912 62.3195C82.6283 61.7125 81.0524 60.9197 80.3044 59.9165C79.6369 59.0448 79.6369 57.9096 80.4379 56.4567C80.8921 55.585 81.987 55.0303 83.4025 54.9248C84.871 54.8193 86.6602 55.1624 88.5299 56.1131C88.9841 56.3512 89.5717 56.1661 89.8119 55.6905C90.0521 55.242 89.8656 54.6608 89.3846 54.4233C87.1949 53.314 85.0314 52.8914 83.2422 53.0234C81.1591 53.182 79.5302 54.0803 78.7292 55.5325C77.5277 57.7245 77.6075 59.5198 78.7292 61.0252C79.7704 62.3719 81.6669 63.4024 84.2572 64.1154C85.2715 64.4058 86.1262 64.7757 86.7937 65.1717C87.8087 65.779 88.4762 66.4921 88.7969 67.2581C89.1176 67.9712 89.1444 68.7633 88.9304 69.5292C88.8237 69.8988 88.6366 70.2687 88.4232 70.6386C88.4232 70.6912 88.3696 70.744 88.3166 70.8232C87.5417 71.959 86.2865 72.5399 84.7643 72.5399C83.0825 72.5399 81.0256 71.8798 78.8359 70.5594C78.5159 70.3744 78.222 70.1895 77.955 70.0047C77.5009 69.7142 76.9132 69.8463 76.6194 70.2688C76.3255 70.7176 76.459 71.2987 76.8864 71.5891C77.2339 71.8268 77.5539 72.0118 77.7947 72.223C80.3044 73.7283 82.6813 74.4675 84.7107 74.4675C86.901 74.4675 88.7171 73.6229 89.8656 71.9326C89.8918 71.8798 89.9454 71.774 90.0253 71.6686C90.3459 71.1667 90.5861 70.612 90.7464 70.0837C91.0939 68.9217 91.0403 67.6805 90.5331 66.545C90.0521 65.4358 89.1444 64.4058 87.7819 63.587Z" fill="white"/>
<path d="M102.496 61.5008C101.508 61.2368 100.36 61.2633 99.1849 61.6063C98.0703 61.9316 96.9441 62.5412 95.8735 63.4602V53.9211C95.8735 53.4195 95.4462 53.0234 94.9122 53.0234C94.3775 53.0234 93.9502 53.4195 93.9502 53.9211V73.5435C93.9502 74.0451 94.3775 74.4414 94.9122 74.4414C95.4462 74.4414 95.8735 74.0451 95.8735 73.5435V66.1995C95.8908 66.1822 95.9106 66.1676 95.9266 66.1489C97.1287 64.6965 98.4638 63.7985 99.7451 63.4024C100.573 63.1647 101.348 63.1382 102.015 63.3233C102.657 63.5078 103.164 63.8513 103.538 64.353C103.912 64.8811 104.125 65.5942 104.125 66.4921V73.5171C104.125 74.0454 104.553 74.4675 105.087 74.4675C105.621 74.4675 106.048 74.0454 106.048 73.5171V66.4921C106.048 65.1981 105.701 64.1154 105.087 63.2702C104.446 62.3719 103.538 61.7914 102.496 61.5008Z" fill="white"/>
<path d="M118.839 71.2195C117.958 72.0646 116.783 72.5927 115.474 72.5927C114.167 72.5927 112.964 72.0646 112.11 71.2195C111.255 70.3744 110.721 69.1857 110.721 67.892C110.721 66.5979 111.255 65.4096 112.11 64.5642C112.991 63.719 114.167 63.1913 115.474 63.1913C116.783 63.1913 117.985 63.719 118.839 64.5642C119.694 65.4096 120.229 66.5979 120.229 67.892C120.229 69.1857 119.694 70.3744 118.839 71.2195ZM115.474 61.3164C113.659 61.3164 111.976 62.0555 110.775 63.2437C109.573 64.4322 108.825 66.0694 108.825 67.892C108.825 69.7142 109.573 71.3515 110.775 72.5399C111.976 73.7283 113.633 74.4675 115.474 74.4675C117.317 74.4675 118.973 73.7283 120.175 72.5399C121.376 71.3515 122.124 69.7142 122.124 67.892C122.124 66.0694 121.376 64.4322 120.175 63.2437C118.973 62.0555 117.317 61.3164 115.474 61.3164Z" fill="white"/>
<path d="M135.023 71.2196C134.142 72.0647 132.967 72.5928 131.658 72.5928C130.35 72.5928 129.148 72.0647 128.294 71.2196C127.439 70.3745 126.905 69.1858 126.905 67.8921C126.905 66.598 127.439 65.4097 128.294 64.5643C129.175 63.7191 130.35 63.1914 131.658 63.1914C132.967 63.1914 134.168 63.7191 135.023 64.5643C135.878 65.4097 136.412 66.598 136.412 67.8921C136.412 69.1858 135.878 70.3745 135.023 71.2196ZM131.685 61.3165C129.843 61.3165 128.187 62.0556 126.985 63.2438C126.905 63.2969 126.852 63.3758 126.771 63.4553V62.2665C126.771 61.7384 126.344 61.3165 125.81 61.3165C125.276 61.3165 124.849 61.7384 124.849 62.2665V80.9645C124.849 81.4926 125.276 81.915 125.81 81.915C126.344 81.915 126.771 81.4926 126.771 80.9645V72.3285C126.852 72.3813 126.905 72.4605 126.985 72.54C128.187 73.7283 129.843 74.4676 131.685 74.4676C133.528 74.4676 135.183 73.7283 136.385 72.54C137.587 71.3516 138.335 69.7143 138.335 67.8921C138.335 66.0695 137.587 64.4323 136.385 63.2438C135.183 62.0556 133.528 61.3165 131.685 61.3165Z" fill="white"/>
<path d="M143.222 66.4392C143.462 65.6469 143.916 64.9604 144.477 64.4057C145.252 63.6664 146.266 63.2171 147.361 63.2171C148.456 63.2171 149.471 63.6664 150.245 64.4057C150.806 64.9604 151.233 65.6469 151.527 66.4392H143.222ZM151.581 63.0591C150.485 61.9493 148.99 61.3163 147.361 61.3163C145.732 61.3163 144.21 61.9234 143.142 63.0591C140.845 65.5149 140.872 68.1559 141.78 70.8231C142.181 72.0379 143.035 72.9097 144.023 73.5434C145.011 74.1773 146.213 74.4941 147.574 74.4674C148.91 74.4413 150.406 74.1242 152.008 73.4642C152.489 73.2529 152.729 72.6982 152.515 72.223C152.302 71.7477 151.741 71.5098 151.26 71.7211C149.872 72.3022 148.616 72.5926 147.548 72.5926C146.56 72.5926 145.705 72.3811 145.038 71.959C144.397 71.5362 143.889 70.9287 143.543 70.11C143.355 69.5822 143.195 69.001 143.115 68.3671H151.955C152.436 68.3671 154.011 68.4727 153.183 65.8055C152.863 64.8548 152.489 63.9569 151.581 63.0591Z" fill="white"/>
<path d="M157.802 66.4392C158.043 65.6469 158.496 64.9604 159.057 64.4057C159.832 63.6664 160.847 63.2171 161.942 63.2171C163.036 63.2171 164.051 63.6664 164.825 64.4057C165.386 64.9604 165.813 65.6469 166.107 66.4392H157.802ZM167.763 65.8055C167.443 64.8548 167.069 63.9569 166.161 63.0591C165.066 61.9493 163.57 61.3163 161.942 61.3163C160.313 61.3163 158.79 61.9234 157.722 63.0591C155.425 65.5149 155.452 68.1559 156.36 70.8231C156.761 72.0379 157.615 72.9097 158.603 73.5434C159.592 74.1773 160.793 74.4941 162.155 74.4674C163.49 74.4413 164.985 74.1242 166.588 73.4642C167.069 73.2529 167.309 72.6982 167.095 72.223C166.882 71.7477 166.321 71.5098 165.84 71.7211C164.451 72.3022 163.196 72.5926 162.129 72.5926C161.141 72.5926 160.286 72.3811 159.618 71.959C158.977 71.5362 158.47 70.9287 158.122 70.11C157.935 69.5822 157.776 69.001 157.695 68.3671H166.534C167.015 68.3671 168.591 68.4727 167.763 65.8055Z" fill="white"/>
<path d="M92.7246 98.9872H82.7451V84.6515H91.7511C91.9076 84.6515 92.0597 84.6592 92.2155 84.6765C93.5851 84.8275 99.5761 85.8528 99.5761 92.2043C99.5761 98.9872 92.7246 98.9872 92.7246 98.9872ZM90.9629 79.1797H77.1348V115.757H82.7451V104.84H91.5653C94.5215 104.84 97.4567 104.136 100 102.645C103.025 100.873 106.049 97.7527 106.049 92.3568C106.049 87.2985 103.391 84.087 100.567 82.1023C97.7748 80.1403 94.3886 79.1797 90.9629 79.1797Z" fill="white"/>
<path d="M119.955 110.722C115.362 110.722 111.631 107.039 111.631 102.489C111.631 97.9463 115.362 94.2639 119.955 94.2639C124.552 94.2639 128.274 97.9414 128.279 102.479V102.499C128.274 107.044 124.552 110.722 119.955 110.722ZM128.279 89.7624V92.3358C126.007 90.5048 123.111 89.4093 119.955 89.4093C112.662 89.4093 106.722 95.2764 106.722 102.489C106.722 109.709 112.662 115.576 119.955 115.576C123.111 115.576 126.007 114.48 128.279 112.65V115.577H133.89V89.7624H128.279Z" fill="white"/>
<path d="M136.412 89.4091H143.916L152.721 106.073L161.214 89.4091H167.999L147.812 126.571H141.205L148.903 112.777L136.412 89.4091Z" fill="white"/>
<path d="M32.8849 94.3509L32.8848 94.3508C32.3749 93.9235 32.3719 93.2682 32.875 92.8375C33.4274 92.365 34.3571 92.3603 34.9167 92.8295L34.9168 92.8296C37.121 94.6768 38.7879 95.8772 40.3726 96.4992C41.9895 97.1339 43.487 97.1547 45.3197 96.7335L32.8849 94.3509ZM32.8849 94.3509C37.0227 97.8198 39.7485 99.0708 43.4379 99.0708C44.1264 99.0708 44.8522 99.0273 45.6312 98.9436L45.6314 98.9436C47.1965 98.776 48.8787 97.7296 50.204 96.2267C51.5264 94.7271 52.4225 92.8522 52.4955 91.1298C52.5286 90.3452 52.4015 89.0139 51.4256 87.7347C50.4534 86.4602 48.5829 85.1646 44.9845 84.555L44.9845 84.555C42.793 84.1837 40.9916 83.6806 39.6583 83.0638C38.3474 82.4575 37.3854 81.6932 37.0517 80.7372L37.0517 80.7371C36.8135 80.0546 36.9295 79.314 37.2748 78.61C37.6198 77.9067 38.2079 77.206 38.984 76.5564L39.0013 76.542L39.0198 76.5291C41.3608 74.9045 43.8715 75.1461 45.7696 75.78C47.6638 76.4125 49.0189 77.4556 49.1501 77.5589L49.1513 77.5599C49.7283 78.017 50.6551 77.989 51.1887 77.5082L51.1891 77.5078C51.6745 77.0712 51.6583 76.416 51.1306 75.9951C49.869 74.9895 47.6727 73.7721 45.1282 73.2862C42.5972 72.8029 39.7468 73.0459 37.1078 74.911L37.0156 74.9813C34.5216 77.0414 33.6623 79.3489 34.3504 81.3201L34.3504 81.3202C34.7851 82.566 35.799 83.6644 37.4737 84.5839C39.1512 85.5049 41.4583 86.2266 44.4058 86.726L44.3223 87.219L44.4058 86.726C46.101 87.0133 47.4343 87.4941 48.3426 88.2054C49.2758 88.9362 49.7442 89.9006 49.6954 91.0565L49.6954 91.0566M32.8849 94.3509L49.6954 91.0566M49.6954 91.0566C49.5796 93.7895 47.6069 96.2082 45.3198 96.7335L49.6954 91.0566ZM37.5238 80.5724C38.0528 82.088 40.7319 83.3273 45.068 84.062L51.5234 77.8796C50.8052 78.5269 49.6055 78.5576 48.8408 77.9518C48.6177 77.7761 43.6305 73.9379 39.3049 76.9399C37.8261 78.1776 37.1608 79.5323 37.5238 80.5724Z" fill="#EE3929" stroke="#EE3929"/>
</svg>
