<svg width="225" height="92" viewBox="0 0 225 92" fill="none" xmlns="http://www.w3.org/2000/svg">
<path d="M61.5792 19.2529H19.4492V71.2729H61.5792V19.2529Z" fill="white"/>
<path fill-rule="evenodd" clip-rule="evenodd" d="M100.34 71.6627V17.5227C100.34 16.4027 101.25 15.4927 102.37 15.4927H120.65C130.94 15.6227 139.31 24.0027 139.31 34.1727C139.31 44.3427 130.93 52.7227 120.64 52.8527H107.42V71.6627C107.42 72.7827 106.51 73.6927 105.39 73.6927H102.37C101.25 73.6927 100.34 72.7827 100.34 71.6627ZM107.42 45.5027H120.57C123.65 45.5027 126.55 44.3127 128.72 42.1427C130.9 39.9727 132.1 37.1027 132.1 34.0427C132.1 27.7227 126.94 22.5827 120.6 22.5827H107.42V45.5127V45.5027Z" fill="#EE4D2D"/>
<path fill-rule="evenodd" clip-rule="evenodd" d="M185.92 89.9226L199.76 66.1426L183.19 39.0126C182.69 38.2026 183.28 37.1626 184.23 37.1626H190.94L204.27 58.7826L217.14 37.1626H223.33C224.27 37.1626 224.86 38.1926 224.38 39.0026L193.19 91.7526H186.98C186.04 91.7526 185.45 90.7326 185.93 89.9226H185.92Z" fill="#EE4D2D"/>
<path fill-rule="evenodd" clip-rule="evenodd" d="M170.349 71.3826V68.2526L169.319 69.1126C165.989 71.8826 161.729 73.4126 157.329 73.4126C147.179 73.4126 138.909 65.2826 138.909 55.2826C138.909 45.2826 147.169 37.4326 157.329 37.4326C161.729 37.4326 165.989 38.9626 169.319 41.7326L170.349 42.5926V39.4626C170.349 38.3426 171.259 37.4326 172.379 37.4326H176.599V73.4126H172.379C171.259 73.4126 170.349 72.5026 170.349 71.3826ZM157.279 44.1926C150.899 44.1926 145.709 49.1826 145.709 55.3126C145.709 61.4426 151.009 66.7026 157.279 66.7026C163.549 66.7026 168.859 61.4826 168.859 55.3126C168.859 49.1426 163.669 44.1926 157.279 44.1926Z" fill="#EE4D2D"/>
<path d="M73 15.3827H11.73C9.86 15.3827 8.35 13.8727 8.35 12.0027C8.35 11.1527 9.04 10.4627 9.89 10.4627H64.8C65.65 10.4627 66.34 9.77269 66.34 8.92269V3.38269C66.34 1.40269 64.64 -0.157311 62.66 0.0126888L7.02 4.92269C3.05 5.26269 0 8.59269 0 12.5727V66.0527C0 70.2927 3.44 73.7327 7.68 73.7327H73.01C77.25 73.7327 80.69 70.2927 80.69 66.0527V23.0427C80.69 18.8027 77.25 15.3627 73.01 15.3627M54.08 55.5427C53.6 59.5027 51.18 62.6727 47.44 64.2627C45.36 65.1427 42.56 65.6227 40.35 65.4727C36.91 65.3427 33.67 64.5127 30.69 62.9927C29.6 62.4427 28.01 61.3427 26.81 60.3427C26.54 60.1127 26.4 59.9127 26.66 59.5427C26.94 59.1227 28.05 57.5227 28.22 57.2527C28.46 56.8927 28.84 56.8727 29.2 57.1527C29.25 57.1927 29.61 57.4727 29.68 57.5227C32.55 59.7527 36.25 61.4327 40.37 61.5927C45.56 61.5227 49.32 59.2127 49.99 55.6327C50.73 51.6927 47.58 48.3127 41.53 46.4227C39.6 45.8227 34.76 43.8927 33.87 43.3727C29.65 40.9127 27.68 37.6827 27.96 33.7127C28.39 28.2127 33.53 24.0827 40.04 24.0627C43.13 24.0627 46.04 24.7427 48.62 25.8227C49.57 26.2227 51.34 27.1727 51.98 27.6427C52.42 27.9627 52.39 28.3227 52.21 28.6027C51.95 29.0327 51.19 30.2227 50.88 30.7227C50.65 31.0627 50.38 31.1027 49.98 30.8527C46.65 28.6327 43.22 27.8727 40.13 27.8127C35.68 27.9027 32.32 30.5327 32.1 34.1327C32.04 37.3927 34.53 39.7527 39.82 41.5527C50.73 45.0327 54.87 49.1327 54.08 55.5427Z" fill="#EE4D2D"/>
</svg>
