<svg width="180" height="180" viewBox="0 0 180 180" fill="none" xmlns="http://www.w3.org/2000/svg">
<circle cx="90" cy="90" r="90" fill="white"/>
<path d="M121.634 35.0273L33.8784 46.7343C33.8784 46.7343 30 47.1999 30 51.8555C30 56.5123 30 135.245 30 135.245C30 135.245 30.5097 145 41.6787 145C52.8475 145 141.135 145 141.135 145C141.135 145 150 142.872 150 134.003C150 125.135 150 65.1814 150 65.1814C150 65.1814 150.176 55.4253 138.476 55.4253C126.775 55.4253 42.565 55.4253 42.565 55.4253C42.565 55.4253 38.8421 54.8045 37.8892 50.8805C37.601 49.3287 38.2217 49.1727 39.8614 49.1727C41.5011 49.1727 127.927 49.1727 127.927 49.1727V39.6839C127.927 39.6839 127.618 34.5845 121.634 35.0273Z" fill="#EE3929"/>
<path d="M91.7799 130.849C84.5009 130.849 79.1433 127.883 71.2413 120.058C69.8321 118.663 69.8205 116.389 71.2154 114.979C72.6102 113.569 74.8825 113.557 76.2923 114.953C84.612 123.19 88.4772 125.236 95.1227 123.432C98.9853 122.384 102.452 117.455 102.655 111.805C102.812 107.409 99.7159 104.544 93.4502 103.29C82.2034 101.039 75.5668 96.7349 73.7244 90.4962C72.2393 85.4708 74.1856 79.8634 79.0628 75.1114L79.2647 74.9295C89.7519 66.1587 101.926 72.6935 106.898 77.3752C108.342 78.7353 108.411 81.0076 107.051 82.4521C105.695 83.8963 103.429 83.9649 101.984 82.6132C101.563 82.2213 92.1435 73.6575 83.9738 80.3554C81.1807 83.1171 79.9241 86.1396 80.6096 88.4604C81.6089 91.8419 86.6689 94.607 94.8587 96.2463C108.782 99.0327 109.967 108.235 109.831 112.063C109.532 120.396 102.563 129.732 96.0232 130.559C94.5248 130.749 93.1198 130.849 91.7799 130.849Z" fill="white"/>
</svg>
