<svg width="180" height="180" viewBox="0 0 180 180" fill="none" xmlns="http://www.w3.org/2000/svg">
<rect width="180" height="180" rx="15" fill="white"/>
<path d="M51.0635 142.329V108.187C51.0635 107.477 51.6384 106.91 52.341 106.91H63.8706C70.362 106.997 75.6397 112.275 75.6397 118.695C75.6397 125.114 70.354 130.392 63.8626 130.472H55.5268V142.329C55.5268 143.04 54.9519 143.606 54.2493 143.606H52.349C51.6384 143.606 51.0715 143.032 51.0715 142.329H51.0635ZM55.5268 125.833H63.8227C65.7629 125.833 67.5914 125.082 68.9647 123.717C70.338 122.352 71.0966 120.539 71.0966 118.607C71.0966 114.623 67.8469 111.381 63.8467 111.381H55.5348V125.841L55.5268 125.833Z" fill="#EE4D2D"/>
<path d="M105.031 153.842L113.758 138.847L103.307 121.744C102.995 121.233 103.363 120.579 103.961 120.579H108.193L116.601 134.208L124.721 120.579H128.625C129.224 120.579 129.592 121.225 129.288 121.736L109.622 155H105.702C105.111 155 104.736 154.353 105.039 153.842H105.031Z" fill="#EE4D2D"/>
<path d="M95.2189 142.153V140.181L94.5721 140.724C92.4722 142.472 89.7814 143.439 87.0108 143.439C80.6073 143.439 75.4014 138.312 75.4014 132.005C75.4014 125.697 80.6073 120.747 87.0108 120.747C89.7814 120.747 92.4722 121.713 94.5721 123.461L95.2189 124.004V122.032C95.2189 121.321 95.7938 120.755 96.4964 120.755H99.1552V143.439H96.4964C95.7858 143.439 95.2189 142.864 95.2189 142.161V142.153ZM86.9789 125.002C82.9547 125.002 79.6811 128.148 79.6811 132.013C79.6811 135.877 83.0266 139.199 86.9789 139.199C90.9312 139.199 94.2767 135.909 94.2767 132.013C94.2767 128.116 91.0031 125.002 86.9789 125.002Z" fill="#EE4D2D"/>
<path d="M121.926 39.9357H62.4019C60.5894 39.9357 59.1202 38.4666 59.1202 36.6541C59.1202 35.8317 59.7909 35.161 60.6133 35.161H113.958C114.78 35.161 115.451 34.4903 115.451 33.6679V28.2863C115.451 26.3621 113.798 24.845 111.882 25.0127L57.8188 29.7874C53.9622 30.1228 51 33.3485 51 37.221V89.1841C51 93.3041 54.3375 96.6496 58.4655 96.6496H121.934C126.054 96.6496 129.4 93.3121 129.4 89.1841V47.3932C129.4 43.2732 126.062 39.9277 121.934 39.9277M103.546 78.9639C103.075 82.8125 100.727 85.8945 97.0945 87.4355C95.0744 88.2978 92.3597 88.7529 90.2039 88.6092C86.8584 88.4815 83.7125 87.675 80.8221 86.1979C79.7681 85.6629 78.2191 84.601 77.0534 83.6269C76.7899 83.4033 76.6542 83.2117 76.9097 82.8524C77.1812 82.4452 78.2591 80.8882 78.4267 80.6327C78.6583 80.2814 79.0336 80.2654 79.3769 80.5369C79.4248 80.5768 79.7761 80.8483 79.848 80.8962C82.6346 83.068 86.2356 84.6968 90.2278 84.8485C95.266 84.7766 98.9229 82.533 99.5777 79.0597C100.296 75.2272 97.2382 71.9456 91.3536 70.1091C89.4853 69.5263 84.7744 67.6579 83.9121 67.1469C79.8081 64.7595 77.8998 61.6216 78.1712 57.7651C78.5864 52.4155 83.5767 48.4152 89.9084 48.3833C92.9106 48.3833 95.7371 49.038 98.2443 50.092C99.1705 50.4752 100.887 51.4014 101.502 51.8566C101.933 52.168 101.901 52.5193 101.725 52.7907C101.478 53.2059 100.727 54.3637 100.432 54.8428C100.216 55.1701 99.945 55.2101 99.5537 54.9705C96.312 52.8067 92.9825 52.0801 89.9883 52.0162C85.6607 52.1041 82.403 54.6511 82.1874 58.1563C82.1315 61.3182 84.5508 63.6097 89.6849 65.3663C100.288 68.7518 104.304 72.728 103.546 78.9639Z" fill="#EE4D2D"/>
</svg>
