<svg width="180" height="180" viewBox="0 0 180 180" fill="none" xmlns="http://www.w3.org/2000/svg">
<rect width="180" height="180" rx="15" fill="white"/>
<path d="M118.947 61.2461H61.5137V132.162H118.947V61.2461Z" fill="white"/>
<path d="M134.517 55.9703H50.9908C48.4416 55.9703 46.3831 53.9118 46.3831 51.3626C46.3831 50.2038 47.3237 49.2632 48.4825 49.2632H123.338C124.497 49.2632 125.437 48.3225 125.437 47.1638V39.6114C125.437 36.9122 123.12 34.7855 120.421 35.0173L44.57 41.7108C39.1579 42.1743 35 46.7139 35 52.1396V125.046C35 130.826 39.6896 135.516 45.4697 135.516H134.53C140.31 135.516 145 130.826 145 125.046V66.4128C145 60.6326 140.31 55.9431 134.53 55.9431M108.724 110.718C108.07 116.117 104.771 120.438 99.6722 122.606C96.8367 123.805 93.0196 124.46 90.0068 124.255C85.3173 124.078 80.9004 122.946 76.8379 120.874C75.352 120.124 73.1844 118.625 71.5485 117.262C71.1804 116.948 70.9896 116.675 71.344 116.171C71.7257 115.599 73.2389 113.417 73.4707 113.049C73.7979 112.559 74.3159 112.531 74.8067 112.913C74.8748 112.967 75.3656 113.349 75.461 113.417C79.3735 116.457 84.4175 118.748 90.0341 118.966C97.1093 118.87 102.235 115.721 103.148 110.841C104.157 105.47 99.8631 100.862 91.6154 98.2854C88.9844 97.4674 82.3863 94.8364 81.173 94.1275C75.4201 90.7739 72.7345 86.3706 73.1163 80.9586C73.7024 73.4607 80.7095 67.8305 89.5842 67.8033C93.7966 67.8033 97.7637 68.7303 101.281 70.2026C102.576 70.7479 104.989 72.043 105.861 72.6837C106.461 73.1199 106.42 73.6107 106.175 73.9924C105.82 74.5786 104.784 76.2008 104.362 76.8825C104.048 77.346 103.68 77.4005 103.135 77.0597C98.5952 74.0333 93.9193 72.9972 89.7069 72.9154C83.6405 73.0381 79.06 76.6234 78.7601 81.5311C78.6783 85.9753 82.0728 89.1925 89.2843 91.6464C104.157 96.3904 109.801 101.98 108.724 110.718Z" fill="#EE4D2D"/>
</svg>
