<svg width="180" height="180" viewBox="0 0 180 180" fill="none" xmlns="http://www.w3.org/2000/svg">
<circle cx="90" cy="90" r="90" fill="#EE4D2D"/>
<path d="M53.8775 70.7183H23.8584V107.784H53.8775V70.7183Z" fill="#EE4D2D"/>
<path fill-rule="evenodd" clip-rule="evenodd" d="M81.4951 108.062V69.4855C81.4951 68.6875 82.1435 68.0391 82.9416 68.0391H95.9667C103.299 68.1317 109.263 74.1027 109.263 81.3492C109.263 88.5957 103.292 94.5667 95.9596 94.6594H86.5399V108.062C86.5399 108.86 85.8914 109.509 85.0934 109.509H82.9416C82.1435 109.509 81.4951 108.86 81.4951 108.062ZM86.5399 89.4222H95.9097C98.1043 89.4222 100.171 88.5743 101.717 87.0281C103.27 85.4819 104.125 83.4369 104.125 81.2566C104.125 76.7534 100.449 73.0909 95.9311 73.0909H86.5399V89.4294V89.4222Z" fill="white"/>
<path fill-rule="evenodd" clip-rule="evenodd" d="M142.474 121.073L152.336 104.129L140.529 84.7982C140.173 84.221 140.593 83.48 141.27 83.48H146.051L155.549 98.885L164.72 83.48H169.13C169.8 83.48 170.22 84.2139 169.878 84.791L147.654 122.377H143.23C142.56 122.377 142.139 121.65 142.481 121.073H142.474Z" fill="white"/>
<path fill-rule="evenodd" clip-rule="evenodd" d="M131.38 107.862V105.632L130.646 106.245C128.273 108.219 125.238 109.309 122.102 109.309C114.87 109.309 108.978 103.516 108.978 96.3906C108.978 89.2653 114.863 83.6719 122.102 83.6719C125.238 83.6719 128.273 84.762 130.646 86.7358L131.38 87.3486V85.1183C131.38 84.3203 132.028 83.6719 132.826 83.6719H135.833V109.309H132.826C132.028 109.309 131.38 108.66 131.38 107.862ZM122.067 88.4886C117.521 88.4886 113.823 92.0442 113.823 96.412C113.823 100.78 117.599 104.528 122.067 104.528C126.534 104.528 130.318 100.808 130.318 96.412C130.318 92.0157 126.62 88.4886 122.067 88.4886Z" fill="white"/>
<path d="M62.015 67.9607H18.358C17.0256 67.9607 15.9497 66.8848 15.9497 65.5523C15.9497 64.9467 16.4413 64.455 17.047 64.455H56.1722C56.7779 64.455 57.2695 63.9634 57.2695 63.3577V59.4103C57.2695 57.9995 56.0582 56.8879 54.6474 57.009L15.002 60.5076C12.1732 60.7498 10 63.1226 10 65.9585V104.065C10 107.086 12.4511 109.537 15.4723 109.537H62.0221C65.0433 109.537 67.4944 107.086 67.4944 104.065V73.4187C67.4944 70.3976 65.0433 67.9464 62.0221 67.9464M48.5339 96.5761C48.1918 99.3977 46.4675 101.656 43.8026 102.789C42.3206 103.416 40.3255 103.758 38.7508 103.652C36.2996 103.559 33.991 102.968 31.8677 101.884C31.091 101.493 29.9581 100.709 29.103 99.9962C28.9107 99.8324 28.8109 99.6899 28.9962 99.4262C29.1957 99.127 29.9866 97.9869 30.1077 97.7945C30.2787 97.538 30.5495 97.5238 30.806 97.7233C30.8416 97.7518 31.0981 97.9513 31.148 97.9869C33.193 99.5758 35.8294 100.773 38.765 100.887C42.4631 100.837 45.1422 99.1911 45.6196 96.6402C46.1469 93.8328 43.9024 91.4245 39.5916 90.0778C38.2164 89.6502 34.7677 88.2751 34.1335 87.9045C31.1266 86.1517 29.723 83.8502 29.9225 81.0215C30.2289 77.1025 33.8913 74.1597 38.5299 74.1455C40.7316 74.1455 42.8051 74.63 44.6434 75.3996C45.3203 75.6846 46.5815 76.3615 47.0375 76.6964C47.3511 76.9244 47.3297 77.1809 47.2014 77.3804C47.0162 77.6868 46.4746 78.5347 46.2537 78.891C46.0899 79.1332 45.8975 79.1617 45.6125 78.9836C43.2397 77.4018 40.7957 76.8603 38.594 76.8175C35.4232 76.8816 33.0291 78.7556 32.8724 81.3207C32.8296 83.6436 34.6038 85.3252 38.3731 86.6077C46.1469 89.0873 49.0968 92.0087 48.5339 96.5761Z" fill="white"/>
</svg>
