<svg width="800" height="150" viewBox="0 0 800 150" fill="none" xmlns="http://www.w3.org/2000/svg">
<rect width="800" height="150" rx="15" fill="white"/>
<path d="M89.0625 39.0625V110.938H160.938V39.0625H89.0625ZM75 25H175V125H75V25ZM96.875 100.938L135 49.0625H153.125L115 100.938H96.875Z" fill="#1E2A78"/>
<path fill-rule="evenodd" clip-rule="evenodd" d="M225 100.255V49H246.923C253.899 49 259.13 51.737 263.116 57.2103C266.355 61.9376 268.1 67.6612 268.1 74.6265C268.1 81.3444 266.355 87.3153 262.617 92.2921C258.631 97.5188 253.4 100.255 246.923 100.255H225ZM235.712 58.2062V91.0485H245.675C249.662 91.0485 252.404 89.307 254.395 86.0721C256.141 83.0874 256.888 79.3556 256.888 74.6265C256.888 70.6473 256.141 66.9141 254.395 63.9279C252.404 59.9473 249.413 58.2062 245.675 58.2062H235.712ZM298.99 88.3112H308.954C308.208 92.5409 305.966 95.5256 302.477 98.0167C299.489 100.006 295.751 101 291.268 101C286.035 101 281.802 99.0112 278.563 95.2783C275.073 91.5465 273.33 86.8173 273.33 80.8465C273.33 75.6223 275.073 71.1453 278.312 67.6612C281.802 64.1771 286.035 62.1868 291.268 62.1868C298.741 62.1868 303.724 64.9238 306.466 70.1494C307.461 71.8909 308.208 74.1285 308.707 76.3694C309.205 78.8576 309.453 81.3444 309.453 84.0818H283.544C283.544 86.0721 284.292 87.8147 285.537 89.5547C287.282 91.5465 289.026 92.5409 291.268 92.5409C293.011 92.5409 294.753 92.0444 296.001 91.5465C297.494 90.8008 298.493 89.805 298.99 88.3112ZM283.544 77.6126H298.99C298.99 75.8715 298.242 74.1285 296.748 72.8853C295.006 71.393 293.261 70.6473 291.268 70.6473C289.273 70.6473 287.53 71.393 286.035 72.8853C284.292 74.1285 283.544 75.8715 283.544 77.6126ZM315.682 62.9335H325.647V87.5659C325.647 88.8091 326.394 90.0527 327.392 91.0485C328.635 92.0444 330.131 92.5409 331.627 92.5409C333.618 92.5409 335.364 92.0444 336.856 90.8008C338.352 89.307 339.1 87.8147 339.1 86.0721V62.9335H348.815V100.255H339.1V95.5256C336.11 99.2589 332.373 101 327.89 101C324.651 101 321.91 100.006 319.668 98.5132C317.175 96.7721 315.682 94.2824 315.682 91.2977V62.9335ZM368.497 52.2349V62.9335H374.228V69.9006H368.497V89.0582C368.497 89.805 368.994 90.5506 369.494 91.0485C369.992 91.5465 370.738 91.7967 371.735 91.7967C372.232 91.7967 372.731 91.7967 373.231 91.7967C373.728 91.5465 373.977 91.5465 374.228 91.5465V100.255C372.982 100.505 371.735 100.753 370.989 100.753C369.992 101 368.746 101 367.003 101C364.51 101 362.768 100.255 361.024 98.5132C359.528 97.0194 358.782 95.2783 358.782 93.0403V69.9006H353.798V62.9335H358.782V57.9556L368.497 52.2349ZM378.463 87.5659H388.427C388.427 89.307 388.926 90.8008 390.419 91.7967C391.667 92.79 393.409 93.2865 395.403 93.2865C397.148 93.2865 398.639 93.0403 399.637 92.5409C400.885 92.0444 401.631 90.8008 401.631 89.307C401.631 87.3153 399.887 85.8244 395.9 84.8285C389.424 83.0874 385.687 82.093 385.188 81.5936C381.203 79.8535 379.209 77.3653 379.209 73.8812C379.209 70.3985 380.703 67.6612 383.446 65.4203C386.185 63.1812 389.923 62.1868 394.406 62.1868C398.89 62.1868 402.377 63.1812 405.369 65.1744C408.607 67.412 410.35 70.3985 410.35 74.6265H401.134C400.885 73.1327 400.135 71.8909 398.89 71.1452C397.645 70.3985 396.151 69.9006 394.406 69.9006C392.911 69.9006 391.667 70.3985 390.669 70.895C389.674 71.6417 389.175 72.3888 389.175 73.632C389.175 75.1244 391.168 76.3694 394.905 77.1161C400.634 78.1095 404.372 78.8576 405.617 79.6033C409.604 81.3444 411.595 84.3306 411.595 88.5618C411.595 92.7901 409.852 96.025 406.365 98.0167C403.375 100.006 399.887 101 395.403 101C390.419 101 386.434 99.7568 383.195 97.2686C379.957 95.0291 378.463 91.7967 378.463 87.5659ZM434.765 101C429.533 101 425.298 99.0112 421.811 95.2783C418.573 91.5465 416.829 86.8173 416.829 80.8465C416.829 75.8715 418.573 71.393 422.058 67.6612C425.548 64.1771 429.782 62.1868 434.765 62.1868C439.249 62.1868 443.235 63.6806 446.474 66.4161C449.961 68.9047 451.706 72.3888 451.706 76.3694H441.739C441.739 74.6265 440.993 73.3832 439.748 72.3888C438.253 71.1453 436.758 70.6473 434.765 70.6473C432.273 70.6473 430.53 71.6417 429.034 73.632C427.789 75.3735 427.041 77.8618 427.041 80.8465C427.041 84.3306 427.789 87.068 429.034 89.307C430.53 91.2977 432.273 92.5409 434.765 92.5409C436.51 92.5409 438.253 91.7967 439.497 90.5506C440.993 89.307 441.739 88.0638 441.739 86.3209H451.706C451.706 90.5506 449.961 94.2824 446.474 97.0194C442.987 99.5091 439.249 101 434.765 101ZM458.182 49H468.148V66.9141C469.394 65.1744 471.138 63.9279 473.131 63.1812C475.122 62.6847 477.366 62.1868 479.608 62.1868C482.847 62.1868 485.836 63.1812 488.329 65.1744C490.819 66.9141 492.064 69.6515 492.064 72.6347V100.255H482.349V76.8659C482.349 74.8771 481.599 73.3832 480.602 72.3888C479.608 71.393 478.114 70.895 476.369 70.895C474.376 70.895 472.381 71.393 470.64 72.6347C469.145 73.8812 468.148 75.3735 468.148 77.3653V100.255H458.182V49ZM524.202 88.3112H533.918C533.171 92.5409 530.928 95.5256 527.44 98.0167C524.451 100.006 520.713 101 516.479 101C511.248 101 507.013 99.0112 503.524 95.2783C500.037 91.5465 498.541 86.8173 498.541 80.8465C498.541 75.6223 500.037 71.1453 503.524 67.6612C506.762 64.1771 511.248 62.1868 516.479 62.1868C523.703 62.1868 528.685 64.9238 531.428 70.1494C532.672 71.8909 533.42 74.1285 533.918 76.3694C534.416 78.8576 534.416 81.3444 534.416 84.0818H508.508C508.508 86.0721 509.255 87.8147 510.749 89.5547C512.243 91.5465 514.236 92.5409 516.479 92.5409C518.222 92.5409 519.718 92.0444 521.213 91.5465C522.457 90.8008 523.454 89.805 524.202 88.3112ZM508.508 77.6126H524.202C524.202 75.8715 523.205 74.1285 521.71 72.8853C520.216 71.393 518.473 70.6473 516.479 70.6473C514.487 70.6473 512.493 71.393 510.997 72.8853C509.502 74.1285 508.508 75.8715 508.508 77.6126ZM559.08 100.255V49H585.236C588.975 49 592.213 50.2432 594.704 52.9806C597.445 55.7165 598.939 58.9515 598.939 62.9335C598.939 65.1744 598.439 67.1618 597.445 69.1535C596.198 71.1452 594.457 72.6347 592.463 73.632C594.954 74.6264 596.945 76.3694 598.692 78.3597C600.186 80.5992 600.933 82.8368 600.933 85.3265C600.933 89.5547 599.436 93.0403 596.698 95.7762C593.957 98.7609 590.965 100.255 586.98 100.255H559.08ZM569.542 58.2062V69.1535H582.252C583.993 69.1535 585.487 68.6556 586.73 67.6612C587.978 66.6653 588.478 65.4203 588.478 63.9279C588.478 62.1868 587.978 60.9432 586.73 59.7C585.487 58.7041 584.239 58.2062 582.499 58.2062H569.542ZM569.542 78.3597V91.0485H582.995C584.99 91.0485 586.484 90.5506 587.978 89.0582C589.225 87.8147 589.972 86.3209 589.972 84.5797C589.972 82.8368 589.225 81.3444 587.978 80.1012C586.484 78.8576 584.99 78.3597 582.995 78.3597H569.542ZM618.374 74.1285H608.406C608.406 70.1494 610.15 67.1618 613.388 64.9238C616.38 63.1812 619.864 62.1868 624.1 62.1868C629.832 62.1868 634.067 63.1812 636.805 64.9238C639.05 66.6653 640.293 68.6556 640.293 71.393V94.2824C640.293 96.5229 641.044 98.5132 642.538 100.255H632.323C631.823 99.5091 631.326 99.0112 631.08 98.263C630.826 97.7665 630.579 97.0194 630.329 96.025C629.085 97.7665 627.341 99.0112 625.347 99.7568C623.603 100.505 621.362 101 618.621 101C615.133 101 612.391 99.7568 610.401 97.7665C608.156 95.5256 606.912 92.79 606.912 89.805C606.912 86.8174 607.91 84.0818 609.654 82.0929C611.398 80.1012 613.889 78.8576 617.127 78.3597C622.856 77.3653 625.597 76.8659 625.847 76.8659C628.835 76.1203 630.329 75.1244 630.329 74.1285C630.329 72.6347 629.832 71.393 628.585 70.895C627.588 70.1494 626.094 69.9006 624.1 69.9006C622.359 69.9006 621.112 70.3985 619.865 70.895C618.871 71.6417 618.374 72.6347 618.374 74.1285ZM630.329 87.5659V81.8423C627.091 82.3403 624.6 83.0874 622.606 83.5839C618.871 84.5797 617.127 86.3209 617.127 88.5618C617.127 90.3029 617.377 91.2977 618.374 92.0444C619.368 92.79 620.615 93.0403 622.359 93.0403C624.1 93.0403 625.847 92.5409 627.341 91.5465C628.835 90.8008 629.832 89.307 630.329 87.5659ZM649.014 62.9335H658.978V67.1618C660.222 65.6709 661.719 64.4259 663.714 63.4314C665.954 62.6847 667.949 62.1868 669.693 62.1868C673.181 62.1868 675.919 63.1812 678.41 64.6764C680.904 66.6653 682.398 69.1535 682.398 72.1411V100.255H672.434V75.6223C672.434 74.1285 671.937 72.8853 670.94 72.1411C669.693 71.1452 668.445 70.895 666.952 70.895C664.957 70.895 663.463 71.1453 662.22 71.8909C660.972 72.8853 659.975 73.8812 658.978 75.6223V100.255H649.014V62.9335ZM690.368 49H700.336V76.3694L711.794 62.9335H723.753L711.544 77.1161L725 100.255H713.288L704.821 84.3306L700.336 89.0582V100.255H690.368V49Z" fill="#1E2A78"/>
</svg>
