<svg width="500" height="350" viewBox="0 0 500 350" fill="none" xmlns="http://www.w3.org/2000/svg">
<rect width="500" height="350" rx="15" fill="#1E2A78"/>
<path d="M206.875 91.875V178.125H293.125V91.875H206.875ZM190 75H310V195H190V75ZM216.25 166.125L262 103.875H283.75L238 166.125H216.25Z" fill="white"/>
<path fill-rule="evenodd" clip-rule="evenodd" d="M50 274.398V233H67.5385C73.1192 233 77.3036 235.211 80.4924 239.631C83.0837 243.45 84.4799 248.072 84.4799 253.698C84.4799 259.124 83.0837 263.947 80.0936 267.967C76.9047 272.188 72.7204 274.398 67.5385 274.398H50ZM58.5698 240.436V266.962H66.5402C69.7299 266.962 71.9235 265.556 73.5157 262.943C74.9128 260.532 75.51 257.518 75.51 253.698C75.51 250.484 74.9128 247.469 73.5157 245.057C71.9235 241.842 69.5305 240.436 66.5402 240.436H58.5698ZM109.192 264.751H117.163C116.566 268.168 114.773 270.578 111.982 272.59C109.591 274.197 106.6 275 103.014 275C98.8283 275 95.4417 273.394 92.8501 270.379C90.0581 267.364 88.6643 263.545 88.6643 258.722C88.6643 254.503 90.0581 250.887 92.6497 248.072C95.4417 245.258 98.8283 243.651 103.014 243.651C108.993 243.651 112.979 245.862 115.173 250.082C115.969 251.489 116.566 253.296 116.965 255.106C117.364 257.116 117.562 259.124 117.562 261.335H96.8352C96.8352 262.943 97.4336 264.35 98.4295 265.756C99.8256 267.364 101.221 268.168 103.014 268.168C104.409 268.168 105.803 267.767 106.801 267.364C107.995 266.762 108.794 265.958 109.192 264.751ZM96.8352 256.11H109.192C109.192 254.704 108.594 253.296 107.398 252.292C106.005 251.087 104.608 250.484 103.014 250.484C101.419 250.484 100.024 251.087 98.8283 252.292C97.4336 253.296 96.8352 254.704 96.8352 256.11ZM122.546 244.254H130.517V264.149C130.517 265.154 131.116 266.158 131.913 266.962C132.908 267.767 134.105 268.168 135.301 268.168C136.895 268.168 138.292 267.767 139.485 266.762C140.682 265.556 141.28 264.35 141.28 262.943V244.254H149.052V274.398H141.28V270.578C138.888 273.594 135.898 275 132.312 275C129.721 275 127.528 274.197 125.734 272.991C123.74 271.585 122.546 269.574 122.546 267.164V244.254ZM164.798 235.613V244.254H169.382V249.881H164.798V265.355C164.798 265.958 165.196 266.56 165.595 266.962C165.993 267.364 166.59 267.567 167.388 267.567C167.786 267.567 168.184 267.567 168.584 267.567C168.982 267.364 169.182 267.364 169.382 267.364V274.398C168.385 274.6 167.388 274.8 166.791 274.8C165.993 275 164.997 275 163.602 275C161.608 275 160.214 274.398 158.819 272.991C157.623 271.785 157.025 270.379 157.025 268.571V249.881H153.038V244.254H157.025V240.233L164.798 235.613ZM172.77 264.149H180.742C180.742 265.556 181.141 266.762 182.335 267.567C183.333 268.369 184.727 268.77 186.323 268.77C187.718 268.77 188.911 268.571 189.709 268.168C190.708 267.767 191.305 266.762 191.305 265.556C191.305 263.947 189.91 262.743 186.72 261.938C181.539 260.532 178.549 259.729 178.15 259.326C174.963 257.92 173.367 255.91 173.367 253.096C173.367 250.283 174.563 248.072 176.757 246.263C178.948 244.454 181.938 243.651 185.525 243.651C189.112 243.651 191.902 244.454 194.295 246.064C196.885 247.871 198.28 250.283 198.28 253.698H190.907C190.708 252.492 190.108 251.489 189.112 250.887C188.116 250.283 186.921 249.881 185.525 249.881C184.329 249.881 183.333 250.283 182.536 250.684C181.739 251.288 181.34 251.891 181.34 252.895C181.34 254.1 182.934 255.106 185.924 255.709C190.507 256.511 193.497 257.116 194.493 257.718C197.683 259.124 199.276 261.536 199.276 264.954C199.276 268.369 197.881 270.982 195.092 272.59C192.7 274.197 189.91 275 186.323 275C182.335 275 179.147 273.996 176.556 271.986C173.966 270.177 172.77 267.567 172.77 264.149ZM217.812 275C213.626 275 210.238 273.394 207.448 270.379C204.858 267.364 203.463 263.545 203.463 258.722C203.463 254.704 204.858 251.087 207.647 248.072C210.439 245.258 213.825 243.651 217.812 243.651C221.399 243.651 224.588 244.857 227.179 247.067C229.969 249.077 231.365 251.891 231.365 255.106H223.391C223.391 253.698 222.794 252.694 221.798 251.891C220.603 250.887 219.406 250.484 217.812 250.484C215.819 250.484 214.424 251.288 213.227 252.895C212.231 254.302 211.633 256.311 211.633 258.722C211.633 261.536 212.231 263.747 213.227 265.556C214.424 267.164 215.819 268.168 217.812 268.168C219.208 268.168 220.603 267.567 221.598 266.56C222.794 265.556 223.391 264.552 223.391 263.144H231.365C231.365 266.56 229.969 269.574 227.179 271.785C224.39 273.796 221.399 275 217.812 275ZM236.546 233H244.518V247.469C245.515 246.064 246.91 245.057 248.505 244.454C250.098 244.053 251.893 243.651 253.686 243.651C256.278 243.651 258.669 244.454 260.663 246.064C262.655 247.469 263.651 249.68 263.651 252.09V274.398H255.879V255.507C255.879 253.901 255.28 252.694 254.482 251.891C253.686 251.087 252.491 250.684 251.095 250.684C249.501 250.684 247.905 251.087 246.512 252.09C245.316 253.096 244.518 254.302 244.518 255.91V274.398H236.546V233ZM289.361 264.751H297.135C296.537 268.168 294.743 270.578 291.952 272.59C289.561 274.197 286.571 275 283.183 275C278.998 275 275.61 273.394 272.819 270.379C270.029 267.364 268.833 263.545 268.833 258.722C268.833 254.503 270.029 250.887 272.819 248.072C275.41 245.258 278.998 243.651 283.183 243.651C288.963 243.651 292.948 245.862 295.143 250.082C296.138 251.489 296.736 253.296 297.135 255.106C297.532 257.116 297.532 259.124 297.532 261.335H276.807C276.807 262.943 277.404 264.35 278.599 265.756C279.795 267.364 281.389 268.168 283.183 268.168C284.578 268.168 285.774 267.767 286.971 267.364C287.966 266.762 288.763 265.958 289.361 264.751ZM276.807 256.11H289.361C289.361 254.704 288.564 253.296 287.368 252.292C286.173 251.087 284.778 250.484 283.183 250.484C281.59 250.484 279.994 251.087 278.798 252.292C277.602 253.296 276.807 254.704 276.807 256.11ZM317.264 274.398V233H338.189C341.18 233 343.77 234.004 345.763 236.215C347.956 238.425 349.151 241.038 349.151 244.254C349.151 246.064 348.751 247.669 347.956 249.278C346.958 250.887 345.566 252.09 343.97 252.895C345.963 253.698 347.556 255.106 348.954 256.714C350.149 258.522 350.747 260.33 350.747 262.341C350.747 265.756 349.549 268.571 347.358 270.781C345.165 273.192 342.772 274.398 339.584 274.398H317.264ZM325.634 240.436V249.278H335.802C337.194 249.278 338.389 248.876 339.384 248.072C340.382 247.268 340.782 246.263 340.782 245.057C340.782 243.651 340.382 242.646 339.384 241.642C338.389 240.838 337.391 240.436 335.999 240.436H325.634ZM325.634 256.714V266.962H336.396C337.992 266.962 339.187 266.56 340.382 265.355C341.38 264.35 341.977 263.144 341.977 261.737C341.977 260.33 341.38 259.124 340.382 258.12C339.187 257.116 337.992 256.714 336.396 256.714H325.634ZM364.699 253.296H356.725C356.725 250.082 358.12 247.669 360.711 245.862C363.104 244.454 365.892 243.651 369.28 243.651C373.866 243.651 377.254 244.454 379.444 245.862C381.24 247.268 382.235 248.876 382.235 251.087V269.574C382.235 271.384 382.835 272.991 384.03 274.398H375.859C375.458 273.796 375.061 273.394 374.864 272.789C374.661 272.388 374.463 271.785 374.263 270.982C373.268 272.388 371.873 273.394 370.278 273.996C368.882 274.6 367.09 275 364.897 275C362.106 275 359.913 273.996 358.321 272.388C356.525 270.578 355.53 268.369 355.53 265.958C355.53 263.545 356.328 261.335 357.723 259.729C359.118 258.12 361.111 257.116 363.701 256.714C368.285 255.91 370.478 255.507 370.678 255.507C373.068 254.905 374.263 254.1 374.263 253.296C374.263 252.09 373.866 251.087 372.868 250.684C372.07 250.082 370.875 249.881 369.28 249.881C367.887 249.881 366.889 250.283 365.892 250.684C365.097 251.288 364.699 252.09 364.699 253.296ZM374.263 264.149V259.527C371.673 259.929 369.68 260.532 368.085 260.933C365.097 261.737 363.701 263.144 363.701 264.954C363.701 266.36 363.902 267.164 364.699 267.767C365.494 268.369 366.492 268.571 367.887 268.571C369.28 268.571 370.678 268.168 371.873 267.364C373.068 266.762 373.866 265.556 374.263 264.149ZM389.211 244.254H397.182V247.669C398.177 246.465 399.375 245.459 400.971 244.656C402.764 244.053 404.359 243.651 405.754 243.651C408.545 243.651 410.735 244.454 412.728 245.662C414.723 247.268 415.919 249.278 415.919 251.691V274.398H407.947V254.503C407.947 253.296 407.55 252.292 406.752 251.691C405.754 250.887 404.756 250.684 403.561 250.684C401.966 250.684 400.771 250.887 399.776 251.489C398.778 252.292 397.98 253.096 397.182 254.503V274.398H389.211V244.254ZM422.295 233H430.269V255.106L439.435 244.254H449.002L439.235 255.709L450 274.398H440.63L433.857 261.536L430.269 265.355V274.398H422.295V233Z" fill="white"/>
</svg>
