<svg width="136" height="120" viewBox="0 0 136 120" fill="none" xmlns="http://www.w3.org/2000/svg">
<path d="M37.0571 1.6396C31.3931 5.47961 5.37706 27.0796 3.16906 29.7676C-1.53494 35.3356 -0.958941 44.7436 4.60906 50.5996L6.62506 52.7116L4.51306 57.5116C2.01706 63.3676 2.01706 66.5356 4.32106 71.6236C6.43306 76.1356 7.96906 77.3836 21.9851 85.0636L32.2571 90.7276V98.1196C32.2571 107.624 34.1771 112.616 39.2651 116.264C43.0091 118.952 43.4891 119.048 54.0491 119.048C68.7371 119.048 73.1531 117.032 75.9371 108.968L77.0891 105.416H83.7131C89.9531 105.416 90.3371 105.512 90.9131 107.816C91.9691 111.752 95.3291 115.784 98.8811 117.512C101.281 118.664 105.025 119.048 113.185 119.048C122.977 119.048 124.513 118.856 127.393 116.84C129.121 115.688 131.617 113.192 132.865 111.368L135.073 108.104L134.785 69.7036L134.497 31.2076L132.193 27.9436C128.545 22.7596 123.649 21.1276 111.841 21.1276C102.913 21.1276 101.185 21.4156 96.7691 23.6236C93.9851 24.9676 90.8171 27.3676 89.6651 28.9996L87.6491 31.9756L84.5771 23.1436C81.0251 12.8716 77.3771 8.4556 71.2331 6.72761C68.1611 5.86361 66.1451 5.86361 63.3611 6.63161C59.9051 7.59161 59.4251 7.49561 56.7371 4.90361C55.2011 3.36761 52.8971 1.6396 51.7451 1.06361C48.4811 -0.56839 39.7451 -0.280396 37.0571 1.6396ZM49.0571 4.80761C50.4011 5.28761 52.9931 7.3036 54.8171 9.3196C57.9851 12.7756 58.0811 12.7756 61.8251 11.7196C67.2971 10.0876 69.9851 10.2796 73.6331 12.7756C76.4171 14.5996 77.4731 16.6156 81.2171 26.8876C83.9051 34.2796 86.1131 38.9836 86.9771 39.0796C87.8411 39.2716 89.7611 37.3516 91.5851 34.5676C96.4811 26.8876 98.8811 25.9276 112.033 25.9276C122.017 25.9276 123.457 26.1196 125.857 28.0396C130.945 32.0716 131.137 33.5116 131.137 70.7596C131.137 109.352 130.945 110.216 124.417 113.48C120.001 115.784 105.505 115.88 101.281 113.768C97.3451 111.656 94.6571 106.952 94.6571 101.96C94.6571 96.7756 92.8331 95.9116 88.8011 99.2716C85.0571 102.44 82.1771 102.44 78.4331 99.2716C74.2091 95.8156 72.5771 96.7756 72.5771 102.632C72.5771 106.28 72.0011 108.008 70.1771 110.216C66.5291 114.536 63.2651 115.4 52.9931 115.016C44.0651 114.728 43.6811 114.632 40.7051 111.56C37.6331 108.488 37.5371 108.2 37.0571 98.3116L36.5771 88.1356L24.5771 81.5116C17.9531 77.8636 11.4251 73.5436 9.88906 72.0076C6.72106 68.4556 6.43306 63.0796 9.21706 57.6076C10.2731 55.4956 11.1371 53.3836 11.1371 52.8076C11.1371 52.3276 9.60106 49.9276 7.77706 47.4316C4.03306 42.6316 3.45706 38.3116 5.76106 33.7996C7.10506 31.3036 37.4411 5.95961 40.7051 4.61561C43.1051 3.65561 46.1771 3.75161 49.0571 4.80761Z" fill="#11B14B"/>
<path d="M28.3214 24.2956C19.6814 31.3036 12.4814 37.7356 12.2894 38.5996C12.0014 40.1356 38.7854 74.4076 39.6494 73.6396C39.8414 73.4476 36.8654 64.1356 33.0254 52.9996L26.0174 32.7436L27.9374 30.1516C29.3774 28.2316 32.7374 26.5996 41.1854 23.6236C47.3294 21.5116 52.4174 19.4956 52.4174 19.2076C52.4174 18.1516 45.8894 11.5276 44.9294 11.5276C44.4494 11.5276 36.9614 17.2876 28.3214 24.2956Z" fill="#11B14B"/>
<path d="M49.0572 24.3916C39.6492 27.7516 31.3932 31.2076 30.8172 32.0716C30.1452 33.2236 31.2012 37.4476 35.1372 48.9676C38.0172 57.4156 40.6092 64.3276 40.8972 64.3276C41.1852 64.3276 41.3772 57.6076 41.3772 49.4476C41.3772 35.3356 41.4732 34.4716 43.5852 32.4556C45.5052 30.5356 46.8492 30.2476 54.6252 29.9596C66.5292 29.5756 68.5452 30.7276 74.8812 40.9996C77.5692 45.3196 79.8732 48.6796 80.0652 48.5836C80.4492 48.1036 70.6572 20.8396 69.5052 19.4956C68.9292 18.8236 67.9692 18.2476 67.3932 18.3436C66.8172 18.3436 58.5612 21.1276 49.0572 24.3916Z" fill="#11B14B"/>
<path d="M45.8893 34.7596C45.0253 35.6236 44.7373 44.8396 44.7373 70.1836C44.7373 100.136 44.9293 104.744 46.2733 105.992C48.0013 107.72 60.4813 108.2 62.9773 106.568C64.1293 105.896 64.5133 102.056 64.8973 86.2156L65.3773 66.7276L74.3053 79.9756C79.2013 87.2716 83.6173 92.9356 84.0973 92.6476C84.4813 92.3596 88.7053 86.4076 93.4093 79.3996L101.857 66.7276L102.145 85.3516C102.433 107.912 102.241 107.528 112.129 107.528C123.457 107.528 122.497 110.984 122.497 70.1836C122.497 38.7916 122.305 34.6636 120.961 34.1836C120.097 33.8956 115.873 33.6076 111.457 33.6076C105.313 33.6076 103.009 33.9916 101.377 35.3356C100.225 36.1996 96.1933 41.9596 92.4493 48.0076C88.6093 54.0556 84.7693 59.1436 84.0013 59.3356C82.8493 59.5276 80.1613 55.9756 74.9773 47.5276C70.9453 40.9036 66.8173 35.0476 65.8573 34.5676C63.2653 33.2236 47.3293 33.3196 45.8893 34.7596Z" fill="#11B14B"/>
<path d="M17.0895 59.9116C14.2095 65.1916 14.7855 67.1116 19.9695 69.8956C22.2735 71.1436 27.7455 74.1196 32.1615 76.5196C36.5775 79.0156 39.9375 80.4556 39.5535 79.8796C38.3055 77.7676 20.5455 56.1676 19.9695 55.8796C19.5855 55.7836 18.2415 57.6076 17.0895 59.9116Z" fill="#11B14B"/>
</svg>
