<svg width="180" height="180" viewBox="0 0 180 180" fill="none" xmlns="http://www.w3.org/2000/svg">
<rect width="180" height="180" rx="15" fill="white"/>
<path d="M59.0571 31.6396C53.3931 35.4796 27.3771 57.0796 25.1691 59.7676C20.4651 65.3356 21.0411 74.7436 26.6091 80.5996L28.6251 82.7116L26.5131 87.5116C24.0171 93.3676 24.0171 96.5356 26.3211 101.624C28.4331 106.136 29.9691 107.384 43.9851 115.064L54.2571 120.728V128.12C54.2571 137.624 56.1771 142.616 61.2651 146.264C65.0091 148.952 65.4891 149.048 76.0491 149.048C90.7371 149.048 95.1531 147.032 97.9371 138.968L99.0891 135.416H105.713C111.953 135.416 112.337 135.512 112.913 137.816C113.969 141.752 117.329 145.784 120.881 147.512C123.281 148.664 127.025 149.048 135.185 149.048C144.977 149.048 146.513 148.856 149.393 146.84C151.121 145.688 153.617 143.192 154.865 141.368L157.073 138.104L156.785 99.7036L156.497 61.2076L154.193 57.9436C150.545 52.7596 145.649 51.1276 133.841 51.1276C124.913 51.1276 123.185 51.4156 118.769 53.6236C115.985 54.9676 112.817 57.3676 111.665 58.9996L109.649 61.9756L106.577 53.1436C103.025 42.8716 99.3771 38.4556 93.2331 36.7276C90.1611 35.8636 88.1451 35.8636 85.3611 36.6316C81.9051 37.5916 81.4251 37.4956 78.7371 34.9036C77.2011 33.3676 74.8971 31.6396 73.7451 31.0636C70.4811 29.4316 61.7451 29.7196 59.0571 31.6396ZM71.0571 34.8076C72.4011 35.2876 74.9931 37.3036 76.8171 39.3196C79.9851 42.7756 80.0811 42.7756 83.8251 41.7196C89.2971 40.0876 91.9851 40.2796 95.6331 42.7756C98.4171 44.5996 99.4731 46.6156 103.217 56.8876C105.905 64.2796 108.113 68.9836 108.977 69.0796C109.841 69.2716 111.761 67.3516 113.585 64.5676C118.481 56.8876 120.881 55.9276 134.033 55.9276C144.017 55.9276 145.457 56.1196 147.857 58.0396C152.945 62.0716 153.137 63.5116 153.137 100.76C153.137 139.352 152.945 140.216 146.417 143.48C142.001 145.784 127.505 145.88 123.281 143.768C119.345 141.656 116.657 136.952 116.657 131.96C116.657 126.776 114.833 125.912 110.801 129.272C107.057 132.44 104.177 132.44 100.433 129.272C96.2091 125.816 94.5771 126.776 94.5771 132.632C94.5771 136.28 94.0011 138.008 92.1771 140.216C88.5291 144.536 85.2651 145.4 74.9931 145.016C66.0651 144.728 65.6811 144.632 62.7051 141.56C59.6331 138.488 59.5371 138.2 59.0571 128.312L58.5771 118.136L46.5771 111.512C39.9531 107.864 33.4251 103.544 31.8891 102.008C28.7211 98.4556 28.4331 93.0796 31.2171 87.6076C32.2731 85.4956 33.1371 83.3836 33.1371 82.8076C33.1371 82.3276 31.6011 79.9276 29.7771 77.4316C26.0331 72.6316 25.4571 68.3116 27.7611 63.7996C29.1051 61.3036 59.4411 35.9596 62.7051 34.6156C65.1051 33.6556 68.1771 33.7516 71.0571 34.8076Z" fill="#11B14B"/>
<path d="M50.3214 54.2956C41.6814 61.3036 34.4814 67.7356 34.2894 68.5996C34.0014 70.1356 60.7854 104.408 61.6494 103.64C61.8414 103.448 58.8654 94.1356 55.0254 82.9996L48.0174 62.7436L49.9374 60.1516C51.3774 58.2316 54.7374 56.5996 63.1854 53.6236C69.3294 51.5116 74.4174 49.4956 74.4174 49.2076C74.4174 48.1516 67.8894 41.5276 66.9294 41.5276C66.4494 41.5276 58.9614 47.2876 50.3214 54.2956Z" fill="#11B14B"/>
<path d="M71.0572 54.3916C61.6492 57.7516 53.3932 61.2076 52.8172 62.0716C52.1452 63.2236 53.2012 67.4476 57.1372 78.9676C60.0172 87.4156 62.6092 94.3276 62.8972 94.3276C63.1852 94.3276 63.3772 87.6076 63.3772 79.4476C63.3772 65.3356 63.4732 64.4716 65.5852 62.4556C67.5052 60.5356 68.8492 60.2476 76.6252 59.9596C88.5292 59.5756 90.5452 60.7276 96.8812 70.9996C99.5692 75.3196 101.873 78.6796 102.065 78.5836C102.449 78.1036 92.6572 50.8396 91.5052 49.4956C90.9292 48.8236 89.9692 48.2476 89.3932 48.3436C88.8172 48.3436 80.5612 51.1276 71.0572 54.3916Z" fill="#11B14B"/>
<path d="M67.8893 64.7596C67.0253 65.6236 66.7373 74.8396 66.7373 100.184C66.7373 130.136 66.9293 134.744 68.2733 135.992C70.0013 137.72 82.4813 138.2 84.9773 136.568C86.1293 135.896 86.5133 132.056 86.8973 116.216L87.3773 96.7276L96.3053 109.976C101.201 117.272 105.617 122.936 106.097 122.648C106.481 122.36 110.705 116.408 115.409 109.4L123.857 96.7276L124.145 115.352C124.433 137.912 124.241 137.528 134.129 137.528C145.457 137.528 144.497 140.984 144.497 100.184C144.497 68.7916 144.305 64.6636 142.961 64.1836C142.097 63.8956 137.873 63.6076 133.457 63.6076C127.313 63.6076 125.009 63.9916 123.377 65.3356C122.225 66.1996 118.193 71.9596 114.449 78.0076C110.609 84.0556 106.769 89.1436 106.001 89.3356C104.849 89.5276 102.161 85.9756 96.9773 77.5276C92.9453 70.9036 88.8173 65.0476 87.8573 64.5676C85.2653 63.2236 69.3293 63.3196 67.8893 64.7596Z" fill="#11B14B"/>
<path d="M39.0895 89.9116C36.2095 95.1916 36.7855 97.1116 41.9695 99.8956C44.2735 101.144 49.7455 104.12 54.1615 106.52C58.5775 109.016 61.9375 110.456 61.5535 109.88C60.3055 107.768 42.5455 86.1676 41.9695 85.8796C41.5855 85.7836 40.2415 87.6076 39.0895 89.9116Z" fill="#11B14B"/>
</svg>
