<svg width="111" height="22" viewBox="0 0 111 22" fill="none" xmlns="http://www.w3.org/2000/svg">
<path d="M5.68779 0.135294C3.49186 0.427731 1.90061 1.40825 0.998902 3.02524C0.256319 4.3326 0.0017191 5.48514 0.0017191 7.6182C-0.00888924 9.16639 0.0229358 9.44162 0.288144 10.3189C1.00951 12.71 2.37799 13.5357 5.66657 13.5529C7.59729 13.5529 7.92614 13.6905 7.97919 14.4474C8.03223 15.2043 7.72459 15.3419 5.85752 15.4107C4.35114 15.4796 2.32494 15.3075 0.977686 14.9979L0.468486 14.8775V17.819C0.468486 20.7434 0.468486 20.7778 0.712477 20.8638C2.82354 21.6035 7.54424 21.8271 9.95234 21.2767C11.6815 20.8982 13.103 19.7113 13.7819 18.1115C14.9595 15.3419 14.5882 10.6114 13.05 8.95996C12.1907 8.01385 11.6815 7.85903 9.20975 7.72141C7.35329 7.6182 6.90774 7.54939 6.68497 7.30856C6.35611 6.94732 6.33489 6.50006 6.63193 6.05281C6.95018 5.58836 9.24158 5.50234 11.2466 5.88079C12.0528 6.03561 13.0181 6.20763 13.3894 6.27644L14.0472 6.37965V3.71333C14.0472 1.47706 14.0259 1.0126 13.888 0.92659C13.5486 0.720165 9.88869 0.152496 8.37169 0.0664864C7.50181 0.0320816 6.29246 0.049284 5.68779 0.135294Z" fill="black"/>
<path d="M102.139 0.135281C99.9853 0.427715 98.2349 1.56305 97.1104 3.40368C95.8799 5.39912 95.4131 7.48057 95.4131 10.9554C95.4131 14.2754 95.9011 16.4429 97.0468 18.2835C98.6805 20.8982 101.216 21.8787 105.353 21.4831C107.39 21.2938 108.483 21.0186 110.031 20.3133L111.007 19.8661V15.2559V10.6286H108.143H105.279V13.4669V16.3052H104.398C103.221 16.3052 102.521 15.772 102.043 14.5162C101.746 13.7249 101.725 13.5529 101.725 12.0047C101.725 10.4565 101.746 10.2845 102.022 9.64803C102.362 8.83953 103.083 8.16865 103.879 7.89342C104.876 7.54938 108.132 7.68699 110.297 8.15145L110.795 8.25466V4.72824C110.795 1.51145 110.774 1.18461 110.615 1.0986C110.095 0.857767 107.167 0.272898 105.767 0.135281C103.985 -0.0539436 103.528 -0.0367413 102.139 0.135281Z" fill="black"/>
<path d="M15.5322 10.8866V21.1218H22.5337H29.5352V18.4555V15.7892H25.6632H21.7911V14.7571V13.7249H25.6632H29.5352V11.4026V9.08037H25.6632H21.7911V8.04824V7.01612H25.6632H29.5352V3.83373V0.651344H22.5337H15.5322V10.8866Z" fill="black"/>
<path d="M30.4902 10.8866V21.1218H33.4075H36.3248V16.4601C36.3248 13.7937 36.3673 11.8499 36.4203 11.9015C36.4733 11.9531 37.4811 14.0518 38.6587 16.5633L40.8015 21.1218H43.5491H46.2967V10.8866V0.651344H43.3794H40.4621V4.76264C40.4621 7.03332 40.4302 8.92555 40.3878 8.95995C40.3348 9.01156 39.5073 7.17094 38.542 4.88306L36.7916 0.737356L33.6409 0.685749L30.4902 0.651344V10.8866Z" fill="black"/>
<path d="M47.2515 10.8866V21.1218H50.3809H53.5104V17.9394V14.7571H55.2077H56.905V17.9394V21.1218H60.0345H63.164V10.8866V0.651344H60.0345H56.905V4.34979V8.04824H55.2077H53.5104V4.34979V0.651344H50.3809H47.2515V10.8866Z" fill="black"/>
<path d="M64.1187 10.8866V21.1218H71.1202H78.1217V18.4555V15.7892H74.2496H70.3776V14.7571V13.7249H74.2496H78.1217V11.4026V9.08037H74.2496H70.3776V8.04824V7.01612H74.2496H78.1217V3.83373V0.651344H71.1202H64.1187V10.8866Z" fill="black"/>
<path d="M78.8643 10.8866V21.1218H81.7815H84.6988V16.4773C84.6988 13.9142 84.7307 11.8327 84.7837 11.8499C84.8261 11.8499 85.8339 13.9314 87.0327 16.4773L89.2074 21.1218H91.9443H94.6707V10.8866V0.651344H91.7534H88.8361V4.88306C88.8361 7.20534 88.7937 9.06316 88.7406 9.01156C88.6982 8.95995 87.8707 7.05052 86.916 4.77985L85.1762 0.651344H82.0255H78.8643V10.8866Z" fill="black"/>
</svg>
