<svg width="180" height="180" viewBox="0 0 180 180" fill="none" xmlns="http://www.w3.org/2000/svg">
<circle cx="90" cy="90" r="90" fill="#ED1A25"/>
<path d="M76.0785 25.5157C56.3583 27.2812 42.0682 33.2008 33.9705 42.9629C27.3018 50.8557 25.0154 57.8139 25.0154 70.6916C24.9202 80.0383 25.206 81.6999 27.5876 86.9964C34.0658 101.432 46.3552 106.417 75.888 106.521C93.2266 106.521 96.1799 107.352 96.6562 111.921C97.1325 116.491 94.3698 117.321 77.6028 117.737C64.0749 118.152 45.8789 117.114 33.78 115.244L29.2072 114.517V132.276C29.2072 149.931 29.2072 150.139 31.3983 150.658C50.3565 155.124 92.7503 156.474 114.376 153.15C129.904 150.866 142.67 143.7 148.767 134.042C159.342 117.321 156.008 88.7619 142.194 78.7921C134.477 73.0802 129.904 72.1455 107.707 71.3147C91.0355 70.6916 87.0342 70.2762 85.0336 68.8222C82.0804 66.6413 81.8898 63.9411 84.5573 61.241C87.4153 58.437 107.993 57.9177 125.998 60.2025C133.239 61.1371 141.908 62.1757 145.242 62.5911L151.149 63.2142V47.117C151.149 33.6162 150.958 30.8122 149.72 30.2929C146.671 29.0467 113.804 25.6196 100.181 25.1003C92.3692 24.8926 81.5088 24.9964 76.0785 25.5157Z" fill="white"/>
</svg>
