<svg width="500" height="350" viewBox="0 0 500 350" fill="none" xmlns="http://www.w3.org/2000/svg">
<rect width="500" height="350" rx="15" fill="white"/>
<path fill-rule="evenodd" clip-rule="evenodd" d="M307.704 210.689C312.66 211.431 317.852 212.851 322.147 215.501C322.147 221.233 322.151 226.964 322.147 232.696C314.629 227.234 305.353 224.895 296.132 225.355C293.549 225.527 290.595 225.911 288.361 227.331C285.264 229.088 284.404 234.141 286.937 236.699C288.542 238.28 291.029 239.114 293.157 239.734C297.443 240.867 301.805 241.735 306.12 242.747C311.312 243.901 316.605 245.731 320.541 249.452C323.875 252.629 325.543 256.915 326.015 261.437C326.555 266.823 326.053 272.782 323.521 277.654C321.127 282.268 316.951 285.53 312.142 287.363C305.968 289.761 298.77 290.178 292.213 289.942C284.181 289.571 275.154 287.945 268.318 283.473C268.297 277.645 268.314 271.817 268.314 265.988C276.553 272.504 287.653 275.281 298.029 274.59C300.831 274.375 304.169 273.789 306.364 271.893C308.412 270.097 308.868 267.274 308.202 264.728C307.654 262.996 306.343 261.825 304.797 260.973C301.548 259.182 297.797 258.58 294.227 257.691C288.753 256.346 283.426 255.524 278.39 252.827C274.66 250.922 271.517 248.048 269.713 244.23C267.77 240.062 267.547 235.599 267.892 231.086C268.369 226.324 270.059 221.768 273.388 218.266C277.214 214.166 282.52 212.012 287.923 210.933C294.417 209.715 301.177 209.749 307.704 210.689Z" fill="#00599D"/>
<path fill-rule="evenodd" clip-rule="evenodd" d="M101.012 211.384C107.447 211.418 113.886 211.329 120.317 211.426C127.713 225.333 135.181 239.211 142.645 253.08C150.112 239.185 157.546 225.274 165.018 211.384C171.668 211.392 178.318 211.38 184.973 211.388C184.981 237.129 184.968 262.865 184.977 288.606C179.144 288.623 173.312 288.623 167.479 288.606C167.479 271.698 167.496 254.791 167.471 237.883C160.61 250.61 153.736 263.354 146.973 276.132C143.926 276.254 140.866 276.136 137.815 276.195C131.119 263.873 124.544 251.478 117.856 239.147C117.86 255.638 117.865 272.124 117.856 288.61C112.239 288.619 106.625 288.619 101.008 288.61C101.003 262.869 100.991 237.125 101.012 211.384Z" fill="#00599D"/>
<path fill-rule="evenodd" clip-rule="evenodd" d="M198.445 211.384C210.283 211.393 222.129 211.384 233.972 211.388C240.036 211.565 246.429 212.45 251.477 216.083C255.447 218.894 257.689 223.365 258.233 228.132C258.726 232.599 258.368 237.753 255.907 241.647C254.339 244.23 251.987 245.971 249.341 247.332C252.417 248.364 255.241 249.852 257.487 252.237C260.011 254.892 261.444 258.272 262.03 261.858C262.759 266.423 262.494 271.341 260.858 275.69C259.295 279.807 256.21 283.246 252.308 285.286C247.453 287.915 241.936 288.56 236.496 288.619C223.815 288.598 211.13 288.644 198.454 288.594C198.454 262.857 198.471 237.121 198.445 211.384ZM215.968 257.345C221.818 257.29 227.688 257.349 233.542 257.32C236.129 257.286 239.142 257.653 241.355 259.098C243.293 260.379 244.216 262.52 244.288 264.796C244.414 267.038 243.782 269.638 241.987 271.121C240.179 272.613 237.52 273.115 235.236 273.132C228.809 273.119 222.378 273.132 215.951 273.123C215.96 267.868 215.922 262.6 215.968 257.345ZM215.947 226.779C220.971 226.762 225.994 226.775 231.013 226.771C233.394 226.825 235.956 226.935 237.988 228.326C239.395 229.286 240.213 230.766 240.499 232.426C240.988 234.9 240.643 238.225 238.675 240.02C236.53 241.908 233.74 242.068 231.017 242.144C225.994 242.157 220.971 242.157 215.947 242.144C215.947 237.024 215.947 231.899 215.947 226.779Z" fill="#00599D"/>
<path fill-rule="evenodd" clip-rule="evenodd" d="M334.904 211.385C345.929 211.393 356.953 211.385 367.978 211.389C372.348 211.33 376.929 211.625 381.143 212.856C384.586 213.863 387.76 215.447 390.242 218.094C393.331 221.254 394.642 225.507 394.882 229.839C395.122 233.872 394.528 238.423 392.265 241.866C390.68 244.332 388.387 246.043 385.8 247.345C390.069 248.643 393.9 251.243 396.18 255.141C398.881 259.726 399.176 265.104 398.679 270.283C398.085 275.416 395.796 280.241 391.658 283.436C386.618 287.376 380.119 288.472 373.882 288.607C360.894 288.624 347.889 288.615 334.9 288.611C334.896 262.87 334.883 237.125 334.904 211.385ZM352.389 257.324C358.707 257.333 365.028 257.308 371.341 257.337C373.865 257.451 376.929 258.041 378.808 259.87C380.743 261.808 381.101 264.746 380.604 267.329C380.3 269.133 379.293 270.654 377.755 271.636C376.023 272.723 373.798 273.111 371.779 273.128C365.319 273.124 358.854 273.128 352.389 273.128C352.381 267.86 352.381 262.592 352.389 257.324ZM352.389 226.775C357.025 226.767 361.657 226.779 366.292 226.771C368.13 226.754 370.072 226.792 371.872 227.201C373.57 227.605 375.256 228.533 376.149 230.083C377.216 231.874 377.27 234.066 377.076 236.08C376.824 237.989 375.901 239.688 374.249 240.72C372.196 242.001 369.482 242.111 367.135 242.153C362.221 242.149 357.303 242.157 352.389 242.149C352.381 237.024 352.381 231.9 352.389 226.775Z" fill="#00599D"/>
<path fill-rule="evenodd" clip-rule="evenodd" d="M185.153 60.019C200.007 59.9894 214.86 60.019 229.713 60.0071C236.507 66.7715 243.271 73.5711 250.059 80.3354C229.358 101.001 208.693 121.702 188.003 142.379C187.111 143.283 186.105 144.147 185.354 145.17C185.23 145.944 185.165 146.725 185.159 147.517C185.177 160.519 185.183 173.533 185.159 186.542C185.153 187.588 185.272 188.446 185.739 189.392C185.549 189.557 185.366 189.717 185.177 189.882C184.852 185.235 185.088 180.558 185.017 175.899C185.088 164.67 184.864 153.418 185.165 142.195C185.148 114.801 185.165 87.4132 185.153 60.019Z" fill="#00599D"/>
<path fill-rule="evenodd" clip-rule="evenodd" d="M270.198 60.0415C285.099 59.9586 300.04 60.0296 314.947 60.0059C314.953 88.4171 314.947 116.822 314.947 145.233C294.731 125.017 274.515 104.802 254.298 84.5856C252.992 83.2551 251.703 81.919 250.242 80.7482L250.26 80.1332C256.871 73.4045 263.694 66.8708 270.198 60.0415Z" fill="#00599D"/>
<path fill-rule="evenodd" clip-rule="evenodd" d="M250.058 80.3343L250.259 80.1333L250.241 80.7483C250.153 95.5481 250.324 110.366 250.159 125.159C230.262 144.908 210.477 164.817 190.628 184.619C188.996 186.227 187.464 187.889 185.738 189.39C185.271 188.444 185.153 187.587 185.158 186.541C185.182 173.532 185.176 160.518 185.158 147.516C185.164 146.723 185.229 145.943 185.353 145.168C186.105 144.146 187.11 143.282 188.003 142.378C208.692 121.701 229.357 101 250.058 80.3343Z" fill="#939598"/>
<path fill-rule="evenodd" clip-rule="evenodd" d="M250.241 80.749C251.701 81.9198 252.99 83.256 254.297 84.5864C274.513 104.802 294.73 125.018 314.946 145.234C314.94 160.152 314.952 175.076 314.94 190C293.848 168.945 272.793 147.854 251.707 126.786C251.181 126.254 250.667 125.71 250.158 125.16C250.324 110.366 250.152 95.5488 250.241 80.749Z" fill="#29AAE2"/>
</svg>
