<svg width="800" height="150" viewBox="0 0 800 150" fill="none" xmlns="http://www.w3.org/2000/svg">
<rect width="800" height="150" rx="15" fill="white"/>
<path fill-rule="evenodd" clip-rule="evenodd" d="M155.13 20.0155C167.698 19.9904 180.266 20.0155 192.834 20.0054C198.582 25.7291 204.306 31.4827 210.05 37.2063C192.534 54.6925 175.047 72.2087 157.541 89.7047C156.786 90.4702 155.935 91.2007 155.3 92.0662C155.195 92.7216 155.14 93.382 155.135 94.0524C155.15 105.054 155.155 116.067 155.135 127.074C155.13 127.959 155.23 128.685 155.625 129.485C155.465 129.625 155.31 129.76 155.15 129.9C154.875 125.968 155.075 122.01 155.015 118.068C155.075 108.567 154.885 99.0457 155.14 89.5496C155.125 66.3699 155.14 43.1952 155.13 20.0155Z" fill="#00599D"/>
<path fill-rule="evenodd" clip-rule="evenodd" d="M227.091 20.0351C239.699 19.965 252.342 20.0251 264.955 20.005C264.96 44.0454 264.955 68.0805 264.955 92.1209C247.849 75.015 230.743 57.9092 213.637 40.8033C212.532 39.6775 211.441 38.5469 210.205 37.5562L210.22 37.0359C215.814 31.3423 221.587 25.8138 227.091 20.0351Z" fill="#00599D"/>
<path fill-rule="evenodd" clip-rule="evenodd" d="M537.617 28.3056C543.501 29.1862 549.665 30.8723 554.763 34.0192C554.763 40.8235 554.768 47.6279 554.763 54.4322C545.837 47.9481 534.825 45.1713 523.879 45.7167C520.811 45.9218 517.304 46.3771 514.653 48.0631C510.975 50.1495 509.955 56.1483 512.962 59.1853C514.868 61.0615 517.82 62.0521 520.346 62.7876C525.435 64.1334 530.613 65.164 535.736 66.3648C541.9 67.7356 548.184 69.9071 552.857 74.3248C556.814 78.0972 558.796 83.1855 559.356 88.5539C559.996 94.948 559.401 102.022 556.394 107.806C553.552 113.285 548.594 117.157 542.886 119.333C535.556 122.18 527.011 122.675 519.225 122.395C509.69 121.955 498.973 120.024 490.857 114.716C490.833 107.796 490.853 100.877 490.853 93.9573C500.634 101.692 513.812 104.989 526.13 104.169C529.457 103.914 533.42 103.218 536.026 100.967C538.458 98.8355 538.998 95.4833 538.208 92.4614C537.557 90.4051 536.001 89.0143 534.165 88.0035C530.308 85.8771 525.855 85.1617 521.617 84.1061C515.118 82.51 508.794 81.5344 502.815 78.3325C498.387 76.0709 494.655 72.6588 492.514 68.1259C490.207 63.1777 489.942 57.8794 490.352 52.5211C490.918 46.8675 492.924 41.4589 496.876 37.3014C501.419 32.4332 507.718 29.8766 514.132 28.5958C521.842 27.1499 529.867 27.1899 537.617 28.3056Z" fill="#00599D"/>
<path fill-rule="evenodd" clip-rule="evenodd" d="M292.231 29.1308C299.871 29.1708 307.516 29.0658 315.15 29.1809C323.931 45.6913 332.797 62.1668 341.657 78.6322C350.523 62.1367 359.348 45.6212 368.219 29.1308C376.114 29.1408 384.009 29.1259 391.909 29.1358C391.919 59.6953 391.904 90.2496 391.914 120.809C384.99 120.829 378.065 120.829 371.141 120.809C371.141 100.736 371.161 80.6636 371.131 60.5909C362.986 75.7003 354.826 90.8299 346.795 106C343.178 106.145 339.546 106.005 335.924 106.075C327.974 91.4455 320.169 76.7311 312.229 62.0918C312.234 81.6692 312.239 101.242 312.229 120.814C305.559 120.824 298.895 120.824 292.226 120.814C292.221 90.2546 292.206 59.6903 292.231 29.1308Z" fill="#00599D"/>
<path fill-rule="evenodd" clip-rule="evenodd" d="M407.905 29.1313C421.959 29.1413 436.023 29.1313 450.082 29.1363C457.282 29.3465 464.871 30.3971 470.865 34.7099C475.578 38.047 478.24 43.3554 478.885 49.014C479.471 54.3173 479.045 60.4362 476.123 65.0592C474.262 68.1261 471.471 70.1924 468.329 71.8084C471.981 73.0342 475.333 74.8003 478 77.6322C480.997 80.7842 482.698 84.7966 483.393 89.0544C484.259 94.4729 483.944 100.312 482.002 105.475C480.146 110.363 476.484 114.446 471.851 116.867C466.087 119.989 459.538 120.755 453.079 120.825C438.024 120.799 422.965 120.855 407.915 120.795C407.915 90.2402 407.935 59.6857 407.905 29.1313ZM428.708 83.6959C435.653 83.631 442.622 83.701 449.572 83.666C452.644 83.6259 456.221 84.0613 458.848 85.7773C461.149 87.2982 462.245 89.8398 462.33 92.5415C462.48 95.2033 461.729 98.2903 459.598 100.051C457.452 101.823 454.295 102.418 451.583 102.438C443.953 102.423 436.318 102.438 428.689 102.428C428.698 96.1889 428.653 89.935 428.708 83.6959ZM428.683 47.408C434.647 47.388 440.611 47.4029 446.57 47.3979C449.396 47.463 452.438 47.5931 454.85 49.2442C456.521 50.3848 457.492 52.1409 457.832 54.1122C458.412 57.0491 458.002 60.9965 455.666 63.1279C453.119 65.3693 449.807 65.5594 446.575 65.6495C440.611 65.6645 434.647 65.6645 428.683 65.6495C428.683 59.5707 428.683 53.4868 428.683 47.408Z" fill="#00599D"/>
<path fill-rule="evenodd" clip-rule="evenodd" d="M569.909 29.1318C582.997 29.1418 596.085 29.1318 609.173 29.1368C614.362 29.0668 619.8 29.4171 624.803 30.878C628.891 32.0736 632.658 33.9549 635.605 37.0969C639.273 40.8492 640.829 45.8975 641.114 51.0407C641.399 55.8288 640.693 61.2322 638.007 65.3198C636.126 68.2467 633.404 70.2779 630.332 71.8239C635.4 73.365 639.948 76.4519 642.655 81.0798C645.862 86.5232 646.212 92.9074 645.622 99.0562C644.916 105.15 642.199 110.879 637.286 114.671C631.303 119.349 623.588 120.65 616.183 120.81C600.763 120.83 585.323 120.82 569.904 120.815C569.899 90.2556 569.884 59.6913 569.909 29.1318ZM590.667 83.6715C598.167 83.6814 605.671 83.6515 613.166 83.6865C616.163 83.8215 619.8 84.522 622.032 86.6934C624.328 88.9948 624.753 92.4821 624.163 95.549C623.803 97.6903 622.607 99.4966 620.781 100.662C618.724 101.953 616.083 102.413 613.686 102.433C606.016 102.428 598.342 102.433 590.667 102.433C590.657 96.1794 590.657 89.9254 590.667 83.6715ZM590.667 47.4034C596.17 47.3935 601.669 47.4085 607.172 47.3984C609.354 47.3784 611.66 47.4234 613.796 47.9087C615.813 48.3891 617.814 49.4898 618.875 51.3308C620.14 53.4572 620.206 56.059 619.975 58.4505C619.675 60.717 618.579 62.7331 616.618 63.959C614.182 65.48 610.96 65.61 608.173 65.66C602.339 65.6551 596.5 65.665 590.667 65.6551C590.657 59.5712 590.657 53.4873 590.667 47.4034Z" fill="#00599D"/>
<path fill-rule="evenodd" clip-rule="evenodd" d="M210.05 37.2062L210.22 37.0361L210.205 37.5565C210.13 50.0794 210.275 62.6174 210.135 75.1353C193.299 91.846 176.559 108.692 159.763 125.447C158.382 126.808 157.086 128.214 155.625 129.485C155.23 128.684 155.13 127.959 155.135 127.073C155.155 116.066 155.15 105.054 155.135 94.0523C155.14 93.3819 155.195 92.7215 155.3 92.0661C155.935 91.2006 156.786 90.4701 157.541 89.7046C175.048 72.2085 192.534 54.6924 210.05 37.2062Z" fill="#939598"/>
<path fill-rule="evenodd" clip-rule="evenodd" d="M210.205 37.5562C211.441 38.5468 212.531 39.6774 213.637 40.8032C230.743 57.9091 247.849 75.0149 264.954 92.1208C264.949 104.744 264.96 117.372 264.949 130C247.103 112.184 229.287 94.3372 211.445 76.5108C211 76.0605 210.565 75.6003 210.135 75.135C210.275 62.617 210.13 50.0791 210.205 37.5562Z" fill="#29AAE2"/>
</svg>
