<svg width="180" height="180" viewBox="0 0 180 180" fill="none" xmlns="http://www.w3.org/2000/svg">
<circle cx="90" cy="90" r="90" fill="white"/>
<path fill-rule="evenodd" clip-rule="evenodd" d="M30.1417 30.0175C43.8577 29.9901 57.5735 30.0175 71.2894 30.0065C77.5631 36.253 83.8096 42.5321 90.0779 48.7785C70.9619 67.8618 51.8786 86.9778 32.7735 106.072C31.949 106.907 31.0208 107.704 30.3273 108.649C30.2126 109.364 30.1525 110.085 30.1471 110.817C30.1635 122.824 30.1689 134.841 30.1471 146.854C30.1417 147.82 30.2508 148.612 30.6822 149.486C30.5074 149.638 30.3382 149.786 30.1635 149.939C29.8632 145.647 30.0816 141.328 30.016 137.025C30.0816 126.657 29.8741 116.266 30.1525 105.903C30.1362 80.6057 30.1525 55.3144 30.1417 30.0175Z" fill="#00599D"/>
<path fill-rule="evenodd" clip-rule="evenodd" d="M108.675 30.0383C122.435 29.9618 136.233 30.0273 149.998 30.0055C150.003 56.2416 149.998 82.472 149.998 108.708C131.329 90.0398 112.661 71.3716 93.9927 52.7034C92.786 51.4748 91.5957 50.2409 90.2471 49.1597L90.2634 48.5919C96.3679 42.3782 102.669 36.3448 108.675 30.0383Z" fill="#00599D"/>
<path fill-rule="evenodd" clip-rule="evenodd" d="M90.0774 48.7774L90.263 48.5918L90.2467 49.1597C90.1647 62.8264 90.3231 76.5095 90.1703 90.1708C71.7968 108.408 53.5271 126.792 35.1973 145.078C33.6902 146.563 32.2761 148.097 30.6817 149.484C30.2504 148.611 30.1413 147.819 30.1467 146.853C30.1685 134.84 30.1631 122.822 30.1467 110.816C30.1521 110.084 30.2121 109.363 30.3268 108.648C31.0203 107.703 31.9486 106.906 32.773 106.071C51.8781 86.9767 70.9615 67.8607 90.0774 48.7774Z" fill="#939598"/>
<path fill-rule="evenodd" clip-rule="evenodd" d="M90.2464 49.1602C91.595 50.2413 92.7853 51.4752 93.992 52.7038C112.66 71.3721 131.329 90.0402 149.997 108.708C149.991 122.484 150.002 136.266 149.991 150.047C130.515 130.604 111.071 111.127 91.6004 91.6727C91.1145 91.1813 90.6395 90.6791 90.1699 90.1712C90.3227 76.51 90.1644 62.8269 90.2464 49.1602Z" fill="#29AAE2"/>
</svg>
