<svg width="938" height="211" viewBox="0 0 938 211" fill="none" xmlns="http://www.w3.org/2000/svg">
<path fill-rule="evenodd" clip-rule="evenodd" d="M0.247997 0.029883C24.2488 -0.0179837 48.2495 0.029883 72.2504 0.010683C83.2284 10.9411 94.1588 21.9286 105.127 32.859C71.6773 66.252 38.2843 99.7023 4.8532 133.114C3.41054 134.576 1.78627 135.971 0.572664 137.624C0.371997 138.875 0.26693 140.137 0.257464 141.417C0.286131 162.427 0.295597 183.457 0.257464 204.477C0.247997 206.168 0.438931 207.553 1.19373 209.082C0.887865 209.349 0.591864 209.607 0.28613 209.875C-0.239337 202.365 0.142797 194.807 0.0279968 187.279C0.142797 169.135 -0.22027 150.953 0.26693 132.818C0.238397 88.552 0.26693 44.2958 0.247997 0.029883Z" fill="#00599D"/>
<path fill-rule="evenodd" clip-rule="evenodd" d="M137.67 0.0670424C161.747 -0.0668244 185.892 0.0478424 209.978 0.00957567C209.988 45.919 209.978 91.8185 209.978 137.728C177.312 105.061 144.645 72.3945 111.978 39.7276C109.867 37.5778 107.784 35.4187 105.424 33.5268L105.452 32.5331C116.134 21.6601 127.16 11.1025 137.67 0.0670424Z" fill="#00599D"/>
<path fill-rule="evenodd" clip-rule="evenodd" d="M730.678 15.8606C741.914 17.5422 753.685 20.7622 763.421 26.7717C763.421 39.7658 763.431 52.76 763.421 65.7541C746.376 53.3716 725.346 48.0686 704.441 49.1102C698.584 49.5018 691.887 50.3713 686.823 53.5912C679.8 57.5755 677.851 69.0313 683.593 74.8309C687.233 78.4139 692.871 80.3056 697.696 81.7102C707.413 84.2802 717.302 86.2483 727.085 88.5415C738.856 91.1594 750.857 95.3062 759.781 103.743C767.338 110.947 771.122 120.664 772.192 130.916C773.415 143.126 772.278 156.636 766.536 167.681C761.109 178.143 751.64 185.539 740.739 189.695C726.741 195.131 710.422 196.077 695.555 195.542C677.345 194.701 656.879 191.013 641.381 180.876C641.334 167.662 641.372 154.448 641.372 141.234C660.051 156.005 685.218 162.302 708.741 160.735C715.094 160.248 722.661 158.92 727.639 154.62C732.283 150.55 733.315 144.149 731.805 138.378C730.563 134.451 727.592 131.795 724.085 129.864C716.719 125.804 708.215 124.438 700.122 122.422C687.711 119.374 675.634 117.511 664.217 111.396C655.761 107.077 648.633 100.561 644.544 91.9047C640.139 82.4552 639.633 72.3371 640.417 62.1044C641.496 51.3079 645.328 40.9792 652.876 33.0397C661.551 23.743 673.58 18.8606 685.829 16.4147C700.553 13.6535 715.878 13.7299 730.678 15.8606Z" fill="#00599D"/>
<path fill-rule="evenodd" clip-rule="evenodd" d="M262.069 17.4369C276.659 17.5133 291.258 17.3127 305.838 17.5325C322.606 49.0622 339.537 80.525 356.458 111.969C373.388 80.4677 390.242 48.9283 407.182 17.4369C422.259 17.4559 437.336 17.4275 452.423 17.4464C452.442 75.8053 452.413 134.154 452.432 192.513C439.209 192.551 425.985 192.551 412.762 192.513C412.762 154.18 412.8 115.848 412.743 77.5156C397.188 106.37 381.605 135.263 366.27 164.232C359.362 164.509 352.426 164.241 345.508 164.375C330.326 136.438 315.421 108.338 300.258 80.3818C300.268 117.769 300.277 155.145 300.258 192.523C287.522 192.542 274.796 192.542 262.059 192.523C262.05 134.164 262.021 75.7957 262.069 17.4369Z" fill="#00599D"/>
<path fill-rule="evenodd" clip-rule="evenodd" d="M482.969 17.4375C509.807 17.4564 536.665 17.4375 563.513 17.447C577.262 17.8483 591.756 19.8547 603.202 28.0908C612.203 34.4635 617.286 44.6009 618.518 55.407C619.636 65.5346 618.824 77.2198 613.244 86.0483C609.69 91.9051 604.358 95.8511 598.358 98.9371C605.333 101.278 611.734 104.651 616.827 110.059C622.55 116.078 625.798 123.74 627.127 131.871C628.78 142.219 628.178 153.369 624.471 163.229C620.926 172.564 613.932 180.361 605.084 184.985C594.078 190.947 581.571 192.409 569.236 192.542C540.487 192.494 511.728 192.6 482.988 192.485C482.988 134.136 483.026 75.7865 482.969 17.4375ZM522.696 121.638C535.958 121.514 549.267 121.648 562.538 121.581C568.405 121.505 575.236 122.336 580.252 125.613C584.647 128.518 586.74 133.371 586.903 138.531C587.189 143.614 585.756 149.509 581.686 152.872C577.587 156.255 571.558 157.391 566.379 157.43C551.809 157.401 537.228 157.43 522.658 157.411C522.677 145.496 522.591 133.553 522.696 121.638ZM522.648 52.3401C534.037 52.3018 545.426 52.3303 556.806 52.3209C562.204 52.4451 568.013 52.6936 572.618 55.8466C575.81 58.0249 577.663 61.3784 578.313 65.143C579.421 70.7514 578.638 78.2899 574.176 82.36C569.312 86.6405 562.987 87.0035 556.815 87.1755C545.426 87.2041 534.037 87.2041 522.648 87.1755C522.648 75.5669 522.648 63.9486 522.648 52.3401Z" fill="#00599D"/>
<path fill-rule="evenodd" clip-rule="evenodd" d="M792.342 17.4382C817.337 17.4571 842.331 17.4382 867.326 17.4477C877.234 17.3139 887.619 17.9829 897.174 20.7727C904.98 23.0561 912.174 26.6487 917.802 32.6489C924.805 39.8146 927.777 49.4553 928.322 59.2772C928.866 68.4208 927.519 78.7396 922.388 86.5456C918.796 92.1351 913.598 96.014 907.732 98.9664C917.41 101.909 926.095 107.804 931.264 116.642C937.389 127.037 938.058 139.229 936.93 150.971C935.583 162.609 930.395 173.549 921.012 180.791C909.585 189.725 894.852 192.209 880.711 192.514C851.265 192.553 821.78 192.533 792.333 192.524C792.323 134.165 792.295 75.7969 792.342 17.4382ZM831.984 121.592C846.306 121.61 860.638 121.553 874.95 121.62C880.673 121.878 887.619 123.216 891.881 127.362C896.266 131.757 897.078 138.417 895.951 144.274C895.263 148.363 892.979 151.812 889.492 154.038C885.565 156.504 880.52 157.382 875.944 157.421C861.297 157.411 846.64 157.421 831.984 157.421C831.965 145.478 831.965 133.535 831.984 121.592ZM831.984 52.331C842.494 52.3121 852.994 52.3408 863.504 52.3216C867.67 52.2833 872.074 52.3692 876.154 53.296C880.005 54.2133 883.826 56.3153 885.852 59.8312C888.269 63.8919 888.393 68.8604 887.954 73.4275C887.38 77.7557 885.288 81.6059 881.543 83.947C876.89 86.8515 870.737 87.0998 865.415 87.1954C854.274 87.1859 843.124 87.2048 831.984 87.1859C831.965 75.5676 831.965 63.9493 831.984 52.331Z" fill="#00599D"/>
<path fill-rule="evenodd" clip-rule="evenodd" d="M105.127 32.858L105.452 32.5332L105.423 33.5269C105.28 57.4418 105.557 81.3853 105.29 105.291C73.1387 137.203 41.1695 169.372 9.09505 201.37C6.45784 203.969 3.98331 206.654 1.19343 209.081C0.438634 207.552 0.2477 206.167 0.257167 204.476C0.2953 183.456 0.285833 162.426 0.257167 141.416C0.266633 140.136 0.3717 138.874 0.572367 137.623C1.78597 135.97 3.41024 134.575 4.85291 133.113C38.284 99.7013 71.677 66.251 105.127 32.858Z" fill="#939598"/>
<path fill-rule="evenodd" clip-rule="evenodd" d="M105.424 33.5273C107.784 35.4192 109.867 37.5783 111.978 39.7282C144.645 72.395 177.312 105.062 209.978 137.728C209.969 161.834 209.988 185.95 209.969 210.065C175.888 176.042 141.864 141.961 107.793 107.918C106.943 107.058 106.112 106.18 105.29 105.291C105.557 81.3857 105.28 57.4422 105.424 33.5273Z" fill="#29AAE2"/>
</svg>
