<svg width="800" height="180" viewBox="0 0 800 180" fill="none" xmlns="http://www.w3.org/2000/svg">
<rect width="800" height="180" rx="15" fill="white"/>
<path d="M185.766 156.182H63.3066V38.4964H185.766V156.182Z" fill="#2C3F75"/>
<path d="M125.001 24L50 139.981H200L125.001 24Z" fill="#2C3F75"/>
<mask id="mask0_1526_2848" style="mask-type:luminance" maskUnits="userSpaceOnUse" x="59" y="33" width="67" height="103">
<path d="M125.001 33.3773V102.046L103.499 135.296H59.0808L125.001 33.3773Z" fill="white"/>
</mask>
<g mask="url(#mask0_1526_2848)">
<path d="M125.001 33.3773V102.046L103.499 135.296H59.0808L125.001 33.3773Z" fill="url(#paint0_linear_1526_2848)"/>
</g>
<mask id="mask1_1526_2848" style="mask-type:luminance" maskUnits="userSpaceOnUse" x="125" y="33" width="66" height="103">
<path d="M125.001 33.3773V102.046L146.501 135.296H190.917L125.001 33.3773Z" fill="white"/>
</mask>
<g mask="url(#mask1_1526_2848)">
<path d="M125.001 33.3773V102.046L146.501 135.296H190.917L125.001 33.3773Z" fill="url(#paint1_linear_1526_2848)"/>
</g>
<path d="M185.766 156.182H63.3066V139.981H185.766V156.182Z" fill="#ED1C24"/>
<path d="M277.505 94.5885L271.504 76.9209L265.623 94.5885H277.505ZM293.693 113.428H284.128L280.326 102.61H262.921L259.326 113.428H250L266.96 65.8119H276.257L293.693 113.428Z" fill="#2C3F75"/>
<path d="M298.593 113.428V66.2028H307.384V105.406H329.245V113.428H298.593Z" fill="#2C3F75"/>
<path d="M335.75 113.428V66.2028H344.542V105.406H366.402V113.428H335.75Z" fill="#2C3F75"/>
<path d="M372.402 113.428V65.8119H381.194V113.428H372.402Z" fill="#2C3F75"/>
<path d="M412.647 94.5885L406.647 76.9209L400.765 94.5885H412.647ZM428.834 113.428H419.272L415.469 102.61H398.063L394.471 113.428H385.145L402.103 65.8119H411.4L428.834 113.428Z" fill="#2C3F75"/>
<path d="M433.588 113.428V65.8119H442.141L459.963 97.6083V65.8119H468.13V113.428H459.306L441.755 82.3748V113.428H433.588Z" fill="#2C3F75"/>
<path d="M509.83 111.971C505.596 114.092 500.397 114.242 495.721 114.242C489.943 114.242 485.19 112.082 481.467 107.758C477.741 103.442 475.881 97.5373 475.881 90.0413C475.881 82.1155 477.752 75.9632 481.496 71.5758C485.239 67.194 490.159 65 496.257 65C501.583 65 506.489 66.242 509.237 70.1639C511.342 73.1673 511.041 75.5938 511.342 81.2061H502.571C502.055 78.74 503.398 76.7895 501.769 75.3628C500.133 73.9333 498.15 73.217 495.814 73.217C492.583 73.217 489.965 74.4839 487.954 77.0184C485.945 79.5514 484.941 83.6538 484.941 89.3274C484.941 95.3455 485.93 99.6334 487.912 102.191C489.89 104.745 493.368 106.835 496.522 107.122C501.948 107.612 508.451 106.017 510.133 104.394L509.83 111.971Z" fill="#2C3F75"/>
<path d="M521.357 113.428V65.8119H553.642V73.8672H530.147V84.4245H552.007V92.4464H530.147V105.406H554.475V113.428H521.357Z" fill="#2C3F75"/>
<path d="M587.649 92.6737V105.406H595.787C598.958 105.406 600.967 105.307 601.818 105.111C603.124 104.856 604.188 104.223 605.01 103.214C605.834 102.209 606.244 100.859 606.244 99.1715C606.244 97.7398 605.929 96.5282 605.295 95.53C604.656 94.5352 603.742 93.8105 602.547 93.3558C601.346 92.9011 598.751 92.6737 594.749 92.6737H587.649ZM587.649 73.7378V84.7479H593.413C596.841 84.7479 598.967 84.6947 599.8 84.5844C601.304 84.3891 602.487 83.8243 603.348 82.8792C604.21 81.9379 604.638 80.6979 604.638 79.1604C604.638 77.6896 604.27 76.4924 603.526 75.5744C602.785 74.6522 601.68 74.0945 600.215 73.899C599.342 73.7924 596.841 73.7378 592.7 73.7378H587.649ZM578.858 65.8119H596.262C599.709 65.8119 602.279 65.9698 603.972 66.2844C605.664 66.5971 607.181 67.2508 608.517 68.2491C609.852 69.2451 610.967 70.5724 611.86 72.2258C612.749 73.8848 613.192 75.7414 613.192 77.7962C613.192 80.03 612.647 82.0729 611.544 83.938C610.449 85.7995 608.959 87.1957 607.074 88.1264C609.729 88.9684 611.767 90.4072 613.192 92.4464C614.62 94.4819 615.333 96.8729 615.333 99.6226C615.333 101.79 614.869 103.896 613.954 105.939C613.028 107.989 611.771 109.623 610.179 110.845C608.587 112.071 606.616 112.82 604.284 113.101C602.818 113.275 599.282 113.385 593.678 113.428H578.858V65.8119Z" fill="#2C3F75"/>
<path d="M645.836 94.5885L639.838 76.9209L633.954 94.5885H645.836ZM662.025 113.428H652.46L648.656 102.61H631.251L627.658 113.428H618.331L635.293 65.8119H644.587L662.025 113.428Z" fill="#2C3F75"/>
<path d="M666.778 113.428V65.8119H675.332L693.15 97.6083V65.8119H701.321V113.428H692.499L674.945 82.3748V113.428H666.778Z" fill="#2C3F75"/>
<path d="M710.735 113.428V65.8119H719.526V84.0375L737.289 65.8119H750L726.811 89.4089L750 113.428H737.289L719.526 95.6045V113.428H710.735Z" fill="#2C3F75"/>
<defs>
<linearGradient id="paint0_linear_1526_2848" x1="124.419" y1="103.072" x2="89.3071" y2="82.8454" gradientUnits="userSpaceOnUse">
<stop stop-color="#5A5758"/>
<stop offset="0.257286" stop-color="white"/>
<stop offset="0.5" stop-color="white"/>
<stop offset="0.629154" stop-color="white"/>
<stop offset="1" stop-color="white"/>
</linearGradient>
<linearGradient id="paint1_linear_1526_2848" x1="125.585" y1="103.062" x2="160.697" y2="82.8355" gradientUnits="userSpaceOnUse">
<stop stop-color="#5A5758"/>
<stop offset="0.257286" stop-color="white"/>
<stop offset="0.5" stop-color="white"/>
<stop offset="0.629154" stop-color="white"/>
<stop offset="1" stop-color="white"/>
</linearGradient>
</defs>
</svg>
