<svg width="500" height="350" viewBox="0 0 500 350" fill="none" xmlns="http://www.w3.org/2000/svg">
<rect width="500" height="350" rx="15" fill="white"/>
<path d="M351.373 159.878C352.229 153.651 351.74 147.179 349.906 141.197C349.051 138.144 347.829 135.214 346.24 132.405C341.35 123.736 334.383 116.41 325.949 111.038C317.027 105.177 307.982 102.491 298.815 97.7289C293.681 94.9206 288.792 91.6239 284.392 87.7167L278.647 92.3565C284.514 94.7985 290.381 97.2405 296.126 100.049C308.104 105.788 318.86 114.335 325.949 125.446C331.205 133.626 334.261 142.906 334.872 152.552C334.994 154.628 334.872 156.703 334.383 158.657L334.139 159.878C324.361 159.145 313.849 159.878 304.07 159.756C306.026 147.424 301.87 135.214 294.414 125.446C286.225 114.701 274.246 107.253 261.901 102.247C261.412 102.125 261.046 102.002 260.557 101.88L255.668 104.078C271.069 113.48 283.658 128.254 286.714 146.447C287.692 150.842 287.569 155.482 286.592 159.878C262.024 159.267 237.211 159.878 212.521 159.878C212.154 155.726 211.298 153.407 211.787 149.011C213.987 129.963 226.21 113.602 242.589 103.956L237.822 102.002C224.255 107.375 213.254 114.701 204.454 126.3C200.787 131.306 198.22 136.923 196.753 142.906C195.409 148.4 195.531 154.261 196.02 159.878C187.097 159.389 178.052 159.389 169.129 159.878C168.518 159.878 167.907 159.878 167.174 159.756C165.218 146.935 168.763 134.359 175.974 123.736C182.819 113.358 193.208 105.665 204.209 100.171C209.587 97.4847 215.087 95.409 220.588 92.967L214.476 88.083C210.198 91.746 205.676 94.9206 200.664 97.7289C192.475 102.002 184.286 104.567 176.219 109.328C164.485 116.288 154.584 127.277 150.55 140.342C148.473 146.447 148.106 152.918 149.328 159.267C148.35 159.634 147.372 159.756 146.395 159.878C137.716 159.512 128.794 159.512 119.993 159.878C118.16 153.651 119.137 146.569 120.726 140.342C124.638 125.324 135.883 112.503 148.961 104.444C156.662 99.6825 165.34 96.7521 173.407 92.7228C182.086 88.4493 190.764 81.4896 195.531 73.0647C197.609 69.6459 198.953 65.7387 199.32 61.7094C199.442 61.221 199.564 60.6105 199.931 60.1221H205.554C206.287 67.326 209.343 74.0415 214.354 79.1697C219.243 73.9194 222.299 67.326 223.032 60.1221L228.777 60C229.755 67.326 232.933 74.1636 237.944 79.6581C240.389 77.2161 242.345 74.2857 243.934 71.2332C245.889 66.8376 246.134 64.5177 247.234 60.1221H253.101C253.834 67.2039 256.89 73.9194 261.657 79.1697C266.179 73.6752 269.602 67.326 270.335 60.2442H276.202C276.813 67.0818 279.747 73.5531 284.392 78.6813C288.914 73.431 291.725 66.9597 292.459 60.1221H298.203C299.426 69.8901 304.682 78.1929 312.26 84.42C315.927 87.4725 319.838 90.2808 324.116 92.4786C333.039 97.1184 341.717 99.6825 350.395 105.299C363.718 113.724 374.597 126.789 378.63 142.173C379.608 146.203 380.219 150.232 380.342 154.383C380.342 156.215 380.097 158.168 379.608 160C370.074 159.389 360.663 159.756 351.373 159.878ZM238.067 95.5311L243.689 92.8449L238.311 88.5714L232.566 93.0891C234.4 93.8217 236.233 94.6764 238.067 95.5311ZM260.19 94.9206L260.801 95.1648C262.879 94.188 264.835 93.3333 266.79 92.2344L261.657 87.9609L255.545 92.8449C257.134 93.4554 258.723 94.188 260.19 94.9206ZM248.823 100.171C250.412 100.293 251.879 99.072 253.223 98.2173L249.556 96.7521L245.767 98.7057C246.745 99.3162 247.723 99.8046 248.823 100.171ZM357.851 153.651L373.863 153.529C373.863 152.918 373.863 152.308 373.863 151.697C373.619 146.935 372.519 142.173 370.685 137.656C365.796 125.568 356.262 115.8 345.017 109.084C336.95 104.322 328.639 101.758 320.571 97.4847C309.937 91.9902 300.77 83.4432 295.392 72.6984C293.559 76.3614 291.236 79.9023 288.67 83.199C292.459 86.6178 296.737 89.5482 301.259 91.9902C309.937 96.5079 319.227 99.5604 327.538 104.811C333.039 108.352 338.05 112.503 342.45 117.143C351.373 126.789 358.096 140.342 357.851 153.651ZM272.535 88.4493L273.024 88.8156L280.113 83.199C277.547 80.0244 275.224 76.4835 273.391 72.9426C271.557 76.7277 269.113 80.3907 266.302 83.5653C268.135 85.2747 270.335 86.862 272.535 88.4493ZM242.711 84.0537L249.801 89.1819C252.49 87.4725 254.934 85.641 257.257 83.4432C254.445 80.1465 252.123 76.4835 250.29 72.5763C248.212 76.7277 245.645 80.6349 242.711 84.0537ZM310.671 153.651L329.005 153.529C328.883 150.842 328.516 148.156 328.027 145.592C327.294 141.929 326.194 138.388 324.483 135.092C318.493 123.004 308.715 114.09 297.103 107.497C289.403 103.101 280.602 100.781 273.024 96.1416L268.991 98.4615C274.98 101.514 280.847 105.055 286.347 108.84C299.303 118.486 311.404 136.679 310.671 153.651ZM226.088 89.304L226.455 89.5482L233.666 84.1758C230.733 80.757 228.166 77.094 226.088 73.1868C224.01 76.9719 221.688 80.5128 218.877 83.8095C221.321 85.7631 223.644 87.5946 226.088 89.304ZM141.261 153.529H142.483C142.483 149.621 142.972 145.836 143.828 142.051C147.25 126.911 158.006 113.602 170.963 105.299C180.008 99.5604 188.93 96.7521 198.098 91.8681C202.376 89.5482 206.409 86.7399 210.076 83.5653C207.143 80.2686 204.698 76.6056 202.865 72.5763C197.364 83.9316 187.464 92.6007 176.341 98.2173C167.907 102.491 159.962 104.933 151.773 110.061C147.984 112.503 144.439 115.189 141.139 118.364C131.972 127.277 125.249 139.487 125.371 152.552C125.371 152.918 125.493 153.284 125.616 153.651C130.871 153.529 136.005 153.529 141.261 153.529ZM172.918 153.529L189.664 153.407C189.664 147.424 190.642 141.441 192.72 135.824C200.176 117.875 212.643 106.154 230.611 98.5836C229.144 98.2173 227.799 97.4847 226.699 96.5079C218.877 101.026 210.321 103.468 202.498 107.985C198.953 110.061 195.531 112.381 192.353 114.945C181.23 123.736 171.941 138.999 172.918 153.529ZM218.143 153.529H281.336C281.214 149.866 280.725 146.325 279.625 142.906C275.102 127.399 263.368 114.579 249.067 107.253C243.567 110.305 238.433 113.968 233.789 118.242C224.621 127.155 217.165 140.464 218.143 153.529Z" fill="#26366F"/>
<path d="M463.619 207.87C462.501 207.159 461.586 206.144 460.976 205.027C459.96 206.042 458.943 206.956 457.825 207.87C457.215 208.377 457.317 207.464 457.723 206.854L461.383 201.168C463.009 201.27 462.501 200.559 464.432 201.473C466.668 202.488 466.567 204.113 466.058 206.144C465.753 207.057 464.94 207.768 464.026 208.073L463.619 207.87Z" fill="#26366F"/>
<path d="M297.02 231.731C294.682 231.528 292.345 231.63 290.413 230.107C289.092 228.99 288.279 227.365 288.075 225.639C288.075 222.491 288.584 219.343 289.6 216.399C289.702 215.891 290.21 217.211 290.312 217.617C290.617 219.953 291.328 222.187 292.345 224.217C294.276 225.03 296.309 225.436 298.443 225.537C304.542 225.639 312.064 225.334 316.74 220.867L315.215 217.211L317.96 210.611C321.009 214.47 321.416 219.953 318.874 224.217C314.605 231.63 304.644 232.442 297.02 231.731Z" fill="#26366F"/>
<path d="M328.53 220.664C328.429 216.602 328.429 212.541 328.53 208.377L332.8 204.316L332.901 218.734L328.632 222.187C328.53 221.679 328.53 221.171 328.53 220.664Z" fill="#26366F"/>
<path d="M306.473 205.128C304.339 205.23 302.306 205.23 300.171 205.128L302.713 201.371L309.015 201.473L307.185 205.128H306.473Z" fill="#26366F"/>
<path d="M371.73 232.543C371.73 223.506 371.73 214.469 371.73 205.432C371.73 205.026 371.832 204.62 372.035 204.315L375.085 202.082L375.186 226.349C378.744 227.162 381.997 226.248 385.148 224.522C384.335 222.186 383.623 220.968 384.436 218.531C384.843 217.312 386.774 216.297 387.994 216.196C389.315 216.094 391.45 215.992 392.466 216.906C394.296 218.632 393.686 221.983 392.67 223.912C395.312 224.217 397.854 223.811 400.395 222.999C400.801 222.796 401.208 222.592 401.615 222.389C401.208 221.171 401.005 219.851 401.208 218.531C401.208 217.719 401.818 216.906 402.529 216.602C404.257 215.992 406.087 216.094 407.713 217.008C408.222 217.414 408.527 217.922 408.628 218.531C408.933 219.648 409.441 220.156 409.136 221.476C409.035 221.983 408.73 222.491 408.425 222.897C405.375 227.162 394.398 229.802 389.417 230.411C388.909 230.513 388.502 230.513 387.994 230.411L386.774 228.888C384.131 230.309 381.387 231.528 378.541 232.442C376.305 232.949 373.967 233.051 371.73 232.543Z" fill="#26366F"/>
<path d="M313.792 233.254C313.08 233.254 312.47 232.848 313.08 232.544C323.753 228.38 333.715 222.593 340.931 213.353C342.558 211.119 343.676 208.682 344.489 206.042C345.404 205.433 346.319 204.925 347.234 204.519L348.86 204.113V225.334C350.385 225.943 352.113 226.147 353.739 225.842C355.975 225.436 358.008 224.623 359.939 223.405C359.838 221.476 360.651 218.633 362.481 217.719C362.684 217.617 362.989 217.516 363.192 217.414C364.412 217.313 365.733 217.516 366.851 218.125C368.579 219.14 368.376 221.171 367.766 222.796C366.343 226.654 358.211 230.005 354.45 231.122C351.299 232.036 348.148 232.544 344.896 232.544C344.896 227.162 344.896 221.679 344.896 216.297C344.896 215.282 344.896 214.165 344.286 215.079C339.61 221.78 334.426 227.67 326.803 230.919C322.635 232.645 318.264 233.457 313.792 233.254Z" fill="#26366F"/>
<path d="M422.147 230.513C420.114 228.787 418.081 226.248 418.285 223.507C418.488 220.257 420.216 216.907 422.147 214.368C423.367 212.743 424.892 211.322 426.518 210.205C428.144 209.088 429.771 208.174 431.6 207.362C432.21 207.26 432.922 207.159 433.532 207.057C435.768 209.9 436.479 213.556 435.565 217.008C434.751 219.75 431.905 220.663 429.466 221.07C428.856 221.171 428.144 221.171 427.534 221.171V216.703C428.653 216.703 429.771 216.703 430.99 216.602C433.125 215.79 431.905 213.15 430.99 211.83C429.567 212.642 420.927 218.531 421.639 220.663C421.537 222.999 423.875 225.233 425.908 226.045C431.295 228.279 441.968 223.913 446.237 220.562L446.339 206.245C447.356 205.128 448.575 204.113 449.795 203.199V225.842C452.743 227.162 455.691 226.35 458.13 224.522C458.028 222.085 457.622 220.359 459.248 218.43C460.468 216.907 462.501 216.196 464.432 216.602L465.144 216.703C468.193 217.922 466.16 222.491 465.144 224.319C467.685 224.928 468.6 225.03 471.039 223.913C472.767 223.1 474.292 221.78 475.308 220.156L473.275 217.313L476.63 211.83C478.053 213.657 478.256 216.196 478.358 218.43C478.155 220.156 477.748 221.882 476.935 223.507C473.784 228.584 467.278 229.904 461.688 230.411L460.061 228.787C456.199 230.919 452.133 232.544 447.661 232.239C447.152 232.137 446.542 231.934 446.136 231.731V225.131C441.053 228.888 435.158 232.239 428.754 232.747C426.315 232.645 423.977 231.934 422.147 230.513Z" fill="#26366F"/>
<path d="M470.938 237.722L467.787 235.488C468.701 233.762 469.82 232.137 470.938 230.512C471.141 230.309 471.446 230.817 471.649 230.918C472.666 231.528 473.682 232.137 474.597 232.949L471.446 238.026L470.938 237.722Z" fill="#26366F"/>
<path d="M417.08 290.054C413.9 290.163 410.61 290.054 407.43 289.944C407.321 273.404 407.43 256.755 407.321 240.215C407.321 239.667 407.321 239.119 407.43 238.571L418.834 238.462C418.834 254.783 418.944 270.994 418.834 287.206C418.834 288.082 418.834 289.068 418.725 289.944C418.067 290.054 417.519 290.054 417.08 290.054Z" fill="#E04918"/>
<path d="M120.03 290.164C119.811 289.726 119.701 289.178 119.701 288.74C119.701 281.73 119.92 274.61 119.372 267.599C119.262 266.394 118.824 265.299 118.056 264.423C116.411 262.78 113.889 262.342 111.696 263.327C110.051 264.204 108.845 265.737 108.626 267.599C107.968 274.5 108.407 283.044 108.516 290.164H97.0028C97.0028 278.225 97.3317 266.285 96.6738 254.345H106.433L106.981 257.741C106.981 258.07 107.529 258.07 107.858 258.289C111.258 254.126 116.96 252.921 122.004 254.017C123.758 254.455 125.403 255.331 126.719 256.536C128.364 258.179 130.666 262.013 130.776 264.423C131.215 272.967 130.995 281.511 130.886 290.164H120.03Z" fill="#26366F"/>
<path d="M234.947 290.054C231.767 290.164 228.477 290.164 225.297 289.945C224.749 278.115 224.201 266.394 224.201 254.564C224.201 254.236 223.433 254.783 223.104 254.893C220.143 265.956 216.525 277.129 213.126 287.973C213.016 288.411 212.687 288.849 212.468 289.178C209.726 289.397 207.095 289.397 204.353 289.178C204.024 288.959 203.695 288.74 203.586 288.411C200.406 277.129 197.445 265.627 194.265 254.236C194.156 253.688 193.717 255.221 193.717 255.769C193.717 256.755 193.936 257.741 193.827 258.946C193.498 268.585 193.059 278.334 192.62 287.973C192.511 288.63 192.291 289.287 192.072 289.945L182.094 290.164C183.081 273.843 183.958 257.631 185.274 241.31C189.989 241.091 194.814 241.091 199.529 241.31C199.967 241.529 200.296 241.967 200.515 242.406C203.366 252.921 206.766 263.327 208.849 273.952C212.139 262.999 215.319 252.264 218.608 241.31C223.543 240.982 228.587 240.872 233.521 241.201C233.96 257.303 235.166 273.624 235.933 289.835L234.947 290.054Z" fill="#E04918"/>
<path d="M287.47 290.93C283.852 290.711 281.11 288.959 278.698 286.439C277.601 285.234 276.944 282.606 276.944 280.962C276.724 278.553 277.163 276.143 278.04 273.952C279.246 271.214 283.961 268.475 286.703 267.599C290.102 266.832 293.501 266.394 296.9 266.394C297.558 265.627 297.668 264.532 297.01 263.765C296.133 262.779 295.036 262.013 293.72 261.684C291.856 261.574 290.102 261.574 288.238 261.793C285.716 262.122 283.413 262.998 281.22 264.313L279.246 256.974C280.891 256.098 282.536 255.44 284.29 254.893C285.058 254.674 289.883 253.797 290.541 253.797C295.475 253.578 300.848 254.126 304.686 257.412C307.646 259.822 308.743 264.094 308.853 267.708C309.072 275.157 308.743 282.606 309.182 290.054C306.111 290.164 303.041 290.164 299.971 290.054C298.765 289.616 298.874 287.754 298.765 286.878C295.804 289.616 291.747 291.149 287.47 290.93ZM290.65 282.715C293.501 283.372 296.352 281.948 297.558 279.319C297.997 277.786 298.107 276.143 297.887 274.609C297.778 274.281 298.107 273.623 297.668 273.514C294.817 273.185 289.444 273.623 288.348 276.91C287.69 278.772 287.58 279.977 289.005 281.62C289.444 282.167 289.992 282.606 290.65 282.715Z" fill="#E04918"/>
<path d="M28.4695 290.602C26.2765 290.492 24.1931 290.273 22 289.835V241.639C30.9916 240.215 45.7947 239.229 53.3608 245.034C57.3083 248.101 57.8566 254.016 55.7732 258.288C54.6766 260.589 51.8257 262.56 49.6326 263.765C54.896 265.189 58.6241 270.009 58.5145 275.595C58.7338 285.563 49.7423 290.164 40.8604 290.602C36.9128 290.711 32.6363 290.711 28.4695 290.602ZM33.5136 260.15C36.0356 260.479 38.5576 260.369 41.0796 259.822C42.9437 259.493 44.4789 258.288 45.3561 256.645C45.9044 255.221 45.9044 252.264 44.5886 251.168C41.4086 248.539 37.3514 248.759 33.5136 249.416C33.4039 252.921 33.4039 256.536 33.5136 260.15ZM33.5136 281.948C36.0356 282.496 38.6673 282.496 41.0796 281.839C43.163 281.51 44.9175 280.305 46.1237 278.553C47.1106 277.238 47.2202 273.623 46.2334 272.309C43.2727 268.366 38.0094 268.366 33.5136 268.694C33.4039 273.076 33.4039 277.567 33.5136 281.948Z" fill="#26366F"/>
<path d="M158.299 290.164C155.557 285.453 152.706 280.743 149.965 276.033C148.649 276.8 147.772 278.005 147.333 279.429C146.895 282.934 147.333 286.658 147.333 290.273H135.929C136.039 273.623 135.929 256.974 135.929 240.324C135.929 239.776 135.929 239.119 135.929 238.572H147.114C147.114 239.229 147.224 239.776 147.224 240.434C147.114 249.306 147.224 258.179 147.114 267.051C147.114 268.147 147.114 269.351 147.662 268.475C150.404 263.984 153.255 259.603 156.325 255.331C156.544 255.002 156.873 254.783 157.202 254.674L170.58 254.454L157.75 269.023L172.444 290.164H158.299Z" fill="#26366F"/>
<path d="M67.7253 290.492C64.2164 289.397 61.5847 286.659 60.3785 283.263C59.9399 280.963 59.9399 278.553 60.3785 276.143C63.6681 268.037 72.2211 265.956 80.2257 266.285C80.445 265.956 80.5547 265.518 80.774 265.189C80.8837 264.094 79.6775 262.78 78.6906 262.341C74.3045 260.37 68.6025 261.794 64.5453 264.204C63.9971 262.122 63.3392 260.26 62.7909 258.179C62.6812 257.741 62.5716 257.193 62.6812 256.755C68.3832 253.798 74.8527 252.921 81.103 254.017C85.9277 254.893 90.2042 258.179 91.52 262.889C93.4938 270.447 92.0683 281.839 92.7262 290.164H82.5285L81.8705 286.878C80.2257 288.63 78.0327 289.945 75.6203 290.602C72.9886 291.15 70.2473 291.15 67.7253 290.492ZM72.3307 281.839C73.3176 282.606 75.8396 283.373 77.1554 282.496C78.3616 281.949 80.445 280.634 80.774 279.32C81.103 277.786 81.3223 276.143 81.2126 274.61C81.103 274.171 81.4319 273.514 81.103 273.514C77.923 273.295 73.2079 273.733 71.5632 277.019C70.6859 278.662 71.0149 280.634 72.3307 281.839Z" fill="#26366F"/>
<path d="M378.592 290.712C375.851 290.054 372.232 287.535 371.355 284.797C369.929 280.087 369.491 277.458 372.122 273.076C373.438 271.433 375.083 270.119 376.947 269.023C381.224 267.052 385.939 266.175 390.654 266.394C390.983 265.409 390.873 264.313 390.434 263.327C386.158 259.713 379.14 261.903 374.754 264.094L372.671 256.865C378.153 254.345 384.294 253.36 390.325 253.907C391.641 254.126 392.956 254.345 394.272 254.783C395.698 255.441 397.014 256.207 398.329 257.193C399.645 258.617 400.632 260.26 401.4 262.013C401.838 263.546 402.167 265.08 402.387 266.723C402.387 272.967 401.509 284.249 403.045 289.835C399.865 289.945 396.685 290.054 393.505 289.945C392.627 288.959 392.079 287.754 391.86 286.44C389.996 288.959 389.119 288.959 386.487 290.274C385.061 291.04 380.017 291.04 378.592 290.712ZM384.075 282.715C385.171 282.825 386.158 282.825 387.254 282.825C389.009 282.277 390.325 281.072 391.092 279.429C391.531 277.567 391.531 275.596 391.312 273.733C389.667 273.405 388.022 273.514 386.487 273.952C384.404 274.5 381.333 276.143 381.443 278.663C381.333 280.196 382.32 282.277 384.075 282.715Z" fill="#E04918"/>
<path d="M466.424 290.492C464.56 289.725 462.915 288.63 461.599 287.206C460.064 284.906 459.187 282.167 459.187 279.319C458.858 273.952 459.187 268.475 459.187 262.998L454.472 262.45V254.454H459.077C459.187 252.592 459.187 250.62 459.187 248.758C459.187 248.32 459.845 247.772 460.174 247.553C462.477 246.677 464.889 246.129 467.192 245.472C468.069 245.253 469.056 245.144 469.933 245.144L470.152 254.454L478.267 254.564V262.45C476.512 262.998 474.648 262.998 472.784 262.67C471.797 262.56 470.92 262.779 470.043 263.327C469.933 268.694 470.152 273.952 470.481 279.21C472.784 281.948 474.538 281.839 477.828 280.962C477.609 283.81 477.609 286.549 477.609 289.287C477.28 289.725 477.28 289.944 476.512 290.163C473.332 290.93 469.823 291.04 466.424 290.492Z" fill="#E04918"/>
<path d="M248.653 290.383C245.473 289.397 244.377 288.301 242.513 285.673C241.635 283.591 240.978 281.51 240.429 279.429C240.21 271.214 240.32 262.889 240.32 254.674L251.504 254.564C251.504 262.012 251.285 269.571 251.833 277.019C251.943 278.553 252.71 280.086 254.026 280.962C256.768 282.277 259.948 281.62 261.921 279.429C261.921 279.319 262.47 278.005 262.47 277.895C263.127 270.337 262.799 262.56 262.799 254.893C266.636 254.564 270.474 254.564 274.312 254.783L274.422 290.273H264.772L264.553 285.234C260.605 290.273 254.904 292.026 248.653 290.383Z" fill="#E04918"/>
<path d="M428.813 290.492C427.716 290.164 426.62 289.616 425.633 288.849C421.795 286.111 420.699 281.401 421.466 277.019C422.124 274.062 423.879 271.542 426.401 269.899C428.374 268.804 430.458 267.928 432.651 267.27C435.611 266.723 438.572 266.504 441.533 266.504C442.081 265.08 441.642 263.437 440.436 262.451C439.449 262.013 438.353 261.684 437.256 261.574C433.199 261.246 429.142 262.122 425.633 263.984L423.659 256.864C428.813 254.016 434.625 253.469 440.436 253.797C440.546 253.797 444.932 254.674 445.151 254.783C448.441 256.098 451.073 258.727 452.388 262.013C452.937 264.094 453.266 266.175 453.375 268.256C453.375 275.486 453.046 282.825 453.704 289.945C450.634 290.164 447.454 290.164 444.384 289.726C443.287 289.506 443.068 286.987 443.068 286.22C439.888 291.15 433.967 291.259 428.813 290.492ZM435.063 282.715C436.05 282.934 437.147 282.934 438.243 282.606C442.849 281.401 442.629 277.348 442.41 273.514C439.449 272.966 434.296 273.733 432.98 276.91C432.541 277.896 432.432 278.991 432.76 280.086C432.98 281.401 433.857 282.277 435.063 282.715Z" fill="#E04918"/>
<path d="M365.982 290.164C362.911 290.164 359.841 290.164 356.88 290.054C356.771 282.606 357.1 275.048 356.442 267.599C356.222 265.08 354.358 263.108 351.836 262.67C349.314 262.341 346.354 265.299 346.244 267.599C345.696 275.048 346.025 282.606 346.025 290.054H335.059C335.059 282.606 335.279 275.157 335.059 267.599C334.511 266.175 333.853 264.861 333.086 263.656C332.318 263.327 331.441 262.999 330.673 262.779C329.357 262.999 327.603 263.327 326.616 264.423C325.958 265.518 325.3 266.613 324.752 267.709C324.642 275.267 324.862 282.825 324.642 290.273L314.006 290.383C313.896 289.616 313.896 288.849 313.896 288.083C314.006 277.019 314.225 265.847 313.567 254.783H322.888C323.107 256.207 323.217 257.522 323.217 258.946C323.217 259.384 324.094 258.617 324.313 258.288C327.493 254.783 330.673 253.797 335.279 253.907C339.446 254.017 341.968 256.317 344.27 259.493C345.696 257.741 347.45 256.207 349.424 255.112C350.74 254.674 352.056 254.236 353.371 254.017C356.332 253.688 359.293 254.236 362.034 255.55C364.775 256.974 366.859 261.684 367.188 264.642C367.955 271.762 367.736 280.853 367.626 288.192C367.517 288.959 367.297 289.616 366.968 290.383L365.982 290.164Z" fill="#E04918"/>
</svg>
