<svg width="800" height="180" viewBox="0 0 800 180" fill="none" xmlns="http://www.w3.org/2000/svg">
<rect width="800" height="180" rx="15" fill="#26366F"/>
<rect x="5" y="5" width="790" height="170" rx="15" fill="white"/>
<rect x="10.75" y="10.75" width="778.5" height="158.5" rx="14.25" stroke="#26366F" stroke-width="1.5"/>
<path d="M192.265 119.148C192.789 115.335 192.489 111.374 191.367 107.711C190.843 105.842 190.095 104.048 189.122 102.328C186.129 97.021 181.863 92.5358 176.7 89.2467C171.237 85.6585 165.7 84.014 160.087 81.0986C156.944 79.3793 153.951 77.361 151.257 74.9689L147.74 77.8095C151.332 79.3045 154.924 80.7996 158.441 82.5189C165.774 86.0323 172.36 91.265 176.7 98.0675C179.918 103.076 181.788 108.757 182.163 114.663C182.237 115.933 182.163 117.204 181.863 118.4L181.714 119.148C175.727 118.699 169.291 119.148 163.305 119.073C164.502 111.523 161.958 104.048 157.393 98.0675C152.379 91.4893 145.046 86.9293 137.488 83.8645C137.189 83.7897 136.964 83.715 136.665 83.6402L133.671 84.9858C143.1 90.7417 150.808 99.7868 152.679 110.925C153.277 113.616 153.203 116.457 152.604 119.148C137.563 118.774 122.372 119.148 107.256 119.148C107.031 116.606 106.507 115.186 106.807 112.495C108.154 100.833 115.637 90.8165 125.664 84.911L122.746 83.715C114.44 87.0041 107.705 91.4893 102.317 98.5908C100.072 101.656 98.5004 105.094 97.6024 108.757C96.7793 112.121 96.8541 115.709 97.1535 119.148C91.6907 118.849 86.1532 118.849 80.6904 119.148C80.3163 119.148 79.9421 119.148 79.4931 119.073C78.2958 111.224 80.4659 103.524 84.881 97.021C89.0716 90.667 95.4323 85.9576 102.167 82.5937C105.46 80.9491 108.827 79.6783 112.195 78.1833L108.453 75.1931C105.834 77.4357 103.065 79.3793 99.9971 81.0986C94.9833 83.715 89.9696 85.2848 85.0307 88.2001C77.8468 92.4611 71.7854 99.1888 69.316 107.187C68.0438 110.925 67.8193 114.887 68.5677 118.774C67.969 118.998 67.3703 119.073 66.7717 119.148C61.4586 118.924 55.9959 118.924 50.608 119.148C49.4855 115.335 50.0842 111 51.057 107.187C53.4516 97.9928 60.3361 90.1437 68.3432 85.21C73.0576 82.2947 78.3706 80.5006 83.3096 78.0338C88.6226 75.4174 93.9357 71.1565 96.8541 65.9985C98.1263 63.9055 98.9494 61.5134 99.1739 59.0465C99.2487 58.7475 99.3236 58.3738 99.5481 58.0747H102.99C103.439 62.4852 105.31 66.5966 108.378 69.7362C111.372 66.5218 113.242 62.4852 113.691 58.0747L117.208 58C117.807 62.4852 119.753 66.6713 122.821 70.0352C124.317 68.5401 125.515 66.7461 126.488 64.8773C127.685 62.1862 127.835 60.7658 128.508 58.0747H132.1C132.549 62.4104 134.42 66.5218 137.338 69.7362C140.107 66.3723 142.202 62.4852 142.651 58.1495H146.243C146.617 62.3357 148.413 66.2976 151.257 69.4372C154.026 66.2228 155.747 62.2609 156.196 58.0747H159.713C160.461 64.055 163.679 69.1382 168.319 72.9506C170.564 74.8194 172.958 76.5387 175.577 77.8842C181.04 80.7249 186.353 82.2947 191.666 85.7333C199.823 90.8912 206.483 98.8898 208.952 108.309C209.551 110.775 209.925 113.242 210 115.784C210 116.905 209.85 118.101 209.551 119.223C203.714 118.849 197.952 119.073 192.265 119.148ZM122.896 79.7531L126.338 78.1085L123.045 75.4922L119.528 78.258C120.651 78.7065 121.773 79.2298 122.896 79.7531ZM136.44 79.3793L136.814 79.5288C138.087 78.9308 139.284 78.4075 140.481 77.7348L137.338 75.1184L133.597 78.1085C134.569 78.4823 135.542 78.9308 136.44 79.3793ZM129.481 82.5937C130.454 82.6684 131.352 81.9209 132.175 81.3976L129.93 80.5006L127.61 81.6966C128.209 82.0704 128.807 82.3694 129.481 82.5937ZM196.231 115.335L206.034 115.261C206.034 114.887 206.034 114.513 206.034 114.139C205.884 111.224 205.211 108.309 204.088 105.543C201.095 98.1423 195.258 92.162 188.374 88.0506C183.435 85.1353 178.346 83.5655 173.407 80.9491C166.897 77.5852 161.284 72.3525 157.992 65.7743C156.869 68.0169 155.448 70.1847 153.876 72.203C156.196 74.2961 158.815 76.0902 161.584 77.5852C166.897 80.3511 172.584 82.2199 177.673 85.4343C181.04 87.6021 184.108 90.1437 186.802 92.9843C192.265 98.8898 196.381 107.187 196.231 115.335ZM143.998 75.4174L144.298 75.6417L148.638 72.203C147.066 70.2595 145.645 68.0916 144.522 65.9238C143.4 68.2411 141.903 70.4837 140.182 72.4273C141.304 73.4738 142.651 74.4456 143.998 75.4174ZM125.739 72.7263L130.08 75.8659C131.726 74.8194 133.222 73.6981 134.644 72.3525C132.923 70.3342 131.501 68.0916 130.379 65.6995C129.107 68.2411 127.535 70.6332 125.739 72.7263ZM167.346 115.335L178.571 115.261C178.496 113.616 178.271 111.972 177.972 110.402C177.523 108.159 176.849 105.991 175.802 103.973C172.135 96.5724 166.148 91.1155 159.039 87.0789C154.325 84.3878 148.937 82.9674 144.298 80.1268L141.828 81.5471C145.495 83.4159 149.087 85.5838 152.454 87.9011C160.386 93.8066 167.795 104.945 167.346 115.335ZM115.562 75.9407L115.787 76.0902L120.202 72.8011C118.406 70.708 116.834 68.4654 115.562 66.0733C114.29 68.3906 112.868 70.5585 111.147 72.5768C112.644 73.7728 114.065 74.8941 115.562 75.9407ZM63.6287 115.261H64.3771C64.3771 112.869 64.6764 110.551 65.2002 108.234C67.2955 98.9645 73.8807 90.8165 81.8129 85.7333C87.3505 82.2199 92.8132 80.5006 98.4256 77.5105C101.045 76.0902 103.514 74.3709 105.759 72.4273C103.963 70.409 102.467 68.1664 101.344 65.6995C97.9766 72.6516 91.9152 77.959 85.1055 81.3976C79.9421 84.014 75.078 85.509 70.0643 88.6486C67.7445 90.1437 65.5744 91.7883 63.5539 93.7319C57.9415 99.1888 53.8258 106.664 53.9006 114.663C53.9006 114.887 53.9754 115.111 54.0503 115.335C57.268 115.261 60.411 115.261 63.6287 115.261ZM83.0102 115.261L93.2622 115.186C93.2622 111.523 93.8608 107.86 95.133 104.421C99.6977 93.4328 107.331 86.2566 118.331 81.6219C117.433 81.3976 116.61 80.9491 115.936 80.3511C111.147 83.117 105.909 84.612 101.12 87.3779C98.9494 88.6487 96.8541 90.069 94.9085 91.6388C88.0988 97.021 82.4116 106.365 83.0102 115.261ZM110.698 115.261H149.386C149.311 113.018 149.012 110.85 148.338 108.757C145.57 99.2636 138.386 91.4145 129.631 86.9293C126.263 88.7982 123.12 91.0407 120.277 93.6571C114.664 99.1141 110.099 107.262 110.698 115.261Z" fill="#26366F"/>
<path d="M714.751 30.1518C713.587 29.4119 712.635 28.3548 712 27.192C710.941 28.2491 709.883 29.2004 708.719 30.1518C708.084 30.6804 708.19 29.729 708.613 29.0947L712.423 23.1751C714.116 23.2808 713.587 22.5408 715.598 23.4922C717.926 24.5493 717.82 26.2406 717.291 28.3548C716.973 29.3061 716.127 30.0461 715.174 30.3632L714.751 30.1518Z" fill="#26366F"/>
<path d="M541.312 54.9929C538.878 54.7815 536.444 54.8872 534.434 53.3016C533.058 52.1388 532.212 50.4475 532 48.6504C532 45.3735 532.529 42.0965 533.587 39.031C533.693 38.5024 534.222 39.8766 534.328 40.2995C534.646 42.7308 535.386 45.0564 536.444 47.1705C538.455 48.0162 540.571 48.439 542.794 48.5447C549.143 48.6504 556.974 48.3333 561.841 43.6821L560.254 39.8767L563.111 33.0056C566.286 37.0225 566.709 42.7308 564.063 47.1705C559.619 54.8872 549.249 55.7329 541.312 54.9929Z" fill="#26366F"/>
<path d="M574.116 43.4712C574.01 39.2428 574.01 35.0145 574.116 30.6805L578.56 26.4521L578.666 41.4627L574.222 45.0568C574.116 44.5282 574.116 43.9997 574.116 43.4712Z" fill="#26366F"/>
<path d="M551.153 27.2979C548.931 27.4036 546.815 27.4036 544.593 27.2979L547.238 23.3867L553.799 23.4924L551.894 27.2979H551.153Z" fill="#26366F"/>
<path d="M619.09 55.8387C619.09 46.4307 619.09 37.0226 619.09 27.6146C619.09 27.1918 619.196 26.7689 619.407 26.4518L622.582 24.1262L622.688 49.3905C626.391 50.2362 629.778 49.2848 633.058 47.4877C632.212 45.0565 631.471 43.788 632.317 41.251C632.741 39.9825 634.751 38.9254 636.021 38.8197C637.397 38.714 639.619 38.6083 640.677 39.5596C642.582 41.3567 641.947 44.845 640.889 46.8535C643.64 47.1706 646.286 46.7478 648.931 45.9021C649.354 45.6907 649.778 45.4793 650.201 45.2679C649.778 43.9994 649.566 42.6252 649.778 41.251C649.778 40.4053 650.413 39.5596 651.153 39.2425C652.952 38.6083 654.857 38.714 656.55 39.6653C657.079 40.0882 657.397 40.6167 657.503 41.251C657.82 42.4138 658.349 42.9423 658.032 44.3165C657.926 44.845 657.608 45.3736 657.291 45.7964C654.116 50.2362 642.688 52.9846 637.503 53.6188C636.973 53.7245 636.55 53.7245 636.021 53.6188L634.751 52.0332C632 53.5131 629.143 54.7816 626.18 55.733C623.852 56.2615 621.418 56.3672 619.09 55.8387Z" fill="#26366F"/>
<path d="M558.772 56.5788C558.031 56.5788 557.396 56.1559 558.031 55.8388C569.143 51.5047 579.513 45.4794 587.026 35.8599C588.719 33.5344 589.883 30.9974 590.73 28.2489C591.682 27.6147 592.635 27.0862 593.587 26.6633L595.28 26.2405V48.3335C596.867 48.9677 598.666 49.1792 600.359 48.862C602.687 48.4392 604.804 47.5935 606.815 46.325C606.709 44.3166 607.555 41.3568 609.46 40.4054C609.672 40.2997 609.989 40.194 610.201 40.0883C611.471 39.9826 612.846 40.194 614.01 40.8282C615.809 41.8853 615.598 43.9995 614.963 45.6908C613.481 49.7077 605.016 53.1961 601.1 54.3589C597.82 55.3103 594.539 55.8388 591.153 55.8388C591.153 50.2362 591.153 44.528 591.153 38.9255C591.153 37.8684 591.153 36.7056 590.518 37.657C585.65 44.6337 580.254 50.7648 572.317 54.1474C567.978 55.9445 563.428 56.7902 558.772 56.5788Z" fill="#26366F"/>
<path d="M671.577 53.7248C669.46 51.9278 667.344 49.2851 667.555 46.431C667.767 43.0483 669.566 39.5599 671.577 36.9172C672.846 35.2259 674.434 33.746 676.127 32.5832C677.82 31.4204 679.513 30.469 681.418 29.6234C682.053 29.5176 682.794 29.4119 683.428 29.3062C685.756 32.2661 686.497 36.0716 685.545 39.6656C684.698 42.5198 681.735 43.4711 679.196 43.894C678.561 43.9997 677.82 43.9997 677.185 43.9997V39.3485C678.349 39.3485 679.513 39.3485 680.783 39.2428C683.005 38.3971 681.735 35.6487 680.783 34.2745C679.301 35.1202 670.307 41.2512 671.047 43.4711C670.942 45.9024 673.376 48.228 675.492 49.0737C681.1 51.3992 692.212 46.8538 696.656 43.3654L696.762 28.4606C697.82 27.2978 699.09 26.2407 700.36 25.2893V48.8622C703.428 50.2364 706.497 49.3908 709.037 47.488C708.931 44.951 708.508 43.154 710.201 41.1455C711.471 39.5599 713.587 38.82 715.598 39.2428L716.339 39.3485C719.513 40.617 717.397 45.3739 716.339 47.2766C718.984 47.9109 719.936 48.0166 722.476 46.8538C724.275 46.0081 725.862 44.6339 726.921 42.9426L724.804 39.9827L728.296 34.2745C729.778 36.1773 729.989 38.82 730.095 41.1455C729.884 42.9426 729.46 44.7396 728.614 46.431C725.333 51.7164 718.561 53.0906 712.741 53.6191L711.048 51.9278C707.026 54.1477 702.794 55.839 698.137 55.5219C697.608 55.4162 696.973 55.2047 696.55 54.9933V48.1223C691.259 52.0335 685.122 55.5219 678.455 56.0504C675.915 55.9447 673.481 55.2047 671.577 53.7248Z" fill="#26366F"/>
<path d="M722.37 61.2298L719.09 58.9042C720.042 57.1071 721.206 55.4158 722.37 53.7245C722.582 53.5131 722.899 54.0416 723.111 54.1473C724.169 54.7816 725.227 55.4158 726.18 56.2615L722.899 61.5469L722.37 61.2298Z" fill="#26366F"/>
<path d="M666.301 115.71C662.991 115.824 659.566 115.71 656.256 115.596C656.142 98.377 656.256 81.0438 656.142 63.8246C656.142 63.2544 656.142 62.6842 656.256 62.114L668.128 62C668.128 78.9912 668.242 95.8683 668.128 112.745C668.128 113.658 668.128 114.684 668.014 115.596C667.329 115.71 666.758 115.71 666.301 115.71Z" fill="#E04918"/>
<path d="M357.055 115.825C356.827 115.368 356.713 114.798 356.713 114.342C356.713 107.044 356.941 99.6317 356.37 92.3334C356.256 91.0791 355.799 89.9387 355 89.0264C353.288 87.3159 350.662 86.8598 348.379 87.8861C346.667 88.7984 345.411 90.3948 345.183 92.3334C344.498 99.5176 344.955 108.412 345.069 115.825H333.082C333.082 103.395 333.425 90.965 332.74 78.5352H342.9L343.471 82.0703C343.471 82.4124 344.041 82.4124 344.384 82.6405C347.923 78.3072 353.859 77.0528 359.11 78.1932C360.936 78.6493 362.649 79.5616 364.019 80.8159C365.731 82.5265 368.128 86.5177 368.242 89.0264C368.699 97.9211 368.471 106.816 368.356 115.825H357.055Z" fill="#26366F"/>
<path d="M476.69 115.71C473.379 115.824 469.954 115.824 466.644 115.596C466.073 103.281 465.502 91.0788 465.502 78.7631C465.502 78.421 464.703 78.9911 464.361 79.1052C461.279 90.6227 457.511 102.254 453.973 113.544C453.859 114 453.516 114.456 453.288 114.798C450.434 115.026 447.694 115.026 444.84 114.798C444.498 114.57 444.155 114.342 444.041 114C440.731 102.254 437.648 90.2806 434.338 78.421C434.224 77.8508 433.767 79.4473 433.767 80.0175C433.767 81.0438 433.996 82.0701 433.881 83.3245C433.539 93.3595 433.082 103.509 432.626 113.544C432.512 114.228 432.283 114.912 432.055 115.596L421.667 115.824C422.694 98.8332 423.607 81.956 424.977 64.9649C429.886 64.7368 434.909 64.7368 439.817 64.9649C440.274 65.193 440.617 65.6491 440.845 66.1052C443.813 77.0526 447.352 87.8858 449.521 98.9472C452.945 87.5437 456.256 76.3684 459.68 64.9649C464.817 64.6228 470.069 64.5087 475.206 64.8508C475.662 81.6139 476.918 98.6051 477.717 115.482L476.69 115.71Z" fill="#E04918"/>
<path d="M531.37 116.622C527.603 116.394 524.749 114.57 522.238 111.947C521.096 110.693 520.411 107.956 520.411 106.245C520.183 103.737 520.64 101.228 521.553 98.9471C522.808 96.0963 527.717 93.2454 530.571 92.3331C534.11 91.5349 537.649 91.0787 541.187 91.0787C541.872 90.2805 541.987 89.1402 541.302 88.3419C540.388 87.3156 539.247 86.5174 537.877 86.1753C535.936 86.0612 534.11 86.0612 532.169 86.2893C529.544 86.6314 527.146 87.5437 524.863 88.9121L522.808 81.2718C524.521 80.3595 526.233 79.6753 528.06 79.1051C528.859 78.877 533.882 77.9648 534.566 77.9648C539.703 77.7367 545.297 78.3069 549.292 81.7279C552.375 84.2367 553.516 88.684 553.63 92.4472C553.859 100.202 553.516 107.956 553.973 115.71C550.777 115.824 547.58 115.824 544.384 115.71C543.128 115.254 543.242 113.316 543.128 112.403C540.046 115.254 535.822 116.851 531.37 116.622ZM534.681 108.07C537.649 108.754 540.617 107.272 541.872 104.535C542.329 102.938 542.443 101.228 542.215 99.6313C542.101 99.2892 542.443 98.605 541.987 98.491C539.019 98.1489 533.425 98.605 532.283 102.026C531.598 103.965 531.484 105.219 532.968 106.93C533.425 107.5 533.996 107.956 534.681 108.07Z" fill="#E04918"/>
<path d="M261.735 116.28C259.452 116.166 257.283 115.938 255 115.482V65.307C264.361 63.8245 279.772 62.7982 287.648 68.8421C291.758 72.035 292.329 78.1929 290.16 82.6402C289.018 85.035 286.05 87.0876 283.767 88.342C289.247 89.8244 293.128 94.8419 293.014 100.658C293.242 111.035 283.881 115.824 274.635 116.28C270.525 116.395 266.073 116.395 261.735 116.28ZM266.986 84.5789C269.612 84.921 272.237 84.8069 274.863 84.2367C276.804 83.8946 278.402 82.6403 279.315 80.9297C279.886 79.4473 279.886 76.3683 278.516 75.228C275.205 72.4912 270.982 72.7192 266.986 73.4034C266.872 77.0525 266.872 80.8157 266.986 84.5789ZM266.986 107.272C269.612 107.842 272.352 107.842 274.863 107.158C277.032 106.816 278.858 105.561 280.114 103.737C281.142 102.368 281.256 98.6051 280.228 97.2367C277.146 93.1314 271.667 93.1314 266.986 93.4735C266.872 98.0349 266.872 102.71 266.986 107.272Z" fill="#26366F"/>
<path d="M396.895 115.825C394.041 110.921 391.073 106.018 388.219 101.114C386.849 101.913 385.936 103.167 385.479 104.649C385.023 108.299 385.479 112.176 385.479 115.939H373.607C373.721 98.6056 373.607 81.2723 373.607 63.9391C373.607 63.3689 373.607 62.6847 373.607 62.1145H385.251C385.251 62.7987 385.365 63.3689 385.365 64.0531C385.251 73.2899 385.365 82.5267 385.251 91.7635C385.251 92.9039 385.251 94.1582 385.822 93.2459C388.676 88.5705 391.644 84.0091 394.84 79.5618C395.068 79.2197 395.411 78.9916 395.753 78.8776L409.68 78.6495L396.324 93.8161L411.621 115.825H396.895Z" fill="#26366F"/>
<path d="M302.603 116.167C298.95 115.027 296.21 112.176 294.954 108.641C294.498 106.246 294.498 103.737 294.954 101.228C298.379 92.7898 307.283 90.6232 315.616 90.9653C315.845 90.6232 315.959 90.167 316.187 89.8249C316.301 88.6846 315.046 87.3162 314.018 86.8601C309.452 84.8074 303.516 86.2899 299.292 88.7986C298.721 86.632 298.036 84.6934 297.466 82.5267C297.352 82.0706 297.237 81.5004 297.352 81.0443C303.288 77.9654 310.023 77.0531 316.53 78.1934C321.552 79.1057 326.005 82.5268 327.374 87.4302C329.429 95.2986 327.945 107.158 328.63 115.825H318.014L317.329 112.404C315.616 114.228 313.333 115.597 310.822 116.281C308.082 116.851 305.228 116.851 302.603 116.167ZM307.397 107.158C308.425 107.956 311.05 108.755 312.42 107.842C313.676 107.272 315.845 105.904 316.187 104.535C316.53 102.939 316.758 101.228 316.644 99.6319C316.53 99.1758 316.872 98.4916 316.53 98.4916C313.219 98.2635 308.31 98.7197 306.598 102.141C305.685 103.851 306.027 105.904 307.397 107.158Z" fill="#26366F"/>
<path d="M626.233 116.395C623.379 115.711 619.612 113.088 618.699 110.237C617.215 105.334 616.758 102.597 619.498 98.0353C620.868 96.3248 622.58 94.9563 624.521 93.816C628.973 91.7634 633.881 90.8511 638.79 91.0792C639.133 90.0529 639.018 88.9125 638.562 87.8862C634.11 84.1231 626.804 86.4038 622.238 88.6844L620.069 81.1582C625.776 78.5354 632.169 77.5091 638.448 78.0792C639.817 78.3073 641.187 78.5354 642.557 78.9915C644.041 79.6757 645.411 80.474 646.781 81.5003C648.151 82.9827 649.178 84.6932 649.977 86.5178C650.434 88.1143 650.776 89.7108 651.005 91.4213C651.005 97.9213 650.091 109.667 651.69 115.483C648.379 115.597 645.069 115.711 641.758 115.597C640.845 114.57 640.274 113.316 640.046 111.948C638.105 114.57 637.192 114.57 634.452 115.939C632.968 116.737 627.717 116.737 626.233 116.395ZM631.941 108.07C633.082 108.184 634.11 108.184 635.251 108.184C637.078 107.614 638.448 106.36 639.247 104.649C639.703 102.711 639.703 100.658 639.475 98.7195C637.763 98.3774 636.05 98.4914 634.452 98.9476C632.283 99.5177 629.087 101.228 629.201 103.851C629.087 105.448 630.114 107.614 631.941 108.07Z" fill="#E04918"/>
<path d="M717.671 116.167C715.731 115.368 714.018 114.228 712.649 112.746C711.05 110.351 710.137 107.5 710.137 104.535C709.795 98.9474 710.137 93.2457 710.137 87.5439L705.229 86.9738V78.6492H710.023C710.137 76.7107 710.137 74.658 710.137 72.7194C710.137 72.2633 710.822 71.6931 711.165 71.4651C713.562 70.5528 716.073 69.9826 718.471 69.2984C719.384 69.0703 720.411 68.9563 721.324 68.9563L721.553 78.6492L730 78.7633V86.9738C728.174 87.5439 726.233 87.5439 724.292 87.2018C723.265 87.0878 722.352 87.3159 721.439 87.8861C721.324 93.4737 721.553 98.9474 721.895 104.421C724.292 107.272 726.119 107.158 729.544 106.246C729.315 109.211 729.315 112.061 729.315 114.912C728.973 115.368 728.973 115.596 728.174 115.825C724.863 116.623 721.21 116.737 717.671 116.167Z" fill="#E04918"/>
<path d="M490.959 116.052C487.649 115.026 486.507 113.886 484.567 111.149C483.653 108.982 482.968 106.816 482.398 104.649C482.169 96.0964 482.283 87.4298 482.283 78.8772L493.927 78.7632C493.927 86.5175 493.699 94.3859 494.27 102.14C494.384 103.737 495.183 105.333 496.553 106.246C499.407 107.614 502.717 106.93 504.772 104.649C504.772 104.535 505.343 103.167 505.343 103.053C506.028 95.1842 505.685 87.0877 505.685 79.1053C509.681 78.7632 513.676 78.7632 517.672 78.9912L517.786 115.938H507.74L507.512 110.693C503.402 115.938 497.466 117.763 490.959 116.052Z" fill="#E04918"/>
<path d="M678.516 116.167C677.375 115.825 676.233 115.255 675.206 114.456C671.21 111.606 670.069 106.702 670.868 102.141C671.553 99.0618 673.379 96.439 676.005 94.7285C678.06 93.5881 680.229 92.6759 682.512 91.9916C685.594 91.4215 688.676 91.1934 691.758 91.1934C692.329 89.7109 691.872 88.0004 690.617 86.9741C689.589 86.518 688.448 86.1759 687.306 86.0618C683.082 85.7197 678.859 86.632 675.206 88.5706L673.151 81.1584C678.516 78.1935 684.566 77.6233 690.617 77.9654C690.731 77.9654 695.297 78.8776 695.525 78.9917C698.95 80.3601 701.69 83.0969 703.06 86.518C703.63 88.6846 703.973 90.8513 704.087 93.018C704.087 100.544 703.745 108.185 704.429 115.597C701.233 115.825 697.923 115.825 694.726 115.369C693.585 115.141 693.356 112.518 693.356 111.72C690.046 116.851 683.881 116.965 678.516 116.167ZM685.023 108.071C686.05 108.299 687.192 108.299 688.333 107.956C693.128 106.702 692.9 102.483 692.671 98.4916C689.589 97.9214 684.224 98.7197 682.854 102.027C682.397 103.053 682.283 104.193 682.626 105.334C682.854 106.702 683.767 107.614 685.023 108.071Z" fill="#E04918"/>
<path d="M613.105 115.825C609.908 115.825 606.712 115.825 603.63 115.711C603.516 107.956 603.858 100.088 603.173 92.3335C602.945 89.7107 601.004 87.6581 598.379 87.2019C595.753 86.8598 592.671 89.9388 592.557 92.3335C591.986 100.088 592.329 107.956 592.329 115.711H580.913C580.913 107.956 581.141 100.202 580.913 92.3335C580.342 90.8511 579.657 89.4826 578.858 88.2283C578.059 87.8861 577.146 87.5441 576.347 87.316C574.977 87.5441 573.15 87.8862 572.123 89.0265C571.438 90.1669 570.753 91.3072 570.182 92.4475C570.068 100.316 570.297 108.184 570.068 115.939L558.995 116.053C558.881 115.254 558.881 114.456 558.881 113.658C558.995 102.14 559.224 90.5089 558.539 78.9914H568.242C568.47 80.4739 568.584 81.8423 568.584 83.3248C568.584 83.7809 569.497 82.9827 569.726 82.6406C573.036 78.9915 576.347 77.9651 581.141 78.0792C585.479 78.1932 588.105 80.5879 590.502 83.8949C591.986 82.0704 593.813 80.4739 595.867 79.3336C597.237 78.8774 598.607 78.4213 599.977 78.1932C603.059 77.8511 606.141 78.4213 608.995 79.7897C611.849 81.2721 614.018 86.1756 614.36 89.2546C615.16 96.6668 614.931 106.132 614.817 113.772C614.703 114.57 614.475 115.254 614.132 116.053L613.105 115.825Z" fill="#E04918"/>
<rect x="2" y="2" width="796" height="176" rx="13" stroke="#26366F" stroke-width="4"/>
</svg>
