<svg width="180" height="180" viewBox="0 0 180 180" fill="none" xmlns="http://www.w3.org/2000/svg">
<rect width="180" height="180" rx="15" fill="#26366F"/>
<rect x="5" y="5" width="170" height="170" rx="15" fill="white"/>
<rect x="10.75" y="10.75" width="158.5" height="158.5" rx="14.25" stroke="#26366F" stroke-width="1.5"/>
<path d="M144.482 100.504C144.94 97.1685 144.678 93.7018 143.696 90.4968C143.238 88.8616 142.583 87.2918 141.732 85.7874C139.113 81.1434 135.38 77.2188 130.862 74.3408C126.082 71.2012 121.237 69.7622 116.326 67.2113C113.576 65.7069 110.957 63.9409 108.6 61.8478L105.522 64.3333C108.665 65.6415 111.808 66.9497 114.886 68.4541C121.303 71.5283 127.065 76.1069 130.862 82.0591C133.678 86.4415 135.315 91.4125 135.642 96.5798C135.708 97.6918 135.642 98.8037 135.38 99.8503L135.249 100.504C130.011 100.112 124.38 100.504 119.142 100.439C120.189 93.8326 117.963 87.2918 113.969 82.0591C109.582 76.3031 103.165 72.3132 96.5519 69.6314C96.29 69.566 96.0935 69.5006 95.8316 69.4352L93.2125 70.6125C101.463 75.649 108.207 83.5635 109.844 93.3094C110.368 95.6641 110.302 98.1496 109.778 100.504C96.6174 100.177 83.3253 100.504 70.0988 100.504C69.9024 98.2804 69.444 97.0377 69.7059 94.683C70.8845 84.4792 77.4323 75.7144 86.2064 70.5471L83.6527 69.5006C76.3847 72.3786 70.4917 76.3031 65.7772 82.5169C63.8129 85.1987 62.4379 88.2075 61.6521 91.4125C60.9319 94.3559 60.9974 97.4955 61.2593 100.504C56.4794 100.243 51.634 100.243 46.8541 100.504C46.5267 100.504 46.1993 100.504 45.8065 100.439C44.7588 93.571 46.6577 86.8339 50.5209 81.1434C54.1877 75.5836 59.7533 71.4629 65.6463 68.5195C68.5273 67.0805 71.4738 65.9685 74.4203 64.6603L71.1464 62.044C68.8547 64.0063 66.432 65.7069 63.7474 67.2113C59.3604 69.5006 54.9734 70.8742 50.6518 73.4251C44.366 77.1534 39.0622 83.0402 36.9015 90.0389C35.7884 93.3094 35.5919 96.776 36.2467 100.177C35.7229 100.374 35.199 100.439 34.6752 100.504C30.0263 100.308 25.2464 100.308 20.532 100.504C19.5498 97.1685 20.0736 93.3748 20.9249 90.0389C23.0202 81.9937 29.0441 75.1258 36.0503 70.8088C40.1754 68.2578 44.8243 66.688 49.1459 64.5295C53.7948 62.2402 58.4437 58.5119 60.9974 53.9987C62.1105 52.1673 62.8307 50.0742 63.0272 47.9157C63.0927 47.6541 63.1581 47.327 63.3546 47.0654H66.3665C66.7594 50.9245 68.3964 54.522 71.081 57.2692C73.7001 54.4566 75.337 50.9245 75.7299 47.0654L78.8074 47C79.3312 50.9245 81.0336 54.5874 83.7182 57.5308C85.0278 56.2226 86.0754 54.6528 86.9266 53.0176C87.9743 50.6629 88.1052 49.4201 88.6945 47.0654H91.8375C92.2303 50.8591 93.8673 54.4566 96.4209 57.2692C98.8436 54.3258 100.677 50.9245 101.07 47.1308H104.213C104.54 50.7937 106.112 54.2604 108.6 57.0075C111.022 54.195 112.528 50.7283 112.921 47.0654H115.999C116.654 52.2981 119.469 56.7459 123.529 60.0817C125.493 61.717 127.588 63.2214 129.88 64.3987C134.66 66.8842 139.309 68.2578 143.958 71.2666C151.095 75.7798 156.923 82.7786 159.083 91.0201C159.607 93.1786 159.935 95.337 160 97.5609C160 98.5421 159.869 99.5886 159.607 100.57C154.5 100.243 149.458 100.439 144.482 100.504ZM83.7837 66.0339L86.7957 64.595L83.9146 62.3056L80.8372 64.7258C81.8193 65.1182 82.8015 65.5761 83.7837 66.0339ZM95.6352 65.7069L95.9626 65.8377C97.0757 65.3144 98.1233 64.8566 99.171 64.2679L96.4209 61.9786L93.147 64.595C93.9982 64.922 94.8495 65.3144 95.6352 65.7069ZM89.5457 68.5195C90.397 68.5849 91.1827 67.9308 91.9029 67.4729L89.9386 66.688L87.9088 67.7346C88.4326 68.0616 88.9564 68.3233 89.5457 68.5195ZM147.952 97.1685L156.53 97.1031C156.53 96.776 156.53 96.449 156.53 96.1219C156.399 93.571 155.809 91.0201 154.827 88.5999C152.208 82.1245 147.101 76.8918 141.077 73.2943C136.755 70.7434 132.303 69.3698 127.981 67.0805C122.285 64.1371 117.374 59.5585 114.493 53.8025C113.511 55.7648 112.267 57.6616 110.892 59.4277C112.921 61.2591 115.213 62.8289 117.636 64.1371C122.285 66.5572 127.261 68.1924 131.714 71.005C134.66 72.9019 137.345 75.1258 139.702 77.6113C144.482 82.7786 148.083 90.0389 147.952 97.1685ZM102.248 62.2402L102.51 62.4365L106.308 59.4277C104.933 57.727 103.689 55.8302 102.707 53.9333C101.725 55.961 100.415 57.9233 98.9091 59.6239C99.8913 60.5396 101.07 61.3899 102.248 62.2402ZM86.2718 59.8855L90.0696 62.6327C91.5101 61.717 92.8196 60.7358 94.0637 59.5585C92.5577 57.7924 91.3136 55.8302 90.3315 53.7371C89.2183 55.961 87.8433 58.0541 86.2718 59.8855ZM122.678 97.1685L132.499 97.1031C132.434 95.6641 132.237 94.2251 131.975 92.8515C131.583 90.8892 130.993 88.9924 130.077 87.2264C126.868 80.7509 121.63 75.9761 115.41 72.444C111.284 70.0893 106.57 68.8465 102.51 66.361L100.35 67.6037C103.558 69.239 106.701 71.1358 109.647 73.1635C116.588 78.3308 123.07 88.0767 122.678 97.1685ZM77.3668 62.6981L77.5633 62.8289L81.4265 59.9509C79.855 58.1195 78.48 56.1572 77.3668 54.0641C76.2537 56.0918 75.0096 57.9887 73.5036 59.7547C74.8132 60.8012 76.0573 61.7824 77.3668 62.6981ZM31.9252 97.1031H32.5799C32.5799 95.01 32.8418 92.9823 33.3002 90.9547C35.1336 82.844 40.8956 75.7144 47.8363 71.2666C52.6817 68.1924 57.4616 66.688 62.3724 64.0717C64.6641 62.8289 66.8249 61.3245 68.7892 59.6239C67.2178 57.8579 65.9082 55.8956 64.926 53.7371C61.9795 59.8201 56.6758 64.4641 50.7173 67.4729C46.1993 69.7622 41.9433 71.0704 37.5563 73.8176C35.5264 75.1257 33.6276 76.5647 31.8597 78.2654C26.9488 83.0402 23.3475 89.5811 23.413 96.5798C23.413 96.776 23.4785 96.9723 23.544 97.1685C26.3595 97.1031 29.1096 97.1031 31.9252 97.1031ZM48.8839 97.1031L57.8544 97.0377C57.8544 93.8326 58.3782 90.6276 59.4914 87.6188C63.4855 78.0037 70.1643 71.7245 79.7895 67.6692C79.0038 67.4729 78.2835 67.0805 77.6942 66.5572C73.5036 68.9773 68.9202 70.2855 64.7296 72.7056C62.8307 73.8176 60.9974 75.0603 59.2949 76.4339C53.3364 81.1433 48.3601 89.3194 48.8839 97.1031ZM73.1108 97.1031H106.963C106.897 95.1408 106.635 93.244 106.046 91.4125C103.623 83.1056 97.3376 76.2377 89.6767 72.3132C86.7302 73.9484 83.9801 75.9107 81.492 78.2C76.5811 82.9748 72.587 90.1043 73.1108 97.1031Z" fill="#26366F"/>
<path d="M149.156 110.855C148.333 110.332 147.66 109.585 147.211 108.763C146.464 109.51 145.716 110.182 144.893 110.855C144.444 111.228 144.519 110.556 144.818 110.108L147.511 105.924C148.707 105.999 148.333 105.476 149.754 106.148C151.399 106.895 151.325 108.091 150.951 109.585C150.726 110.257 150.128 110.78 149.455 111.004L149.156 110.855Z" fill="#26366F"/>
<path d="M26.5812 128.41C24.8611 128.261 23.141 128.336 21.7201 127.215C20.7479 126.393 20.1496 125.198 20 123.928C20 121.612 20.3739 119.296 21.1218 117.13C21.1966 116.756 21.5705 117.727 21.6453 118.026C21.8697 119.744 22.3932 121.388 23.141 122.882C24.562 123.48 26.0577 123.779 27.6282 123.853C32.1154 123.928 37.6496 123.704 41.0898 120.417L39.968 117.727L41.9872 112.871C44.2308 115.71 44.5299 119.744 42.6603 122.882C39.5192 128.336 32.1902 128.933 26.5812 128.41Z" fill="#26366F"/>
<path d="M49.7646 120.268C49.6898 117.279 49.6898 114.291 49.7646 111.228L52.9056 108.24L52.9804 118.848L49.8394 121.388C49.7646 121.015 49.7646 120.641 49.7646 120.268Z" fill="#26366F"/>
<path d="M33.5363 108.838C31.9658 108.913 30.47 108.913 28.8995 108.838L30.7692 106.074L35.406 106.148L34.0598 108.838H33.5363Z" fill="#26366F"/>
<path d="M81.5491 129.009C81.5491 122.36 81.5491 115.711 81.5491 109.062C81.5491 108.763 81.6238 108.464 81.7734 108.24L84.017 106.596L84.0918 124.451C86.7093 125.049 89.1025 124.377 91.4209 123.107C90.8226 121.388 90.2991 120.492 90.8974 118.699C91.1965 117.803 92.6175 117.055 93.5149 116.981C94.4871 116.906 96.0576 116.831 96.8055 117.504C98.1517 118.774 97.7029 121.239 96.955 122.659C98.8995 122.883 100.769 122.584 102.639 121.986C102.938 121.837 103.237 121.687 103.536 121.538C103.237 120.641 103.088 119.67 103.237 118.699C103.237 118.101 103.686 117.504 104.209 117.28C105.481 116.831 106.827 116.906 108.023 117.578C108.397 117.877 108.622 118.251 108.697 118.699C108.921 119.521 109.295 119.894 109.07 120.866C108.996 121.239 108.771 121.613 108.547 121.911C106.303 125.049 98.2264 126.992 94.5619 127.44C94.188 127.514 93.8888 127.514 93.5149 127.44L92.6174 126.319C90.673 127.365 88.6538 128.262 86.5598 128.934C84.9145 129.307 83.1944 129.382 81.5491 129.009Z" fill="#26366F"/>
<path d="M38.9208 129.531C38.3973 129.531 37.9486 129.232 38.3973 129.008C46.2499 125.945 53.5789 121.687 58.8888 114.889C60.0854 113.245 60.908 111.452 61.5063 109.51C62.1794 109.062 62.8525 108.688 63.5255 108.389L64.7221 108.09V123.704C65.8439 124.152 67.1152 124.302 68.3118 124.078C69.9571 123.779 71.4529 123.181 72.8738 122.285C72.799 120.865 73.3973 118.773 74.7435 118.101C74.8931 118.026 75.1174 117.952 75.267 117.877C76.1644 117.802 77.1366 117.952 77.9593 118.4C79.2307 119.147 79.0811 120.641 78.6323 121.836C77.5853 124.675 71.6024 127.141 68.8353 127.962C66.517 128.635 64.1986 129.008 61.8054 129.008C61.8054 125.049 61.8054 121.015 61.8054 117.055C61.8054 116.308 61.8054 115.486 61.3567 116.159C57.9165 121.089 54.1024 125.422 48.4934 127.813C45.4272 129.083 42.2114 129.681 38.9208 129.531Z" fill="#26366F"/>
<path d="M118.643 127.514C117.147 126.244 115.652 124.377 115.801 122.359C115.951 119.969 117.222 117.503 118.643 115.636C119.54 114.44 120.662 113.395 121.859 112.573C123.055 111.751 124.252 111.079 125.598 110.481C126.047 110.406 126.57 110.332 127.019 110.257C128.664 112.349 129.188 115.038 128.515 117.578C127.917 119.595 125.823 120.268 124.028 120.566C123.579 120.641 123.055 120.641 122.607 120.641V117.354C123.429 117.354 124.252 117.354 125.149 117.279C126.72 116.682 125.823 114.739 125.149 113.768C124.102 114.366 117.746 118.699 118.269 120.268C118.194 121.986 119.914 123.629 121.41 124.227C125.374 125.871 133.226 122.658 136.367 120.193L136.442 109.659C137.19 108.837 138.087 108.09 138.985 107.418V124.078C141.154 125.049 143.323 124.451 145.117 123.107C145.043 121.314 144.743 120.044 145.94 118.624C146.837 117.503 148.333 116.981 149.754 117.279L150.278 117.354C152.521 118.251 151.026 121.612 150.278 122.957C152.147 123.405 152.82 123.48 154.615 122.658C155.887 122.061 157.008 121.089 157.756 119.894L156.261 117.802L158.729 113.768C159.776 115.113 159.925 116.981 160 118.624C159.85 119.894 159.551 121.164 158.953 122.359C156.634 126.095 151.848 127.066 147.735 127.44L146.538 126.244C143.696 127.813 140.705 129.008 137.414 128.784C137.04 128.71 136.592 128.56 136.293 128.411V123.555C132.553 126.319 128.216 128.784 123.504 129.158C121.709 129.083 119.989 128.56 118.643 127.514Z" fill="#26366F"/>
<path d="M154.541 132.818L152.222 131.175C152.895 129.905 153.718 128.71 154.541 127.514C154.69 127.365 154.914 127.738 155.064 127.813C155.812 128.261 156.56 128.71 157.233 129.307L154.914 133.043L154.541 132.818Z" fill="#26366F"/>
</svg>
