<svg width="537" height="134" viewBox="0 0 537 134" fill="none" xmlns="http://www.w3.org/2000/svg">
<path d="M537 134H0V0H537V134Z" fill="#176FC1"/>
<path d="M133.172 75.1268L116.752 46.45L123.985 33.4582H106.001L89.8474 62.4864H107.815L124.228 91.1792L133.172 75.1268Z" fill="#F25C19"/>
<path d="M84.7106 33.4809L67.7661 62.4864L52.7288 62.5383L61.7171 78.0957L95.1853 78.0518L86.0984 62.3055L102.932 33.4583L84.7106 33.4809Z" fill="#F25C19"/>
<path d="M73.0933 97.026L106.154 97.0647L113.788 109.812L122.774 94.2542L105.692 65.7464L96.7101 81.293L63.6868 81.2784L73.0933 97.026Z" fill="#F25C19"/>
<path d="M155.696 64.5197H163.652C165.017 64.5197 165.995 64.4652 166.566 64.388C167.582 64.235 168.465 63.9781 169.209 63.6268C169.957 63.2795 170.635 62.7752 171.227 62.1018C171.821 61.4351 172.241 60.6553 172.47 59.7851C172.735 58.7538 172.669 57.8555 172.259 57.0997C171.848 56.3478 171.146 55.7969 170.142 55.5015C169.136 55.1928 167.613 55.0411 165.583 55.0411H158.182L155.696 64.5197ZM159.039 51.8074H165.948C167.827 51.8074 169.195 51.7076 170.07 51.4947C171.227 51.2086 172.149 50.7522 172.861 50.1294C173.576 49.4773 174.057 48.6843 174.317 47.7168C174.55 46.8106 174.507 46.0082 174.181 45.3082C173.856 44.6083 173.25 44.1425 172.371 43.8777C171.49 43.6235 169.911 43.4892 167.607 43.4892H161.22L159.039 51.8074ZM150.6 67.748L157.823 40.2662H169.818C172.263 40.2662 174.15 40.5443 175.481 41.0992C176.818 41.6528 177.744 42.5084 178.279 43.6608C178.81 44.8159 178.912 46.0335 178.583 47.2843C178.274 48.4554 177.614 49.5599 176.604 50.6045C175.587 51.6265 174.257 52.4688 172.59 53.1062C174.398 53.5853 175.663 54.4236 176.389 55.6013C177.124 56.7856 177.276 58.1696 176.854 59.7664C176.518 61.0599 175.88 62.2482 174.955 63.3753C174.035 64.4652 173.029 65.3235 171.938 65.9236C170.852 66.5225 169.562 66.9736 168.084 67.2929C166.594 67.6017 164.832 67.748 162.805 67.748H150.6Z" fill="white"/>
<path d="M189.273 56.4716H200.163L198.831 48.8559C198.429 46.5378 198.166 44.6163 198.036 43.1059C197.137 44.8944 196.1 46.6522 194.896 48.4088L189.273 56.4716ZM177.095 67.748L196.57 40.2662H201.19L207.055 67.748H202.232L200.717 59.4298H187.238L181.593 67.748H177.095Z" fill="white"/>
<path d="M210.396 67.748L217.61 40.2662H221.953L233.091 61.8397L238.754 40.2662H242.812L235.597 67.748H231.252L220.124 46.1652L214.451 67.748H210.396Z" fill="white"/>
<path d="M242.544 67.748L249.773 40.2662H254.012L250.439 53.8621L269.886 40.2662H275.615L259.27 51.4175L268.991 67.748H263.396L255.667 53.8714L249.292 58.2308L246.794 67.748H242.544Z" fill="white"/>
<path d="M286.768 51.3843H290.931C291.373 51.3843 292.279 51.2512 293.638 51.0143C294.319 50.8999 294.928 50.6045 295.466 50.1441C296.002 49.6876 296.351 49.1593 296.502 48.5605C296.731 47.6902 296.574 47.0009 296.054 46.5378C295.527 46.0614 294.367 45.8206 292.558 45.8206H288.223L286.768 51.3843ZM272.508 67.748L279.736 40.2662H296.222C299.281 40.2662 301.565 40.4897 303.069 40.9488C304.553 41.3933 305.643 42.2236 306.319 43.4426C306.984 44.6628 307.095 46.1453 306.629 47.8898C306.243 49.4162 305.51 50.7243 304.463 51.8367C303.411 52.9346 302.137 53.8421 300.633 54.5221C299.67 54.9599 298.42 55.3352 296.869 55.6213C297.959 55.9539 298.719 56.3012 299.167 56.6339C299.472 56.8615 299.877 57.3325 300.372 58.0737C300.871 58.8256 301.186 59.3858 301.314 59.7944L304.02 67.748H292.843L289.755 59.3579C289.375 58.2588 288.966 57.5561 288.523 57.2421C287.92 56.8042 287.167 56.586 286.268 56.586H285.397L282.461 67.748H272.508Z" fill="white"/>
<path d="M327.521 57.2754L326.598 47.3988L320.489 57.2754H327.521ZM328.007 63.2329H316.768L314.019 67.748H303.916L323.153 40.2662H333.993L338.755 67.748H328.411L328.007 63.2329Z" fill="white"/>
<path d="M349.204 40.2662H359.116L356.384 50.6524L369.489 40.2662H382.625L368.266 50.6244L375.916 67.748H363.726L359.969 56.4716L353.663 61.0359L351.893 67.748H341.987L349.204 40.2662Z" fill="white"/>
<path d="M383.164 40.2662H394.146L398.196 49.4973L407.064 40.2662H417.966L401.349 56.2347L398.327 67.748H388.416L391.443 56.2347L383.164 40.2662Z" fill="white"/>
<path d="M430.132 57.2754L429.193 47.3988L423.09 57.2754H430.132ZM430.604 63.2329H419.374L416.618 67.748H406.522L425.745 40.2662H436.598L441.351 67.748H431.011L430.604 63.2329Z" fill="white"/>
<path d="M446.4 40.2662H476.495L474.722 47.0222H464.629L459.186 67.748H449.269L454.723 47.0222H444.629L446.4 40.2662Z" fill="white"/>
<path fill-rule="evenodd" clip-rule="evenodd" d="M426.544 81.9268L424.188 79.5914L426.544 77.244L428.886 79.5914L426.544 81.9268Z" fill="white"/>
<path fill-rule="evenodd" clip-rule="evenodd" d="M429.914 102.397L432.264 104.742L434.61 102.397L432.264 100.051L429.914 102.397ZM435.886 102.397L438.235 104.742L440.576 102.397L438.235 100.051L435.886 102.397ZM327.136 102.397L329.472 104.742L331.817 102.397L329.472 100.051L327.136 102.397ZM426.949 93.778C425.993 93.778 425.215 93.0048 425.215 92.048C425.215 91.0926 425.993 90.3274 426.949 90.3274C427.904 90.3274 428.671 91.0926 428.671 92.048C428.671 93.0048 427.904 93.778 426.949 93.778ZM452.982 92.3754L453.941 93.5305L453.951 95.2045L444.614 95.1819V87.831C443.273 90.9888 439.796 92.2995 439.796 92.2995L440.763 93.4506V95.1433L430.513 95.1526V93.0368C430.513 93.0368 432.515 91.2589 433.9 91.4812L433.986 90.732C433.986 90.732 431.673 89.6368 430.36 89.8032C430.36 89.8032 429.594 87.4132 426.811 87.4132C424.026 87.4132 423.26 89.8032 423.26 89.8032C421.952 89.6368 419.644 90.732 419.644 90.732L419.716 91.4812C421.105 91.2589 423.11 93.0368 423.11 93.0368V95.1952H412.311C412.311 95.1952 413.236 88.4072 404.761 88.4072H389.644C389.644 88.4072 390.11 86.8796 391.885 86.8796C391.885 86.8796 399.209 85.3306 396.814 80.0158C396.814 80.0158 394.193 74.6237 385.557 77.1627C385.557 77.1627 388.178 80.0158 388.178 80.6292C388.178 80.6292 392.266 79.9386 392.727 81.5554C392.727 81.5554 393.578 83.3997 389.025 84.4031C389.025 84.4031 381.86 86.2528 383.777 91.8817H404.227C404.227 91.8817 407.23 91.8817 407.23 93.4267C407.23 93.4267 407.292 95.1952 404.057 95.1952H376.997V98.5659L457.791 98.5699V87.9069C456.439 91.054 452.982 92.3754 452.982 92.3754ZM446.609 102.397L448.955 104.742L451.296 102.397L448.955 100.051L446.609 102.397ZM363.665 89.3387C363.665 89.3387 360.968 91.4812 361.27 93.8791C361.27 93.8791 365.516 93.8072 365.825 97.5771C365.825 97.5771 366.054 102.432 358.959 103.045L359.039 103.198C359.039 103.198 369.76 104.291 369.988 96.2651C369.988 96.2651 369.76 88.4964 363.665 89.3387ZM424.56 83.9041L422.223 81.5647L419.881 83.9041L422.223 86.2528L424.56 83.9041ZM308.09 87.0512L305.743 84.7158L303.402 87.0512L305.743 89.3946L308.09 87.0512ZM302.113 87.0512L299.771 84.7158L297.415 87.0512L299.771 89.3946L302.113 87.0512ZM311.92 95.3442C311.92 95.3442 309.121 93.7074 312.525 92.3195C312.525 92.3195 314.58 91.6581 315.359 93.8365C315.359 93.8365 314.878 96.1267 311.92 95.3442ZM355.618 95.1526H347.615C346.03 91.5237 350.319 90.9888 350.319 90.9888C352.71 90.9356 353.996 88.9009 353.996 88.9009C351.756 87.1271 352.017 83.4849 352.017 83.4849C351.327 87.4039 346.511 88.0492 346.511 88.0492C340.535 88.6441 342.923 95.1952 342.923 95.1952H336.219V87.8789C334.863 91.0261 331.395 92.3528 331.395 92.3528L332.355 93.4985V95.1526H318.462V86.7092L318.447 85.4863C317.25 87.6647 313.908 88.5057 313.908 88.5057L314.628 89.6568V90.2609C306.528 88.016 306.2 95.2045 306.2 95.2045H302.812C302.902 96.5831 297.887 98.5805 297.887 98.5805H361.576C357.646 97.7382 355.618 95.1526 355.618 95.1526ZM432.896 83.9041L430.552 81.5647L428.196 83.9041L430.552 86.2528L432.896 83.9041ZM321.149 102.397L323.505 104.742L325.847 102.397L323.505 100.051L321.149 102.397Z" fill="white"/>
</svg>
