<svg width="370" height="141" viewBox="0 0 370 141" fill="none" xmlns="http://www.w3.org/2000/svg">
<path d="M72.5503 61.2263H68.697C66.1228 61.2263 65.0529 59.5808 65.0529 57.2093V40.2058H72.5503V35.408H65.0529V26.3654H59.6514V57.1307C59.6514 63.6179 62.9051 66.3892 68.6877 66.3892H72.5503V61.2263Z" fill="#006EA6"/>
<path d="M20.5898 51.7444V51.9682C20.5898 62.9828 29.5875 66.9279 38.0096 66.9279C46.2411 66.9279 54.526 62.9868 54.526 54.2719C54.526 45.8061 47.5695 43.5171 41.0461 42.0329L38.769 41.5373C32.9212 40.2582 27.8581 39.183 27.8581 34.8302C27.8581 28.6308 34.2336 27.9246 36.9663 27.9246C42.9887 27.9246 46.4889 30.8265 47.0765 36.2532L47.0979 36.453H52.7859L52.7805 36.2185C52.4541 27.6901 46.7767 22.8191 37.1982 22.8191C29.5729 22.8191 21.8649 26.6469 21.8649 35.2379C21.8649 42.8963 28.2698 44.9281 35.4061 46.4869L36.8091 46.7974C42.8369 48.0778 48.5288 49.2955 48.5288 54.4464C48.5288 60.8377 42.0534 61.7876 38.1841 61.7876C34.9264 61.7876 31.9805 60.9523 29.8926 59.4467C27.5343 57.732 26.2898 55.1592 26.2898 51.9682V51.7444H20.5898Z" fill="#006EA6"/>
<path d="M105.043 61.399L104.743 61.5096C104.069 61.7561 103.622 61.7867 103.304 61.7867C102.004 61.7867 101.944 61.0819 101.944 58.6397V43.1272C101.944 37.3887 98.1783 34.6055 90.4131 34.6055C85.7058 34.6055 77.762 35.9378 77.4143 44.9192L77.4049 45.1577H82.7945L82.8051 44.9445C83.005 41.1979 85.3367 39.4206 90.124 39.4206C94.5369 39.4206 96.6074 40.9395 96.6074 44.2317C96.6074 46.971 93.832 47.3601 90.0081 47.8983C88.9155 48.0502 87.8056 48.2114 86.6264 48.4366C81.3728 49.4478 76.2324 51.016 76.2324 57.9416C76.2324 63.3629 80.0551 66.6392 86.4399 66.6392C90.7289 66.6392 94.2184 65.1189 96.8846 62.2397C97.0937 65.7984 99.3388 66.6392 101.256 66.6392C102.81 66.6392 103.977 66.3327 104.936 65.7571L105.043 65.6905V61.399ZM87.5458 61.7867C85.8643 61.7867 81.9351 61.3777 81.9351 57.5898C81.9351 53.9379 84.9183 52.8813 87.8163 52.3644C88.701 52.2138 89.6496 52.0859 90.5477 51.978C92.8714 51.6755 95.0658 51.3851 96.5501 50.5111V55.2049C96.5501 57.7511 94.0985 61.7867 87.5458 61.7867Z" fill="#006EA6"/>
<path d="M109.817 35.4084V66.0059H115.23V48.7599C115.23 42.9975 118.474 39.5267 123.923 39.5267C127.554 39.5267 129.827 41.7931 129.827 45.3824V66.0059H135.238V45.9673C135.238 38.3822 131.758 34.7116 124.624 34.7116C120.275 34.7116 117.035 36.409 114.922 39.7919V35.4084H109.817Z" fill="#006EA6"/>
<path d="M163.937 23.9098V39.1319C161.651 35.8983 157.517 34.7071 154.317 34.7071C145.799 34.7071 140.31 40.9385 140.31 50.6181C140.31 55.0615 141.57 59.0572 143.828 61.8911C146.336 65.0381 150.003 66.7395 154.432 66.7395C158.857 66.7395 162.274 65.1087 163.937 62.3214V66.0054H169.353V23.9098H163.937ZM155.127 61.8884C148.838 61.8884 146.008 56.4218 146.008 50.9685C146.008 47.5363 146.868 39.5236 154.842 39.5236C163.441 39.5236 164.114 48.1119 164.114 50.734C164.114 56.146 161.76 61.8884 155.127 61.8884Z" fill="#006EA6"/>
<path d="M203.606 61.5002L203.31 61.6121C202.632 61.8573 202.188 61.8866 201.871 61.8866C200.546 61.8866 200.488 61.1844 200.488 58.7422V43.2297C200.488 37.4886 196.724 34.708 188.984 34.708C184.257 34.708 176.321 36.039 175.969 45.023L175.96 45.2575H181.368L181.378 45.0457C181.578 41.2978 183.891 39.5231 188.686 39.5231C193.101 39.5231 195.155 41.0793 195.155 44.3342C195.155 47.0735 192.397 47.4626 188.577 47.9995C187.471 48.1554 186.363 48.3126 185.187 48.5404C179.943 49.5504 174.808 51.1159 174.808 58.0428C174.808 63.4641 178.608 66.739 185 66.739C189.293 66.739 192.784 65.2201 195.43 62.3409C195.64 65.8996 197.885 66.739 199.801 66.739C201.377 66.739 202.544 66.4352 203.499 65.8583L203.606 65.793V61.5002ZM186.105 61.8866C184.421 61.8866 180.514 61.4789 180.514 57.695C180.514 54.0444 183.472 52.9852 186.373 52.4682C187.256 52.315 188.182 52.1884 189.115 52.0805C191.437 51.7767 193.632 51.4889 195.095 50.6149V55.3061C195.095 57.8522 192.664 61.8866 186.105 61.8866Z" fill="#006EA6"/>
<path d="M224.625 34.7156L224.411 34.7116C219.358 34.5477 215.965 36.5689 213.421 41.3134V35.4084H208.323V66.0059H213.711V52.3639C213.711 44.2206 217.137 40.3941 224.401 40.3941H224.625V34.7156Z" fill="#006EA6"/>
<path d="M249.004 23.9098V39.1319C246.71 35.8983 242.593 34.7071 239.35 34.7071C230.878 34.7071 225.362 40.9385 225.362 50.6181C225.362 55.0615 226.609 59.0572 228.908 61.8911C231.411 65.0381 235.062 66.7395 239.494 66.7395C243.929 66.7395 247.344 65.1007 249.004 62.3201V66.0054H254.429V23.9098H249.004ZM240.205 61.8884C233.895 61.8884 231.082 56.4218 231.082 50.9685C231.082 47.5363 231.94 39.5236 239.92 39.5236C248.502 39.5236 249.172 48.1119 249.172 50.734C249.172 56.146 246.817 61.8884 240.205 61.8884Z" fill="#006EA6"/>
<path d="M31.7523 108.535L31.7337 108.736C31.1794 116.007 26.6732 120.551 19.9566 120.551C15.3186 120.551 11.7251 118.86 9.30545 115.468C7.1443 112.494 5.98645 108.299 5.98645 103.313C5.98645 98.7739 7.17628 94.6849 9.29346 91.7524C11.7197 88.4335 15.3945 86.6895 19.8967 86.6895C25.9897 86.6895 30.252 89.9258 31.3286 95.3857L31.3633 95.5656H37.355L37.3164 95.3125C36.7062 91.0036 34.6689 87.4716 31.4339 85.064C28.3894 82.7897 24.4108 81.5826 19.9566 81.5826C13.8103 81.5826 8.67656 83.8303 5.09775 88.0831C1.82138 92.0016 0 97.5815 0 103.724C0 117.25 7.47341 125.657 19.4889 125.657C24.6546 125.657 29.0515 124.101 32.1987 121.163C35.2898 118.262 37.2031 113.957 37.7228 108.779L37.7468 108.535H31.7523Z" fill="#006EA6"/>
<path d="M42.9326 82.5317V124.698H48.3408V107.42C48.3408 101.624 51.6092 98.1841 57.0374 98.1841C60.6881 98.1841 62.9425 100.418 62.9425 104.013V124.698H68.3521V104.589C68.3521 97.0436 64.8918 93.3743 57.7555 93.3743C54.5444 93.3743 50.2715 94.5854 48.3408 98.0096V82.5317H42.9326Z" fill="#006EA6"/>
<path d="M79.6728 103.89L79.6768 103.672C79.8754 99.9299 82.1911 98.1845 86.9784 98.1845C91.4126 98.1845 93.4618 99.7034 93.4618 102.969C93.4618 105.735 90.7037 106.132 86.8638 106.665C85.7885 106.817 84.6747 106.978 83.5048 107.203C78.2432 108.212 73.1055 109.777 73.1055 116.675C73.1055 122.125 76.9241 125.37 83.3116 125.37C87.5806 125.37 91.0955 123.884 93.7349 121.006C93.9441 124.561 96.2105 125.37 98.1279 125.37C99.6721 125.37 100.835 125.099 101.793 124.522L101.899 124.458V120.174L101.599 120.275C100.922 120.523 100.478 120.551 100.162 120.551C98.874 120.551 98.8167 119.85 98.8167 117.369V101.859C98.8167 96.15 95.0367 93.3734 87.2688 93.3734C82.5615 93.3734 74.6204 94.7084 74.2647 103.65L74.262 103.89H79.6728ZM84.4202 120.551C82.7227 120.551 78.8068 120.144 78.8068 116.319C78.8068 112.668 81.77 111.647 84.696 111.135C85.5754 110.979 86.5 110.859 87.3914 110.745C89.7391 110.445 91.9375 110.154 93.4018 109.275V113.934C93.4018 116.486 90.9702 120.551 84.4202 120.551Z" fill="#006EA6"/>
<path d="M254.429 124.675V82.5726H249.004V97.7933C246.71 94.5571 242.594 93.3686 239.351 93.3686C230.874 93.3686 225.362 99.6027 225.362 109.28C225.362 113.691 226.609 117.713 228.905 120.554C231.411 123.7 235.062 125.366 239.494 125.366C243.927 125.366 247.342 123.768 249.004 120.979V124.675H254.429ZM240.203 120.55C233.895 120.55 231.084 115.049 231.084 109.634C231.084 106.2 231.939 98.1837 239.916 98.1837C248.505 98.1837 249.174 106.78 249.174 109.394C249.174 114.777 246.818 120.55 240.203 120.55Z" fill="#006EA6"/>
<path d="M165.441 115.178C164.518 118.648 161.896 120.55 157.957 120.55C155.17 120.55 152.833 119.68 151.235 118.023C149.612 116.307 148.751 113.862 148.799 111.076H171.141H171.35L171.37 110.86C171.585 105.417 169.911 100.257 166.897 97.1209C164.492 94.6307 161.339 93.3743 157.492 93.3743C149.15 93.3743 143.093 100.051 143.093 109.285C143.415 119.519 148.779 125.365 157.781 125.365C164.682 125.365 169.421 121.664 170.832 115.178H165.441ZM157.198 98.1841C161.717 98.1841 165.289 101.634 165.632 106.265H148.822C149.22 102.185 151.931 98.1841 157.198 98.1841Z" fill="#006EA6"/>
<path d="M215.908 115.247C214.969 118.681 212.317 120.55 208.423 120.55C205.637 120.55 203.321 119.68 201.722 118.022C200.055 116.306 199.208 113.861 199.246 111.075H221.603H221.821L221.833 110.86C222.046 105.422 220.378 100.257 217.359 97.1217C214.974 94.6303 211.787 93.3738 207.962 93.3738C199.598 93.3738 193.566 100.05 193.566 109.279C193.882 119.519 199.229 125.37 208.255 125.37C215.145 125.37 219.856 121.692 221.286 115.247H215.908ZM207.666 98.1836C212.172 98.1836 215.769 101.633 216.117 106.264H199.269C199.669 102.185 202.416 98.1836 207.666 98.1836Z" fill="#006EA6"/>
<path d="M112.066 124.698V111.024C112.066 102.844 115.472 99.0546 122.756 99.0546H122.98V93.3775L122.764 93.3735C117.693 93.2083 114.28 95.2294 111.776 99.9393V94.0317H106.659V124.698H112.066Z" fill="#006EA6"/>
<path d="M182.101 124.675V111.025C182.101 102.848 185.485 99.0552 192.786 99.0552H193.012V93.374H192.797C187.707 93.2088 184.312 95.2287 181.807 99.9398V94.0469H176.692V124.675H182.101Z" fill="#006EA6"/>
<path d="M140.365 119.892H136.53C133.938 119.892 132.87 118.244 132.87 115.836V98.8661H140.365V94.0736H132.87V85.031H127.469V115.756C127.469 122.281 130.738 125.052 136.521 125.052H140.365V119.892Z" fill="#006EA6"/>
<path d="M306.179 136.176C302.487 138.371 299.136 139.684 295.616 139.684C286.511 139.684 278.903 132.23 278.463 123.268L296.205 112.696L323.783 125.025L306.179 136.176Z" fill="#83B8D7"/>
<path d="M316.725 90.7676L303.553 84.9665C297.664 82.3338 292.105 80.1421 292.105 73.6642C292.105 70.308 293.127 68.5466 294.734 66.7946L322.604 79.0789L315.693 83.0666C313.79 84.2351 312.474 85.261 312.474 86.7306C312.474 88.3134 314.283 89.6631 316.725 90.7676Z" fill="#B3D3A2"/>
<path d="M329.667 29.9659L316.159 38.1626C314.963 38.886 313.359 40.0558 313.359 41.8532C313.359 43.8997 316.475 45.4665 319.247 46.7869L302.345 39.3297C297.363 37.1367 292.397 34.6478 292.397 28.6469C292.397 26.1234 293.125 24.0783 294.297 22.3302L330.834 5.72205e-05C335.215 2.48622 339.463 7.50652 339.463 14.2362C339.463 21.4469 335.811 26.2713 329.667 29.9659Z" fill="#83B8D7"/>
<path d="M358.403 56.369L355.046 58.2676L327.135 45.9487L359.58 26.4191C363.961 28.9465 368.251 33.9135 368.251 40.6472C368.251 47.8513 364.7 52.8209 358.403 56.369Z" fill="#B3D3A2"/>
<path d="M334.844 80.0645L351.355 87.3191C357.538 90.0864 359.438 93.3414 359.438 97.4477C359.438 99.782 358.122 102.126 356.225 103.742L328.463 91.4081L333.158 88.7741C337.133 86.5837 338.449 85.2607 338.449 83.8031C338.449 82.2829 337.523 81.2796 334.844 80.0645Z" fill="#83B8D7"/>
<path d="M364.266 141C357.24 135.591 349.749 131.935 340.641 127.802L298.541 109.178C287.966 104.464 280.952 98.1796 280.952 87.6047C280.952 77.3243 285.929 72.348 292.397 68.2603L294.733 66.7948C293.124 68.5468 292.106 70.3042 292.106 73.6643C292.106 80.1422 297.664 82.3393 303.551 84.9667L352.527 106.551C361.048 110.211 368.842 116.498 368.842 127.212C368.842 133.104 366.603 138.371 364.266 141Z" fill="#26A135"/>
<path d="M359.294 101.831L356.224 103.741C358.119 102.13 359.441 99.7815 359.441 97.4432C359.441 93.3462 357.533 90.09 351.352 87.3133L298.981 64.2663C288.408 59.5911 281.826 53.5556 281.826 43.0247C281.826 33.3305 286.653 27.0005 294.297 22.3306C293.128 24.0773 292.395 26.1238 292.395 28.6473C292.395 34.6482 297.366 37.1357 302.342 39.3301L353.253 61.7828C362.507 65.8785 370 72.0619 370 83.3656C370 92.1764 365.879 97.7336 359.294 101.831Z" fill="#006EA6"/>
</svg>
