<svg width="800" height="180" viewBox="0 0 800 180" fill="none" xmlns="http://www.w3.org/2000/svg">
<rect width="800" height="180" rx="15" fill="white"/>
<path d="M246.553 107.316H242.433C239.681 107.316 238.537 105.557 238.537 103.021V84.8421H246.553V79.7126H238.537V70.0446H232.762V102.937C232.762 109.873 236.24 112.836 242.423 112.836H246.553V107.316Z" fill="#006EA6"/>
<path d="M191 97.1789V97.4182C191 109.194 200.62 113.412 209.624 113.412C218.425 113.412 227.283 109.199 227.283 99.8811C227.283 90.83 219.845 88.3827 212.871 86.7959L210.436 86.266C204.184 84.8985 198.771 83.7489 198.771 79.0951C198.771 72.4671 205.587 71.7121 208.509 71.7121C214.948 71.7121 218.69 74.8146 219.318 80.6165L219.341 80.8302H225.422L225.417 80.5795C225.068 71.4614 218.998 66.2535 208.757 66.2535C200.604 66.2535 192.363 70.346 192.363 79.531C192.363 87.7189 199.211 89.8913 206.841 91.5579L208.341 91.8898C214.785 93.2587 220.871 94.5607 220.871 100.068C220.871 106.901 213.948 107.917 209.811 107.917C206.328 107.917 203.178 107.023 200.946 105.414C198.425 103.58 197.094 100.83 197.094 97.4182V97.1789H191Z" fill="#006EA6"/>
<path d="M281.292 107.501L280.971 107.619C280.25 107.882 279.773 107.915 279.433 107.915C278.042 107.915 277.978 107.162 277.978 104.551V87.9654C277.978 81.8302 273.953 78.8544 265.65 78.8544C260.618 78.8544 252.125 80.2789 251.753 89.8813L251.743 90.1363H257.505L257.516 89.9084C257.73 85.9028 260.223 84.0025 265.341 84.0025C270.059 84.0025 272.273 85.6264 272.273 89.1463C272.273 92.075 269.306 92.491 265.217 93.0665C264.049 93.2288 262.863 93.4012 261.602 93.6419C255.985 94.7231 250.489 96.3997 250.489 103.804C250.489 109.6 254.576 113.103 261.403 113.103C265.988 113.103 269.719 111.478 272.569 108.4C272.793 112.204 275.193 113.103 277.243 113.103C278.904 113.103 280.152 112.776 281.178 112.16L281.292 112.089V107.501ZM262.585 107.915C260.787 107.915 256.586 107.478 256.586 103.428C256.586 99.5236 259.776 98.394 262.874 97.8413C263.82 97.6803 264.834 97.5436 265.794 97.4282C268.279 97.1048 270.625 96.7943 272.212 95.8599V100.878C272.212 103.6 269.591 107.915 262.585 107.915Z" fill="#006EA6"/>
<path d="M286.396 79.713V112.426H292.183V93.9877C292.183 87.8268 295.652 84.1161 301.478 84.1161C305.36 84.1161 307.79 86.5391 307.79 90.3767V112.426H313.575V91.002C313.575 82.8925 309.854 78.968 302.227 78.968C297.578 78.968 294.113 80.7828 291.854 84.3996V79.713H286.396Z" fill="#006EA6"/>
<path d="M344.26 67.4193V83.694C341.816 80.2368 337.397 78.9633 333.975 78.9633C324.868 78.9633 318.999 85.6256 318.999 95.9744C318.999 100.725 320.347 104.997 322.761 108.027C325.442 111.392 329.362 113.211 334.098 113.211C338.828 113.211 342.482 111.467 344.26 108.487V112.426H350.051V67.4193H344.26ZM334.841 108.024C328.117 108.024 325.092 102.179 325.092 96.349C325.092 92.6796 326.011 84.1128 334.536 84.1128C343.73 84.1128 344.45 93.295 344.45 96.0983C344.45 101.885 341.932 108.024 334.841 108.024Z" fill="#006EA6"/>
<path d="M386.671 107.609L386.354 107.729C385.629 107.991 385.155 108.022 384.816 108.022C383.398 108.022 383.337 107.272 383.337 104.66V88.0753C383.337 81.9372 379.313 78.9643 371.038 78.9643C365.984 78.9643 357.499 80.3874 357.123 89.9926L357.113 90.2434H362.895L362.905 90.0169C363.119 86.0098 365.592 84.1124 370.719 84.1124C375.44 84.1124 377.635 85.7762 377.635 89.2562C377.635 92.1849 374.686 92.6009 370.602 93.1749C369.42 93.3416 368.236 93.5097 366.978 93.7533C361.371 94.833 355.881 96.5068 355.881 103.913C355.881 109.709 359.944 113.21 366.778 113.21C371.368 113.21 375.101 111.586 377.93 108.508C378.153 112.313 380.554 113.21 382.602 113.21C384.287 113.21 385.535 112.885 386.557 112.269L386.671 112.199V107.609ZM367.959 108.022C366.159 108.022 361.982 107.586 361.982 103.541C361.982 99.6378 365.145 98.5053 368.246 97.9526C369.19 97.7888 370.18 97.6535 371.177 97.5381C373.66 97.2133 376.007 96.9056 377.571 95.9712V100.987C377.571 103.709 374.972 108.022 367.959 108.022Z" fill="#006EA6"/>
<path d="M409.143 78.9723L408.914 78.968C403.512 78.7928 399.884 80.9537 397.164 86.0263V79.713H391.714V112.426H397.475V97.8409C397.475 89.1345 401.137 85.0434 408.904 85.0434H409.143V78.9723Z" fill="#006EA6"/>
<path d="M435.209 67.4193V83.694C432.756 80.2368 428.355 78.9633 424.887 78.9633C415.83 78.9633 409.933 85.6256 409.933 95.9744C409.933 100.725 411.266 104.997 413.723 108.027C416.4 111.392 420.303 113.211 425.041 113.211C429.783 113.211 433.434 111.458 435.209 108.486V112.426H441.009V67.4193H435.209ZM425.802 108.024C419.055 108.024 416.048 102.179 416.048 96.349C416.048 92.6796 416.966 84.1128 425.497 84.1128C434.672 84.1128 435.389 93.295 435.389 96.0983C435.389 101.885 432.87 108.024 425.802 108.024Z" fill="#006EA6"/>
<path d="M502.926 94.8156L502.906 95.0307C502.314 102.804 497.496 107.663 490.315 107.663C485.356 107.663 481.514 105.855 478.927 102.229C476.617 99.0492 475.379 94.5635 475.379 89.2331C475.379 84.3799 476.651 80.0082 478.915 76.8729C481.509 73.3245 485.437 71.4599 490.251 71.4599C496.765 71.4599 501.322 74.9199 502.473 80.7575L502.51 80.9498H508.917L508.875 80.6791C508.223 76.0723 506.045 72.2961 502.586 69.722C499.331 67.2904 495.077 65.9999 490.315 65.9999C483.744 65.9999 478.255 68.403 474.429 72.9499C470.926 77.1393 468.979 83.105 468.979 89.6718C468.979 104.133 476.969 113.122 489.815 113.122C495.338 113.122 500.039 111.458 503.404 108.317C506.709 105.216 508.754 100.613 509.31 95.0763L509.335 94.8156H502.926Z" fill="#006EA6"/>
<path d="M514.879 67.0149V112.097H520.661V93.6242C520.661 87.4277 524.155 83.7497 529.959 83.7497C533.862 83.7497 536.272 86.1385 536.272 89.9818V112.097H542.056V90.5972C542.056 82.5303 538.357 78.6073 530.727 78.6073C527.294 78.6073 522.725 79.9022 520.661 83.5631V67.0149H514.879Z" fill="#006EA6"/>
<path d="M554.161 89.8495L554.165 89.6173C554.378 85.616 556.853 83.7499 561.972 83.7499C566.713 83.7499 568.904 85.3738 568.904 88.8652C568.904 91.8224 565.955 92.2469 561.849 92.8167C560.7 92.9791 559.509 93.1515 558.258 93.3922C552.633 94.4705 547.14 96.1443 547.14 103.519C547.14 109.346 551.222 112.815 558.052 112.815C562.616 112.815 566.374 111.227 569.196 108.15C569.419 111.95 571.842 112.815 573.892 112.815C575.543 112.815 576.787 112.526 577.811 111.909L577.924 111.841V107.259L577.603 107.368C576.879 107.633 576.405 107.663 576.067 107.663C574.69 107.663 574.629 106.913 574.629 104.261V87.6786C574.629 81.5747 570.587 78.6061 562.282 78.6061C557.25 78.6061 548.759 80.0334 548.379 89.5931L548.376 89.8495H554.161ZM559.237 107.663C557.422 107.663 553.235 107.228 553.235 103.138C553.235 99.2354 556.403 98.1428 559.532 97.5958C560.472 97.4292 561.46 97.301 562.413 97.1785C564.923 96.8579 567.274 96.5474 568.839 95.6073V100.589C568.839 103.317 566.24 107.663 559.237 107.663Z" fill="#006EA6"/>
<path d="M741 112.072V67.0589H735.201V83.3321C732.748 79.872 728.347 78.6014 724.88 78.6014C715.817 78.6014 709.924 85.2665 709.924 95.6125C709.924 100.329 711.257 104.629 713.712 107.666C716.391 111.03 720.294 112.812 725.032 112.812C729.772 112.812 733.423 111.102 735.201 108.121V112.072H741ZM725.79 107.662C719.046 107.662 716.041 101.78 716.041 95.9914C716.041 92.3205 716.955 83.7495 725.484 83.7495C734.666 83.7495 735.382 92.9402 735.382 95.735C735.382 101.49 732.863 107.662 725.79 107.662Z" fill="#006EA6"/>
<path d="M645.86 101.919C644.873 105.628 642.07 107.662 637.859 107.662C634.879 107.662 632.38 106.732 630.672 104.96C628.937 103.125 628.017 100.511 628.068 97.5327H651.954H652.178L652.2 97.3019C652.429 91.4829 650.64 85.9659 647.417 82.6127C644.846 79.9503 641.474 78.6071 637.362 78.6071C628.443 78.6071 621.967 85.7451 621.967 95.6182C622.312 106.56 628.047 112.81 637.671 112.81C645.048 112.81 650.115 108.853 651.624 101.919H645.86ZM637.047 83.7494C641.879 83.7494 645.698 87.4374 646.064 92.3889H628.092C628.518 88.0271 631.416 83.7494 637.047 83.7494Z" fill="#006EA6"/>
<path d="M699.815 101.992C698.811 105.663 695.976 107.662 691.812 107.662C688.833 107.662 686.358 106.732 684.648 104.96C682.866 103.125 681.96 100.511 682.001 97.5323H705.904H706.137L706.15 97.3016C706.378 91.4883 704.594 85.9656 701.366 82.6138C698.817 79.95 695.409 78.6067 691.319 78.6067C682.378 78.6067 675.929 85.7448 675.929 95.6121C676.266 106.559 681.983 112.816 691.633 112.816C698.999 112.816 704.036 108.883 705.565 101.992H699.815ZM691.003 83.7491C695.821 83.7491 699.667 87.4371 700.039 92.3885H682.026C682.453 88.0268 685.39 83.7491 691.003 83.7491Z" fill="#006EA6"/>
<path d="M588.793 112.097V97.4779C588.793 88.7316 592.435 84.6804 600.222 84.6804H600.462V78.6107L600.231 78.6064C594.809 78.4298 591.161 80.5907 588.483 85.6262V79.3101H583.013V112.097H588.793Z" fill="#006EA6"/>
<path d="M663.671 112.072V97.4784C663.671 88.7364 667.289 84.6809 675.096 84.6809H675.336V78.6069H675.107C669.665 78.4303 666.036 80.5898 663.357 85.6267V79.3263H657.889V112.072H663.671Z" fill="#006EA6"/>
<path d="M619.049 106.958H614.949C612.177 106.958 611.036 105.196 611.036 102.622V84.4788H619.049V79.3549H611.036V69.687H605.261V102.537C605.261 109.513 608.757 112.475 614.939 112.475H619.049V106.958Z" fill="#006EA6"/>
<path d="M77.5199 155.21C73.854 157.39 70.5268 158.693 67.0316 158.693C57.9906 158.693 50.4366 151.293 50 142.393L67.6163 131.896L94.9987 144.138L77.5199 155.21Z" fill="#83B8D7"/>
<path d="M87.9913 110.124L74.9127 104.364C69.0652 101.75 63.5459 99.5736 63.5459 93.1417C63.5459 89.8093 64.5606 88.0604 66.1561 86.3208L93.8281 98.518L86.966 102.477C85.0768 103.638 83.7698 104.656 83.7698 106.115C83.7698 107.687 85.5663 109.027 87.9913 110.124Z" fill="#B3D3A2"/>
<path d="M100.841 49.7535L87.4294 57.8919C86.2413 58.6103 84.6485 59.7718 84.6485 61.5564C84.6485 63.5884 87.7429 65.1441 90.4946 66.4551L73.7131 59.0508C68.7666 56.8733 63.8359 54.4021 63.8359 48.4438C63.8359 45.9382 64.5583 43.9076 65.7225 42.1719L102 20.0001C106.35 22.4686 110.568 27.4533 110.568 34.1353C110.568 41.2948 106.941 46.085 100.841 49.7535Z" fill="#83B8D7"/>
<path d="M129.373 75.9691L126.039 77.8542L98.3262 65.6227L130.541 46.2316C134.891 48.7412 139.151 53.6729 139.151 60.3589C139.151 67.5118 135.625 72.4462 129.373 75.9691Z" fill="#B3D3A2"/>
<path d="M105.981 99.4967L122.375 106.7C128.515 109.448 130.401 112.679 130.401 116.757C130.401 119.074 129.094 121.401 127.21 123.006L99.6455 110.76L104.308 108.145C108.254 105.97 109.561 104.656 109.561 103.209C109.561 101.699 108.642 100.703 105.981 99.4967Z" fill="#83B8D7"/>
<path d="M135.194 160C128.218 154.629 120.781 150.999 111.737 146.895L69.9359 128.404C59.4357 123.723 52.4717 117.483 52.4717 106.983C52.4717 96.7759 57.4129 91.8349 63.8358 87.7762L66.1549 86.321C64.5568 88.0606 63.5461 89.8055 63.5461 93.1419C63.5461 99.5738 69.0654 101.755 74.9102 104.364L123.539 125.795C131.999 129.429 139.738 135.672 139.738 146.309C139.738 152.16 137.515 157.39 135.194 160Z" fill="#26A135"/>
<path d="M130.258 121.108L127.21 123.005C129.091 121.406 130.403 119.074 130.403 116.752C130.403 112.684 128.509 109.451 122.372 106.694L70.3718 83.8106C59.8742 79.1685 53.3389 73.1758 53.3389 62.7196C53.3389 53.0941 58.1319 46.809 65.7216 42.1723C64.5601 43.9066 63.8325 45.9386 63.8325 48.4441C63.8325 54.4025 68.7684 56.8723 73.7096 59.0512L124.259 81.3447C133.447 85.4113 140.887 91.5509 140.887 102.774C140.887 111.523 136.796 117.041 130.258 121.108Z" fill="#006EA6"/>
</svg>
