<svg width="500" height="350" viewBox="0 0 500 350" fill="none" xmlns="http://www.w3.org/2000/svg">
<rect width="500" height="350" rx="15" fill="white"/>
<path d="M184.96 254.407H181.107C178.533 254.407 177.463 252.762 177.463 250.39V233.387H184.96V228.589H177.463V219.546H172.062V250.312C172.062 256.799 175.315 259.57 181.098 259.57H184.96V254.407Z" fill="#006EA6"/>
<path d="M133 244.925V245.149C133 256.164 141.998 260.109 150.42 260.109C158.651 260.109 166.936 256.168 166.936 247.453C166.936 238.987 159.98 236.698 153.456 235.214L151.179 234.718C145.331 233.439 140.268 232.364 140.268 228.011C140.268 221.812 146.644 221.106 149.376 221.106C155.399 221.106 158.899 224.007 159.487 229.434L159.508 229.634H165.196L165.191 229.399C164.864 220.871 159.187 216 149.608 216C141.983 216 134.275 219.828 134.275 228.419C134.275 236.077 140.68 238.109 147.816 239.668L149.219 239.978C155.247 241.259 160.939 242.476 160.939 247.627C160.939 254.019 154.464 254.969 150.594 254.969C147.337 254.969 144.391 254.133 142.303 252.628C139.944 250.913 138.7 248.34 138.7 245.149V244.925H133Z" fill="#006EA6"/>
<path d="M217.453 254.58L217.153 254.691C216.479 254.937 216.033 254.968 215.714 254.968C214.414 254.968 214.354 254.263 214.354 251.821V236.308C214.354 230.57 210.588 227.786 202.823 227.786C198.116 227.786 190.172 229.119 189.824 238.1L189.815 238.339H195.205L195.215 238.125C195.415 234.379 197.747 232.601 202.534 232.601C206.947 232.601 209.018 234.12 209.018 237.413C209.018 240.152 206.242 240.541 202.418 241.079C201.326 241.231 200.216 241.392 199.037 241.617C193.783 242.629 188.643 244.197 188.643 251.122C188.643 256.544 192.465 259.82 198.85 259.82C203.139 259.82 206.629 258.3 209.295 255.421C209.504 258.979 211.749 259.82 213.666 259.82C215.22 259.82 216.387 259.514 217.346 258.938L217.453 258.871V254.58ZM199.956 254.968C198.274 254.968 194.345 254.559 194.345 250.771C194.345 247.119 197.328 246.062 200.226 245.545C201.111 245.395 202.06 245.267 202.958 245.159C205.282 244.856 207.476 244.566 208.96 243.692V248.386C208.96 250.932 206.509 254.968 199.956 254.968Z" fill="#006EA6"/>
<path d="M222.228 228.589V259.187H227.64V241.941C227.64 236.178 230.884 232.708 236.334 232.708C239.964 232.708 242.237 234.974 242.237 238.563V259.187H247.648V239.148C247.648 231.563 244.168 227.893 237.034 227.893C232.686 227.893 229.445 229.59 227.332 232.973V228.589H222.228Z" fill="#006EA6"/>
<path d="M276.347 217.091V232.313C274.061 229.079 269.928 227.888 266.727 227.888C258.209 227.888 252.72 234.119 252.72 243.799C252.72 248.242 253.98 252.238 256.239 255.072C258.746 258.219 262.413 259.92 266.842 259.92C271.267 259.92 274.684 258.29 276.347 255.502V259.186H281.763V217.091H276.347ZM267.537 255.069C261.248 255.069 258.418 249.603 258.418 244.149C258.418 240.717 259.278 232.704 267.252 232.704C275.851 232.704 276.524 241.293 276.524 243.915C276.524 249.327 274.17 255.069 267.537 255.069Z" fill="#006EA6"/>
<path d="M316.016 254.681L315.72 254.793C315.042 255.038 314.599 255.068 314.281 255.068C312.956 255.068 312.898 254.365 312.898 251.923V236.411C312.898 230.67 309.134 227.889 301.394 227.889C296.667 227.889 288.731 229.22 288.38 238.204L288.37 238.438H293.778L293.788 238.227C293.988 234.479 296.301 232.704 301.096 232.704C305.512 232.704 307.565 234.26 307.565 237.515C307.565 240.254 304.807 240.643 300.987 241.18C299.881 241.336 298.774 241.494 297.597 241.721C292.353 242.731 287.218 244.297 287.218 251.224C287.218 256.645 291.018 259.92 297.411 259.92C301.704 259.92 305.194 258.401 307.841 255.522C308.05 259.081 310.295 259.92 312.211 259.92C313.787 259.92 314.954 259.616 315.91 259.039L316.016 258.974V254.681ZM298.515 255.068C296.831 255.068 292.924 254.66 292.924 250.876C292.924 247.225 295.882 246.166 298.783 245.649C299.666 245.496 300.592 245.369 301.525 245.261C303.847 244.958 306.042 244.67 307.505 243.796V248.487C307.505 251.033 305.075 255.068 298.515 255.068Z" fill="#006EA6"/>
<path d="M337.035 227.897L336.821 227.893C331.768 227.729 328.375 229.75 325.831 234.494V228.589H320.733V259.187H326.122V245.545C326.122 237.402 329.547 233.575 336.811 233.575H337.035V227.897Z" fill="#006EA6"/>
<path d="M361.414 217.091V232.313C359.12 229.079 355.003 227.888 351.76 227.888C343.289 227.888 337.772 234.119 337.772 243.799C337.772 248.242 339.02 252.238 341.318 255.072C343.822 258.219 347.472 259.92 351.904 259.92C356.339 259.92 359.754 258.282 361.414 255.501V259.186H366.839V217.091H361.414ZM352.615 255.069C346.305 255.069 343.492 249.603 343.492 244.149C343.492 240.717 344.35 232.704 352.33 232.704C360.912 232.704 361.582 241.293 361.582 243.915C361.582 249.327 359.227 255.069 352.615 255.069Z" fill="#006EA6"/>
<path d="M154.752 292.952L154.734 293.153C154.179 300.424 149.673 304.969 142.957 304.969C138.319 304.969 134.725 303.278 132.305 299.886C130.144 296.912 128.986 292.716 128.986 287.731C128.986 283.191 130.176 279.102 132.293 276.17C134.72 272.851 138.394 271.107 142.897 271.107C148.99 271.107 153.252 274.343 154.329 279.803L154.363 279.983H160.355L160.316 279.73C159.706 275.421 157.669 271.889 154.434 269.482C151.389 267.207 147.411 266 142.957 266C136.81 266 131.677 268.248 128.098 272.501C124.821 276.419 123 281.999 123 288.141C123 301.667 130.473 310.074 142.489 310.074C147.655 310.074 152.052 308.518 155.199 305.58C158.29 302.68 160.203 298.375 160.723 293.196L160.747 292.952H154.752Z" fill="#006EA6"/>
<path d="M165.933 266.949V309.115H171.341V291.838C171.341 286.042 174.609 282.602 180.037 282.602C183.688 282.602 185.943 284.836 185.943 288.431V309.115H191.352V289.006C191.352 281.461 187.892 277.792 180.756 277.792C177.544 277.792 173.271 279.003 171.341 282.427V266.949H165.933Z" fill="#006EA6"/>
<path d="M202.673 288.307L202.677 288.09C202.875 284.347 205.191 282.602 209.978 282.602C214.413 282.602 216.462 284.121 216.462 287.387C216.462 290.153 213.704 290.55 209.864 291.082C208.789 291.234 207.675 291.396 206.505 291.621C201.243 292.629 196.105 294.195 196.105 301.092C196.105 306.543 199.924 309.787 206.312 309.787C210.581 309.787 214.095 308.302 216.735 305.424C216.944 308.979 219.211 309.787 221.128 309.787C222.672 309.787 223.835 309.517 224.793 308.94L224.899 308.876V304.591L224.599 304.692C223.922 304.94 223.478 304.968 223.162 304.968C221.874 304.968 221.817 304.267 221.817 301.787V286.277C221.817 280.568 218.037 277.791 210.269 277.791C205.561 277.791 197.62 279.126 197.265 288.067L197.262 288.307H202.673ZM207.42 304.968C205.723 304.968 201.807 304.562 201.807 300.737C201.807 297.086 204.77 296.064 207.696 295.553C208.575 295.397 209.5 295.277 210.391 295.162C212.739 294.862 214.938 294.572 216.402 293.693V298.352C216.402 300.903 213.97 304.968 207.42 304.968Z" fill="#006EA6"/>
<path d="M377.429 309.092V266.99H372.004V282.211C369.71 278.975 365.594 277.786 362.351 277.786C353.874 277.786 348.362 284.02 348.362 293.697C348.362 298.109 349.609 302.131 351.905 304.971C354.411 308.117 358.062 309.784 362.494 309.784C366.927 309.784 370.342 308.185 372.004 305.397V309.092H377.429ZM363.203 304.967C356.895 304.967 354.084 299.466 354.084 294.052C354.084 290.618 354.939 282.601 362.916 282.601C371.505 282.601 372.174 291.198 372.174 293.812C372.174 299.194 369.818 304.967 363.203 304.967Z" fill="#006EA6"/>
<path d="M288.441 299.596C287.518 303.065 284.896 304.968 280.957 304.968C278.17 304.968 275.833 304.098 274.235 302.44C272.612 300.724 271.751 298.279 271.799 295.494H294.141H294.35L294.37 295.278C294.585 289.835 292.911 284.675 289.897 281.538C287.492 279.048 284.339 277.792 280.492 277.792C272.15 277.792 266.093 284.468 266.093 293.703C266.415 303.937 271.779 309.783 280.781 309.783C287.682 309.783 292.421 306.082 293.832 299.596H288.441ZM280.198 282.602C284.717 282.602 288.289 286.051 288.632 290.682H271.822C272.22 286.603 274.931 282.602 280.198 282.602Z" fill="#006EA6"/>
<path d="M338.908 299.665C337.969 303.098 335.317 304.967 331.423 304.967C328.637 304.967 326.321 304.097 324.722 302.44C323.055 300.724 322.208 298.279 322.246 295.493H344.603H344.821L344.833 295.277C345.046 289.84 343.378 284.674 340.359 281.539C337.974 279.048 334.787 277.791 330.962 277.791C322.598 277.791 316.566 284.468 316.566 293.697C316.882 303.936 322.229 309.788 331.255 309.788C338.145 309.788 342.856 306.109 344.286 299.665H338.908ZM330.666 282.601C335.172 282.601 338.769 286.051 339.117 290.682H322.269C322.669 286.602 325.416 282.601 330.666 282.601Z" fill="#006EA6"/>
<path d="M235.066 309.116V295.442C235.066 287.261 238.472 283.472 245.756 283.472H245.98V277.795L245.764 277.791C240.693 277.626 237.28 279.647 234.776 284.357V278.449H229.659V309.116H235.066Z" fill="#006EA6"/>
<path d="M305.101 309.093V295.443C305.101 287.266 308.485 283.473 315.786 283.473H316.012V277.792H315.797C310.707 277.626 307.312 279.646 304.807 284.357V278.464H299.692V309.093H305.101Z" fill="#006EA6"/>
<path d="M263.365 304.31H259.53C256.938 304.31 255.87 302.661 255.87 300.254V283.284H263.365V278.491H255.87V269.449H250.469V300.174C250.469 306.698 253.738 309.47 259.521 309.47H263.365V304.31Z" fill="#006EA6"/>
<path d="M232.52 175.21C228.854 177.39 225.527 178.693 222.032 178.693C212.991 178.693 205.437 171.293 205 162.394L222.616 151.896L249.999 164.138L232.52 175.21Z" fill="#83B8D7"/>
<path d="M242.991 130.124L229.913 124.364C224.065 121.75 218.546 119.574 218.546 113.142C218.546 109.809 219.561 108.061 221.156 106.321L248.828 118.518L241.966 122.478C240.077 123.638 238.77 124.656 238.77 126.116C238.77 127.687 240.566 129.027 242.991 130.124Z" fill="#B3D3A2"/>
<path d="M255.841 69.7535L242.429 77.8919C241.241 78.6103 239.649 79.7718 239.649 81.5564C239.649 83.5884 242.743 85.1441 245.495 86.4551L228.713 79.0508C223.767 76.8733 218.836 74.4021 218.836 68.4438C218.836 65.9382 219.558 63.9076 220.722 62.1719L257 40.0001C261.35 42.4686 265.568 47.4533 265.568 54.1353C265.568 61.2948 261.941 66.085 255.841 69.7535Z" fill="#83B8D7"/>
<path d="M284.373 95.9691L281.039 97.8542L253.326 85.6227L285.541 66.2316C289.891 68.7412 294.151 73.6729 294.151 80.3589C294.151 87.5118 290.625 92.4462 284.373 95.9691Z" fill="#B3D3A2"/>
<path d="M260.981 119.497L277.375 126.7C283.515 129.448 285.401 132.679 285.401 136.757C285.401 139.074 284.094 141.401 282.21 143.006L254.646 130.76L259.308 128.145C263.254 125.97 264.561 124.656 264.561 123.209C264.561 121.699 263.642 120.703 260.981 119.497Z" fill="#83B8D7"/>
<path d="M290.194 180C283.218 174.629 275.781 170.999 266.737 166.895L224.936 148.404C214.436 143.723 207.472 137.483 207.472 126.983C207.472 116.776 212.413 111.835 218.836 107.776L221.155 106.321C219.557 108.061 218.546 109.806 218.546 113.142C218.546 119.574 224.065 121.755 229.91 124.364L278.539 145.795C286.999 149.429 294.738 155.672 294.738 166.309C294.738 172.16 292.515 177.39 290.194 180Z" fill="#26A135"/>
<path d="M285.258 141.109L282.21 143.006C284.091 141.406 285.403 139.074 285.403 136.752C285.403 132.684 283.509 129.451 277.372 126.694L225.372 103.811C214.874 99.1688 208.339 93.176 208.339 82.7198C208.339 73.0944 213.132 66.8093 220.722 62.1725C219.56 63.9068 218.832 65.9388 218.832 68.4444C218.832 74.4027 223.768 76.8726 228.71 79.0514L279.259 101.345C288.447 105.412 295.887 111.551 295.887 122.775C295.887 131.523 291.796 137.041 285.258 141.109Z" fill="#006EA6"/>
</svg>
