<svg width="180" height="180" viewBox="0 0 180 180" fill="none" xmlns="http://www.w3.org/2000/svg">
<rect width="180" height="180" rx="15" fill="white"/>
<path d="M72.5199 155.21C68.854 157.39 65.5268 158.693 62.0316 158.693C52.9906 158.693 45.4366 151.293 45 142.393L62.6163 131.896L89.9987 144.138L72.5199 155.21Z" fill="#83B8D7"/>
<path d="M82.9913 110.124L69.9127 104.364C64.0652 101.75 58.5459 99.5736 58.5459 93.1417C58.5459 89.8093 59.5606 88.0604 61.1561 86.3208L88.8281 98.518L81.966 102.477C80.0768 103.638 78.7698 104.656 78.7698 106.115C78.7698 107.687 80.5663 109.027 82.9913 110.124Z" fill="#B3D3A2"/>
<path d="M95.8414 49.7535L82.4294 57.8919C81.2413 58.6103 79.6485 59.7718 79.6485 61.5564C79.6485 63.5884 82.7429 65.1441 85.4946 66.4551L68.7131 59.0508C63.7666 56.8733 58.8359 54.4021 58.8359 48.4438C58.8359 45.9382 59.5583 43.9076 60.7225 42.1719L97.0003 20.0001C101.35 22.4686 105.568 27.4533 105.568 34.1353C105.568 41.2948 101.941 46.085 95.8414 49.7535Z" fill="#83B8D7"/>
<path d="M124.373 75.9691L121.039 77.8542L93.3262 65.6227L125.541 46.2316C129.891 48.7412 134.151 53.6729 134.151 60.3589C134.151 67.5118 130.625 72.4462 124.373 75.9691Z" fill="#B3D3A2"/>
<path d="M100.981 99.4967L117.375 106.7C123.515 109.448 125.401 112.679 125.401 116.757C125.401 119.074 124.094 121.401 122.21 123.006L94.6455 110.76L99.3076 108.145C103.254 105.97 104.561 104.656 104.561 103.209C104.561 101.699 103.642 100.703 100.981 99.4967Z" fill="#83B8D7"/>
<path d="M130.194 160C123.218 154.629 115.781 150.999 106.737 146.895L64.9359 128.404C54.4357 123.723 47.4717 117.483 47.4717 106.983C47.4717 96.7759 52.4129 91.8349 58.8358 87.7762L61.1549 86.321C59.5568 88.0606 58.5461 89.8055 58.5461 93.1419C58.5461 99.5738 64.0654 101.755 69.9102 104.364L118.539 125.795C126.999 129.429 134.738 135.672 134.738 146.309C134.738 152.16 132.515 157.39 130.194 160Z" fill="#26A135"/>
<path d="M125.258 121.108L122.21 123.005C124.091 121.406 125.403 119.074 125.403 116.752C125.403 112.684 123.509 109.451 117.372 106.694L65.3718 83.8106C54.8742 79.1685 48.3389 73.1758 48.3389 62.7196C48.3389 53.0941 53.1319 46.809 60.7216 42.1723C59.5601 43.9066 58.8325 45.9386 58.8325 48.4441C58.8325 54.4025 63.7684 56.8723 68.7096 59.0512L119.259 81.3447C128.447 85.4113 135.887 91.5509 135.887 102.774C135.887 111.523 131.796 117.041 125.258 121.108Z" fill="#006EA6"/>
</svg>
