<svg width="180" height="180" viewBox="0 0 180 180" fill="none" xmlns="http://www.w3.org/2000/svg">
<circle cx="90" cy="90" r="90" fill="white"/>
<path d="M104.74 134.51C103.329 133.714 101.72 133.293 100.08 133.293C98.4401 133.293 96.8306 133.714 95.4203 134.51C94.042 135.305 92.8955 136.416 92.0861 137.743C91.2509 139.118 90.8116 140.678 90.8125 142.266V156.882H95.2132V149.914C95.6987 150.208 96.2117 150.459 96.7457 150.663C98.0396 151.147 99.4327 151.342 100.818 151.235C102.204 151.127 103.545 150.719 104.74 150.042C106.126 149.247 107.28 148.131 108.094 146.8C108.917 145.424 109.349 143.869 109.349 142.286C109.349 140.703 108.917 139.148 108.094 137.772C107.284 136.432 106.13 135.31 104.74 134.51ZM104.294 144.681C103.87 145.391 103.26 145.985 102.524 146.405C101.784 146.823 100.94 147.043 100.08 147.043C99.22 147.043 98.376 146.823 97.6362 146.405C96.9 145.985 96.2901 145.391 95.8656 144.681C95.4358 143.947 95.2101 143.121 95.2101 142.281C95.2101 141.441 95.4358 140.615 95.8656 139.881C96.2923 139.172 96.9017 138.579 97.6362 138.156C98.3778 137.744 99.2212 137.527 100.08 137.527C100.939 137.527 101.782 137.744 102.524 138.156C103.258 138.579 103.867 139.172 104.294 139.881C104.724 140.615 104.95 141.441 104.95 142.281C104.95 143.121 104.724 143.947 104.294 144.681Z" fill="#1B335F"/>
<path d="M124.869 134.51C123.458 133.715 121.849 133.296 120.21 133.296C118.57 133.296 116.961 133.715 115.55 134.51C114.166 135.309 113.015 136.427 112.206 137.762C111.384 139.138 110.952 140.693 110.952 142.276C110.952 143.858 111.384 145.414 112.206 146.79C113.017 148.12 114.168 149.235 115.55 150.032C116.746 150.709 118.089 151.117 119.477 151.225C120.864 151.332 122.259 151.137 123.554 150.653C124.088 150.449 124.601 150.198 125.087 149.904V151.254H129.487V142.266C129.485 140.704 129.058 139.169 128.249 137.81C127.44 136.451 126.276 135.314 124.869 134.51ZM124.424 144.68C123.999 145.391 123.39 145.985 122.653 146.405C121.914 146.822 121.07 147.042 120.21 147.042C119.35 147.042 118.506 146.822 117.766 146.405C117.03 145.985 116.42 145.391 115.995 144.68C115.566 143.947 115.34 143.121 115.34 142.281C115.34 141.441 115.566 140.615 115.995 139.881C116.422 139.172 117.031 138.579 117.766 138.156C118.508 137.744 119.351 137.527 120.21 137.527C121.068 137.527 121.912 137.744 122.653 138.156C123.388 138.579 123.997 139.172 124.424 139.881C124.852 140.615 125.076 141.442 125.074 142.282C125.072 143.122 124.845 143.948 124.414 144.68H124.424Z" fill="#1B335F"/>
<path d="M145.568 133.288V142.335C145.566 143.181 145.334 144.013 144.895 144.749C144.472 145.458 143.861 146.049 143.125 146.464C142.379 146.881 141.53 147.101 140.665 147.101C139.801 147.101 138.952 146.881 138.206 146.464C137.466 146.046 136.852 145.451 136.425 144.74C135.988 144.003 135.759 143.171 135.762 142.325V133.288H131.362V142.325C131.348 143.917 131.784 145.483 132.625 146.859C133.44 148.199 134.597 149.321 135.99 150.121C137.187 150.797 138.529 151.205 139.916 151.314C141.303 151.423 142.697 151.231 143.994 150.751C144.323 150.627 144.645 150.486 144.957 150.328C144.888 150.446 144.816 150.561 144.74 150.673C144.295 151.303 143.698 151.823 143 152.19C141.84 152.563 140.622 152.75 139.397 152.742H138.61V157H139.355C141.418 157.014 143.459 156.593 145.33 155.768C146.742 154.962 147.912 153.824 148.73 152.465C149.547 151.105 149.985 149.568 150 148.002V133.288H145.589H145.568Z" fill="#1B335F"/>
<path d="M64.5329 139.477C64.5341 137.814 64.1819 136.168 63.4974 134.638C62.848 133.171 61.9136 131.833 60.7431 130.696C59.5872 129.555 58.2131 128.635 56.6944 127.986C55.1148 127.338 53.413 127.004 51.6931 127.004C49.9732 127.004 48.2714 127.338 46.6918 127.986C45.1644 128.623 43.7795 129.533 42.6121 130.666C41.441 131.803 40.5065 133.141 39.8578 134.609C38.5162 137.701 38.5162 141.174 39.8578 144.267C40.5085 145.733 41.4428 147.071 42.6121 148.209C43.7758 149.347 45.1616 150.257 46.6918 150.89C48.2727 151.533 49.974 151.864 51.6931 151.864C53.4123 151.864 55.1136 151.533 56.6944 150.89C58.2241 150.256 59.6097 149.346 60.7741 148.209C61.9431 147.07 62.8773 145.733 63.5285 144.267C64.1966 142.75 64.5381 141.122 64.5329 139.477ZM57.8438 142.956C57.217 143.988 56.3266 144.852 55.2551 145.469C54.1781 146.07 52.9521 146.387 51.7035 146.387C50.4549 146.387 49.2289 146.07 48.1518 145.469C47.0819 144.854 46.1945 143.989 45.5735 142.956C44.9487 141.889 44.6208 140.688 44.6208 139.467C44.6208 138.246 44.9487 137.045 45.5735 135.978C46.1973 134.95 47.0843 134.089 48.1518 133.475C49.2292 132.875 50.4551 132.559 51.7035 132.559C52.9519 132.559 54.1777 132.875 55.2551 133.475C56.326 134.093 57.2163 134.957 57.8438 135.988C58.4715 137.052 58.8012 138.252 58.8012 139.472C58.8012 140.692 58.4715 141.892 57.8438 142.956Z" fill="#1B335F"/>
<path d="M81.763 142.443C81.7297 143.139 81.5162 143.816 81.1417 144.415C80.7623 145.018 80.2278 145.52 79.5885 145.873C78.9589 146.219 78.2447 146.401 77.5176 146.401C76.7906 146.401 76.0763 146.219 75.4467 145.873C74.8158 145.515 74.2918 145.01 73.9246 144.405C73.5463 143.781 73.3431 143.075 73.3343 142.355V127H67.5771V142.562C67.6292 144.206 68.1192 145.812 69.0012 147.227C69.8832 148.642 71.1283 149.821 72.6199 150.653C74.1284 151.496 75.846 151.94 77.5953 151.94C79.3446 151.94 81.0622 151.496 82.5707 150.653C84.0495 149.814 85.2791 148.631 86.143 147.213C87.0326 145.74 87.5071 144.073 87.5202 142.374V127H81.7837L81.763 142.443Z" fill="#1B335F"/>
<path d="M30 142.275V151.914H35.7572V142.275V127.67V127.019H30V142.275Z" fill="#1B335F"/>
<path d="M74.8325 84.1177C81.245 77.4247 81.245 66.5733 74.8325 59.8804C68.42 53.1874 58.0233 53.1874 51.6108 59.8804C45.1983 66.5733 45.1983 77.4247 51.6108 84.1177C58.0233 90.8106 68.42 90.8106 74.8325 84.1177Z" fill="#EC1C24"/>
<path d="M136.155 63.5672L99.3458 25.1254C97.4244 23.124 94.8207 22 92.1061 22C89.3916 22 86.7879 23.124 84.8664 25.1254L84.0159 26.0131C82.0984 28.0185 81.0215 30.7361 81.0215 33.5694C81.0215 36.4027 82.0984 39.1203 84.0159 41.1258L113.585 71.9885L121.676 63.5445C123.6 61.5461 126.205 60.4262 128.92 60.4304C131.634 60.4347 134.236 61.5628 136.155 63.5672Z" fill="#1B335F"/>
<path d="M121.676 80.4557L113.585 72.0117L84.0159 102.874C82.0984 104.88 81.0215 107.597 81.0215 110.431C81.0215 113.264 82.0984 115.982 84.0159 117.987L84.8664 118.875C86.7879 120.876 89.3916 122 92.1061 122C94.8207 122 97.4244 120.876 99.3458 118.875L136.155 80.4557C134.233 82.4571 131.63 83.5811 128.915 83.5811C126.201 83.5811 123.597 82.4571 121.676 80.4557Z" fill="#41C2D7"/>
<path d="M137.006 64.4554L136.155 63.5678C134.234 61.5664 131.63 60.4424 128.916 60.4424C126.201 60.4424 123.598 61.5664 121.676 63.5678L113.586 72.0118L121.676 80.4558C123.598 82.4572 126.201 83.5812 128.916 83.5812C131.63 83.5812 134.234 82.4572 136.155 80.4558L137.006 79.5681C138.923 77.5627 140 74.8451 140 72.0118C140 69.1785 138.923 66.4609 137.006 64.4554Z" fill="#EB2026"/>
</svg>
