<svg width="180" height="180" viewBox="0 0 180 180" fill="none" xmlns="http://www.w3.org/2000/svg">
<circle cx="90" cy="90" r="90" fill="white"/>
<path d="M67.2487 108.177C76.8674 98.1372 76.8674 81.8601 67.2487 71.8206C57.63 61.7812 42.035 61.7812 32.4162 71.8206C22.7975 81.8601 22.7975 98.1372 32.4162 108.177C42.035 118.216 57.63 118.216 67.2487 108.177Z" fill="#EC1C24"/>
<path d="M159.232 77.3511L104.019 19.6881C101.137 16.686 97.2311 15 93.1592 15C89.0874 15 85.1818 16.686 82.2996 19.6881L81.0239 21.0196C78.1476 24.0279 76.5322 28.1042 76.5322 32.3542C76.5322 36.6041 78.1476 40.6805 81.0239 43.6887L125.378 89.983L137.513 77.3169C140.4 74.3193 144.308 72.6394 148.38 72.6458C152.451 72.6522 156.355 74.3444 159.232 77.3511Z" fill="#1B335F"/>
<path d="M137.513 102.683L125.378 90.017L81.0239 136.311C78.1476 139.319 76.5322 143.396 76.5322 147.646C76.5322 151.896 78.1476 155.972 81.0239 158.98L82.2996 160.312C85.1818 163.314 89.0874 165 93.1592 165C97.2311 165 101.137 163.314 104.019 160.312L159.232 102.683C156.35 105.685 152.445 107.371 148.373 107.371C144.301 107.371 140.396 105.685 137.513 102.683Z" fill="#41C2D7"/>
<path d="M160.508 78.6822L159.232 77.3507C156.35 74.3486 152.445 72.6626 148.373 72.6626C144.301 72.6626 140.395 74.3486 137.513 77.3507L125.378 90.0168L137.513 102.683C140.395 105.685 144.301 107.371 148.373 107.371C152.445 107.371 156.35 105.685 159.232 102.683L160.508 101.351C163.384 98.3431 165 94.2667 165 90.0168C165 85.7668 163.384 81.6905 160.508 78.6822Z" fill="#EB2026"/>
</svg>
