<svg width="647" height="182" viewBox="0 0 647 182" fill="none" xmlns="http://www.w3.org/2000/svg">
<path d="M481.984 69.1019C476.861 65.7553 471.015 63.9893 465.059 63.9893C459.102 63.9893 453.256 65.7553 448.133 69.1019C443.126 72.4418 438.962 77.1134 436.022 82.6877C432.988 88.4664 431.392 95.0244 431.396 101.7V163.126H447.381V133.842C449.144 135.078 451.008 136.132 452.947 136.989C457.648 139.022 462.708 139.844 467.741 139.392C472.773 138.94 477.646 137.225 481.984 134.38C487.021 131.037 491.212 126.35 494.171 120.753C497.158 114.972 498.729 108.434 498.729 101.782C498.729 95.1306 497.158 88.5931 494.171 82.8119C491.226 77.1811 487.033 72.4641 481.984 69.1019ZM480.367 111.847C478.825 114.833 476.609 117.329 473.935 119.096C471.248 120.849 468.182 121.774 465.059 121.774C461.935 121.774 458.869 120.849 456.182 119.096C453.508 117.329 451.292 114.833 449.75 111.847C448.189 108.764 447.37 105.292 447.37 101.762C447.37 98.2312 448.189 94.7593 449.75 91.6758C451.301 88.6974 453.514 86.2028 456.182 84.4273C458.876 82.695 461.939 81.7822 465.059 81.7822C468.178 81.7822 471.241 82.695 473.935 84.4273C476.603 86.2028 478.817 88.6974 480.367 91.6758C481.928 94.7593 482.748 98.2312 482.748 101.762C482.748 105.292 481.928 108.764 480.367 111.847Z" fill="#1B335F"/>
<path d="M555.103 69.1021C549.977 65.764 544.132 64.0029 538.177 64.0029C532.222 64.0029 526.377 65.764 521.251 69.1021C516.223 72.4611 512.044 77.1622 509.103 82.7707C506.119 88.5532 504.55 95.0902 504.55 101.741C504.55 108.392 506.119 114.929 509.103 120.712C512.052 126.303 516.229 130.989 521.251 134.339C525.597 137.185 530.475 138.899 535.514 139.352C540.553 139.804 545.619 138.982 550.326 136.948C552.266 136.09 554.129 135.037 555.892 133.8V139.475H571.878V101.7C571.868 95.1352 570.319 88.6848 567.38 82.9736C564.44 77.2624 560.212 72.4842 555.103 69.1021ZM553.485 111.848C551.943 114.833 549.728 117.329 547.053 119.096C544.366 120.849 541.3 121.774 538.177 121.774C535.054 121.774 531.988 120.849 529.3 119.096C526.626 117.329 524.411 114.833 522.869 111.848C521.307 108.764 520.488 105.292 520.488 101.762C520.488 98.2314 521.307 94.7596 522.869 91.6761C524.419 88.6976 526.632 86.203 529.3 84.4275C531.994 82.6953 535.058 81.7824 538.177 81.7824C541.296 81.7824 544.36 82.6953 547.053 84.4275C549.722 86.203 551.935 88.6976 553.485 91.6761C555.041 94.7631 555.854 98.2368 555.847 101.767C555.841 105.298 555.015 108.768 553.448 111.848H553.485Z" fill="#1B335F"/>
<path d="M630.29 63.9658V101.989C630.28 105.547 629.438 109.042 627.845 112.137C626.306 115.114 624.089 117.598 621.413 119.345C618.705 121.096 615.621 122.019 612.48 122.019C609.34 122.019 606.256 121.096 603.547 119.345C600.858 117.585 598.629 115.087 597.078 112.096C595.489 109.001 594.659 105.504 594.671 101.948V63.9658H578.686V101.948C578.635 108.638 580.22 115.219 583.274 121.001C586.233 126.634 590.439 131.35 595.498 134.711C599.845 137.552 604.721 139.267 609.758 139.727C614.795 140.186 619.861 139.377 624.573 137.362C625.768 136.841 626.936 136.246 628.071 135.581C627.82 136.078 627.557 136.561 627.281 137.031C625.664 139.679 623.498 141.865 620.962 143.41C616.746 144.977 612.323 145.761 607.873 145.729H605.014V163.623H607.723C615.215 163.683 622.627 161.914 629.425 158.445C634.552 155.058 638.804 150.278 641.774 144.563C644.744 138.849 646.333 132.39 646.388 125.806V63.9658H630.365H630.29Z" fill="#1B335F"/>
<path d="M335.936 89.9777C335.94 82.9886 334.661 76.0708 332.174 69.6404C329.816 63.4738 326.421 57.8528 322.169 53.0724C317.971 48.2784 312.979 44.4122 307.463 41.6818C301.725 38.9603 295.544 37.5566 289.296 37.5566C283.049 37.5566 276.867 38.9603 271.13 41.6818C265.581 44.3597 260.551 48.1842 256.31 52.9481C252.056 57.7266 248.662 63.3481 246.305 69.5162C241.432 82.5146 241.432 97.1094 246.305 110.108C248.669 116.272 252.063 121.892 256.31 126.676C260.537 131.457 265.571 135.284 271.13 137.942C276.872 140.645 283.052 142.038 289.296 142.038C295.541 142.038 301.721 140.645 307.463 137.942C313.02 135.281 318.053 131.454 322.282 126.676C326.528 121.891 329.922 116.271 332.287 110.108C334.714 103.734 335.955 96.889 335.936 89.9777ZM311.638 104.599C309.361 108.936 306.127 112.569 302.235 115.161C298.323 117.688 293.869 119.02 289.334 119.02C284.798 119.02 280.345 117.688 276.433 115.161C272.546 112.575 269.323 108.939 267.067 104.599C264.798 100.116 263.607 95.0688 263.607 89.9363C263.607 84.8038 264.798 79.7565 267.067 75.2735C269.333 70.9528 272.555 67.3336 276.433 64.7528C280.346 62.2302 284.799 60.9006 289.334 60.9006C293.869 60.9006 298.321 62.2302 302.235 64.7528C306.125 67.3481 309.359 70.9805 311.638 75.315C313.918 79.7865 315.116 84.8287 315.116 89.957C315.116 95.0853 313.918 100.127 311.638 104.599Z" fill="#1B335F"/>
<path d="M398.522 102.445C398.401 105.369 397.626 108.215 396.265 110.729C394.887 113.266 392.946 115.376 390.624 116.86C388.336 118.314 385.742 119.079 383.101 119.079C380.46 119.079 377.866 118.314 375.579 116.86C373.287 115.356 371.383 113.232 370.05 110.688C368.676 108.066 367.937 105.099 367.906 102.073V37.54H346.993V102.942C347.182 109.855 348.962 116.601 352.166 122.549C355.37 128.497 359.892 133.452 365.31 136.948C370.79 140.491 377.029 142.359 383.383 142.359C389.737 142.359 395.976 140.491 401.456 136.948C406.828 133.424 411.294 128.449 414.432 122.493C417.664 116.302 419.387 109.296 419.435 102.155V37.54H398.597L398.522 102.445Z" fill="#1B335F"/>
<path d="M210.498 101.741V142.25H231.411V101.741V40.3563V37.6226H210.498V101.741Z" fill="#1B335F"/>
<path d="M60.0803 113.045C71.1408 100.865 71.1408 81.1172 60.0803 68.937C49.0198 56.7568 31.0872 56.7568 20.0268 68.937C8.96628 81.1172 8.96629 100.865 20.0268 113.045C31.0872 125.226 49.0198 125.226 60.0803 113.045Z" fill="#EC1C24"/>
<path d="M165.852 75.6464L102.362 5.68781C99.0481 2.04556 94.5572 0 89.8751 0C85.1929 0 80.7019 2.04556 77.3877 5.68781L75.9208 7.30319C72.6134 10.9529 70.7559 15.8985 70.7559 21.0547C70.7559 26.2109 72.6134 31.1564 75.9208 34.8061L126.923 90.9718L140.877 75.6049C144.197 71.9682 148.69 69.9301 153.372 69.9378C158.055 69.9456 162.543 71.9986 165.852 75.6464Z" fill="#1B335F"/>
<path d="M140.877 106.38L126.923 91.0132L75.9208 147.179C72.6134 150.829 70.7559 155.774 70.7559 160.93C70.7559 166.087 72.6134 171.032 75.9208 174.682L77.3877 176.297C80.7019 179.939 85.1929 181.985 89.8751 181.985C94.5572 181.985 99.0481 179.939 102.362 176.297L165.852 106.38C162.538 110.022 158.047 112.068 153.365 112.068C148.683 112.068 144.192 110.022 140.877 106.38Z" fill="#41C2D7"/>
<path d="M167.319 77.2617L165.852 75.6463C162.537 72.0041 158.047 69.9585 153.364 69.9585C148.682 69.9585 144.191 72.0041 140.877 75.6463L126.923 91.0132L140.877 106.38C144.191 110.022 148.682 112.068 153.364 112.068C158.047 112.068 162.537 110.022 165.852 106.38L167.319 104.765C170.626 101.115 172.483 96.1694 172.483 91.0132C172.483 85.857 170.626 80.9114 167.319 77.2617Z" fill="#EB2026"/>
</svg>
