<svg width="700" height="176" viewBox="0 0 700 176" fill="none" xmlns="http://www.w3.org/2000/svg">
<path fill-rule="evenodd" clip-rule="evenodd" d="M270.594 45.9736C250.294 17.1803 216.591 0.000148773 182.315 0.000148773C148.024 0.000148773 114.306 17.1803 94.0505 45.9736L93.0112 47.449H118.565L118.845 47.141C136.251 29.1603 158.953 19.6571 182.315 19.6571C205.662 19.6571 228.364 29.1603 245.783 47.141L246.077 47.449H271.616L270.594 45.9736Z" fill="#FF3C28"/>
<path d="M82.8813 141.747L82.3904 142.226C74.5378 150.233 65.4612 154.482 56.1058 154.482C36.5667 154.482 22.3913 139.789 22.3913 119.543C22.3913 99.3268 36.5667 84.6289 56.1058 84.6289C65.4612 84.6289 74.5378 88.8918 82.3904 96.9141L82.8813 97.4069L95.441 82.1895L95.1047 81.7744C84.6525 69.4062 72.1201 63.4001 56.7106 63.4001C41.2433 63.4001 27.1121 68.6028 16.9273 78.0123C5.8434 88.1848 0 102.543 0 119.543C0 136.533 5.8434 150.934 16.9273 161.112C27.1121 170.556 41.2433 175.732 56.7106 175.732C72.1201 175.732 84.6525 169.723 95.1047 157.35L95.441 156.97L82.8813 141.747ZM108.142 173.662H130.324V65.1566H108.142V173.662ZM217.267 150.069C211.354 153.687 205.832 155.5 200.886 155.5C193.708 155.5 190.477 151.716 190.477 143.276V85.6946H213.08V65.2557H190.477V31.498L168.717 43.146V65.2557H149.964V85.6946H168.717V146.939C168.717 163.626 178.592 175.02 193.327 175.325C203.331 175.518 209.357 172.532 213.025 170.35L213.236 170.203L218.573 149.266L217.267 150.069ZM235.654 173.662H257.85V65.1566H235.654V173.662ZM611.836 23.8638V127.373L618.747 116.603C618.734 116.651 649.809 71.5885 653.782 65.8528H667.636C664.685 69.8158 640.253 103.477 640.253 103.477C640.253 103.477 672.074 169.892 673.914 173.662H660.316C659.573 172.123 632.233 114.159 632.233 114.159L611.836 142.802V173.662H599.163V31.115C600.272 30.4777 608.844 25.5508 611.836 23.8638ZM507.782 78.7004C514.301 68.9134 524.54 63.5232 536.523 63.5232C560.407 63.5232 573.063 78.7861 573.063 107.649V173.662H560.364V110.378C560.364 85.8258 551.851 74.4161 533.403 74.4161C515.744 74.4161 505.21 87.8662 505.21 110.378V173.662H492.54V65.8528H505.21V82.5697L507.782 78.7004ZM429.925 63.5232C454.498 63.5232 466.438 74.7749 466.438 97.9397V173.662H453.781V157.939L451.308 160.662C441.98 170.961 431.291 176 418.549 176C408.56 176 385.324 172.693 385.324 141.991C385.324 116.906 406.001 107.992 425.374 107.992C435.109 107.992 444.72 110.238 451.688 114.159L453.781 115.318V99.8355C453.781 82.6741 445.407 73.9796 428.871 73.9796C418.674 73.9796 409.458 76.5529 400.031 81.8869C399.202 79.9643 396.267 73.4843 395.451 71.6447C405.314 66.4312 417.492 63.5232 429.925 63.5232ZM397.743 140.946C397.743 157.061 406.087 165.94 421.244 165.94C434.128 165.94 445.589 159.832 453.541 148.738L453.781 148.353V124.727L453.062 124.315C444.988 119.699 436.71 117.835 424.532 117.835C407.787 117.835 397.743 126.473 397.743 140.946ZM299.94 23.8638V81.5495L302.384 78.8638C311.712 68.5386 322.051 63.5232 333.921 63.5232C357.676 63.5232 371.304 83.3489 371.304 117.956C371.304 153.207 355.821 176 331.841 176C320.152 176 310.798 171.461 302.4 161.733L299.94 158.849V173.662H287.294V31.115C288.363 30.4777 296.962 25.5508 299.94 23.8638ZM300.234 90.9402L299.94 91.3338V147.474L300.165 147.809C307.145 158.643 318.54 165.123 330.649 165.123C349.359 165.123 358.842 149.317 358.842 118.186C358.842 90.3591 348.335 74.4161 330.015 74.4161C318.92 74.4161 308.889 79.9724 300.234 90.9402ZM691.49 51.0344C691.49 52.2903 690.632 52.8312 689.466 52.8312H686.108V49.2297H689.466C690.632 49.2297 691.49 49.8348 691.49 51.0344ZM693.68 50.9675C693.68 48.3166 691.781 47.133 689.536 47.133H683.958V59.8414H686.108V54.9358H688.552L691.038 59.8414H693.594L690.982 54.7109C692.626 54.2262 693.68 52.9651 693.68 50.9675ZM700 53.7121C700 47.1089 694.987 42.0695 688.386 42.0695C681.779 42.0695 676.753 47.1089 676.753 53.7121C676.753 60.3261 681.779 65.3494 688.386 65.3494C694.987 65.3494 700 60.3261 700 53.7121ZM698.134 53.7121C698.134 59.255 693.904 63.475 688.386 63.475C682.833 63.475 678.622 59.255 678.622 53.7121C678.622 48.1639 682.833 43.9412 688.386 43.9412C693.904 43.9412 698.134 48.1639 698.134 53.7121Z" fill="#255BE3"/>
</svg>
