<svg width="180" height="180" viewBox="0 0 180 180" fill="none" xmlns="http://www.w3.org/2000/svg">
<circle cx="90" cy="90" r="90" fill="#EE413D"/>
<path d="M31 134.413V149.826H32.0845C34.0039 149.826 34.9733 149.356 35.5299 148.147C35.7506 147.667 35.7506 147.648 35.7794 142.887L35.8082 138.118H38.5146C42.7278 138.118 44.3977 137.897 46.2212 137.139C49.4938 135.747 51.5189 132.743 51.7012 128.991C51.8932 125.123 50.0121 121.821 46.6915 120.219C46.2212 119.988 45.4822 119.7 45.0695 119.585C43.3324 119.115 43.0829 119.096 36.8831 119.048L31 119V134.413ZM43.0253 123.578C44.7816 123.952 45.9813 125.037 46.4035 126.649C46.5763 127.311 46.6051 129.365 46.4515 130.161C46.2116 131.39 45.4534 132.484 44.4457 133.021C43.2844 133.636 42.7758 133.703 39.0905 133.703H35.7986V128.568V123.434H39.0905C41.5761 123.434 42.5359 123.472 43.0253 123.578Z" fill="white"/>
<path d="M114.131 133.386L114.16 145.267L114.41 146.054C114.88 147.561 115.715 148.559 117.02 149.202C117.951 149.663 118.767 149.817 120.619 149.893L122.174 149.951V147.83V145.719L121.099 145.68C119.717 145.642 119.362 145.488 118.988 144.74L118.719 144.221V138.866V133.511H119.611C121.013 133.511 122.001 133.069 122.558 132.196C122.826 131.774 123.038 130.9 123.038 130.219V129.864H120.878H118.719V125.689V121.514H116.415H114.103L114.131 133.386Z" fill="white"/>
<path d="M79.0341 129.336C75.5695 129.874 72.8631 131.774 71.3947 134.691C69.792 137.906 69.744 141.544 71.27 144.73C71.8362 145.92 72.3545 146.63 73.3334 147.571C74.6194 148.799 76.011 149.577 77.8345 150.057C81.7789 151.122 85.5123 150.172 89.0056 147.225C89.0728 147.168 88.353 146.045 87.3357 144.634L87.0862 144.289L86.472 144.759C85.7042 145.335 84.1399 146.122 83.3049 146.352C82.8154 146.477 82.2972 146.515 80.8576 146.515C79.0629 146.515 79.0149 146.506 78.2184 146.218C76.7212 145.69 75.7231 144.826 75.0993 143.54C74.7538 142.82 74.4754 141.669 74.4754 140.949V140.517H82.3452C88.9001 140.517 90.2149 140.498 90.2149 140.383C90.2149 139.72 89.975 137.599 89.8118 136.87C88.8809 132.58 86.1649 129.96 81.9613 129.327C80.8768 129.163 80.0802 129.163 79.0341 129.336ZM82.4507 132.926C83.2281 133.175 84.1303 133.741 84.5333 134.25C84.7061 134.471 84.9748 134.931 85.1476 135.296C85.4067 135.853 85.4547 136.073 85.4931 136.937L85.541 137.926H80.0994H74.6674V137.302C74.6674 136.544 75.0033 135.43 75.4352 134.759C75.963 133.933 76.8556 133.261 77.8345 132.945C78.919 132.599 81.3567 132.59 82.4507 132.926Z" fill="white"/>
<path d="M100.628 129.298C98.2095 129.605 96.2997 130.622 95.3399 132.138C94.9465 132.743 94.5722 133.837 94.4858 134.615C94.3418 135.949 94.9656 137.571 96.0885 138.751C97.0386 139.749 97.9792 140.306 100.695 141.486C103.517 142.715 103.939 142.935 104.381 143.415C104.707 143.78 104.707 143.78 104.707 144.72C104.707 145.853 104.553 146.179 103.862 146.496C103.45 146.688 103.258 146.707 101.588 146.707C99.2364 146.707 98.0751 146.458 95.935 145.498C95.3591 145.239 94.8793 145.037 94.8697 145.056C94.7737 145.191 93.2861 148.377 93.2861 148.454C93.2861 148.665 95.1768 149.423 96.674 149.817C100.417 150.805 103.613 150.69 106.127 149.481C108.018 148.569 109.131 147.043 109.429 144.941C109.63 143.482 109.102 141.88 108.037 140.747C107.029 139.663 106.549 139.394 102.941 137.82C100.321 136.678 99.9082 136.457 99.4763 136.006C99.198 135.718 99.1884 135.661 99.1596 134.73C99.1308 133.828 99.1404 133.722 99.342 133.472C99.4571 133.319 99.7067 133.137 99.8986 133.06C100.378 132.858 102.068 132.791 103.229 132.925C104.217 133.041 105.983 133.472 106.818 133.799L107.308 133.991L107.384 133.77C107.432 133.655 107.74 132.877 108.066 132.043C108.392 131.208 108.642 130.507 108.622 130.488C108.536 130.401 106.175 129.758 105.302 129.586C103.469 129.211 102.02 129.125 100.628 129.298Z" fill="white"/>
<path d="M136.089 129.25C131.223 129.854 127.538 132.887 126.396 137.225C125.427 140.92 126.53 144.759 129.313 147.408C131.003 149.01 133.229 150.047 135.744 150.392C136.751 150.536 137.586 150.527 138.68 150.354C143.469 149.634 146.857 146.592 147.961 142.024C148.23 140.958 148.201 138.626 147.913 137.494C147.395 135.43 146.608 134.039 145.111 132.542C143.748 131.179 142.529 130.411 140.773 129.826C139.4 129.375 137.241 129.106 136.089 129.25ZM139.256 133.655C140.197 133.904 141.176 134.461 141.809 135.085C142.462 135.747 142.807 136.313 143.172 137.35C143.412 138.031 143.431 138.166 143.431 139.845C143.421 141.515 143.412 141.669 143.162 142.388C142.538 144.25 141.185 145.527 139.247 146.054C138.373 146.294 135.83 146.294 134.937 146.045C133.344 145.603 132.087 144.596 131.396 143.204C130.887 142.148 130.715 141.342 130.715 139.845C130.715 138.358 130.887 137.532 131.396 136.505C132.193 134.883 133.699 133.828 135.657 133.511C136.435 133.396 138.604 133.473 139.256 133.655Z" fill="white"/>
<path d="M66.3177 129.442C65.4731 129.615 64.0815 130.325 63.4193 130.92C62.7667 131.496 61.9318 132.724 61.5575 133.626L61.2887 134.279H60.7321H60.1755V132.071V129.864H57.9681H55.7607V139.855V149.845L56.8932 149.807C57.8529 149.778 58.0929 149.74 58.5439 149.529C59.2829 149.183 59.6476 148.847 59.9547 148.214L60.2235 147.667L60.281 143.492C60.3482 139.183 60.377 138.799 60.7897 137.647C61.3943 135.968 62.8051 134.807 64.6862 134.432C65.0796 134.356 65.8666 134.26 66.4425 134.221L67.4694 134.154V131.726V129.288L67.2102 129.298C67.0567 129.298 66.6632 129.365 66.3177 129.442Z" fill="white"/>
<path d="M75.7153 30.3947C76.1339 30.5996 78.2417 31.6712 80.4242 32.7586C82.6068 33.846 84.7445 34.9492 85.178 35.2013L85.9553 35.6741V36.6196V37.5494H85.3723C85.0435 37.5494 83.414 37.313 81.7397 37.0136C75.0127 35.8002 70.842 35.4377 65.849 35.5795C59.5406 35.7529 56.491 36.0366 52.2156 36.8403C51.0795 37.0609 50.0928 37.2343 50.0031 37.2343C49.9284 37.25 51.1991 37.7385 52.8434 38.3216C60.2581 40.985 66.447 43.9477 70.543 46.8001L72.4116 48.1081H73.9962C81.4707 48.1239 90.2307 49.3531 95.2237 51.1024C97.0624 51.7485 100.247 53.3717 101.741 54.4118C106.017 57.4376 108.977 61.5193 110.038 65.9003C110.427 67.4762 110.561 70.0608 110.337 71.7628C109.829 75.7341 107.497 79.6897 103.64 83.0937C101.876 84.6538 100.396 85.5994 97.5856 87.0335C94.6407 88.5148 92.9515 89.1452 89.4086 90.0908L86.359 90.9103L83.6831 97.8286C82.2181 101.627 81.0222 104.794 81.0222 104.873C81.0222 105.062 92.9216 105.031 93.8633 104.841C94.9247 104.637 95.6273 104.258 96.2701 103.565C96.9578 102.808 96.9877 102.73 99.2001 97.1194C100.232 94.4718 101.173 92.1552 101.278 91.9819C101.442 91.7297 101.697 91.6194 102.429 91.5406C106.361 91.0836 112.684 89.287 116.332 87.6008C123.103 84.449 128.41 78.6968 129.771 73.0077C130.04 71.9204 130.055 71.6209 129.905 70.8487C129.457 68.4376 128.156 65.2857 126.796 63.3473C124.524 60.0852 120.936 57.217 116.466 55.1052L114.508 54.1754L113.701 52.6783C110.576 46.8789 105.15 40.7643 99.7084 36.9348C96.4495 34.634 92.9365 33.1053 87.9137 31.8131C84.5053 30.9306 78.137 29.9692 75.8349 30.0008H74.9679L75.7153 30.3947Z" fill="white"/>
<path d="M82.2175 63.0324L81.3953 63.0955L80.02 66.6728C79.2725 68.6427 78.1364 71.5582 77.5235 73.1499L76.4023 76.0496L78.3009 75.9392C85.0129 75.5453 89.976 74.0166 92.4874 71.5424C94.0271 70.0295 94.8194 67.8705 94.2813 66.7516C93.5787 65.349 91.5307 64.1356 88.8698 63.5682C86.9712 63.1743 83.817 62.9221 82.2175 63.0324Z" fill="white"/>
</svg>
