<svg width="180" height="180" viewBox="0 0 180 180" fill="none" xmlns="http://www.w3.org/2000/svg">
<circle cx="90" cy="90" r="90" fill="white"/>
<path d="M18.5092 67.2403C18.778 67.3651 20.1312 68.0177 21.5324 68.6799C22.9336 69.3421 24.306 70.0139 24.5843 70.1675L25.0833 70.4554V71.0312V71.5975H24.709C24.4979 71.5975 23.4518 71.4535 22.3769 71.2712C18.0582 70.5322 15.3805 70.3115 12.1751 70.3978C8.12504 70.5034 6.16721 70.6762 3.4224 71.1656C2.69301 71.3 2.0596 71.4055 2.00201 71.4055C1.95403 71.4151 2.76979 71.7127 3.82549 72.0678C8.58571 73.6897 12.559 75.494 15.1886 77.2311L16.3882 78.0276H17.4056C22.2042 78.0372 27.8281 78.7858 31.0336 79.8511C32.2141 80.2446 34.2583 81.2331 35.218 81.8665C37.9628 83.7092 39.8631 86.1949 40.5445 88.8629C40.794 89.8226 40.8804 91.3966 40.7364 92.4331C40.4101 94.8516 38.9129 97.2605 36.4368 99.3335C35.3044 100.284 34.3542 100.859 32.55 101.733C30.6593 102.635 29.5748 103.019 27.3003 103.595L25.3425 104.094L23.6246 108.307C22.684 110.62 21.9162 112.549 21.9162 112.597C21.9162 112.712 29.5556 112.693 30.1603 112.578C30.8417 112.453 31.2927 112.223 31.7054 111.8C32.1469 111.34 32.1661 111.292 33.5865 107.875C34.2487 106.263 34.8533 104.852 34.9205 104.746C35.0261 104.593 35.1892 104.526 35.6595 104.478C38.1835 104.199 42.2432 103.105 44.5849 102.078C48.9324 100.159 52.3394 96.6558 53.2128 93.1912C53.3855 92.529 53.3951 92.3467 53.2992 91.8764C53.0113 90.408 52.1763 88.4886 51.3029 87.3081C49.8442 85.3215 47.5408 83.5748 44.6713 82.2888L43.414 81.7226L42.8958 80.8108C40.89 77.279 37.4062 73.5553 33.9128 71.2232C31.8206 69.822 29.5652 68.8911 26.3406 68.1041C24.1524 67.5667 20.064 66.9812 18.586 67.0004H18.0294L18.5092 67.2403Z" fill="#EE413D"/>
<path d="M60.7656 90.3504V105.764H61.8501C63.7696 105.764 64.7389 105.293 65.2955 104.084C65.5163 103.604 65.5163 103.585 65.545 98.8248L65.5738 94.0549H68.2803C72.4934 94.0549 74.1633 93.8342 75.9868 93.076C79.2595 91.6844 81.2845 88.6805 81.4668 84.928C81.6588 81.0603 79.7777 77.7589 76.4571 76.1561C75.9868 75.9258 75.2478 75.6379 74.8352 75.5227C73.0981 75.0524 72.8485 75.0332 66.6487 74.9853L60.7656 74.9373V90.3504ZM72.7909 79.5151C74.5472 79.8894 75.7469 80.9739 76.1692 82.5863C76.3419 83.2485 76.3707 85.3023 76.2172 86.0988C75.9772 87.3273 75.219 88.4214 74.2113 88.9588C73.0501 89.573 72.5414 89.6402 68.8561 89.6402H65.5642V84.5057V79.3712H68.8561C71.3418 79.3712 72.3015 79.4096 72.7909 79.5151Z" fill="#EE413D"/>
<path d="M143.897 89.3235L143.926 101.205L144.175 101.992C144.646 103.499 145.48 104.497 146.786 105.14C147.717 105.6 148.532 105.754 150.385 105.831L151.939 105.888V103.767V101.656L150.865 101.618C149.483 101.579 149.127 101.426 148.753 100.677L148.484 100.159V94.8035V89.4483H149.377C150.778 89.4483 151.767 89.0068 152.323 88.1334C152.592 87.7112 152.803 86.8378 152.803 86.1564V85.8013H150.644H148.484V81.6265V77.4517H146.181H143.868L143.897 89.3235Z" fill="#EE413D"/>
<path d="M108.8 85.2736C105.335 85.811 102.629 87.7112 101.16 90.6288C99.5576 93.8439 99.5096 97.4812 101.036 100.667C101.602 101.858 102.12 102.568 103.099 103.508C104.385 104.737 105.777 105.514 107.6 105.994C111.545 107.059 115.278 106.109 118.771 103.163C118.838 103.105 118.119 101.982 117.101 100.572L116.852 100.226L116.238 100.696C115.47 101.272 113.905 102.059 113.071 102.289C112.581 102.414 112.063 102.453 110.623 102.453C108.829 102.453 108.781 102.443 107.984 102.155C106.487 101.627 105.489 100.763 104.865 99.4774C104.519 98.7577 104.241 97.606 104.241 96.8862V96.4543H112.111C118.666 96.4543 119.981 96.4351 119.981 96.32C119.981 95.6578 119.741 93.5368 119.577 92.8074C118.647 88.5174 115.93 85.8974 111.727 85.264C110.642 85.1008 109.846 85.1008 108.8 85.2736ZM112.216 88.8629C112.994 89.1124 113.896 89.6787 114.299 90.1873C114.472 90.4081 114.74 90.8687 114.913 91.2334C115.172 91.7901 115.22 92.0108 115.259 92.8746L115.307 93.8631H109.865H104.433V93.2392C104.433 92.4811 104.769 91.3678 105.201 90.696C105.729 89.8706 106.621 89.1988 107.6 88.8821C108.685 88.5366 111.122 88.527 112.216 88.8629Z" fill="#EE413D"/>
<path d="M130.394 85.2351C127.975 85.5422 126.065 86.5595 125.106 88.0759C124.712 88.6805 124.338 89.7746 124.251 90.5519C124.107 91.8859 124.731 93.5079 125.854 94.6883C126.804 95.6864 127.745 96.2431 130.461 97.4235C133.282 98.652 133.705 98.8727 134.146 99.3526C134.472 99.7173 134.472 99.7173 134.472 100.658C134.472 101.79 134.319 102.117 133.628 102.433C133.215 102.625 133.023 102.644 131.353 102.644C129.002 102.644 127.841 102.395 125.701 101.435C125.125 101.176 124.645 100.975 124.635 100.994C124.539 101.128 123.052 104.314 123.052 104.391C123.052 104.602 124.942 105.36 126.44 105.754C130.182 106.742 133.378 106.627 135.893 105.418C137.783 104.506 138.897 102.98 139.194 100.879C139.396 99.4198 138.868 97.817 137.803 96.6846C136.795 95.6001 136.315 95.3314 132.707 93.7574C130.087 92.6153 129.674 92.3946 129.242 91.9435C128.964 91.6556 128.954 91.598 128.925 90.6671C128.896 89.765 128.906 89.6594 129.108 89.4099C129.223 89.2563 129.472 89.074 129.664 88.9972C130.144 88.7956 131.833 88.7285 132.994 88.8628C133.983 88.978 135.749 89.4099 136.584 89.7362L137.073 89.9281L137.15 89.7074C137.198 89.5922 137.505 88.8148 137.831 87.9799C138.158 87.1449 138.407 86.4443 138.388 86.4251C138.302 86.3388 135.941 85.6957 135.067 85.523C133.234 85.1487 131.785 85.0623 130.394 85.2351Z" fill="#EE413D"/>
<path d="M165.856 85.1871C160.99 85.7917 157.305 88.8245 156.163 93.1624C155.193 96.8573 156.297 100.696 159.08 103.345C160.769 104.948 162.996 105.984 165.51 106.33C166.518 106.474 167.353 106.464 168.447 106.291C173.236 105.572 176.624 102.529 177.727 97.961C177.996 96.8957 177.967 94.5636 177.679 93.4311C177.161 91.3677 176.374 89.9761 174.877 88.479C173.514 87.1162 172.295 86.3484 170.539 85.763C169.167 85.3119 167.007 85.0432 165.856 85.1871ZM169.023 89.5922C169.963 89.8418 170.942 90.3984 171.576 91.0222C172.228 91.6844 172.574 92.2507 172.938 93.2872C173.178 93.9686 173.198 94.1029 173.198 95.7825C173.188 97.4524 173.178 97.6059 172.929 98.3257C172.305 100.188 170.952 101.464 169.013 101.992C168.14 102.232 165.597 102.232 164.704 101.982C163.111 101.541 161.854 100.533 161.163 99.1415C160.654 98.0858 160.481 97.2796 160.481 95.7825C160.481 94.2949 160.654 93.4695 161.163 92.4426C161.959 90.8207 163.466 89.765 165.424 89.4483C166.201 89.3331 168.37 89.4099 169.023 89.5922Z" fill="#EE413D"/>
<path d="M96.0843 85.3791C95.2397 85.5519 93.8481 86.2621 93.1859 86.8571C92.5333 87.4329 91.6984 88.6614 91.3241 89.5635L91.0553 90.2161H90.4987H89.9421V88.0088V85.8014H87.7347H85.5273V95.7921V105.783L86.6598 105.744C87.6195 105.716 87.8595 105.677 88.3105 105.466C89.0495 105.121 89.4142 104.785 89.7213 104.151L89.9901 103.604L90.0476 99.4295C90.1148 95.1203 90.1436 94.7364 90.5563 93.5848C91.1609 91.9053 92.5717 90.744 94.4528 90.3697C94.8462 90.2929 95.6332 90.1969 96.2091 90.1586L97.236 90.0914V87.6633V85.2256L96.9768 85.2352C96.8233 85.2352 96.4298 85.3024 96.0843 85.3791Z" fill="#EE413D"/>
<path d="M22.6845 87.1163L22.1566 87.1547L21.2737 89.3332C20.7938 90.5329 20.0644 92.3084 19.671 93.2777L18.9512 95.0436L20.17 94.9764C24.4792 94.7365 27.6655 93.8055 29.2778 92.2988C30.2663 91.3774 30.775 90.0626 30.4295 89.3812C29.9784 88.5271 28.6636 87.7881 26.9553 87.4426C25.7364 87.2026 23.7114 87.0491 22.6845 87.1163Z" fill="#EE413D"/>
</svg>
