<svg width="180" height="180" viewBox="0 0 180 180" fill="none" xmlns="http://www.w3.org/2000/svg">
<rect width="180" height="180" rx="15" fill="#EE413D"/>
<path d="M68.573 35.579C69.2008 35.8794 72.3625 37.4512 75.6364 39.046C78.9102 40.6408 82.1167 42.2588 82.767 42.6286L83.933 43.322V44.7088V46.0725H83.0585C82.5652 46.0725 80.121 45.7258 77.6096 45.2867C67.5191 43.5069 61.2629 42.9753 53.7735 43.1833C44.3108 43.4376 39.7365 43.8536 33.3234 45.0324C31.6192 45.356 30.1392 45.6102 30.0047 45.6102C29.8926 45.6334 31.7986 46.3499 34.2652 47.2051C45.3872 51.1113 54.6705 55.4566 60.8145 59.6402L63.6174 61.5586H65.9943C77.206 61.5817 90.3461 63.3846 97.8355 65.9502C100.594 66.8978 105.37 69.2785 107.612 70.804C114.025 75.2418 118.465 81.2282 120.057 87.6538C120.64 89.9652 120.842 93.7558 120.506 96.2521C119.743 102.077 116.245 107.878 110.46 112.871C107.814 115.159 105.594 116.546 101.378 118.649C96.961 120.822 94.4272 121.746 89.1128 123.133L84.5384 124.335L80.5247 134.482C78.3272 140.052 76.5333 144.698 76.5333 144.814C76.5333 145.091 94.3823 145.045 95.795 144.767C97.3871 144.467 98.441 143.912 99.4052 142.895C100.437 141.786 100.481 141.67 103.8 133.442C105.347 129.559 106.76 126.161 106.917 125.907C107.164 125.537 107.545 125.375 108.644 125.26C114.541 124.589 124.026 121.954 129.497 119.481C139.655 114.858 147.616 106.422 149.656 98.078C150.06 96.4832 150.082 96.044 149.858 94.9115C149.185 91.3751 147.234 86.7524 145.194 83.9094C141.785 79.1249 136.404 74.9182 129.699 71.821L126.762 70.4573L125.551 68.2615C120.864 59.7557 112.725 50.7877 104.563 45.1711C99.6742 41.7965 94.4047 39.5545 86.8705 37.6592C81.7579 36.3648 72.2056 34.9549 68.7524 35.0011H67.4518L68.573 35.579Z" fill="white"/>
<path d="M78.3272 83.4473L77.0939 83.5397L75.031 88.7865C73.9098 91.6757 72.2056 95.9517 71.2862 98.2862L69.6045 102.539L72.4523 102.377C82.5204 101.799 89.965 99.5574 93.7321 95.9286C96.0417 93.7097 97.2301 90.5431 96.4229 88.9021C95.369 86.845 92.297 85.0652 88.3056 84.2331C85.4578 83.6553 80.7265 83.2855 78.3272 83.4473Z" fill="white"/>
</svg>
