<svg width="186" height="46" viewBox="0 0 186 46" fill="none" xmlns="http://www.w3.org/2000/svg">
<path d="M16.5092 0.240349C16.778 0.365112 18.1312 1.01772 19.5324 1.67993C20.9336 2.34214 22.306 3.01395 22.5843 3.1675L23.0833 3.45542V4.03125V4.59749H22.709C22.4979 4.59749 21.4518 4.45353 20.3769 4.27118C16.0582 3.5322 13.3805 3.31146 10.1751 3.39783C6.12504 3.5034 4.16721 3.67616 1.4224 4.16561C0.693013 4.29997 0.0595963 4.40554 0.002013 4.40554C-0.0459731 4.41514 0.769791 4.71265 1.82549 5.06775C6.58571 6.68968 10.559 8.49396 13.1886 10.2311L14.3882 11.0276H15.4056C20.2042 11.0372 25.8281 11.7858 29.0336 12.8511C30.2141 13.2446 32.2583 14.2331 33.218 14.8665C35.9628 16.7092 37.8631 19.1949 38.5445 21.8629C38.794 22.8226 38.8804 24.3966 38.7364 25.4331C38.4101 27.8516 36.9129 30.2605 34.4368 32.3335C33.3044 33.2836 32.3542 33.8594 30.55 34.7328C28.6593 35.6349 27.5748 36.0188 25.3003 36.5946L23.3425 37.0937L21.6246 41.3069C20.684 43.6198 19.9162 45.5488 19.9162 45.5968C19.9162 45.712 27.5556 45.6928 28.1603 45.5776C28.8417 45.4529 29.2927 45.2225 29.7054 44.8003C30.1469 44.3396 30.1661 44.2916 31.5865 40.875C32.2487 39.2627 32.8533 37.8519 32.9205 37.7463C33.0261 37.5927 33.1892 37.5256 33.6595 37.4776C36.1835 37.1993 40.2432 36.1052 42.5849 35.0783C46.9324 33.1588 50.3394 29.6558 51.2128 26.1912C51.3855 25.529 51.3951 25.3467 51.2992 24.8764C51.0113 23.408 50.1763 21.4886 49.3029 20.3081C47.8442 18.3215 45.5408 16.5748 42.6713 15.2888L41.414 14.7226L40.8958 13.8108C38.89 10.279 35.4062 6.55532 31.9128 4.22319C29.8206 2.822 27.5652 1.89107 24.3406 1.1041C22.1524 0.566654 18.064 -0.0187759 16.586 0.000419617H16.0294L16.5092 0.240349Z" fill="#EE413D"/>
<path d="M68.7656 23.3504V38.7635H69.8501C71.7696 38.7635 72.7389 38.2933 73.2955 37.084C73.5163 36.6042 73.5163 36.585 73.545 31.8248L73.5738 27.0549H76.2803C80.4934 27.0549 82.1633 26.8342 83.9868 26.076C87.2595 24.6844 89.2845 21.6805 89.4668 17.928C89.6588 14.0603 87.7777 10.7589 84.4571 9.15612C83.9868 8.92579 83.2478 8.63787 82.8352 8.5227C81.0981 8.05244 80.8485 8.03324 74.6487 7.98526L68.7656 7.93727V23.3504ZM80.7909 12.5151C82.5472 12.8894 83.7469 13.9739 84.1692 15.5863C84.3419 16.2485 84.3707 18.3023 84.2172 19.0988C83.9772 20.3273 83.219 21.4214 82.2113 21.9588C81.0501 22.573 80.5414 22.6402 76.8561 22.6402H73.5642V17.5057V12.3712H76.8561C79.3418 12.3712 80.3015 12.4096 80.7909 12.5151Z" fill="#EE413D"/>
<path d="M151.897 22.3235L151.926 34.2049L152.175 34.9918C152.646 36.4986 153.48 37.4967 154.786 38.1397C155.717 38.6004 156.532 38.7539 158.385 38.8307L159.939 38.8883V36.7673V34.6559L158.865 34.6175C157.483 34.5792 157.127 34.4256 156.753 33.677L156.484 33.1588V27.8035V22.4483H157.377C158.778 22.4483 159.767 22.0068 160.323 21.1334C160.592 20.7112 160.803 19.8378 160.803 19.1564V18.8013H158.644H156.484V14.6265V10.4517H154.181H151.868L151.897 22.3235Z" fill="#EE413D"/>
<path d="M116.8 18.2736C113.335 18.811 110.629 20.7112 109.16 23.6288C107.558 26.8439 107.51 30.4812 109.036 33.6675C109.602 34.8576 110.12 35.5678 111.099 36.5083C112.385 37.7367 113.777 38.5141 115.6 38.994C119.545 40.0593 123.278 39.1091 126.771 36.1628C126.838 36.1052 126.119 34.9823 125.101 33.5715L124.852 33.226L124.238 33.6963C123.47 34.2721 121.905 35.0591 121.071 35.2894C120.581 35.4142 120.063 35.4526 118.623 35.4526C116.829 35.4526 116.781 35.443 115.984 35.1551C114.487 34.6272 113.489 33.7635 112.865 32.4774C112.519 31.7577 112.241 30.606 112.241 29.8862V29.4543H120.111C126.666 29.4543 127.981 29.4351 127.981 29.32C127.981 28.6578 127.741 26.5368 127.577 25.8074C126.647 21.5174 123.93 18.8974 119.727 18.264C118.642 18.1008 117.846 18.1008 116.8 18.2736ZM120.216 21.8629C120.994 22.1124 121.896 22.6787 122.299 23.1873C122.472 23.4081 122.74 23.8687 122.913 24.2334C123.172 24.7901 123.22 25.0108 123.259 25.8746L123.307 26.8631H117.865H112.433V26.2392C112.433 25.4811 112.769 24.3678 113.201 23.696C113.729 22.8706 114.621 22.1988 115.6 21.8821C116.685 21.5366 119.122 21.527 120.216 21.8629Z" fill="#EE413D"/>
<path d="M138.394 18.2351C135.975 18.5422 134.065 19.5595 133.106 21.0759C132.712 21.6805 132.338 22.7746 132.251 23.5519C132.107 24.8859 132.731 26.5079 133.854 27.6883C134.804 28.6864 135.745 29.2431 138.461 30.4235C141.282 31.652 141.705 31.8727 142.146 32.3526C142.472 32.7173 142.472 32.7173 142.472 33.6578C142.472 34.7903 142.319 35.1166 141.628 35.4333C141.215 35.6252 141.023 35.6444 139.353 35.6444C137.002 35.6444 135.841 35.3949 133.701 34.4352C133.125 34.1761 132.645 33.9745 132.635 33.9937C132.539 34.1281 131.052 37.3144 131.052 37.3911C131.052 37.6023 132.942 38.3604 134.44 38.7539C138.182 39.7424 141.378 39.6273 143.893 38.418C145.783 37.5063 146.897 35.9803 147.194 33.8785C147.396 32.4198 146.868 30.817 145.803 29.6846C144.795 28.6001 144.315 28.3314 140.707 26.7574C138.087 25.6153 137.674 25.3946 137.242 24.9435C136.964 24.6556 136.954 24.598 136.925 23.6671C136.896 22.765 136.906 22.6594 137.108 22.4099C137.223 22.2563 137.472 22.074 137.664 21.9972C138.144 21.7956 139.833 21.7285 140.994 21.8628C141.983 21.978 143.749 22.4099 144.584 22.7362L145.073 22.9281L145.15 22.7074C145.198 22.5922 145.505 21.8148 145.831 20.9799C146.158 20.1449 146.407 19.4443 146.388 19.4251C146.302 19.3388 143.941 18.6957 143.067 18.523C141.234 18.1487 139.785 18.0623 138.394 18.2351Z" fill="#EE413D"/>
<path d="M173.856 18.1871C168.99 18.7917 165.305 21.8245 164.163 26.1624C163.193 29.8573 164.297 33.6962 167.08 36.3451C168.769 37.9478 170.996 38.9843 173.51 39.3298C174.518 39.4738 175.353 39.4642 176.447 39.2914C181.236 38.5716 184.624 35.5293 185.727 30.961C185.996 29.8957 185.967 27.5636 185.679 26.4311C185.161 24.3677 184.374 22.9761 182.877 21.479C181.514 20.1162 180.295 19.3484 178.539 18.763C177.167 18.3119 175.007 18.0432 173.856 18.1871ZM177.023 22.5922C177.963 22.8418 178.942 23.3984 179.576 24.0222C180.228 24.6844 180.574 25.2507 180.938 26.2872C181.178 26.9686 181.198 27.1029 181.198 28.7825C181.188 30.4524 181.178 30.6059 180.929 31.3257C180.305 33.1876 178.952 34.464 177.013 34.9919C176.14 35.2318 173.597 35.2318 172.704 34.9823C171.111 34.5408 169.854 33.5331 169.163 32.1415C168.654 31.0858 168.481 30.2796 168.481 28.7825C168.481 27.2949 168.654 26.4695 169.163 25.4426C169.959 23.8207 171.466 22.765 173.424 22.4483C174.201 22.3331 176.37 22.4099 177.023 22.5922Z" fill="#EE413D"/>
<path d="M104.084 18.3791C103.24 18.5519 101.848 19.2621 101.186 19.8571C100.533 20.4329 99.6984 21.6614 99.3241 22.5635L99.0553 23.2161H98.4987H97.9421V21.0088V18.8014H95.7347H93.5273V28.7921V38.7828L94.6598 38.7444C95.6195 38.7157 95.8595 38.6773 96.3105 38.4661C97.0495 38.1206 97.4142 37.7847 97.7213 37.1513L97.9901 36.6043L98.0476 32.4295C98.1148 28.1203 98.1436 27.7364 98.5563 26.5848C99.1609 24.9053 100.572 23.744 102.453 23.3697C102.846 23.2929 103.633 23.1969 104.209 23.1586L105.236 23.0914V20.6633V18.2256L104.977 18.2352C104.823 18.2352 104.43 18.3024 104.084 18.3791Z" fill="#EE413D"/>
<path d="M20.6845 20.1163L20.1566 20.1547L19.2737 22.3332C18.7938 23.5329 18.0644 25.3084 17.671 26.2777L16.9512 28.0436L18.17 27.9764C22.4792 27.7365 25.6655 26.8055 27.2778 25.2988C28.2663 24.3774 28.775 23.0626 28.4295 22.3812C27.9784 21.5271 26.6636 20.7881 24.9553 20.4426C23.7364 20.2026 21.7114 20.0491 20.6845 20.1163Z" fill="#EE413D"/>
</svg>
