<svg width="930" height="140" viewBox="0 0 930 140" fill="none" xmlns="http://www.w3.org/2000/svg">
<path d="M143.796 140H14.0937V15.3537H143.796V140Z" fill="#2C3F75"/>
<path d="M79.4372 -7.62939e-05L0 122.841H158.872L79.4372 -7.62939e-05Z" fill="#2C3F75"/>
<mask id="mask0_1473_2001" style="mask-type:luminance" maskUnits="userSpaceOnUse" x="9" y="9" width="71" height="109">
<path d="M79.4371 9.93182V82.6621L56.6633 117.879H9.61786L79.4371 9.93182Z" fill="white"/>
</mask>
<g mask="url(#mask0_1473_2001)">
<path d="M79.4371 9.93182V82.6621L56.6633 117.879H9.61786L79.4371 9.93182Z" fill="url(#paint0_linear_1473_2001)"/>
</g>
<mask id="mask1_1473_2001" style="mask-type:luminance" maskUnits="userSpaceOnUse" x="79" y="9" width="71" height="109">
<path d="M79.4376 9.93182V82.6621L102.209 117.879H149.252L79.4376 9.93182Z" fill="white"/>
</mask>
<g mask="url(#mask1_1473_2001)">
<path d="M79.4376 9.93182V82.6621L102.209 117.879H149.252L79.4376 9.93182Z" fill="url(#paint1_linear_1473_2001)"/>
</g>
<path d="M235.278 94.6864L226.455 68.7093L217.808 94.6864H235.278ZM259.079 122.386H245.016L239.426 106.481H213.835L208.549 122.386H194.837L219.774 52.3754H233.443L259.079 122.386Z" fill="#2C3F75"/>
<path d="M266.285 122.386V52.9501H279.21V110.592H311.352V122.386H266.285Z" fill="#2C3F75"/>
<path d="M320.918 122.386V52.9501H333.844V110.592H365.986V122.386H320.918Z" fill="#2C3F75"/>
<path d="M374.808 122.386V52.3754H387.734V122.386H374.808Z" fill="#2C3F75"/>
<path d="M433.981 94.6864L425.159 68.7093L416.511 94.6864H433.981ZM457.782 122.386H443.721L438.131 106.481H412.538L407.257 122.386H393.543L418.478 52.3754H432.148L457.782 122.386Z" fill="#2C3F75"/>
<path d="M464.771 122.386V52.3754H477.347L503.551 99.1264V52.3754H515.56V122.386H502.585L476.779 76.7283V122.386H464.771Z" fill="#2C3F75"/>
<path d="M576.872 120.245C570.647 123.363 563.002 123.583 556.128 123.583C547.631 123.583 540.642 120.407 535.169 114.05C529.691 107.703 526.956 99.022 526.956 88.0005C526.956 76.347 529.707 67.3011 535.212 60.8501C540.714 54.4075 547.949 51.1816 556.915 51.1816C564.747 51.1816 571.96 53.0077 576 58.7743C579.095 63.1902 578.652 66.7579 579.095 75.0098H566.198C565.441 71.3838 567.415 68.5161 565.019 66.4183C562.615 64.3164 559.698 63.2633 556.264 63.2633C551.514 63.2633 547.663 65.126 544.706 68.8525C541.752 72.5769 540.277 78.6088 540.277 86.9508C540.277 95.7993 541.731 102.104 544.645 105.865C547.554 109.62 552.667 112.692 557.304 113.115C565.283 113.836 574.844 111.49 577.318 109.103L576.872 120.245Z" fill="#2C3F75"/>
<path d="M593.821 122.386V52.3754H641.29V64.2193H606.744V79.7421H638.886V91.5367H606.744V110.592H642.515V122.386H593.821Z" fill="#2C3F75"/>
<path d="M691.291 91.871V110.592H703.256C707.918 110.592 710.872 110.446 712.124 110.158C714.045 109.782 715.609 108.852 716.818 107.369C718.029 105.891 718.632 103.906 718.632 101.425C718.632 99.3198 718.168 97.5384 717.237 96.0707C716.297 94.608 714.952 93.5425 713.197 92.8739C711.43 92.2053 707.614 91.871 701.73 91.871H691.291ZM691.291 64.0291V80.2176H699.766C704.807 80.2176 707.932 80.1392 709.157 79.9771C711.369 79.6899 713.109 78.8595 714.373 77.4699C715.641 76.0859 716.271 74.2627 716.271 72.0021C716.271 69.8395 715.729 68.0792 714.635 66.7295C713.546 65.3735 711.921 64.5536 709.768 64.2661C708.484 64.1093 704.807 64.0291 698.717 64.0291H691.291ZM678.365 52.3754H703.956C709.023 52.3754 712.802 52.6075 715.291 53.0702C717.778 53.5299 720.009 54.4911 721.973 55.9588C723.937 57.4233 725.576 59.3748 726.888 61.8059C728.196 64.2452 728.847 66.975 728.847 69.9963C728.847 73.2807 728.047 76.2843 726.424 79.0267C724.815 81.7636 722.624 83.8165 719.852 85.185C723.756 86.423 726.752 88.5385 728.847 91.5367C730.947 94.5297 731.996 98.0452 731.996 102.088C731.996 105.274 731.313 108.372 729.968 111.376C728.607 114.389 726.758 116.792 724.417 118.589C722.077 120.391 719.179 121.493 715.75 121.906C713.594 122.162 708.396 122.324 700.156 122.386H678.365V52.3754Z" fill="#2C3F75"/>
<path d="M776.845 94.6864L768.026 68.7093L759.374 94.6864H776.845ZM800.648 122.386H786.585L780.992 106.481H755.401L750.117 122.386H736.404L761.344 52.3754H775.009L800.648 122.386Z" fill="#2C3F75"/>
<path d="M807.637 122.386V52.3754H820.213L846.412 99.1264V52.3754H858.426V122.386H845.455L819.645 76.7283V122.386H807.637Z" fill="#2C3F75"/>
<path d="M872.268 122.386V52.3754H885.194V79.1729L911.31 52.3754H930L895.905 87.0707L930 122.386H911.31L885.194 96.1803V122.386H872.268Z" fill="#2C3F75"/>
<path d="M143.796 140H14.0937V122.841H143.796V140Z" fill="#ED1C24"/>
<defs>
<linearGradient id="paint0_linear_1473_2001" x1="78.8201" y1="83.7487" x2="41.6319" y2="62.3258" gradientUnits="userSpaceOnUse">
<stop stop-color="#5A5758"/>
<stop offset="0.257286" stop-color="white"/>
<stop offset="0.5" stop-color="white"/>
<stop offset="0.629154" stop-color="white"/>
<stop offset="1" stop-color="white"/>
</linearGradient>
<linearGradient id="paint1_linear_1473_2001" x1="80.0558" y1="83.7383" x2="117.244" y2="62.3154" gradientUnits="userSpaceOnUse">
<stop stop-color="#5A5758"/>
<stop offset="0.257286" stop-color="white"/>
<stop offset="0.5" stop-color="white"/>
<stop offset="0.629154" stop-color="white"/>
<stop offset="1" stop-color="white"/>
</linearGradient>
</defs>
</svg>
