<svg width="500" height="350" viewBox="0 0 500 350" fill="none" xmlns="http://www.w3.org/2000/svg">
<rect width="500" height="350" rx="15" fill="white"/>
<path d="M319.067 180H180.101V46.4505H319.067V180Z" fill="#2C3F75"/>
<path d="M250.111 30.0001L165 161.615H335.22L250.111 30.0001Z" fill="#2C3F75"/>
<mask id="mask0_1526_2847" style="mask-type:luminance" maskUnits="userSpaceOnUse" x="175" y="40" width="76" height="117">
<path d="M250.111 40.6413V118.567L225.711 156.299H175.305L250.111 40.6413Z" fill="white"/>
</mask>
<g mask="url(#mask0_1526_2847)">
<path d="M250.111 40.6413V118.567L225.711 156.299H175.305L250.111 40.6413Z" fill="url(#paint0_linear_1526_2847)"/>
</g>
<mask id="mask1_1526_2847" style="mask-type:luminance" maskUnits="userSpaceOnUse" x="250" y="40" width="75" height="117">
<path d="M250.112 40.6413V118.567L274.509 156.299H324.913L250.112 40.6413Z" fill="white"/>
</mask>
<g mask="url(#mask1_1526_2847)">
<path d="M250.112 40.6413V118.567L274.509 156.299H324.913L250.112 40.6413Z" fill="url(#paint1_linear_1526_2847)"/>
</g>
<path d="M319.067 180H180.101V161.615H319.067V180Z" fill="#ED1C24"/>
<path d="M47.1354 272.04L41.6519 255.894L36.2777 272.04H47.1354ZM61.929 289.256H53.1879L49.7139 279.371H33.8081L30.5226 289.256H22L37.499 245.742H45.9951L61.929 289.256Z" fill="#2C3F75"/>
<path d="M66.4075 289.256V246.099H74.4413V281.926H94.4186V289.256H66.4075Z" fill="#2C3F75"/>
<path d="M100.364 289.256V246.099H108.398V281.926H128.376V289.256H100.364Z" fill="#2C3F75"/>
<path d="M133.859 289.256V245.742H141.893V289.256H133.859Z" fill="#2C3F75"/>
<path d="M170.637 272.04L165.154 255.894L159.779 272.04H170.637ZM185.43 289.256H176.691L173.216 279.371H157.309L154.027 289.256H145.504L161.001 245.742H169.498L185.43 289.256Z" fill="#2C3F75"/>
<path d="M189.774 289.256V245.742H197.59L213.877 274.799V245.742H221.341V289.256H213.277L197.237 260.878V289.256H189.774Z" fill="#2C3F75"/>
<path d="M259.449 287.925C255.58 289.864 250.828 290 246.556 290C241.275 290 236.931 288.026 233.529 284.075C230.124 280.13 228.424 274.735 228.424 267.884C228.424 260.641 230.134 255.019 233.556 251.009C236.976 247.005 241.472 245 247.045 245C251.913 245 256.396 246.135 258.907 249.719C260.831 252.464 260.555 254.681 260.831 259.81H252.815C252.344 257.556 253.571 255.774 252.082 254.47C250.588 253.164 248.775 252.509 246.64 252.509C243.688 252.509 241.295 253.667 239.457 255.983C237.621 258.298 236.704 262.047 236.704 267.232C236.704 272.732 237.608 276.65 239.419 278.988C241.227 281.322 244.404 283.231 247.287 283.494C252.246 283.942 258.189 282.484 259.726 281.001L259.449 287.925Z" fill="#2C3F75"/>
<path d="M269.983 289.256V245.742H299.487V253.103H278.016V262.751H297.993V270.082H278.016V281.926H300.249V289.256H269.983Z" fill="#2C3F75"/>
<path d="M330.565 270.29V281.926H338.002C340.899 281.926 342.735 281.835 343.513 281.656C344.707 281.423 345.679 280.845 346.43 279.923C347.183 279.004 347.558 277.77 347.558 276.228C347.558 274.92 347.27 273.812 346.691 272.9C346.107 271.991 345.271 271.329 344.18 270.913C343.082 270.498 340.71 270.29 337.053 270.29H330.565ZM330.565 252.985V263.047H335.832C338.965 263.047 340.907 262.998 341.669 262.897C343.044 262.719 344.125 262.203 344.911 261.339C345.699 260.479 346.09 259.346 346.09 257.941C346.09 256.597 345.754 255.503 345.074 254.664C344.397 253.821 343.387 253.311 342.048 253.132C341.251 253.035 338.965 252.985 335.18 252.985H330.565ZM322.531 245.742H338.436C341.586 245.742 343.934 245.886 345.482 246.174C347.027 246.46 348.414 247.057 349.635 247.969C350.855 248.879 351.874 250.092 352.69 251.603C353.502 253.12 353.907 254.816 353.907 256.694C353.907 258.735 353.409 260.602 352.401 262.307C351.401 264.008 350.039 265.284 348.316 266.134C350.743 266.904 352.605 268.219 353.907 270.082C355.212 271.942 355.864 274.127 355.864 276.64C355.864 278.621 355.44 280.546 354.604 282.413C353.758 284.286 352.608 285.779 351.154 286.896C349.699 288.016 347.898 288.701 345.767 288.958C344.427 289.117 341.196 289.218 336.074 289.256H322.531V245.742Z" fill="#2C3F75"/>
<path d="M383.739 272.04L378.258 255.894L372.881 272.04H383.739ZM398.534 289.256H389.793L386.317 279.371H370.411L367.127 289.256H358.604L374.105 245.742H382.598L398.534 289.256Z" fill="#2C3F75"/>
<path d="M402.878 289.256V245.742H410.695L426.978 274.799V245.742H434.445V289.256H426.383L410.341 260.878V289.256H402.878Z" fill="#2C3F75"/>
<path d="M443.048 289.256V245.742H451.082V262.398L467.315 245.742H478.931L457.74 267.306L478.931 289.256H467.315L451.082 272.968V289.256H443.048Z" fill="#2C3F75"/>
<defs>
<linearGradient id="paint0_linear_1526_2847" x1="249.45" y1="119.731" x2="209.606" y2="96.7777" gradientUnits="userSpaceOnUse">
<stop stop-color="#5A5758"/>
<stop offset="0.257286" stop-color="white"/>
<stop offset="0.5" stop-color="white"/>
<stop offset="0.629154" stop-color="white"/>
<stop offset="1" stop-color="white"/>
</linearGradient>
<linearGradient id="paint1_linear_1526_2847" x1="250.774" y1="119.72" x2="290.619" y2="96.7665" gradientUnits="userSpaceOnUse">
<stop stop-color="#5A5758"/>
<stop offset="0.257286" stop-color="white"/>
<stop offset="0.5" stop-color="white"/>
<stop offset="0.629154" stop-color="white"/>
<stop offset="1" stop-color="white"/>
</linearGradient>
</defs>
</svg>
