<svg width="180" height="180" viewBox="0 0 180 180" fill="none" xmlns="http://www.w3.org/2000/svg">
<rect width="180" height="180" rx="15" fill="#F2F2F2"/>
<path fill-rule="evenodd" clip-rule="evenodd" d="M139.69 149.047L142.027 154.745C142.269 155.383 142.534 156.139 142.71 156.717H142.754C142.953 156.139 143.173 155.402 143.437 154.705L145.553 149.047H147.603L144.694 155.92C143.305 159.227 142.357 160.921 141.035 161.956C140.305 162.54 139.574 162.851 139.056 163C138.897 162.742 138.17 161.618 138.17 161.618C138.654 161.479 139.294 161.199 139.867 160.761C140.396 160.383 141.057 159.705 141.498 158.809C141.586 158.63 141.652 158.49 141.652 158.39C141.652 158.291 141.608 158.151 141.52 157.933L137.574 149.047H139.69ZM95.0192 148.828C98.2812 148.828 99.0749 150.84 99.0749 152.773V156.379C99.0749 157.215 99.1188 158.032 99.2511 158.689H97.4878L97.3334 157.474H97.2672C96.6721 158.231 95.526 158.909 94.0052 158.909C91.845 158.909 90.7429 157.534 90.7429 156.139C90.7429 153.809 93.0351 152.534 97.157 152.554V152.354C97.157 151.558 96.9145 150.123 94.7325 150.123C93.835 150.123 92.9016 150.351 92.1768 150.719C91.9959 150.439 91.5144 149.685 91.5144 149.685C92.3961 149.167 93.6744 148.828 95.0192 148.828ZM131.316 148.828C134.578 148.828 135.372 150.84 135.372 152.773V156.379C135.372 157.215 135.416 158.032 135.548 158.689H133.785L133.631 157.474H133.564C132.969 158.231 131.823 158.909 130.302 158.909C128.142 158.909 127.04 157.534 127.04 156.139C127.04 153.809 129.332 152.534 133.454 152.554V152.354C133.454 151.558 133.212 150.123 131.029 150.123C130.132 150.123 129.199 150.351 128.474 150.719C128.293 150.439 127.812 149.685 127.812 149.685C128.693 149.167 129.971 148.828 131.316 148.828ZM72.1881 145.043C74.0397 145.043 75.2081 145.402 75.7148 145.641C75.7148 145.641 75.129 146.561 74.889 146.912C74.1961 146.668 73.2959 146.497 72.2542 146.497C68.7716 146.497 66.4574 148.509 66.4574 152.036C66.4574 155.322 68.5513 157.434 72.1661 157.434C73.1526 157.434 74.1549 157.278 74.9074 157.025C75.0821 157.301 75.6927 158.251 75.6927 158.251C74.9873 158.57 73.5766 158.889 71.7694 158.889C67.5814 158.889 64.4296 156.498 64.4296 152.095C64.4296 147.892 67.5814 145.043 72.1881 145.043ZM57.7752 148.828C61.2578 148.828 62.1835 151.597 62.1835 153.37C62.1835 153.729 62.1394 154.008 62.1174 154.187H54.623C54.6672 156.558 56.3424 157.534 58.2822 157.534C59.426 157.534 60.196 157.385 60.8387 157.177C61.0168 157.442 61.5663 158.291 61.5663 158.291C60.8831 158.57 59.7147 158.889 58.0175 158.889C54.7333 158.889 52.7717 156.937 52.7717 154.028C52.7717 151.119 54.6672 148.828 57.7752 148.828ZM105.112 146.278V149.047H107.89V150.382H105.112V155.582C105.112 156.777 105.487 157.454 106.567 157.454C106.726 157.454 106.872 157.448 107.004 157.438C107.232 157.785 107.779 158.65 107.779 158.65C107.405 158.789 106.81 158.889 106.06 158.889C105.157 158.889 104.429 158.63 103.966 158.151C103.415 157.634 103.217 156.777 103.217 155.641V150.382H101.564V149.047H103.217V146.278H105.112ZM119.812 145.163C121.707 145.163 123.096 145.561 123.978 146.278C124.793 146.916 125.278 147.892 125.278 149.087C125.278 150.303 124.881 151.259 124.132 151.956C123.118 152.932 121.465 153.43 119.591 153.43C119.018 153.43 118.489 153.41 118.048 153.31V158.689H116.131V145.421C117.057 145.282 118.269 145.163 119.812 145.163ZM35.714 145.262L37.4773 152.056C37.9182 153.729 38.3149 155.402 38.5796 156.697H38.6235C38.8659 155.363 39.3289 153.769 39.8359 152.036L41.8195 145.262H43.8251L45.6327 152.075C46.0514 153.669 46.4483 155.263 46.6686 156.677H46.7128C47.0212 155.203 47.4402 153.709 47.9032 152.036L49.8648 145.262H51.8264L47.6165 158.689H45.6105L43.7372 151.697C43.2743 149.984 42.9658 148.669 42.7673 147.314H42.7232C42.4588 148.649 42.1281 149.964 41.5772 151.697L39.4612 158.689H37.4553L33.6863 145.262H35.714ZM80.6281 144.545V150.562H80.6722C80.9808 150.063 81.4657 149.625 82.0607 149.326C82.6341 149.028 83.317 148.828 84.0448 148.828C85.4773 148.828 87.7697 149.625 87.7697 152.952V158.689H85.83V153.151C85.83 151.597 85.1908 150.283 83.3614 150.283C82.1047 150.283 81.1129 151.079 80.7603 152.036C80.6502 152.275 80.6281 152.534 80.6281 152.872V158.689H78.6884V144.545H80.6281ZM92.6826 155.94C92.6826 157.076 93.5201 157.614 94.5122 157.614C95.9007 157.614 96.7824 156.817 97.0908 156C97.157 155.821 97.2011 155.621 97.2011 155.442V153.769C95.0851 153.729 92.6826 154.067 92.6826 155.94ZM128.98 155.94C128.98 157.076 129.817 157.614 130.809 157.614C132.198 157.614 133.08 156.817 133.388 156C133.454 155.821 133.498 155.621 133.498 155.442V153.769C131.382 153.729 128.98 154.067 128.98 155.94ZM57.6208 150.083C55.659 150.083 54.7994 151.717 54.645 152.932H60.31C60.332 151.816 59.803 150.083 57.6208 150.083ZM119.856 146.537C119.018 146.537 118.379 146.597 118.048 146.677V151.896C118.467 151.996 118.996 152.036 119.635 152.036C121.95 152.036 123.361 151.02 123.361 149.167C123.361 147.394 121.972 146.537 119.856 146.537ZM106.804 116.267V119.794H118.347V121.627H106.804V125.458H116.121C116.121 125.458 114.925 130.961 107.942 135.594C110.767 136.939 114.488 137.892 119.026 138.534C119.026 138.534 118.29 139.713 117.663 140.625C112.7 139.846 108.821 138.479 105.783 136.877C102.722 138.519 98.7606 139.949 93.6404 140.755C93.2834 140.279 92.3128 138.722 92.3128 138.722C96.9537 138.066 100.776 137.004 103.631 135.619C96.6124 131.07 95.2618 125.458 95.2618 125.458H104.553V121.627H92.5629V119.794H104.553V116.267H106.804ZM38.4206 123.008L40.2203 123.871C39.3664 125.709 38.569 126.958 38.3511 127.351V140.678H36.3232V130.229C35.163 131.636 34.4818 132.373 34.1423 132.721C33.9037 132.347 33 130.932 33 130.932C35.1774 128.854 37.0966 126 38.4206 123.008ZM127.63 116.34L129.995 116.815L129.921 116.989C128.964 119.251 128.068 121.176 127.257 122.713V140.678H125.006V126.581C124.232 127.724 123.331 128.893 122.32 130.068L121.073 128.103C123.725 124.842 125.956 120.878 127.58 116.477L127.63 116.34ZM68.4306 116.335L70.5621 116.817C70.5621 116.817 69.2048 120.682 68.1669 122.715L68.1721 140.678H65.9211V126.653C65.0193 128.189 64.4151 129.198 63.65 130.102L62.4317 128.195C65.5892 124.592 68.4306 116.335 68.4306 116.335ZM54.0969 116.239L56.1248 116.606L56.0774 116.77C55.6595 118.218 55.197 119.641 54.7012 121.004H60.767V122.736H59.3056C58.928 127.656 57.9648 131.466 56.4422 134.065C57.6498 136.19 59.9792 138.182 60.6359 138.721C60.4887 138.973 59.475 140.543 59.475 140.543C59.475 140.543 56.1039 137.422 55.3404 135.913C54.4831 137.215 52.9003 138.903 50.7549 140.633L49.6631 138.911C49.6631 138.911 52.5978 136.71 54.2598 134.054C53.2254 131.667 52.539 129.104 52.2171 126.427C51.8621 126.993 51.6677 127.297 51.3107 127.781C51.3107 127.781 50.3638 126.293 50.1716 126.015C51.8735 123.309 53.1505 120.121 54.0594 116.393L54.0969 116.239ZM144.093 116.447V122.214L148 122.214V124.147L144.093 124.147V136.704C144.093 138.703 142.294 140.329 140.082 140.329H137.459V138.212H140.082C141.002 138.212 141.751 137.535 141.751 136.704V124.147L129.243 124.147V122.214L141.751 122.214V116.447H144.093ZM88.023 131.789V140.225H72.1663V131.789H88.023ZM49.0572 130.781V135.44C49.4356 135.149 50.5974 134.226 50.9876 133.912L51.9212 135.374L47.6417 138.639C47.6417 138.639 46.7365 137.226 46.5538 136.959C46.8056 136.706 47.1412 136.183 47.1412 135.186L47.1407 132.513H43.2581C43.2581 136.498 43.0812 137.941 40.1403 140.018C40.1403 140.018 39.4307 138.888 39.116 138.415C41.6413 136.611 41.3416 134.147 41.3416 130.781H49.0572ZM85.8835 133.622H74.4173V138.493H85.8835V133.622ZM112.97 127.264H98.4749C99.3045 128.824 101.361 131.836 105.791 134.454C110.201 131.794 112.195 128.763 112.97 127.264ZM133.806 127.139L137.889 133.004L135.757 134.056L131.927 128.144L133.806 127.139ZM57.3891 122.736H54.0525C54.019 122.858 53.7034 123.573 53.6338 123.712C54.049 127.32 54.6643 130.085 55.4646 131.94C56.4559 129.79 57.103 126.697 57.3891 122.736ZM88.2461 127.757V129.489H71.9433V127.757H88.2461ZM50.061 126.85V128.582H40.8957V126.85H50.061ZM88.2461 123.726V125.458H71.9433V123.726H88.2461ZM46.6037 116.67V123.02H48.6746V118.484H50.4795V124.651H40.7021V118.585H42.6185V123.02H44.6872V116.67H46.6037ZM38.5261 116.249L40.2951 117.296C38.9545 119.855 36.8672 122.5 34.4235 124.518L33.3554 122.846C35.2942 121.156 37.1288 118.775 38.5261 116.249ZM80.0833 116.335L81.6741 119.593L89.8074 119.593V121.426H70.4936V119.593L79.4172 119.593L78.2593 117.052L80.0833 116.335Z" fill="#4D4D4D"/>
<path fill-rule="evenodd" clip-rule="evenodd" d="M74.9268 76.3693C74.4084 76.6073 73.825 76.7451 73.2046 76.7451C71.7688 76.7451 70.5214 76.026 69.8651 74.9612L69.6145 74.4612L59.161 53.5707C59.0483 53.343 58.9784 53.0863 58.9784 52.836C58.9784 51.8736 59.8354 51.0931 60.8925 51.0931C61.3218 51.0931 61.7182 51.2231 62.0372 51.4391L74.3732 59.4379C75.2743 59.9748 76.351 60.2899 77.5092 60.2899C78.1998 60.2899 78.8586 60.1721 79.472 59.9692L137.483 36.4552C127.085 25.294 109.959 18 90.5796 18C58.8672 18 33.1611 37.51 33.1611 61.5785C33.1611 74.7087 40.8953 86.5285 53.0005 94.5175C53.9718 95.149 54.6076 96.1865 54.6076 97.3574C54.6076 97.7444 54.5169 98.0982 54.4057 98.4674C53.4387 101.752 51.8917 107.012 51.8191 107.258C51.6987 107.671 51.5102 108.101 51.5102 108.532C51.5102 109.495 52.3669 110.275 53.4255 110.275C53.8398 110.275 54.1799 110.135 54.5301 109.951L67.1005 103.341C68.0463 102.845 69.047 102.536 70.1504 102.536C70.7371 102.536 71.304 102.619 71.8371 102.768C77.7019 104.303 84.0285 105.157 90.5796 105.157C122.291 105.157 148 85.6456 148 61.5785C148 54.2884 145.628 47.4234 141.46 41.384L75.3457 76.1488L74.9268 76.3693Z" fill="#1AAD19"/>
</svg>
