<svg width="180" height="180" viewBox="0 0 180 180" fill="none" xmlns="http://www.w3.org/2000/svg">
<circle cx="90" cy="90" r="90" fill="white"/>
<path fill-rule="evenodd" clip-rule="evenodd" d="M135.69 149.047L138.027 154.745C138.269 155.383 138.534 156.139 138.71 156.717H138.754C138.953 156.139 139.173 155.402 139.437 154.705L141.553 149.047H143.603L140.694 155.92C139.305 159.227 138.357 160.921 137.035 161.956C136.305 162.54 135.574 162.851 135.056 163C134.897 162.742 134.17 161.618 134.17 161.618C134.654 161.479 135.294 161.199 135.867 160.761C136.396 160.383 137.057 159.705 137.498 158.809C137.586 158.63 137.652 158.49 137.652 158.39C137.652 158.291 137.608 158.151 137.52 157.933L133.574 149.047H135.69ZM91.0192 148.828C94.2812 148.828 95.0749 150.84 95.0749 152.773V156.379C95.0749 157.215 95.1188 158.032 95.2511 158.689H93.4878L93.3334 157.474H93.2672C92.6721 158.231 91.526 158.909 90.0052 158.909C87.845 158.909 86.7429 157.534 86.7429 156.139C86.7429 153.809 89.0351 152.534 93.157 152.554V152.354C93.157 151.558 92.9145 150.123 90.7325 150.123C89.835 150.123 88.9016 150.351 88.1768 150.719C87.9959 150.439 87.5144 149.685 87.5144 149.685C88.3961 149.167 89.6744 148.828 91.0192 148.828ZM127.316 148.828C130.578 148.828 131.372 150.84 131.372 152.773V156.379C131.372 157.215 131.416 158.032 131.548 158.689H129.785L129.631 157.474H129.564C128.969 158.231 127.823 158.909 126.302 158.909C124.142 158.909 123.04 157.534 123.04 156.139C123.04 153.809 125.332 152.534 129.454 152.554V152.354C129.454 151.558 129.212 150.123 127.029 150.123C126.132 150.123 125.199 150.351 124.474 150.719C124.293 150.439 123.812 149.685 123.812 149.685C124.693 149.167 125.971 148.828 127.316 148.828ZM68.1881 145.043C70.0397 145.043 71.2081 145.402 71.7148 145.641C71.7148 145.641 71.129 146.561 70.889 146.912C70.1961 146.668 69.2959 146.497 68.2542 146.497C64.7716 146.497 62.4574 148.509 62.4574 152.036C62.4574 155.322 64.5513 157.434 68.1661 157.434C69.1526 157.434 70.1549 157.278 70.9074 157.025C71.0821 157.301 71.6927 158.251 71.6927 158.251C70.9873 158.57 69.5766 158.889 67.7694 158.889C63.5814 158.889 60.4296 156.498 60.4296 152.095C60.4296 147.892 63.5814 145.043 68.1881 145.043ZM53.7752 148.828C57.2578 148.828 58.1835 151.597 58.1835 153.37C58.1835 153.729 58.1394 154.008 58.1174 154.187H50.623C50.6672 156.558 52.3424 157.534 54.2822 157.534C55.426 157.534 56.196 157.385 56.8387 157.177C57.0168 157.442 57.5663 158.291 57.5663 158.291C56.8831 158.57 55.7147 158.889 54.0175 158.889C50.7333 158.889 48.7717 156.937 48.7717 154.028C48.7717 151.119 50.6672 148.828 53.7752 148.828ZM101.112 146.278V149.047H103.89V150.382H101.112V155.582C101.112 156.777 101.487 157.454 102.567 157.454C102.726 157.454 102.872 157.448 103.004 157.438C103.232 157.785 103.779 158.65 103.779 158.65C103.405 158.789 102.81 158.889 102.06 158.889C101.157 158.889 100.429 158.63 99.9664 158.151C99.4153 157.634 99.217 156.777 99.217 155.641V150.382H97.5637V149.047H99.217V146.278H101.112ZM115.812 145.163C117.707 145.163 119.096 145.561 119.978 146.278C120.793 146.916 121.278 147.892 121.278 149.087C121.278 150.303 120.881 151.259 120.132 151.956C119.118 152.932 117.465 153.43 115.591 153.43C115.018 153.43 114.489 153.41 114.048 153.31V158.689H112.131V145.421C113.057 145.282 114.269 145.163 115.812 145.163ZM31.714 145.262L33.4773 152.056C33.9182 153.729 34.3149 155.402 34.5796 156.697H34.6235C34.8659 155.363 35.3289 153.769 35.8359 152.036L37.8195 145.262H39.8251L41.6327 152.075C42.0514 153.669 42.4483 155.263 42.6686 156.677H42.7128C43.0212 155.203 43.4402 153.709 43.9032 152.036L45.8648 145.262H47.8264L43.6165 158.689H41.6105L39.7372 151.697C39.2743 149.984 38.9658 148.669 38.7673 147.314H38.7232C38.4588 148.649 38.1281 149.964 37.5772 151.697L35.4612 158.689H33.4553L29.6863 145.262H31.714ZM76.6281 144.545V150.562H76.6722C76.9808 150.063 77.4657 149.625 78.0607 149.326C78.6341 149.028 79.317 148.828 80.0448 148.828C81.4773 148.828 83.7697 149.625 83.7697 152.952V158.689H81.83V153.151C81.83 151.597 81.1908 150.283 79.3614 150.283C78.1047 150.283 77.1129 151.079 76.7603 152.036C76.6502 152.275 76.6281 152.534 76.6281 152.872V158.689H74.6884V144.545H76.6281ZM88.6826 155.94C88.6826 157.076 89.5201 157.614 90.5122 157.614C91.9007 157.614 92.7824 156.817 93.0908 156C93.157 155.821 93.2011 155.621 93.2011 155.442V153.769C91.0851 153.729 88.6826 154.067 88.6826 155.94ZM124.98 155.94C124.98 157.076 125.817 157.614 126.809 157.614C128.198 157.614 129.08 156.817 129.388 156C129.454 155.821 129.498 155.621 129.498 155.442V153.769C127.382 153.729 124.98 154.067 124.98 155.94ZM53.6208 150.083C51.659 150.083 50.7994 151.717 50.645 152.932H56.31C56.332 151.816 55.803 150.083 53.6208 150.083ZM115.856 146.537C115.018 146.537 114.379 146.597 114.048 146.677V151.896C114.467 151.996 114.996 152.036 115.635 152.036C117.95 152.036 119.361 151.02 119.361 149.167C119.361 147.394 117.972 146.537 115.856 146.537ZM102.804 116.267V119.794H114.347V121.627H102.804V125.458H112.121C112.121 125.458 110.925 130.961 103.942 135.594C106.767 136.939 110.488 137.892 115.026 138.534C115.026 138.534 114.29 139.713 113.663 140.625C108.7 139.846 104.821 138.479 101.783 136.877C98.7217 138.519 94.7606 139.949 89.6404 140.755C89.2834 140.279 88.3128 138.722 88.3128 138.722C92.9537 138.066 96.7764 137.004 99.6307 135.619C92.6124 131.07 91.2618 125.458 91.2618 125.458H100.553V121.627H88.5629V119.794H100.553V116.267H102.804ZM34.4206 123.008L36.2203 123.871C35.3664 125.709 34.569 126.958 34.3511 127.351V140.678H32.3232V130.229C31.163 131.636 30.4818 132.373 30.1423 132.721C29.9037 132.347 29 130.932 29 130.932C31.1774 128.854 33.0966 126 34.4206 123.008ZM123.63 116.34L125.995 116.815L125.921 116.989C124.964 119.251 124.068 121.176 123.257 122.713V140.678H121.006V126.581C120.232 127.724 119.331 128.893 118.32 130.068L117.073 128.103C119.725 124.842 121.956 120.878 123.58 116.477L123.63 116.34ZM64.4306 116.335L66.5621 116.817C66.5621 116.817 65.2048 120.682 64.1669 122.715L64.1721 140.678H61.9211V126.653C61.0193 128.189 60.4151 129.198 59.65 130.102L58.4317 128.195C61.5892 124.592 64.4306 116.335 64.4306 116.335ZM50.0969 116.239L52.1248 116.606L52.0774 116.77C51.6595 118.218 51.197 119.641 50.7012 121.004H56.767V122.736H55.3056C54.928 127.656 53.9648 131.466 52.4422 134.065C53.6498 136.19 55.9792 138.182 56.6359 138.721C56.4887 138.973 55.475 140.543 55.475 140.543C55.475 140.543 52.1039 137.422 51.3404 135.913C50.4831 137.215 48.9003 138.903 46.7549 140.633L45.6631 138.911C45.6631 138.911 48.5978 136.71 50.2598 134.054C49.2254 131.667 48.539 129.104 48.2171 126.427C47.8621 126.993 47.6677 127.297 47.3107 127.781C47.3107 127.781 46.3638 126.293 46.1716 126.015C47.8735 123.309 49.1505 120.121 50.0594 116.393L50.0969 116.239ZM140.093 116.447V122.214L144 122.214V124.147L140.093 124.147V136.704C140.093 138.703 138.294 140.329 136.082 140.329H133.459V138.212H136.082C137.002 138.212 137.751 137.535 137.751 136.704V124.147L125.243 124.147V122.214L137.751 122.214V116.447H140.093ZM84.023 131.789V140.225H68.1663V131.789H84.023ZM45.0572 130.781V135.44C45.4356 135.149 46.5974 134.226 46.9876 133.912L47.9212 135.374L43.6417 138.639C43.6417 138.639 42.7365 137.226 42.5538 136.959C42.8056 136.706 43.1412 136.183 43.1412 135.186L43.1407 132.513H39.2581C39.2581 136.498 39.0812 137.941 36.1403 140.018C36.1403 140.018 35.4307 138.888 35.116 138.415C37.6413 136.611 37.3416 134.147 37.3416 130.781H45.0572ZM81.8835 133.622H70.4173V138.493H81.8835V133.622ZM108.97 127.264H94.4749C95.3045 128.824 97.3607 131.836 101.791 134.454C106.201 131.794 108.195 128.763 108.97 127.264ZM129.806 127.139L133.889 133.004L131.757 134.056L127.927 128.144L129.806 127.139ZM53.3891 122.736H50.0525C50.019 122.858 49.7034 123.573 49.6338 123.712C50.049 127.32 50.6643 130.085 51.4646 131.94C52.4559 129.79 53.103 126.697 53.3891 122.736ZM84.2461 127.757V129.489H67.9433V127.757H84.2461ZM46.061 126.85V128.582H36.8957V126.85H46.061ZM84.2461 123.726V125.458H67.9433V123.726H84.2461ZM42.6037 116.67V123.02H44.6746V118.484H46.4795V124.651H36.7021V118.585H38.6185V123.02H40.6872V116.67H42.6037ZM34.5261 116.249L36.2951 117.296C34.9545 119.855 32.8672 122.5 30.4235 124.518L29.3554 122.846C31.2942 121.156 33.1288 118.775 34.5261 116.249ZM76.0833 116.335L77.6741 119.593L85.8074 119.593V121.426H66.4936V119.593L75.4172 119.593L74.2593 117.052L76.0833 116.335Z" fill="#4D4D4D"/>
<path fill-rule="evenodd" clip-rule="evenodd" d="M70.9268 76.3693C70.4084 76.6073 69.825 76.7452 69.2046 76.7452C67.7688 76.7452 66.5214 76.0261 65.8651 74.9612L65.6145 74.4612L55.161 53.5707C55.0483 53.343 54.9784 53.0863 54.9784 52.836C54.9784 51.8736 55.8354 51.0931 56.8925 51.0931C57.3218 51.0931 57.7182 51.2231 58.0372 51.4391L70.3732 59.4379C71.2743 59.9748 72.351 60.2899 73.5092 60.2899C74.1998 60.2899 74.8586 60.1721 75.472 59.9692L133.483 36.4552C123.085 25.294 105.959 18 86.5796 18C54.8672 18 29.1611 37.51 29.1611 61.5785C29.1611 74.7087 36.8953 86.5285 49.0005 94.5175C49.9718 95.149 50.6076 96.1865 50.6076 97.3574C50.6076 97.7444 50.5169 98.0983 50.4057 98.4674C49.4387 101.752 47.8917 107.012 47.8191 107.258C47.6987 107.671 47.5102 108.101 47.5102 108.532C47.5102 109.495 48.3669 110.275 49.4255 110.275C49.8398 110.275 50.1799 110.135 50.5301 109.951L63.1005 103.341C64.0463 102.845 65.047 102.536 66.1504 102.536C66.7371 102.536 67.304 102.619 67.8371 102.768C73.7019 104.303 80.0285 105.157 86.5796 105.157C118.291 105.157 144 85.6456 144 61.5785C144 54.2884 141.628 47.4234 137.46 41.384L71.3457 76.1488L70.9268 76.3693Z" fill="#1AAD19"/>
</svg>
