<svg width="180" height="180" viewBox="0 0 180 180" fill="none" xmlns="http://www.w3.org/2000/svg">
<rect width="180" height="180" rx="15" fill="#1AAD19"/>
<path fill-rule="evenodd" clip-rule="evenodd" d="M72.098 105.744C71.4886 106.041 70.8028 106.213 70.0734 106.213C68.3855 106.213 66.9192 105.316 66.1477 103.989L65.853 103.366L53.5644 77.3309C53.4318 77.0471 53.3497 76.7272 53.3497 76.4153C53.3497 75.2158 54.3572 74.2431 55.5998 74.2431C56.1044 74.2431 56.5705 74.4052 56.9455 74.6743L71.4471 84.6431C72.5065 85.3122 73.7722 85.7048 75.1337 85.7048C75.9456 85.7048 76.72 85.5581 77.4411 85.3052L145.636 56.0003C133.413 42.0903 113.281 33 90.4987 33C53.219 33 23 57.3148 23 87.3108C23 103.675 32.0919 118.405 46.3224 128.362C47.4642 129.149 48.2116 130.442 48.2116 131.901C48.2116 132.384 48.105 132.824 47.9742 133.285C46.8374 137.378 45.0188 143.934 44.9335 144.24C44.7919 144.755 44.5704 145.291 44.5704 145.828C44.5704 147.028 45.5775 148 46.822 148C47.3089 148 47.7087 147.825 48.1204 147.596L62.8977 139.359C64.0096 138.74 65.1859 138.355 66.483 138.355C67.1728 138.355 67.8391 138.458 68.4658 138.644C75.3603 140.558 82.7975 141.622 90.4987 141.622C127.777 141.622 158 117.305 158 87.3108C158 78.2254 155.212 69.6696 150.311 62.1429L72.5904 105.469L72.098 105.744Z" fill="white"/>
</svg>
