<svg width="375" height="100" viewBox="0 0 375 100" fill="none" xmlns="http://www.w3.org/2000/svg">
<path fill-rule="evenodd" clip-rule="evenodd" d="M358.357 71.7344L363.037 83.1572C363.522 84.4355 364.052 85.9529 364.405 87.1115H364.494C364.891 85.9529 365.332 84.4754 365.862 83.0768L370.1 71.7344H374.205L368.378 85.5133C365.597 92.1438 363.699 95.5386 361.051 97.6152C359.588 98.785 358.125 99.4094 357.087 99.7073C356.768 99.1905 355.312 96.9363 355.312 96.9363C356.283 96.6572 357.563 96.0978 358.711 95.2196C359.77 94.4599 361.094 93.1021 361.977 91.3046C362.154 90.9457 362.286 90.6656 362.286 90.4661C362.286 90.2668 362.198 89.9865 362.021 89.548L354.12 71.7344H358.357ZM268.89 71.2946C275.423 71.2946 277.013 75.3284 277.013 79.2029V86.4325C277.013 88.1093 277.101 89.7475 277.366 91.0653H273.834L273.525 88.6285H273.392C272.2 90.1469 269.905 91.5047 266.859 91.5047C262.533 91.5047 260.325 88.7483 260.325 85.9529C260.325 81.2804 264.916 78.7241 273.172 78.7638V78.364C273.172 76.767 272.686 73.8908 268.316 73.8908C266.518 73.8908 264.649 74.3486 263.197 75.0865C262.835 74.5234 261.871 73.0126 261.871 73.0126C263.636 71.9735 266.197 71.2946 268.89 71.2946ZM341.586 71.2946C348.119 71.2946 349.708 75.3284 349.708 79.2029V86.4325C349.708 88.1093 349.796 89.7475 350.061 91.0653H346.53L346.221 88.6285H346.088C344.896 90.1469 342.601 91.5047 339.555 91.5047C335.229 91.5047 333.021 88.7483 333.021 85.9529C333.021 81.2804 337.612 78.7241 345.868 78.7638V78.364C345.868 76.767 345.382 73.8908 341.011 73.8908C339.214 73.8908 337.344 74.3486 335.893 75.0865C335.531 74.5234 334.567 73.0126 334.567 73.0126C336.332 71.9735 338.892 71.2946 341.586 71.2946ZM223.164 63.706C226.872 63.706 229.212 64.4248 230.227 64.9044C230.227 64.9044 229.054 66.7503 228.573 67.4534C227.185 66.9635 225.382 66.6221 223.296 66.6221C216.321 66.6221 211.686 70.6556 211.686 77.7252C211.686 84.315 215.88 88.549 223.12 88.549C225.095 88.549 227.103 88.2354 228.61 87.7291C228.96 88.2813 230.183 90.1868 230.183 90.1868C228.77 90.8258 225.945 91.4651 222.325 91.4651C213.937 91.4651 207.625 86.6716 207.625 77.8447C207.625 69.4175 213.937 63.706 223.164 63.706ZM194.298 71.2947C201.272 71.2947 203.126 76.8466 203.126 80.4007C203.126 81.1196 203.038 81.679 202.994 82.0389H187.984C188.073 86.7915 191.428 88.7484 195.313 88.7484C197.604 88.7484 199.146 88.4505 200.433 88.0332C200.79 88.5651 201.89 90.2667 201.89 90.2667C200.522 90.8259 198.182 91.4649 194.783 91.4649C188.205 91.4649 184.277 87.5511 184.277 81.7189C184.277 75.8876 188.073 71.2947 194.298 71.2947ZM289.105 66.1824V71.7343H294.667V74.4103H289.105V84.8345C289.105 87.2311 289.855 88.5889 292.018 88.5889C292.336 88.5889 292.628 88.5771 292.894 88.5572C293.35 89.2515 294.446 90.9858 294.446 90.9858C293.695 91.2646 292.504 91.4648 291.003 91.4648C289.193 91.4648 287.736 90.9459 286.809 89.9866C285.706 88.9488 285.309 87.2311 285.309 84.954V74.4103H281.997V71.7343H285.309V66.1824H289.105ZM318.544 63.9462C322.341 63.9462 325.122 64.7448 326.888 66.1824C328.522 67.4604 329.492 69.4176 329.492 71.8142C329.492 74.2509 328.698 76.1676 327.197 77.5656C325.166 79.5225 321.856 80.5207 318.103 80.5207C316.955 80.5207 315.896 80.4805 315.013 80.2812V91.0653H311.172V64.4648C313.027 64.1854 315.455 63.9462 318.544 63.9462ZM150.113 64.1455L153.645 77.7652C154.528 81.1195 155.322 84.4753 155.853 87.0715H155.94C156.426 84.3955 157.353 81.2006 158.369 77.7253L162.341 64.1455H166.358L169.979 77.8049C170.817 81.0001 171.612 84.1953 172.053 87.0316H172.142C172.759 84.0759 173.599 81.0796 174.526 77.7253L178.455 64.1455H182.383L173.952 91.0654H169.934L166.182 77.0464C165.255 73.6117 164.637 70.9756 164.24 68.2591H164.151C163.622 70.936 162.959 73.5718 161.856 77.0464L157.618 91.0654H153.601L146.052 64.1455H150.113ZM240.067 62.708V74.7701H240.156C240.774 73.7712 241.745 72.893 242.937 72.2937C244.085 71.6946 245.453 71.2948 246.91 71.2948C249.779 71.2948 254.371 72.893 254.371 79.5623V91.0652H250.486V79.9624C250.486 76.8467 249.206 74.2106 245.542 74.2106C243.025 74.2106 241.038 75.8079 240.332 77.7252C240.112 78.2045 240.067 78.724 240.067 79.4029V91.0652H236.183V62.708H240.067ZM264.21 85.5534C264.21 87.8302 265.887 88.9089 267.874 88.9089C270.655 88.9089 272.421 87.3107 273.039 85.6737C273.172 85.3139 273.26 84.9141 273.26 84.5551V81.2005C269.022 81.1195 264.21 81.7987 264.21 85.5534ZM336.906 85.5534C336.906 87.8302 338.583 88.9089 340.57 88.9089C343.351 88.9089 345.117 87.3107 345.735 85.6737C345.868 85.3139 345.956 84.9141 345.956 84.5551V81.2005C341.718 81.1195 336.906 81.7987 336.906 85.5534ZM193.988 73.811C190.059 73.811 188.338 77.0861 188.028 79.5226H199.374C199.418 77.2857 198.359 73.811 193.988 73.811ZM318.633 66.702C316.955 66.702 315.675 66.8214 315.013 66.9811V77.4459C315.852 77.6451 316.912 77.7253 318.191 77.7253C322.827 77.7253 325.652 75.6883 325.652 71.9735C325.652 68.4193 322.871 66.702 318.633 66.702ZM292.492 6.0128V13.0858H315.611V16.7603H292.492V24.4396H311.153C311.153 24.4396 308.757 35.4729 294.771 44.7625C300.429 47.4588 307.883 49.3685 316.971 50.6555C316.971 50.6555 315.497 53.0203 314.242 54.8493C304.302 53.2862 296.533 50.5451 290.447 47.3339C284.316 50.6262 276.383 53.4933 266.128 55.1081C265.413 54.155 263.469 51.0335 263.469 51.0335C272.764 49.7178 280.421 47.5891 286.137 44.8124C272.081 35.6919 269.376 24.4396 269.376 24.4396H287.983V16.7603H263.971V13.0858H287.983V6.0128H292.492ZM155.534 19.5275L159.139 21.2594C157.428 24.9427 155.831 27.4487 155.395 28.2356V54.9544H151.333V34.0058C149.01 36.8276 147.645 38.3048 146.966 39.0016C146.488 38.2519 144.678 35.4156 144.678 35.4156C149.039 31.2491 152.882 25.5263 155.534 19.5275ZM334.204 6.15995L338.939 7.11192L338.792 7.46029C336.874 11.9955 335.079 15.8563 333.455 18.9363V54.9544H328.947V26.6918C327.397 28.9844 325.593 31.3277 323.569 33.6828L321.071 29.7425C326.382 23.2051 330.851 15.259 334.103 6.43483L334.204 6.15995ZM215.638 6.15027L219.907 7.11555C219.907 7.11555 217.189 14.8647 215.11 18.9408L215.12 54.9544H210.612V26.837C208.806 29.9164 207.596 31.9392 206.064 33.7509L203.624 29.927C209.947 22.7034 215.638 6.15027 215.638 6.15027ZM186.931 5.95703L190.992 6.69279L190.897 7.02241C190.06 9.92611 189.134 12.779 188.141 15.5106H200.29V18.9835H197.363C196.606 28.8465 194.677 36.4858 191.628 41.6966C194.046 45.9563 198.712 49.9514 200.027 51.0304C199.732 51.5366 197.702 54.6841 197.702 54.6841C197.702 54.6841 190.95 48.427 189.421 45.4005C187.704 48.0109 184.534 51.3954 180.237 54.8652L178.051 51.4123C178.051 51.4123 183.928 46.9993 187.257 41.6751C185.185 36.8881 183.811 31.7502 183.166 26.3834C182.455 27.518 182.065 28.127 181.351 29.0975C181.351 29.0975 179.454 26.1154 179.069 25.5578C182.478 20.132 185.035 13.7395 186.855 6.26549L186.931 5.95703ZM367.175 6.37357V17.9356L375 17.9358V21.8126L367.175 21.8125V46.9879C367.175 50.9951 363.572 54.256 359.142 54.256H353.889V50.0102H359.142C360.984 50.0102 362.484 48.6542 362.484 46.9879V21.8125L337.434 21.8126V17.9358L362.484 17.9356V6.37357H367.175ZM254.878 37.1338V54.0467H223.12V37.1338H254.878ZM176.837 35.113V44.4522C177.595 43.8706 179.922 42.0196 180.703 41.3903L182.573 44.3206L174.002 50.8665C174.002 50.8665 172.189 48.0342 171.823 47.498C172.328 46.9918 173 45.9424 173 43.9441L172.999 38.5855H165.223C165.223 46.5742 164.868 49.467 158.978 53.6323C158.978 53.6323 157.557 51.3652 156.927 50.4171C161.985 46.801 161.384 41.8605 161.384 35.113H176.837ZM250.593 40.8083H227.628V50.5739H250.593V40.8083ZM304.841 28.0606H275.811C277.473 31.1881 281.591 37.2275 290.464 42.4769C299.296 37.1431 303.289 31.0659 304.841 28.0606ZM346.572 27.8097L354.749 39.5697L350.479 41.6783L342.808 29.8246L346.572 27.8097ZM193.524 18.9835H186.842C186.775 19.2278 186.143 20.6621 186.003 20.9404C186.835 28.1736 188.067 33.717 189.67 37.4369C191.655 33.1255 192.951 26.925 193.524 18.9835ZM255.325 29.0504V32.523H222.674V29.0504H255.325ZM178.848 27.2315V30.704H160.491V27.2315H178.848ZM255.325 20.9671V24.4396H222.674V20.9671H255.325ZM171.923 6.82119V19.5525H176.071V10.4585H179.686V22.823H160.104V10.6608H163.942V19.5525H168.085V6.82119H171.923ZM155.745 5.97678L159.288 8.07639C156.603 13.2073 152.423 18.5091 147.529 22.5562L145.39 19.204C149.273 15.8147 152.947 11.0412 155.745 5.97678ZM238.976 6.15033L242.162 12.6816L258.452 12.6818V16.3563H219.77V12.6818L237.642 12.6816L235.323 7.58736L238.976 6.15033Z" fill="#4D4D4D"/>
<path fill-rule="evenodd" clip-rule="evenodd" d="M45.5607 63.2558C44.9952 63.5138 44.3588 63.6632 43.6819 63.6632C42.1157 63.6632 40.755 62.8839 40.0391 61.7299L39.7656 61.188L28.3623 38.5486C28.2393 38.3019 28.1631 38.0237 28.1631 37.7524C28.1631 36.7094 29.098 35.8636 30.2511 35.8636C30.7194 35.8636 31.1519 36.0045 31.4999 36.2386L44.9567 44.907C45.9397 45.4889 47.1143 45.8303 48.3777 45.8303C49.1311 45.8303 49.8497 45.7027 50.5188 45.4828L113.801 20.0002C102.458 7.9046 83.7765 0 62.6357 0C28.0418 0 0 21.1433 0 47.2268C0 61.4562 8.43691 74.2655 21.6421 82.9234C22.7016 83.6078 23.3952 84.7321 23.3952 86.001C23.3952 86.4204 23.2963 86.8039 23.1749 87.204C22.1201 90.7636 20.4325 96.464 20.3533 96.7307C20.2219 97.1779 20.0163 97.644 20.0163 98.1115C20.0163 99.1548 20.9509 100 22.1057 100C22.5576 100 22.9286 99.8479 23.3106 99.6486L37.0232 92.4858C38.055 91.9475 39.1466 91.6134 40.3502 91.6134C40.9903 91.6134 41.6086 91.7029 42.1902 91.8641C48.5879 93.5285 55.4893 94.4536 62.6357 94.4536C97.2283 94.4536 125.274 73.3087 125.274 47.2268C125.274 39.3264 122.686 31.8866 118.139 25.3416L46.0176 63.0169L45.5607 63.2558Z" fill="#1AAD19"/>
</svg>
