<svg width="180" height="181" viewBox="0 0 180 181" fill="none" xmlns="http://www.w3.org/2000/svg">
<rect y="0.0581055" width="180" height="180" rx="15" fill="#E5155F"/>
<path d="M90.0008 35.0581C59.6263 35.0581 35 59.6819 35 90.0562V145.058H90.0008C120.376 145.058 145 120.431 145 90.0562C145 59.6819 120.376 35.0581 90.0008 35.0581Z" fill="white"/>
<path d="M90.0011 103.648H76.41V90.0567C76.41 82.5519 82.4939 76.4642 90.0011 76.4642C97.506 76.4642 103.591 82.5519 103.591 90.0567C103.591 97.5631 97.506 103.648 90.0011 103.648ZM90.0011 59.6312C73.1971 59.6312 59.5762 73.2528 59.5762 90.0567V120.481H90.0011C106.806 120.481 120.427 106.86 120.427 90.0567C120.427 73.2528 106.806 59.6312 90.0011 59.6312Z" fill="#E5155F"/>
</svg>
