<svg width="300" height="270" viewBox="0 0 300 270" fill="none" xmlns="http://www.w3.org/2000/svg">
<path d="M150.404 1.52588e-05C96.7831 1.52588e-05 53.3096 43.0983 53.3096 96.2613V192.529H150.404C204.026 192.529 247.496 149.426 247.496 96.2613C247.496 43.0983 204.026 1.52588e-05 150.404 1.52588e-05Z" fill="#E5155F"/>
<path d="M18.0739 260.533C21.5248 260.533 24.5774 259.832 27.152 258.457C29.7253 257.079 31.6573 255.224 33.0655 252.781C34.4615 250.354 35.173 247.49 35.173 244.268C35.173 241.039 34.4615 238.179 33.0655 235.746C31.6573 233.306 29.7253 231.455 27.152 230.075C24.5774 228.696 21.5248 227.993 18.0739 227.993H9.9584V260.533H18.0739ZM4.9441 269.993C3.58724 269.993 2.37619 269.5 1.43246 268.57C0.494139 267.641 0 266.439 0 265.095V223.505C0 222.173 0.488739 220.966 1.40816 220.017C2.35054 219.046 3.57239 218.538 4.9441 218.538H18.8327C24.4127 218.538 29.2433 219.793 33.1897 222.28C37.1212 224.755 40.1185 228.004 42.1031 231.945C44.0662 235.837 45.0626 239.982 45.0626 244.268C45.0626 248.553 44.0662 252.697 42.1031 256.588C40.1185 260.522 37.1212 263.776 33.1897 266.25C29.2433 268.733 24.4127 269.993 18.8327 269.993H4.9441Z" fill="#11100E"/>
<path d="M100.784 227.561C99.3384 227.561 98.0315 227.019 97.0014 225.994C95.9739 224.976 95.4258 223.678 95.4258 222.246V221.971C95.4258 220.538 95.9739 219.238 97.0014 218.219C98.0315 217.198 99.3438 216.658 100.784 216.658H101.2C102.646 216.658 103.957 217.198 104.985 218.219C106.016 219.238 106.557 220.538 106.557 221.971V222.246C106.557 223.678 106.016 224.976 104.985 225.994C103.957 227.019 102.646 227.561 101.2 227.561H100.784ZM100.925 269.993C99.5679 269.993 98.3582 269.5 97.4145 268.57C96.4775 267.639 95.982 266.439 95.982 265.095V235.701C95.982 234.368 96.4681 233.163 97.3915 232.21C98.3299 231.243 99.5558 230.729 100.925 230.729C102.328 230.729 103.562 231.218 104.503 232.154C105.442 233.088 105.936 234.311 105.936 235.701V265.095C105.936 266.448 105.423 267.662 104.442 268.591C103.482 269.509 102.264 269.993 100.925 269.993Z" fill="#11100E"/>
<path d="M82.2113 230.386C80.8666 230.386 79.6515 230.873 78.6902 231.789C77.7141 232.72 77.1956 233.929 77.1956 235.289V235.594C77.1956 235.63 77.1875 235.661 77.1875 235.701V253.957C77.1875 258.536 73.1993 260.603 69.4757 260.603C65.4308 260.603 61.9299 258.643 61.9299 254.06V235.289C61.9299 233.947 61.4344 232.742 60.4975 231.812C59.5537 230.877 58.3427 230.386 56.9845 230.386C55.6425 230.386 54.426 230.873 53.4688 231.789C52.4886 232.72 51.9756 233.929 51.9756 235.289V254.748C51.9756 257.475 52.5318 260.022 53.6389 262.311C54.7744 264.666 56.439 266.556 58.5884 267.925C60.7486 269.297 63.3016 269.993 66.1774 269.993C69.2502 269.993 71.9261 269.555 73.8581 267.764C75.3892 266.352 76.2006 264.595 76.6434 264.569C77.0781 264.555 77.1578 264.84 77.1875 265.095C77.3131 266.584 77.6816 267.64 78.624 268.569C79.561 269.501 80.7734 269.993 82.1289 269.993C83.4736 269.993 84.6887 269.51 85.6446 268.592C86.6275 267.663 87.1459 266.447 87.1459 265.095V253.373C87.1459 253.359 87.154 253.339 87.154 253.332V235.289C87.154 233.947 86.6599 232.742 85.7161 231.807C84.7805 230.877 83.5627 230.386 82.2113 230.386Z" fill="#11100E"/>
<path d="M183.363 269.993C182.326 269.993 181.336 269.746 180.422 269.261C179.547 268.798 178.81 268.177 178.236 267.414L178.195 267.358L154.796 235.047V265.095C154.796 266.449 154.279 267.663 153.299 268.592C152.341 269.51 151.125 269.993 149.782 269.993C148.426 269.993 147.215 269.501 146.274 268.57C145.333 267.64 144.839 266.439 144.839 265.095V225.389C144.839 223.668 145.457 222.167 146.672 220.93C147.882 219.701 149.439 219.045 151.163 219.045H152.065C153.482 219.045 155.551 219.529 157.319 221.814L157.346 221.85L180.634 252.798V224.018C180.634 222.682 181.12 221.475 182.042 220.529C182.982 219.559 184.207 219.045 185.578 219.045C186.931 219.045 188.157 219.55 189.12 220.503C190.08 221.458 190.59 222.672 190.59 224.018V263.719C190.59 265.434 189.934 266.976 188.689 268.177C187.44 269.383 185.927 269.993 184.193 269.993H183.363Z" fill="#E5155F"/>
<path d="M283.287 269.993C281.892 269.993 280.619 269.592 279.501 268.809C278.426 268.047 277.645 267.055 277.179 265.854L277.149 265.783L271.275 248.513L265.38 265.821L265.37 265.86C264.9 267.055 264.114 268.047 263.039 268.809C261.923 269.592 260.648 269.993 259.259 269.993C257.864 269.993 256.592 269.592 255.475 268.809C254.385 268.037 253.615 267.052 253.202 265.874L242.867 237.383C242.65 236.775 242.541 236.193 242.541 235.63C242.541 234.289 243.064 233.083 244.054 232.153C245.044 231.219 246.322 230.73 247.755 230.73C248.809 230.73 249.789 230.999 250.667 231.537C251.594 232.111 252.237 232.878 252.57 233.823L259.274 254.561L265.857 234.481C266.224 233.372 266.913 232.462 267.898 231.771C268.893 231.081 270.03 230.73 271.275 230.73C272.517 230.73 273.651 231.081 274.643 231.771C275.633 232.462 276.315 233.368 276.683 234.473L283.272 254.561L289.968 233.827C290.303 232.878 290.946 232.111 291.879 231.537C292.75 231.004 293.73 230.73 294.791 230.73C296.219 230.73 297.497 231.219 298.486 232.153C299.475 233.089 300 234.289 300 235.63C300 236.193 299.896 236.775 299.684 237.368L289.338 265.886C288.929 267.047 288.159 268.037 287.066 268.809C285.949 269.592 284.681 269.993 283.287 269.993Z" fill="#E5155F"/>
<path d="M128.78 269.993C121.094 269.993 116.857 266.134 116.857 259.131L116.86 239.709H116.452C115.174 239.709 114.044 239.242 113.195 238.359C112.36 237.5 111.923 236.414 111.923 235.218C111.923 233.967 112.37 232.86 113.219 232.018C114.071 231.173 115.189 230.73 116.452 230.73H116.86V225.658C116.86 224.262 117.38 223.033 118.356 222.108C119.308 221.201 120.514 220.723 121.838 220.723C123.229 220.723 124.453 221.21 125.387 222.132C126.32 223.059 126.815 224.282 126.815 225.658V230.73H132.793C134.054 230.73 135.17 231.173 136.021 232.015C136.873 232.86 137.321 233.967 137.321 235.224C137.321 236.414 136.878 237.5 136.055 238.364C135.201 239.246 134.069 239.715 132.793 239.715H126.815V258.583C126.815 260.07 127.777 261.584 128.956 261.655C130.356 261.737 134.273 261.513 135.385 262.106C136.298 262.596 137.271 263.822 137.278 265.149C137.298 266.874 136.365 268.297 134.706 269.159L134.667 269.177L134.626 269.195C132.594 270.128 131.067 269.993 128.78 269.993Z" fill="#11100E"/>
<path d="M150.404 120.051H126.412V96.2618C126.412 83.1263 137.152 72.4712 150.404 72.4712C163.653 72.4712 174.396 83.1263 174.396 96.2618C174.396 109.4 163.653 120.051 150.404 120.051ZM150.404 43.0091C120.74 43.0091 96.6943 66.8505 96.6943 96.2618V149.513H150.404C180.07 149.513 204.116 125.672 204.116 96.2618C204.116 66.8505 180.07 43.0091 150.404 43.0091Z" fill="white"/>
<path d="M218.881 260.615C212.815 260.615 207.895 255.737 207.895 249.722C207.895 243.709 212.815 238.834 218.881 238.834C224.949 238.834 229.868 243.709 229.868 249.722C229.868 255.737 224.949 260.615 218.881 260.615ZM218.881 229.476C207.602 229.476 198.459 238.54 198.459 249.722C198.459 260.907 207.602 269.972 218.881 269.972C230.16 269.972 239.304 260.907 239.304 249.722C239.304 238.54 230.16 229.476 218.881 229.476Z" fill="#E5155F"/>
</svg>
