<svg width="180" height="181" viewBox="0 0 180 181" fill="none" xmlns="http://www.w3.org/2000/svg">
<rect y="0.0581055" width="180" height="180" rx="15" fill="white"/>
<path d="M89.6817 32.0583C65.5523 32.0583 45.9893 50.415 45.9893 73.0585V114.062H89.6817C113.812 114.062 133.373 95.7026 133.373 73.0585C133.373 50.415 113.812 32.0583 89.6817 32.0583Z" fill="#E5155F"/>
<path d="M30.1333 143.026C31.6861 143.026 33.0598 142.727 34.2184 142.141C35.3764 141.555 36.2458 140.764 36.8795 139.724C37.5077 138.69 37.8279 137.47 37.8279 136.098C37.8279 134.723 37.5077 133.504 36.8795 132.468C36.2458 131.429 35.3764 130.64 34.2184 130.053C33.0598 129.465 31.6861 129.166 30.1333 129.166H26.4813V143.026H30.1333ZM24.2248 147.055C23.6143 147.055 23.0693 146.845 22.6446 146.449C22.2224 146.053 22 145.541 22 144.969V127.254C22 126.687 22.2199 126.173 22.6337 125.769C23.0577 125.355 23.6076 125.139 24.2248 125.139H30.4747C32.9857 125.139 35.1595 125.673 36.9354 126.733C38.7045 127.787 40.0533 129.171 40.9464 130.849C41.8298 132.507 42.2782 134.272 42.2782 136.098C42.2782 137.923 41.8298 139.688 40.9464 141.345C40.0533 143.021 38.7045 144.407 36.9354 145.461C35.1595 146.518 32.9857 147.055 30.4747 147.055H24.2248Z" fill="#11100E"/>
<path d="M67.3528 128.982C66.7021 128.982 66.114 128.751 65.6504 128.314C65.1881 127.881 64.9414 127.328 64.9414 126.718V126.601C64.9414 125.99 65.1881 125.437 65.6504 125.003C66.114 124.568 66.7045 124.338 67.3528 124.338H67.5399C68.1906 124.338 68.7805 124.568 69.2429 125.003C69.707 125.437 69.9506 125.99 69.9506 126.601V126.718C69.9506 127.328 69.707 127.881 69.2429 128.314C68.7805 128.751 68.1906 128.982 67.5399 128.982H67.3528ZM67.416 147.055C66.8054 147.055 66.261 146.845 65.8363 146.449C65.4147 146.052 65.1917 145.541 65.1917 144.969V132.449C65.1917 131.881 65.4104 131.368 65.826 130.962C66.2482 130.55 66.7999 130.331 67.416 130.331C68.0472 130.331 68.6025 130.54 69.026 130.938C69.4488 131.336 69.6712 131.857 69.6712 132.449V144.969C69.6712 145.545 69.4403 146.062 68.9986 146.458C68.5667 146.849 68.0186 147.055 67.416 147.055Z" fill="#11100E"/>
<path d="M58.9947 130.185C58.3896 130.185 57.8428 130.393 57.4102 130.783C56.971 131.18 56.7377 131.695 56.7377 132.274V132.404C56.7377 132.419 56.734 132.432 56.734 132.449V140.225C56.734 142.175 54.9393 143.056 53.2637 143.056C51.4435 143.056 49.8681 142.221 49.8681 140.269V132.274C49.8681 131.702 49.6452 131.189 49.2235 130.793C48.7988 130.395 48.2539 130.185 47.6427 130.185C47.0388 130.185 46.4914 130.393 46.0606 130.783C45.6195 131.18 45.3887 131.695 45.3887 132.274V140.562C45.3887 141.723 45.639 142.808 46.1372 143.783C46.6481 144.786 47.3972 145.591 48.3644 146.174C49.3365 146.759 50.4854 147.055 51.7795 147.055C53.1623 147.055 54.3664 146.869 55.2358 146.106C55.9248 145.504 56.2899 144.756 56.4892 144.745C56.6848 144.739 56.7207 144.86 56.734 144.969C56.7905 145.603 56.9564 146.053 57.3805 146.449C57.8021 146.845 58.3477 147.055 58.9577 147.055C59.5628 147.055 60.1096 146.849 60.5397 146.458C60.982 146.063 61.2153 145.545 61.2153 144.969V139.976C61.2153 139.97 61.219 139.962 61.219 139.959V132.274C61.219 131.702 60.9966 131.189 60.5719 130.791C60.1509 130.395 59.6029 130.185 58.9947 130.185Z" fill="#11100E"/>
<path d="M104.514 147.055C104.047 147.055 103.602 146.95 103.19 146.743C102.797 146.546 102.465 146.282 102.207 145.957L102.188 145.933L91.6584 132.171V144.969C91.6584 145.545 91.4257 146.063 90.9846 146.458C90.5539 146.849 90.0065 147.055 89.402 147.055C88.792 147.055 88.247 146.845 87.8236 146.449C87.4001 146.053 87.1777 145.541 87.1777 144.969V128.057C87.1777 127.324 87.456 126.685 88.0028 126.158C88.5471 125.635 89.2477 125.355 90.0235 125.355H90.4293C91.0673 125.355 91.998 125.561 92.7939 126.534L92.8061 126.55L103.286 139.731V127.473C103.286 126.904 103.504 126.39 103.919 125.987C104.342 125.574 104.893 125.355 105.511 125.355C106.119 125.355 106.671 125.57 107.104 125.976C107.536 126.383 107.766 126.9 107.766 127.473V144.383C107.766 145.113 107.47 145.77 106.91 146.282C106.348 146.795 105.667 147.055 104.887 147.055H104.514Z" fill="#E5155F"/>
<path d="M149.479 147.055C148.851 147.055 148.278 146.884 147.775 146.551C147.292 146.226 146.94 145.804 146.73 145.292L146.717 145.262L144.074 137.906L141.421 145.278L141.416 145.295C141.205 145.804 140.851 146.226 140.367 146.551C139.865 146.884 139.292 147.055 138.666 147.055C138.039 147.055 137.466 146.884 136.963 146.551C136.473 146.222 136.127 145.803 135.941 145.301L131.29 133.166C131.192 132.907 131.143 132.659 131.143 132.419C131.143 131.848 131.379 131.334 131.824 130.938C132.269 130.54 132.845 130.332 133.489 130.332C133.964 130.332 134.405 130.447 134.8 130.676C135.217 130.92 135.506 131.247 135.657 131.65L138.673 140.482L141.635 131.929C141.801 131.457 142.111 131.07 142.554 130.776C143.002 130.481 143.513 130.332 144.074 130.332C144.632 130.332 145.143 130.481 145.589 130.776C146.035 131.07 146.342 131.456 146.507 131.926L149.472 140.482L152.486 131.651C152.636 131.247 152.926 130.92 153.345 130.676C153.737 130.449 154.178 130.332 154.656 130.332C155.299 130.332 155.873 130.54 156.319 130.938C156.763 131.337 157 131.848 157 132.419C157 132.659 156.953 132.907 156.858 133.159L152.202 145.306C152.018 145.8 151.672 146.222 151.179 146.551C150.677 146.884 150.106 147.055 149.479 147.055Z" fill="#E5155F"/>
<path d="M79.9511 147.055C76.4923 147.055 74.5858 145.411 74.5858 142.429L74.587 134.156H74.4036C73.8282 134.156 73.3197 133.957 72.9375 133.581C72.5621 133.216 72.3652 132.753 72.3652 132.244C72.3652 131.711 72.5663 131.239 72.9485 130.88C73.3318 130.521 73.8349 130.332 74.4036 130.332H74.587V128.172C74.587 127.577 74.8209 127.054 75.2602 126.66C75.6885 126.273 76.2311 126.07 76.8271 126.07C77.4528 126.07 78.0039 126.277 78.4243 126.67C78.8441 127.065 79.0665 127.586 79.0665 128.172V130.332H81.7567C82.3242 130.332 82.8266 130.521 83.2094 130.879C83.5927 131.239 83.7944 131.711 83.7944 132.246C83.7944 132.753 83.5952 133.216 83.2246 133.583C82.8406 133.959 82.3309 134.159 81.7567 134.159H79.0665V142.195C79.0665 142.829 79.4997 143.474 80.0301 143.504C80.6601 143.539 82.4226 143.443 82.9232 143.696C83.3339 143.905 83.772 144.427 83.775 144.992C83.7841 145.727 83.3643 146.333 82.6176 146.7L82.6 146.707L82.5818 146.715C81.6674 147.113 80.9803 147.055 79.9511 147.055Z" fill="#11100E"/>
<path d="M89.6817 83.1911H78.885V73.0586C78.885 67.4639 83.718 62.9256 89.6817 62.9256C95.6436 62.9256 100.478 67.4639 100.478 73.0586C100.478 78.6545 95.6436 83.1911 89.6817 83.1911ZM89.6817 50.3769C76.3327 50.3769 65.5122 60.5316 65.5122 73.0586V95.7397H89.6817C103.031 95.7397 113.852 85.5851 113.852 73.0586C113.852 60.5316 103.031 50.3769 89.6817 50.3769Z" fill="white"/>
<path d="M120.496 143.061C117.767 143.061 115.553 140.983 115.553 138.421C115.553 135.86 117.767 133.783 120.496 133.783C123.227 133.783 125.441 135.86 125.441 138.421C125.441 140.983 123.227 143.061 120.496 143.061ZM120.496 129.798C115.421 129.798 111.307 133.659 111.307 138.421C111.307 143.185 115.421 147.046 120.496 147.046C125.572 147.046 129.687 143.185 129.687 138.421C129.687 133.659 125.572 129.798 120.496 129.798Z" fill="#E5155F"/>
</svg>
