<svg width="180" height="181" viewBox="0 0 180 181" fill="none" xmlns="http://www.w3.org/2000/svg">
<rect y="0.0581055" width="180" height="180" rx="15" fill="white"/>
<path d="M90.0008 30.0581C56.865 30.0581 30 56.9205 30 90.056V150.058H90.0008C123.137 150.058 150 123.192 150 90.056C150 56.9205 123.137 30.0581 90.0008 30.0581Z" fill="#E5155F"/>
<path d="M90.0009 104.884H75.1742V90.0564C75.1742 81.8693 81.8112 75.2282 90.0009 75.2282C98.1881 75.2282 104.827 81.8693 104.827 90.0564C104.827 98.2452 98.1881 104.884 90.0009 104.884ZM90.0009 56.865C71.6693 56.865 56.8101 71.7249 56.8101 90.0564V123.247H90.0009C108.333 123.247 123.193 108.387 123.193 90.0564C123.193 71.7249 108.333 56.865 90.0009 56.865Z" fill="white"/>
</svg>
