<svg width="180" height="180" viewBox="0 0 180 180" fill="none" xmlns="http://www.w3.org/2000/svg">
<circle cx="90" cy="90" r="90" fill="#FE4745"/>
<path d="M73.2214 68.2078C75.6473 69.0012 77.42 69.1775 78.5397 68.5604C81.1522 67.2381 83.858 67.6789 84.9776 69.442C85.5374 70.4117 85.9107 77.1996 85.9107 85.1336C85.9107 101.002 85.3508 102.853 80.6857 101.795C76.9535 100.913 75.8339 101.002 70.9821 102.148C59.5058 104.88 48.3093 96.4175 48.3093 84.9573C48.3093 72.6156 60.9986 64.0645 73.2214 68.2078ZM112.316 67.8552C122.859 70.588 128.83 82.5771 124.258 92.0097C120.713 99.5029 112.595 103.646 103.732 102.5L99.1597 101.971L95.8008 106.908C93.9348 109.641 91.8821 111.845 91.0423 111.845C88.3365 111.845 87.7767 108.407 87.7767 89.9822C87.7767 73.0563 87.9633 71.2932 89.5495 69.442C91.1357 67.5025 91.6022 67.4144 94.2147 68.3841C96.4539 69.0893 97.9468 69.0893 101.026 68.2078C106.064 66.7091 107.837 66.621 112.316 67.8552ZM151.503 67.8552C162.046 70.588 168.018 82.5771 163.446 92.0097C159.9 99.5029 151.783 103.646 142.919 102.5L138.347 101.971L134.988 106.908C128.457 116.605 126.964 113.343 126.964 89.3651C126.964 73.0563 127.151 71.2932 128.737 69.442C130.323 67.5025 130.79 67.4144 133.402 68.3841C135.641 69.0893 137.134 69.0893 140.213 68.2078C145.252 66.7091 147.024 66.621 151.503 67.8552ZM46.9098 69.2657C49.8022 71.734 48.8692 74.7313 42.8977 82.489C37.8594 89.0125 37.2995 90.2466 38.1393 92.0097C38.8857 93.4202 40.4719 94.3018 43.8308 95.0952C48.9625 96.2412 50.8285 98.0925 49.429 100.561C48.5893 101.971 47.0031 102.148 34.0339 102.148C19.9451 102.148 19.4786 102.059 17.3326 99.9437C16.0263 98.7977 15 96.9464 15 95.8004C15 94.6544 17.7058 90.3348 21.0647 86.0152C24.4237 81.7837 27.1295 77.8167 27.1295 77.1115C27.1295 76.4944 25.0768 75.4365 22.371 74.7313C16.8661 73.3208 14.9067 71.3814 16.7728 69.1775C18.6388 67.0618 44.3906 67.1499 46.9098 69.2657Z" fill="white"/>
<path d="M62.7711 80.1087C58.5725 83.8112 61.3716 91.5688 66.8765 91.5688C70.2354 91.5688 71.9149 90.5991 73.4077 87.8663C76.9533 81.3428 68.3693 75.1719 62.7711 80.1087Z" fill="#FE4745"/>
<path d="M101.959 80.3729C95.7078 86.7201 105.131 95.5357 111.569 89.3648C112.876 88.2188 113.902 86.1912 113.902 84.957C113.902 81.8716 109.983 78.3454 106.624 78.3454C105.038 78.3454 103.172 79.1388 101.959 80.3729Z" fill="#FE4745"/>
<path d="M141.52 80.1968C136.575 83.8112 139.84 91.5688 146.278 91.5688C149.264 91.5688 153.09 87.8663 153.09 84.9572C153.09 82.0481 149.264 78.3455 146.278 78.3455C145.065 78.3455 142.919 79.1389 141.52 80.1968Z" fill="#FE4745"/>
</svg>
