<svg width="138" height="44" viewBox="0 0 138 44" fill="none" xmlns="http://www.w3.org/2000/svg">
<path d="M53.248 1.16924C55.4667 1.93724 57.088 2.1079 58.112 1.51057C60.5013 0.230568 62.976 0.657234 64 2.3639C64.512 3.30257 64.8533 9.87324 64.8533 17.5532C64.8533 32.9132 64.3413 34.7052 60.0747 33.6812C56.6613 32.8279 55.6373 32.9132 51.2 34.0226C40.704 36.6679 30.464 28.4759 30.464 17.3826C30.464 5.4359 42.0693 -2.84143 53.248 1.16924ZM89.0027 0.827904C98.6453 3.47324 104.107 15.0786 99.9253 24.2092C96.6827 31.4626 89.2587 35.4732 81.152 34.3639L76.9707 33.8519L73.8987 38.6306C72.192 41.2759 70.3147 43.4092 69.5467 43.4092C67.072 43.4092 66.56 40.0812 66.56 22.2466C66.56 5.86257 66.7307 4.1559 68.1813 2.3639C69.632 0.486565 70.0587 0.401237 72.448 1.3399C74.496 2.02257 75.8613 2.02257 78.6773 1.16924C83.2853 -0.281433 84.9067 -0.366764 89.0027 0.827904ZM124.843 0.827904C134.485 3.47324 139.947 15.0786 135.765 24.2092C132.523 31.4626 125.099 35.4732 116.992 34.3639L112.811 33.8519L109.739 38.6306C103.765 48.0172 102.4 44.8599 102.4 21.6492C102.4 5.86257 102.571 4.1559 104.021 2.3639C105.472 0.486565 105.899 0.401237 108.288 1.3399C110.336 2.02257 111.701 2.02257 114.517 1.16924C119.125 -0.281433 120.747 -0.366764 124.843 0.827904ZM29.184 2.19324C31.8293 4.58257 30.976 7.4839 25.5147 14.9932C20.9067 21.3079 20.3947 22.5026 21.1627 24.2092C21.8453 25.5746 23.296 26.4279 26.368 27.1959C31.0613 28.3052 32.768 30.0972 31.488 32.4866C30.72 33.8519 29.2693 34.0226 17.408 34.0226C4.52266 34.0226 4.096 33.9372 2.13333 31.8892C0.938667 30.7799 0 28.9879 0 27.8786C0 26.7692 2.47467 22.5879 5.54667 18.4066C8.61867 14.3106 11.0933 10.4706 11.0933 9.7879C11.0933 9.19057 9.216 8.16657 6.74133 7.4839C1.70667 6.11857 -0.0853345 4.24123 1.62133 2.1079C3.328 0.0599022 26.88 0.145237 29.184 2.19324Z" fill="white"/>
<path d="M43.6904 12.6891C39.8504 16.2731 42.4104 23.7825 47.4451 23.7825C50.5171 23.7825 52.0531 22.8438 53.4184 20.1985C56.6611 13.8838 48.8104 7.91047 43.6904 12.6891Z" fill="#FE4745"/>
<path d="M79.5309 12.9451C73.8135 19.0891 82.4322 27.6225 88.3202 21.6491C89.5149 20.5398 90.4535 18.5771 90.4535 17.3825C90.4535 14.3958 86.8695 10.9825 83.7975 10.9825C82.3469 10.9825 80.6402 11.7505 79.5309 12.9451Z" fill="#FE4745"/>
<path d="M115.712 12.7745C111.189 16.2731 114.176 23.7825 120.064 23.7825C122.794 23.7825 126.293 20.1985 126.293 17.3825C126.293 14.5665 122.794 10.9825 120.064 10.9825C118.954 10.9825 116.992 11.7505 115.712 12.7745Z" fill="#FE4745"/>
</svg>
