<svg width="615" height="439" viewBox="0 0 615 439" fill="none" xmlns="http://www.w3.org/2000/svg">
<path d="M185.006 437.289H217.19C230.047 437.289 238.223 429.205 238.223 418.082C238.223 408.67 233.187 403.155 227.434 400.874C231.031 397.828 232.826 393.555 232.826 388.134C232.826 378.057 224.738 370.738 212.421 370.738H185V437.296L185.006 437.289ZM203.883 396.117V386.986H209.725C212.96 386.986 214.577 388.986 214.577 391.548C214.577 394.111 212.96 396.111 209.725 396.111H203.883V396.117ZM203.883 420.933V411.521H213.594C217.279 411.521 219.347 413.42 219.347 416.177C219.347 419.316 217.457 420.933 213.594 420.933H203.883ZM304.475 404.007C304.203 423.308 318.766 439.376 338.277 438.993C351.851 438.993 362.551 432.244 368.209 420.927L351.039 412.178C348.432 417.505 344.119 420.162 338.277 420.162C329.105 420.162 323.714 412.554 323.714 404C323.714 395.447 329.105 387.838 338.277 387.838C344.119 387.838 348.432 390.502 351.039 395.822L368.209 387.074C362.545 375.756 351.851 369.007 338.277 369.007C318.772 368.625 304.209 384.692 304.475 403.993V404.007ZM374.235 437.283H393.111V409.709H399.137L412.889 437.283H435L416.123 401.437L433.294 370.724H412.261L393.111 405.617V370.724H374.235V437.283ZM306.721 437.283H286.766L283.125 426.73L260.386 432.956L258.895 437.276H238.94L265.01 370.717H280.652L306.721 437.276V437.283ZM277.531 410.662L272.831 397.828L267.09 413.527L277.531 410.669V410.662Z" fill="white"/>
<path d="M237.763 338.173C237.763 352.438 226.122 360.993 212.356 360.993C206.138 360.993 200.54 359.376 195.563 356.236C191.469 353.525 188.504 349.949 186.655 345.5C186.599 345.373 185.664 343.212 185 340.059L201.8 335.402L201.819 335.482C203.674 340.22 207.743 343.111 212.532 343.111C216.707 343.111 218.75 341.783 218.75 339.025C218.75 336.456 216.444 335.221 211.109 333.698L204.182 331.604C194.321 328.558 188.899 321.902 188.899 311.636C188.63 299.082 200.27 290.809 212.532 291.003C217.24 291.003 221.596 292.238 225.771 294.62C228.555 296.204 230.774 298.351 232.397 301.008C233.657 302.953 234.735 305.859 235.331 308.543L219.954 312.777V312.756L219.91 312.777C218.669 309.449 216.356 307.832 212.983 307.832C210.231 307.832 207.918 308.878 207.918 311.16C207.918 313.441 210.225 314.582 214.845 316.011L221.509 318.01C232.347 321.245 237.769 327.994 237.769 338.166L237.763 338.173ZM307.596 326.001C307.326 345.306 321.719 361.375 341.002 360.993C360.278 361.375 374.671 345.306 374.408 326.001C374.671 306.698 360.284 290.628 341.002 291.01C321.725 290.628 307.333 306.698 307.596 326.001ZM355.394 326.001C355.394 334.845 350.154 342.166 341.002 342.166C331.849 342.166 326.609 334.845 326.609 326.001C326.609 317.158 331.849 309.838 341.002 309.838C350.154 309.838 355.394 317.158 355.394 326.001ZM381.874 292.553V359.121H400.529V340.387H412.966C426.293 340.387 435 330.309 435 316.326C435 302.343 426.293 292.553 412.966 292.553H381.874ZM415.987 316.588C415.987 320.01 414.031 322.486 409.681 322.486H400.529V310.79H409.681C414.031 310.79 415.987 313.26 415.987 316.595V316.588ZM281.775 292.56V317.903L262.192 323.331V292.56H243.536V359.128H262.192V340.938L281.775 335.509V359.128H300.431V292.56H281.775Z" fill="white"/>
<path d="M53.1147 111.135C53.1147 125.286 41.3964 133.774 27.5387 133.774C21.2788 133.774 15.6436 132.169 10.6331 129.054C6.51237 126.365 3.52754 122.817 1.66596 118.404C1.60917 118.277 0.668905 116.134 0 113.005L16.9119 108.386L16.9309 108.466C18.7988 113.165 22.8942 116.034 27.7154 116.034C31.9181 116.034 33.9754 114.716 33.9754 111.98C33.9754 109.431 31.6531 108.206 26.283 106.695L19.3099 104.618C9.38361 101.596 3.92511 94.9929 3.92511 84.8089C3.65376 72.3542 15.3722 64.1472 27.7154 64.3399C32.4545 64.3399 36.8403 65.5648 41.043 67.9277C43.8448 69.4989 46.0787 71.6289 47.7131 74.2648C48.9815 76.195 50.0669 79.0776 50.6664 81.7398L35.187 85.9401V85.92L35.1428 85.9401C33.8933 82.6387 31.5647 81.0346 28.1697 81.0346C25.3995 81.0346 23.0709 82.0725 23.0709 84.336C23.0709 86.5989 25.3931 87.7307 30.0439 89.1488L36.7519 91.132C47.6627 94.3408 53.1211 101.037 53.1211 111.128L53.1147 111.135ZM123.413 99.0598C123.141 118.211 137.63 134.153 157.041 133.774C176.446 134.153 190.934 118.211 190.67 99.0598C190.934 79.9095 176.452 63.9675 157.041 64.3466C137.637 63.9675 123.148 79.9095 123.413 99.0598ZM171.53 99.0598C171.53 107.833 166.254 115.096 157.041 115.096C147.828 115.096 142.552 107.833 142.552 99.0598C142.552 90.2867 147.828 83.0245 157.041 83.0245C166.254 83.0245 171.53 90.2867 171.53 99.0598ZM198.185 65.8775V131.916H216.965V113.331H229.485C242.901 113.331 251.666 103.333 251.666 89.4615C251.666 75.5897 242.901 65.8775 229.485 65.8775H198.185ZM232.527 89.7211C232.527 93.1158 230.558 95.5719 226.178 95.5719H216.965V83.9697H226.178C230.558 83.9697 232.527 86.4191 232.527 89.7278V89.7211ZM97.4201 65.8842V91.026L77.7065 96.4105V65.8842H58.9265V131.923H77.7065V113.877L97.4201 108.492V131.923H116.2V65.8842H97.4201ZM260.185 131.916H292.204C304.996 131.916 313.129 123.895 313.129 112.859C313.129 103.52 308.119 98.0481 302.396 95.7852C305.974 92.7629 307.76 88.5229 307.76 83.1445C307.76 73.1465 299.714 65.8842 287.459 65.8842H260.179V131.923L260.185 131.916ZM278.965 91.0656V82.0061H284.777C287.995 82.0061 289.604 83.9898 289.604 86.5325C289.604 89.0751 287.995 91.0589 284.777 91.0589H278.965V91.0656ZM278.965 115.688V106.349H288.626C292.293 106.349 294.35 108.233 294.35 110.969C294.35 114.083 292.469 115.688 288.626 115.688H278.965ZM379.042 98.8934C378.771 118.044 393.26 133.986 412.67 133.607C426.175 133.607 436.82 126.911 442.449 115.681L425.367 107.001C422.773 112.286 418.482 114.923 412.67 114.923C403.546 114.923 398.182 107.374 398.182 98.8867C398.182 90.4001 403.546 82.8514 412.67 82.8514C418.482 82.8514 422.773 85.494 425.367 90.773L442.449 82.0926C436.814 70.8634 426.175 64.1668 412.67 64.1668C393.266 63.7877 378.777 79.7298 379.042 98.88V98.8934ZM448.444 131.909H467.224V104.552H473.219L486.9 131.909H508.898L490.118 96.3441L507.201 65.8708H486.275L467.224 100.491V65.8708H448.444V131.909ZM381.276 131.909H361.423L357.801 121.439L335.178 127.616L333.695 131.903H313.843L339.779 65.8641H355.34L381.276 131.903V131.909ZM352.235 105.497L347.559 92.7629L341.848 108.339L352.235 105.504V105.497Z" fill="white"/>
<path d="M600.953 108.966H597.618L603.562 103.794C607.685 100.206 609.485 94.3019 607.775 88.9632C606.002 83.425 601.249 79.8305 595.734 79.8305H543.02C542.03 79.8305 541.543 78.5659 542.242 77.8339L577.229 41.5428C577.658 41.0969 578.362 41.6028 578.123 42.1885L565.944 72.2556H581.564L610.83 0H596.798L527.356 72.0228C523.525 75.9964 522.465 82.0208 524.737 87.2061C526.851 92.0318 531.581 94.9809 536.62 94.9809H588.037C589.07 94.9809 589.541 96.3521 588.736 97.0445L576.784 107.442C575.011 108.986 573.619 110.95 572.714 113.18L568.284 124.116H593.579C594.611 124.116 595.077 125.487 594.278 126.179L542.691 170.991C542.242 171.377 541.606 170.871 541.834 170.312L560.54 124.116L562.138 120.169L569.273 102.556H553.659L514.949 198.122H534.058L609.353 132.716C613.614 129.015 615.117 123.051 613.148 117.593C611.248 112.321 606.293 108.966 600.947 108.966H600.953Z" fill="#FF3407"/>
</svg>
