<svg width="180" height="180" viewBox="0 0 180 180" fill="none" xmlns="http://www.w3.org/2000/svg">
<rect width="180" height="180" rx="15" fill="black"/>
<path d="M125.484 98.9988H122.286L127.987 94.2996C131.942 91.0399 133.668 85.6761 132.028 80.8257C130.327 75.7941 125.769 72.5284 120.479 72.5284H69.9218C68.9725 72.5284 68.5054 71.3794 69.1755 70.7144L102.731 37.7429C103.142 37.3378 103.818 37.7973 103.589 38.3295L91.9081 65.6463H106.889L134.957 0H121.499L54.8989 65.4348C51.225 69.045 50.2082 74.5184 52.387 79.2293C54.4146 83.6136 58.9514 86.2929 63.7843 86.2929H113.098C114.087 86.2929 114.539 87.5388 113.768 88.1678L102.305 97.614C100.604 99.0171 99.2691 100.801 98.401 102.827L94.152 112.763H118.413C119.403 112.763 119.849 114.009 119.083 114.638L69.607 155.35C69.1755 155.701 68.5663 155.241 68.7846 154.733L86.725 112.763L88.2582 109.177L95.1013 93.175H80.1256L43 180H61.3273L133.541 120.577C137.627 117.214 139.069 111.796 137.18 106.837C135.358 102.047 130.606 98.9988 125.479 98.9988H125.484Z" fill="#FF3407"/>
</svg>
