<svg width="180" height="180" viewBox="0 0 180 180" fill="none" xmlns="http://www.w3.org/2000/svg">
<circle cx="90" cy="90" r="90" fill="black"/>
<path d="M119.46 98.249H116.767L121.568 94.2024C124.898 91.3955 126.352 86.7766 124.971 82.5999C123.539 78.2672 119.7 75.455 115.245 75.455H72.671C71.8715 75.455 71.4783 74.4656 72.0426 73.893L100.3 45.5008C100.646 45.152 101.215 45.5477 101.022 46.006L91.1858 69.5288H103.801L127.437 13H116.105L60.0201 69.3466C56.9263 72.4554 56.07 77.1686 57.9049 81.2252C59.6123 85.0006 63.4328 87.3078 67.5025 87.3078H109.029C109.863 87.3078 110.244 88.3806 109.594 88.9222L99.9409 97.0565C98.5088 98.2647 97.3845 99.801 96.6535 101.546L93.0753 110.101H113.505C114.339 110.101 114.715 111.174 114.07 111.716L72.4059 146.774C72.0426 147.076 71.5295 146.68 71.7134 146.243L86.8211 110.101L88.1121 107.014L93.8748 93.234H81.2636L50 168H65.4335L126.245 116.83C129.686 113.934 130.9 109.268 129.31 104.998C127.775 100.874 123.774 98.249 119.456 98.249H119.46Z" fill="#FF3407"/>
</svg>
