<svg width="180" height="180" viewBox="0 0 180 180" fill="none" xmlns="http://www.w3.org/2000/svg">
<circle cx="90" cy="90" r="90" fill="black"/>
<path d="M119.46 98.249H116.767L121.568 94.2024C124.898 91.3955 126.352 86.7766 124.971 82.5999C123.539 78.2672 119.7 75.455 115.245 75.455H72.671C71.8715 75.455 71.4783 74.4656 72.0426 73.893L100.3 45.5008C100.646 45.152 101.215 45.5477 101.022 46.006L91.1858 69.5288H103.801L127.437 13H116.105L60.0201 69.3466C56.9263 72.4554 56.07 77.1686 57.9049 81.2252C59.6123 85.0006 63.4328 87.3078 67.5025 87.3078H109.029C109.863 87.3078 110.244 88.3806 109.594 88.9222L99.9409 97.0565C98.5088 98.2647 97.3845 99.801 96.6535 101.546L93.0753 110.101H113.505C114.339 110.101 114.715 111.174 114.07 111.716L72.4059 146.774C72.0426 147.076 71.5295 146.68 71.7134 146.243L86.8211 110.101L88.1121 107.014L93.8748 93.234H81.2636L50 168H65.4335L126.245 116.83C129.686 113.934 130.9 109.268 129.31 104.998C127.775 100.874 123.774 98.249 119.456 98.249H119.46Z" fill="#FF3407"/>
<path d="M15.0038 134.013H34.3142C42.0285 134.013 46.934 129.349 46.934 122.932C46.934 117.501 43.9122 114.32 40.4605 113.004C42.6184 111.247 43.6955 108.781 43.6955 105.654C43.6955 99.8405 38.843 95.6177 31.4524 95.6177H15V134.017L15.0038 134.013ZM26.3298 110.26V104.992H29.8349C31.7757 104.992 32.7462 106.146 32.7462 107.624C32.7462 109.102 31.7757 110.256 29.8349 110.256H26.3298V110.26ZM26.3298 124.577V119.147H32.1562C34.3675 119.147 35.6083 120.242 35.6083 121.833C35.6083 123.644 34.4741 124.577 32.1562 124.577H26.3298ZM86.685 114.811C86.5216 125.947 95.2597 135.217 106.966 134.996C115.11 134.996 121.531 131.102 124.925 124.573L114.623 119.526C113.059 122.599 110.471 124.132 106.966 124.132C101.463 124.132 98.2281 119.743 98.2281 114.808C98.2281 109.873 101.463 105.484 106.966 105.484C110.471 105.484 113.059 107.02 114.623 110.09L124.925 105.042C121.527 98.513 115.11 94.6191 106.966 94.6191C95.2635 94.3986 86.5254 103.668 86.685 114.804V114.811ZM128.541 134.009H139.867V118.101H143.482L151.733 134.009H165L153.674 113.329L163.976 95.6099H151.356L139.867 115.741V95.6099H128.541V134.009ZM88.0325 134.009H76.0594L73.875 127.921L60.2315 131.513L59.337 134.005H47.3643L63.0058 95.606H72.3909L88.0325 134.005V134.009ZM70.5184 118.651L67.6984 111.247L64.254 120.304L70.5184 118.655V118.651Z" fill="white"/>
<path d="M46.6579 72.2153C46.6579 80.4451 39.6734 85.3808 31.4138 85.3808C27.6827 85.3808 24.324 84.4476 21.3376 82.6361C18.8816 81.0721 17.1025 79.0089 15.993 76.4425C15.9591 76.3688 15.3987 75.1223 15 73.3031L25.08 70.6165L25.0913 70.663C26.2046 73.3959 28.6456 75.0642 31.5191 75.0642C34.0241 75.0642 35.2503 74.2979 35.2503 72.7069C35.2503 71.2244 33.8662 70.512 30.6654 69.6334L26.5092 68.4255C20.5929 66.6682 17.3395 62.8281 17.3395 56.9056C17.1777 49.6626 24.1623 44.8899 31.5191 45.0019C34.3438 45.0019 36.9578 45.7143 39.4628 47.0884C41.1328 48.0021 42.4642 49.2408 43.4384 50.7737C44.1944 51.8962 44.8413 53.5726 45.1986 55.1208L35.9724 57.5634V57.5517L35.9461 57.5634C35.2014 55.6435 33.8135 54.7107 31.79 54.7107C30.1388 54.7107 28.7509 55.3143 28.7509 56.6306C28.7509 57.9466 30.135 58.6047 32.907 59.4295L36.9052 60.5828C43.4083 62.4488 46.6617 66.3429 46.6617 72.2114L46.6579 72.2153ZM88.5576 65.1931C88.3958 76.3302 97.0315 85.6012 108.601 85.3808C120.167 85.6012 128.802 76.3302 128.645 65.1931C128.802 54.0564 120.17 44.7854 108.601 45.0058C97.0353 44.7854 88.3996 54.0564 88.5576 65.1931ZM117.237 65.1931C117.237 70.2954 114.092 74.5187 108.601 74.5187C103.11 74.5187 99.9652 70.2954 99.9652 65.1931C99.9652 60.0912 103.11 55.8679 108.601 55.8679C114.092 55.8679 117.237 60.0912 117.237 65.1931ZM133.124 45.8961V84.3005H144.317V73.4927H151.78C159.776 73.4927 165 67.6784 165 59.6113C165 51.5442 159.776 45.8961 151.78 45.8961H133.124ZM153.592 59.7623C153.592 61.7364 152.419 63.1648 149.809 63.1648H144.317V56.4176H149.809C152.419 56.4176 153.592 57.842 153.592 59.7662V59.7623ZM73.0651 45.9V60.5211L61.3153 63.6525V45.9H50.1219V84.3044H61.3153V73.8102L73.0651 70.6785V84.3044H84.2585V45.9H73.0651Z" fill="white"/>
</svg>
