<svg width="180" height="180" viewBox="0 0 180 180" fill="none" xmlns="http://www.w3.org/2000/svg">
<rect width="180" height="180" rx="15" fill="black"/>
<path d="M125.484 98.9988H122.286L127.987 94.2996C131.942 91.0399 133.668 85.6761 132.028 80.8257C130.327 75.7941 125.769 72.5284 120.479 72.5284H69.9218C68.9725 72.5284 68.5054 71.3794 69.1755 70.7144L102.731 37.7429C103.142 37.3378 103.818 37.7973 103.589 38.3295L91.9081 65.6463H106.889L134.957 0H121.499L54.8989 65.4348C51.225 69.045 50.2082 74.5184 52.387 79.2293C54.4146 83.6136 58.9514 86.2929 63.7843 86.2929H113.098C114.087 86.2929 114.539 87.5388 113.768 88.1678L102.305 97.614C100.604 99.0171 99.2691 100.801 98.401 102.827L94.152 112.763H118.413C119.403 112.763 119.849 114.009 119.083 114.638L69.607 155.35C69.1755 155.701 68.5663 155.241 68.7846 154.733L86.725 112.763L88.2582 109.177L95.1013 93.175H80.1256L43 180H61.3273L133.541 120.577C137.627 117.214 139.069 111.796 137.18 106.837C135.358 102.047 130.606 98.9988 125.479 98.9988H125.484Z" fill="#FF3407"/>
<path d="M15.0038 133.013H34.3142C42.0285 133.013 46.934 128.349 46.934 121.932C46.934 116.501 43.9122 113.32 40.4605 112.004C42.6184 110.247 43.6955 107.781 43.6955 104.654C43.6955 98.8405 38.843 94.6177 31.4524 94.6177H15V133.017L15.0038 133.013ZM26.3298 109.26V103.992H29.8349C31.7757 103.992 32.7462 105.146 32.7462 106.624C32.7462 108.102 31.7757 109.256 29.8349 109.256H26.3298V109.26ZM26.3298 123.577V118.147H32.1562C34.3675 118.147 35.6083 119.242 35.6083 120.833C35.6083 122.644 34.4741 123.577 32.1562 123.577H26.3298ZM86.685 113.811C86.5216 124.947 95.2597 134.217 106.966 133.996C115.11 133.996 121.531 130.102 124.925 123.573L114.623 118.526C113.059 121.599 110.471 123.132 106.966 123.132C101.463 123.132 98.2281 118.743 98.2281 113.808C98.2281 108.873 101.463 104.484 106.966 104.484C110.471 104.484 113.059 106.02 114.623 109.09L124.925 104.042C121.527 97.513 115.11 93.6191 106.966 93.6191C95.2635 93.3986 86.5254 102.668 86.685 113.804V113.811ZM128.541 133.009H139.867V117.101H143.482L151.733 133.009H165L153.674 112.329L163.976 94.6099H151.356L139.867 114.741V94.6099H128.541V133.009ZM88.0325 133.009H76.0594L73.875 126.921L60.2315 130.513L59.337 133.005H47.3643L63.0058 94.606H72.3909L88.0325 133.005V133.009ZM70.5184 117.651L67.6984 110.247L64.254 119.304L70.5184 117.655V117.651Z" fill="white"/>
<path d="M46.6579 71.2153C46.6579 79.4451 39.6734 84.3808 31.4138 84.3808C27.6827 84.3808 24.324 83.4476 21.3376 81.6361C18.8816 80.0721 17.1025 78.0089 15.993 75.4425C15.9591 75.3688 15.3987 74.1223 15 72.3031L25.08 69.6165L25.0913 69.663C26.2046 72.3959 28.6456 74.0642 31.5191 74.0642C34.0241 74.0642 35.2503 73.2979 35.2503 71.7069C35.2503 70.2244 33.8662 69.512 30.6654 68.6334L26.5092 67.4255C20.5929 65.6682 17.3395 61.8281 17.3395 55.9056C17.1777 48.6626 24.1623 43.8899 31.5191 44.0019C34.3438 44.0019 36.9578 44.7143 39.4628 46.0884C41.1328 47.0021 42.4642 48.2408 43.4384 49.7737C44.1944 50.8962 44.8413 52.5726 45.1986 54.1208L35.9724 56.5634V56.5517L35.9461 56.5634C35.2014 54.6435 33.8135 53.7107 31.79 53.7107C30.1388 53.7107 28.7509 54.3143 28.7509 55.6306C28.7509 56.9466 30.135 57.6047 32.907 58.4295L36.9052 59.5828C43.4083 61.4488 46.6617 65.3429 46.6617 71.2114L46.6579 71.2153ZM88.5576 64.1931C88.3958 75.3302 97.0315 84.6012 108.601 84.3808C120.167 84.6012 128.802 75.3302 128.645 64.1931C128.802 53.0564 120.17 43.7854 108.601 44.0058C97.0353 43.7854 88.3996 53.0564 88.5576 64.1931ZM117.237 64.1931C117.237 69.2954 114.092 73.5187 108.601 73.5187C103.11 73.5187 99.9652 69.2954 99.9652 64.1931C99.9652 59.0912 103.11 54.8679 108.601 54.8679C114.092 54.8679 117.237 59.0912 117.237 64.1931ZM133.124 44.8961V83.3005H144.317V72.4927H151.78C159.776 72.4927 165 66.6784 165 58.6113C165 50.5442 159.776 44.8961 151.78 44.8961H133.124ZM153.592 58.7623C153.592 60.7364 152.419 62.1648 149.809 62.1648H144.317V55.4176H149.809C152.419 55.4176 153.592 56.842 153.592 58.7662V58.7623ZM73.0651 44.9V59.5211L61.3153 62.6525V44.9H50.1219V83.3044H61.3153V72.8102L73.0651 69.6785V83.3044H84.2585V44.9H73.0651Z" fill="white"/>
</svg>
