<svg width="500" height="350" viewBox="0 0 500 350" fill="none" xmlns="http://www.w3.org/2000/svg">
<rect width="500" height="350" rx="15" fill="white"/>
<path fill-rule="evenodd" clip-rule="evenodd" d="M205.687 146.698C192.131 127.472 169.627 116 146.739 116C123.841 116 101.327 127.472 87.8014 146.698L87.1074 147.684H104.171L104.358 147.478C115.981 135.471 131.139 129.126 146.739 129.126C162.329 129.126 177.488 135.471 189.12 147.478L189.316 147.684H206.369L205.687 146.698Z" fill="#FF3C28"/>
<path d="M80.3432 210.65L80.0155 210.97C74.772 216.316 68.7112 219.154 62.4642 219.154C49.4171 219.154 39.9516 209.343 39.9516 195.824C39.9516 182.324 49.4171 172.51 62.4642 172.51C68.7112 172.51 74.772 175.357 80.0155 180.713L80.3432 181.042L88.7299 170.881L88.5053 170.604C81.526 162.345 73.1575 158.335 62.868 158.335C52.5399 158.335 43.1038 161.809 36.3031 168.092C28.9019 174.885 25 184.472 25 195.824C25 207.169 28.9019 216.785 36.3031 223.581C43.1038 229.887 52.5399 233.344 62.868 233.344C73.1575 233.344 81.526 229.331 88.5053 221.069L88.7299 220.815L80.3432 210.65ZM97.2106 231.961H112.023V159.508H97.2106V231.961ZM170.078 216.207C166.13 218.623 162.442 219.833 159.14 219.833C154.347 219.833 152.189 217.307 152.189 211.671V173.222H167.282V159.574H152.189V137.032L137.659 144.81V159.574H125.137V173.222H137.659V214.117C137.659 225.26 144.253 232.868 154.092 233.072C160.772 233.201 164.796 231.207 167.245 229.75L167.386 229.651L170.951 215.671L170.078 216.207ZM182.356 231.961H197.177V159.508H182.356V231.961ZM433.548 131.935V201.052L438.163 193.861C438.154 193.893 458.904 163.802 461.557 159.973H470.808C468.837 162.619 452.524 185.096 452.524 185.096C452.524 185.096 473.772 229.444 475 231.961H465.92C465.424 230.933 447.168 192.228 447.168 192.228L433.548 211.355V231.961H425.086V136.777C425.827 136.351 431.55 133.061 433.548 131.935ZM364.067 168.551C368.42 162.016 375.257 158.417 383.259 158.417C399.207 158.417 407.658 168.609 407.658 187.882V231.961H399.178V189.704C399.178 173.309 393.494 165.691 381.175 165.691C369.384 165.691 362.35 174.672 362.35 189.704V231.961H353.889V159.973H362.35V171.135L364.067 168.551ZM312.078 158.417C328.487 158.417 336.46 165.93 336.46 181.398V231.961H328.008V221.462L326.357 223.281C320.128 230.157 312.991 233.522 304.482 233.522C297.812 233.522 282.297 231.314 282.297 210.813C282.297 194.063 296.104 188.11 309.04 188.11C315.54 188.11 321.958 189.611 326.611 192.228L328.008 193.002V182.664C328.008 171.205 322.417 165.399 311.375 165.399C304.566 165.399 298.412 167.117 292.117 170.679C291.564 169.395 289.604 165.068 289.059 163.84C295.645 160.359 303.777 158.417 312.078 158.417ZM290.589 210.116C290.589 220.876 296.161 226.805 306.282 226.805C314.885 226.805 322.538 222.726 327.848 215.319L328.008 215.061V199.286L327.528 199.01C322.137 195.928 316.609 194.683 308.478 194.683C297.296 194.683 290.589 200.451 290.589 210.116ZM225.282 131.935V170.454L226.914 168.66C233.143 161.766 240.047 158.417 247.973 158.417C263.835 158.417 272.935 171.655 272.935 194.764C272.935 218.303 262.596 233.522 246.584 233.522C238.779 233.522 232.532 230.492 226.925 223.996L225.282 222.07V231.961H216.838V136.777C217.552 136.351 223.294 133.061 225.282 131.935ZM225.479 176.724L225.282 176.987V214.475L225.432 214.698C230.094 221.932 237.702 226.259 245.788 226.259C258.281 226.259 264.614 215.705 264.614 194.917C264.614 176.336 257.598 165.691 245.365 165.691C237.956 165.691 231.258 169.401 225.479 176.724Z" fill="#255BE3"/>
</svg>
