<svg width="180" height="180" viewBox="0 0 180 180" fill="none" xmlns="http://www.w3.org/2000/svg">
<rect width="180" height="180" rx="15" fill="white"/>
<path fill-rule="evenodd" clip-rule="evenodd" d="M164.436 66.3889C153.225 50.4877 134.613 41 115.684 41C96.7463 41 78.1257 50.4877 66.9396 66.3889L66.3657 67.2037H80.4777L80.6323 67.0336C90.245 57.1037 102.782 51.8556 115.684 51.8556C128.577 51.8556 141.114 57.1037 150.734 67.0336L150.897 67.2037H165L164.436 66.3889Z" fill="#FF3C28"/>
<path d="M60.7713 119.28L60.5002 119.544C56.1636 123.966 51.151 126.313 45.9845 126.313C35.194 126.313 27.3656 118.199 27.3656 107.018C27.3656 95.8532 35.194 87.7363 45.9845 87.7363C51.151 87.7363 56.1636 90.0905 60.5002 94.5208L60.7713 94.793L67.7074 86.3891L67.5216 86.1599C61.7494 79.3295 54.8284 76.0127 46.3185 76.0127C37.7767 76.0127 29.9727 78.8859 24.3481 84.0823C18.227 89.7001 15 97.6292 15 107.018C15 116.401 18.227 124.353 24.3481 129.974C29.9727 135.19 37.7767 138.048 46.3185 138.048C54.8284 138.048 61.7494 134.73 67.5216 127.897L67.7074 127.687L60.7713 119.28ZM74.7213 136.905H86.9716V76.9827H74.7213V136.905ZM134.986 123.876C131.72 125.874 128.671 126.875 125.939 126.875C121.975 126.875 120.191 124.785 120.191 120.124V88.3248H132.674V77.0374H120.191V58.3947L108.174 64.8273V77.0374H97.8175V88.3248H108.174V122.147C108.174 131.363 113.627 137.655 121.765 137.823C127.29 137.93 130.617 136.281 132.643 135.076L132.76 134.995L135.707 123.432L134.986 123.876ZM145.14 136.905H157.398V76.9827H145.14V136.905Z" fill="#255BE3"/>
</svg>
