<svg width="800" height="180" viewBox="0 0 800 180" fill="none" xmlns="http://www.w3.org/2000/svg">
<rect width="800" height="180" rx="15" fill="#255BE3"/>
<path fill-rule="evenodd" clip-rule="evenodd" d="M352.733 59.7449C338.274 39.2367 314.268 27 289.856 27C265.431 27 241.415 39.2367 226.988 59.7449L226.248 60.7958H244.449L244.648 60.5764C257.046 47.7695 273.215 41.0008 289.856 41.0008C306.485 41.0008 322.654 47.7695 335.061 60.5764L335.271 60.7958H353.46L352.733 59.7449Z" fill="#FF3C28"/>
<path d="M219.033 127.96L218.683 128.302C213.09 134.004 206.625 137.031 199.962 137.031C186.045 137.031 175.948 126.566 175.948 112.146C175.948 97.7461 186.045 87.2774 199.962 87.2774C206.625 87.2774 213.09 90.3137 218.683 96.0277L219.033 96.3786L227.979 85.5399L227.739 85.2443C220.294 76.4349 211.368 72.1571 200.393 72.1571C189.376 72.1571 179.311 75.8628 172.057 82.5647C164.162 89.8102 160 100.037 160 112.146C160 124.247 164.162 134.504 172.057 141.753C179.311 148.48 189.376 152.166 200.393 152.166C211.368 152.166 220.294 147.887 227.739 139.073L227.979 138.803L219.033 127.96ZM237.025 150.692H252.824V73.4082H237.025V150.692ZM314.75 133.888C310.538 136.464 306.605 137.756 303.082 137.756C297.97 137.756 295.668 135.061 295.668 129.049V88.0365H311.768V73.4787H295.668V49.4345L280.17 57.7309V73.4787H266.813V88.0365H280.17V131.658C280.17 143.544 287.203 151.659 297.698 151.877C304.824 152.014 309.116 149.887 311.728 148.333L311.879 148.228L315.681 133.316L314.75 133.888ZM327.846 150.692H343.655V73.4082H327.846V150.692ZM595.784 43.9971V117.722L600.707 110.051C600.698 110.086 622.831 77.9893 625.661 73.904H635.529C633.426 76.7267 616.025 100.702 616.025 100.702C616.025 100.702 638.69 148.007 640 150.692H630.315C629.785 149.596 610.312 108.31 610.312 108.31L595.784 128.712V150.692H586.758V49.1618C587.548 48.7079 593.654 45.1986 595.784 43.9971ZM521.672 83.0548C526.314 76.084 533.608 72.2448 542.143 72.2448C559.154 72.2448 568.169 83.1159 568.169 103.674V150.692H559.123V105.617C559.123 88.1299 553.06 80.0033 539.92 80.0033C527.343 80.0033 519.84 89.5832 519.84 105.617V150.692H510.815V73.904H519.84V85.8108L521.672 83.0548ZM466.217 72.2448C483.719 72.2448 492.224 80.2589 492.224 96.7582V150.692H483.209V139.493L481.448 141.433C474.803 148.768 467.19 152.357 458.114 152.357C451 152.357 434.45 150.002 434.45 128.134C434.45 110.267 449.177 103.918 462.976 103.918C469.909 103.918 476.755 105.518 481.718 108.31L483.209 109.136V98.1085C483.209 85.8852 477.245 79.6924 465.467 79.6924C458.204 79.6924 451.64 81.5253 444.925 85.3244C444.335 83.955 442.244 79.3396 441.663 78.0293C448.688 74.316 457.362 72.2448 466.217 72.2448ZM443.295 127.39C443.295 138.867 449.238 145.192 460.034 145.192C469.211 145.192 477.374 140.841 483.038 132.94L483.209 132.665V115.838L482.697 115.544C476.946 112.256 471.05 110.929 462.376 110.929C450.45 110.929 443.295 117.081 443.295 127.39ZM373.635 43.9971V85.0841L375.375 83.1712C382.019 75.817 389.383 72.2448 397.838 72.2448C414.758 72.2448 424.464 86.3658 424.464 111.015C424.464 136.123 413.436 152.357 396.356 152.357C388.031 152.357 381.368 149.124 375.386 142.196L373.635 140.142V150.692H364.627V49.1618C365.389 48.7079 371.513 45.1986 373.635 43.9971ZM373.844 91.7727L373.635 92.0531V132.04L373.795 132.278C378.767 139.995 386.883 144.61 395.507 144.61C408.833 144.61 415.588 133.352 415.588 111.179C415.588 91.3589 408.104 80.0033 395.056 80.0033C387.153 80.0033 380.008 83.9608 373.844 91.7727Z" fill="white"/>
</svg>
