<svg width="180" height="180" viewBox="0 0 180 180" fill="none" xmlns="http://www.w3.org/2000/svg">
<circle cx="90" cy="90" r="90" fill="url(#paint0_linear_843_1357)"/>
<path d="M94.5013 149.936C81.7595 149.936 69.0275 149.804 56.2954 149.998C50.8983 150.085 47.8268 147.486 47.9333 142.35C48.1756 130.637 48.0109 118.925 48.0109 107.229C48.0109 102.523 50.5108 100.258 55.685 100.258C81.4785 100.258 107.269 100.258 133.056 100.258C134.49 100.242 135.911 100.505 137.222 101.031C138.245 101.441 139.108 102.122 139.697 102.983C140.287 103.845 140.576 104.847 140.527 105.86C140.527 118.67 140.527 131.471 140.527 144.273C140.541 145.007 140.393 145.737 140.091 146.418C139.788 147.1 139.339 147.72 138.768 148.241C138.197 148.762 137.517 149.175 136.767 149.454C136.017 149.733 135.213 149.873 134.403 149.866C130.101 149.962 125.789 149.866 121.477 149.866L94.5013 149.936ZM107.185 137.644C106.943 137.012 106.739 136.415 106.487 135.888C103.535 129.115 100.57 122.352 97.5922 115.597C96.1679 112.34 96.1679 112.41 92.3114 112.322C91.7613 112.251 91.2022 112.374 90.7484 112.664C90.2946 112.955 89.9803 113.391 89.8697 113.885C87.9318 118.433 85.9163 122.946 83.9397 127.476C82.4572 130.874 81.0328 134.272 79.4244 137.907C80.4537 137.849 81.486 137.849 82.5153 137.907C82.8162 137.984 83.1319 138.001 83.4407 137.957C83.7495 137.913 84.0442 137.809 84.3046 137.652C84.5649 137.496 84.7849 137.29 84.9494 137.049C85.1138 136.808 85.2189 136.538 85.2575 136.257C85.616 135.045 86.2942 133.912 86.6818 132.745C86.9919 131.77 87.5926 131.55 88.6197 131.568C91.6622 131.621 94.7144 131.665 97.7473 131.568C98.0071 131.523 98.2744 131.527 98.5326 131.579C98.7909 131.631 99.0346 131.73 99.2489 131.871C99.4631 132.011 99.6433 132.19 99.7783 132.396C99.9133 132.603 100 132.832 100.034 133.069C100.17 133.51 100.342 133.942 100.548 134.36C102.185 138.197 102.185 138.197 106.72 137.872C106.884 137.813 107.04 137.736 107.185 137.644ZM66.0819 127.828C68.5236 127.828 70.791 127.916 73.0486 127.828C75.1265 127.751 77.0974 126.972 78.5733 125.644C80.0492 124.317 80.9232 122.537 81.0231 120.654C81.401 116.853 78.6783 113.156 74.347 112.7C70.0158 112.243 65.6943 112.594 61.2758 112.594V137.749H66.0431L66.0819 127.828ZM105.731 112.313C108.735 116.703 111.468 120.856 114.336 124.904C115.379 126.266 115.9 127.901 115.818 129.557C115.683 132.288 115.818 135.027 115.818 137.749H120.663C120.76 136.12 120.76 134.488 120.663 132.859C120.148 129.02 121.333 125.152 123.957 122.103C126.419 119.083 128.395 115.737 130.74 112.296C129.705 112.359 128.665 112.359 127.63 112.296C125.876 112.076 124.907 112.735 124.083 114.122C122.32 117.09 120.353 119.952 118.347 123.043C116.177 119.671 114.171 116.501 112.088 113.384C111.757 112.882 111.221 112.519 110.596 112.375C109.123 112.225 107.602 112.313 105.731 112.313Z" fill="white"/>
<path d="M49.0128 50.2634C51.9197 50.7288 54.7587 51.0537 57.5105 51.6419C60.2624 52.2302 60.117 52.318 59.6519 54.6096C56.5319 54.6096 53.4603 54.6096 50.3984 54.6096C49.0322 54.6096 48.6252 55.0398 48.4605 56.2954C47.4916 66.4101 46.4645 76.4897 43.9646 86.4552C43.0056 90.5872 40.6562 94.348 37.24 97.2197C33.6452 100.214 29.3237 100.635 24.8084 100.029C23.5089 99.753 22.3248 99.1434 21.3976 98.2733C19.3047 96.5173 19.5566 95.411 22.1922 94.0588C22.6088 94.5944 23.0158 95.1476 23.4518 95.6831C25.3219 97.9572 27.4245 98.0362 29.033 95.6831C30.3022 93.907 31.2263 91.9471 31.7654 89.8882C33.4514 82.1881 34.9049 74.444 36.3389 66.6999C36.9009 63.7146 37.1916 60.6855 37.6567 57.3227L29.7597 60.1411L28.2288 57.349C31.1938 55.8827 34.1297 54.4691 37.0075 52.959C37.6495 52.6226 38.1195 52.0706 38.3156 51.4224C38.7807 48.5864 38.8194 45.6802 39.4783 42.8881C40.0203 40.2499 40.9593 37.6915 42.2689 35.2845C45.9219 28.9804 55.7277 28.954 60.4465 31.8866C61.1256 32.3102 61.7412 32.812 62.2778 33.3792C64.5936 35.864 64.2157 38.3137 61.1054 40.017C60.6263 40.2374 60.0745 40.2905 59.555 40.1663C58.7121 39.9468 57.9466 39.5078 57.1133 39.2356C55.0106 38.5595 53.9448 37.3742 54.3033 35.2318C54.3905 34.705 53.8479 33.59 53.6541 33.5987C52.7567 33.5867 51.8793 33.8394 51.1542 34.3187C50.5334 34.9694 50.1658 35.7869 50.1077 36.6454C49.6717 41.2199 49.3616 45.8207 49.0128 50.2634Z" fill="white"/>
<path d="M80.6589 56.2253C80.9496 54.0127 82.4805 54.0917 84.0308 54.4253C86.6664 54.9785 89.2632 55.637 91.9181 56.2692C89.5539 65.3127 87.1509 74.0665 87.4997 83.6632L92.7417 81.5033L94.2049 84.2076C90.8232 87.026 87.1509 89.3001 82.5774 89.8971C79.0407 90.3537 77.1707 89.2035 75.6494 85.7792L74.0506 86.8855C71.6089 88.5889 69.0411 90.0727 65.7951 89.9674C63.5825 89.8905 61.4671 89.1231 59.8072 87.795C58.1474 86.467 57.0451 84.6599 56.687 82.6798C54.9061 75.7404 55.8056 68.4575 59.2353 62.0465C61.3089 58.2271 64.3223 55.1629 69.2252 54.2146C72.3011 53.7172 75.4715 54.0913 78.3043 55.2858C79.0117 55.5404 79.6899 55.8389 80.6589 56.2253ZM79.0989 59.6495C74.8936 57.8408 72.5972 58.3852 71.0275 62.4328C69.6374 66.1063 68.6634 69.8983 68.1206 73.7504C67.9259 76.2577 68.1085 78.7772 68.6632 81.2399C68.6979 81.5748 68.814 81.8985 69.0034 82.1878C69.1927 82.4771 69.4506 82.7247 69.7583 82.9128C70.066 83.101 70.4159 83.2249 70.7828 83.2757C71.1497 83.3265 71.5245 83.3029 71.8802 83.2066C74.3219 82.8379 75.475 81.9247 75.6009 80.3268C75.7463 78.5707 75.8432 76.8147 76.1629 75.0587C77.0931 69.9398 78.1008 64.8737 79.0989 59.6495Z" fill="white"/>
<path d="M140.124 76.762C140.356 77.8859 140.482 78.8517 140.783 79.7736C141.897 83.2857 144.862 84.8573 148.689 83.7159C151.145 82.826 153.534 81.7906 155.84 80.6165L157.623 82.8291C153.583 86.4992 149.116 89.2825 143.36 89.8005C134.543 90.5995 129.368 86.6133 128.39 78.5795C127.84 74.6501 128.256 70.6591 129.611 66.8931C132.518 58.991 140.957 53.6614 149.726 54.0302C157.313 54.3463 161.354 59.07 159.59 65.6376C159.151 67.1695 158.356 68.5988 157.258 69.8298C156.16 71.0609 154.785 72.0653 153.224 72.7758C149.61 74.6885 145.617 75.9385 141.471 76.4547C141.015 76.5296 140.565 76.6323 140.124 76.762ZM139.988 72.5563C146.635 72.4422 151.916 64.2591 148.767 59.2368C148.602 58.9385 148.365 58.6776 148.073 58.4737C147.782 58.2697 147.444 58.1279 147.083 58.0587C146.723 57.9896 146.35 57.9948 145.992 58.0741C145.635 58.1535 145.301 58.3048 145.017 58.5169C144.009 59.1941 143.198 60.083 142.653 61.107C140.964 64.7336 140.059 68.6205 139.988 72.5563Z" fill="white"/>
<path d="M97.2958 80.8889C97.6543 75.331 97.9547 69.7732 98.3908 64.2066C98.6089 61.6695 97.7764 59.1497 96.0556 57.1386C95.2126 56.1201 95.3192 55.3825 96.6951 55.1367C99.3288 54.5636 102.014 54.2051 104.718 54.0655C108.778 54.0128 110.968 55.9094 110.881 59.5795C110.673 63.2349 110.252 66.8779 109.621 70.4932C109.195 73.4521 108.458 76.3759 108.138 79.3348C108.022 80.4762 108.681 81.6879 108.981 82.8468C110.27 82.4781 111.791 82.3991 112.789 81.6966C116.003 79.4272 118.447 76.3847 119.843 72.9165C120.104 72.4253 120.184 71.8715 120.073 71.336C119.961 70.8005 119.663 70.3114 119.223 69.94C117.917 68.6892 116.682 67.3793 115.522 66.0153C115.048 65.5097 114.784 64.8699 114.776 64.2066C115.052 60.6934 116.653 57.3732 119.31 54.8031C119.625 54.5537 119.99 54.3632 120.386 54.2426C120.782 54.122 121.2 54.0738 121.617 54.1006C123.224 54.2 124.724 54.8696 125.791 55.9642C126.857 57.0589 127.404 58.4903 127.314 59.9482C127.24 65.1017 125.939 70.1801 123.501 74.8365C121.063 79.493 117.545 83.6179 113.187 86.9296C111.134 88.579 108.569 89.6126 105.842 89.8885C100.881 90.4066 97.635 88.0096 97.2668 83.4702C97.2377 82.6186 97.2958 81.7493 97.2958 80.8889Z" fill="white"/>
<path d="M97.6893 127.415H88.9688L93.3 117.011C94.8697 120.707 96.2165 123.929 97.6893 127.415Z" fill="white"/>
<path d="M66.1309 124.052V116.027C68.3975 116.037 70.6619 116.16 72.9135 116.396C73.9306 116.556 74.8395 117.067 75.4487 117.822C76.0578 118.577 76.3196 119.517 76.1789 120.444C76.1245 121.364 75.7003 122.235 74.9864 122.892C74.2724 123.548 73.318 123.946 72.3031 124.008C71.9256 124.03 71.5469 124.03 71.1694 124.008L66.1309 124.052Z" fill="white"/>
<defs>
<linearGradient id="paint0_linear_843_1357" x1="180" y1="180" x2="0" y2="0" gradientUnits="userSpaceOnUse">
<stop stop-color="#FF5064"/>
<stop offset="1" stop-color="#FF3589"/>
</linearGradient>
</defs>
</svg>
