<svg width="180" height="180" viewBox="0 0 180 180" fill="none" xmlns="http://www.w3.org/2000/svg">
<circle cx="90" cy="90" r="90" fill="url(#paint0_linear_887_300)"/>
<path d="M49.0128 75.2634C51.9197 75.7288 54.7587 76.0537 57.5105 76.6419C60.2624 77.2302 60.117 77.318 59.6519 79.6096C56.5319 79.6096 53.4603 79.6096 50.3984 79.6096C49.0322 79.6096 48.6252 80.0398 48.4605 81.2954C47.4916 91.4101 46.4645 101.49 43.9646 111.455C43.0056 115.587 40.6562 119.348 37.24 122.22C33.6452 125.214 29.3237 125.635 24.8084 125.029C23.5089 124.753 22.3248 124.143 21.3976 123.273C19.3047 121.517 19.5566 120.411 22.1922 119.059C22.6088 119.594 23.0158 120.148 23.4518 120.683C25.3219 122.957 27.4245 123.036 29.033 120.683C30.3022 118.907 31.2263 116.947 31.7654 114.888C33.4514 107.188 34.9049 99.444 36.3389 91.6999C36.9009 88.7146 37.1916 85.6855 37.6567 82.3227L29.7597 85.1411L28.2288 82.349C31.1938 80.8827 34.1297 79.4691 37.0075 77.959C37.6495 77.6226 38.1195 77.0706 38.3156 76.4224C38.7807 73.5864 38.8194 70.6802 39.4783 67.8881C40.0203 65.2499 40.9593 62.6915 42.2689 60.2845C45.9219 53.9804 55.7277 53.954 60.4465 56.8866C61.1256 57.3102 61.7412 57.812 62.2778 58.3792C64.5936 60.864 64.2157 63.3137 61.1054 65.017C60.6263 65.2374 60.0745 65.2905 59.555 65.1663C58.7121 64.9468 57.9466 64.5078 57.1133 64.2356C55.0106 63.5595 53.9448 62.3742 54.3033 60.2318C54.3905 59.705 53.8479 58.59 53.6541 58.5987C52.7567 58.5867 51.8793 58.8394 51.1542 59.3187C50.5334 59.9694 50.1658 60.7869 50.1077 61.6454C49.6717 66.2199 49.3616 70.8207 49.0128 75.2634Z" fill="white"/>
<path d="M80.6589 81.2253C80.9496 79.0127 82.4805 79.0917 84.0308 79.4253C86.6664 79.9785 89.2632 80.637 91.9181 81.2692C89.5539 90.3127 87.1509 99.0665 87.4997 108.663L92.7417 106.503L94.2049 109.208C90.8232 112.026 87.1509 114.3 82.5774 114.897C79.0407 115.354 77.1707 114.203 75.6494 110.779L74.0506 111.886C71.6089 113.589 69.0411 115.073 65.7951 114.967C63.5825 114.891 61.4671 114.123 59.8072 112.795C58.1474 111.467 57.0451 109.66 56.687 107.68C54.9061 100.74 55.8056 93.4575 59.2353 87.0465C61.3089 83.2271 64.3223 80.1629 69.2252 79.2146C72.3011 78.7172 75.4715 79.0913 78.3043 80.2858C79.0117 80.5404 79.6899 80.8389 80.6589 81.2253ZM79.0989 84.6495C74.8936 82.8408 72.5972 83.3852 71.0275 87.4328C69.6374 91.1063 68.6634 94.8983 68.1206 98.7504C67.9259 101.258 68.1085 103.777 68.6632 106.24C68.6979 106.575 68.814 106.899 69.0034 107.188C69.1927 107.477 69.4506 107.725 69.7583 107.913C70.066 108.101 70.4159 108.225 70.7828 108.276C71.1497 108.326 71.5245 108.303 71.8802 108.207C74.3219 107.838 75.475 106.925 75.6009 105.327C75.7463 103.571 75.8432 101.815 76.1629 100.059C77.0931 94.9398 78.1008 89.8737 79.0989 84.6495Z" fill="white"/>
<path d="M140.124 101.762C140.356 102.886 140.482 103.852 140.783 104.774C141.897 108.286 144.862 109.857 148.689 108.716C151.145 107.826 153.534 106.791 155.84 105.616L157.623 107.829C153.583 111.499 149.116 114.283 143.36 114.801C134.543 115.6 129.368 111.613 128.39 103.58C127.84 99.6501 128.256 95.6591 129.611 91.8931C132.518 83.991 140.957 78.6614 149.726 79.0302C157.313 79.3463 161.354 84.07 159.59 90.6376C159.151 92.1695 158.356 93.5988 157.258 94.8298C156.16 96.0609 154.785 97.0653 153.224 97.7758C149.61 99.6885 145.617 100.939 141.471 101.455C141.015 101.53 140.565 101.632 140.124 101.762ZM139.988 97.5563C146.635 97.4422 151.916 89.2591 148.767 84.2368C148.602 83.9385 148.365 83.6776 148.073 83.4737C147.782 83.2697 147.444 83.1279 147.083 83.0587C146.723 82.9896 146.35 82.9948 145.992 83.0741C145.635 83.1535 145.301 83.3048 145.017 83.5169C144.009 84.1941 143.198 85.083 142.653 86.107C140.964 89.7336 140.059 93.6205 139.988 97.5563Z" fill="white"/>
<path d="M97.2958 105.889C97.6543 100.331 97.9547 94.7732 98.3908 89.2066C98.6089 86.6695 97.7764 84.1497 96.0556 82.1386C95.2126 81.1201 95.3192 80.3825 96.6951 80.1367C99.3288 79.5636 102.014 79.2051 104.718 79.0655C108.778 79.0128 110.968 80.9094 110.881 84.5795C110.673 88.2349 110.252 91.8779 109.621 95.4932C109.195 98.4521 108.458 101.376 108.138 104.335C108.022 105.476 108.681 106.688 108.981 107.847C110.27 107.478 111.791 107.399 112.789 106.697C116.003 104.427 118.447 101.385 119.843 97.9165C120.104 97.4253 120.184 96.8715 120.073 96.336C119.961 95.8005 119.663 95.3114 119.223 94.94C117.917 93.6892 116.682 92.3793 115.522 91.0153C115.048 90.5097 114.784 89.8699 114.776 89.2066C115.052 85.6934 116.653 82.3732 119.31 79.8031C119.625 79.5537 119.99 79.3632 120.386 79.2426C120.782 79.122 121.2 79.0738 121.617 79.1006C123.224 79.2 124.724 79.8696 125.791 80.9642C126.857 82.0589 127.404 83.4903 127.314 84.9482C127.24 90.1017 125.939 95.1801 123.501 99.8365C121.063 104.493 117.545 108.618 113.187 111.93C111.134 113.579 108.569 114.613 105.842 114.889C100.881 115.407 97.635 113.01 97.2668 108.47C97.2377 107.619 97.2958 106.749 97.2958 105.889Z" fill="white"/>
<defs>
<linearGradient id="paint0_linear_887_300" x1="180" y1="180" x2="0" y2="0" gradientUnits="userSpaceOnUse">
<stop stop-color="#FF5064"/>
<stop offset="1" stop-color="#FF3589"/>
</linearGradient>
</defs>
</svg>
