<svg width="251" height="82" viewBox="0 0 251 82" fill="none" xmlns="http://www.w3.org/2000/svg">
<path d="M203.403 74.7C190.253 74.7 177.113 74.55 163.973 74.77C158.403 74.87 155.233 71.91 155.343 66.06C155.593 52.72 155.423 39.38 155.423 26.06C155.423 20.7 158.003 18.12 163.343 18.12C189.963 18.12 216.579 18.12 243.193 18.12C244.673 18.1013 246.139 18.4014 247.493 19C248.548 19.4675 249.438 20.2424 250.047 21.2236C250.655 22.2048 250.953 23.3466 250.903 24.5C250.903 39.09 250.903 53.67 250.903 68.25C250.917 69.0863 250.764 69.9172 250.453 70.6934C250.141 71.4696 249.677 72.1755 249.087 72.7693C248.498 73.3631 247.796 73.8328 247.022 74.1507C246.249 74.4685 245.419 74.6281 244.583 74.62C240.143 74.73 235.693 74.62 231.243 74.62L203.403 74.7ZM216.493 60.7C216.243 59.98 216.033 59.3 215.773 58.7C212.726 50.9866 209.666 43.2833 206.593 35.59C205.123 31.88 205.123 31.96 201.143 31.86C200.575 31.7797 199.998 31.9192 199.529 32.25C199.061 32.5809 198.737 33.078 198.623 33.64C196.623 38.82 194.543 43.96 192.503 49.12C190.973 52.99 189.503 56.86 187.843 61C188.905 60.9332 189.97 60.9332 191.033 61C191.343 61.0874 191.669 61.1067 191.988 61.0566C192.306 61.0065 192.61 60.8881 192.879 60.7096C193.148 60.5311 193.375 60.2966 193.545 60.0223C193.714 59.7479 193.823 59.4401 193.863 59.12C194.233 57.74 194.933 56.45 195.333 55.12C195.653 54.01 196.273 53.76 197.333 53.78C200.473 53.84 203.623 53.89 206.753 53.78C207.021 53.7286 207.297 53.7327 207.563 53.792C207.83 53.8513 208.081 53.9645 208.302 54.1247C208.523 54.2849 208.709 54.4887 208.849 54.7235C208.988 54.9583 209.078 55.2191 209.113 55.49C209.253 55.9922 209.43 56.4835 209.643 56.96C211.333 61.33 211.333 61.33 216.013 60.96C216.182 60.8922 216.343 60.805 216.493 60.7ZM174.073 49.52C176.593 49.52 178.933 49.62 181.263 49.52C183.407 49.4325 185.441 48.5454 186.964 47.0333C188.487 45.5212 189.389 43.4937 189.493 41.35C189.883 37.02 187.073 32.81 182.603 32.29C178.133 31.77 173.673 32.17 169.113 32.17V60.82H174.033L174.073 49.52ZM214.993 31.85C218.093 36.85 220.913 41.58 223.873 46.19C224.949 47.7413 225.487 49.6034 225.403 51.49C225.263 54.6 225.403 57.72 225.403 60.82H230.403C230.503 58.9647 230.503 57.1053 230.403 55.25C229.871 50.8777 231.094 46.4729 233.803 43C236.343 39.56 238.383 35.75 240.803 31.83C239.734 31.9021 238.661 31.9021 237.593 31.83C235.783 31.58 234.783 32.33 233.933 33.91C232.113 37.29 230.083 40.55 228.013 44.07C225.773 40.23 223.703 36.62 221.553 33.07C221.211 32.4982 220.658 32.0848 220.013 31.92C218.493 31.75 216.923 31.85 214.993 31.85Z" fill="#DF2B76"/>
<path d="M29.9424 24.0602C32.9424 24.5902 35.8724 24.9602 38.7124 25.6302C41.5524 26.3002 41.4024 26.4002 40.9224 29.0102C37.7024 29.0102 34.5324 29.0102 31.3724 29.0102C29.9624 29.0102 29.5424 29.5002 29.3724 30.9302C28.3724 42.4502 27.3124 53.9302 24.7324 65.2802C23.7427 69.9862 21.318 74.2696 17.7924 77.5402C14.0824 80.9502 9.62241 81.4302 4.96241 80.7402C3.62132 80.4255 2.39926 79.7311 1.44241 78.7402C-0.717585 76.7402 -0.457586 75.4802 2.26241 73.9402C2.69241 74.5502 3.11241 75.1802 3.56241 75.7902C5.49241 78.3802 7.66242 78.4702 9.32242 75.7902C10.6323 73.7673 11.586 71.535 12.1424 69.1902C13.8824 60.4202 15.3824 51.6002 16.8624 42.7802C17.4424 39.3802 17.7424 35.9302 18.2224 32.1002L10.0724 35.3102L8.49241 32.1302C11.5524 30.4602 14.5824 28.8502 17.5524 27.1302C18.2151 26.7471 18.7001 26.1183 18.9024 25.3802C19.3824 22.1502 19.4224 18.8402 20.1024 15.6602C20.6618 12.6553 21.6308 9.7415 22.9824 7.00016C26.7524 -0.179839 36.8724 -0.209839 41.7424 3.13016C42.4433 3.61264 43.0786 4.18408 43.6324 4.83016C46.0224 7.66016 45.6324 10.4502 42.4224 12.3902C41.928 12.6412 41.3585 12.7017 40.8224 12.5602C39.9524 12.3102 39.1624 11.8102 38.3024 11.5002C36.1324 10.7302 35.0324 9.38016 35.4024 6.94016C35.4924 6.34016 34.9324 5.07016 34.7324 5.08016C33.8062 5.06642 32.9007 5.35423 32.1524 5.90016C31.5118 6.64128 31.1323 7.57235 31.0724 8.55016C30.6224 13.7602 30.3024 19.0002 29.9424 24.0602Z" fill="#DF2B76"/>
<path d="M62.6021 30.8503C62.9021 28.3303 64.4821 28.4203 66.0821 28.8003C68.8021 29.4303 71.4821 30.1803 74.2221 30.9003C71.7821 41.2003 69.3021 51.1703 69.6621 62.1003L75.0721 59.6403L76.5821 62.7203C73.0921 65.9303 69.3021 68.5203 64.5821 69.2003C60.9321 69.7203 59.0021 68.4103 57.4321 64.5103L55.7821 65.7703C53.2621 67.7103 50.6121 69.4003 47.2621 69.2803C44.9785 69.1927 42.7953 68.3187 41.0823 66.8061C39.3693 65.2936 38.2316 63.2354 37.8621 60.9803C36.0241 53.0768 36.9524 44.782 40.4921 37.4803C42.6321 33.1303 45.7421 29.6403 50.8021 28.5603C53.9765 27.9938 57.2485 28.4198 60.1721 29.7803C60.9021 30.0703 61.6021 30.4103 62.6021 30.8503ZM60.9921 34.7503C56.6521 32.6903 54.2821 33.3103 52.6621 37.9203C51.2274 42.1041 50.2223 46.423 49.6621 50.8103C49.4611 53.6658 49.6495 56.5355 50.2221 59.3403C50.2578 59.7217 50.3777 60.0904 50.5731 60.4199C50.7685 60.7494 51.0346 61.0314 51.3522 61.2456C51.6697 61.4599 52.0309 61.601 52.4095 61.6589C52.7882 61.7168 53.175 61.6899 53.5421 61.5803C56.0621 61.1603 57.2521 60.1203 57.3821 58.3003C57.5321 56.3003 57.6321 54.3003 57.9621 52.3003C58.9221 46.4703 59.9621 40.7003 60.9921 34.7503Z" fill="#DF2B76"/>
<path d="M123.972 54.2406C124.212 55.5206 124.342 56.6206 124.652 57.6706C125.802 61.6706 128.862 63.4606 132.812 62.1606C135.347 61.147 137.812 59.9678 140.192 58.6306L142.032 61.1506C137.862 65.3306 133.252 68.5006 127.312 69.0906C118.212 70.0006 112.872 65.4606 111.862 56.3106C111.294 51.8353 111.725 47.2898 113.122 43.0006C116.122 34.0006 124.832 27.9306 133.882 28.3506C141.712 28.7106 145.882 34.0906 144.062 41.5706C143.609 43.3154 142.788 44.9432 141.655 46.3453C140.522 47.7474 139.103 48.8913 137.492 49.7006C133.763 51.879 129.641 53.3027 125.362 53.8906C124.891 53.9759 124.427 54.0928 123.972 54.2406ZM123.832 49.4506C130.692 49.3206 136.142 40.0006 132.892 34.2806C132.722 33.9408 132.477 33.6437 132.176 33.4114C131.876 33.1791 131.526 33.0176 131.155 32.9388C130.783 32.86 130.398 32.866 130.029 32.9563C129.66 33.0467 129.316 33.219 129.022 33.4606C127.982 34.232 127.145 35.2443 126.582 36.4106C124.839 40.541 123.905 44.9679 123.832 49.4506Z" fill="#DF2B76"/>
<path d="M79.7727 58.9399C80.1427 52.6099 80.4527 46.2799 80.9027 39.9399C81.1278 37.0503 80.2686 34.1804 78.4927 31.8899C77.6227 30.7299 77.7327 29.8899 79.1527 29.6099C81.8708 28.9572 84.6418 28.5489 87.4327 28.3899C91.6227 28.3299 93.8827 30.4899 93.7927 34.6699C93.5783 38.8332 93.1444 42.9823 92.4927 47.0999C92.0527 50.4699 91.2927 53.7999 90.9627 57.1699C90.8427 58.4699 91.5227 59.8499 91.8327 61.1699C93.1627 60.7499 94.7327 60.6599 95.7627 59.8599C99.079 57.2752 101.602 53.8099 103.043 49.8599C103.311 49.3004 103.394 48.6697 103.279 48.0598C103.164 47.4499 102.857 46.8928 102.403 46.4699C101.055 45.0453 99.7797 43.5534 98.5827 41.9999C98.0937 41.424 97.8213 40.6953 97.8127 39.9399C98.0976 35.9387 99.75 32.1571 102.493 29.2299C102.817 28.9458 103.194 28.7289 103.603 28.5916C104.011 28.4542 104.443 28.3993 104.873 28.4299C106.532 28.5431 108.08 29.3057 109.18 30.5524C110.281 31.7991 110.846 33.4294 110.753 35.0899C110.676 40.9594 109.334 46.7433 106.818 52.0467C104.301 57.3501 100.67 62.048 96.1727 65.8199C94.0543 67.6984 91.4065 68.8756 88.5927 69.1899C83.4727 69.7799 80.1227 67.0499 79.7427 61.8799C79.7127 60.9099 79.7727 59.9199 79.7727 58.9399Z" fill="#DF2B76"/>
<path d="M216.493 60.7001C216.34 60.7808 216.179 60.8445 216.013 60.8901C211.333 61.2401 211.333 61.2401 209.643 56.8901C209.431 56.4136 209.253 55.9223 209.113 55.4201C209.078 55.1492 208.988 54.8884 208.849 54.6536C208.71 54.4188 208.524 54.215 208.303 54.0548C208.081 53.8946 207.83 53.7814 207.563 53.7221C207.297 53.6628 207.021 53.6587 206.753 53.7101C203.623 53.8401 200.473 53.7901 197.333 53.7101C196.273 53.7101 195.653 53.9401 195.333 55.0501C194.933 56.4301 194.233 57.7201 193.863 59.0501C193.831 59.372 193.73 59.6832 193.567 59.9624C193.404 60.2416 193.182 60.4821 192.917 60.6674C192.652 60.8527 192.35 60.9784 192.031 61.0358C191.713 61.0932 191.386 61.081 191.073 61.0001C190.011 60.9332 188.945 60.9332 187.883 61.0001C189.503 56.8601 191.013 53.0001 192.543 49.1201C194.543 43.9601 196.683 38.8201 198.663 33.6401C198.777 33.0781 199.101 32.581 199.57 32.2501C200.038 31.9193 200.615 31.7798 201.183 31.8601C205.183 31.9601 205.183 31.8601 206.633 35.5901C209.693 43.2901 212.753 50.9934 215.813 58.7001C216.073 59.3001 216.283 60.0001 216.493 60.7001ZM206.693 49.0501C205.173 45.0501 203.783 41.4101 202.173 37.2001L197.703 49.0501H206.693Z" fill="#FEFEFE"/>
<path d="M174.072 49.5204V60.8204H169.152V32.1704C173.712 32.1704 178.232 31.7704 182.642 32.2904C187.052 32.8104 189.922 37.0004 189.492 41.3504C189.384 43.4972 188.474 45.5253 186.943 47.0342C185.412 48.5431 183.371 49.423 181.222 49.5004C178.932 49.6204 176.592 49.5204 174.072 49.5204ZM174.072 45.2204H179.192C179.582 45.2453 179.973 45.2453 180.362 45.2204C181.41 45.1486 182.395 44.6961 183.132 43.9483C183.868 43.2004 184.306 42.2087 184.362 41.1604C184.508 40.1079 184.241 39.04 183.616 38.1805C182.991 37.321 182.058 36.7368 181.012 36.5504C178.689 36.2816 176.352 36.1414 174.012 36.1304L174.072 45.2204Z" fill="#FEFEFE"/>
<path d="M214.992 31.8501C216.922 31.8501 218.492 31.7501 219.992 31.8501C220.637 32.0149 221.191 32.4284 221.532 33.0001C223.682 36.5601 225.752 40.1701 227.992 44.0001C230.062 40.4801 232.092 37.2201 233.912 33.8401C234.762 32.2601 235.762 31.5101 237.572 31.7601C238.641 31.8323 239.713 31.8323 240.782 31.7601C238.342 35.6801 236.302 39.4901 233.782 42.9301C231.068 46.3934 229.835 50.7904 230.352 55.1601C230.453 57.0154 230.453 58.8748 230.352 60.7301H225.352C225.352 57.6301 225.252 54.5101 225.352 51.4001C225.437 49.5135 224.899 47.6515 223.822 46.1001C220.912 41.5801 218.092 36.8801 214.992 31.8501Z" fill="#FEFEFE"/>
<path d="M206.692 49.0502H197.692L202.162 37.2002C203.782 41.4102 205.172 45.0802 206.692 49.0502Z" fill="#DF2B76"/>
<path d="M174.122 45.2201V36.0801C176.461 36.0911 178.798 36.2313 181.122 36.5001C182.172 36.6819 183.11 37.2642 183.738 38.1242C184.367 38.9842 184.637 40.0547 184.492 41.1101C184.436 42.1585 183.998 43.1501 183.261 43.898C182.524 44.6459 181.539 45.0983 180.492 45.1701C180.102 45.195 179.712 45.195 179.322 45.1701L174.122 45.2201Z" fill="#DF2B76"/>
</svg>
