<svg width="800" height="180" viewBox="0 0 800 180" fill="none" xmlns="http://www.w3.org/2000/svg">
<rect width="800" height="180" rx="15" fill="white"/>
<path fill-rule="evenodd" clip-rule="evenodd" d="M248.008 84.3612C248.008 90.6052 247.482 93.7273 245.905 96.2246C243.277 99.3466 240.648 99.9714 234.864 99.9714L218.567 99.3466C218.041 99.3466 218.041 99.9714 217.515 99.9714C217.515 99.9714 217.515 100.596 217.515 101.219V109.961H207V70.0001H234.864C240.648 70.0001 243.277 70.0001 245.379 72.4974C247.482 75.6195 248.008 77.4924 248.008 84.3612ZM234.338 89.9805C235.39 89.9805 236.441 89.9805 237.493 88.7324C238.019 87.4832 238.545 86.2337 238.545 84.3612C238.545 83.113 238.545 81.8636 237.493 80.6144C235.915 79.3663 235.39 79.3662 234.338 79.3662H218.567C218.041 79.3662 218.041 79.3662 218.041 79.3662C217.515 79.9897 217.515 79.9897 217.515 80.6144V88.7324C217.515 89.3571 217.515 89.3571 218.041 89.9805C218.041 89.9805 218.041 89.9805 218.567 89.9805H234.338Z" fill="#E42126"/>
<path fill-rule="evenodd" clip-rule="evenodd" d="M258.525 106.84C256.422 104.343 255.37 101.844 255.37 98.0985V70.0001H265.359V95.5999C265.359 100.596 273.77 100.596 277.451 100.596C280.605 100.596 287.965 101.219 287.965 95.5999V70.0001H298.48V98.0985C298.48 101.844 297.429 103.717 295.852 106.215C292.698 110.585 282.709 109.961 277.451 109.961C271.668 109.961 261.153 110.585 258.525 106.84Z" fill="#E42126"/>
<path fill-rule="evenodd" clip-rule="evenodd" d="M345.27 72.4972C346.848 74.9962 347.373 76.8687 347.373 79.9895C347.373 82.4881 346.848 85.6101 346.322 86.8583C344.745 89.3569 342.642 89.3569 342.642 89.9803C342.642 90.6051 345.27 90.6051 346.322 91.8542C347.898 94.3515 348.426 96.2244 348.426 98.7217C348.426 102.468 347.898 105.59 345.796 108.088C343.693 109.961 338.961 109.961 335.282 109.961H305.314V69.9999H334.755C338.961 69.9999 343.693 69.9999 345.27 72.4972ZM337.909 82.4881C337.909 80.6142 336.859 78.7413 334.755 78.7413H315.303V86.2336H334.755C336.859 86.2336 337.909 84.361 337.909 82.4881ZM338.961 97.4735C338.961 94.9749 337.909 93.7271 334.755 93.7271H315.303V100.596H335.282C338.435 100.596 338.961 99.3464 338.961 97.4735Z" fill="#E42126"/>
<path fill-rule="evenodd" clip-rule="evenodd" d="M389.433 100.596V109.961H354.208V69.9999H364.723V100.596H389.433Z" fill="#E42126"/>
<path fill-rule="evenodd" clip-rule="evenodd" d="M396.267 69.9999H406.781V109.961H396.267V69.9999Z" fill="#E42126"/>
<path fill-rule="evenodd" clip-rule="evenodd" d="M455.676 94.9749C455.676 94.9749 456.727 103.093 454.099 106.215C451.469 109.336 442.532 109.961 435.172 109.961C427.812 109.961 418.349 109.336 416.246 106.215C413.617 101.219 413.617 95.5997 413.617 89.9803C413.617 83.7363 414.143 77.4922 416.772 73.122C418.874 70.6247 427.812 69.9999 435.172 69.9999C443.058 69.9999 450.944 70.6247 453.047 73.122C455.676 76.8687 455.15 83.7363 455.15 83.7363H446.212C446.212 83.7363 446.212 82.4881 445.161 80.6142C443.584 79.3661 439.378 79.366 435.172 79.366C430.44 79.366 426.234 79.366 424.657 81.2389C423.606 83.1128 423.08 86.8583 423.08 89.9803C423.08 93.1024 423.08 96.2244 424.657 98.7217C425.709 100.596 430.44 100.596 435.172 100.596C439.378 100.596 443.584 100.596 445.161 99.3464C446.738 97.4735 446.212 94.9749 446.212 94.9749H455.676Z" fill="#E42126"/>
<path fill-rule="evenodd" clip-rule="evenodd" d="M522.444 72.4972C524.547 74.9962 524.547 76.8687 524.547 79.9895C524.547 82.4881 524.02 85.6101 523.495 86.8583C521.917 89.3569 519.814 89.3569 519.814 89.9803C519.814 90.6051 522.444 90.6051 523.495 91.8542C525.071 94.3515 525.598 96.2244 525.598 98.7217C525.598 102.468 525.071 105.59 522.971 108.088C520.868 109.961 516.135 109.961 512.453 109.961H483.014V69.9999H511.929C516.135 69.9999 520.868 69.9999 522.444 72.4972ZM515.083 82.4881C515.083 80.6142 514.032 78.7413 511.929 78.7413H492.477V86.2336H511.929C514.032 86.2336 515.083 84.361 515.083 82.4881ZM516.135 97.4735C516.135 94.9749 515.083 93.7271 511.929 93.7271H492.477V100.596H512.453C515.61 100.596 516.135 99.3464 516.135 97.4735Z" fill="#E42126"/>
<path fill-rule="evenodd" clip-rule="evenodd" d="M528.753 109.961L547.68 69.9999H562.925L580.801 109.961H569.762L566.08 101.844H543.474L539.792 109.961H528.753ZM547.68 93.7271C547.68 94.3515 547.68 94.3515 548.204 94.3515H561.874C562.401 94.3515 562.401 94.3515 562.401 93.7271C562.925 93.7271 562.925 93.1024 562.925 93.1024L557.144 79.366C557.144 78.7413 556.616 78.7413 556.616 78.7413C556.616 78.1169 556.089 78.1169 556.089 78.1169H554.513C554.513 78.1169 553.989 78.1169 553.989 78.7413C553.989 78.7413 553.989 78.7413 553.462 79.366L547.68 92.4776C547.68 93.1024 547.153 93.1024 547.68 93.7271Z" fill="#E42126"/>
<path fill-rule="evenodd" clip-rule="evenodd" d="M598.677 81.2389C598.15 79.9895 598.15 79.9895 597.098 79.9895C596.047 79.9895 596.047 79.9895 596.047 81.2389V109.961H586.583V69.9999H603.934L620.755 98.7217C621.283 99.9712 621.81 99.9712 622.858 99.9712C623.386 99.9712 623.386 99.9712 623.386 98.7217V69.9999H632.849V109.961H615.498L598.677 81.2389Z" fill="#E42126"/>
<path fill-rule="evenodd" clip-rule="evenodd" d="M651.249 95.5997V109.961H641.261V69.9999H651.249V83.7363V84.361C651.776 84.9854 652.3 84.9854 652.3 84.9854H657.558L670.703 69.9999H685.421L665.97 89.3569L687 109.961H672.279L657.031 94.3515H652.3C651.776 94.3515 651.776 94.3515 651.249 94.3515C651.249 94.9749 651.249 94.9749 651.249 95.5997Z" fill="#E42126"/>
<path fill-rule="evenodd" clip-rule="evenodd" d="M146.591 57.2113L118.736 30H78.3028L50 57.6586V86.207L54.4927 90.2232L50 94.237V122.788L77.8542 150H119.186L146.591 123.235V93.792L142.548 90.2232L146.591 86.6543V57.2113ZM98.5191 141.524L65.2741 108.512L68.8687 104.944L77.8542 113.421H119.186L128.172 104.499L132.214 108.512L98.5191 141.524ZM83.6945 90.2232L98.5191 75.5028L113.795 90.2232L98.5191 104.944L83.6945 90.2232ZM128.172 75.5028L118.736 66.5807H78.3028L68.8687 75.9478L65.2741 71.934L98.5191 38.9221L132.214 71.934L128.172 75.5028Z" fill="#E42126"/>
</svg>
