<svg width="180" height="180" viewBox="0 0 180 180" fill="none" xmlns="http://www.w3.org/2000/svg">
<rect width="180" height="180" rx="15" fill="white"/>
<path fill-rule="evenodd" clip-rule="evenodd" d="M146.689 51.7465L114.192 20H67.0199L34 52.2683V85.5749L39.2415 90.2604L34 94.9431V128.252L66.4966 160H114.717L146.689 128.774V94.424L141.973 90.2604L146.689 86.0967V51.7465ZM90.6056 150.112L51.8198 111.598L56.0135 107.434L66.4966 117.324H114.717L125.2 106.915L129.916 111.598L90.6056 150.112ZM73.3102 90.2604L90.6056 73.0866L108.427 90.2604L90.6056 107.434L73.3102 90.2604ZM125.2 73.0866L114.192 62.6775H67.0199L56.0135 73.6057L51.8198 68.923L90.6056 30.4091L129.916 68.923L125.2 73.0866Z" fill="#E42126"/>
</svg>
