<svg width="180" height="180" viewBox="0 0 180 180" fill="none" xmlns="http://www.w3.org/2000/svg">
<circle cx="90" cy="90" r="90" fill="white"/>
<path d="M167.405 89.9561L144.665 112.715L121.925 89.9561L144.665 67.1969L167.405 89.9561Z" fill="#EF3E42"/>
<path d="M12 114.912L17.0046 79.6749C18.2338 71.8541 26.3991 65.0879 35.1791 65.0879C44.1346 65.0879 48.349 71.3269 47.471 77.3023L46.6808 82.3989C46.0662 86.7047 42.9054 90.9227 37.2863 93.9104L43.1688 103.664C43.8712 105.07 44.1346 106.652 43.8712 108.146C43.2566 111.837 40.4471 114.912 37.4619 114.912C35.8815 114.912 34.3889 114.033 33.6865 112.627L25.0821 97.9525L23.5895 108.234C23.0627 111.924 20.2532 114.912 17.4436 114.912H12ZM32.1939 72.3814C30.2623 72.3814 28.5063 74.3146 28.2429 76.6872L26.7503 87.232C26.4869 89.6046 27.6283 91.5378 29.6477 91.5378C31.6671 91.5378 33.3353 89.6924 33.5987 87.3199L35.0035 76.775C35.1791 74.3146 34.0377 72.4692 32.1939 72.3814ZM53.0902 72.9086C53.7048 68.6028 57.0412 65 60.4654 65C63.8895 65 66.2601 68.6028 65.6455 72.9086L63.1871 90.6591H69.9477L72.4061 72.9086C73.0207 68.6028 76.3571 65 79.7813 65C83.2054 65 85.576 68.6028 84.9614 72.9086L80.2203 107.091C79.6057 111.397 76.1815 115 72.8451 115C69.5087 115 67.0503 111.397 67.6649 107.091L69.2453 96.0193H62.3969L60.9043 107.091C60.2898 111.397 56.9534 115 53.5292 115H47.3832L53.0902 72.9086ZM119.993 79.3234C119.291 83.0141 117.359 86.3532 114.55 88.8137C116.657 91.0105 117.711 94.174 117.272 97.1617L116.745 100.237C115.516 108.146 107.35 114.912 98.6582 114.912H84.8736L89.966 79.587C91.0196 71.7663 99.3606 65 108.141 65C117.096 65 121.398 71.1511 120.432 77.2144L119.993 79.3234ZM102.96 90.4833C100.765 90.4833 98.746 92.6801 98.3948 95.4921L97.429 102.61C96.99 105.334 98.4826 107.619 100.765 107.619C103.048 107.619 105.068 105.422 105.419 102.61L106.385 95.4921C106.736 92.768 105.155 90.4833 102.96 90.4833ZM105.682 72.3814C103.487 72.3814 101.468 74.5782 101.117 77.3902L100.326 82.3111C99.7996 85.0352 101.38 87.3199 103.663 87.3199C105.946 87.3199 107.877 85.123 108.316 82.3111L109.106 77.3902C109.37 74.5782 107.789 72.3814 105.682 72.3814Z" fill="#0067B1"/>
</svg>
