<svg width="800" height="180" viewBox="0 0 800 180" fill="none" xmlns="http://www.w3.org/2000/svg">
<rect width="800" height="180" rx="15" fill="#70CDE3"/>
<path d="M575 90.2058L523.785 141.464L472.57 90.2058L523.785 38.9479L575 90.2058Z" fill="#EF3E42"/>
<path d="M225 146.411L236.271 67.0505C239.04 49.4367 257.429 34.1979 277.203 34.1979C297.373 34.1979 306.865 48.2493 304.887 61.707L303.107 73.1856C301.723 82.883 294.605 92.3825 281.949 99.1114L295.198 121.079C296.78 124.246 297.373 127.808 296.78 131.172C295.396 139.484 289.068 146.411 282.345 146.411C278.785 146.411 275.424 144.432 273.842 141.266L254.463 108.215L251.102 131.37C249.915 139.682 243.588 146.411 237.26 146.411H225ZM270.48 50.6242C266.13 50.6242 262.175 54.9781 261.582 60.3216L258.22 84.0704C257.627 89.4139 260.198 93.7679 264.746 93.7679C269.294 93.7679 273.051 89.6118 273.644 84.2683L276.808 60.5195C277.203 54.9781 274.633 50.8221 270.48 50.6242ZM317.543 51.8116C318.927 42.1142 326.441 34 334.153 34C341.865 34 347.204 42.1142 345.819 51.8116L340.283 91.7888H355.509L361.045 51.8116C362.43 42.1142 369.944 34 377.656 34C385.367 34 390.706 42.1142 389.322 51.8116L378.644 128.797C377.26 138.495 369.548 146.609 362.034 146.609C354.52 146.609 348.983 138.495 350.367 128.797L353.927 103.861H338.503L335.141 128.797C333.757 138.495 326.243 146.609 318.531 146.609H304.689L317.543 51.8116ZM468.221 66.2588C466.639 74.5709 462.289 82.0914 455.961 87.6328C460.707 92.5804 463.079 99.7051 462.091 106.434L460.904 113.361C458.136 131.172 439.746 146.411 420.17 146.411H389.125L400.594 66.8525C402.966 49.2388 421.752 34 441.526 34C461.695 34 471.385 47.8535 469.209 61.5091L468.221 66.2588ZM429.859 91.393C424.916 91.393 420.368 96.3407 419.577 102.674L417.401 118.704C416.413 124.839 419.774 129.985 424.916 129.985C430.057 129.985 434.605 125.037 435.396 118.704L437.571 102.674C438.362 96.5386 434.803 91.393 429.859 91.393ZM435.989 50.6242C431.046 50.6242 426.498 55.5718 425.707 61.9049L423.927 72.9877C422.74 79.1228 426.3 84.2683 431.441 84.2683C436.582 84.2683 440.933 79.3207 441.921 72.9877L443.701 61.9049C444.294 55.5718 440.735 50.6242 435.989 50.6242Z" fill="#0067B1"/>
</svg>
