<svg width="460" height="148" viewBox="0 0 460 148" fill="none" xmlns="http://www.w3.org/2000/svg">
<path d="M460 73.87L392.69 141.237L325.379 73.87L392.69 6.50269L460 73.87Z" fill="#EF3E42"/>
<path d="M0 147.74L14.8135 43.4376C18.452 20.2882 42.6214 0.260111 68.6101 0.260111C95.1185 0.260111 107.593 18.7276 104.994 36.4148L102.655 51.5009C100.836 64.2461 91.4801 76.7311 74.8474 85.5747L92.2598 114.446C94.3389 118.608 95.1185 123.29 94.3389 127.712C92.5197 138.636 84.2033 147.74 75.3671 147.74C70.6892 147.74 66.2711 145.139 64.192 140.977L38.7231 97.5395L34.305 127.972C32.7457 138.896 24.4294 147.74 16.113 147.74H0ZM59.7739 21.8489C54.0564 21.8489 48.8587 27.5712 48.079 34.594L43.661 65.8067C42.8813 72.8295 46.2598 78.5519 52.2372 78.5519C58.2146 78.5519 63.1525 73.0896 63.9321 66.0668L68.0903 34.8541C68.6101 27.5712 65.2316 22.109 59.7739 21.8489ZM121.627 23.4095C123.446 10.6643 133.322 0 143.457 0C153.593 0 160.61 10.6643 158.791 23.4095L151.514 75.9508H171.525L178.802 23.4095C180.621 10.6643 190.497 0 200.633 0C210.768 0 217.785 10.6643 215.966 23.4095L201.932 124.591C200.113 137.336 189.977 148 180.102 148C170.226 148 162.949 137.336 164.768 124.591L169.446 91.8172H149.175L144.757 124.591C142.938 137.336 133.062 148 122.926 148H104.734L121.627 23.4095ZM319.661 42.3972C317.582 53.3216 311.864 63.2056 303.548 70.4886C309.785 76.9912 312.904 86.355 311.604 95.1986L310.045 104.302C306.406 127.712 282.237 147.74 256.508 147.74H215.706L230.779 43.1775C233.898 20.0281 258.587 0 284.576 0C311.084 0 323.819 18.2074 320.96 36.1547L319.661 42.3972ZM269.243 75.4306C262.745 75.4306 256.768 81.9332 255.729 90.2566L252.87 111.325C251.57 119.388 255.988 126.151 262.745 126.151C269.503 126.151 275.48 119.649 276.519 111.325L279.378 90.2566C280.418 82.1933 275.74 75.4306 269.243 75.4306ZM277.299 21.8489C270.802 21.8489 264.825 28.3515 263.785 36.6749L261.446 51.2408C259.887 59.3041 264.565 66.0668 271.322 66.0668C278.079 66.0668 283.796 59.5642 285.096 51.2408L287.435 36.6749C288.214 28.3515 283.536 21.8489 277.299 21.8489Z" fill="#0067B1"/>
</svg>
