<svg width="600" height="140" viewBox="0 0 600 140" fill="none" xmlns="http://www.w3.org/2000/svg">
<path d="M9.43733 60.1686C9.43733 45.9207 9.43733 43.2901 9.25347 40.2958C9.06886 37.1087 8.31985 35.6074 5.2341 34.949C4.48959 34.7638 2.89586 34.6632 1.59901 34.6632C0.559126 34.6632 0 34.4772 0 33.8264C0 33.1657 0.659348 32.9813 2.05189 32.9813C7.01169 32.9813 12.9044 33.2602 14.7724 33.2602C19.3524 33.2602 22.992 32.9813 26.1674 32.9813C43.0882 32.9813 46.0738 42.0677 46.0738 47.0373C46.0738 54.7221 41.6783 59.3227 36.5392 63.4501C44.2065 66.0756 53.5549 72.7286 53.5549 83.7002C53.5549 93.7248 45.7933 104.134 28.6052 104.134C26.358 104.134 17.8476 103.578 15.0467 103.578C12.9044 103.578 7.01169 103.848 3.27639 103.848C2.05189 103.848 1.40912 103.578 1.40912 102.919C1.40912 102.446 1.7776 102.175 2.89586 102.175C4.30498 102.175 5.42398 101.985 6.26267 101.796C8.1292 101.414 8.59865 99.3595 8.96863 96.6291C9.43733 92.702 9.43733 85.2937 9.43733 76.6646V60.1686ZM20.6546 61.756C20.6546 62.5135 20.9348 62.6987 21.3139 62.7948C22.1534 62.9785 23.5512 63.0693 25.7033 63.0693C28.7846 63.0693 30.8417 62.6987 32.4353 61.2904C34.8573 59.3227 36.2665 55.9444 36.2665 51.3566C36.2665 45.074 32.62 36.8169 24.5798 36.8169C23.2707 36.8169 22.4337 36.8169 21.4933 37.0127C20.8451 37.1979 20.6546 37.5691 20.6546 38.601V61.756ZM32.9892 69.2611C31.0331 67.8589 28.8855 67.2019 25.2392 67.0068C23.5512 66.91 22.6228 66.91 21.2144 66.91C20.8451 66.91 20.6546 67.1074 20.6546 67.5738V89.8029C20.6546 95.9841 20.9348 97.5762 23.9309 98.7896C26.4477 99.8214 28.6052 99.9234 30.752 99.9234C34.9582 99.9234 42.0589 97.6662 42.0589 87.9078C42.0589 82.1052 40.0906 74.2208 32.9892 69.2611Z" fill="#656263"/>
<path d="M71.5487 79.3915C71.0786 79.3915 70.8886 79.5715 70.7093 80.1437L65.6544 93.539C64.7269 95.8823 64.2566 98.1372 64.2566 99.2577C64.2566 100.953 65.0962 102.176 67.9928 102.176H69.4018C70.5201 102.176 70.7989 102.355 70.7989 102.919C70.7989 103.669 70.2398 103.848 69.2052 103.848C66.2196 103.848 62.1995 103.578 59.303 103.578C58.2744 103.578 53.1352 103.848 48.277 103.848C47.0571 103.848 46.504 103.669 46.504 102.919C46.504 102.355 46.8733 102.176 47.6223 102.176C48.4557 102.176 49.7759 102.076 50.5188 101.985C54.8193 101.414 56.5969 98.228 58.459 93.539L81.9257 34.6634C83.0388 31.9429 83.5978 30.9209 84.533 30.9209C85.3762 30.9209 85.9407 31.7689 86.8795 33.9166C89.1167 39.0729 104.069 77.3263 110.051 91.5757C113.596 100.018 116.308 101.33 118.277 101.796C119.674 102.076 121.078 102.176 122.196 102.176C122.945 102.176 123.415 102.267 123.415 102.919C123.415 103.669 122.566 103.848 119.11 103.848C115.754 103.848 108.927 103.848 101.452 103.669C99.7747 103.578 98.6445 103.578 98.6445 102.919C98.6445 102.355 99.0137 102.176 99.9526 102.076C100.613 101.883 101.261 101.044 100.803 99.9236L93.3214 80.0417C93.1316 79.5715 92.8529 79.3915 92.3939 79.3915H71.5487ZM90.6042 74.7017C91.0797 74.7017 91.1746 74.4221 91.0797 74.1363L82.6634 50.975C82.5737 50.6046 82.4849 50.133 82.206 50.133C81.9257 50.133 81.7253 50.6046 81.6348 50.975L73.0476 74.0403C72.9457 74.4221 73.0476 74.7017 73.416 74.7017H90.6042Z" fill="#656263"/>
<path d="M133.782 91.1032C133.978 98.4244 135.191 100.864 137.059 101.516C138.646 102.076 140.419 102.175 141.923 102.175C142.946 102.175 143.51 102.355 143.51 102.919C143.51 103.669 142.667 103.848 141.363 103.848C135.28 103.848 131.545 103.578 129.766 103.578C128.928 103.578 124.533 103.848 119.674 103.848C118.461 103.848 117.616 103.763 117.616 102.919C117.616 102.355 118.181 102.175 119.11 102.175C120.328 102.175 122.007 102.076 123.315 101.695C125.746 100.953 126.121 98.2278 126.223 90.0713L127.061 34.562C127.061 32.7002 127.34 31.3879 128.28 31.3879C129.302 31.3879 130.136 32.6042 131.73 34.2944C132.853 35.5174 147.056 50.7897 160.699 64.386C167.063 70.7646 179.677 84.2603 181.263 85.7624H181.733L180.795 43.6718C180.706 37.951 179.86 36.1661 177.619 35.2243C176.221 34.6632 173.972 34.6632 172.665 34.6632C171.541 34.6632 171.165 34.3875 171.165 33.8265C171.165 33.0706 172.194 32.9814 173.592 32.9814C178.458 32.9814 182.941 33.2602 184.898 33.2602C185.938 33.2602 189.483 32.9814 194.069 32.9814C195.277 32.9814 196.216 33.0706 196.216 33.8265C196.216 34.3875 195.657 34.6632 194.528 34.6632C193.598 34.6632 192.85 34.6632 191.726 34.9491C189.114 35.6966 188.366 37.6698 188.276 42.9204L187.235 102.076C187.235 104.134 186.867 104.981 186.028 104.981C185.005 104.981 183.876 103.943 182.846 102.919C176.97 97.2982 165.004 85.0125 155.281 75.3532C145.099 65.2222 134.721 53.5104 133.044 51.7325H132.753L133.782 91.1032Z" fill="#656263"/>
<path d="M213.57 64.0239L217.903 67.7431L240.795 45.1458C243.224 42.6898 244.447 40.7455 244.447 39.251C244.447 37.4149 243.241 36.1502 240.812 35.4872C239.074 35.0133 239.709 33.2534 241.676 33.2534H265.064C267.204 33.2534 267.252 35.3005 265.176 35.3005H263.035C260.913 35.3005 258.506 36.0171 255.77 37.4292C253.037 38.8421 250.548 40.7244 248.262 43.0376L226.45 64.6936L255.444 94.1277C258.878 97.6706 261.841 100.639 266.849 101.323C269.368 101.667 269.474 103.605 266.785 103.605H255.398C250.076 103.605 248.847 101.732 245.128 97.9632L216.68 69.1152L214.457 66.9365C212.463 66.2668 211.24 65.4753 213.57 64.0239Z" fill="#656263"/>
<path d="M206.157 60.1688C206.157 45.9209 206.157 43.2903 205.964 40.296C205.78 37.1089 204.847 35.5176 202.8 35.04C201.766 34.764 200.547 34.6634 199.43 34.6634C198.494 34.6634 197.937 34.4774 197.937 33.727C197.937 33.1659 198.68 32.9815 200.184 32.9815C203.718 32.9815 209.61 33.2604 212.33 33.2604C214.654 33.2604 220.179 32.9815 223.73 32.9815C224.942 32.9815 225.683 33.1659 225.683 33.727C225.683 34.4774 225.121 34.6634 224.188 34.6634C223.254 34.6634 222.517 34.764 221.392 34.9492C218.869 35.4156 218.121 37.0129 217.932 40.296C217.741 43.2903 217.741 45.9209 217.741 60.1688V76.6648C217.741 85.7626 217.741 93.1694 218.121 97.2076C218.4 99.7361 219.049 101.414 221.863 101.796C223.165 101.985 225.222 102.176 226.62 102.176C227.654 102.176 228.119 102.446 228.119 102.919C228.119 103.578 227.371 103.848 226.34 103.848C220.179 103.848 214.286 103.578 211.768 103.578C209.61 103.578 203.718 103.848 199.993 103.848C198.774 103.848 198.12 103.578 198.12 102.919C198.12 102.446 198.494 102.176 199.613 102.176C201.021 102.176 202.14 101.985 202.978 101.796C204.847 101.414 205.416 99.8216 205.692 97.1054C206.157 93.1694 206.157 85.7626 206.157 76.6648V60.1688Z" fill="#656263"/>
<path d="M458.189 79.3915C457.728 79.3915 457.527 79.5715 457.348 80.1437L452.305 93.539C451.366 95.8823 450.897 98.1372 450.897 99.2577C450.897 100.953 451.734 102.176 454.643 102.176H456.046C457.159 102.176 457.436 102.355 457.436 102.919C457.436 103.669 456.881 103.848 455.857 103.848C452.865 103.848 448.85 103.578 445.947 103.578C444.925 103.578 439.774 103.848 434.92 103.848C433.707 103.848 433.142 103.669 433.142 102.919C433.142 102.355 433.518 102.176 434.268 102.176C435.106 102.176 436.415 102.076 437.164 101.985C441.458 101.414 443.237 98.228 445.104 93.539L468.565 34.6634C469.69 31.9429 470.242 30.9209 471.175 30.9209C472.026 30.9209 472.582 31.7689 473.519 33.9166C475.755 39.0729 490.719 77.3263 496.691 91.5757C500.246 100.018 502.953 101.33 504.916 101.796C506.325 102.076 507.718 102.176 508.846 102.176C509.589 102.176 510.054 102.267 510.054 102.919C510.054 103.669 509.214 103.848 505.76 103.848C502.393 103.848 495.572 103.848 488.097 103.669C486.419 103.578 485.284 103.578 485.284 102.919C485.284 102.355 485.664 102.176 486.592 102.076C487.258 101.883 487.912 101.044 487.443 99.9236L479.966 80.0417C479.781 79.5715 479.491 79.3915 479.021 79.3915H458.189ZM477.256 74.7017C477.724 74.7017 477.815 74.4221 477.724 74.1363L469.314 50.975C469.215 50.6046 469.125 50.133 468.843 50.133C468.565 50.133 468.374 50.6046 468.276 50.975L459.684 74.0403C459.595 74.4221 459.684 74.7017 460.068 74.7017H477.256Z" fill="#656263"/>
<path d="M325.67 60.1688C325.67 45.9209 325.67 43.2903 325.479 40.296C325.294 37.1089 324.36 35.5176 322.313 35.04C321.281 34.764 320.06 34.6634 318.943 34.6634C318.008 34.6634 317.45 34.4774 317.45 33.727C317.45 33.1659 318.193 32.9815 319.697 32.9815C323.231 32.9815 329.125 33.2604 331.843 33.2604C334.169 33.2604 339.692 32.9815 343.244 32.9815C344.457 32.9815 345.196 33.1659 345.196 33.727C345.196 34.4774 344.636 34.6634 343.701 34.6634C342.767 34.6634 342.03 34.764 340.906 34.9492C338.384 35.4156 337.634 37.0129 337.445 40.296C337.254 43.2903 337.254 45.9209 337.254 60.1688V76.6648C337.254 85.7626 337.254 93.1694 337.634 97.2076C337.916 99.7361 338.562 101.414 341.376 101.796C342.678 101.985 344.737 102.176 346.133 102.176C347.167 102.176 347.632 102.446 347.632 102.919C347.632 103.578 346.884 103.848 345.856 103.848C339.692 103.848 333.801 103.578 331.283 103.578C329.125 103.578 323.231 103.848 319.508 103.848C318.289 103.848 317.635 103.578 317.635 102.919C317.635 102.446 318.008 102.176 319.126 102.176C320.537 102.176 321.655 101.985 322.493 101.796C324.36 101.414 324.931 99.8216 325.205 97.1054C325.67 93.1694 325.67 85.7626 325.67 76.6648V60.1688Z" fill="#656263"/>
<path d="M350.854 102.727C349.361 102.076 349.073 101.606 349.073 99.5397C349.073 94.3857 349.446 88.7577 349.544 87.267C349.644 85.8586 349.92 84.8327 350.665 84.8327C351.512 84.8327 351.602 85.6742 351.602 86.4142C351.602 87.6374 351.984 89.6103 352.441 91.1993C354.5 98.1372 360.013 100.674 365.804 100.674C374.215 100.674 378.335 94.9511 378.335 89.9771C378.335 85.3823 376.933 80.9852 369.172 74.9829L364.876 71.6008C354.594 63.5403 351.043 56.9765 351.043 49.3824C351.043 39.073 359.637 31.6685 372.631 31.6685C378.7 31.6685 382.629 32.6043 385.058 33.2604C385.899 33.4518 386.366 33.727 386.366 34.3876C386.366 35.6076 385.99 38.3215 385.99 45.6298C385.99 47.6997 385.712 48.4405 384.973 48.4405C384.313 48.4405 384.026 47.8893 384.026 46.7631C384.026 45.9209 383.563 43.0105 381.607 40.5756C380.197 38.791 377.484 35.9826 371.414 35.9826C364.498 35.9826 360.291 40.0148 360.291 45.6298C360.291 49.9432 362.438 53.2301 370.2 59.1429L372.81 61.1046C384.026 69.8229 388.143 76.1092 388.143 85.0127C388.143 90.4531 386.084 96.9225 379.36 101.33C374.685 104.331 369.452 105.173 364.498 105.173C359.077 105.173 354.878 104.508 350.854 102.727Z" fill="#656263"/>
<path d="M409.005 76.6646C409.005 88.6691 409.005 95.1307 410.961 96.8256C412.555 98.2278 414.978 98.884 422.268 98.884C427.227 98.884 430.867 98.7896 433.205 96.264C434.324 95.0469 435.451 92.417 435.632 90.6329C435.725 89.8029 435.918 89.2359 436.66 89.2359C437.316 89.2359 437.415 89.6955 437.415 90.8235C437.415 91.8554 436.763 98.884 436.012 101.605C435.451 103.669 434.984 104.134 430.123 104.134C416.666 104.134 410.493 103.578 402.921 103.578C400.776 103.578 394.892 103.848 391.15 103.848C389.938 103.848 389.277 103.578 389.277 102.919C389.277 102.446 389.659 102.175 390.778 102.175C392.18 102.175 393.303 101.985 394.14 101.796C396.011 101.414 396.48 99.3595 396.848 96.6291C397.317 92.702 397.317 85.2937 397.317 76.6646V60.1686C397.317 45.9207 397.317 43.2901 397.14 40.2958C396.951 37.1087 396.2 35.6074 393.114 34.949C392.369 34.7638 391.235 34.6632 390.033 34.6632C389.005 34.6632 388.44 34.4772 388.44 33.8264C388.44 33.1657 389.101 32.9813 390.498 32.9813C394.892 32.9813 400.776 33.2602 403.301 33.2602C405.545 33.2602 412.37 32.9813 416.012 32.9813C417.318 32.9813 417.974 33.1657 417.974 33.8264C417.974 34.4772 417.414 34.6632 416.284 34.6632C415.261 34.6632 413.768 34.7638 412.645 34.949C410.116 35.4154 409.374 37.0127 409.185 40.2958C409.005 43.2901 409.005 45.9207 409.005 60.1686V76.6646Z" fill="#656263"/>
<path d="M520.845 33.3504C521.115 31.7689 521.684 30.9209 522.434 30.9209C523.183 30.9209 523.742 31.3881 524.952 33.8266L550.469 86.7L575.887 33.1659C576.545 31.6685 577.108 30.9209 577.945 30.9209C578.79 30.9209 579.344 31.8581 579.621 33.8266L588.132 91.7671C588.972 97.6664 589.913 100.382 592.718 101.224C595.424 102.076 597.292 102.176 598.505 102.176C599.346 102.176 600 102.267 600 102.828C600 103.578 598.875 103.848 597.571 103.848C595.235 103.848 582.334 103.578 578.601 103.293C576.454 103.105 575.887 102.828 575.887 102.267C575.887 101.796 576.263 101.516 576.919 101.224C577.476 101.044 577.756 99.8216 577.388 97.2076L571.772 55.9446H571.404L551.029 98.5138C548.88 102.919 548.417 103.763 547.574 103.763C546.729 103.763 545.795 101.883 544.298 99.0746C542.059 94.762 534.672 80.4121 533.55 77.7874C532.71 75.8205 527.105 64.0113 523.831 56.9765H523.457L518.611 94.2897C518.42 95.9843 518.318 97.2076 518.318 98.7006C518.318 100.473 519.533 101.33 521.115 101.695C522.809 102.076 524.113 102.176 525.05 102.176C525.795 102.176 526.454 102.355 526.454 102.828C526.454 103.669 525.61 103.848 524.207 103.848C520.287 103.848 516.076 103.578 514.404 103.578C512.621 103.578 508.136 103.848 505.146 103.848C504.205 103.848 503.456 103.669 503.456 102.828C503.456 102.355 504.016 102.176 504.949 102.176C505.711 102.176 506.352 102.176 507.756 101.883C510.38 101.33 511.126 97.6664 511.599 94.4809L520.845 33.3504Z" fill="#656263"/>
<path d="M387.278 134.403C329.653 133.621 282.696 101.896 282.495 64.538C282.293 28.2576 326.509 0.27961 381.196 1.12084C387.921 1.21547 394.508 1.7552 400.901 2.663C392.188 1.08678 383.085 0.166211 373.736 0.0195229C315.675 -0.865638 268.544 28.4428 268.544 66.5127C268.544 105.767 318.353 139.164 379.697 139.984C429.59 140.656 470.031 119.476 481.401 90.3193C469.182 116.42 432.335 135.013 387.278 134.403Z" fill="#C40070"/>
</svg>
