<svg width="180" height="180" viewBox="0 0 180 180" fill="none" xmlns="http://www.w3.org/2000/svg">
<rect width="180" height="180" rx="15" fill="#1E4BC6"/>
<path d="M42.9787 62.86C39.724 62.86 36.8907 63.8733 34.564 66.256C32.184 68.74 31.26 72.284 31.26 75.816C31.26 79.5773 32.1587 83.2453 34.476 85.7266C36.812 88.2146 39.6947 89.0866 43.044 89.0866C46.4427 89.0866 49.2027 87.7066 51.304 85.5813C53.7107 83.1306 54.8533 79.8013 54.8533 76.2266C54.8533 72.3106 53.7 68.832 51.3667 66.3546C49.3613 64.2226 46.4627 62.86 42.9787 62.86ZM23 111.272V55.9053H31.9213V59.9746C33.1533 57.9893 35.5467 56.5813 37.4267 55.9426C39.3147 55.3213 41.2707 55 43.2653 55C48.1947 55 53.4627 56.664 57.744 61.112C61.6947 65.2226 63.7853 70.22 63.7853 76.1373C63.7853 78.8546 63.2653 81.5293 62.2307 84.0946C61.2293 86.672 59.7907 88.9413 57.9507 90.8293C56.0053 92.868 53.7907 94.4066 51.356 95.448C48.9267 96.48 46.6533 97.0053 43.672 97.0053C41.5027 97.0053 39.4107 96.6746 37.432 95.9853C35.4867 95.3573 32.76 93.792 31.776 92.084V111.272H23Z" fill="white"/>
<path d="M124.743 124.365L132.272 106.907L115 69H124.401L136.675 97.4587L147.993 69H157.449L133.972 124.365H124.743Z" fill="white"/>
<path d="M81.424 80.3547C79.0907 82.8307 77.948 86.3107 77.948 90.2267C77.948 93.8 79.0907 97.1307 81.4973 99.5814C83.596 101.707 86.3533 103.087 89.752 103.087C93.1093 103.087 95.984 102.215 98.3093 99.7267C100.645 97.2454 101.525 93.5774 101.525 89.816C101.525 86.284 100.612 82.7454 98.2387 80.256C95.896 77.8574 93.072 76.86 89.82 76.86C86.328 76.86 83.4347 78.2227 81.424 80.3547ZM101.017 110.273V106.084C100.036 107.792 97.3093 109.357 95.3693 109.985C93.388 110.675 91.276 111.005 89.1267 111.005C86.1453 111.005 83.8747 110.48 81.4347 109.448C79.0067 108.407 76.7933 106.868 74.8507 104.827C73.0027 102.94 71.564 100.672 70.5693 98.1C69.5307 95.5187 69 92.8547 69 90.1374C69 84.2187 71.0907 79.2227 75.0467 75.112C79.336 70.664 84.6013 69 89.5413 69C91.5227 69 93.4787 69.3214 95.3693 69.9494C97.2573 70.5814 99.656 71.9894 100.888 73.9747V69.9054H109.796V110.273H101.017Z" fill="white"/>
</svg>
