<svg width="180" height="180" viewBox="0 0 180 180" fill="none" xmlns="http://www.w3.org/2000/svg">
<rect width="180" height="180" rx="15" fill="#1E4CC6"/>
<path d="M59.8563 93.9192C57.6889 93.9192 55.8021 94.5698 54.2526 96.0994C52.6677 97.6942 52.0524 99.9695 52.0524 102.237C52.0524 104.652 52.6508 107.007 54.194 108.6C55.7497 110.197 57.6693 110.757 59.8998 110.757C62.1631 110.757 64.0011 109.871 65.4004 108.506C67.0031 106.933 67.7641 104.796 67.7641 102.501C67.7641 99.9866 66.996 97.7533 65.4422 96.1628C64.1067 94.794 62.1764 93.9192 59.8563 93.9192ZM46.5518 125V89.4543H52.4928V92.0668C53.3132 90.7922 54.907 89.8882 56.159 89.4782C57.4163 89.0793 58.7189 88.873 60.0472 88.873C63.3298 88.873 66.838 89.9413 69.6891 92.797C72.32 95.436 73.7122 98.6444 73.7122 102.443C73.7122 104.188 73.3659 105.905 72.6769 107.552C72.0101 109.207 71.052 110.664 69.8267 111.876C68.5312 113.185 67.0564 114.172 65.4351 114.841C63.8173 115.503 62.3034 115.841 60.318 115.841C58.8734 115.841 57.4802 115.628 56.1626 115.186C54.8671 114.783 53.0513 113.778 52.396 112.681V125H46.5518Z" fill="white"/>
<path d="M114.44 125L119.454 113.791L107.952 89.4549H114.213L122.386 107.726L129.924 89.4549H136.221L120.586 125H114.44Z" fill="white"/>
<path d="M85.4787 96.163C83.9248 97.7526 83.1639 99.9868 83.1639 102.501C83.1639 104.795 83.9248 106.933 85.5275 108.507C86.9251 109.871 88.7613 110.757 91.0246 110.757C93.2604 110.757 95.1747 110.197 96.7232 108.6C98.2789 107.007 98.8649 104.652 98.8649 102.237C98.8649 99.9697 98.2567 97.6978 96.6762 96.0997C95.1161 94.5597 93.2355 93.9194 91.0699 93.9194C88.7444 93.9194 86.8177 94.7943 85.4787 96.163ZM98.5266 115.371V112.681C97.8731 113.778 96.0573 114.783 94.7654 115.186C93.4459 115.629 92.0395 115.841 90.6082 115.841C88.6228 115.841 87.1107 115.504 85.4858 114.841C83.8689 114.173 82.3949 113.185 81.1013 111.874C79.8706 110.663 78.9125 109.207 78.2502 107.556C77.5585 105.898 77.2051 104.188 77.2051 102.444C77.2051 98.6437 78.5973 95.4363 81.2318 92.7972C84.0882 89.9415 87.5946 88.8733 90.8843 88.8733C92.2037 88.8733 93.5063 89.0795 94.7654 89.4827C96.0227 89.8885 97.62 90.7924 98.4405 92.067V89.4545H104.373V115.371H98.5266Z" fill="white"/>
<path d="M142.442 73.0097L142.136 55.7046H147.802V77.5397H139.656L134.015 59.614H133.87L134.192 77.5397H128.575V55.7046H137.056L142.318 73.0097H142.442Z" fill="white"/>
<path d="M39.5399 57.7372L36.4162 77.7395H30.2407L34.4743 55.7041H44.6578L48.8852 77.7395H42.7293L39.6766 57.7372H39.5399Z" fill="white"/>
<path d="M66.2054 72.5613L69.0343 55.7047H78.3521L78.8635 77.7393H73.1391L72.9793 57.9252H72.8683L69.0441 77.7393H63.2558L59.4173 57.9252H59.2894L59.1474 77.7393H53.4292L53.9495 55.7047H63.2762L66.0909 72.5613H66.2054Z" fill="white"/>
<path d="M114.155 74.4341C115.763 74.4341 116.241 73.3847 116.358 72.8531C116.405 72.6168 116.405 72.2933 116.405 72.0091V55.7047H122.211V71.5032C122.211 71.9149 122.165 72.7401 122.146 72.9601C121.755 77.0775 118.363 78.4 114.155 78.4C109.955 78.4 106.579 77.0775 106.192 72.9601C106.163 72.7401 106.121 71.9149 106.135 71.5032V55.7047H111.922V72.0091C111.902 72.2933 111.931 72.6168 111.967 72.8531C112.076 73.3847 112.573 74.4341 114.155 74.4341Z" fill="white"/>
<path d="M20.615 71.5203C20.8299 72.0553 20.7678 72.7401 20.6603 73.1518C20.4765 73.8872 19.9615 74.6422 18.421 74.6422C16.9959 74.6422 16.139 73.8444 16.139 72.6382L16.1213 70.4999H10V72.2008C10 77.1246 14.0027 78.6003 18.2914 78.6003C22.4468 78.6003 25.8475 77.2444 26.3829 73.5721C26.6653 71.6607 26.4628 70.4152 26.3687 69.9504C25.4062 65.3228 16.7215 63.9669 16.0733 61.3817C15.9624 60.9246 15.981 60.4726 16.0467 60.2261C16.2119 59.5045 16.71 58.7367 18.1333 58.7367C19.4865 58.7367 20.2696 59.5473 20.2696 60.7243V62.1051H25.9772V60.5574C25.9772 55.7501 21.4958 55.0002 18.2532 55.0002C14.1954 55.0002 10.8684 56.303 10.2619 59.9025C10.1057 60.8758 10.0835 61.7549 10.3072 62.8609C11.3079 67.3781 19.4341 68.6706 20.615 71.5203Z" fill="white"/>
<path d="M94.9618 71.4929C95.1909 72.015 95.095 72.6887 95.0071 73.1013C94.8331 73.8238 94.3065 74.5591 92.806 74.5591C91.3844 74.5591 90.5294 73.7758 90.5294 72.58V70.4597H84.4507V72.1563C84.4507 77.0338 88.4259 78.4813 92.6879 78.4813C96.7652 78.4813 100.138 77.1417 100.679 73.4994C100.953 71.6178 100.754 70.3835 100.65 69.9058C99.6962 65.345 91.1065 63.9942 90.4734 61.4228C90.3678 60.9956 90.3971 60.5325 90.4459 60.2937C90.5986 59.5952 91.0958 58.8299 92.513 58.8299C93.8519 58.8299 94.6253 59.6132 94.6253 60.7851V62.1444H100.265V60.6156C100.265 55.8656 95.8355 55.1217 92.6435 55.1217C88.6132 55.1217 85.3129 56.3877 84.7286 59.9667C84.5448 60.9246 84.5217 61.7926 84.773 62.9045C85.755 67.378 93.7969 68.6586 94.9618 71.4929Z" fill="white"/>
<path d="M161.856 74.2122C163.502 74.2122 164.085 73.2175 164.19 72.6166C164.227 72.3684 164.243 72.0542 164.241 71.7752V68.5865H161.905V65.3542H170V71.2753C170 71.6879 169.982 71.9917 169.918 72.7322C169.538 76.722 165.924 78.1738 161.865 78.1738C157.82 78.1738 154.224 76.722 153.852 72.7322C153.763 71.9917 153.763 71.6879 153.763 71.2753V62.0047C153.763 61.6075 153.809 60.9124 153.868 60.5563C154.365 56.4132 157.82 55.1061 161.865 55.1061C165.924 55.1061 169.492 56.3995 169.898 60.5563C169.982 61.2368 169.941 62.0047 169.941 62.0047L169.955 62.722H164.19V61.4911C164.19 61.4911 164.19 60.9604 164.11 60.6471C164.014 60.1754 163.568 59.0574 161.82 59.0574C160.179 59.0574 159.682 60.1163 159.551 60.6471C159.48 60.9424 159.467 61.337 159.467 61.6957V71.7752C159.467 72.0542 159.48 72.3684 159.507 72.6166C159.619 73.2175 160.195 74.2122 161.856 74.2122Z" fill="white"/>
</svg>
