<svg width="180" height="180" viewBox="0 0 180 180" fill="none" xmlns="http://www.w3.org/2000/svg">
<circle cx="90" cy="90" r="90" fill="white"/>
<path d="M59.8563 101.919C57.6889 101.919 55.8021 102.57 54.2526 104.099C52.6677 105.694 52.0524 107.969 52.0524 110.237C52.0524 112.652 52.6508 115.007 54.194 116.6C55.7497 118.197 57.6693 118.757 59.8998 118.757C62.1631 118.757 64.0011 117.871 65.4004 116.506C67.0031 114.933 67.7641 112.796 67.7641 110.501C67.7641 107.987 66.996 105.753 65.4422 104.163C64.1067 102.794 62.1764 101.919 59.8563 101.919ZM46.5518 133V97.4543H52.4928V100.067C53.3132 98.7922 54.907 97.8882 56.159 97.4782C57.4163 97.0793 58.7189 96.873 60.0472 96.873C63.3298 96.873 66.838 97.9413 69.6891 100.797C72.32 103.436 73.7122 106.644 73.7122 110.443C73.7122 112.188 73.3659 113.905 72.6769 115.552C72.0101 117.207 71.052 118.664 69.8267 119.876C68.5312 121.185 67.0564 122.172 65.4351 122.841C63.8173 123.503 62.3034 123.841 60.318 123.841C58.8734 123.841 57.4802 123.628 56.1626 123.186C54.8671 122.783 53.0513 121.778 52.396 120.681V133H46.5518Z" fill="#1E4CC6"/>
<path d="M114.44 133L119.454 121.791L107.952 97.4549H114.213L122.386 115.726L129.924 97.4549H136.221L120.586 133H114.44Z" fill="#1E4CC6"/>
<path d="M85.4787 104.163C83.9248 105.753 83.1639 107.987 83.1639 110.501C83.1639 112.795 83.9248 114.933 85.5275 116.507C86.9251 117.871 88.7613 118.757 91.0246 118.757C93.2604 118.757 95.1747 118.197 96.7232 116.6C98.2789 115.007 98.8649 112.652 98.8649 110.237C98.8649 107.97 98.2567 105.698 96.6762 104.1C95.1161 102.56 93.2355 101.919 91.0699 101.919C88.7444 101.919 86.8177 102.794 85.4787 104.163ZM98.5266 123.371V120.681C97.8731 121.778 96.0573 122.783 94.7654 123.186C93.4459 123.629 92.0395 123.841 90.6082 123.841C88.6228 123.841 87.1107 123.504 85.4858 122.841C83.8689 122.173 82.3949 121.185 81.1013 119.874C79.8706 118.663 78.9125 117.207 78.2502 115.556C77.5585 113.898 77.2051 112.188 77.2051 110.444C77.2051 106.644 78.5973 103.436 81.2318 100.797C84.0882 97.9415 87.5946 96.8733 90.8843 96.8733C92.2037 96.8733 93.5063 97.0795 94.7654 97.4827C96.0227 97.8885 97.62 98.7924 98.4405 100.067V97.4545H104.373V123.371H98.5266Z" fill="#1E4CC6"/>
<path d="M142.442 81.0097L142.136 63.7046H147.802V85.5397H139.656L134.015 67.614H133.87L134.192 85.5397H128.575V63.7046H137.056L142.318 81.0097H142.442Z" fill="#1E4CC6"/>
<path d="M39.5399 65.7372L36.4162 85.7395H30.2407L34.4743 63.7041H44.6578L48.8852 85.7395H42.7293L39.6766 65.7372H39.5399Z" fill="#1E4CC6"/>
<path d="M66.2054 80.5613L69.0343 63.7047H78.3521L78.8635 85.7393H73.1391L72.9793 65.9252H72.8683L69.0441 85.7393H63.2558L59.4173 65.9252H59.2894L59.1474 85.7393H53.4292L53.9495 63.7047H63.2762L66.0909 80.5613H66.2054Z" fill="#1E4CC6"/>
<path d="M114.155 82.4341C115.763 82.4341 116.241 81.3847 116.358 80.8531C116.405 80.6168 116.405 80.2933 116.405 80.0091V63.7047H122.211V79.5032C122.211 79.9149 122.165 80.7401 122.146 80.9601C121.755 85.0775 118.363 86.4 114.155 86.4C109.955 86.4 106.579 85.0775 106.192 80.9601C106.163 80.7401 106.121 79.9149 106.135 79.5032V63.7047H111.922V80.0091C111.902 80.2933 111.931 80.6168 111.967 80.8531C112.076 81.3847 112.573 82.4341 114.155 82.4341Z" fill="#1E4CC6"/>
<path d="M20.615 79.5203C20.8299 80.0553 20.7678 80.7401 20.6603 81.1518C20.4765 81.8872 19.9615 82.6422 18.421 82.6422C16.9959 82.6422 16.139 81.8444 16.139 80.6382L16.1213 78.4999H10V80.2008C10 85.1246 14.0027 86.6003 18.2914 86.6003C22.4468 86.6003 25.8475 85.2444 26.3829 81.5721C26.6653 79.6607 26.4628 78.4152 26.3687 77.9504C25.4062 73.3228 16.7215 71.9669 16.0733 69.3817C15.9624 68.9246 15.981 68.4726 16.0467 68.2261C16.2119 67.5045 16.71 66.7367 18.1333 66.7367C19.4865 66.7367 20.2696 67.5473 20.2696 68.7243V70.1051H25.9772V68.5574C25.9772 63.7501 21.4958 63.0002 18.2532 63.0002C14.1954 63.0002 10.8684 64.303 10.2619 67.9025C10.1057 68.8758 10.0835 69.7549 10.3072 70.8609C11.3079 75.3781 19.4341 76.6706 20.615 79.5203Z" fill="#1E4CC6"/>
<path d="M94.9618 79.4929C95.1909 80.015 95.095 80.6887 95.0071 81.1013C94.8331 81.8238 94.3065 82.5591 92.806 82.5591C91.3844 82.5591 90.5294 81.7758 90.5294 80.58V78.4597H84.4507V80.1563C84.4507 85.0338 88.4259 86.4813 92.6879 86.4813C96.7652 86.4813 100.138 85.1417 100.679 81.4994C100.953 79.6178 100.754 78.3835 100.65 77.9058C99.6962 73.345 91.1065 71.9942 90.4734 69.4228C90.3678 68.9956 90.3971 68.5325 90.4459 68.2937C90.5986 67.5952 91.0958 66.8299 92.513 66.8299C93.8519 66.8299 94.6253 67.6132 94.6253 68.7851V70.1444H100.265V68.6156C100.265 63.8656 95.8355 63.1217 92.6435 63.1217C88.6132 63.1217 85.3129 64.3877 84.7286 67.9667C84.5448 68.9246 84.5217 69.7926 84.773 70.9045C85.755 75.378 93.7969 76.6586 94.9618 79.4929Z" fill="#1E4CC6"/>
<path d="M161.856 82.2122C163.502 82.2122 164.085 81.2175 164.19 80.6166C164.227 80.3684 164.243 80.0542 164.241 79.7752V76.5865H161.905V73.3542H170V79.2753C170 79.6879 169.982 79.9917 169.918 80.7322C169.538 84.722 165.924 86.1738 161.865 86.1738C157.82 86.1738 154.224 84.722 153.852 80.7322C153.763 79.9917 153.763 79.6879 153.763 79.2753V70.0047C153.763 69.6075 153.809 68.9124 153.868 68.5563C154.365 64.4132 157.82 63.1061 161.865 63.1061C165.924 63.1061 169.492 64.3995 169.898 68.5563C169.982 69.2368 169.941 70.0047 169.941 70.0047L169.955 70.722H164.19V69.4911C164.19 69.4911 164.19 68.9604 164.11 68.6471C164.014 68.1754 163.568 67.0574 161.82 67.0574C160.179 67.0574 159.682 68.1163 159.551 68.6471C159.48 68.9424 159.467 69.337 159.467 69.6957V79.7752C159.467 80.0542 159.48 80.3684 159.507 80.6166C159.619 81.2175 160.195 82.2122 161.856 82.2122Z" fill="#1E4CC6"/>
</svg>
