<svg width="241" height="110" viewBox="0 0 241 110" fill="none" xmlns="http://www.w3.org/2000/svg">
<path d="M74.8664 60.6212C71.6117 60.6212 68.7784 61.6345 66.4517 64.0172C64.0717 66.5012 63.1477 70.0452 63.1477 73.5772C63.1477 77.3385 64.0464 81.0065 66.3637 83.4879C68.6997 85.9759 71.5824 86.8479 74.9317 86.8479C78.3304 86.8479 81.0904 85.4679 83.1917 83.3425C85.5984 80.8919 86.741 77.5625 86.741 73.9879C86.741 70.0719 85.5877 66.5932 83.2544 64.1159C81.249 61.9839 78.3504 60.6212 74.8664 60.6212ZM54.8877 109.033V53.6665H63.809V57.7359C65.041 55.7505 67.4344 54.3425 69.3144 53.7039C71.2024 53.0825 73.1584 52.7612 75.153 52.7612C80.0824 52.7612 85.3504 54.4252 89.6317 58.8732C93.5824 62.9839 95.673 67.9812 95.673 73.8985C95.673 76.6159 95.153 79.2905 94.1184 81.8559C93.117 84.4332 91.6784 86.7025 89.8384 88.5905C87.893 90.6292 85.6784 92.1679 83.2437 93.2092C80.8144 94.2412 78.541 94.7665 75.5597 94.7665C73.3904 94.7665 71.2984 94.4359 69.3197 93.7465C67.3744 93.1185 64.6477 91.5532 63.6637 89.8452V109.033H54.8877Z" fill="#164193"/>
<path d="M156.832 109.033L164.361 91.574L147.089 53.6674H156.491L168.764 82.126L180.083 53.6674H189.539L166.061 109.033H156.832Z" fill="#164193"/>
<path d="M113.342 64.1161C111.009 66.5921 109.866 70.0721 109.866 73.9881C109.866 77.5614 111.009 80.8921 113.416 83.3427C115.514 85.4681 118.272 86.8481 121.67 86.8481C125.028 86.8481 127.902 85.9761 130.228 83.4881C132.564 81.0067 133.444 77.3387 133.444 73.5774C133.444 70.0454 132.53 66.5067 130.157 64.0174C127.814 61.6187 124.99 60.6214 121.738 60.6214C118.246 60.6214 115.353 61.9841 113.342 64.1161ZM132.936 94.0347V89.8454C131.954 91.5534 129.228 93.1187 127.288 93.7467C125.306 94.4361 123.194 94.7667 121.045 94.7667C118.064 94.7667 115.793 94.2414 113.353 93.2094C110.925 92.1681 108.712 90.6294 106.769 88.5881C104.921 86.7014 103.482 84.4334 102.488 81.8614C101.449 79.2801 100.918 76.6161 100.918 73.8987C100.918 67.9801 103.009 62.9841 106.965 58.8734C111.254 54.4254 116.52 52.7614 121.46 52.7614C123.441 52.7614 125.397 53.0827 127.288 53.7107C129.176 54.3427 131.574 55.7507 132.806 57.7361V53.6667H141.714V94.0347H132.936Z" fill="#164193"/>
<path d="M198.88 28.0522L198.422 1.09749H206.93V35.1082H194.698L186.227 7.18682H186.008L186.492 35.1082H178.058V1.09749H190.792L198.695 28.0522H198.88Z" fill="#164193"/>
<path d="M44.3585 4.26319L39.6679 35.4192H30.3945L36.7519 1.09652H52.0439L58.3919 35.4192H49.1479L44.5639 4.26319H44.3585Z" fill="#164193"/>
<path d="M84.4002 27.3537L88.6482 1.09774H102.64L103.408 35.4191H94.8122L94.5722 4.5564H94.4055L88.6628 35.4191H79.9708L74.2068 4.5564H74.0148L73.8015 35.4191H65.2148L65.9962 1.09774H80.0015L84.2282 27.3537H84.4002Z" fill="#164193"/>
<path d="M156.403 30.271C158.818 30.271 159.537 28.6364 159.711 27.8084C159.782 27.4404 159.782 26.9364 159.782 26.4937V1.0977H168.501V25.7057C168.501 26.347 168.431 27.6324 168.403 27.975C167.815 34.3884 162.722 36.4484 156.403 36.4484C150.097 36.4484 145.027 34.3884 144.446 27.975C144.402 27.6324 144.339 26.347 144.361 25.7057V1.0977H153.05V26.4937C153.021 26.9364 153.063 27.4404 153.118 27.8084C153.282 28.6364 154.029 30.271 156.403 30.271Z" fill="#164193"/>
<path d="M15.94 25.732C16.2627 26.5653 16.1693 27.632 16.008 28.2733C15.732 29.4187 14.9587 30.5947 12.6453 30.5947C10.5053 30.5947 9.21867 29.352 9.21867 27.4733L9.192 24.1427H0V26.792C0 34.4613 6.01067 36.76 12.4507 36.76C18.6907 36.76 23.7973 34.648 24.6013 28.928C25.0253 25.9507 24.7213 24.0107 24.58 23.2867C23.1347 16.0787 10.0933 13.9667 9.12 9.94001C8.95333 9.22801 8.98133 8.52401 9.08 8.14001C9.328 7.01601 10.076 5.82001 12.2133 5.82001C14.2453 5.82001 15.4213 7.08268 15.4213 8.91601V11.0667H23.992V8.65601C23.992 1.16801 17.2627 1.14441e-05 12.3933 1.14441e-05C6.3 1.14441e-05 1.304 2.02935 0.393333 7.63601C0.158667 9.15201 0.125333 10.5213 0.461333 12.244C1.964 19.28 14.1667 21.2933 15.94 25.732Z" fill="#164193"/>
<path d="M127.583 25.6896C127.927 26.503 127.783 27.5523 127.651 28.195C127.389 29.3203 126.599 30.4656 124.345 30.4656C122.211 30.4656 120.927 29.2456 120.927 27.383V24.0803H111.799V26.723C111.799 34.3203 117.768 36.575 124.168 36.575C130.291 36.575 135.356 34.4883 136.168 28.815C136.58 25.8843 136.28 23.9616 136.124 23.2176C134.692 16.1136 121.793 14.0096 120.843 10.0043C120.684 9.33895 120.728 8.61762 120.801 8.24562C121.031 7.15762 121.777 5.96562 123.905 5.96562C125.916 5.96562 127.077 7.18562 127.077 9.01095V11.1283H135.547V8.74696C135.547 1.34829 128.895 0.189621 124.101 0.189621C118.049 0.189621 113.093 2.16162 112.216 7.73629C111.94 9.22829 111.905 10.5803 112.283 12.3123C113.757 19.2803 125.833 21.275 127.583 25.6896Z" fill="#164193"/>
<path d="M228.034 29.9253C230.506 29.9253 231.38 28.3759 231.539 27.4399C231.594 27.0533 231.618 26.5639 231.615 26.1293V21.1626H228.107V16.1279H240.263V25.3506C240.263 25.9933 240.236 26.4666 240.14 27.6199C239.57 33.8346 234.143 36.0959 228.047 36.0959C221.974 36.0959 216.572 33.8346 216.015 27.6199C215.88 26.4666 215.88 25.9933 215.88 25.3506V10.9106C215.88 10.2919 215.95 9.20928 216.039 8.65462C216.784 2.20128 221.974 0.165283 228.047 0.165283C234.143 0.165283 239.5 2.17995 240.11 8.65462C240.236 9.71462 240.175 10.9106 240.175 10.9106L240.195 12.0279H231.539V10.1106C231.539 10.1106 231.539 9.28395 231.419 8.79595C231.274 8.06128 230.604 6.31995 227.979 6.31995C225.515 6.31995 224.768 7.96928 224.572 8.79595C224.466 9.25595 224.446 9.87062 224.446 10.4293V26.1293C224.446 26.5639 224.466 27.0533 224.506 27.4399C224.675 28.3759 225.539 29.9253 228.034 29.9253Z" fill="#164193"/>
</svg>
