<svg width="180" height="180" viewBox="0 0 180 180" fill="none" xmlns="http://www.w3.org/2000/svg">
<circle cx="90" cy="90" r="90" fill="#0867B3"/>
<path d="M123.823 93.9672C118.578 93.7727 113.564 94.2901 108.715 96.1765C105.021 97.6131 101.63 99.5913 98.458 102.019C97.8479 102.486 97.8367 102.886 98.2612 103.53C101.925 109.096 104.332 115.241 105.669 121.833C106.608 126.468 106.859 131.206 106.503 135.906C105.79 145.323 102.637 153.874 97.4142 161.555C95.3561 164.582 92.7517 167.121 90.2396 169.731C89.7086 170.283 89.3734 169.864 89.0528 169.545C85.7362 166.234 82.7529 162.64 80.3449 158.53C77.5545 153.767 75.4996 148.696 74.3703 143.233C73.8996 140.957 73.5322 138.665 73.3812 136.32C73.2742 134.658 73.1232 133 73.1735 131.337C73.3668 124.944 74.515 118.763 76.8689 112.832C78.1259 109.664 79.6268 106.65 81.5126 103.855C82.1411 102.924 81.9633 102.279 81.1715 101.666C81.1357 101.638 81.1021 101.606 81.0635 101.584C80.1029 101.025 79.2031 99.6063 78.343 99.8671C77.5398 100.111 76.9369 101.503 76.2483 102.391C72.7996 106.838 68.6054 110.359 63.9244 113.23C59.4493 115.975 54.6544 117.921 49.5357 118.937C45.0785 119.823 40.6289 120.243 36.0664 119.782C31.747 119.345 27.5688 118.456 23.4964 116.936C20.7113 115.897 18.0434 114.599 15.4947 113.022C14.8738 112.637 14.9224 112.314 15.1793 111.685C16.8681 107.553 19.1453 103.819 21.8192 100.311C24.9954 96.1447 28.7209 92.6399 32.9861 89.769C38.1837 86.2705 43.8328 83.9822 49.9092 82.731C54.154 81.857 58.4224 81.7679 62.6859 81.9809C66.0635 82.1496 69.4148 82.8558 72.6552 83.9332C73.5059 84.2161 73.7082 84.1246 74.0329 83.2227C75.87 78.1204 76.7112 72.8385 76.3274 67.436C75.8141 60.2118 73.4927 53.587 69.4575 47.6743C65.6951 42.1616 60.8319 38.0339 54.9853 35.1445C53.9406 34.6282 53.8272 35.1087 53.9444 35.965C54.488 39.9388 55.432 43.7961 56.9923 47.4785C59.2422 52.7883 62.6334 57.2052 66.7478 61.0161C68.2398 62.398 69.8293 63.8487 71.6264 64.6329C73.4931 65.4475 73.5672 66.881 73.6743 68.4059C73.8919 71.5019 73.3656 74.5507 72.8842 77.5918C72.7661 78.3378 72.3723 78.3771 71.7276 78.084C67.7641 76.282 64.0755 74.0098 60.6734 71.2154C54.3845 66.0497 49.6926 59.5789 46.4756 51.947C44.6833 47.6949 43.4746 43.2494 42.9714 38.602C42.6832 35.9405 42.3438 33.2777 42.4768 30.6037C42.636 27.4032 42.9816 24.2126 43.5767 21.0625C43.6959 20.4316 43.9072 19.9096 44.7846 20.0324C51.9652 21.0375 58.7367 23.2695 64.944 27.2518C68.5918 29.5919 71.9107 32.3738 74.8036 35.6639C77.3753 38.5886 79.5897 41.8005 81.471 45.2817C84.193 50.3185 86.0136 55.6837 86.9626 61.3531C87.7028 65.775 87.7351 70.2357 87.3768 74.7357C87 79.4691 85.777 83.9471 84.3391 88.3884C84.0839 89.1767 84.1783 89.4469 84.8402 89.8953C86.5176 91.0317 88.1181 92.2969 89.709 93.5664C90.0661 93.8515 90.1861 93.867 90.5311 93.5581C93.7268 90.6958 97.2986 88.4614 101.106 86.6093C104.985 84.7227 109.041 83.5338 113.244 82.7297C117.163 81.98 121.108 82.0267 125.011 82.2824C129.821 82.5974 134.494 83.8502 138.997 85.7832C145.625 88.6285 151.361 92.7837 156.193 98.2989C159.845 102.469 162.66 107.225 164.872 112.385C165.137 113.003 164.987 113.272 164.46 113.583C159.665 116.411 154.591 118.356 149.177 119.496C144.836 120.41 140.465 120.553 136.134 120.208C129.359 119.668 122.95 117.531 117.002 114.013C113.919 112.189 111.091 110.007 108.395 107.592C106.909 106.26 105.676 104.717 104.33 103.267C103.109 101.952 103.123 102.004 104.59 101.161C107.538 99.4668 110.648 98.2687 113.927 97.4825C114.527 97.3385 114.806 97.4478 115.17 97.8268C120.262 103.129 126.455 106.314 133.393 107.854C136.87 108.626 140.432 108.84 144.019 108.303C145.484 108.084 146.947 107.848 148.535 107.596C147.873 105.938 146.573 104.912 145.421 103.837C142.616 101.218 139.507 99.0177 136.071 97.4051C132.576 95.765 128.947 94.5575 125.094 94.2373C124.708 94.2052 124.33 94.0605 123.823 93.9672Z" fill="white"/>
<path d="M117.443 40.1281C114.339 42.8202 111.764 45.8473 109.659 49.3493C106.82 54.0717 105.079 59.184 104.11 64.6539C103.572 67.6907 103.559 70.7277 103.639 73.7727C103.679 75.2677 103.978 76.7659 104.27 78.2388C104.467 79.231 104.548 79.7491 103.283 80.0429C100.248 80.7478 97.2687 81.7216 94.2805 82.636C93.7083 82.8111 93.5868 82.7727 93.4356 82.1133C92.2799 77.0719 92.1434 71.9364 92.4438 66.8262C92.7926 60.8936 94.164 55.172 96.5186 49.7083C99.2388 43.3963 103.008 37.8882 107.81 33.1887C111.808 29.2767 116.322 26.1537 121.383 23.8556C124.869 22.2728 128.482 21.2299 132.155 20.3977C133.546 20.0825 135.022 19.9438 136.492 20.0209C137.123 20.0539 137.419 20.3747 137.491 20.862C137.997 24.2586 138.701 27.6303 138.614 31.1045C138.594 31.8988 138.372 32.0446 137.642 32.1184C132.961 32.5909 128.355 33.4512 124.093 35.6719C121.758 36.8889 119.604 38.4281 117.443 40.1281Z" fill="white"/>
<path d="M128.478 62.7078C124.805 64.9121 121.567 63.324 120.193 60.8075C118.163 57.0866 120.253 52.6517 123.738 51.9896C126.699 51.4271 128.885 52.5628 130.072 54.7592C131.374 57.1675 131.096 60.5765 128.478 62.7078Z" fill="#EE2E30"/>
<path d="M113.255 63.728C117.408 63.8728 118.908 66.2367 119.334 69.463C119.684 72.1201 117.335 74.9299 114.745 75.5219C112.363 76.0664 110.474 75.2453 109.065 73.4168C107.475 71.3531 107.367 68.9698 108.672 66.6444C109.662 64.8822 111.146 63.8537 113.255 63.728Z" fill="#EE2E30"/>
<path d="M126.308 41.9748C126.725 38.692 128.681 37.1583 130.662 36.8939C134.471 36.3859 136.463 37.8211 137.328 40.7973C138.407 44.5126 136.427 48.3446 132.3 48.6309C128.759 48.8765 125.801 45.8757 126.308 41.9748Z" fill="#EE2E30"/>
<path d="M35.1857 102.845C38.9665 99.6307 43.0414 97.1906 47.5924 95.6146C52.0099 94.0848 56.5401 93.4269 61.1592 93.7292C63.2643 93.867 65.3956 94.1508 67.4502 94.8351C59.3125 105.244 44.3288 110.753 31.2002 106.983C32.5454 105.588 33.8325 104.253 35.1857 102.845Z" fill="#0867B3"/>
<path d="M93.5459 120.206C94.7615 124.46 95.5132 128.685 95.3238 133.037C95.0498 139.333 93.6264 145.675 89.7649 151.957C82.6326 138.613 82.7858 125.396 89.9406 111.87C91.3214 114.732 92.7641 117.243 93.5459 120.206Z" fill="#0867B3"/>
</svg>
