<svg width="500" height="350" viewBox="0 0 500 350" fill="none" xmlns="http://www.w3.org/2000/svg">
<rect width="500" height="350" rx="15" fill="#0867B3"/>
<path d="M290.587 128.761C284.293 128.527 278.277 129.148 272.457 131.412C268.025 133.136 263.956 135.51 260.15 138.423C259.417 138.984 259.404 139.463 259.913 140.237C264.31 146.915 267.199 154.289 268.802 162.199C269.93 167.762 270.23 173.447 269.803 179.088C268.948 190.388 265.165 200.649 258.897 209.867C256.427 213.499 253.302 216.545 250.288 219.678C249.65 220.34 249.248 219.837 248.863 219.454C244.883 215.481 241.303 211.168 238.414 206.236C235.065 200.52 232.6 194.435 231.244 187.88C230.68 185.148 230.239 182.398 230.057 179.584C229.929 177.59 229.748 175.6 229.808 173.604C230.04 165.933 231.418 158.516 234.243 151.398C235.751 147.597 237.552 143.98 239.815 140.626C240.569 139.509 240.356 138.735 239.406 137.999C239.363 137.966 239.322 137.927 239.276 137.9C238.123 137.23 237.044 135.528 236.012 135.841C235.048 136.133 234.324 137.803 233.498 138.869C229.359 144.206 224.327 148.43 218.709 151.876C213.339 155.17 207.585 157.505 201.443 158.725C196.094 159.787 190.755 160.292 185.28 159.738C180.096 159.214 175.083 158.148 170.196 156.324C166.854 155.077 163.652 153.519 160.594 151.626C159.849 151.165 159.907 150.777 160.215 150.023C162.242 145.063 164.974 140.583 168.183 136.374C171.995 131.374 176.465 127.168 181.583 123.723C187.82 119.525 194.599 116.779 201.891 115.277C206.985 114.229 212.107 114.122 217.223 114.377C221.276 114.58 225.298 115.427 229.186 116.72C230.207 117.059 230.45 116.95 230.839 115.867C233.044 109.745 234.053 103.406 233.593 96.9233C232.977 88.2543 230.191 80.3045 225.349 73.2093C220.834 66.594 214.998 61.6407 207.982 58.1735C206.729 57.554 206.593 58.1305 206.733 59.1582C207.386 63.9267 208.518 68.5554 210.391 72.9743C213.091 79.3461 217.16 84.6464 222.097 89.2195C223.888 90.8777 225.795 92.6185 227.952 93.5596C230.192 94.5372 230.281 96.2573 230.409 98.0871C230.67 101.802 230.039 105.461 229.461 109.11C229.319 110.005 228.847 110.053 228.073 109.701C223.317 107.538 218.891 104.812 214.808 101.459C207.261 95.2598 201.631 87.4948 197.771 78.3366C195.62 73.2341 194.17 67.8994 193.566 62.3226C193.22 59.1287 192.813 55.9334 192.972 52.7246C193.163 48.884 193.578 45.0552 194.292 41.2751C194.435 40.518 194.689 39.8916 195.742 40.039C204.358 41.2451 212.484 43.9236 219.933 48.7022C224.31 51.5104 228.293 54.8487 231.764 58.7969C234.85 62.3065 237.508 66.1607 239.765 70.3382C243.032 76.3823 245.216 82.8206 246.355 89.6238C247.243 94.9301 247.282 100.283 246.852 105.683C246.4 111.363 244.932 116.737 243.207 122.066C242.901 123.012 243.014 123.336 243.808 123.874C245.821 125.238 247.742 126.756 249.651 128.28C250.079 128.622 250.223 128.641 250.637 128.27C254.472 124.835 258.758 122.154 263.327 119.931C267.982 117.667 272.849 116.241 277.893 115.276C282.595 114.376 287.33 114.432 292.013 114.739C297.785 115.117 303.393 116.62 308.796 118.94C316.75 122.354 323.634 127.341 329.431 133.959C333.815 138.962 337.192 144.671 339.846 150.862C340.164 151.604 339.985 151.927 339.352 152.3C333.598 155.693 327.509 158.027 321.012 159.395C315.803 160.492 310.558 160.663 305.361 160.249C297.231 159.602 289.54 157.038 282.403 152.815C278.703 150.627 275.31 148.008 272.075 145.11C270.291 143.512 268.811 141.66 267.196 139.921C265.731 138.342 265.747 138.405 267.507 137.394C271.046 135.36 274.778 133.923 278.712 132.979C279.433 132.806 279.767 132.937 280.204 133.392C286.314 139.755 293.745 143.577 302.072 145.425C306.244 146.351 310.518 146.608 314.822 145.964C316.581 145.701 318.336 145.418 320.242 145.116C319.448 143.125 317.888 141.894 316.505 140.604C313.139 137.462 309.409 134.821 305.285 132.886C301.091 130.918 296.737 129.469 292.112 129.085C291.649 129.046 291.196 128.873 290.587 128.761Z" fill="white"/>
<path d="M282.931 64.1538C279.207 67.3843 276.117 71.0167 273.591 75.2191C270.184 80.886 268.095 87.0208 266.932 93.5847C266.287 97.2288 266.27 100.873 266.367 104.527C266.414 106.321 266.774 108.119 267.124 109.887C267.36 111.077 267.458 111.699 265.94 112.051C262.298 112.897 258.722 114.066 255.137 115.163C254.45 115.373 254.304 115.327 254.123 114.536C252.736 108.486 252.572 102.324 252.933 96.1915C253.351 89.0723 254.997 82.2064 257.822 75.6499C261.087 68.0755 265.61 61.4658 271.372 55.8265C276.169 51.132 281.587 47.3845 287.66 44.6268C291.843 42.7274 296.178 41.4759 300.586 40.4773C302.255 40.099 304.027 39.9326 305.791 40.025C306.548 40.0647 306.903 40.4496 306.99 41.0344C307.596 45.1104 308.441 49.1564 308.337 53.3254C308.313 54.2786 308.047 54.4536 307.171 54.542C301.554 55.1091 296.026 56.1415 290.912 58.8063C288.11 60.2667 285.525 62.1137 282.931 64.1538Z" fill="white"/>
<path d="M296.173 91.2493C291.766 93.8944 287.88 91.9887 286.232 88.969C283.795 84.5039 286.303 79.182 290.486 78.3875C294.039 77.7125 296.662 79.0753 298.087 81.711C299.649 84.601 299.315 88.6918 296.173 91.2493Z" fill="#EE2E30"/>
<path d="M277.906 92.4736C282.89 92.6474 284.69 95.484 285.2 99.3556C285.621 102.544 282.802 105.916 279.694 106.626C276.835 107.28 274.569 106.294 272.878 104.1C270.969 101.624 270.84 98.7637 272.407 95.9732C273.594 93.8586 275.375 92.6245 277.906 92.4736Z" fill="#EE2E30"/>
<path d="M293.57 66.3698C294.069 62.4304 296.417 60.59 298.795 60.2728C303.365 59.6631 305.755 61.3853 306.793 64.9568C308.089 69.4151 305.712 74.0135 300.76 74.357C296.511 74.6518 292.961 71.0508 293.57 66.3698Z" fill="#EE2E30"/>
<path d="M184.223 139.414C188.76 135.557 193.649 132.629 199.111 130.737C204.412 128.902 209.848 128.112 215.391 128.475C217.917 128.64 220.474 128.981 222.94 129.802C213.175 142.293 195.194 148.903 179.44 144.38C181.054 142.705 182.599 141.103 184.223 139.414Z" fill="#0867B3"/>
<path d="M254.255 160.247C255.714 165.352 256.616 170.422 256.389 175.645C256.06 183.2 254.352 190.81 249.718 198.348C241.159 182.336 241.343 166.475 249.929 150.244C251.586 153.679 253.317 156.692 254.255 160.247Z" fill="#0867B3"/>
<path d="M381.347 279.722C382.19 282.065 382.997 284.349 383.889 286.873C384.294 285.804 383.963 284.998 383.861 284.254C383.682 282.956 383.53 281.649 383.438 280.351C382.791 271.18 383.185 261.99 383.067 252.809C383.059 252.189 383.204 252.015 383.801 252.023C386.579 252.058 389.359 252.059 392.137 252.022C392.749 252.014 392.861 252.218 392.861 252.82C392.845 268.263 392.845 283.706 392.862 299.15C392.862 299.788 392.753 300.001 392.095 299.995C387.97 299.958 383.843 299.971 379.717 299.986C379.32 299.987 379.032 299.939 378.878 299.497C377.1 294.41 375.319 289.325 373.53 284.242C371.466 278.376 369.396 272.512 367.324 266.648C367.08 265.955 366.987 265.194 366.484 264.481C366.723 267.559 367.141 270.497 367.283 273.468C367.364 275.164 367.55 276.866 367.562 278.562C367.613 285.392 367.573 292.223 367.599 299.053C367.601 299.757 367.493 300.013 366.753 299.998C364.059 299.944 361.364 299.961 358.669 299.99C358.125 299.996 357.97 299.846 357.97 299.258C357.986 283.755 357.986 268.253 357.97 252.75C357.969 252.15 358.143 252.023 358.676 252.026C362.689 252.048 366.704 252.056 370.717 252.019C371.277 252.013 371.454 252.257 371.621 252.726C373.303 257.451 374.992 262.173 376.69 266.891C378.224 271.151 379.771 275.405 381.347 279.722Z" fill="white"/>
<path d="M236.037 261.84C236.037 274.283 236.029 286.637 236.056 298.991C236.058 299.81 235.855 300.004 235.097 299.996C231.112 299.954 227.126 299.961 223.141 299.992C222.497 299.997 222.22 299.84 221.978 299.144C219.426 291.807 216.814 284.495 214.23 277.171C212.78 273.063 211.353 268.946 209.91 264.836C209.888 264.774 209.796 264.741 209.639 264.617C209.842 266.404 210.022 268.084 210.227 269.76C210.319 270.515 210.354 271.285 210.39 272.032C210.454 273.384 210.571 274.736 210.628 276.089C210.951 283.738 210.662 291.389 210.791 299.038C210.804 299.838 210.599 300.01 209.872 299.996C207.206 299.946 204.539 299.963 201.873 299.988C201.354 299.993 201.157 299.89 201.158 299.274C201.175 283.772 201.174 268.27 201.16 252.768C201.16 252.198 201.286 252.021 201.848 252.024C205.861 252.051 209.875 252.052 213.889 252.022C214.423 252.018 214.644 252.268 214.803 252.709C217.602 260.472 220.406 268.233 223.195 275.999C224.464 279.532 225.702 283.077 226.958 286.615C226.981 286.68 227.054 286.726 227.156 286.838C227.348 286.53 227.306 286.226 227.266 285.965C226.936 283.831 226.75 281.684 226.593 279.529C225.948 270.71 226.428 261.878 226.247 253.055C226.229 252.16 226.481 252.001 227.263 252.017C229.929 252.072 232.596 252.06 235.262 252.022C235.878 252.014 236.063 252.159 236.054 252.842C236.014 255.811 236.037 258.781 236.037 261.84Z" fill="white"/>
<path d="M303.794 285.111C303.972 288.308 303.477 291.265 301.697 293.85C299.706 296.74 296.819 298.095 293.663 298.893C291.159 299.525 288.603 299.701 286.026 299.836C280.814 300.11 275.605 299.853 270.396 299.994C269.674 300.014 269.538 299.787 269.539 299.065C269.56 283.679 269.559 268.294 269.542 252.909C269.541 252.24 269.663 252.014 270.351 252.019C274.87 252.056 279.394 251.923 283.909 252.074C287.641 252.2 291.367 252.525 294.932 253.966C298.689 255.485 301.294 258.066 301.849 262.382C302.287 265.791 301.753 269.076 299.261 271.602C297.885 272.997 296.222 273.966 294.361 274.501C294.312 274.515 294.271 274.558 294.226 274.589C300.327 276.006 303.727 279.564 303.794 285.111Z" fill="white"/>
<path d="M436.874 258.166C436.784 258.354 436.678 258.484 436.525 258.634C435.646 258.389 436.185 259.133 436.032 259.414C435.942 259.601 435.835 259.732 435.683 259.881C434.804 259.636 435.343 260.381 435.19 260.661C435.1 260.848 434.993 260.979 434.841 261.129C433.962 260.883 434.501 261.628 434.348 261.909C434.257 262.096 434.151 262.227 433.999 262.376C433.036 262.336 433.218 263.072 433.169 263.688C433.078 263.877 432.972 264.008 432.82 264.158C431.941 263.913 432.48 264.658 432.327 264.938C432.236 265.125 432.13 265.256 431.978 265.406C431.098 265.16 431.638 265.905 431.485 266.186C431.394 266.373 431.288 266.504 431.135 266.653C430.405 266.434 430.66 266.931 430.701 267.305C430.704 267.622 430.46 267.697 430.296 267.898C429.414 267.655 429.953 268.4 429.8 268.681C429.71 268.868 429.603 268.999 429.451 269.148C428.489 269.108 428.67 269.844 428.621 270.46C428.53 270.649 428.424 270.78 428.272 270.93C427.393 270.685 427.932 271.43 427.779 271.71C427.688 271.897 427.582 272.028 427.43 272.178C426.551 271.932 427.09 272.677 426.937 272.958C426.823 273.172 426.693 273.33 426.558 273.541C426.556 274.089 426.922 274.382 427.18 274.8C427.225 274.839 427.211 274.847 427.215 274.84C427.405 275.326 427.674 275.768 428.022 276.226C428.067 276.265 428.054 276.273 428.057 276.265C428.247 276.752 428.516 277.194 428.864 277.652C428.909 277.69 428.896 277.698 428.899 277.691C429.09 278.177 429.358 278.619 429.707 279.078C429.751 279.116 429.738 279.124 429.741 279.117C429.932 279.603 430.2 280.045 430.549 280.503C430.593 280.542 430.58 280.55 430.584 280.542C430.677 280.691 430.722 280.875 430.889 281.043C430.93 281.076 430.917 281.084 430.92 281.077C431.111 281.563 431.38 282.005 431.728 282.464C431.772 282.502 431.759 282.51 431.763 282.503C431.953 282.989 432.222 283.431 432.57 283.889C432.615 283.928 432.601 283.936 432.605 283.928C432.795 284.415 433.064 284.857 433.412 285.315C433.457 285.353 433.443 285.361 433.447 285.354C433.637 285.84 433.906 286.282 434.254 286.741C434.299 286.779 434.286 286.787 434.289 286.78C434.479 287.266 434.748 287.708 435.096 288.166C435.141 288.205 435.128 288.213 435.131 288.205C435.322 288.692 435.59 289.134 435.939 289.592C435.983 289.63 435.97 289.638 435.973 289.631C436.164 290.117 436.432 290.559 436.781 291.018C436.825 291.056 436.812 291.064 436.816 291.057C437.006 291.543 437.275 291.985 437.623 292.443C437.668 292.482 437.654 292.49 437.658 292.482C437.848 292.969 438.117 293.411 438.465 293.869C438.51 293.907 438.496 293.915 438.5 293.908C438.69 294.394 438.959 294.836 439.307 295.295C439.352 295.333 439.339 295.341 439.342 295.334C439.532 295.82 439.801 296.262 440.149 296.72C440.194 296.759 440.181 296.767 440.184 296.759C440.375 297.246 440.643 297.688 440.992 298.146C441.036 298.184 441.023 298.192 441.026 298.185C441.193 298.536 441.31 298.924 441.669 299.219C442.148 299.766 442.15 299.993 441.392 299.988C437.659 299.963 433.926 299.969 430.193 299.987C429.749 299.989 429.513 299.851 429.279 299.431C427.656 296.513 425.997 293.618 424.348 290.717C422.346 287.196 420.333 283.683 418.345 280.155C417.273 278.254 416.243 276.327 415.081 274.208C415.081 274.719 415.081 275 415.081 275.281C415.081 283.21 415.071 291.139 415.098 299.068C415.1 299.799 414.95 300.007 414.237 299.996C411.122 299.95 408.005 299.964 404.89 299.989C404.348 299.993 404.117 299.917 404.118 299.243C404.138 283.741 404.135 268.239 404.124 252.737C404.123 252.223 404.202 252.018 404.755 252.024C407.982 252.054 411.21 252.058 414.438 252.021C415.06 252.014 415.09 252.291 415.089 252.803C415.077 259.604 415.081 266.405 415.081 273.205C415.081 273.51 415.081 273.814 415.081 274.118C415.15 274.13 415.218 274.143 415.286 274.155C416.624 272.058 417.958 269.958 419.3 267.864C422.293 263.19 425.289 258.518 428.288 253.847C428.365 253.727 428.528 253.652 428.573 253.525C429.083 252.086 430.128 251.971 431.412 252.009C434.525 252.1 437.641 252.038 440.791 252.038C440.852 252.531 440.549 252.791 440.24 253.102C439.352 252.864 439.891 253.609 439.738 253.889C439.647 254.077 439.541 254.207 439.389 254.357C438.426 254.317 438.608 255.052 438.559 255.669C438.468 255.858 438.362 255.989 438.21 256.139C437.33 255.894 437.87 256.638 437.717 256.919C437.626 257.106 437.52 257.237 437.367 257.386C436.488 257.141 437.028 257.886 436.874 258.166Z" fill="white"/>
<path d="M314.022 299.977C312.646 299.976 311.355 299.957 310.065 299.986C309.527 299.997 309.376 299.839 309.54 299.272C310.708 295.247 311.865 291.218 313.013 287.187C314.704 281.249 316.383 275.308 318.068 269.369C319.643 263.816 321.219 258.263 322.791 252.709C322.931 252.212 323.155 252.012 323.71 252.017C327.554 252.057 331.4 252.055 335.244 252.023C335.906 252.017 336.162 252.178 336.362 252.915C337.322 256.463 338.397 259.976 339.405 263.51C341.058 269.309 342.683 275.117 344.335 280.917C346.051 286.937 347.786 292.951 349.508 298.969C349.594 299.27 349.631 299.586 349.699 299.934C349.5 299.949 349.311 299.975 349.122 299.975C345.726 299.977 342.33 299.969 338.935 299.984C338.414 299.987 338.201 299.879 338.068 299.242C337.464 296.338 336.733 293.464 336.105 290.565C335.959 289.893 335.766 289.615 335.063 289.622C331.275 289.661 327.486 289.65 323.697 289.63C323.142 289.627 322.893 289.763 322.759 290.403C322.132 293.391 321.408 296.357 320.785 299.347C320.666 299.919 320.436 299.983 319.999 299.981C318.035 299.971 316.07 299.976 314.022 299.977Z" fill="white"/>
<path d="M94.7284 287.493C95.9103 291.675 97.0858 295.785 98.2733 299.936C98.049 299.952 97.8851 299.975 97.7213 299.975C94.2968 299.977 90.8722 299.973 87.4477 299.981C86.9872 299.982 86.7343 299.936 86.6052 299.313C85.9919 296.35 85.2757 293.412 84.6239 290.459C84.494 289.87 84.3069 289.612 83.6584 289.62C79.8694 289.662 76.0798 289.646 72.2904 289.634C71.7076 289.632 71.4155 289.668 71.2622 290.48C70.6955 293.481 69.9447 296.442 69.3047 299.428C69.2025 299.905 68.9941 299.98 68.6183 299.979C65.2499 299.974 61.8815 299.967 58.5132 299.986C57.9373 299.989 57.9412 299.727 58.0712 299.276C59.2332 295.248 60.3945 291.22 61.5426 287.188C63.2334 281.249 64.913 275.307 66.5976 269.366C68.1726 263.812 69.7474 258.258 71.3237 252.704C71.4472 252.269 71.6154 252.013 72.1608 252.018C76.0903 252.056 80.0202 252.049 83.9499 252.026C84.4602 252.023 84.6563 252.198 84.8005 252.709C86.238 257.794 87.7089 262.869 89.1592 267.95C90.9642 274.275 92.7585 280.603 94.5586 286.929C94.6058 287.095 94.6673 287.256 94.7284 287.493Z" fill="white"/>
<path d="M142.388 291.066C142.388 278.324 142.397 265.671 142.369 253.019C142.367 252.188 142.587 252.018 143.333 252.02C151.726 252.049 160.12 252.051 168.513 252.017C169.261 252.014 169.442 252.27 169.339 252.966C169.076 254.746 168.822 256.526 168.562 258.307C168.558 258.334 168.525 258.359 168.525 258.385C168.521 258.998 168.591 259.866 168.206 260.107C167.723 260.41 166.962 260.232 166.32 260.233C162.194 260.239 158.067 260.251 153.94 260.22C153.32 260.215 153.145 260.364 153.151 261.042C153.187 264.665 153.188 268.289 153.15 271.913C153.143 272.606 153.342 272.73 153.948 272.726C157.934 272.696 161.921 272.72 165.907 272.7C166.448 272.697 166.629 272.702 166.504 273.423C166.093 275.793 165.772 278.183 165.494 280.576C165.42 281.214 165.097 281.084 164.761 281.084C161.195 281.088 157.63 281.111 154.065 281.066C153.333 281.057 153.143 281.235 153.148 282.028C153.185 287.701 153.149 293.374 153.19 299.046C153.195 299.865 152.968 300.004 152.26 299.995C149.228 299.952 146.196 299.958 143.165 299.992C142.551 299.999 142.36 299.86 142.371 299.174C142.413 296.502 142.388 293.828 142.388 291.066Z" fill="white"/>
<path d="M129.756 252.038C130.878 252.038 131.917 252.058 132.955 252.029C133.368 252.017 133.52 252.158 133.461 252.584C133.122 255.028 132.783 257.473 132.45 259.918C132.375 260.47 131.974 260.224 131.728 260.224C127.266 260.24 122.803 260.236 118.341 260.236C118.173 260.236 118.002 260.257 117.837 260.232C117.375 260.162 117.282 260.389 117.283 260.838C117.298 264.579 117.306 268.32 117.277 272.061C117.273 272.658 117.486 272.722 117.96 272.72C121.916 272.703 125.874 272.734 129.83 272.689C130.565 272.681 130.679 272.98 130.589 273.606C130.31 275.529 130.026 277.451 129.761 279.376C129.698 279.836 129.555 280.276 129.569 280.761C129.585 281.319 129.117 281.074 128.87 281.075C125.306 281.092 121.742 281.114 118.178 281.064C117.421 281.054 117.269 281.273 117.274 282.039C117.307 287.71 117.28 293.382 117.307 299.053C117.31 299.755 117.203 300.01 116.462 299.998C113.376 299.947 110.288 299.963 107.202 299.989C106.663 299.994 106.499 299.855 106.499 299.261C106.515 283.762 106.517 268.262 106.496 252.763C106.495 252.069 106.751 252.027 107.277 252.028C114.742 252.043 122.207 252.038 129.756 252.038Z" fill="white"/>
<path d="M190.149 252.119C190.211 253.546 190.222 254.911 190.223 256.276C190.224 270.524 190.217 284.772 190.24 299.021C190.241 299.778 190.106 300.013 189.34 299.999C186.283 299.944 183.225 299.959 180.167 299.992C179.573 299.999 179.429 299.83 179.43 299.208C179.447 283.743 179.447 268.278 179.431 252.812C179.43 252.199 179.56 252.016 180.162 252.023C183.472 252.062 186.782 252.052 190.149 252.119Z" fill="white"/>
<path d="M438.612 255.679C438.262 255.212 438.449 254.214 438.942 253.914C439.256 253.724 439.31 253.989 439.34 254.308C439.258 254.884 438.832 255.183 438.612 255.679Z" fill="white"/>
<path d="M433.223 263.699C432.872 263.231 433.059 262.233 433.553 261.934C433.866 261.744 433.92 262.008 433.95 262.328C433.868 262.904 433.442 263.202 433.223 263.699Z" fill="white"/>
<path d="M428.675 270.471C428.324 270.003 428.512 269.005 429.005 268.706C429.319 268.515 429.372 268.78 429.402 269.1C429.32 269.676 428.895 269.974 428.675 270.471Z" fill="white"/>
<path d="M426.991 272.968C426.633 272.643 426.499 272.265 426.894 271.852C427.216 271.517 427.338 271.681 427.381 272.129C427.453 272.541 427.061 272.634 426.991 272.968Z" fill="white"/>
<path d="M427.833 271.721C427.475 271.396 427.341 271.017 427.736 270.605C428.058 270.269 428.18 270.433 428.223 270.882C428.295 271.293 427.903 271.386 427.833 271.721Z" fill="white"/>
<path d="M429.854 268.691C429.497 268.366 429.363 267.988 429.758 267.575C430.079 267.24 430.201 267.404 430.245 267.852C430.316 268.264 429.924 268.357 429.854 268.691Z" fill="white"/>
<path d="M431.538 266.196C431.181 265.872 431.047 265.493 431.442 265.081C431.764 264.745 431.886 264.909 431.929 265.357C432.001 265.769 431.609 265.862 431.538 266.196Z" fill="white"/>
<path d="M432.38 264.949C432.023 264.624 431.889 264.245 432.284 263.833C432.606 263.497 432.728 263.661 432.771 264.11C432.843 264.522 432.451 264.614 432.38 264.949Z" fill="white"/>
<path d="M434.402 261.919C434.044 261.595 433.91 261.216 434.305 260.803C434.627 260.468 434.749 260.632 434.792 261.08C434.864 261.492 434.472 261.585 434.402 261.919Z" fill="white"/>
<path d="M435.244 260.672C434.886 260.347 434.752 259.968 435.147 259.556C435.469 259.22 435.591 259.384 435.634 259.833C435.706 260.245 435.314 260.337 435.244 260.672Z" fill="white"/>
<path d="M436.086 259.424C435.729 259.1 435.595 258.721 435.99 258.308C436.311 257.973 436.433 258.137 436.476 258.585C436.548 258.997 436.156 259.09 436.086 259.424Z" fill="white"/>
<path d="M439.792 253.9C439.434 253.575 439.3 253.196 439.695 252.784C440.017 252.448 440.139 252.612 440.182 253.061C440.254 253.473 439.862 253.565 439.792 253.9Z" fill="white"/>
<path d="M436.928 258.177C436.571 257.852 436.437 257.473 436.832 257.061C437.153 256.725 437.275 256.889 437.319 257.338C437.39 257.75 436.998 257.842 436.928 258.177Z" fill="white"/>
<path d="M430.742 267.307C430.193 267.087 430.257 266.732 430.594 266.343C430.907 265.984 431.039 266.141 431.087 266.605C431.124 266.954 430.917 267.086 430.742 267.307Z" fill="white"/>
<path d="M437.771 256.93C437.413 256.605 437.279 256.226 437.674 255.814C437.996 255.478 438.118 255.642 438.161 256.09C438.233 256.502 437.841 256.595 437.771 256.93Z" fill="white"/>
<path d="M435.133 288.14C434.585 287.972 434.379 287.483 434.29 286.84C434.682 287.128 434.93 287.583 435.133 288.14Z" fill="white"/>
<path d="M431.765 282.438C431.217 282.269 431.01 281.78 430.922 281.138C431.313 281.425 431.562 281.881 431.765 282.438Z" fill="white"/>
<path d="M435.975 289.566C435.428 289.397 435.221 288.908 435.132 288.266C435.524 288.553 435.772 289.009 435.975 289.566Z" fill="white"/>
<path d="M436.818 290.992C436.27 290.823 436.063 290.334 435.975 289.692C436.366 289.979 436.614 290.434 436.818 290.992Z" fill="white"/>
<path d="M437.66 292.417C437.112 292.249 436.905 291.76 436.817 291.117C437.208 291.405 437.457 291.86 437.66 292.417Z" fill="white"/>
<path d="M438.502 293.843C437.954 293.674 437.747 293.185 437.659 292.543C438.05 292.83 438.299 293.286 438.502 293.843Z" fill="white"/>
<path d="M439.344 295.269C438.796 295.1 438.589 294.611 438.501 293.969C438.893 294.256 439.141 294.712 439.344 295.269Z" fill="white"/>
<path d="M440.187 296.695C439.639 296.526 439.432 296.037 439.344 295.394C439.735 295.682 439.983 296.137 440.187 296.695Z" fill="white"/>
<path d="M441.029 298.12C440.481 297.951 440.274 297.462 440.186 296.82C440.577 297.107 440.825 297.563 441.029 298.12Z" fill="white"/>
<path d="M434.291 286.715C433.744 286.546 433.537 286.057 433.448 285.415C433.84 285.702 434.088 286.157 434.291 286.715Z" fill="white"/>
<path d="M433.449 285.289C432.901 285.12 432.694 284.631 432.606 283.989C432.998 284.276 433.246 284.732 433.449 285.289Z" fill="white"/>
<path d="M432.607 283.863C432.059 283.695 431.852 283.206 431.764 282.563C432.155 282.851 432.404 283.306 432.607 283.863Z" fill="white"/>
<path d="M430.586 280.477C430.038 280.309 429.831 279.82 429.743 279.177C430.134 279.465 430.383 279.92 430.586 280.477Z" fill="white"/>
<path d="M429.744 279.052C429.196 278.883 428.989 278.394 428.901 277.752C429.292 278.039 429.541 278.494 429.744 279.052Z" fill="white"/>
<path d="M428.901 277.626C428.354 277.457 428.147 276.968 428.058 276.326C428.45 276.613 428.698 277.069 428.901 277.626Z" fill="white"/>
<path d="M428.059 276.2C427.512 276.032 427.305 275.543 427.216 274.9C427.608 275.188 427.856 275.643 428.059 276.2Z" fill="white"/>
<path d="M427.217 274.775C426.737 274.615 426.459 274.241 426.509 273.627C426.809 273.942 427.074 274.285 427.217 274.775Z" fill="white"/>
<path d="M441.704 299.194C441.16 299.206 441.091 298.761 441.028 298.245C441.385 298.392 441.496 298.796 441.704 299.194Z" fill="white"/>
<path d="M430.923 281.018C430.668 281.078 430.571 280.923 430.585 280.601C430.753 280.628 430.9 280.737 430.923 281.018Z" fill="white"/>
<path d="M287.432 291.253C286.539 291.604 285.66 291.456 284.816 291.56C283.542 291.717 282.238 291.582 280.948 291.611C280.491 291.621 280.321 291.507 280.324 290.982C280.344 287.122 280.344 283.262 280.324 279.403C280.322 278.895 280.456 278.75 280.934 278.758C282.562 278.788 284.195 278.677 285.816 278.793C287.802 278.936 289.753 279.345 291.231 280.953C292.148 281.95 292.602 283.187 292.622 284.57C292.639 285.79 292.696 286.994 292.155 288.176C291.196 290.272 289.501 290.978 287.432 291.253Z" fill="#0867B3"/>
<path d="M280.335 269.671C280.335 266.734 280.359 263.884 280.317 261.035C280.307 260.343 280.505 260.204 281.114 260.221C283.112 260.279 285.118 260.12 287.096 260.59C290.904 261.495 292.323 266.156 289.717 269.278C288.859 270.305 287.678 270.687 286.448 270.929C284.701 271.274 282.936 271.004 281.184 271.122C280.474 271.17 280.208 270.94 280.331 270.203C280.356 270.059 280.335 269.907 280.335 269.671Z" fill="#0867B3"/>
<path d="M332.534 281.265C329.932 281.265 327.411 281.265 324.792 281.265C326.322 274.483 327.837 267.769 329.403 260.823C330.97 267.778 332.485 274.5 334.008 281.265C333.511 281.265 333.064 281.265 332.534 281.265Z" fill="#0867B3"/>
<path d="M80.9163 274.275C81.4641 276.64 82.0073 278.928 82.5619 281.265C79.6025 281.265 76.7139 281.26 73.8254 281.269C73.4274 281.271 73.3462 281.246 73.4657 280.743C74.0312 278.361 74.4961 275.954 75.0307 273.564C75.9105 269.632 76.8154 265.706 77.7142 261.778C77.7584 261.585 77.8462 261.403 77.972 261.054C78.4462 263.153 78.8877 265.091 79.3212 267.03C79.8549 269.419 80.3818 271.809 80.9163 274.275Z" fill="#0867B3"/>
</svg>
