<svg width="180" height="180" viewBox="0 0 180 180" fill="none" xmlns="http://www.w3.org/2000/svg">
<rect width="180" height="180" rx="15" fill="white"/>
<path d="M126.077 88.8985C120.483 88.691 115.135 89.2429 109.962 91.255C106.022 92.7874 102.405 94.8974 99.0218 97.4874C98.3711 97.9855 98.3591 98.4115 98.8119 99.0992C102.72 105.036 105.288 111.591 106.713 118.621C107.716 123.566 107.982 128.62 107.603 133.633C106.842 143.678 103.48 152.799 97.9085 160.993C95.7131 164.221 92.9352 166.929 90.2556 169.714C89.6892 170.302 89.3316 169.855 88.9897 169.514C85.4519 165.983 82.2697 162.149 79.7013 157.765C76.7248 152.684 74.5329 147.276 73.3283 141.449C72.8263 139.02 72.4343 136.576 72.2733 134.075C72.1592 132.302 71.998 130.533 72.0517 128.759C72.2579 121.94 73.4827 115.347 75.9935 109.021C77.3343 105.642 78.9352 102.427 80.9468 99.4457C81.6172 98.4522 81.4275 97.7648 80.5829 97.1101C80.5447 97.0805 80.5089 97.0465 80.4677 97.0225C79.443 96.4266 78.4833 94.9134 77.5658 95.1917C76.7091 95.4515 76.066 96.9363 75.3316 97.8835C71.6529 102.628 67.1791 106.382 62.186 109.446C57.4125 112.374 52.298 114.449 46.8381 115.533C42.0837 116.477 37.3375 116.926 32.4708 116.434C27.8635 115.968 23.4067 115.02 19.0628 113.399C16.092 112.29 13.2462 110.906 10.5277 109.223C9.86535 108.813 9.91724 108.468 10.1912 107.798C11.9926 103.389 14.4217 99.407 17.2738 95.6655C20.6618 91.2211 24.6356 87.4827 29.1852 84.4203C34.7293 80.6886 40.755 78.2477 47.2365 76.9132C51.7643 75.9809 56.3172 75.8858 60.8649 76.113C64.4677 76.293 68.0425 77.0462 71.4989 78.1955C72.4063 78.4973 72.622 78.3996 72.9684 77.4376C74.928 71.9952 75.8253 66.3612 75.4159 60.5985C74.8684 52.8927 72.3922 45.8262 68.0879 39.5194C64.0748 33.6391 58.8874 29.2362 52.651 26.1542C51.5366 25.6035 51.4157 26.116 51.5407 27.0295C52.1205 31.2681 53.1274 35.3826 54.7918 39.3105C57.1917 44.9743 60.809 49.6857 65.1977 53.7506C66.7891 55.2246 68.4846 56.772 70.4015 57.6085C72.3927 58.4775 72.4717 60.0065 72.586 61.633C72.818 64.9355 72.2566 68.1875 71.7431 71.4314C71.6172 72.2271 71.1971 72.269 70.5095 71.9564C66.2817 70.0342 62.3472 67.6106 58.7183 64.6298C52.0101 59.1198 47.0054 52.2176 43.574 44.0769C41.6621 39.5414 40.3729 34.7994 39.8361 29.8423C39.5287 27.0032 39.1668 24.163 39.3086 21.3107C39.4784 17.8968 39.847 14.4935 40.4818 11.1334C40.6089 10.4604 40.8343 9.90361 41.7703 10.0346C49.4296 11.1067 56.6524 13.4876 63.2736 17.7353C67.1645 20.2314 70.7047 23.1988 73.7906 26.7083C76.5337 29.828 78.8957 33.2539 80.9024 36.9672C83.8059 42.3398 85.7479 48.0627 86.7601 54.11C87.5497 58.8267 87.5841 63.5848 87.2019 68.3848C86.8 73.4338 85.4955 78.2103 83.9617 82.9477C83.6895 83.7886 83.7902 84.0768 84.4962 84.5551C86.2854 85.7672 87.9927 87.1168 89.6896 88.4709C90.0705 88.775 90.1985 88.7916 90.5665 88.462C93.9752 85.409 97.7852 83.0256 101.847 81.05C105.984 79.0376 110.31 77.7694 114.794 76.9118C118.974 76.1121 123.182 76.1619 127.345 76.4346C132.475 76.7706 137.46 78.107 142.264 80.1688C149.334 83.2039 155.452 87.636 160.606 93.5189C164.502 97.9665 167.504 103.041 169.863 108.544C170.146 109.203 169.986 109.49 169.424 109.822C164.309 112.838 158.897 114.913 153.122 116.129C148.491 117.104 143.829 117.256 139.209 116.888C131.983 116.313 125.147 114.033 118.802 110.28C115.514 108.335 112.498 106.007 109.622 103.431C108.036 102.011 106.721 100.365 105.286 98.8186C103.983 97.4154 103.997 97.4712 105.562 96.5721C108.708 94.7647 112.025 93.4867 115.522 92.6481C116.163 92.4945 116.46 92.611 116.848 93.0154C122.279 98.671 128.885 102.069 136.286 103.711C139.995 104.534 143.794 104.763 147.62 104.19C149.183 103.956 150.744 103.704 152.437 103.436C151.732 101.667 150.345 100.573 149.116 99.4259C146.123 96.6331 142.808 94.2857 139.143 92.5656C135.414 90.8161 131.544 89.5281 127.433 89.1865C127.021 89.1523 126.619 88.998 126.077 88.8985Z" fill="#0867B3"/>
<path d="M119.272 31.47C115.962 34.3416 113.215 37.5704 110.969 41.3059C107.941 46.3431 106.084 51.7963 105.051 57.6309C104.477 60.8701 104.462 64.1095 104.548 67.3576C104.59 68.9522 104.91 70.5503 105.222 72.1214C105.431 73.1797 105.518 73.7324 104.169 74.0458C100.931 74.7977 97.7533 75.8364 94.5659 76.8118C93.9556 76.9985 93.826 76.9576 93.6647 76.2542C92.4319 70.8767 92.2863 65.3988 92.6068 59.948C92.9788 53.6199 94.4416 47.5168 96.9532 41.6888C99.8547 34.956 103.875 29.0807 108.998 24.068C113.262 19.8951 118.077 16.564 123.476 14.1127C127.194 12.4243 131.047 11.3119 134.965 10.4242C136.449 10.088 138.024 9.94009 139.592 10.0222C140.265 10.0575 140.58 10.3997 140.658 10.9195C141.197 14.5425 141.948 18.139 141.855 21.8448C141.834 22.6921 141.597 22.8476 140.819 22.9262C135.825 23.4303 130.912 24.348 126.366 26.7167C123.875 28.0148 121.578 29.6567 119.272 31.47Z" fill="#0867B3"/>
<path d="M131.043 55.555C127.125 57.9062 123.671 56.2122 122.206 53.528C120.04 49.559 122.27 44.8285 125.987 44.1223C129.146 43.5223 131.477 44.7336 132.744 47.0765C134.132 49.6454 133.835 53.2816 131.043 55.555Z" fill="#EE2E30"/>
<path d="M114.805 56.6432C119.236 56.7976 120.835 59.3191 121.289 62.7605C121.663 65.5948 119.157 68.5919 116.394 69.2234C113.854 69.8041 111.839 68.9283 110.336 66.9779C108.64 64.7766 108.525 62.2344 109.917 59.7539C110.972 57.8743 112.555 56.7773 114.805 56.6432Z" fill="#EE2E30"/>
<path d="M128.729 33.4398C129.173 29.9381 131.259 28.3022 133.373 28.0202C137.435 27.4783 139.56 29.0091 140.483 32.1838C141.634 36.1468 139.522 40.2342 135.12 40.5396C131.343 40.8016 128.188 37.6007 128.729 33.4398Z" fill="#EE2E30"/>
<path d="M31.5313 98.3682C35.5641 94.9394 39.9106 92.3367 44.765 90.6556C49.4771 89.0238 54.3093 88.322 59.2363 88.6445C61.4817 88.7915 63.7551 89.0942 65.9467 89.8241C57.2665 100.927 41.2839 106.803 27.28 102.782C28.7149 101.294 30.0878 99.8698 31.5313 98.3682Z" fill="white"/>
<path d="M93.7824 116.887C95.0791 121.424 95.8808 125.93 95.6788 130.573C95.3865 137.289 93.8682 144.053 89.7493 150.754C82.1415 136.52 82.305 122.422 89.9368 107.995C91.4096 111.048 92.9484 113.726 93.7824 116.887Z" fill="white"/>
</svg>
