<svg width="500" height="350" viewBox="0 0 500 350" fill="none" xmlns="http://www.w3.org/2000/svg">
<rect width="500" height="350" rx="15" fill="white"/>
<path d="M17.5499 167.135C17.5499 155.736 17.5499 153.632 17.4028 151.237C17.2551 148.687 16.6559 147.486 14.1873 146.959C13.5917 146.811 12.3167 146.73 11.2792 146.73C10.4473 146.73 10 146.582 10 146.061C10 145.532 10.5275 145.385 11.6415 145.385C15.6094 145.385 20.3235 145.608 21.8179 145.608C25.4819 145.608 28.3936 145.385 30.9339 145.385C44.4706 145.385 46.8591 152.654 46.8591 156.63C46.8591 162.778 43.3426 166.458 39.2314 169.76C45.3652 171.86 52.8439 177.183 52.8439 185.96C52.8439 193.98 46.6347 202.307 32.8841 202.307C31.0864 202.307 24.2781 201.862 22.0374 201.862C20.3235 201.862 15.6094 202.078 12.6211 202.078C11.6415 202.078 11.1273 201.862 11.1273 201.335C11.1273 200.957 11.4221 200.74 12.3167 200.74C13.444 200.74 14.3392 200.588 15.0101 200.437C16.5034 200.131 16.8789 198.488 17.1749 196.303C17.5499 193.162 17.5499 187.235 17.5499 180.332V167.135ZM26.5236 168.405C26.5236 169.011 26.7479 169.159 27.0511 169.236C27.7227 169.383 28.841 169.455 30.5626 169.455C33.0277 169.455 34.6734 169.159 35.9483 168.032C37.8858 166.458 39.0132 163.755 39.0132 160.085C39.0132 155.059 36.096 148.453 29.6638 148.453C28.6166 148.453 27.947 148.453 27.1946 148.61C26.6761 148.758 26.5236 149.055 26.5236 149.881V168.405ZM36.3913 174.409C34.8265 173.287 33.1084 172.761 30.1913 172.605C28.841 172.528 28.0982 172.528 26.9715 172.528C26.6761 172.528 26.5236 172.686 26.5236 173.059V190.842C26.5236 195.787 26.7479 197.061 29.1447 198.032C31.1582 198.857 32.8841 198.939 34.6016 198.939C37.9665 198.939 43.6471 197.133 43.6471 189.326C43.6471 184.684 42.0725 178.377 36.3913 174.409Z" fill="#656263"/>
<path d="M67.2388 182.513C66.8628 182.513 66.7107 182.657 66.5674 183.115L62.5234 193.831C61.7814 195.706 61.4052 197.51 61.4052 198.406C61.4052 199.762 62.0768 200.74 64.3942 200.74H65.5214C66.416 200.74 66.639 200.884 66.639 201.335C66.639 201.935 66.1917 202.079 65.3641 202.079C62.9756 202.079 59.7595 201.862 57.4423 201.862C56.6194 201.862 52.508 202.079 48.6215 202.079C47.6456 202.079 47.2031 201.935 47.2031 201.335C47.2031 200.884 47.4985 200.74 48.0977 200.74C48.7644 200.74 49.8206 200.66 50.4149 200.588C53.8553 200.131 55.2774 197.582 56.7671 193.831L75.5405 146.731C76.4309 144.554 76.8781 143.737 77.6263 143.737C78.3009 143.737 78.7524 144.415 79.5035 146.133C81.2932 150.258 93.2553 180.861 98.0406 192.26C100.876 199.014 103.046 200.064 104.622 200.437C105.739 200.66 106.862 200.74 107.757 200.74C108.356 200.74 108.732 200.813 108.732 201.335C108.732 201.935 108.052 202.079 105.288 202.079C102.603 202.079 97.1418 202.079 91.1617 201.935C89.8197 201.862 88.9155 201.862 88.9155 201.335C88.9155 200.884 89.2109 200.74 89.962 200.66C90.4901 200.506 91.0086 199.835 90.6421 198.939L84.6571 183.033C84.5052 182.657 84.2822 182.513 83.9151 182.513H67.2388ZM82.4832 178.761C82.8636 178.761 82.9396 178.538 82.8636 178.309L76.1306 159.78C76.0588 159.484 75.9878 159.106 75.7647 159.106C75.5405 159.106 75.3801 159.484 75.3077 159.78L68.438 178.232C68.3565 178.538 68.438 178.761 68.7327 178.761H82.4832Z" fill="#656263"/>
<path d="M117.026 191.883C117.182 197.74 118.153 199.691 119.648 200.213C120.917 200.661 122.336 200.74 123.539 200.74C124.357 200.74 124.808 200.884 124.808 201.335C124.808 201.935 124.134 202.079 123.091 202.079C118.224 202.079 115.236 201.862 113.813 201.862C113.142 201.862 109.627 202.079 105.74 202.079C104.769 202.079 104.093 202.01 104.093 201.335C104.093 200.884 104.545 200.74 105.288 200.74C106.263 200.74 107.605 200.661 108.652 200.356C110.597 199.762 110.897 197.582 110.978 191.057L111.649 146.65C111.649 145.16 111.872 144.11 112.624 144.11C113.442 144.11 114.109 145.083 115.384 146.436C116.282 147.414 127.645 159.632 138.559 170.509C143.65 175.612 153.742 186.408 155.011 187.61H155.386L154.636 153.937C154.565 149.361 153.888 147.933 152.095 147.179C150.977 146.731 149.178 146.731 148.132 146.731C147.233 146.731 146.932 146.51 146.932 146.061C146.932 145.457 147.755 145.385 148.873 145.385C152.766 145.385 156.353 145.608 157.918 145.608C158.751 145.608 161.587 145.385 165.255 145.385C166.221 145.385 166.973 145.457 166.973 146.061C166.973 146.51 166.525 146.731 165.623 146.731C164.879 146.731 164.28 146.731 163.381 146.959C161.291 147.557 160.693 149.136 160.621 153.336L159.788 200.661C159.788 202.307 159.493 202.985 158.822 202.985C158.004 202.985 157.101 202.154 156.277 201.335C151.576 196.839 142.004 187.01 134.225 179.283C126.079 171.178 117.777 161.808 116.435 160.386H116.202L117.026 191.883Z" fill="#656263"/>
<path d="M180.856 170.219L184.322 173.195L202.636 155.117C204.579 153.152 205.557 151.596 205.557 150.401C205.557 148.932 204.593 147.92 202.65 147.39C201.259 147.011 201.767 145.603 203.341 145.603H222.052C223.763 145.603 223.802 147.24 222.141 147.24H220.428C218.73 147.24 216.804 147.814 214.616 148.943C212.429 150.074 210.439 151.58 208.61 153.43L191.16 170.755L214.355 194.302C217.102 197.137 219.473 199.511 223.479 200.059C225.495 200.334 225.579 201.884 223.428 201.884H214.318C210.06 201.884 209.077 200.386 206.102 197.371L183.344 174.292L181.566 172.549C179.97 172.013 178.992 171.38 180.856 170.219Z" fill="#656263"/>
<path d="M174.925 167.135C174.925 155.737 174.925 153.632 174.771 151.237C174.624 148.687 173.877 147.414 172.24 147.032C171.413 146.811 170.437 146.731 169.544 146.731C168.795 146.731 168.349 146.582 168.349 145.981C168.349 145.533 168.944 145.385 170.147 145.385C172.974 145.385 177.688 145.608 179.864 145.608C181.723 145.608 186.143 145.385 188.984 145.385C189.953 145.385 190.546 145.533 190.546 145.981C190.546 146.582 190.097 146.731 189.35 146.731C188.603 146.731 188.013 146.811 187.114 146.959C185.095 147.332 184.496 148.61 184.345 151.237C184.192 153.632 184.192 155.737 184.192 167.135V180.332C184.192 187.61 184.192 193.535 184.496 196.766C184.72 198.789 185.239 200.131 187.49 200.437C188.532 200.588 190.177 200.74 191.296 200.74C192.123 200.74 192.495 200.957 192.495 201.335C192.495 201.862 191.896 202.079 191.072 202.079C186.143 202.079 181.428 201.862 179.414 201.862C177.688 201.862 172.974 202.079 169.994 202.079C169.019 202.079 168.496 201.862 168.496 201.335C168.496 200.957 168.795 200.74 169.69 200.74C170.817 200.74 171.712 200.588 172.382 200.437C173.877 200.131 174.333 198.857 174.553 196.684C174.925 193.535 174.925 187.61 174.925 180.332V167.135Z" fill="#656263"/>
<path d="M376.551 182.513C376.182 182.513 376.022 182.657 375.878 183.115L371.844 193.831C371.092 195.706 370.718 197.51 370.718 198.406C370.718 199.762 371.387 200.74 373.714 200.74H374.836C375.727 200.74 375.949 200.884 375.949 201.335C375.949 201.935 375.505 202.079 374.685 202.079C372.292 202.079 369.08 201.862 366.758 201.862C365.94 201.862 361.819 202.079 357.936 202.079C356.966 202.079 356.513 201.935 356.513 201.335C356.513 200.884 356.814 200.74 357.415 200.74C358.084 200.74 359.132 200.66 359.731 200.588C363.166 200.131 364.589 197.582 366.083 193.831L384.852 146.731C385.752 144.554 386.193 143.737 386.94 143.737C387.621 143.737 388.065 144.415 388.815 146.133C390.604 150.258 402.575 180.861 407.353 192.26C410.197 199.014 412.362 200.064 413.933 200.437C415.06 200.66 416.174 200.74 417.077 200.74C417.671 200.74 418.043 200.813 418.043 201.335C418.043 201.935 417.372 202.079 414.608 202.079C411.915 202.079 406.458 202.079 400.478 201.935C399.135 201.862 398.228 201.862 398.228 201.335C398.228 200.884 398.531 200.74 399.274 200.66C399.806 200.506 400.329 199.835 399.954 198.939L393.973 183.033C393.825 182.657 393.593 182.513 393.217 182.513H376.551ZM391.804 178.761C392.179 178.761 392.252 178.538 392.179 178.309L385.451 159.78C385.372 159.484 385.3 159.106 385.074 159.106C384.852 159.106 384.699 159.484 384.621 159.78L377.747 178.232C377.676 178.538 377.747 178.761 378.054 178.761H391.804Z" fill="#656263"/>
<path d="M270.536 167.135C270.536 155.737 270.536 153.632 270.383 151.237C270.235 148.687 269.488 147.414 267.851 147.032C267.025 146.811 266.048 146.731 265.154 146.731C264.406 146.731 263.96 146.582 263.96 145.981C263.96 145.533 264.554 145.385 265.758 145.385C268.585 145.385 273.3 145.608 275.474 145.608C277.335 145.608 281.754 145.385 284.595 145.385C285.565 145.385 286.157 145.533 286.157 145.981C286.157 146.582 285.709 146.731 284.961 146.731C284.214 146.731 283.624 146.811 282.724 146.959C280.707 147.332 280.107 148.61 279.956 151.237C279.803 153.632 279.803 155.737 279.803 167.135V180.332C279.803 187.61 279.803 193.535 280.107 196.766C280.332 198.789 280.849 200.131 283.101 200.437C284.143 200.588 285.789 200.74 286.907 200.74C287.734 200.74 288.106 200.957 288.106 201.335C288.106 201.862 287.507 202.079 286.684 202.079C281.754 202.079 277.041 201.862 275.027 201.862C273.3 201.862 268.585 202.079 265.607 202.079C264.631 202.079 264.108 201.862 264.108 201.335C264.108 200.957 264.406 200.74 265.301 200.74C266.429 200.74 267.324 200.588 267.994 200.437C269.488 200.131 269.945 198.857 270.164 196.684C270.536 193.535 270.536 187.61 270.536 180.332V167.135Z" fill="#656263"/>
<path d="M290.683 201.182C289.488 200.661 289.259 200.284 289.259 198.632C289.259 194.508 289.556 190.006 289.635 188.814C289.715 187.687 289.936 186.866 290.532 186.866C291.209 186.866 291.282 187.539 291.282 188.131C291.282 189.11 291.587 190.688 291.953 191.959C293.6 197.51 298.01 199.539 302.643 199.539C309.372 199.539 312.668 194.961 312.668 190.982C312.668 187.306 311.546 183.788 305.338 178.986L301.901 176.281C293.675 169.832 290.834 164.581 290.834 158.506C290.834 150.258 297.709 144.335 308.105 144.335C312.96 144.335 316.103 145.083 318.046 145.608C318.719 145.761 319.093 145.981 319.093 146.51C319.093 147.486 318.792 149.657 318.792 155.504C318.792 157.16 318.57 157.752 317.978 157.752C317.451 157.752 317.221 157.311 317.221 156.41C317.221 155.737 316.85 153.408 315.285 151.46C314.157 150.033 311.988 147.786 307.131 147.786C301.598 147.786 298.233 151.012 298.233 155.504C298.233 158.954 299.95 161.584 306.16 166.314L308.248 167.884C317.221 174.858 320.514 179.887 320.514 187.01C320.514 191.362 318.867 196.538 313.488 200.064C309.748 202.464 305.561 203.138 301.598 203.138C297.262 203.138 293.902 202.607 290.683 201.182Z" fill="#656263"/>
<path d="M337.204 180.332C337.204 189.935 337.204 195.104 338.769 196.46C340.044 197.582 341.982 198.107 347.814 198.107C351.782 198.107 354.694 198.032 356.564 196.011C357.459 195.037 358.361 192.933 358.506 191.506C358.58 190.842 358.734 190.389 359.328 190.389C359.853 190.389 359.932 190.756 359.932 191.659C359.932 192.484 359.41 198.107 358.81 200.284C358.361 201.935 357.987 202.307 354.098 202.307C343.333 202.307 338.394 201.862 332.337 201.862C330.621 201.862 325.914 202.078 322.92 202.078C321.951 202.078 321.421 201.862 321.421 201.335C321.421 200.957 321.727 200.74 322.622 200.74C323.744 200.74 324.642 200.588 325.312 200.437C326.809 200.131 327.184 198.488 327.479 196.303C327.854 193.162 327.854 187.235 327.854 180.332V167.135C327.854 155.736 327.854 153.632 327.712 151.237C327.561 148.687 326.96 147.486 324.491 146.959C323.895 146.811 322.988 146.73 322.026 146.73C321.204 146.73 320.752 146.582 320.752 146.061C320.752 145.532 321.281 145.385 322.398 145.385C325.914 145.385 330.621 145.608 332.641 145.608C334.436 145.608 339.896 145.385 342.809 145.385C343.854 145.385 344.379 145.532 344.379 146.061C344.379 146.582 343.931 146.73 343.027 146.73C342.209 146.73 341.015 146.811 340.116 146.959C338.093 147.332 337.499 148.61 337.348 151.237C337.204 153.632 337.204 155.736 337.204 167.135V180.332Z" fill="#656263"/>
<path d="M426.676 145.68C426.892 144.415 427.347 143.737 427.947 143.737C428.546 143.737 428.994 144.11 429.961 146.061L450.375 188.36L470.709 145.533C471.236 144.335 471.686 143.737 472.356 143.737C473.032 143.737 473.475 144.486 473.697 146.061L480.506 192.414C481.177 197.133 481.93 199.306 484.174 199.979C486.339 200.66 487.833 200.74 488.804 200.74C489.477 200.74 490 200.813 490 201.262C490 201.862 489.1 202.079 488.057 202.079C486.188 202.079 475.867 201.862 472.881 201.634C471.163 201.484 470.709 201.262 470.709 200.813C470.709 200.437 471.01 200.213 471.535 199.979C471.981 199.835 472.205 198.857 471.91 196.766L467.418 163.756H467.123L450.823 197.811C449.104 201.335 448.733 202.01 448.059 202.01C447.383 202.01 446.636 200.506 445.439 198.26C443.647 194.81 437.738 183.33 436.84 181.23C436.168 179.656 431.684 170.209 429.065 164.581H428.765L424.889 194.432C424.736 195.787 424.654 196.766 424.654 197.96C424.654 199.378 425.626 200.064 426.892 200.356C428.247 200.66 429.29 200.74 430.04 200.74C430.636 200.74 431.164 200.884 431.164 201.262C431.164 201.935 430.488 202.079 429.366 202.079C426.23 202.079 422.861 201.862 421.523 201.862C420.097 201.862 416.509 202.079 414.117 202.079C413.364 202.079 412.765 201.935 412.765 201.262C412.765 200.884 413.212 200.74 413.959 200.74C414.569 200.74 415.081 200.74 416.205 200.506C418.304 200.064 418.901 197.133 419.279 194.585L426.676 145.68Z" fill="#656263"/>
<path d="M319.823 226.523C273.723 225.897 236.157 200.517 235.996 170.63C235.834 141.606 271.207 119.224 314.957 119.897C320.336 119.972 325.607 120.404 330.721 121.13C323.75 119.869 316.468 119.133 308.989 119.016C262.54 118.307 224.835 141.754 224.835 172.21C224.835 203.613 264.682 230.331 313.758 230.988C353.672 231.525 386.025 214.581 395.121 191.255C385.346 212.136 355.868 227.011 319.823 226.523Z" fill="#C40070"/>
</svg>
