<svg width="800" height="180" viewBox="0 0 800 180" fill="none" xmlns="http://www.w3.org/2000/svg">
<rect width="800" height="180" rx="15" fill="white"/>
<path d="M109.437 80.1686C109.437 65.9207 109.437 63.2901 109.253 60.2958C109.069 57.1087 108.32 55.6074 105.234 54.949C104.49 54.7638 102.896 54.6632 101.599 54.6632C100.559 54.6632 100 54.4772 100 53.8264C100 53.1657 100.659 52.9813 102.052 52.9813C107.012 52.9813 112.904 53.2602 114.772 53.2602C119.352 53.2602 122.992 52.9813 126.167 52.9813C143.088 52.9813 146.074 62.0677 146.074 67.0373C146.074 74.7221 141.678 79.3227 136.539 83.4501C144.206 86.0756 153.555 92.7286 153.555 103.7C153.555 113.725 145.793 124.134 128.605 124.134C126.358 124.134 117.848 123.578 115.047 123.578C112.904 123.578 107.012 123.848 103.276 123.848C102.052 123.848 101.409 123.578 101.409 122.919C101.409 122.446 101.778 122.175 102.896 122.175C104.305 122.175 105.424 121.985 106.263 121.796C108.129 121.414 108.599 119.36 108.969 116.629C109.437 112.702 109.437 105.294 109.437 96.6646V80.1686ZM120.655 81.756C120.655 82.5135 120.935 82.6987 121.314 82.7948C122.153 82.9785 123.551 83.0693 125.703 83.0693C128.785 83.0693 130.842 82.6987 132.435 81.2904C134.857 79.3227 136.266 75.9444 136.266 71.3566C136.266 65.074 132.62 56.8169 124.58 56.8169C123.271 56.8169 122.434 56.8169 121.493 57.0127C120.845 57.1979 120.655 57.5691 120.655 58.601V81.756ZM132.989 89.2611C131.033 87.8589 128.885 87.2019 125.239 87.0068C123.551 86.91 122.623 86.91 121.214 86.91C120.845 86.91 120.655 87.1074 120.655 87.5738V109.803C120.655 115.984 120.935 117.576 123.931 118.79C126.448 119.821 128.605 119.923 130.752 119.923C134.958 119.923 142.059 117.666 142.059 107.908C142.059 102.105 140.091 94.2208 132.989 89.2611Z" fill="#656263"/>
<path d="M171.549 99.3915C171.078 99.3915 170.888 99.5715 170.709 100.144L165.654 113.539C164.727 115.882 164.257 118.137 164.257 119.258C164.257 120.953 165.096 122.176 167.993 122.176H169.402C170.52 122.176 170.799 122.355 170.799 122.919C170.799 123.669 170.24 123.848 169.205 123.848C166.22 123.848 162.199 123.578 159.303 123.578C158.274 123.578 153.135 123.848 148.277 123.848C147.057 123.848 146.504 123.669 146.504 122.919C146.504 122.355 146.873 122.176 147.622 122.176C148.456 122.176 149.776 122.076 150.519 121.985C154.819 121.414 156.597 118.228 158.459 113.539L181.926 54.6634C183.039 51.9429 183.598 50.9209 184.533 50.9209C185.376 50.9209 185.941 51.7689 186.879 53.9166C189.117 59.0729 204.069 97.3263 210.051 111.576C213.595 120.018 216.308 121.33 218.277 121.796C219.674 122.076 221.078 122.176 222.196 122.176C222.945 122.176 223.415 122.267 223.415 122.919C223.415 123.669 222.566 123.848 219.11 123.848C215.754 123.848 208.927 123.848 201.452 123.669C199.775 123.578 198.644 123.578 198.644 122.919C198.644 122.355 199.014 122.176 199.952 122.076C200.613 121.883 201.261 121.044 200.803 119.924L193.321 100.042C193.132 99.5715 192.853 99.3915 192.394 99.3915H171.549ZM190.604 94.7017C191.08 94.7017 191.174 94.4221 191.08 94.1363L182.663 70.975C182.574 70.6046 182.485 70.133 182.206 70.133C181.926 70.133 181.725 70.6046 181.635 70.975L173.047 94.0403C172.946 94.4221 173.047 94.7017 173.416 94.7017H190.604Z" fill="#656263"/>
<path d="M233.782 111.103C233.978 118.424 235.191 120.864 237.059 121.516C238.646 122.076 240.419 122.175 241.923 122.175C242.946 122.175 243.51 122.355 243.51 122.919C243.51 123.669 242.667 123.848 241.363 123.848C235.28 123.848 231.545 123.578 229.766 123.578C228.928 123.578 224.533 123.848 219.674 123.848C218.461 123.848 217.616 123.763 217.616 122.919C217.616 122.355 218.181 122.175 219.11 122.175C220.328 122.175 222.007 122.076 223.315 121.695C225.746 120.953 226.121 118.228 226.223 110.071L227.061 54.562C227.061 52.7002 227.34 51.3879 228.28 51.3879C229.302 51.3879 230.136 52.6042 231.73 54.2944C232.853 55.5174 247.056 70.7897 260.699 84.386C267.063 90.7646 279.677 104.26 281.263 105.762H281.733L280.795 63.6718C280.706 57.951 279.86 56.1661 277.619 55.2243C276.221 54.6632 273.972 54.6632 272.665 54.6632C271.541 54.6632 271.165 54.3875 271.165 53.8265C271.165 53.0706 272.194 52.9814 273.592 52.9814C278.458 52.9814 282.941 53.2602 284.898 53.2602C285.938 53.2602 289.483 52.9814 294.069 52.9814C295.277 52.9814 296.216 53.0706 296.216 53.8265C296.216 54.3875 295.657 54.6632 294.528 54.6632C293.598 54.6632 292.85 54.6632 291.726 54.9491C289.114 55.6966 288.366 57.6698 288.276 62.9204L287.235 122.076C287.235 124.134 286.867 124.981 286.028 124.981C285.005 124.981 283.876 123.943 282.846 122.919C276.97 117.298 265.004 105.013 255.281 95.3532C245.099 85.2222 234.721 73.5104 233.044 71.7325H232.753L233.782 111.103Z" fill="#656263"/>
<path d="M313.57 84.0239L317.903 87.7431L340.795 65.1458C343.224 62.6898 344.447 60.7455 344.447 59.251C344.447 57.4149 343.241 56.1502 340.812 55.4872C339.074 55.0133 339.709 53.2534 341.676 53.2534H365.064C367.204 53.2534 367.252 55.3005 365.176 55.3005H363.035C360.913 55.3005 358.506 56.0171 355.77 57.4292C353.037 58.8421 350.548 60.7244 348.262 63.0376L326.45 84.6936L355.444 114.128C358.878 117.671 361.841 120.639 366.849 121.323C369.368 121.667 369.474 123.605 366.785 123.605H355.398C350.076 123.605 348.847 121.732 345.128 117.963L316.68 89.1152L314.457 86.9365C312.463 86.2668 311.24 85.4753 313.57 84.0239Z" fill="#656263"/>
<path d="M306.157 80.1688C306.157 65.9209 306.157 63.2903 305.964 60.296C305.78 57.1089 304.847 55.5176 302.8 55.04C301.766 54.764 300.547 54.6634 299.43 54.6634C298.494 54.6634 297.937 54.4774 297.937 53.727C297.937 53.1659 298.679 52.9815 300.184 52.9815C303.718 52.9815 309.61 53.2604 312.33 53.2604C314.654 53.2604 320.179 52.9815 323.73 52.9815C324.942 52.9815 325.682 53.1659 325.682 53.727C325.682 54.4774 325.121 54.6634 324.187 54.6634C323.254 54.6634 322.517 54.764 321.392 54.9492C318.869 55.4156 318.121 57.0129 317.931 60.296C317.741 63.2903 317.741 65.9209 317.741 80.1688V96.6648C317.741 105.763 317.741 113.169 318.121 117.208C318.4 119.736 319.048 121.414 321.863 121.796C323.165 121.985 325.221 122.176 326.62 122.176C327.654 122.176 328.119 122.446 328.119 122.919C328.119 123.578 327.37 123.848 326.34 123.848C320.179 123.848 314.286 123.578 311.768 123.578C309.61 123.578 303.718 123.848 299.993 123.848C298.774 123.848 298.12 123.578 298.12 122.919C298.12 122.446 298.494 122.176 299.613 122.176C301.021 122.176 302.14 121.985 302.977 121.796C304.847 121.414 305.416 119.822 305.692 117.105C306.156 113.169 306.157 105.763 306.157 96.6648V80.1688Z" fill="#656263"/>
<path d="M558.189 99.3915C557.728 99.3915 557.527 99.5715 557.348 100.144L552.305 113.539C551.366 115.882 550.897 118.137 550.897 119.258C550.897 120.953 551.734 122.176 554.643 122.176H556.046C557.159 122.176 557.436 122.355 557.436 122.919C557.436 123.669 556.881 123.848 555.857 123.848C552.865 123.848 548.85 123.578 545.947 123.578C544.925 123.578 539.774 123.848 534.92 123.848C533.707 123.848 533.142 123.669 533.142 122.919C533.142 122.355 533.518 122.176 534.268 122.176C535.106 122.176 536.415 122.076 537.164 121.985C541.458 121.414 543.237 118.228 545.104 113.539L568.565 54.6634C569.69 51.9429 570.242 50.9209 571.175 50.9209C572.026 50.9209 572.582 51.7689 573.519 53.9166C575.755 59.0729 590.719 97.3263 596.691 111.576C600.246 120.018 602.953 121.33 604.916 121.796C606.325 122.076 607.718 122.176 608.846 122.176C609.589 122.176 610.054 122.267 610.054 122.919C610.054 123.669 609.214 123.848 605.76 123.848C602.393 123.848 595.572 123.848 588.097 123.669C586.419 123.578 585.284 123.578 585.284 122.919C585.284 122.355 585.664 122.176 586.592 122.076C587.258 121.883 587.912 121.044 587.443 119.924L579.966 100.042C579.781 99.5715 579.491 99.3915 579.021 99.3915H558.189ZM577.256 94.7017C577.724 94.7017 577.815 94.4221 577.724 94.1363L569.314 70.975C569.215 70.6046 569.125 70.133 568.843 70.133C568.565 70.133 568.374 70.6046 568.276 70.975L559.684 94.0403C559.595 94.4221 559.684 94.7017 560.068 94.7017H577.256Z" fill="#656263"/>
<path d="M425.67 80.1688C425.67 65.9209 425.67 63.2903 425.479 60.296C425.294 57.1089 424.36 55.5176 422.313 55.04C421.281 54.764 420.06 54.6634 418.943 54.6634C418.007 54.6634 417.45 54.4774 417.45 53.727C417.45 53.1659 418.193 52.9815 419.697 52.9815C423.231 52.9815 429.125 53.2604 431.843 53.2604C434.169 53.2604 439.692 52.9815 443.243 52.9815C444.457 52.9815 445.196 53.1659 445.196 53.727C445.196 54.4774 444.636 54.6634 443.701 54.6634C442.767 54.6634 442.03 54.764 440.905 54.9492C438.384 55.4156 437.634 57.0129 437.445 60.296C437.254 63.2903 437.254 65.9209 437.254 80.1688V96.6648C437.254 105.763 437.254 113.169 437.634 117.208C437.915 119.736 438.562 121.414 441.376 121.796C442.678 121.985 444.737 122.176 446.133 122.176C447.167 122.176 447.632 122.446 447.632 122.919C447.632 123.578 446.884 123.848 445.855 123.848C439.692 123.848 433.801 123.578 431.283 123.578C429.125 123.578 423.231 123.848 419.508 123.848C418.289 123.848 417.635 123.578 417.635 122.919C417.635 122.446 418.007 122.176 419.126 122.176C420.536 122.176 421.655 121.985 422.493 121.796C424.36 121.414 424.931 119.822 425.205 117.105C425.67 113.169 425.67 105.763 425.67 96.6648V80.1688Z" fill="#656263"/>
<path d="M450.854 122.727C449.361 122.076 449.073 121.606 449.073 119.54C449.073 114.386 449.446 108.758 449.544 107.267C449.644 105.859 449.92 104.833 450.665 104.833C451.512 104.833 451.602 105.674 451.602 106.414C451.602 107.637 451.984 109.61 452.441 111.199C454.5 118.137 460.013 120.674 465.804 120.674C474.215 120.674 478.335 114.951 478.335 109.977C478.335 105.382 476.933 100.985 469.172 94.9829L464.876 91.6008C454.594 83.5403 451.043 76.9765 451.043 69.3824C451.043 59.073 459.637 51.6685 472.631 51.6685C478.7 51.6685 482.629 52.6043 485.058 53.2604C485.899 53.4518 486.366 53.727 486.366 54.3876C486.366 55.6076 485.99 58.3215 485.99 65.6298C485.99 67.6997 485.712 68.4405 484.973 68.4405C484.313 68.4405 484.026 67.8893 484.026 66.7631C484.026 65.9209 483.563 63.0105 481.607 60.5756C480.197 58.791 477.484 55.9826 471.414 55.9826C464.498 55.9826 460.291 60.0148 460.291 65.6298C460.291 69.9432 462.438 73.2301 470.2 79.1429L472.81 81.1046C484.026 89.8229 488.143 96.1092 488.143 105.013C488.143 110.453 486.084 116.923 479.36 121.33C474.685 124.331 469.452 125.173 464.498 125.173C459.077 125.173 454.878 124.508 450.854 122.727Z" fill="#656263"/>
<path d="M509.005 96.6646C509.005 108.669 509.005 115.131 510.962 116.826C512.555 118.228 514.978 118.884 522.268 118.884C527.227 118.884 530.868 118.79 533.206 116.264C534.324 115.047 535.451 112.417 535.632 110.633C535.725 109.803 535.918 109.236 536.661 109.236C537.316 109.236 537.415 109.695 537.415 110.824C537.415 111.855 536.763 118.884 536.012 121.605C535.451 123.669 534.984 124.134 530.123 124.134C516.666 124.134 510.493 123.578 502.921 123.578C500.776 123.578 494.892 123.848 491.15 123.848C489.939 123.848 489.277 123.578 489.277 122.919C489.277 122.446 489.659 122.175 490.778 122.175C492.18 122.175 493.303 121.985 494.14 121.796C496.011 121.414 496.48 119.36 496.848 116.629C497.317 112.702 497.317 105.294 497.317 96.6646V80.1686C497.317 65.9207 497.317 63.2901 497.14 60.2958C496.951 57.1087 496.2 55.6074 493.114 54.949C492.369 54.7638 491.235 54.6632 490.033 54.6632C489.005 54.6632 488.44 54.4772 488.44 53.8264C488.44 53.1657 489.101 52.9813 490.498 52.9813C494.892 52.9813 500.776 53.2602 503.301 53.2602C505.545 53.2602 512.37 52.9813 516.012 52.9813C517.318 52.9813 517.974 53.1657 517.974 53.8264C517.974 54.4772 517.414 54.6632 516.284 54.6632C515.261 54.6632 513.768 54.7638 512.646 54.949C510.117 55.4154 509.374 57.0127 509.185 60.2958C509.005 63.2901 509.005 65.9207 509.005 80.1686V96.6646Z" fill="#656263"/>
<path d="M620.845 53.3504C621.115 51.7689 621.684 50.9209 622.434 50.9209C623.183 50.9209 623.742 51.3881 624.952 53.8266L650.469 106.7L675.887 53.1659C676.544 51.6685 677.108 50.9209 677.945 50.9209C678.79 50.9209 679.343 51.8581 679.621 53.8266L688.132 111.767C688.971 117.666 689.913 120.382 692.718 121.224C695.424 122.076 697.291 122.176 698.505 122.176C699.346 122.176 700 122.267 700 122.828C700 123.578 698.875 123.848 697.571 123.848C695.235 123.848 682.334 123.578 678.601 123.293C676.454 123.105 675.887 122.828 675.887 122.267C675.887 121.796 676.263 121.516 676.919 121.224C677.476 121.044 677.756 119.822 677.387 117.208L671.772 75.9446H671.403L651.029 118.514C648.88 122.919 648.417 123.763 647.574 123.763C646.729 123.763 645.795 121.883 644.298 119.075C642.059 114.762 634.672 100.412 633.549 97.7874C632.71 95.8205 627.104 84.0113 623.831 76.9765H623.457L618.611 114.29C618.42 115.984 618.318 117.208 618.318 118.701C618.318 120.473 619.533 121.33 621.115 121.695C622.808 122.076 624.112 122.176 625.05 122.176C625.795 122.176 626.454 122.355 626.454 122.828C626.454 123.669 625.609 123.848 624.207 123.848C620.287 123.848 616.076 123.578 614.403 123.578C612.621 123.578 608.136 123.848 605.146 123.848C604.205 123.848 603.456 123.669 603.456 122.828C603.456 122.355 604.015 122.176 604.949 122.176C605.711 122.176 606.352 122.176 607.756 121.883C610.379 121.33 611.126 117.666 611.599 114.481L620.845 53.3504Z" fill="#656263"/>
<path d="M487.278 154.403C429.653 153.621 382.696 121.896 382.495 84.538C382.293 48.2576 426.509 20.2796 481.196 21.1208C487.921 21.2155 494.508 21.7552 500.901 22.663C492.188 21.0868 483.085 20.1662 473.736 20.0195C415.675 19.1344 368.544 48.4428 368.544 86.5127C368.544 125.767 418.353 159.164 479.697 159.984C529.59 160.656 570.031 139.476 581.401 110.319C569.182 136.42 532.335 155.013 487.278 154.403Z" fill="#C40070"/>
</svg>
