<svg width="180" height="180" viewBox="0 0 180 180" fill="none" xmlns="http://www.w3.org/2000/svg">
<rect width="180" height="180" rx="15" fill="white"/>
<path d="M33.7524 58.236C33.7524 51.7881 33.7524 50.5977 33.6692 49.2426C33.5857 47.8003 33.2467 47.1209 31.8503 46.8229C31.5133 46.7391 30.7921 46.6936 30.2052 46.6936C29.7346 46.6936 29.4816 46.6094 29.4816 46.3149C29.4816 46.0159 29.78 45.9324 30.4102 45.9324C32.6547 45.9324 35.3214 46.0586 36.1668 46.0586C38.2395 46.0586 39.8866 45.9324 41.3236 45.9324C48.9811 45.9324 50.3323 50.0445 50.3323 52.2935C50.3323 55.7712 48.343 57.8532 46.0174 59.7211C49.4872 60.9092 53.7178 63.9201 53.7178 68.8853C53.7178 73.4219 50.2053 78.1326 42.4268 78.1326C41.4099 78.1326 37.5585 77.8808 36.2909 77.8808C35.3214 77.8808 32.6547 78.0032 30.9643 78.0032C30.4102 78.0032 30.1193 77.8808 30.1193 77.5825C30.1193 77.3686 30.286 77.2462 30.7921 77.2462C31.4298 77.2462 31.9362 77.1599 32.3157 77.0745C33.1604 76.9017 33.3729 75.9719 33.5403 74.7362C33.7524 72.959 33.7524 69.6064 33.7524 65.7013V58.236ZM38.8288 58.9544C38.8288 59.2972 38.9556 59.381 39.1272 59.4245C39.5071 59.5076 40.1397 59.5487 41.1136 59.5487C42.508 59.5487 43.439 59.381 44.1602 58.7437C45.2562 57.8532 45.8939 56.3244 45.8939 54.2482C45.8939 51.405 44.2437 47.6682 40.6052 47.6682C40.0127 47.6682 39.6339 47.6682 39.2084 47.7569C38.915 47.8407 38.8288 48.0086 38.8288 48.4756V58.9544ZM44.4108 62.3509C43.5256 61.7163 42.5537 61.4189 40.9035 61.3307C40.1397 61.2869 39.7195 61.2869 39.0821 61.2869C38.915 61.2869 38.8288 61.3762 38.8288 61.5873V71.647C38.8288 74.4443 38.9556 75.1648 40.3115 75.7139C41.4505 76.1809 42.4268 76.2271 43.3984 76.2271C45.3019 76.2271 48.5153 75.2056 48.5153 70.7894C48.5153 68.1635 47.6246 64.5954 44.4108 62.3509Z" fill="#656263"/>
<path d="M61.8609 66.9355C61.6482 66.9355 61.5622 67.0169 61.4811 67.2759L59.1935 73.3379C58.7737 74.3984 58.5609 75.4188 58.5609 75.9259C58.5609 76.6932 58.9408 77.2464 60.2517 77.2464H60.8894C61.3954 77.2464 61.5216 77.3278 61.5216 77.5827C61.5216 77.9223 61.2686 78.0034 60.8004 78.0034C59.4493 78.0034 57.6299 77.881 56.3191 77.881C55.8537 77.881 53.5279 78.0034 51.3293 78.0034C50.7773 78.0034 50.527 77.9223 50.527 77.5827C50.527 77.3278 50.6941 77.2464 51.0331 77.2464C51.4102 77.2464 52.0077 77.2012 52.3439 77.1601C54.29 76.9019 55.0945 75.4599 55.9372 73.3379L66.557 46.6938C67.0608 45.4626 67.3137 45.0001 67.737 45.0001C68.1186 45.0001 68.374 45.3839 68.7989 46.3558C69.8113 48.6893 76.5781 66.0008 79.2851 72.4494C80.8892 76.27 82.1168 76.8636 83.0079 77.0747C83.6402 77.2012 84.2755 77.2464 84.7815 77.2464C85.1205 77.2464 85.3329 77.2877 85.3329 77.5827C85.3329 77.9223 84.9486 78.0034 83.3847 78.0034C81.8662 78.0034 78.7766 78.0034 75.3938 77.9223C74.6346 77.881 74.1231 77.881 74.1231 77.5827C74.1231 77.3278 74.2902 77.2464 74.7151 77.2012C75.0138 77.114 75.3072 76.7342 75.0998 76.2273L71.7142 67.2297C71.6283 67.0169 71.5021 66.9355 71.2944 66.9355H61.8609ZM70.4845 64.8131C70.6997 64.8131 70.7426 64.6866 70.6997 64.5572L66.8909 54.0756C66.8503 53.908 66.8101 53.6945 66.6839 53.6945C66.557 53.6945 66.4663 53.908 66.4254 54.0756L62.5392 64.5138C62.4931 64.6866 62.5392 64.8131 62.706 64.8131H70.4845Z" fill="#656263"/>
<path d="M90.0245 72.2354C90.1131 75.5486 90.6622 76.6525 91.5076 76.9477C92.2257 77.2009 93.0282 77.2461 93.7089 77.2461C94.1715 77.2461 94.427 77.3275 94.427 77.5824C94.427 77.922 94.0454 78.0031 93.4554 78.0031C90.7024 78.0031 89.012 77.8807 88.2072 77.8807C87.8276 77.8807 85.8389 78.0031 83.6401 78.0031C83.091 78.0031 82.7087 77.9645 82.7087 77.5824C82.7087 77.3275 82.9644 77.2461 83.3846 77.2461C83.936 77.2461 84.6955 77.2009 85.2875 77.0288C86.3879 76.6929 86.5574 75.4596 86.6034 71.7684L86.9827 46.6477C86.9827 45.8051 87.1092 45.2112 87.5344 45.2112C87.9972 45.2112 88.3743 45.7617 89.0959 46.5266C89.604 47.0801 96.0318 53.9915 102.206 60.1445C105.086 63.0311 110.794 69.1386 111.512 69.8184H111.725L111.3 50.7703C111.26 48.1813 110.877 47.3736 109.863 46.9474C109.23 46.6935 108.212 46.6935 107.621 46.6935C107.112 46.6935 106.942 46.5687 106.942 46.3148C106.942 45.9727 107.408 45.9324 108.04 45.9324C110.243 45.9324 112.272 46.0585 113.157 46.0585C113.628 46.0585 115.232 45.9324 117.307 45.9324C117.854 45.9324 118.279 45.9727 118.279 46.3148C118.279 46.5687 118.026 46.6935 117.515 46.6935C117.094 46.6935 116.756 46.6935 116.247 46.8228C115.065 47.1612 114.726 48.0541 114.686 50.4302L114.215 77.2009C114.215 78.1325 114.048 78.5156 113.668 78.5156C113.205 78.5156 112.694 78.0459 112.228 77.5824C109.569 75.0389 104.154 69.479 99.754 65.1077C95.1459 60.5229 90.4494 55.2227 89.6903 54.4182H89.5587L90.0245 72.2354Z" fill="#656263"/>
<path d="M126.133 59.9808L128.093 61.6639L138.453 51.4375C139.552 50.3261 140.106 49.4462 140.106 48.7698C140.106 47.9389 139.56 47.3665 138.461 47.0665C137.675 46.852 137.962 46.0556 138.852 46.0556H149.436C150.405 46.0556 150.426 46.982 149.487 46.982H148.518C147.558 46.982 146.468 47.3063 145.23 47.9454C143.993 48.5848 142.867 49.4366 141.833 50.4834L131.962 60.2839L145.083 73.6042C146.637 75.2076 147.978 76.551 150.244 76.8606C151.384 77.0163 151.432 77.8931 150.215 77.8931H145.062C142.653 77.8931 142.097 77.0458 140.414 75.34L127.54 62.2848L126.534 61.2989C125.632 60.9958 125.078 60.6376 126.133 59.9808Z" fill="#656263"/>
<path d="M122.778 58.2362C122.778 51.7883 122.778 50.5979 122.69 49.2428C122.607 47.8005 122.185 47.0804 121.259 46.8642C120.791 46.7393 120.239 46.6938 119.734 46.6938C119.31 46.6938 119.058 46.6096 119.058 46.27C119.058 46.0161 119.394 45.9326 120.075 45.9326C121.674 45.9326 124.34 46.0588 125.571 46.0588C126.623 46.0588 129.124 45.9326 130.731 45.9326C131.279 45.9326 131.614 46.0161 131.614 46.27C131.614 46.6096 131.36 46.6938 130.938 46.6938C130.515 46.6938 130.182 46.7393 129.673 46.8231C128.531 47.0342 128.192 47.7571 128.106 49.2428C128.02 50.5979 128.02 51.7883 128.02 58.2362V65.7015C128.02 69.8187 128.02 73.1706 128.192 74.9981C128.319 76.1424 128.612 76.9019 129.886 77.0747C130.475 77.1601 131.406 77.2464 132.038 77.2464C132.506 77.2464 132.717 77.3688 132.717 77.5827C132.717 77.881 132.378 78.0034 131.912 78.0034C129.124 78.0034 126.457 77.881 125.317 77.881C124.34 77.881 121.674 78.0034 119.988 78.0034C119.437 78.0034 119.141 77.881 119.141 77.5827C119.141 77.3688 119.31 77.2464 119.816 77.2464C120.454 77.2464 120.96 77.1601 121.339 77.0747C122.185 76.9019 122.442 76.1811 122.567 74.9519C122.778 73.1706 122.778 69.8187 122.778 65.7015V58.2362Z" fill="#656263"/>
<path d="M100.824 118.038C100.615 118.038 100.524 118.119 100.443 118.378L98.1609 124.44C97.7357 125.501 97.5236 126.521 97.5236 127.028C97.5236 127.795 97.9025 128.349 99.2189 128.349H99.8536C100.357 128.349 100.483 128.43 100.483 128.685C100.483 129.025 100.232 129.106 99.7681 129.106C98.414 129.106 96.5973 128.983 95.2835 128.983C94.8208 128.983 92.4899 129.106 90.2934 129.106C89.7443 129.106 89.4885 129.025 89.4885 128.685C89.4885 128.43 89.6587 128.349 89.9983 128.349C90.3772 128.349 90.97 128.304 91.3087 128.262C93.252 128.004 94.0569 126.562 94.902 124.44L105.519 97.7961C106.028 96.5649 106.278 96.1024 106.701 96.1024C107.086 96.1024 107.337 96.4862 107.761 97.4581C108.773 99.7916 115.545 117.103 118.248 123.552C119.857 127.372 121.081 127.966 121.97 128.177C122.607 128.304 123.238 128.349 123.748 128.349C124.085 128.349 124.295 128.39 124.295 128.685C124.295 129.025 123.915 129.106 122.352 129.106C120.828 129.106 117.741 129.106 114.358 129.025C113.599 128.983 113.086 128.983 113.086 128.685C113.086 128.43 113.258 128.349 113.678 128.304C113.979 128.216 114.275 127.837 114.063 127.33L110.679 118.332C110.595 118.119 110.464 118.038 110.251 118.038H100.824ZM109.452 115.915C109.664 115.915 109.705 115.789 109.664 115.66L105.858 105.178C105.814 105.01 105.773 104.797 105.645 104.797C105.519 104.797 105.433 105.01 105.388 105.178L101.5 115.616C101.46 115.789 101.5 115.915 101.674 115.915H109.452Z" fill="#656263"/>
<path d="M40.852 109.339C40.852 102.891 40.852 101.7 40.7656 100.345C40.6818 98.9028 40.2593 98.1826 39.333 97.9665C38.866 97.8416 38.3134 97.7961 37.8079 97.7961C37.3845 97.7961 37.1322 97.7119 37.1322 97.3723C37.1322 97.1184 37.4683 97.0349 38.1492 97.0349C39.7486 97.0349 42.4156 97.1611 43.6456 97.1611C44.6985 97.1611 47.1979 97.0349 48.805 97.0349C49.3542 97.0349 49.6885 97.1184 49.6885 97.3723C49.6885 97.7119 49.4354 97.7961 49.0119 97.7961C48.5894 97.7961 48.2559 97.8416 47.747 97.9254C46.606 98.1365 46.2664 98.8594 46.1808 100.345C46.0944 101.7 46.0944 102.891 46.0944 109.339V116.804C46.0944 120.921 46.0944 124.273 46.2664 126.1C46.3938 127.245 46.6863 128.004 47.96 128.177C48.5493 128.262 49.4807 128.349 50.1128 128.349C50.5807 128.349 50.7911 128.471 50.7911 128.685C50.7911 128.983 50.4524 129.106 49.9871 129.106C47.1979 129.106 44.5317 128.983 43.3925 128.983C42.4156 128.983 39.7486 129.106 38.0637 129.106C37.512 129.106 37.216 128.983 37.216 128.685C37.216 128.471 37.3845 128.349 37.8908 128.349C38.529 128.349 39.0353 128.262 39.4142 128.177C40.2593 128.004 40.5177 127.283 40.6417 126.054C40.852 124.273 40.852 120.921 40.852 116.804V109.339Z" fill="#656263"/>
<path d="M52.249 128.598C51.5733 128.303 51.4432 128.091 51.4432 127.156C51.4432 124.823 51.6117 122.276 51.6562 121.602C51.7016 120.964 51.8265 120.5 52.1635 120.5C52.5467 120.5 52.5877 120.881 52.5877 121.216C52.5877 121.769 52.7606 122.662 52.9675 123.381C53.899 126.521 56.394 127.669 59.0147 127.669C62.821 127.669 64.6857 125.079 64.6857 122.828C64.6857 120.749 64.0511 118.759 60.539 116.043L58.5948 114.512C53.9417 110.864 52.3346 107.894 52.3346 104.457C52.3346 99.7916 56.2238 96.4407 62.1043 96.4407C64.8507 96.4407 66.629 96.8642 67.7281 97.1611C68.1087 97.2477 68.32 97.3723 68.32 97.6713C68.32 98.2234 68.1498 99.4515 68.1498 102.759C68.1498 103.696 68.0241 104.031 67.6897 104.031C67.3911 104.031 67.2611 103.781 67.2611 103.272C67.2611 102.891 67.0515 101.574 66.1663 100.472C65.5282 99.664 64.3007 98.3931 61.5534 98.3931C58.4237 98.3931 56.5197 100.218 56.5197 102.759C56.5197 104.711 57.4914 106.198 61.0043 108.874L62.1855 109.762C67.2611 113.707 69.124 116.552 69.124 120.582C69.124 123.044 68.1926 125.971 65.1493 127.966C63.034 129.324 60.6656 129.705 58.4237 129.705C55.9706 129.705 54.0701 129.404 52.249 128.598Z" fill="#656263"/>
<path d="M78.5656 116.804C78.5656 122.236 78.5656 125.16 79.4508 125.927C80.1719 126.562 81.2684 126.859 84.5674 126.859C86.8119 126.859 88.4592 126.816 89.5173 125.673C90.0236 125.122 90.5335 123.932 90.6155 123.125C90.6574 122.749 90.7448 122.493 91.0809 122.493C91.3777 122.493 91.4222 122.701 91.4222 123.211C91.4222 123.678 91.1271 126.859 90.7875 128.09C90.5335 129.024 90.3222 129.235 88.1223 129.235C82.0322 129.235 79.2386 128.983 75.8121 128.983C74.8414 128.983 72.1787 129.106 70.4851 129.106C69.9369 129.106 69.6374 128.983 69.6374 128.685C69.6374 128.471 69.8103 128.348 70.3166 128.348C70.9513 128.348 71.4594 128.262 71.8383 128.177C72.6851 128.004 72.8972 127.074 73.0639 125.839C73.2761 124.061 73.2761 120.709 73.2761 116.804V109.338C73.2761 102.89 73.2761 101.7 73.1958 100.345C73.1102 98.9026 72.7706 98.2232 71.3738 97.9252C71.0368 97.8414 70.5235 97.7959 69.9796 97.7959C69.5143 97.7959 69.2585 97.7117 69.2585 97.4172C69.2585 97.1182 69.558 97.0347 70.19 97.0347C72.1787 97.0347 74.8414 97.1609 75.9841 97.1609C76.9994 97.1609 80.0881 97.0347 81.7363 97.0347C82.3273 97.0347 82.6241 97.1182 82.6241 97.4172C82.6241 97.7117 82.371 97.7959 81.8594 97.7959C81.3967 97.7959 80.721 97.8414 80.2129 97.9252C79.0684 98.1363 78.7323 98.8592 78.6467 100.345C78.5656 101.7 78.5656 102.89 78.5656 109.338V116.804Z" fill="#656263"/>
<path d="M129.178 97.2019C129.3 96.4862 129.558 96.1024 129.898 96.1024C130.236 96.1024 130.49 96.3138 131.037 97.4174L142.585 121.345L154.087 97.1184C154.385 96.4407 154.64 96.1024 155.019 96.1024C155.401 96.1024 155.652 96.5266 155.778 97.4174L159.629 123.638C160.009 126.308 160.435 127.537 161.704 127.918C162.929 128.304 163.774 128.349 164.323 128.349C164.704 128.349 165 128.39 165 128.644C165 128.983 164.491 129.106 163.901 129.106C162.844 129.106 157.005 128.983 155.316 128.854C154.344 128.769 154.087 128.644 154.087 128.39C154.087 128.177 154.258 128.05 154.555 127.918C154.807 127.837 154.933 127.283 154.767 126.1L152.225 107.427H152.059L142.838 126.692C141.866 128.685 141.656 129.067 141.275 129.067C140.892 129.067 140.47 128.216 139.792 126.945C138.779 124.994 135.436 118.5 134.928 117.312C134.548 116.422 132.011 111.077 130.53 107.894H130.36L128.167 124.78C128.081 125.547 128.035 126.1 128.035 126.776C128.035 127.578 128.585 127.966 129.3 128.131C130.067 128.304 130.657 128.349 131.081 128.349C131.418 128.349 131.717 128.43 131.717 128.644C131.717 129.025 131.335 129.106 130.7 129.106C128.926 129.106 127.02 128.983 126.263 128.983C125.457 128.983 123.427 129.106 122.074 129.106C121.648 129.106 121.309 129.025 121.309 128.644C121.309 128.43 121.562 128.349 121.985 128.349C122.33 128.349 122.619 128.349 123.255 128.216C124.442 127.966 124.78 126.308 124.994 124.866L129.178 97.2019Z" fill="#656263"/>
<path d="M68.733 142.933C42.6548 142.579 21.4043 128.222 21.3135 111.316C21.2219 94.8971 41.2318 82.2357 65.9804 82.6164C69.0237 82.6592 72.0049 82.9034 74.8981 83.3143C70.9547 82.601 66.8351 82.1844 62.6045 82.118C36.3291 81.7174 15 94.9809 15 112.209C15 129.974 37.5408 145.088 65.3021 145.459C87.8813 145.763 106.183 136.178 111.328 122.983C105.799 134.795 89.1235 143.209 68.733 142.933Z" fill="#C40070"/>
</svg>
