<svg width="180" height="180" viewBox="0 0 180 180" fill="none" xmlns="http://www.w3.org/2000/svg">
<rect width="180" height="180" rx="15" fill="#0863BA"/>
<path d="M84.3325 31.4957V83.788H95.646V31.4957C95.646 27.9132 98.4669 25 101.918 25C105.365 25 108.186 27.9132 108.186 31.4957V83.788H119.499V31.4957C119.499 27.9132 122.303 25 125.762 25C129.248 25 132.043 27.9132 132.043 31.4957V83.788H148.462C152.081 83.788 155 86.5768 155 90.0392C155 93.5016 152.081 96.3204 148.462 96.3204H132.043V148.587C132.043 152.169 129.248 155.078 125.762 155.078C122.303 155.078 119.499 152.169 119.499 148.587V96.3204H108.186V148.587C108.186 152.169 105.365 155.078 101.918 155.078C98.4669 155.078 95.646 152.169 95.646 148.587V96.3204H84.3325V148.587C84.3325 152.169 81.5203 155.078 78.052 155.078C74.5967 155.078 71.7715 152.169 71.7715 148.587V96.3204H60.4452V148.587C60.4452 152.169 57.6286 155.078 54.1647 155.078C50.6965 155.078 47.9013 152.169 47.9013 148.587V96.3204H31.482C27.8895 96.3204 25 93.5016 25 90.0392C25 86.5768 27.8895 83.788 31.482 83.788H47.9013V31.4957C47.9013 27.9132 50.6965 25 54.1647 25C57.6286 25 60.4452 27.9132 60.4452 31.4957V83.788H71.7715V31.4957C71.7715 27.9132 74.5967 25 78.052 25C81.5203 25 84.3325 27.9132 84.3325 31.4957Z" fill="#ED1B2B"/>
</svg>
