<svg width="180" height="180" viewBox="0 0 180 180" fill="none" xmlns="http://www.w3.org/2000/svg">
<circle cx="90" cy="90" r="90" fill="#0863BA"/>
<path d="M25.9506 69.2935V87.7581H29.9455V69.2935C29.9455 68.0284 30.9416 66.9998 32.1601 66.9998C33.3772 66.9998 34.3733 68.0284 34.3733 69.2935V87.7581H38.3681V69.2935C38.3681 68.0284 39.3581 66.9998 40.5798 66.9998C41.8105 66.9998 42.7974 68.0284 42.7974 69.2935V87.7581H48.5952C49.8728 87.7581 50.9037 88.7429 50.9037 89.9655C50.9037 91.1881 49.8728 92.1834 48.5952 92.1834H42.7974V110.639C42.7974 111.904 41.8105 112.931 40.5798 112.931C39.3581 112.931 38.3681 111.904 38.3681 110.639V92.1834H34.3733V110.639C34.3733 111.904 33.3772 112.931 32.1601 112.931C30.9416 112.931 29.9455 111.904 29.9455 110.639V92.1834H25.9506V110.639C25.9506 111.904 24.9576 112.931 23.733 112.931C22.5129 112.931 21.5153 111.904 21.5153 110.639V92.1834H17.5159V110.639C17.5159 111.904 16.5213 112.931 15.2982 112.931C14.0736 112.931 13.0866 111.904 13.0866 110.639V92.1834H7.28883C6.02028 92.1834 5 91.1881 5 89.9655C5 88.7429 6.02028 87.7581 7.28883 87.7581H13.0866V69.2935C13.0866 68.0284 14.0736 66.9998 15.2982 66.9998C16.5213 66.9998 17.5159 68.0284 17.5159 69.2935V87.7581H21.5153V69.2935C21.5153 68.0284 22.5129 66.9998 23.733 66.9998C24.9576 66.9998 25.9506 68.0284 25.9506 69.2935Z" fill="#ED1B2B"/>
<path d="M115.784 103.586C121.81 103.586 125.567 98.8815 125.567 90.1128C125.567 81.4142 121.765 76.6445 115.721 76.6445C109.795 76.6445 105.878 81.5334 105.878 89.9423C105.878 98.8885 109.585 103.586 115.784 103.586ZM115.833 69.3708C127.257 69.3708 134.483 77.5391 134.483 90.1619C134.483 102.768 127.246 110.857 115.721 110.857C104.247 110.857 97.1306 102.747 97.1306 89.9983C97.1306 77.4644 104.31 69.3708 115.833 69.3708ZM73.4317 110.773C68.2667 110.78 64.5978 109.815 61.6477 107.538C57.925 104.695 56.8584 101.677 56.8584 95.0764V71.4053C56.8584 70.5877 57.5422 69.894 58.3661 69.894H64.4367C65.2629 69.894 65.9468 70.5877 65.9468 71.4053V94.726C65.9468 98.9772 66.4159 100.15 68.1244 101.561C69.5341 102.722 71.1328 103.422 73.4364 103.422C75.7354 103.422 77.3388 102.731 78.7648 101.561C80.4709 100.15 80.9354 98.9772 80.9354 94.726V71.4053C80.9354 70.5877 81.6332 69.894 82.4524 69.894H88.5207C89.3539 69.894 90.0331 70.5877 90.0331 71.4053V95.0764C90.0331 101.677 88.9478 104.695 85.2508 107.538C82.2821 109.82 78.6154 110.759 73.4317 110.773ZM170.946 90.6384C173.504 92.4883 175 95.7071 175 99.1968C175 102.852 173.6 105.767 170.846 107.902C168.106 109.953 165.188 110.74 160.409 110.74H143.107C142.278 110.74 141.585 110.061 141.585 109.224V71.8094C141.585 70.9942 142.278 70.2958 143.107 70.2958H159.596C164.523 70.2958 166.617 70.8844 168.846 72.5451C171.229 74.2853 172.72 77.4317 172.72 80.5617C172.72 84.5629 171.275 87.4803 168.02 89.0313C169.147 89.4237 169.912 89.8792 170.946 90.6384ZM158.721 86.7539C162.327 86.7539 164.15 84.9997 164.15 81.7342C164.15 78.5435 162.236 76.6001 159.363 76.6001H150.552V86.7539H158.721ZM159.186 104.394C163.968 104.394 165.905 102.579 165.905 98.7787C165.905 95.1488 163.772 93.1167 159.841 93.1167H150.552V104.394H159.186Z" fill="white"/>
</svg>
