<svg width="552" height="148" viewBox="0 0 552 148" fill="none" xmlns="http://www.w3.org/2000/svg">
<path d="M362.25 78.4008H335.372V104.801H321.732V42.8008H335.372V68.0008H362.25V42.8008H375.889V104.801H362.25V78.4008Z" fill="black"/>
<path d="M408.381 106C395.142 106 383.91 100.8 383.509 86H397.148C397.148 92.8 401.16 96.4 408.782 96.4C414.398 96.4 420.416 93.6 420.416 87.6C420.416 82.8 416.003 81.2 409.183 79.2L404.77 78C395.142 75.2 385.113 71.2 385.113 60.4C385.113 46.4 397.951 42 409.985 42C422.02 42 432.451 46.4 432.451 60H418.811C418.41 54.4 415.201 51.2 408.782 51.2C403.968 51.2 398.753 54 398.753 59.2C398.753 63.6 402.765 65.2 411.59 68L416.805 69.6C427.637 72.8 434.055 76.8 434.055 86.8C434.055 100.8 420.416 106 408.381 106Z" fill="black"/>
<path d="M441.679 42.8008H463.342C470.161 42.8008 472.97 42.8008 475.377 43.6008C482.999 45.2008 488.615 50.4008 488.615 58.4008C488.615 66.4008 483.4 70.4008 476.179 72.4008C484.603 74.0008 490.621 78.4008 490.621 87.6008C490.621 101.601 476.58 104.801 465.749 104.801H441.278V42.8008H441.679ZM463.342 68.8008C469.359 68.8008 475.377 67.6008 475.377 60.4008C475.377 54.0008 469.76 52.4008 464.144 52.4008H454.516V68.8008H463.342ZM464.946 95.6008C471.365 95.6008 477.382 94.0008 477.382 86.4008C477.382 79.2008 472.167 77.2008 465.749 77.2008H454.917V95.2008H464.946V95.6008Z" fill="black"/>
<path d="M526.326 106C506.268 106 497.041 93.1996 497.041 74.3996C497.041 55.5996 507.07 41.5996 526.727 41.5996C539.163 41.5996 551.198 47.1996 551.599 61.1996H537.558C536.756 55.1996 532.744 51.5996 526.727 51.5996C514.692 51.5996 511.082 64.7996 511.082 74.3996C511.082 84.3996 514.692 95.5996 526.326 95.5996C532.343 95.5996 536.756 92.3996 537.96 85.9996H552C550.396 100.8 539.163 106 526.326 106Z" fill="black"/>
<path d="M222.645 0H74.2148V148H222.645V0Z" fill="white"/>
<path d="M223.046 148L297.261 74L223.046 0V148Z" fill="#DB0011"/>
<path d="M74.2149 148L0 74L74.2149 0V148Z" fill="#DB0011"/>
<path d="M223.046 0L148.43 74L74.2148 0H223.046Z" fill="#DB0011"/>
<path d="M74.2148 148L148.43 74L223.046 148H74.2148Z" fill="#DB0011"/>
</svg>
