<svg width="800" height="180" viewBox="0 0 800 180" fill="none" xmlns="http://www.w3.org/2000/svg">
<rect width="800" height="180" rx="15" fill="white"/>
<path d="M431.04 95.0011H401.825V123.697H387V56.3057H401.825V83.6968H431.04V56.3057H445.866V123.697H431.04V95.0011Z" fill="black"/>
<path d="M481.183 125C466.793 125 454.584 119.348 454.148 103.261H468.973C468.973 110.652 473.334 114.566 481.619 114.566C487.723 114.566 494.264 111.522 494.264 105C494.264 99.783 489.467 98.0439 482.055 95.87L477.258 94.5656C466.793 91.5222 455.892 87.1744 455.892 75.4353C455.892 60.218 469.845 55.4354 482.927 55.4354C496.008 55.4354 507.345 60.218 507.345 75.0005H492.52C492.084 68.9136 488.595 65.4354 481.619 65.4354C476.386 65.4354 470.718 68.4788 470.718 74.131C470.718 78.9135 475.078 80.6527 484.671 83.6961L490.339 85.4352C502.113 88.9135 509.089 93.2613 509.089 104.131C509.089 119.348 494.264 125 481.183 125Z" fill="black"/>
<path d="M517.376 56.3057H540.923C548.335 56.3057 551.388 56.3057 554.004 57.1752C562.289 58.9143 568.393 64.5665 568.393 73.2621C568.393 81.9577 562.725 86.3055 554.876 88.4794C564.033 90.2185 570.574 95.0011 570.574 105.001C570.574 120.218 555.312 123.697 543.539 123.697H516.94V56.3057H517.376ZM540.923 84.5664C547.463 84.5664 554.004 83.262 554.004 75.436C554.004 68.4795 547.899 66.7404 541.795 66.7404H531.33V84.5664H540.923ZM542.667 113.697C549.644 113.697 556.184 111.958 556.184 103.697C556.184 95.8706 550.516 93.6967 543.539 93.6967H531.766V113.262H542.667V113.697Z" fill="black"/>
<path d="M609.383 125C587.581 125 577.552 111.087 577.552 90.652C577.552 70.2173 588.453 55 609.819 55C623.336 55 636.418 61.0869 636.854 76.3042H621.592C620.72 69.7825 616.36 65.8695 609.819 65.8695C596.738 65.8695 592.813 80.2172 592.813 90.652C592.813 101.521 596.738 113.695 609.383 113.695C615.923 113.695 620.72 110.217 622.028 103.261H637.29C635.545 119.347 623.336 125 609.383 125Z" fill="black"/>
<path d="M306.435 40H206.145V140H306.435V40Z" fill="white"/>
<path d="M306.707 140L356.852 89.9999L306.707 40V140Z" fill="#DB0011"/>
<path d="M206.145 140L156 89.9999L206.145 40V140Z" fill="#DB0011"/>
<path d="M306.706 40L256.29 89.9999L206.145 40H306.706Z" fill="#DB0011"/>
<path d="M206.145 140L256.29 90.0001L306.706 140H206.145Z" fill="#DB0011"/>
</svg>
