<svg width="500" height="350" viewBox="0 0 500 350" fill="none" xmlns="http://www.w3.org/2000/svg">
<rect width="500" height="350" rx="15" fill="white"/>
<path d="M169.04 250.001H139.825V278.697H125V211.306H139.825V238.697H169.04V211.306H183.866V278.697H169.04V250.001Z" fill="black"/>
<path d="M219.183 280C204.794 280 192.584 274.348 192.148 258.261H206.974C206.974 265.653 211.334 269.566 219.619 269.566C225.724 269.566 232.264 266.522 232.264 260C232.264 254.783 227.468 253.044 220.055 250.87L215.259 249.566C204.794 246.522 193.893 242.174 193.893 230.435C193.893 215.218 207.846 210.436 220.927 210.436C234.009 210.436 245.346 215.218 245.346 230.001H230.52C230.084 223.914 226.596 220.435 219.619 220.435C214.387 220.435 208.718 223.479 208.718 229.131C208.718 233.914 213.078 235.653 222.671 238.696L228.34 240.435C240.113 243.914 247.09 248.261 247.09 259.131C247.09 274.348 232.264 280 219.183 280Z" fill="black"/>
<path d="M255.376 211.306H278.923C286.335 211.306 289.388 211.306 292.004 212.175C300.289 213.914 306.393 219.566 306.393 228.262C306.393 236.958 300.725 241.305 292.876 243.479C302.033 245.219 308.574 250.001 308.574 260.001C308.574 275.218 293.312 278.697 281.539 278.697H254.94V211.306H255.376ZM278.923 239.566C285.463 239.566 292.004 238.262 292.004 230.436C292.004 223.48 285.899 221.74 279.795 221.74H269.33V239.566H278.923ZM280.667 268.697C287.644 268.697 294.184 266.958 294.184 258.697C294.184 250.871 288.516 248.697 281.539 248.697H269.766V268.262H280.667V268.697Z" fill="black"/>
<path d="M347.383 280C325.581 280 315.552 266.087 315.552 245.652C315.552 225.217 326.453 210 347.819 210C361.336 210 374.418 216.087 374.854 231.304H359.592C358.72 224.783 354.36 220.869 347.819 220.869C334.738 220.869 330.813 235.217 330.813 245.652C330.813 256.521 334.738 268.695 347.383 268.695C353.923 268.695 358.72 265.217 360.028 258.261H375.29C373.545 274.347 361.336 280 347.383 280Z" fill="black"/>
<path d="M300.435 60H200.145V160H300.435V60Z" fill="white"/>
<path d="M300.707 160L350.852 110L300.707 60V160Z" fill="#DB0011"/>
<path d="M200.145 160L150 110L200.145 60V160Z" fill="#DB0011"/>
<path d="M300.706 60L250.29 110L200.145 60H300.706Z" fill="#DB0011"/>
<path d="M200.145 160L250.29 110L300.706 160H200.145Z" fill="#DB0011"/>
</svg>
