<svg width="800" height="180" viewBox="0 0 800 180" fill="none" xmlns="http://www.w3.org/2000/svg">
<rect width="800" height="180" rx="15" fill="white"/>
<path d="M170.318 55.0187C166.124 54.485 162.013 53.69 157.877 52.6084C138.482 47.3605 121.899 35.9492 110.172 20L96.4512 27.9541C102.523 36.4449 109.748 43.9431 118.09 50.2716C128.766 58.4422 140.715 64.3547 153.767 67.8645C159.258 69.3013 164.745 70.2769 170.318 70.8711V55.0187Z" fill="#181F40"/>
<path d="M170.318 97.9573V82.0962C163.773 81.4567 157.292 80.3635 150.916 78.637C136.528 74.7239 123.179 68.2139 111.445 59.1739C101.918 51.9601 93.6891 43.358 86.8287 33.5805L73.2158 41.4895C81.1481 53.1363 90.7511 63.2789 101.918 71.8149C115.342 82.0481 130.556 89.452 146.793 93.9498C154.637 96.0197 162.38 97.3169 170.318 97.9573Z" fill="#181F40"/>
<path d="M63.6066 47.0624C72.2399 60.0123 82.9073 71.2809 95.2713 80.6685C109.868 91.8331 126.231 99.8743 143.973 104.674C152.682 106.984 161.414 108.469 170.318 109.121V124.964C160.034 124.332 149.939 122.608 139.951 119.893C120.253 114.6 102.007 105.602 85.7568 93.2604C71.7347 82.5379 59.78 69.693 50 54.9765L63.6066 47.0624Z" fill="#181F40"/>
<path d="M63.6066 132.919C72.2399 119.988 82.9073 108.719 95.2713 99.2915C109.868 88.212 126.231 80.1255 143.973 75.3347C152.682 73.0021 161.414 71.5205 170.318 70.8744V55.0156C160.034 55.7119 149.939 57.39 139.951 60.1111C120.253 65.4512 102.007 74.3843 85.7568 86.7333C71.7347 97.4558 59.78 110.307 50 125.021L63.6066 132.919Z" fill="#ED2824"/>
<path d="M170.318 82.0964V97.9574C163.773 98.5352 157.292 99.6377 150.916 101.365C136.528 105.266 123.179 111.783 111.445 120.833C101.918 128.035 93.6891 136.633 86.8287 146.471L73.2158 138.516C81.1481 126.896 90.7511 116.719 101.918 108.222C115.342 97.9574 130.556 90.5485 146.793 86.102C154.637 84.0025 162.38 82.6897 170.318 82.0964Z" fill="#ED2824"/>
<path d="M170.318 124.969C166.124 125.509 162.013 126.266 157.877 127.405C138.482 132.64 121.899 144.051 110.172 160L96.4512 152.057C102.523 143.512 109.748 136.045 118.09 129.709C128.766 121.565 140.715 115.633 153.767 112.125C159.258 110.643 164.745 109.662 170.318 109.116V124.969Z" fill="#ED2824"/>
<path d="M577.077 87.314H573.769V107.171C575.637 107.969 577.723 108.334 580.741 108.334C587.211 108.334 592.237 105.721 592.237 98.4714C592.237 90.72 587.784 87.314 577.077 87.314ZM580.308 65.1409C577.723 65.1409 575.782 65.5013 573.769 66.2319V83.9801H577.007C587.211 83.9801 590.657 80.7937 590.657 74.2689C590.657 68.1858 587.064 65.1409 580.308 65.1409ZM581.024 112.605C575.425 112.605 570.682 111.592 567.515 109.853V64.0552C570.246 62.4609 574.991 61.3029 580.382 61.3029C591.236 61.3029 597.053 66.517 597.053 73.7656C597.053 80.8644 591.878 84.488 587.423 85.36V85.5052C592.019 86.3735 598.923 90.7946 598.923 98.402C598.923 108.401 591.236 112.605 581.024 112.605Z" fill="#181F40"/>
<path d="M627.863 89.7058C618.092 90.9381 612.271 93.0411 612.271 100.943C612.271 106.592 615.715 108.913 621.463 108.913C623.908 108.913 626.281 108.474 627.863 107.602V89.7058ZM620.969 112.607C610.898 112.607 606.227 108.185 606.227 101.086C606.227 90.7238 615.857 87.681 627.863 86.4464V84.0522C627.863 78.0398 624.269 76.2995 619.31 76.2995C615.572 76.2995 612.126 77.6757 609.973 78.7621L608.458 75.0001C610.686 73.7632 614.999 72.0944 620.311 72.0944C627.503 72.0944 633.824 75.2137 633.824 84.7799V109.85C630.877 111.521 626.355 112.607 620.969 112.607Z" fill="#181F40"/>
<path d="M665.801 111.879V83.8396C665.801 80.2152 664.29 76.2252 657.683 76.2252C654.086 76.2252 652.363 76.7355 650.351 77.6038V111.879H644.028V74.85C647.478 73.1856 652.002 72.0992 658.179 72.0992C668.963 72.0992 672.126 78.1115 672.126 83.689V111.879H665.801Z" fill="#181F40"/>
<path d="M703.815 111.879L689.011 91.736H688.867V111.879H682.689V55.0002H688.867V90.9384H689.011L702.806 72.8229H709.422L694.758 91.0813L710.999 111.879H703.815Z" fill="#181F40"/>
<path d="M409.189 86.6058C409.388 80.0238 412.129 76.7297 416.276 76.7297C420.427 76.7297 422.664 79.7302 422.727 86.6058H409.189ZM416.76 70.0762C405.594 70.0762 399.283 77.9667 399.283 90.2111C399.283 102.696 406.099 110.599 417.961 110.599C424.494 110.599 428.836 109.287 431.864 107.763L429.321 100.758C427.222 101.831 423.77 102.85 419.283 102.85C413.545 102.85 410.935 100.224 409.89 94.2876C409.753 93.6105 409.682 92.8634 409.604 92.1238H433.113V90.9583C433.62 77.7538 427.927 70.0762 416.76 70.0762Z" fill="#181F40"/>
<path d="M235.223 109.851V88.2348H222.7V109.851H211V59.9432H222.7V80.5453H235.223V59.9432H246.936V109.851H235.223Z" fill="#181F40"/>
<path d="M268.773 77.0758C263.787 77.0758 262.725 83.1665 262.725 90.1397C262.725 97.1506 263.845 102.878 268.773 102.878C273.693 102.878 274.749 97.1506 274.749 90.1397C274.749 83.1665 273.693 77.0758 268.773 77.0758ZM268.773 110.599C257.543 110.599 251.647 101.966 251.647 90.2812C251.647 78.6048 257.543 70.0364 268.633 70.0364C279.944 70.0364 285.831 78.6048 285.831 90.2812C285.831 101.966 279.944 110.599 268.773 110.599Z" fill="#181F40"/>
<path d="M311.805 109.851V82.5331C311.805 79.7666 310.6 77.0759 306.056 77.0759C303.878 77.0759 302.611 77.4386 301.343 77.8645V109.851H290.117V72.943C293.979 71.2028 299.45 70.0365 306.321 70.0365C318.686 70.0365 323.036 75.3025 323.036 82.4269V109.851H311.805Z" fill="#181F40"/>
<path d="M350.066 77.2222C349.156 76.8039 348.026 76.5458 346.494 76.5458C340.725 76.5458 338.341 81.2949 338.341 90.6307C338.341 99.4909 340.658 103.704 346.272 103.704C347.831 103.704 349.078 103.339 350.066 102.738V77.2222ZM343.97 126.318C338.006 126.318 332.648 125.148 329.5 123.413L332.377 116.081C334.77 117.398 338.264 118.426 342.008 118.426C347.886 118.426 350.066 115.592 350.066 111.096V108.903C348.734 109.648 346.494 110.145 343.26 110.145C333.995 110.145 327.322 102.952 327.322 91.2784C327.322 78.2508 333.922 70.0353 347.265 70.0353C353.157 70.0353 358.207 71.2813 360.947 72.941V110.145C360.947 121.257 353.917 126.318 343.97 126.318Z" fill="#181F40"/>
<path d="M371.484 109.851V59.9432H383.131V101.97H395.708V109.851H371.484Z" fill="#181F40"/>
<path d="M454.592 77.0758C449.693 77.0758 448.621 83.1665 448.621 90.1397C448.621 97.1506 449.761 102.878 454.592 102.878C459.599 102.878 460.556 97.1506 460.556 90.1397C460.556 83.1665 459.599 77.0758 454.592 77.0758ZM454.592 110.599C443.374 110.599 437.479 101.966 437.479 90.2812C437.479 78.6048 443.374 70.0364 454.529 70.0364C465.842 70.0364 471.729 78.6048 471.729 90.2812C471.729 101.966 465.842 110.599 454.592 110.599Z" fill="#181F40"/>
<path d="M499.181 109.851V82.5331C499.181 79.7666 497.916 77.0759 493.429 77.0759C491.179 77.0759 489.929 77.4386 488.646 77.8645V109.851H477.425V72.943C481.289 71.2028 486.758 70.0365 493.714 70.0365C506.002 70.0365 510.352 75.3025 510.352 82.4269V109.851H499.181Z" fill="#181F40"/>
<path d="M537.365 77.2222C536.466 76.8039 535.35 76.5458 533.801 76.5458C528.032 76.5458 525.722 81.2949 525.722 90.6307C525.722 99.4909 527.973 103.704 533.585 103.704C535.134 103.704 536.395 103.339 537.365 102.738V77.2222ZM531.339 126.318C525.295 126.318 519.959 125.148 516.882 123.413L519.761 116.081C522.068 117.398 525.656 118.426 529.304 118.426C535.216 118.426 537.365 115.592 537.365 111.096V108.903C536.051 109.648 533.801 110.145 530.555 110.145C521.306 110.145 514.639 102.952 514.639 91.2784C514.639 78.2508 521.216 70.0353 534.555 70.0353C540.533 70.0353 545.513 71.2813 548.267 72.941V110.145C548.267 121.257 541.241 126.318 531.339 126.318Z" fill="#181F40"/>
</svg>
