<svg width="1190" height="140" viewBox="0 0 1190 140" fill="none" xmlns="http://www.w3.org/2000/svg">
<path d="M120.318 35.0187C116.124 34.485 112.013 33.69 107.877 32.6084C88.4823 27.3605 71.8988 15.9492 60.1723 -3.05176e-05L46.4512 7.95414C52.5232 16.4449 59.7484 23.9431 68.09 30.2716C78.7657 38.4422 90.7154 44.3547 103.767 47.8645C109.258 49.3013 114.745 50.2769 120.318 50.8711V35.0187Z" fill="#181F40"/>
<path d="M120.318 77.9573V62.0962C113.773 61.4566 107.292 60.3635 100.916 58.637C86.5276 54.7239 73.1792 48.2139 61.4452 39.1739C51.9185 31.9601 43.6891 23.358 36.8287 13.5805L23.2158 21.4895C31.1481 33.1363 40.7511 43.2789 51.9185 51.8149C65.3418 62.0481 80.5564 69.452 96.793 73.9498C104.637 76.0197 112.38 77.3169 120.318 77.9573Z" fill="#181F40"/>
<path d="M13.6066 27.0624C22.2399 40.0123 32.9073 51.2809 45.2713 60.6685C59.8683 71.833 76.2308 79.8743 93.9733 84.6738C102.682 86.9843 111.414 88.4692 120.318 89.1214V104.964C110.034 104.332 99.9392 102.608 89.9509 99.8931C70.2534 94.6003 52.0069 85.6022 35.7568 73.2604C21.7347 62.5379 9.78 49.693 0 34.9765L13.6066 27.0624Z" fill="#181F40"/>
<path d="M13.6066 112.919C22.2399 99.9878 32.9073 88.7193 45.2713 79.2915C59.8683 68.212 76.2308 60.1255 93.9733 55.3347C102.682 53.0021 111.414 51.5205 120.318 50.8744V35.0156C110.034 35.7119 99.9392 37.39 89.9509 40.1111C70.2534 45.4512 52.0069 54.3843 35.7568 66.7333C21.7347 77.4558 9.78 90.3071 0 105.021L13.6066 112.919Z" fill="#ED2824"/>
<path d="M120.318 62.0964V77.9574C113.773 78.5352 107.292 79.6377 100.916 81.3653C86.5276 85.2658 73.1792 91.7833 61.4452 100.833C51.9185 108.035 43.6891 116.633 36.8287 126.471L23.2158 118.516C31.1481 106.896 40.7511 96.7193 51.9185 88.2221C65.3418 77.9574 80.5564 70.5485 96.793 66.102C104.637 64.0025 112.38 62.6897 120.318 62.0964Z" fill="#ED2824"/>
<path d="M120.318 104.969C116.124 105.509 112.013 106.266 107.877 107.405C88.4823 112.64 71.8988 124.051 60.1723 140L46.4512 132.057C52.5232 123.512 59.7484 116.045 68.09 109.709C78.7657 101.565 90.7154 95.6326 103.767 92.1249C109.258 90.643 114.745 89.6623 120.318 89.116V104.969Z" fill="#ED2824"/>
<path d="M684.529 70.5833H679.911V98.3C682.519 99.4131 685.43 99.9225 689.643 99.9225C698.674 99.9225 705.689 96.2751 705.689 86.1567C705.689 75.3374 699.474 70.5833 684.529 70.5833ZM689.038 39.6342C685.43 39.6342 682.721 40.1372 679.911 41.1569V65.9298H684.431C698.674 65.9298 703.484 61.4822 703.484 52.3749C703.484 43.8841 698.469 39.6342 689.038 39.6342ZM690.038 105.884C682.223 105.884 675.602 104.47 671.182 102.044V38.1187C674.994 35.8934 681.618 34.2771 689.142 34.2771C704.292 34.2771 712.411 41.5548 712.411 51.6724C712.411 61.5809 705.188 66.6387 698.97 67.8558V68.0585C705.385 69.2705 715.021 75.4414 715.021 86.0599C715.021 100.017 704.292 105.884 690.038 105.884Z" fill="#181F40"/>
<path d="M755.415 73.9216C741.776 75.6417 733.652 78.577 733.652 89.6062C733.652 97.491 738.459 100.731 746.482 100.731C749.895 100.731 753.207 100.119 755.415 98.9004V73.9216ZM745.792 105.887C731.735 105.887 725.216 99.7142 725.216 89.8057C725.216 75.3424 738.657 71.0954 755.415 69.3721V66.0303C755.415 57.6382 750.399 55.2091 743.477 55.2091C738.259 55.2091 733.449 57.13 730.445 58.6464L728.33 53.3955C731.439 51.6689 737.46 49.3396 744.875 49.3396C754.913 49.3396 763.736 53.6936 763.736 67.046V102.038C759.622 104.372 753.311 105.887 745.792 105.887Z" fill="#181F40"/>
<path d="M808.371 104.871V65.7336C808.371 60.6747 806.262 55.1055 797.039 55.1055C792.019 55.1055 789.614 55.8177 786.806 57.0296V104.871H777.98V53.1859C782.796 50.8628 789.11 49.3465 797.733 49.3465C812.784 49.3465 817.199 57.7383 817.199 65.5234V104.871H808.371Z" fill="#181F40"/>
<path d="M861.429 104.871L840.765 76.7554H840.565V104.871H831.942V25.4796H840.565V75.6421H840.765L860.021 50.3565H869.255L848.788 75.8415L871.457 104.871H861.429Z" fill="#181F40"/>
<path d="M920.8 70.5833H916.187V98.3C918.795 99.4131 921.701 99.9225 925.914 99.9225C934.95 99.9225 941.97 96.2751 941.97 86.1567C941.97 75.3374 935.753 70.5833 920.8 70.5833ZM925.317 39.6342C921.701 39.6342 918.995 40.1372 916.187 41.1569V65.9298H920.707C934.95 65.9298 939.763 61.4822 939.763 52.3749C939.763 43.8841 934.747 39.6342 925.317 39.6342ZM926.316 105.884C918.493 105.884 911.876 104.47 907.452 102.044V38.1187C911.276 35.8934 917.888 34.2771 925.415 34.2771C940.568 34.2771 948.687 41.5548 948.687 51.6724C948.687 61.5809 941.469 66.6387 935.246 67.8558V68.0585C941.666 69.2705 951.292 75.4414 951.292 86.0599C951.292 100.017 940.568 105.884 926.316 105.884Z" fill="#181F40"/>
<path d="M982.584 55.1085C974.763 55.1085 968.94 61.4821 969.143 76.2479L995.025 72.3022C995.025 59.9658 990.313 55.1085 982.584 55.1085ZM969.444 81.0001C970.449 93.3375 976.169 99.413 985.895 99.413C992.02 99.413 996.43 97.8924 999.238 96.2728L1001.55 102.146C998.238 104.164 992.527 105.882 985.199 105.882C971.049 105.882 961.117 96.8874 961.117 77.466C961.117 58.9555 970.153 49.3463 982.89 49.3463C995.827 49.3463 1003.65 57.8433 1003.46 76.0452L969.444 81.0001Z" fill="#181F40"/>
<path d="M1036.74 56.2206C1032.33 54.9078 1027.31 55.3122 1024.41 57.2382V104.874H1015.58V53.2937C1020.9 50.56 1026.01 49.1381 1038.85 49.447L1036.74 56.2206Z" fill="#181F40"/>
<path d="M1078.27 104.871V66.2407C1078.27 60.5698 1075.87 55.5184 1067.23 55.5184C1063.22 55.5184 1060.02 56.2209 1056.7 58.2467V104.871H1047.88V25.4796H1056.7V53.1859C1061.21 50.8628 1065.13 49.8546 1069.14 49.8546C1082.88 49.8546 1087.09 58.2467 1087.09 65.9331V104.871H1078.27Z" fill="#181F40"/>
<path d="M1128.82 73.9216C1115.18 75.6417 1107.05 78.577 1107.05 89.6062C1107.05 97.491 1111.86 100.731 1119.89 100.731C1123.3 100.731 1126.61 100.119 1128.82 98.9004V73.9216ZM1119.19 105.887C1105.14 105.887 1098.63 99.7142 1098.63 89.8057C1098.63 75.3424 1112.07 71.0954 1128.82 69.3721V66.0303C1128.82 57.6382 1123.81 55.2091 1116.88 55.2091C1111.67 55.2091 1106.86 57.13 1103.85 58.6464L1101.74 53.3955C1104.84 51.6689 1110.87 49.3396 1118.28 49.3396C1128.31 49.3396 1137.14 53.6936 1137.14 67.046V102.038C1133.03 104.372 1126.71 105.887 1119.19 105.887Z" fill="#181F40"/>
<path d="M1181.28 56.0213C1179.07 55.4175 1176.86 55.0067 1174.55 55.0067C1162.01 55.0067 1158 65.9298 1158 77.7634C1158 90.6126 1162.42 100.019 1173.46 100.019C1177.06 100.019 1179.57 99.6179 1181.28 98.4995V56.0213ZM1173.05 105.884C1157.6 105.884 1149.28 94.9604 1149.28 78.4764C1149.28 60.37 1158.81 49.8512 1172.75 49.8512C1175.76 49.8512 1178.37 50.261 1181.28 51.0686V25.4755H1190V102.044C1186.39 104.27 1180.57 105.884 1173.05 105.884Z" fill="#181F40"/>
<path d="M428.23 72.5227C428.507 63.3356 432.333 58.7377 438.122 58.7377C443.916 58.7377 447.038 62.9259 447.126 72.5227H428.23ZM438.797 49.4509C423.212 49.4509 414.402 60.4643 414.402 77.555C414.402 94.981 423.916 106.012 440.474 106.012C449.593 106.012 455.653 104.181 459.879 102.054L456.33 92.2767C453.4 93.7734 448.582 95.1964 442.319 95.1964C434.309 95.1964 430.667 91.5312 429.208 83.245C429.016 82.3 428.918 81.2571 428.809 80.2247H461.623V78.5979C462.33 60.1672 454.384 49.4509 438.797 49.4509Z" fill="#181F40"/>
<path d="M185.408 104.969V74.7966H167.929V104.969H151.598V35.3072H167.929V64.0636H185.408V35.3072H201.757V104.969H185.408Z" fill="#181F40"/>
<path d="M232.237 59.2209C225.277 59.2209 223.794 67.7221 223.794 77.4553C223.794 87.2411 225.358 95.2351 232.237 95.2351C239.104 95.2351 240.579 87.2411 240.579 77.4553C240.579 67.7221 239.104 59.2209 232.237 59.2209ZM232.237 106.012C216.562 106.012 208.333 93.9624 208.333 77.6529C208.333 61.355 216.562 49.3952 232.041 49.3952C247.83 49.3952 256.046 61.355 256.046 77.6529C256.046 93.9624 247.83 106.012 232.237 106.012Z" fill="#181F40"/>
<path d="M292.302 104.969V66.8381C292.302 62.9767 290.619 59.2211 284.276 59.2211C281.236 59.2211 279.469 59.7273 277.698 60.3218V104.969H262.029V53.4524C267.42 51.0234 275.056 49.3955 284.647 49.3955C301.906 49.3955 307.977 56.7458 307.977 66.69V104.969H292.302Z" fill="#181F40"/>
<path d="M345.705 59.425C344.436 58.8411 342.858 58.4808 340.719 58.4808C332.667 58.4808 329.339 65.1096 329.339 78.1404C329.339 90.5075 332.574 96.3886 340.41 96.3886C342.586 96.3886 344.327 95.8794 345.705 95.0392V59.425ZM337.197 127.952C328.873 127.952 321.394 126.319 317 123.898L321.015 113.663C324.356 115.502 329.233 116.938 334.459 116.938C342.663 116.938 345.705 112.982 345.705 106.706V103.645C343.847 104.685 340.719 105.378 336.205 105.378C323.273 105.378 313.96 95.3384 313.96 79.0446C313.96 60.8607 323.172 49.3934 341.796 49.3934C350.019 49.3934 357.069 51.1326 360.893 53.4493V105.378C360.893 120.889 351.081 127.952 337.197 127.952Z" fill="#181F40"/>
<path d="M375.601 104.969V35.3072H391.857V93.9677H409.412V104.969H375.601Z" fill="#181F40"/>
<path d="M491.603 59.2209C484.764 59.2209 483.268 67.7221 483.268 77.4553C483.268 87.2411 484.86 95.2351 491.603 95.2351C498.592 95.2351 499.928 87.2411 499.928 77.4553C499.928 67.7221 498.592 59.2209 491.603 59.2209ZM491.603 106.012C475.944 106.012 467.716 93.9624 467.716 77.6529C467.716 61.355 475.944 49.3952 491.515 49.3952C507.305 49.3952 515.523 61.355 515.523 77.6529C515.523 93.9624 507.305 106.012 491.603 106.012Z" fill="#181F40"/>
<path d="M553.839 104.969V66.8381C553.839 62.9767 552.074 59.2211 545.811 59.2211C542.67 59.2211 540.926 59.7273 539.134 60.3218V104.969H523.472V53.4524C528.866 51.0234 536.5 49.3955 546.208 49.3955C563.36 49.3955 569.432 56.7458 569.432 66.69V104.969H553.839Z" fill="#181F40"/>
<path d="M607.138 59.425C605.882 58.8411 604.325 58.4808 602.162 58.4808C594.11 58.4808 590.887 65.1096 590.887 78.1404C590.887 90.5075 594.027 96.3886 601.861 96.3886C604.023 96.3886 605.783 95.8794 607.138 95.0392V59.425ZM598.725 127.952C590.289 127.952 582.842 126.319 578.547 123.898L582.565 113.663C585.786 115.502 590.793 116.938 595.886 116.938C604.138 116.938 607.138 112.982 607.138 106.706V103.645C605.303 104.685 602.162 105.378 597.632 105.378C584.722 105.378 575.417 95.3384 575.417 79.0446C575.417 60.8607 584.597 49.3934 603.216 49.3934C611.559 49.3934 618.51 51.1326 622.354 53.4493V105.378C622.354 120.889 612.548 127.952 598.725 127.952Z" fill="#181F40"/>
</svg>
