<svg width="180" height="180" viewBox="0 0 180 180" fill="none" xmlns="http://www.w3.org/2000/svg">
<circle cx="90" cy="90" r="90" fill="white"/>
<path d="M150.318 55.0187C146.124 54.485 142.013 53.69 137.877 52.6084C118.482 47.3605 101.899 35.9492 90.1723 20L76.4512 27.9541C82.5232 36.4449 89.7484 43.9431 98.09 50.2716C108.766 58.4422 120.715 64.3547 133.767 67.8645C139.258 69.3013 144.745 70.2769 150.318 70.8711V55.0187Z" fill="#181F40"/>
<path d="M150.318 97.9573V82.0962C143.773 81.4567 137.292 80.3635 130.916 78.637C116.528 74.7239 103.179 68.2139 91.4452 59.1739C81.9185 51.9601 73.6891 43.358 66.8287 33.5805L53.2158 41.4895C61.1481 53.1363 70.7511 63.2789 81.9185 71.8149C95.3418 82.0481 110.556 89.452 126.793 93.9498C134.637 96.0197 142.38 97.3169 150.318 97.9573Z" fill="#181F40"/>
<path d="M43.6066 47.0624C52.2399 60.0123 62.9073 71.2809 75.2713 80.6685C89.8683 91.8331 106.231 99.8743 123.973 104.674C132.682 106.984 141.414 108.469 150.318 109.121V124.964C140.034 124.332 129.939 122.608 119.951 119.893C100.253 114.6 82.0069 105.602 65.7568 93.2604C51.7347 82.5379 39.78 69.693 30 54.9765L43.6066 47.0624Z" fill="#181F40"/>
<path d="M43.6066 132.919C52.2399 119.988 62.9073 108.719 75.2713 99.2915C89.8683 88.212 106.231 80.1255 123.973 75.3347C132.682 73.0021 141.414 71.5205 150.318 70.8744V55.0156C140.034 55.7119 129.939 57.39 119.951 60.1111C100.253 65.4512 82.0069 74.3843 65.7568 86.7333C51.7347 97.4558 39.78 110.307 30 125.021L43.6066 132.919Z" fill="#ED2824"/>
<path d="M150.318 82.0964V97.9574C143.773 98.5352 137.292 99.6377 130.916 101.365C116.528 105.266 103.179 111.783 91.4452 120.833C81.9185 128.035 73.6891 136.633 66.8287 146.471L53.2158 138.516C61.1481 126.896 70.7511 116.719 81.9185 108.222C95.3418 97.9574 110.556 90.5485 126.793 86.102C134.637 84.0025 142.38 82.6897 150.318 82.0964Z" fill="#ED2824"/>
<path d="M150.318 124.969C146.124 125.509 142.013 126.266 137.877 127.405C118.482 132.64 101.899 144.051 90.1723 160L76.4512 152.057C82.5232 143.512 89.7484 136.045 98.09 129.709C108.766 121.565 120.715 115.633 133.767 112.125C139.258 110.643 144.745 109.662 150.318 109.116V124.969Z" fill="#ED2824"/>
</svg>
