<svg width="800" height="180" viewBox="0 0 800 180" fill="none" xmlns="http://www.w3.org/2000/svg">
<rect width="800" height="180" rx="15" fill="white"/>
<path d="M220.318 55.0187C216.124 54.485 212.013 53.69 207.877 52.6084C188.482 47.3605 171.899 35.9492 160.172 20L146.451 27.9541C152.523 36.4449 159.748 43.9431 168.09 50.2716C178.766 58.4422 190.715 64.3547 203.767 67.8645C209.258 69.3013 214.745 70.2769 220.318 70.8711V55.0187Z" fill="#181F40"/>
<path d="M220.318 97.9573V82.0962C213.773 81.4567 207.292 80.3635 200.916 78.637C186.528 74.7239 173.179 68.2139 161.445 59.1739C151.918 51.9601 143.689 43.358 136.829 33.5805L123.216 41.4895C131.148 53.1363 140.751 63.2789 151.918 71.8149C165.342 82.0481 180.556 89.452 196.793 93.9498C204.637 96.0197 212.38 97.3169 220.318 97.9573Z" fill="#181F40"/>
<path d="M113.607 47.0624C122.24 60.0123 132.907 71.2809 145.271 80.6685C159.868 91.8331 176.231 99.8743 193.973 104.674C202.682 106.984 211.414 108.469 220.318 109.121V124.964C210.034 124.332 199.939 122.608 189.951 119.893C170.253 114.6 152.007 105.602 135.757 93.2604C121.735 82.5379 109.78 69.693 100 54.9765L113.607 47.0624Z" fill="#181F40"/>
<path d="M113.607 132.919C122.24 119.988 132.907 108.719 145.271 99.2915C159.868 88.212 176.231 80.1255 193.973 75.3347C202.682 73.0021 211.414 71.5205 220.318 70.8744V55.0156C210.034 55.7119 199.939 57.39 189.951 60.1111C170.253 65.4512 152.007 74.3843 135.757 86.7333C121.735 97.4558 109.78 110.307 100 125.021L113.607 132.919Z" fill="#ED2824"/>
<path d="M220.318 82.0964V97.9574C213.773 98.5352 207.292 99.6377 200.916 101.365C186.528 105.266 173.179 111.783 161.445 120.833C151.918 128.035 143.689 136.633 136.829 146.471L123.216 138.516C131.148 126.896 140.751 116.719 151.918 108.222C165.342 97.9574 180.556 90.5485 196.793 86.102C204.637 84.0025 212.38 82.6897 220.318 82.0964Z" fill="#ED2824"/>
<path d="M220.318 124.969C216.124 125.509 212.013 126.266 207.877 127.405C188.482 132.64 171.899 144.051 160.172 160L146.451 152.057C152.523 143.512 159.748 136.045 168.09 129.709C178.766 121.565 190.715 115.633 203.767 112.125C209.258 110.643 214.745 109.662 220.318 109.116V124.969Z" fill="#ED2824"/>
<path d="M514.435 90.575C514.7 81.793 518.358 77.3978 523.891 77.3978C529.43 77.3978 532.414 81.4013 532.498 90.575H514.435ZM524.536 68.5204C509.638 68.5204 501.217 79.0483 501.217 95.3854C501.217 112.043 510.311 122.588 526.139 122.588C534.856 122.588 540.649 120.837 544.689 118.804L541.297 109.458C538.495 110.889 533.89 112.249 527.903 112.249C520.246 112.249 516.765 108.745 515.371 100.824C515.187 99.9212 515.093 98.9243 514.988 97.9374H546.356V96.3823C547.031 78.7643 539.436 68.5204 524.536 68.5204Z" fill="#181F40"/>
<path d="M282.319 121.59V92.7483H265.611V121.59H250V55.0001H265.611V82.4885H282.319V55.0001H297.948V121.59H282.319Z" fill="#181F40"/>
<path d="M327.084 77.8597C320.43 77.8597 319.013 85.9861 319.013 95.2901C319.013 104.644 320.507 112.286 327.084 112.286C333.648 112.286 335.057 104.644 335.057 95.2901C335.057 85.9861 333.648 77.8597 327.084 77.8597ZM327.084 122.588C312.1 122.588 304.233 111.069 304.233 95.479C304.233 79.8997 312.1 68.4673 326.896 68.4673C341.989 68.4673 349.842 79.8997 349.842 95.479C349.842 111.069 341.989 122.588 327.084 122.588Z" fill="#181F40"/>
<path d="M384.5 121.59V85.1407C384.5 81.4495 382.892 77.8595 376.828 77.8595C373.923 77.8595 372.233 78.3434 370.541 78.9117V121.59H355.562V72.3452C360.715 70.0232 368.015 68.4671 377.183 68.4671C393.681 68.4671 399.484 75.4934 399.484 84.9991V121.59H384.5Z" fill="#181F40"/>
<path d="M435.549 78.0546C434.335 77.4965 432.827 77.1521 430.782 77.1521C423.085 77.1521 419.904 83.4886 419.904 95.9449C419.904 107.767 422.996 113.388 430.487 113.388C432.567 113.388 434.231 112.902 435.549 112.099V78.0546ZM427.416 143.56C419.458 143.56 412.309 141.999 408.109 139.685L411.947 129.901C415.141 131.659 419.802 133.032 424.798 133.032C432.641 133.032 435.549 129.25 435.549 123.251V120.325C433.772 121.319 430.783 121.982 426.467 121.982C414.106 121.982 405.203 112.385 405.203 96.8091C405.203 79.427 414.009 68.4654 431.812 68.4654C439.673 68.4654 446.412 70.1279 450.066 72.3424V121.982C450.066 136.808 440.687 143.56 427.416 143.56Z" fill="#181F40"/>
<path d="M464.126 121.59V55.0001H479.666V111.074H496.447V121.59H464.126Z" fill="#181F40"/>
<path d="M575.014 77.8597C568.476 77.8597 567.047 85.9861 567.047 95.2901C567.047 104.644 568.568 112.286 575.014 112.286C581.694 112.286 582.971 104.644 582.971 95.2901C582.971 85.9861 581.694 77.8597 575.014 77.8597ZM575.014 122.588C560.045 122.588 552.18 111.069 552.18 95.479C552.18 79.8997 560.045 68.4673 574.93 68.4673C590.024 68.4673 597.879 79.8997 597.879 95.479C597.879 111.069 590.024 122.588 575.014 122.588Z" fill="#181F40"/>
<path d="M634.506 121.59V85.1407C634.506 81.4495 632.819 77.8595 626.832 77.8595C623.83 77.8595 622.163 78.3434 620.45 78.9117V121.59H605.479V72.3452C610.635 70.0232 617.932 68.4671 627.212 68.4671C643.608 68.4671 649.412 75.4934 649.412 84.9991V121.59H634.506Z" fill="#181F40"/>
<path d="M685.454 78.0546C684.254 77.4965 682.765 77.1521 680.698 77.1521C673.001 77.1521 669.92 83.4886 669.92 95.9449C669.92 107.767 672.922 113.388 680.41 113.388C682.477 113.388 684.16 112.902 685.454 112.099V78.0546ZM677.413 143.56C669.349 143.56 662.23 141.999 658.124 139.685L661.965 129.901C665.044 131.659 669.831 133.032 674.699 133.032C682.587 133.032 685.454 129.25 685.454 123.251V120.325C683.701 121.319 680.698 121.982 676.368 121.982C664.027 121.982 655.132 112.385 655.132 96.8091C655.132 79.427 663.907 68.4654 681.705 68.4654C689.68 68.4654 696.325 70.1279 700 72.3424V121.982C700 136.808 690.626 143.56 677.413 143.56Z" fill="#181F40"/>
</svg>
