<svg width="500" height="350" viewBox="0 0 500 350" fill="none" xmlns="http://www.w3.org/2000/svg">
<rect width="500" height="350" rx="15" fill="white"/>
<path d="M310.318 95.0187C306.124 94.485 302.013 93.69 297.877 92.6084C278.482 87.3605 261.899 75.9492 250.172 60L236.451 67.9541C242.523 76.4449 249.748 83.9431 258.09 90.2716C268.766 98.4422 280.715 104.355 293.767 107.865C299.258 109.301 304.745 110.277 310.318 110.871V95.0187Z" fill="#181F40"/>
<path d="M310.318 137.957V122.096C303.773 121.457 297.292 120.364 290.916 118.637C276.528 114.724 263.179 108.214 251.445 99.1739C241.918 91.9601 233.689 83.358 226.829 73.5805L213.216 81.4895C221.148 93.1363 230.751 103.279 241.918 111.815C255.342 122.048 270.556 129.452 286.793 133.95C294.637 136.02 302.38 137.317 310.318 137.957Z" fill="#181F40"/>
<path d="M203.607 87.0624C212.24 100.012 222.907 111.281 235.271 120.669C249.868 131.833 266.231 139.874 283.973 144.674C292.682 146.984 301.414 148.469 310.318 149.121V164.964C300.034 164.332 289.939 162.608 279.951 159.893C260.253 154.6 242.007 145.602 225.757 133.26C211.735 122.538 199.78 109.693 190 94.9765L203.607 87.0624Z" fill="#181F40"/>
<path d="M203.607 172.919C212.24 159.988 222.907 148.719 235.271 139.292C249.868 128.212 266.231 120.126 283.973 115.335C292.682 113.002 301.414 111.52 310.318 110.874V95.0156C300.034 95.7119 289.939 97.39 279.951 100.111C260.253 105.451 242.007 114.384 225.757 126.733C211.735 137.456 199.78 150.307 190 165.021L203.607 172.919Z" fill="#ED2824"/>
<path d="M310.318 122.096V137.957C303.773 138.535 297.292 139.638 290.916 141.365C276.528 145.266 263.179 151.783 251.445 160.833C241.918 168.035 233.689 176.633 226.829 186.471L213.216 178.516C221.148 166.896 230.751 156.719 241.918 148.222C255.342 137.957 270.556 130.548 286.793 126.102C294.637 124.003 302.38 122.69 310.318 122.096Z" fill="#ED2824"/>
<path d="M310.318 164.969C306.124 165.509 302.013 166.266 297.877 167.405C278.482 172.64 261.899 184.051 250.172 200L236.451 192.057C242.523 183.512 249.748 176.045 258.09 169.709C268.766 161.565 280.715 155.633 293.767 152.125C299.258 150.643 304.745 149.662 310.318 149.116V164.969Z" fill="#ED2824"/>
<path d="M285.053 262.622C285.289 254.816 288.54 250.909 293.458 250.909C298.381 250.909 301.034 254.468 301.109 262.622H285.053ZM294.031 243.018C280.789 243.018 273.304 252.376 273.304 266.898C273.304 281.705 281.387 291.078 295.456 291.078C303.205 291.078 308.354 289.522 311.945 287.715L308.93 279.407C306.44 280.679 302.346 281.888 297.024 281.888C290.218 281.888 287.124 278.774 285.884 271.733C285.721 270.93 285.637 270.044 285.545 269.167H313.427V267.784C314.027 252.124 307.276 243.018 294.031 243.018Z" fill="#181F40"/>
<path d="M78.7283 290.191V264.554H63.8766V290.191H50V231H63.8766V255.434H78.7283V231H92.6201V290.191H78.7283Z" fill="#181F40"/>
<path d="M118.518 251.32C112.604 251.32 111.345 258.543 111.345 266.813C111.345 275.128 112.673 281.921 118.518 281.921C124.353 281.921 125.606 275.128 125.606 266.813C125.606 258.543 124.353 251.32 118.518 251.32ZM118.518 291.078C105.199 291.078 98.207 280.839 98.207 266.981C98.207 253.133 105.199 242.971 118.352 242.971C131.767 242.971 138.748 253.133 138.748 266.981C138.748 280.839 131.767 291.078 118.518 291.078Z" fill="#181F40"/>
<path d="M169.555 290.191V257.792C169.555 254.511 168.126 251.32 162.736 251.32C160.153 251.32 158.651 251.75 157.147 252.255V290.191H143.833V246.418C148.413 244.354 154.902 242.971 163.051 242.971C177.716 242.971 182.875 249.216 182.875 257.666V290.191H169.555Z" fill="#181F40"/>
<path d="M214.932 251.493C213.853 250.997 212.512 250.691 210.695 250.691C203.853 250.691 201.026 256.323 201.026 267.395C201.026 277.904 203.774 282.901 210.432 282.901C212.281 282.901 213.761 282.468 214.932 281.754V251.493ZM207.702 309.72C200.629 309.72 194.274 308.333 190.541 306.276L193.953 297.579C196.791 299.141 200.935 300.361 205.376 300.361C212.347 300.361 214.932 297 214.932 291.667V289.067C213.353 289.95 210.695 290.539 206.86 290.539C195.872 290.539 187.958 282.008 187.958 268.164C187.958 252.713 195.786 242.969 211.611 242.969C218.598 242.969 224.588 244.447 227.837 246.415V290.539C227.837 303.718 219.499 309.72 207.702 309.72Z" fill="#181F40"/>
<path d="M240.334 290.191V231H254.147V280.844H269.064V290.191H240.334Z" fill="#181F40"/>
<path d="M338.902 251.32C333.091 251.32 331.82 258.543 331.82 266.813C331.82 275.128 333.172 281.921 338.902 281.921C344.84 281.921 345.975 275.128 345.975 266.813C345.975 258.543 344.84 251.32 338.902 251.32ZM338.902 291.078C325.596 291.078 318.604 280.839 318.604 266.981C318.604 253.133 325.596 242.971 338.827 242.971C352.244 242.971 359.226 253.133 359.226 266.981C359.226 280.839 352.244 291.078 338.902 291.078Z" fill="#181F40"/>
<path d="M391.783 290.191V257.792C391.783 254.511 390.283 251.32 384.961 251.32C382.293 251.32 380.811 251.75 379.288 252.255V290.191H365.98V246.418C370.564 244.354 377.05 242.971 385.299 242.971C399.873 242.971 405.032 249.216 405.032 257.666V290.191H391.783Z" fill="#181F40"/>
<path d="M437.071 251.493C436.004 250.997 434.68 250.691 432.843 250.691C426.001 250.691 423.262 256.323 423.262 267.395C423.262 277.904 425.931 282.901 432.587 282.901C434.424 282.901 435.92 282.468 437.071 281.754V251.493ZM429.923 309.72C422.754 309.72 416.427 308.333 412.777 306.276L416.191 297.579C418.928 299.141 423.183 300.361 427.51 300.361C434.522 300.361 437.071 297 437.071 291.667V289.067C435.512 289.95 432.843 290.539 428.994 290.539C418.024 290.539 410.117 282.008 410.117 268.164C410.117 252.713 417.918 242.969 433.738 242.969C440.827 242.969 446.733 244.447 450 246.415V290.539C450 303.718 441.667 309.72 429.923 309.72Z" fill="#181F40"/>
</svg>
