<svg width="800" height="150" viewBox="0 0 800 150" fill="none" xmlns="http://www.w3.org/2000/svg">
<rect width="800" height="150" rx="15" fill="#EE4D2D"/>
<path d="M147.306 56.2601C155.478 56.2601 162.103 49.6352 162.103 41.4629C162.103 33.2907 155.478 26.6658 147.306 26.6658C139.134 26.6658 132.509 33.2907 132.509 41.4629C132.509 49.6352 139.134 56.2601 147.306 56.2601Z" fill="#EE4D2D"/>
<path d="M207.559 87.9838C212.728 87.9838 216.918 83.7937 216.918 78.6249C216.918 73.456 212.728 69.2659 207.559 69.2659C202.39 69.2659 198.2 73.456 198.2 78.6249C198.2 83.7937 202.39 87.9838 207.559 87.9838Z" fill="#EE4D2D"/>
<path d="M268.437 68.5446C258.364 65.3123 257.198 61.3978 257.198 58.7967C257.408 54.1236 261.973 50.5598 268.004 50.3366C273.302 50.3494 277.924 51.7328 282.565 54.7101C284.714 56.0043 285.944 54.895 286.677 53.9451L286.76 53.8303C286.83 53.7156 287.328 53.0079 287.869 52.2237L287.92 52.16C288.858 50.8212 289.094 50.4705 289.221 50.2601C289.878 49.0297 290.273 47.5761 288.233 46.1353C287.104 45.332 284.133 43.7892 282.348 43.0815C277.554 41.1753 272.613 40.27 267.691 40.3529C256.229 40.6015 247.131 48.2264 246.532 58.1018C246.149 65.3059 249.79 71.0947 257.37 75.328C259.557 76.4755 266.99 79.236 270.197 80.1732C279.033 82.7488 283.592 87.2435 282.693 92.5031C281.883 97.2527 276.611 100.466 269.311 100.695C263.701 100.581 258.116 98.5597 253.149 94.8428L252.333 94.2436C251.753 93.8483 250.873 93.3447 249.841 93.5423C249.101 93.6826 248.483 94.148 247.934 94.9767C247.89 95.0405 247.284 95.9585 246.678 96.8766C245.952 97.9668 245.639 98.4449 245.486 98.6872C244.198 100.593 245.155 101.773 246.156 102.614C248.291 104.329 250.982 106.095 252.862 107.007C257.963 109.493 263.509 110.813 269.298 110.928C269.642 110.947 269.993 110.953 270.356 110.953C274.009 110.953 278.3 110.067 281.583 108.614C288.233 105.662 292.479 99.8921 293.218 92.79C294.411 81.3782 287.002 74.1357 268.431 68.5765L268.437 68.5446Z" fill="white"/>
<path d="M329.546 41.5396H305.951C304.16 41.5396 302.706 42.9931 302.706 44.7846V107.129C302.706 108.5 303.822 109.609 305.186 109.609H311.153C312.524 109.609 313.633 108.493 313.633 107.129V91.0695H329.546C343.183 90.891 354.283 79.7852 354.283 66.3077C354.283 52.8303 343.19 41.7181 329.546 41.5459M343.177 66.1292C343.177 69.7695 341.749 73.1995 339.154 75.7815C336.559 78.3635 333.11 79.7852 329.438 79.7852H313.633V52.4796H329.476C337.031 52.4796 343.177 58.6063 343.177 66.1356" fill="white"/>
<path d="M464.193 61.8511H455.764L439.896 88.2004L423.441 61.8511H414.363C413.445 61.8511 412.629 62.3293 412.176 63.1326C411.723 63.9358 411.743 64.8794 412.227 65.6699L433.062 99.4273L415.714 129.232C415.255 130.016 415.255 130.953 415.708 131.744C416.161 132.528 416.97 133 417.882 133H426.342L466.354 65.6317C466.819 64.8475 466.826 63.904 466.373 63.1135C465.92 62.3229 465.104 61.8447 464.193 61.8447" fill="white"/>
<path d="M395.747 65.1222V67.3727C391.367 63.828 385.827 61.8772 380.109 61.8772C366.644 61.8772 355.685 72.5112 355.685 85.5743C355.685 98.6374 366.637 109.628 380.109 109.628C385.827 109.628 391.367 107.678 395.747 104.133V106.383C395.747 108.175 397.201 109.628 398.992 109.628H405.616V61.8772H398.992C397.201 61.8772 395.747 63.3308 395.747 65.1222ZM380.045 72.3901C387.651 72.3901 393.841 78.3192 393.841 85.6062C393.841 92.8932 387.523 99.1729 380.045 99.1729C372.566 99.1729 366.249 92.9633 366.249 85.6062C366.249 78.249 372.439 72.3901 380.045 72.3901Z" fill="white"/>
<path d="M509.427 99.1535L509.223 98.4777H487.26V43.9048C487.26 42.5341 486.15 41.4248 484.78 41.4248H478.544C477.174 41.4248 476.064 42.5405 476.064 43.9048V109.571H516.911L515.062 107.907C515.024 107.869 510.982 104.196 509.433 99.1471" fill="white"/>
<path d="M550.509 65.134V66.1158C549.164 64.9619 547.64 64.0247 545.95 63.3043C543.528 62.2779 540.716 61.7551 537.586 61.7551C534.456 61.7551 531.612 62.3289 528.909 63.4573C526.212 64.5858 523.79 66.2115 521.718 68.2898C519.639 70.3682 517.975 72.9183 516.777 75.8574C515.578 78.7964 514.973 82.1562 514.973 85.8347C514.973 89.0925 515.527 92.191 516.611 95.0599C517.701 97.9288 519.251 100.473 521.214 102.621C523.184 104.776 525.594 106.497 528.361 107.734C531.134 108.977 534.233 109.602 537.58 109.602C540.927 109.602 543.611 109.079 546.001 108.053C547.665 107.339 549.17 106.433 550.502 105.35V106.395C550.502 108.187 551.956 109.64 553.748 109.64H560.926V61.8826H553.748C551.956 61.8826 550.502 63.3362 550.502 65.1277M542.635 73.2116C544.159 73.83 545.523 74.7162 546.69 75.851C547.85 76.9794 548.788 78.3947 549.47 80.0523C550.152 81.7163 550.502 83.6289 550.502 85.7328C550.502 87.8366 550.171 89.762 549.514 91.4323C548.864 93.0899 547.965 94.4989 546.837 95.6273C545.715 96.7494 544.376 97.6164 542.858 98.1965C541.328 98.7831 539.69 99.0827 537.994 99.0827C534.379 99.0827 531.491 97.9033 529.171 95.487C526.869 93.0899 525.702 89.8448 525.702 85.8475C525.702 81.8502 526.882 78.3947 529.215 75.9976C531.58 73.5686 534.386 72.3573 537.784 72.2935C539.473 72.2935 541.105 72.6059 542.629 73.2244" fill="white"/>
<path d="M594.467 99.408C593.836 98.3561 592.542 97.9226 591.394 98.3943C589.418 99.1976 587.441 99.4526 585.644 98.7067C584.483 98.1521 583.852 97.0491 583.706 95.315C583.533 93.2877 583.444 90.7758 583.444 87.8432V72.8547H593.53C594.901 72.8547 596.01 71.739 596.01 70.3747V64.7708C596.01 63.4001 594.894 62.2908 593.53 62.2908H583.444V50.1968C583.444 48.8261 582.328 47.7168 580.964 47.7168H575.15C573.779 47.7168 572.67 48.8325 572.67 50.1968V62.2908H569.552C568.182 62.2908 567.072 63.4065 567.072 64.7708V70.3747C567.072 71.7454 568.188 72.8547 569.552 72.8547H572.67V88.7931C572.67 92.1975 572.759 94.8369 572.938 96.6475C573.122 98.5219 573.511 100.256 574.117 101.831C575.099 104.17 576.667 106.109 578.784 107.575C580.907 109.054 583.47 109.806 586.402 109.806C588.162 109.806 589.972 109.583 591.802 109.15C593.211 108.812 594.703 108.231 596.227 107.428C596.82 107.116 597.272 106.561 597.451 105.911C597.636 105.254 597.54 104.547 597.196 103.96L594.473 99.4016L594.467 99.408Z" fill="white"/>
<path d="M640.483 68.972C638.443 66.6768 635.982 64.8662 633.171 63.5848C630.359 62.3097 627.305 61.6594 624.105 61.6594C620.63 61.6594 617.404 62.2842 614.529 63.5274C611.647 64.7642 609.174 66.4856 607.166 68.6404C605.164 70.7889 603.595 73.3518 602.499 76.2653C601.409 79.1597 600.86 82.2836 600.86 85.5351C600.86 89.22 601.485 92.5989 602.722 95.5698C603.952 98.5407 605.629 101.136 607.701 103.278C609.786 105.432 612.285 107.103 615.135 108.231C617.972 109.36 620.987 109.927 624.105 109.927C626.751 109.927 629.154 109.691 631.252 109.219C633.343 108.748 635.255 108.11 636.919 107.307C638.571 106.516 640.107 105.624 641.478 104.648C642.428 103.973 643.339 103.258 644.187 102.532C645.163 101.69 645.341 100.268 644.608 99.2165L641.745 95.1172C641.35 94.5498 640.725 94.1672 640.03 94.078C639.336 93.9887 638.641 94.1991 638.111 94.6454C636.524 95.9906 634.745 97.1573 632.82 98.1264C630.448 99.3122 627.586 99.8795 624.334 99.8158C621.529 99.752 618.845 98.8021 616.359 96.9979C614.178 95.4232 612.699 93.1217 611.941 90.1572H646.355L646.508 87.2628C646.725 83.5779 646.285 80.1479 645.194 77.0623C644.104 73.983 642.523 71.2607 640.489 68.9656M611.922 80.575C612.559 77.9165 613.847 75.8955 615.849 74.4101C618.125 72.7206 620.796 71.8663 623.78 71.8663C627.101 71.9301 629.798 72.8609 631.787 74.6205C633.521 76.1633 634.713 78.1588 635.338 80.575H611.928H611.922Z" fill="white"/>
<path d="M679.628 61.8694C675.688 61.8694 672.379 62.5643 669.784 63.935C668.139 64.802 666.558 66.1345 665.06 67.8941V64.394C665.06 63.0233 663.944 61.914 662.58 61.914H656.976C655.605 61.914 654.496 63.0297 654.496 64.394V107.115C654.496 108.486 655.612 109.595 656.976 109.595H662.58C663.951 109.595 665.06 108.479 665.06 107.115V90.6986C665.06 88.1804 665.334 85.8088 665.876 83.6475C666.405 81.5245 667.26 79.6438 668.413 78.0627C669.854 76.08 671.352 74.7093 672.857 73.9825C674.687 73.0964 676.963 72.6501 679.621 72.6501H680.578V61.8694H679.621H679.628Z" fill="white"/>
<path d="M329.546 41.5396H305.951C304.16 41.5396 302.706 42.9931 302.706 44.7846V107.129C302.706 108.5 303.822 109.609 305.186 109.609H311.153C312.524 109.609 313.633 108.493 313.633 107.129V91.0695H329.546C343.183 90.891 354.283 79.7852 354.283 66.3077C354.283 52.8303 343.19 41.7181 329.546 41.5459M343.177 66.1292C343.177 69.7695 341.749 73.1995 339.154 75.7815C336.559 78.3635 333.11 79.7852 329.438 79.7852H313.633V52.4796H329.476C337.031 52.4796 343.177 58.6063 343.177 66.1356" fill="white"/>
<path d="M464.193 61.8511H455.764L439.896 88.2004L423.441 61.8511H414.363C413.445 61.8511 412.629 62.3293 412.176 63.1326C411.723 63.9358 411.743 64.8794 412.227 65.6699L433.062 99.4273L415.714 129.232C415.255 130.016 415.255 130.953 415.708 131.744C416.161 132.528 416.97 133 417.882 133H426.342L466.354 65.6317C466.819 64.8475 466.826 63.904 466.373 63.1135C465.92 62.3229 465.104 61.8447 464.193 61.8447" fill="white"/>
<path d="M395.747 65.1222V67.3727C391.367 63.828 385.827 61.8772 380.109 61.8772C366.644 61.8772 355.685 72.5112 355.685 85.5743C355.685 98.6374 366.637 109.628 380.109 109.628C385.827 109.628 391.367 107.678 395.747 104.133V106.383C395.747 108.175 397.201 109.628 398.992 109.628H405.616V61.8772H398.992C397.201 61.8772 395.747 63.3308 395.747 65.1222ZM380.045 72.3901C387.651 72.3901 393.841 78.3192 393.841 85.6062C393.841 92.8932 387.523 99.1729 380.045 99.1729C372.566 99.1729 366.249 92.9633 366.249 85.6062C366.249 78.249 372.439 72.3901 380.045 72.3901Z" fill="white"/>
<path d="M509.427 99.1535L509.223 98.4777H487.26V43.9048C487.26 42.5341 486.15 41.4248 484.78 41.4248H478.544C477.174 41.4248 476.064 42.5405 476.064 43.9048V109.571H516.911L515.062 107.907C515.024 107.869 510.982 104.196 509.433 99.1471" fill="white"/>
<path d="M550.509 65.134V66.1158C549.164 64.9619 547.64 64.0247 545.95 63.3043C543.528 62.2779 540.716 61.7551 537.586 61.7551C534.456 61.7551 531.612 62.3289 528.909 63.4573C526.212 64.5858 523.79 66.2115 521.718 68.2898C519.639 70.3682 517.975 72.9183 516.777 75.8574C515.578 78.7964 514.973 82.1562 514.973 85.8347C514.973 89.0925 515.527 92.191 516.611 95.0599C517.701 97.9288 519.251 100.473 521.214 102.621C523.184 104.776 525.594 106.497 528.361 107.734C531.134 108.977 534.233 109.602 537.58 109.602C540.927 109.602 543.611 109.079 546.001 108.053C547.665 107.339 549.17 106.433 550.502 105.35V106.395C550.502 108.187 551.956 109.64 553.748 109.64H560.926V61.8826H553.748C551.956 61.8826 550.502 63.3362 550.502 65.1277M542.635 73.2116C544.159 73.83 545.523 74.7162 546.69 75.851C547.85 76.9794 548.788 78.3947 549.47 80.0523C550.152 81.7163 550.502 83.6289 550.502 85.7328C550.502 87.8366 550.171 89.762 549.514 91.4323C548.864 93.0899 547.965 94.4989 546.837 95.6273C545.715 96.7494 544.376 97.6164 542.858 98.1965C541.328 98.7831 539.69 99.0827 537.994 99.0827C534.379 99.0827 531.491 97.9033 529.171 95.487C526.869 93.0899 525.702 89.8448 525.702 85.8475C525.702 81.8502 526.882 78.3947 529.215 75.9976C531.58 73.5686 534.386 72.3573 537.784 72.2935C539.473 72.2935 541.105 72.6059 542.629 73.2244" fill="white"/>
<path d="M594.467 99.408C593.836 98.3561 592.542 97.9226 591.394 98.3943C589.418 99.1976 587.441 99.4526 585.644 98.7067C584.483 98.1521 583.852 97.0491 583.706 95.315C583.533 93.2877 583.444 90.7758 583.444 87.8432V72.8547H593.53C594.901 72.8547 596.01 71.739 596.01 70.3747V64.7708C596.01 63.4001 594.894 62.2908 593.53 62.2908H583.444V50.1968C583.444 48.8261 582.328 47.7168 580.964 47.7168H575.15C573.779 47.7168 572.67 48.8325 572.67 50.1968V62.2908H569.552C568.182 62.2908 567.072 63.4065 567.072 64.7708V70.3747C567.072 71.7454 568.188 72.8547 569.552 72.8547H572.67V88.7931C572.67 92.1975 572.759 94.8369 572.938 96.6475C573.122 98.5219 573.511 100.256 574.117 101.831C575.099 104.17 576.667 106.109 578.784 107.575C580.907 109.054 583.47 109.806 586.402 109.806C588.162 109.806 589.972 109.583 591.802 109.15C593.211 108.812 594.703 108.231 596.227 107.428C596.82 107.116 597.272 106.561 597.451 105.911C597.636 105.254 597.54 104.547 597.196 103.96L594.473 99.4016L594.467 99.408Z" fill="white"/>
<path d="M640.483 68.972C638.443 66.6768 635.982 64.8662 633.171 63.5848C630.359 62.3097 627.305 61.6594 624.105 61.6594C620.63 61.6594 617.404 62.2842 614.529 63.5274C611.647 64.7642 609.174 66.4856 607.166 68.6404C605.164 70.7889 603.595 73.3518 602.499 76.2653C601.409 79.1597 600.86 82.2836 600.86 85.5351C600.86 89.22 601.485 92.5989 602.722 95.5698C603.952 98.5407 605.629 101.136 607.701 103.278C609.786 105.432 612.285 107.103 615.135 108.231C617.972 109.36 620.987 109.927 624.105 109.927C626.751 109.927 629.154 109.691 631.252 109.219C633.343 108.748 635.255 108.11 636.919 107.307C638.571 106.516 640.107 105.624 641.478 104.648C642.428 103.973 643.339 103.258 644.187 102.532C645.163 101.69 645.341 100.268 644.608 99.2165L641.745 95.1172C641.35 94.5498 640.725 94.1672 640.03 94.078C639.336 93.9887 638.641 94.1991 638.111 94.6454C636.524 95.9906 634.745 97.1573 632.82 98.1264C630.448 99.3122 627.586 99.8795 624.334 99.8158C621.529 99.752 618.845 98.8021 616.359 96.9979C614.178 95.4232 612.699 93.1217 611.941 90.1572H646.355L646.508 87.2628C646.725 83.5779 646.285 80.1479 645.194 77.0623C644.104 73.983 642.523 71.2607 640.489 68.9656M611.922 80.575C612.559 77.9165 613.847 75.8955 615.849 74.4101C618.125 72.7206 620.796 71.8663 623.78 71.8663C627.101 71.9301 629.798 72.8609 631.787 74.6205C633.521 76.1633 634.713 78.1588 635.338 80.575H611.928H611.922Z" fill="white"/>
<path d="M679.628 61.8694C675.688 61.8694 672.379 62.5643 669.784 63.935C668.139 64.802 666.558 66.1345 665.06 67.8941V64.394C665.06 63.0233 663.944 61.914 662.58 61.914H656.976C655.605 61.914 654.496 63.0297 654.496 64.394V107.115C654.496 108.486 655.612 109.595 656.976 109.595H662.58C663.951 109.595 665.06 108.479 665.06 107.115V90.6986C665.06 88.1804 665.334 85.8088 665.876 83.6475C666.405 81.5245 667.26 79.6438 668.413 78.0627C669.854 76.08 671.352 74.7093 672.857 73.9825C674.687 73.0964 676.963 72.6501 679.621 72.6501H680.578V61.8694H679.621H679.628Z" fill="white"/>
<path d="M172.273 43.4705L211.819 41.5643V37.261C211.819 32.6452 208.517 29.33 204.436 29.8592L169.735 34.3729C171.036 37.1972 171.916 40.2574 172.273 43.4705Z" fill="white"/>
<path d="M212.896 47.3083H172.451C172.164 63.4316 158.967 76.4628 142.774 76.4628C142.079 76.4628 141.39 76.4309 140.708 76.3862V100.887C140.708 105.891 144.763 109.94 149.761 109.94H212.896C217.512 109.94 221.261 106.197 221.261 101.582V55.6728C221.261 51.0571 217.518 47.3083 212.896 47.3083ZM209.109 84.942C205.622 84.942 202.791 82.1113 202.791 78.624C202.791 75.1367 205.622 72.3061 209.109 72.3061C212.596 72.3061 215.427 75.1367 215.427 78.624C215.427 82.1113 212.596 84.942 209.109 84.942Z" fill="white"/>
<path d="M142.774 23C129.64 23 119 33.6468 119 46.7736C119 59.9004 129.647 70.5472 142.774 70.5472C155.901 70.5472 166.547 59.9004 166.547 46.7736C166.547 33.6468 155.901 23 142.774 23ZM157.042 49.7636C156.646 50.1844 156.085 50.4394 155.512 50.4394H142.952C141.696 50.4394 140.651 49.3939 140.651 48.1316V31.1477C140.651 29.9491 141.658 28.9737 142.869 29.0374C143.991 29.0948 144.871 30.0447 144.871 31.1923V46.1743H155.467C156.621 46.1743 157.564 47.0669 157.622 48.1889C157.654 48.7755 157.443 49.3301 157.042 49.7573V49.7636Z" fill="white"/>
</svg>
