<svg width="180" height="180" viewBox="0 0 180 180" fill="none" xmlns="http://www.w3.org/2000/svg">
<rect width="180" height="180" rx="15" fill="#EE4D2D"/>
<path d="M31.1228 130.523C28.08 129.546 27.727 128.363 27.727 127.576C27.7908 126.162 29.1687 125.087 30.9912 125.019C32.5924 125.023 33.9881 125.442 35.3919 126.341C36.0419 126.734 36.4128 126.397 36.6362 126.11L36.6601 126.074C36.682 126.038 36.8316 125.825 36.9951 125.588L37.011 125.568C37.2942 125.163 37.3659 125.057 37.4038 124.993C37.6032 124.623 37.7209 124.184 37.1047 123.747C36.7638 123.504 35.8665 123.037 35.3261 122.824C33.8765 122.248 32.385 121.975 30.8955 122C27.4299 122.076 24.6822 124.379 24.5008 127.364C24.3851 129.542 25.4838 131.292 27.7769 132.571C28.4369 132.918 30.6841 133.751 31.6532 134.034C34.3231 134.814 35.701 136.172 35.4298 137.759C35.1845 139.195 33.5913 140.166 31.386 140.235C29.6911 140.2 28.0042 139.589 26.5007 138.467L26.2555 138.285C26.08 138.166 25.8148 138.014 25.5037 138.072C25.2804 138.116 25.093 138.255 24.9275 138.505C24.9155 138.525 24.7321 138.802 24.5486 139.079C24.3293 139.41 24.2356 139.554 24.1877 139.625C23.7989 140.202 24.088 140.558 24.3891 140.814C25.0332 141.332 25.8487 141.865 26.415 142.142C27.9563 142.893 29.6313 143.292 31.382 143.328C31.4857 143.334 31.5934 143.336 31.701 143.336C32.8057 143.336 34.1018 143.069 35.0928 142.628C37.1027 141.735 38.3849 139.992 38.6102 137.845C38.9711 134.395 36.7319 132.206 31.1208 130.527L31.1228 130.523Z" fill="white"/>
<path d="M49.5891 122.361H42.4586C41.9182 122.361 41.4775 122.802 41.4775 123.342V142.184C41.4775 142.596 41.8145 142.933 42.2273 142.933H44.0318C44.4446 142.933 44.7816 142.596 44.7816 142.184V137.33H49.5891C53.7106 137.276 57.0645 133.92 57.0645 129.847C57.0645 125.773 53.7126 122.417 49.5891 122.363M53.7086 129.793C53.7086 130.894 53.2779 131.928 52.4923 132.71C51.7087 133.49 50.6658 133.92 49.5552 133.92H44.7796V125.667H49.5671C51.8503 125.667 53.7067 127.518 53.7067 129.793" fill="white"/>
<path d="M90.2803 128.499H87.734L82.9384 136.463L77.9654 128.499H75.2217C74.9445 128.499 74.6973 128.644 74.5617 128.886C74.4261 129.129 74.4321 129.414 74.5757 129.651L80.8707 139.853L75.6285 148.859C75.4909 149.097 75.4889 149.38 75.6285 149.619C75.7661 149.856 76.0113 150 76.2845 150H78.8408L90.9323 129.641C91.0719 129.404 91.0739 129.119 90.9383 128.88C90.8027 128.64 90.5555 128.497 90.2803 128.497" fill="white"/>
<path d="M69.5947 129.488V130.168C68.2707 129.097 66.5978 128.507 64.869 128.507C60.7993 128.507 57.4893 131.719 57.4893 135.669C57.4893 139.619 60.7993 142.939 64.869 142.939C66.5978 142.939 68.2707 142.351 69.5947 141.278V141.958C69.5947 142.499 70.0354 142.939 70.5758 142.939H72.5777V128.507H70.5758C70.0354 128.507 69.5947 128.948 69.5947 129.488ZM64.8491 131.683C67.1481 131.683 69.0185 133.476 69.0185 135.677C69.0185 137.879 67.1082 139.777 64.8491 139.777C62.5899 139.777 60.6796 137.901 60.6796 135.677C60.6796 133.454 62.55 131.683 64.8491 131.683Z" fill="white"/>
<path d="M103.951 139.771L103.889 139.567H97.2529V123.075C97.2529 122.662 96.916 122.325 96.5032 122.325H94.6189C94.2061 122.325 93.8691 122.662 93.8691 123.075V142.921H106.214L105.656 142.419C105.644 142.409 104.423 141.296 103.953 139.773" fill="white"/>
<path d="M116.366 129.492V129.789C115.959 129.44 115.498 129.157 114.988 128.94C114.256 128.628 113.405 128.471 112.459 128.471C111.514 128.471 110.653 128.644 109.837 128.985C109.022 129.326 108.292 129.819 107.664 130.445C107.036 131.073 106.533 131.843 106.17 132.732C105.809 133.621 105.624 134.636 105.624 135.747C105.624 136.73 105.792 137.669 106.119 138.535C106.448 139.402 106.916 140.17 107.51 140.82C108.107 141.472 108.834 141.992 109.67 142.365C110.507 142.74 111.444 142.929 112.457 142.929C113.47 142.929 114.28 142.772 115.002 142.461C115.504 142.245 115.959 141.97 116.364 141.645V141.96C116.364 142.501 116.804 142.941 117.345 142.941H119.514V128.507H117.345C116.804 128.507 116.364 128.948 116.364 129.488M113.987 131.931C114.447 132.118 114.86 132.385 115.213 132.728C115.564 133.069 115.847 133.498 116.053 133.998C116.26 134.501 116.366 135.079 116.366 135.715C116.366 136.351 116.266 136.931 116.069 137.436C115.871 137.936 115.6 138.363 115.259 138.704C114.92 139.043 114.515 139.304 114.057 139.48C113.594 139.657 113.099 139.747 112.587 139.747C111.494 139.747 110.621 139.392 109.919 138.66C109.223 137.936 108.872 136.955 108.872 135.747C108.872 134.539 109.229 133.496 109.935 132.772C110.649 132.038 111.498 131.671 112.525 131.651C113.036 131.651 113.528 131.745 113.989 131.933" fill="white"/>
<path d="M129.649 139.851C129.458 139.532 129.067 139.402 128.722 139.544C128.126 139.785 127.528 139.865 126.985 139.639C126.634 139.472 126.443 139.137 126.399 138.615C126.347 138.002 126.319 137.243 126.319 136.357V131.827H129.368C129.781 131.827 130.118 131.49 130.118 131.077V129.384C130.118 128.972 129.781 128.635 129.368 128.635H126.319V124.98C126.319 124.567 125.982 124.23 125.569 124.23H123.811C123.398 124.23 123.061 124.567 123.061 124.98V128.635H122.12C121.707 128.635 121.37 128.972 121.37 129.384V131.077C121.37 131.49 121.707 131.827 122.12 131.827H123.061V136.645C123.061 137.673 123.089 138.471 123.143 139.017C123.199 139.584 123.316 140.108 123.5 140.585C123.797 141.293 124.271 141.877 124.909 142.321C125.552 142.768 126.325 142.995 127.213 142.995C127.743 142.995 128.291 142.928 128.844 142.796C129.27 142.694 129.719 142.519 130.182 142.276C130.361 142.18 130.497 142.014 130.552 141.817C130.608 141.618 130.58 141.404 130.475 141.227L129.653 139.849L129.649 139.851Z" fill="white"/>
<path d="M143.557 130.651C142.941 129.957 142.197 129.408 141.348 129.023C140.498 128.637 139.575 128.441 138.608 128.441C137.557 128.441 136.584 128.631 135.714 129.005C134.845 129.38 134.095 129.901 133.489 130.551C132.883 131.201 132.408 131.975 132.079 132.854C131.75 133.729 131.585 134.672 131.585 135.655C131.585 136.77 131.774 137.791 132.147 138.688C132.52 139.586 133.025 140.371 133.653 141.019C134.283 141.671 135.039 142.176 135.898 142.517C136.755 142.858 137.667 143.029 138.61 143.029C139.409 143.029 140.137 142.957 140.769 142.816C141.401 142.674 141.978 142.481 142.482 142.24C142.981 142 143.445 141.731 143.86 141.436C144.147 141.231 144.422 141.015 144.679 140.796C144.973 140.543 145.028 140.112 144.807 139.795L143.942 138.557C143.822 138.385 143.633 138.27 143.425 138.244C143.216 138.216 143.005 138.279 142.845 138.415C142.366 138.822 141.828 139.175 141.246 139.466C140.528 139.825 139.665 139.994 138.682 139.976C137.834 139.956 137.023 139.671 136.271 139.125C135.613 138.648 135.164 137.954 134.935 137.057H145.335L145.381 136.182C145.447 135.069 145.314 134.03 144.985 133.099C144.656 132.168 144.177 131.344 143.561 130.652M134.929 134.162C135.12 133.358 135.511 132.748 136.115 132.3C136.803 131.789 137.611 131.53 138.512 131.53C139.517 131.55 140.331 131.831 140.931 132.363C141.455 132.828 141.814 133.432 142.004 134.162H134.929Z" fill="white"/>
<path d="M155.388 128.505C154.198 128.505 153.197 128.714 152.413 129.129C151.917 129.392 151.438 129.793 150.985 130.327V129.271C150.985 128.858 150.648 128.521 150.236 128.521H148.541C148.128 128.521 147.791 128.858 147.791 129.271V142.182C147.791 142.594 148.128 142.931 148.541 142.931H150.236C150.648 142.931 150.985 142.594 150.985 142.182V137.219C150.985 136.457 151.069 135.741 151.233 135.087C151.392 134.445 151.651 133.877 152 133.4C152.437 132.802 152.89 132.385 153.344 132.166C153.897 131.899 154.585 131.763 155.388 131.763H155.677V128.505H155.388Z" fill="white"/>
<path d="M49.5891 122.361H42.4586C41.9182 122.361 41.4775 122.802 41.4775 123.342V142.184C41.4775 142.596 41.8145 142.933 42.2273 142.933H44.0318C44.4446 142.933 44.7816 142.596 44.7816 142.184V137.33H49.5891C53.7106 137.276 57.0645 133.92 57.0645 129.847C57.0645 125.773 53.7126 122.417 49.5891 122.363M53.7086 129.793C53.7086 130.894 53.2779 131.928 52.4923 132.71C51.7087 133.49 50.6658 133.92 49.5552 133.92H44.7796V125.667H49.5671C51.8503 125.667 53.7067 127.518 53.7067 129.793" fill="white"/>
<path d="M90.2803 128.499H87.734L82.9384 136.463L77.9654 128.499H75.2217C74.9445 128.499 74.6973 128.644 74.5617 128.886C74.4261 129.129 74.4321 129.414 74.5757 129.651L80.8707 139.853L75.6285 148.859C75.4909 149.097 75.4889 149.38 75.6285 149.619C75.7661 149.856 76.0113 150 76.2845 150H78.8408L90.9323 129.641C91.0719 129.404 91.0739 129.119 90.9383 128.88C90.8027 128.64 90.5555 128.497 90.2803 128.497" fill="white"/>
<path d="M69.5947 129.488V130.168C68.2707 129.097 66.5978 128.507 64.869 128.507C60.7993 128.507 57.4893 131.719 57.4893 135.669C57.4893 139.619 60.7993 142.939 64.869 142.939C66.5978 142.939 68.2707 142.351 69.5947 141.278V141.958C69.5947 142.499 70.0354 142.939 70.5758 142.939H72.5777V128.507H70.5758C70.0354 128.507 69.5947 128.948 69.5947 129.488ZM64.8491 131.683C67.1481 131.683 69.0185 133.476 69.0185 135.677C69.0185 137.879 67.1082 139.777 64.8491 139.777C62.5899 139.777 60.6796 137.901 60.6796 135.677C60.6796 133.454 62.55 131.683 64.8491 131.683Z" fill="white"/>
<path d="M103.951 139.771L103.889 139.567H97.2529V123.075C97.2529 122.662 96.916 122.325 96.5032 122.325H94.6189C94.2061 122.325 93.8691 122.662 93.8691 123.075V142.921H106.214L105.656 142.419C105.644 142.409 104.423 141.296 103.953 139.773" fill="white"/>
<path d="M116.366 129.492V129.789C115.959 129.44 115.498 129.157 114.988 128.94C114.256 128.628 113.405 128.471 112.459 128.471C111.514 128.471 110.653 128.644 109.837 128.985C109.022 129.326 108.292 129.819 107.664 130.445C107.036 131.073 106.533 131.843 106.17 132.732C105.809 133.621 105.624 134.636 105.624 135.747C105.624 136.73 105.792 137.669 106.119 138.535C106.448 139.402 106.916 140.17 107.51 140.82C108.107 141.472 108.834 141.992 109.67 142.365C110.507 142.74 111.444 142.929 112.457 142.929C113.47 142.929 114.28 142.772 115.002 142.461C115.504 142.245 115.959 141.97 116.364 141.645V141.96C116.364 142.501 116.804 142.941 117.345 142.941H119.514V128.507H117.345C116.804 128.507 116.364 128.948 116.364 129.488M113.987 131.931C114.447 132.118 114.86 132.385 115.213 132.728C115.564 133.069 115.847 133.498 116.053 133.998C116.26 134.501 116.366 135.079 116.366 135.715C116.366 136.351 116.266 136.931 116.069 137.436C115.871 137.936 115.6 138.363 115.259 138.704C114.92 139.043 114.515 139.304 114.057 139.48C113.594 139.657 113.099 139.747 112.587 139.747C111.494 139.747 110.621 139.392 109.919 138.66C109.223 137.936 108.872 136.955 108.872 135.747C108.872 134.539 109.229 133.496 109.935 132.772C110.649 132.038 111.498 131.671 112.525 131.651C113.036 131.651 113.528 131.745 113.989 131.933" fill="white"/>
<path d="M129.649 139.851C129.458 139.532 129.067 139.402 128.722 139.544C128.126 139.785 127.528 139.865 126.985 139.639C126.634 139.472 126.443 139.137 126.399 138.615C126.347 138.002 126.319 137.243 126.319 136.357V131.827H129.368C129.781 131.827 130.118 131.49 130.118 131.077V129.384C130.118 128.972 129.781 128.635 129.368 128.635H126.319V124.98C126.319 124.567 125.982 124.23 125.569 124.23H123.811C123.398 124.23 123.061 124.567 123.061 124.98V128.635H122.12C121.707 128.635 121.37 128.972 121.37 129.384V131.077C121.37 131.49 121.707 131.827 122.12 131.827H123.061V136.645C123.061 137.673 123.089 138.471 123.143 139.017C123.199 139.584 123.316 140.108 123.5 140.585C123.797 141.293 124.271 141.877 124.909 142.321C125.552 142.768 126.325 142.995 127.213 142.995C127.743 142.995 128.291 142.928 128.844 142.796C129.27 142.694 129.719 142.519 130.182 142.276C130.361 142.18 130.497 142.014 130.552 141.817C130.608 141.618 130.58 141.404 130.475 141.227L129.653 139.849L129.649 139.851Z" fill="white"/>
<path d="M143.557 130.651C142.941 129.957 142.197 129.408 141.348 129.023C140.498 128.637 139.575 128.441 138.608 128.441C137.557 128.441 136.584 128.631 135.714 129.005C134.845 129.38 134.095 129.901 133.489 130.551C132.883 131.201 132.408 131.975 132.079 132.854C131.75 133.729 131.585 134.672 131.585 135.655C131.585 136.77 131.774 137.791 132.147 138.688C132.52 139.586 133.025 140.371 133.653 141.019C134.283 141.671 135.039 142.176 135.898 142.517C136.755 142.858 137.667 143.029 138.61 143.029C139.409 143.029 140.137 142.957 140.769 142.816C141.401 142.674 141.978 142.481 142.482 142.24C142.981 142 143.445 141.731 143.86 141.436C144.147 141.231 144.422 141.015 144.679 140.796C144.973 140.543 145.028 140.112 144.807 139.795L143.942 138.557C143.822 138.385 143.633 138.27 143.425 138.244C143.216 138.216 143.005 138.279 142.845 138.415C142.366 138.822 141.828 139.175 141.246 139.466C140.528 139.825 139.665 139.994 138.682 139.976C137.834 139.956 137.023 139.671 136.271 139.125C135.613 138.648 135.164 137.954 134.935 137.057H145.335L145.381 136.182C145.447 135.069 145.314 134.03 144.985 133.099C144.656 132.168 144.177 131.344 143.561 130.652M134.929 134.162C135.12 133.358 135.511 132.748 136.115 132.3C136.803 131.789 137.611 131.53 138.512 131.53C139.517 131.55 140.331 131.831 140.931 132.363C141.455 132.828 141.814 133.432 142.004 134.162H134.929Z" fill="white"/>
<path d="M155.388 128.505C154.198 128.505 153.197 128.714 152.413 129.129C151.917 129.392 151.438 129.793 150.985 130.327V129.271C150.985 128.858 150.648 128.521 150.236 128.521H148.541C148.128 128.521 147.791 128.858 147.791 129.271V142.182C147.791 142.594 148.128 142.931 148.541 142.931H150.236C150.648 142.931 150.985 142.594 150.985 142.182V137.219C150.985 136.457 151.069 135.741 151.233 135.087C151.392 134.445 151.651 133.877 152 133.4C152.437 132.802 152.89 132.385 153.344 132.166C153.897 131.899 154.585 131.763 155.388 131.763H155.677V128.505H155.388Z" fill="white"/>
<path d="M82.8559 47.0842L115.864 45.493V41.9019C115.864 38.0475 113.107 35.2818 109.703 35.7245L80.7402 39.4911C81.829 41.848 82.5588 44.4003 82.8579 47.0842H82.8559Z" fill="white"/>
<path d="M116.76 50.2867H83.0018C82.7626 63.7441 71.7458 74.6213 58.2326 74.6213C57.6523 74.6213 57.08 74.5933 56.5098 74.5555V95.0038C56.5098 99.1772 59.8936 102.561 64.067 102.561H116.758C120.612 102.561 123.737 99.4364 123.737 95.582V57.2636C123.737 53.4092 120.612 50.2847 116.758 50.2847L116.76 50.2867ZM113.602 81.6959C110.69 81.6959 108.329 79.335 108.329 76.4238C108.329 73.5126 110.69 71.1517 113.602 71.1517C116.513 71.1517 118.874 73.5126 118.874 76.4238C118.874 79.335 116.513 81.6959 113.602 81.6959Z" fill="white"/>
<path d="M58.2337 30C47.2748 30 38.3916 38.8832 38.3916 49.8421C38.3916 60.8011 47.2748 69.6843 58.2337 69.6843C69.1927 69.6843 78.0759 60.8011 78.0759 49.8421C78.0759 38.8832 69.1927 30 58.2337 30ZM70.1438 52.3406C69.8128 52.6896 69.3462 52.9029 68.8657 52.9029H58.3833C57.3325 52.9029 56.4611 52.0275 56.4611 50.9787V36.8055C56.4611 35.8025 57.3006 34.9909 58.3135 35.0448C59.2527 35.0926 59.9845 35.8823 59.9845 36.8434V49.3476H68.8278C69.7889 49.3476 70.5785 50.0914 70.6264 51.0306C70.6503 51.5191 70.4788 51.9857 70.1418 52.3406H70.1438Z" fill="white"/>
</svg>
