<svg width="180" height="180" viewBox="0 0 180 180" fill="none" xmlns="http://www.w3.org/2000/svg">
<rect width="180" height="180" rx="15" fill="white"/>
<path d="M26.7163 133.9C23.42 132.841 23.0376 131.56 23.0376 130.707C23.1067 129.176 24.5994 128.011 26.5738 127.938C28.3084 127.942 29.8205 128.396 31.3412 129.37C32.0454 129.796 32.4472 129.43 32.6892 129.119L32.7151 129.081C32.7389 129.042 32.9009 128.811 33.078 128.553L33.0953 128.532C33.402 128.093 33.4798 127.979 33.5208 127.91C33.7368 127.508 33.8643 127.033 33.1968 126.56C32.8274 126.296 31.8553 125.791 31.2699 125.559C29.6995 124.935 28.0837 124.639 26.4701 124.667C22.7157 124.749 19.7391 127.244 19.5425 130.478C19.4172 132.837 20.6074 134.734 23.0916 136.118C23.8066 136.494 26.2411 137.397 27.2909 137.704C30.1834 138.548 31.6761 140.02 31.3823 141.739C31.1166 143.294 29.3906 144.346 27.0015 144.422C25.1654 144.383 23.3379 143.722 21.7091 142.506L21.4434 142.309C21.2533 142.18 20.966 142.016 20.629 142.078C20.3871 142.126 20.1841 142.277 20.0048 142.547C19.9918 142.569 19.7931 142.869 19.5943 143.169C19.3567 143.528 19.2552 143.683 19.2033 143.761C18.7821 144.385 19.0953 144.772 19.4215 145.048C20.1193 145.61 21.0027 146.187 21.6162 146.487C23.286 147.301 25.1006 147.733 26.9972 147.772C27.1095 147.779 27.2261 147.781 27.3428 147.781C28.5395 147.781 29.9436 147.492 31.0172 147.014C33.1946 146.046 34.5836 144.158 34.8277 141.832C35.2187 138.095 32.7929 135.723 26.7142 133.904L26.7163 133.9Z" fill="#EE4D2D"/>
<path d="M46.7211 125.058H38.9964C38.411 125.058 37.9336 125.535 37.9336 126.121V146.532C37.9336 146.979 38.2987 147.344 38.7458 147.344H40.7007C41.1479 147.344 41.513 146.979 41.513 146.532V141.274H46.7211C51.1861 141.216 54.8195 137.581 54.8195 133.167C54.8195 128.754 51.1883 125.119 46.7211 125.06M51.184 133.109C51.184 134.301 50.7174 135.423 49.8663 136.269C49.0173 137.114 47.8876 137.581 46.6844 137.581H41.5108V128.64H46.6973C49.1707 128.64 51.1818 130.644 51.1818 133.109" fill="#EE4D2D"/>
<path d="M90.8044 131.707H88.0459L82.8507 140.335L77.4633 131.707H74.4909C74.1907 131.707 73.9228 131.865 73.7759 132.126C73.629 132.39 73.6355 132.698 73.791 132.956L80.6106 144.007L74.9316 153.764C74.7825 154.021 74.7804 154.328 74.9316 154.587C75.0806 154.844 75.3463 155 75.6423 155H78.4116L91.5107 132.945C91.662 132.688 91.6641 132.379 91.5172 132.12C91.3703 131.86 91.1025 131.705 90.8044 131.705" fill="#EE4D2D"/>
<path d="M68.3945 132.778V133.515C66.9602 132.355 65.1478 131.716 63.275 131.716C58.8661 131.716 55.2803 135.196 55.2803 139.475C55.2803 143.754 58.8661 147.351 63.275 147.351C65.1478 147.351 66.9602 146.713 68.3945 145.551V146.288C68.3945 146.873 68.8719 147.351 69.4573 147.351H71.6261V131.716H69.4573C68.8719 131.716 68.3945 132.193 68.3945 132.778ZM63.2534 135.157C65.744 135.157 67.7703 137.099 67.7703 139.483C67.7703 141.868 65.7008 143.925 63.2534 143.925C60.8059 143.925 58.7365 141.892 58.7365 139.483C58.7365 137.075 60.7627 135.157 63.2534 135.157Z" fill="#EE4D2D"/>
<path d="M105.614 143.918L105.547 143.698H98.3582V125.832C98.3582 125.384 97.9931 125.019 97.5459 125.019H95.5046C95.0575 125.019 94.6924 125.384 94.6924 125.832V147.331H108.066L107.461 146.787C107.448 146.776 106.126 145.571 105.616 143.921" fill="#EE4D2D"/>
<path d="M119.063 132.783V133.105C118.622 132.727 118.123 132.42 117.57 132.184C116.777 131.847 115.855 131.677 114.831 131.677C113.807 131.677 112.874 131.865 111.99 132.234C111.107 132.603 110.316 133.137 109.636 133.815C108.955 134.496 108.411 135.33 108.018 136.293C107.627 137.256 107.426 138.356 107.426 139.559C107.426 140.624 107.607 141.642 107.961 142.579C108.318 143.519 108.826 144.35 109.469 145.055C110.115 145.761 110.904 146.325 111.809 146.729C112.716 147.135 113.731 147.34 114.829 147.34C115.926 147.34 116.803 147.169 117.585 146.832C118.129 146.599 118.622 146.301 119.06 145.949V146.29C119.06 146.876 119.538 147.353 120.123 147.353H122.473V131.716H120.123C119.538 131.716 119.06 132.193 119.06 132.778M116.485 135.425C116.984 135.628 117.432 135.917 117.814 136.289C118.194 136.658 118.501 137.122 118.723 137.665C118.948 138.209 119.063 138.835 119.063 139.525C119.063 140.214 118.955 140.842 118.741 141.389C118.527 141.931 118.233 142.393 117.864 142.763C117.496 143.13 117.058 143.413 116.561 143.603C116.06 143.795 115.524 143.892 114.969 143.892C113.785 143.892 112.839 143.508 112.079 142.715C111.325 141.931 110.945 140.868 110.945 139.559C110.945 138.25 111.331 137.12 112.096 136.336C112.869 135.541 113.79 135.144 114.902 135.122C115.455 135.122 115.989 135.224 116.488 135.427" fill="#EE4D2D"/>
<path d="M133.453 144.005C133.246 143.659 132.823 143.519 132.449 143.672C131.803 143.934 131.155 144.02 130.567 143.776C130.187 143.594 129.98 143.232 129.932 142.666C129.876 142.002 129.846 141.179 129.846 140.22V135.312H133.149C133.596 135.312 133.961 134.947 133.961 134.5V132.666C133.961 132.219 133.596 131.854 133.149 131.854H129.846V127.894C129.846 127.447 129.481 127.082 129.034 127.082H127.128C126.681 127.082 126.316 127.447 126.316 127.894V131.854H125.297C124.849 131.854 124.484 132.219 124.484 132.666V134.5C124.484 134.947 124.849 135.312 125.297 135.312H126.316V140.531C126.316 141.646 126.346 142.51 126.405 143.102C126.465 143.715 126.593 144.284 126.791 144.8C127.113 145.567 127.627 146.2 128.319 146.681C129.014 147.165 129.852 147.411 130.814 147.411C131.388 147.411 131.982 147.338 132.581 147.195C133.043 147.085 133.529 146.895 134.03 146.632C134.224 146.528 134.371 146.349 134.432 146.135C134.492 145.919 134.462 145.688 134.348 145.495L133.458 144.003L133.453 144.005Z" fill="#EE4D2D"/>
<path d="M148.52 134.038C147.853 133.286 147.047 132.692 146.127 132.276C145.207 131.856 144.206 131.645 143.159 131.645C142.02 131.645 140.966 131.85 140.024 132.256C139.083 132.662 138.27 133.226 137.614 133.93C136.957 134.634 136.443 135.473 136.086 136.425C135.73 137.373 135.551 138.395 135.551 139.46C135.551 140.668 135.756 141.774 136.16 142.746C136.564 143.718 137.11 144.569 137.791 145.271C138.473 145.977 139.292 146.524 140.223 146.893C141.152 147.263 142.139 147.448 143.161 147.448C144.027 147.448 144.816 147.371 145.5 147.217C146.185 147.064 146.809 146.854 147.356 146.593C147.896 146.334 148.399 146.042 148.849 145.722C149.16 145.5 149.458 145.267 149.736 145.029C150.054 144.755 150.115 144.288 149.875 143.945L148.937 142.603C148.808 142.417 148.602 142.292 148.378 142.264C148.151 142.234 147.922 142.303 147.749 142.45C147.231 142.891 146.647 143.273 146.017 143.588C145.239 143.977 144.304 144.161 143.239 144.141C142.321 144.12 141.442 143.811 140.627 143.219C139.914 142.703 139.428 141.951 139.18 140.979H150.447L150.497 140.03C150.568 138.825 150.423 137.7 150.067 136.691C149.711 135.682 149.192 134.79 148.525 134.04M139.173 137.842C139.381 136.972 139.804 136.311 140.459 135.825C141.204 135.272 142.079 134.991 143.055 134.991C144.144 135.012 145.025 135.317 145.675 135.894C146.244 136.397 146.632 137.052 146.838 137.842H139.173Z" fill="#EE4D2D"/>
<path d="M161.337 131.714C160.047 131.714 158.963 131.94 158.114 132.39C157.576 132.675 157.057 133.109 156.567 133.688V132.543C156.567 132.096 156.202 131.731 155.755 131.731H153.919C153.472 131.731 153.106 132.096 153.106 132.543V146.53C153.106 146.977 153.472 147.342 153.919 147.342H155.755C156.202 147.342 156.567 146.977 156.567 146.53V141.153C156.567 140.328 156.658 139.553 156.835 138.844C157.008 138.149 157.289 137.533 157.667 137.017C158.14 136.369 158.63 135.917 159.122 135.68C159.721 135.39 160.466 135.243 161.337 135.243H161.65V131.714H161.337Z" fill="#EE4D2D"/>
<path d="M46.7211 125.058H38.9964C38.411 125.058 37.9336 125.535 37.9336 126.121V146.532C37.9336 146.979 38.2987 147.344 38.7458 147.344H40.7007C41.1479 147.344 41.513 146.979 41.513 146.532V141.274H46.7211C51.1861 141.216 54.8195 137.581 54.8195 133.167C54.8195 128.754 51.1883 125.119 46.7211 125.06M51.184 133.109C51.184 134.301 50.7174 135.423 49.8663 136.269C49.0173 137.114 47.8876 137.581 46.6844 137.581H41.5108V128.64H46.6973C49.1707 128.64 51.1818 130.644 51.1818 133.109" fill="#EE4D2D"/>
<path d="M90.8044 131.707H88.0459L82.8507 140.335L77.4633 131.707H74.4909C74.1907 131.707 73.9228 131.865 73.7759 132.126C73.629 132.39 73.6355 132.698 73.791 132.956L80.6106 144.007L74.9316 153.764C74.7825 154.021 74.7804 154.328 74.9316 154.587C75.0806 154.844 75.3463 155 75.6423 155H78.4116L91.5107 132.945C91.662 132.688 91.6641 132.379 91.5172 132.12C91.3703 131.86 91.1025 131.705 90.8044 131.705" fill="#EE4D2D"/>
<path d="M68.3945 132.778V133.515C66.9602 132.355 65.1478 131.716 63.275 131.716C58.8661 131.716 55.2803 135.196 55.2803 139.475C55.2803 143.754 58.8661 147.351 63.275 147.351C65.1478 147.351 66.9602 146.713 68.3945 145.551V146.288C68.3945 146.873 68.8719 147.351 69.4573 147.351H71.6261V131.716H69.4573C68.8719 131.716 68.3945 132.193 68.3945 132.778ZM63.2534 135.157C65.744 135.157 67.7703 137.099 67.7703 139.483C67.7703 141.868 65.7008 143.925 63.2534 143.925C60.8059 143.925 58.7365 141.892 58.7365 139.483C58.7365 137.075 60.7627 135.157 63.2534 135.157Z" fill="#EE4D2D"/>
<path d="M105.614 143.918L105.547 143.698H98.3582V125.832C98.3582 125.384 97.9931 125.019 97.5459 125.019H95.5046C95.0575 125.019 94.6924 125.384 94.6924 125.832V147.331H108.066L107.461 146.787C107.448 146.776 106.126 145.571 105.616 143.921" fill="#EE4D2D"/>
<path d="M119.063 132.783V133.105C118.622 132.727 118.123 132.42 117.57 132.184C116.777 131.847 115.855 131.677 114.831 131.677C113.807 131.677 112.874 131.865 111.99 132.234C111.107 132.603 110.316 133.137 109.636 133.815C108.955 134.496 108.411 135.33 108.018 136.293C107.627 137.256 107.426 138.356 107.426 139.559C107.426 140.624 107.607 141.642 107.961 142.579C108.318 143.519 108.826 144.35 109.469 145.055C110.115 145.761 110.904 146.325 111.809 146.729C112.716 147.135 113.731 147.34 114.829 147.34C115.926 147.34 116.803 147.169 117.585 146.832C118.129 146.599 118.622 146.301 119.06 145.949V146.29C119.06 146.876 119.538 147.353 120.123 147.353H122.473V131.716H120.123C119.538 131.716 119.06 132.193 119.06 132.778M116.485 135.425C116.984 135.628 117.432 135.917 117.814 136.289C118.194 136.658 118.501 137.122 118.723 137.665C118.948 138.209 119.063 138.835 119.063 139.525C119.063 140.214 118.955 140.842 118.741 141.389C118.527 141.931 118.233 142.393 117.864 142.763C117.496 143.13 117.058 143.413 116.561 143.603C116.06 143.795 115.524 143.892 114.969 143.892C113.785 143.892 112.839 143.508 112.079 142.715C111.325 141.931 110.945 140.868 110.945 139.559C110.945 138.25 111.331 137.12 112.096 136.336C112.869 135.541 113.79 135.144 114.902 135.122C115.455 135.122 115.989 135.224 116.488 135.427" fill="#EE4D2D"/>
<path d="M133.453 144.005C133.246 143.659 132.823 143.519 132.449 143.672C131.803 143.934 131.155 144.02 130.567 143.776C130.187 143.594 129.98 143.232 129.932 142.666C129.876 142.002 129.846 141.179 129.846 140.22V135.312H133.149C133.596 135.312 133.961 134.947 133.961 134.5V132.666C133.961 132.219 133.596 131.854 133.149 131.854H129.846V127.894C129.846 127.447 129.481 127.082 129.034 127.082H127.128C126.681 127.082 126.316 127.447 126.316 127.894V131.854H125.297C124.849 131.854 124.484 132.219 124.484 132.666V134.5C124.484 134.947 124.849 135.312 125.297 135.312H126.316V140.531C126.316 141.646 126.346 142.51 126.405 143.102C126.465 143.715 126.593 144.284 126.791 144.8C127.113 145.567 127.627 146.2 128.319 146.681C129.014 147.165 129.852 147.411 130.814 147.411C131.388 147.411 131.982 147.338 132.581 147.195C133.043 147.085 133.529 146.895 134.03 146.632C134.224 146.528 134.371 146.349 134.432 146.135C134.492 145.919 134.462 145.688 134.348 145.495L133.458 144.003L133.453 144.005Z" fill="#EE4D2D"/>
<path d="M148.52 134.038C147.853 133.286 147.047 132.692 146.127 132.276C145.207 131.856 144.206 131.645 143.159 131.645C142.02 131.645 140.966 131.85 140.024 132.256C139.083 132.662 138.27 133.226 137.614 133.93C136.957 134.634 136.443 135.473 136.086 136.425C135.73 137.373 135.551 138.395 135.551 139.46C135.551 140.668 135.756 141.774 136.16 142.746C136.564 143.718 137.11 144.569 137.791 145.271C138.473 145.977 139.292 146.524 140.223 146.893C141.152 147.263 142.139 147.448 143.161 147.448C144.027 147.448 144.816 147.371 145.5 147.217C146.185 147.064 146.809 146.854 147.356 146.593C147.896 146.334 148.399 146.042 148.849 145.722C149.16 145.5 149.458 145.267 149.736 145.029C150.054 144.755 150.115 144.288 149.875 143.945L148.937 142.603C148.808 142.417 148.602 142.292 148.378 142.264C148.151 142.234 147.922 142.303 147.749 142.45C147.231 142.891 146.647 143.273 146.017 143.588C145.239 143.977 144.304 144.161 143.239 144.141C142.321 144.12 141.442 143.811 140.627 143.219C139.914 142.703 139.428 141.951 139.18 140.979H150.447L150.497 140.03C150.568 138.825 150.423 137.7 150.067 136.691C149.711 135.682 149.192 134.79 148.525 134.04M139.173 137.842C139.381 136.972 139.804 136.311 140.459 135.825C141.204 135.272 142.079 134.991 143.055 134.991C144.144 135.012 145.025 135.317 145.675 135.894C146.244 136.397 146.632 137.052 146.838 137.842H139.173Z" fill="#EE4D2D"/>
<path d="M161.337 131.714C160.047 131.714 158.963 131.94 158.114 132.39C157.576 132.675 157.057 133.109 156.567 133.688V132.543C156.567 132.096 156.202 131.731 155.755 131.731H153.919C153.472 131.731 153.106 132.096 153.106 132.543V146.53C153.106 146.977 153.472 147.342 153.919 147.342H155.755C156.202 147.342 156.567 146.977 156.567 146.53V141.153C156.567 140.328 156.658 139.553 156.835 138.844C157.008 138.149 157.289 137.533 157.667 137.017C158.14 136.369 158.63 135.917 159.122 135.68C159.721 135.39 160.466 135.243 161.337 135.243H161.65V131.714H161.337Z" fill="#EE4D2D"/>
<path d="M82.7607 43.5079L118.52 41.7841V37.8937C118.52 33.7181 115.532 30.722 111.845 31.2015L80.4688 35.2821C81.6482 37.8354 82.4388 40.6003 82.7628 43.5079H82.7607Z" fill="#EE4D2D"/>
<path d="M119.49 46.9773H82.9185C82.6593 61.5561 70.7245 73.3397 56.0851 73.3397C55.4565 73.3397 54.8366 73.3095 54.2188 73.2684V95.4208C54.2188 99.942 57.8845 103.608 62.4057 103.608H119.488C123.663 103.608 127.048 100.223 127.048 96.0472V54.5356C127.048 50.3601 123.663 46.9751 119.488 46.9751L119.49 46.9773ZM116.068 81.0039C112.914 81.0039 110.357 78.4463 110.357 75.2925C110.357 72.1387 112.914 69.5811 116.068 69.5811C119.222 69.5811 121.78 72.1387 121.78 75.2925C121.78 78.4463 119.222 81.0039 116.068 81.0039Z" fill="#EE4D2D"/>
<path d="M56.0865 25C44.2143 25 34.5908 34.6235 34.5908 46.4957C34.5908 58.3678 44.2143 67.9913 56.0865 67.9913C67.9587 67.9913 77.5821 58.3678 77.5821 46.4957C77.5821 34.6235 67.9587 25 56.0865 25ZM68.9891 49.2023C68.6305 49.5803 68.125 49.8115 67.6044 49.8115H56.2485C55.1101 49.8115 54.1661 48.8632 54.1661 47.7269V32.3726C54.1661 31.286 55.0755 30.4069 56.1729 30.4652C57.1903 30.517 57.9831 31.3724 57.9831 32.4136V45.9599H67.5634C68.6045 45.9599 69.46 46.7657 69.5118 47.7831C69.5377 48.3123 69.352 48.8178 68.9869 49.2023H68.9891Z" fill="#EE4D2D"/>
</svg>
