<svg width="330" height="300" viewBox="0 0 330 300" fill="none" xmlns="http://www.w3.org/2000/svg">
<path d="M17.807 251.307C10.1999 248.864 9.31757 245.908 9.31757 243.939C9.47708 240.405 12.9217 237.718 17.478 237.549C21.4809 237.558 24.9704 238.605 28.4798 240.854C30.1049 241.836 31.0321 240.993 31.5904 240.275L31.6502 240.186C31.705 240.096 32.0789 239.562 32.4877 238.969L32.5275 238.919C33.2354 237.907 33.4149 237.643 33.5096 237.484C34.0081 236.557 34.3022 235.46 32.7618 234.368C31.9094 233.76 29.6662 232.593 28.3153 232.06C24.6912 230.619 20.9624 229.936 17.2387 230.001C8.57481 230.191 1.70553 235.948 1.2519 243.411C0.962772 248.854 3.70948 253.231 9.44219 256.427C11.0922 257.294 16.7103 259.378 19.133 260.086C25.8078 262.035 29.2524 265.429 28.5745 269.397C27.9613 272.987 23.9783 275.414 18.465 275.589C14.2278 275.499 10.0105 273.974 6.25182 271.167L5.63867 270.713C5.19999 270.414 4.53699 270.036 3.75934 270.18C3.20102 270.29 2.73243 270.639 2.31868 271.262C2.28877 271.312 1.83015 272.005 1.37153 272.697C0.823188 273.525 0.588896 273.884 0.469257 274.063C-0.50281 275.504 0.220014 276.396 0.972743 277.034C2.58289 278.331 4.62173 279.661 6.03746 280.354C9.89084 282.234 14.0782 283.231 18.455 283.32C18.7142 283.335 18.9834 283.34 19.2526 283.34C22.0143 283.34 25.2545 282.672 27.732 281.571C32.7569 279.337 35.9622 274.981 36.5255 269.612C37.4278 260.988 31.8297 255.514 17.802 251.317L17.807 251.307Z" fill="white"/>
<path d="M63.9732 230.903H46.1469C44.796 230.903 43.6943 232.005 43.6943 233.356V280.459C43.6943 281.491 44.5368 282.333 45.5687 282.333H50.0801C51.112 282.333 51.9544 281.491 51.9544 280.459V268.325H63.9732C74.2771 268.191 82.6618 259.801 82.6618 249.617C82.6618 239.433 74.2821 231.043 63.9732 230.908M74.2721 249.482C74.2721 252.234 73.1954 254.821 71.2313 256.775C69.2722 258.724 66.665 259.801 63.8884 259.801H51.9494V239.168H63.9183C69.6261 239.168 74.2671 243.794 74.2671 249.482" fill="white"/>
<path d="M165.701 246.247H159.335L147.347 266.157L134.914 246.247H128.055C127.362 246.247 126.744 246.611 126.405 247.214C126.066 247.822 126.081 248.535 126.44 249.128L142.177 274.632L129.072 297.149C128.728 297.742 128.723 298.45 129.072 299.048C129.416 299.641 130.029 300 130.712 300H137.102L167.331 249.104C167.68 248.51 167.685 247.797 167.346 247.199C167.007 246.601 166.389 246.242 165.701 246.242" fill="white"/>
<path d="M113.986 248.72V250.42C110.676 247.743 106.494 246.267 102.172 246.267C91.9977 246.267 83.7227 254.298 83.7227 264.173C83.7227 274.048 91.9977 282.348 102.172 282.348C106.494 282.348 110.676 280.878 113.986 278.196V279.896C113.986 281.247 115.088 282.348 116.439 282.348H121.444V246.267H116.439C115.088 246.267 113.986 247.369 113.986 248.72ZM102.122 254.208C107.87 254.208 112.546 258.69 112.546 264.193C112.546 269.696 107.77 274.442 102.122 274.442C96.4742 274.442 91.6986 269.751 91.6986 264.193C91.6986 258.635 96.3745 254.208 102.122 254.208Z" fill="white"/>
<path d="M199.878 274.427L199.723 273.919H183.133V232.688C183.133 231.656 182.291 230.814 181.259 230.814H176.548C175.516 230.814 174.674 231.656 174.674 232.688V282.303H205.536L204.14 281.047C204.11 281.022 201.059 278.241 199.883 274.432" fill="white"/>
<path d="M230.915 248.73V249.472C229.898 248.6 228.746 247.892 227.47 247.349C225.64 246.571 223.512 246.177 221.149 246.177C218.786 246.177 216.633 246.611 214.594 247.463C212.555 248.316 210.73 249.547 209.16 251.112C207.59 252.683 206.334 254.607 205.426 256.83C204.524 259.053 204.061 261.591 204.061 264.367C204.061 266.825 204.479 269.173 205.297 271.336C206.119 273.505 207.291 275.424 208.776 277.049C210.267 278.679 212.086 279.98 214.175 280.912C216.269 281.85 218.612 282.323 221.144 282.323C223.676 282.323 225.7 281.929 227.505 281.152C228.761 280.613 229.898 279.925 230.91 279.113V279.901C230.91 281.251 232.011 282.353 233.362 282.353H238.786V246.267H233.362C232.011 246.267 230.91 247.369 230.91 248.72M224.967 254.826C226.119 255.295 227.151 255.963 228.033 256.82C228.911 257.673 229.618 258.744 230.132 259.996C230.65 261.252 230.915 262.697 230.915 264.288C230.915 265.878 230.665 267.328 230.172 268.59C229.678 269.841 229 270.908 228.148 271.76C227.3 272.608 226.288 273.261 225.142 273.699C223.985 274.143 222.749 274.367 221.468 274.367C218.736 274.367 216.553 273.48 214.798 271.65C213.058 269.841 212.181 267.388 212.181 264.367C212.181 261.346 213.073 258.739 214.838 256.93C216.623 255.095 218.746 254.178 221.313 254.128C222.59 254.128 223.821 254.363 224.972 254.831" fill="white"/>
<path d="M264.124 274.626C263.646 273.829 262.669 273.505 261.806 273.859C260.316 274.462 258.82 274.661 257.464 274.098C256.587 273.679 256.109 272.842 255.999 271.536C255.869 270.005 255.799 268.106 255.799 265.893V254.567H263.421C264.453 254.567 265.296 253.724 265.296 252.693V248.46C265.296 247.428 264.453 246.586 263.421 246.586H255.799V237.449C255.799 236.417 254.957 235.574 253.925 235.574H249.528C248.496 235.574 247.654 236.417 247.654 237.449V246.586H245.301C244.269 246.586 243.427 247.428 243.427 248.46V252.693C243.427 253.724 244.269 254.567 245.301 254.567H247.654V266.611C247.654 269.183 247.724 271.177 247.858 272.543C247.998 273.958 248.292 275.269 248.751 276.461C249.493 278.231 250.68 279.691 252.275 280.803C253.88 281.919 255.814 282.488 258.033 282.488C259.359 282.488 260.73 282.318 262.11 281.989C263.177 281.735 264.299 281.296 265.455 280.688C265.904 280.449 266.243 280.035 266.383 279.542C266.522 279.043 266.452 278.51 266.188 278.066L264.134 274.621L264.124 274.626Z" fill="white"/>
<path d="M298.895 251.626C297.354 249.891 295.495 248.52 293.371 247.558C291.248 246.591 288.94 246.103 286.522 246.103C283.895 246.103 281.462 246.576 279.289 247.513C277.115 248.45 275.241 249.752 273.725 251.377C272.21 253.002 271.024 254.936 270.201 257.134C269.379 259.323 268.965 261.681 268.965 264.138C268.965 266.925 269.438 269.477 270.371 271.72C271.303 273.964 272.564 275.928 274.134 277.548C275.709 279.178 277.599 280.439 279.747 281.291C281.891 282.144 284.169 282.573 286.527 282.573C288.526 282.573 290.345 282.393 291.926 282.039C293.506 281.685 294.946 281.202 296.208 280.598C297.454 280 298.615 279.327 299.652 278.59C300.37 278.076 301.058 277.538 301.701 276.989C302.434 276.356 302.573 275.28 302.02 274.487L299.857 271.391C299.558 270.963 299.084 270.673 298.566 270.609C298.042 270.539 297.514 270.698 297.115 271.037C295.919 272.054 294.573 272.937 293.117 273.664C291.322 274.562 289.164 274.985 286.706 274.941C284.588 274.891 282.559 274.178 280.68 272.812C279.034 271.621 277.913 269.886 277.34 267.643H303.341L303.456 265.454C303.62 262.673 303.286 260.075 302.464 257.747C301.641 255.419 300.445 253.361 298.905 251.631M277.325 260.404C277.803 258.395 278.78 256.87 280.291 255.748C282.01 254.472 284.029 253.824 286.283 253.824C288.795 253.874 290.829 254.577 292.329 255.908C293.64 257.069 294.538 258.58 295.011 260.404H277.325Z" fill="white"/>
<path d="M328.47 246.262C325.494 246.262 322.992 246.786 321.033 247.823C319.791 248.481 318.595 249.483 317.463 250.818V248.176C317.463 247.145 316.621 246.302 315.589 246.302H311.352C310.32 246.302 309.478 247.145 309.478 248.176V280.454C309.478 281.486 310.32 282.328 311.352 282.328H315.589C316.621 282.328 317.463 281.486 317.463 280.454V268.046C317.463 266.142 317.673 264.353 318.082 262.718C318.48 261.112 319.128 259.692 320.001 258.5C321.093 257.005 322.224 255.963 323.361 255.415C324.742 254.747 326.461 254.408 328.47 254.408H329.193V246.262H328.47Z" fill="white"/>
<path d="M63.9732 230.903H46.1469C44.796 230.903 43.6943 232.005 43.6943 233.356V280.459C43.6943 281.491 44.5368 282.333 45.5687 282.333H50.0801C51.112 282.333 51.9544 281.491 51.9544 280.459V268.325H63.9732C74.2771 268.191 82.6618 259.801 82.6618 249.617C82.6618 239.433 74.2821 231.043 63.9732 230.908M74.2721 249.482C74.2721 252.234 73.1954 254.821 71.2313 256.775C69.2722 258.724 66.665 259.801 63.8884 259.801H51.9494V239.168H63.9183C69.6261 239.168 74.2671 243.794 74.2671 249.482" fill="white"/>
<path d="M165.701 246.247H159.335L147.347 266.157L134.914 246.247H128.055C127.362 246.247 126.744 246.611 126.405 247.214C126.066 247.822 126.081 248.535 126.44 249.128L142.177 274.632L129.072 297.149C128.728 297.742 128.723 298.45 129.072 299.048C129.416 299.641 130.029 300 130.712 300H137.102L167.331 249.104C167.68 248.51 167.685 247.797 167.346 247.199C167.007 246.601 166.389 246.242 165.701 246.242" fill="white"/>
<path d="M113.986 248.72V250.42C110.676 247.743 106.494 246.267 102.172 246.267C91.9977 246.267 83.7227 254.298 83.7227 264.173C83.7227 274.048 91.9977 282.348 102.172 282.348C106.494 282.348 110.676 280.878 113.986 278.196V279.896C113.986 281.247 115.088 282.348 116.439 282.348H121.444V246.267H116.439C115.088 246.267 113.986 247.369 113.986 248.72ZM102.122 254.208C107.87 254.208 112.546 258.69 112.546 264.193C112.546 269.696 107.77 274.442 102.122 274.442C96.4742 274.442 91.6986 269.751 91.6986 264.193C91.6986 258.635 96.3745 254.208 102.122 254.208Z" fill="white"/>
<path d="M199.878 274.427L199.723 273.919H183.133V232.688C183.133 231.656 182.291 230.814 181.259 230.814H176.548C175.516 230.814 174.674 231.656 174.674 232.688V282.303H205.536L204.14 281.047C204.11 281.022 201.059 278.241 199.883 274.432" fill="white"/>
<path d="M230.915 248.73V249.472C229.898 248.6 228.746 247.892 227.47 247.349C225.64 246.571 223.512 246.177 221.149 246.177C218.786 246.177 216.633 246.611 214.594 247.463C212.555 248.316 210.73 249.547 209.16 251.112C207.59 252.683 206.334 254.607 205.426 256.83C204.524 259.053 204.061 261.591 204.061 264.367C204.061 266.825 204.479 269.173 205.297 271.336C206.119 273.505 207.291 275.424 208.776 277.049C210.267 278.679 212.086 279.98 214.175 280.912C216.269 281.85 218.612 282.323 221.144 282.323C223.676 282.323 225.7 281.929 227.505 281.152C228.761 280.613 229.898 279.925 230.91 279.113V279.901C230.91 281.251 232.011 282.353 233.362 282.353H238.786V246.267H233.362C232.011 246.267 230.91 247.369 230.91 248.72M224.967 254.826C226.119 255.295 227.151 255.963 228.033 256.82C228.911 257.673 229.618 258.744 230.132 259.996C230.65 261.252 230.915 262.697 230.915 264.288C230.915 265.878 230.665 267.328 230.172 268.59C229.678 269.841 229 270.908 228.148 271.76C227.3 272.608 226.288 273.261 225.142 273.699C223.985 274.143 222.749 274.367 221.468 274.367C218.736 274.367 216.553 273.48 214.798 271.65C213.058 269.841 212.181 267.388 212.181 264.367C212.181 261.346 213.073 258.739 214.838 256.93C216.623 255.095 218.746 254.178 221.313 254.128C222.59 254.128 223.821 254.363 224.972 254.831" fill="white"/>
<path d="M264.124 274.626C263.646 273.829 262.669 273.505 261.806 273.859C260.316 274.462 258.82 274.661 257.464 274.098C256.587 273.679 256.109 272.842 255.999 271.536C255.869 270.005 255.799 268.106 255.799 265.893V254.567H263.421C264.453 254.567 265.296 253.724 265.296 252.693V248.46C265.296 247.428 264.453 246.586 263.421 246.586H255.799V237.449C255.799 236.417 254.957 235.574 253.925 235.574H249.528C248.496 235.574 247.654 236.417 247.654 237.449V246.586H245.301C244.269 246.586 243.427 247.428 243.427 248.46V252.693C243.427 253.724 244.269 254.567 245.301 254.567H247.654V266.611C247.654 269.183 247.724 271.177 247.858 272.543C247.998 273.958 248.292 275.269 248.751 276.461C249.493 278.231 250.68 279.691 252.275 280.803C253.88 281.919 255.814 282.488 258.033 282.488C259.359 282.488 260.73 282.318 262.11 281.989C263.177 281.735 264.299 281.296 265.455 280.688C265.904 280.449 266.243 280.035 266.383 279.542C266.522 279.043 266.452 278.51 266.188 278.066L264.134 274.621L264.124 274.626Z" fill="white"/>
<path d="M298.895 251.626C297.354 249.891 295.495 248.52 293.371 247.558C291.248 246.591 288.94 246.103 286.522 246.103C283.895 246.103 281.462 246.576 279.289 247.513C277.115 248.45 275.241 249.752 273.725 251.377C272.21 253.002 271.024 254.936 270.201 257.134C269.379 259.323 268.965 261.681 268.965 264.138C268.965 266.925 269.438 269.477 270.371 271.72C271.303 273.964 272.564 275.928 274.134 277.548C275.709 279.178 277.599 280.439 279.747 281.291C281.891 282.144 284.169 282.573 286.527 282.573C288.526 282.573 290.345 282.393 291.926 282.039C293.506 281.685 294.946 281.202 296.208 280.598C297.454 280 298.615 279.327 299.652 278.59C300.37 278.076 301.058 277.538 301.701 276.989C302.434 276.356 302.573 275.28 302.02 274.487L299.857 271.391C299.558 270.963 299.084 270.673 298.566 270.609C298.042 270.539 297.514 270.698 297.115 271.037C295.919 272.054 294.573 272.937 293.117 273.664C291.322 274.562 289.164 274.985 286.706 274.941C284.588 274.891 282.559 274.178 280.68 272.812C279.034 271.621 277.913 269.886 277.34 267.643H303.341L303.456 265.454C303.62 262.673 303.286 260.075 302.464 257.747C301.641 255.419 300.445 253.361 298.905 251.631M277.325 260.404C277.803 258.395 278.78 256.87 280.291 255.748C282.01 254.472 284.029 253.824 286.283 253.824C288.795 253.874 290.829 254.577 292.329 255.908C293.64 257.069 294.538 258.58 295.011 260.404H277.325Z" fill="white"/>
<path d="M328.47 246.262C325.494 246.262 322.992 246.786 321.033 247.823C319.791 248.481 318.595 249.483 317.463 250.818V248.176C317.463 247.145 316.621 246.302 315.589 246.302H311.352C310.32 246.302 309.478 247.145 309.478 248.176V280.454C309.478 281.486 310.32 282.328 311.352 282.328H315.589C316.621 282.328 317.463 281.486 317.463 280.454V268.046C317.463 266.142 317.673 264.353 318.082 262.718C318.48 261.112 319.128 259.692 320.001 258.5C321.093 257.005 322.224 255.963 323.361 255.415C324.742 254.747 326.461 254.408 328.47 254.408H329.193V246.262H328.47Z" fill="white"/>
<path d="M147.142 42.7112L229.663 38.7332V29.7553C229.663 20.1194 222.768 13.2052 214.259 14.3119L141.853 23.7285C144.574 29.6207 146.399 36.0014 147.147 42.7112H147.142Z" fill="white"/>
<path d="M231.901 50.7169H147.506C146.907 84.3604 119.365 111.553 85.5824 111.553C84.1318 111.553 82.7011 111.484 81.2754 111.389V162.51C81.2754 172.943 89.7349 181.403 100.168 181.403H231.896C241.532 181.403 249.343 173.591 249.343 163.955V68.1593C249.343 58.5234 241.532 50.7119 231.896 50.7119L231.901 50.7169ZM224.005 129.24C216.727 129.24 210.825 123.338 210.825 116.06C210.825 108.782 216.727 102.88 224.005 102.88C231.283 102.88 237.185 108.782 237.185 116.06C237.185 123.338 231.283 129.24 224.005 129.24Z" fill="white"/>
<path d="M85.5829 0C58.1855 0 35.9775 22.208 35.9775 49.6054C35.9775 77.0027 58.1855 99.2107 85.5829 99.2107C112.98 99.2107 135.188 77.0027 135.188 49.6054C135.188 22.208 112.98 0 85.5829 0ZM115.358 55.8515C114.531 56.7239 113.364 57.2573 112.163 57.2573H85.9568C83.3297 57.2573 81.1513 55.0689 81.1513 52.4468V17.0137C81.1513 14.5063 83.2499 12.4774 85.7823 12.612C88.1302 12.7316 89.9597 14.7056 89.9597 17.1084V48.3691H112.068C114.471 48.3691 116.445 50.2285 116.564 52.5764C116.624 53.7977 116.196 54.9642 115.353 55.8515H115.358Z" fill="white"/>
</svg>
