<svg width="790" height="97" viewBox="0 0 790 97" fill="none" xmlns="http://www.w3.org/2000/svg">
<path d="M48.21 29.0972C48.21 43.912 38.353 52.912 22.5672 52.912H11.1168V74.4676H0V6.13428H22.5672C38.6124 6.13428 48.21 14.6898 48.21 29.0972ZM37.0931 29.0972C37.0931 21.1343 31.6829 16.3935 23.2341 16.3935H11.1909V42.6528H23.2341C25.0557 42.7694 26.8814 42.5005 28.5919 41.8639C30.3024 41.2268 31.8591 40.2365 33.1603 38.9568C34.4614 37.6772 35.4776 36.1377 36.1426 34.4387C36.8075 32.7397 37.1061 30.9195 37.019 29.0972H37.0931Z" fill="black"/>
<path d="M78.8167 21.2963C94.862 21.2963 105.127 31.6296 105.127 47.7779V74.4446H94.4914V65.7038H94.0097C92.589 68.8816 90.2303 71.5494 87.2499 73.3497C84.2695 75.1505 80.8099 75.9975 77.3345 75.7779C62.512 75.7779 52.5439 64.889 52.5439 48.6297C52.5439 32.3703 63.179 21.2963 78.8167 21.2963ZM78.8167 65.4075C87.636 65.4075 94.3061 58.6668 94.195 48.1483C94.195 38.6668 88.2289 31.6296 78.8167 31.6296C69.4045 31.6296 63.6237 38.2964 63.6237 48.4446C63.6237 58.5927 69.6268 65.3335 78.8167 65.4075Z" fill="black"/>
<path d="M134.405 86.6657C144.261 86.6657 149.598 81.5546 149.412 72.1471V66.4805H148.931C147.713 69.2697 145.647 71.6045 143.026 73.1538C140.405 74.7027 137.363 75.3871 134.33 75.1101C121.694 75.1101 113.542 66.5546 113.542 52.8879V22.8877H124.436V51.3694C124.436 59.8879 128.624 64.5542 136.331 64.5542C144.039 64.5542 149.042 59.5171 149.042 50.9986V22.8877H159.936V72.8134C159.936 87.9246 150.561 96.9249 134.812 96.9249C128.503 97.0731 122.31 95.2046 117.136 91.5916V81.369H117.433C122.424 84.8094 128.342 86.656 134.405 86.6657Z" fill="black"/>
<path d="M212.441 74.4676H170.197V6.13428H181.314V64.2083H212.478L212.441 74.4676Z" fill="black"/>
<path d="M240.934 21.2963C256.979 21.2963 267.207 31.6296 267.207 47.7779V74.4446H256.683V65.7038H256.201C254.794 68.889 252.446 71.5683 249.472 73.3823C246.498 75.196 243.041 76.0579 239.563 75.852C224.74 75.852 214.81 64.9631 214.81 48.7038C214.81 32.4444 225.37 21.2963 240.934 21.2963ZM240.934 65.4075C249.753 65.4075 256.386 58.6668 256.312 48.1483C256.312 38.6668 250.309 31.6296 240.934 31.6296C231.559 31.6296 225.741 38.2964 225.741 48.4446C225.741 58.5927 231.818 65.3335 240.934 65.4075Z" fill="black"/>
<path d="M305.273 63.6331V73.9664C301.923 74.8612 298.475 75.3338 295.008 75.3738C285.892 75.3738 280.853 70.3738 280.853 61.1516V33.1516H272.145V23.0034H280.853V11.8923H291.97V23.0034H304.309V33.1516H291.97V59.0775C291.939 59.8109 292.059 60.5423 292.322 61.2271C292.586 61.9123 292.987 62.536 293.501 63.0601C294.015 63.5842 294.631 63.9975 295.311 64.2742C295.99 64.5512 296.72 64.686 297.454 64.6701C300.088 64.5842 302.707 64.2368 305.273 63.6331Z" fill="black"/>
<path d="M360.03 52.8324H322.715C324.234 61.2769 330.608 65.425 340.835 65.425C347.046 65.5839 353.183 64.0472 358.585 60.9806L358.882 61.2769V71.1287C353.055 74.5606 346.373 76.2687 339.613 76.0546C320.529 76.0546 311.228 64.388 311.228 47.9806C311.228 31.573 322.344 21.4989 336.685 21.4989C351.026 21.4989 360.401 30.9804 360.401 46.832C360.408 48.838 360.284 50.8424 360.03 52.8324ZM349.581 43.7209C349.603 42.0365 349.271 40.3661 348.607 38.8176C347.942 37.2691 346.96 35.8774 345.724 34.7324C344.487 33.5873 343.024 32.7144 341.429 32.1702C339.833 31.626 338.141 31.4225 336.463 31.573C333.013 31.3782 329.624 32.5401 327.02 34.8103C324.417 37.0805 322.805 40.2787 322.53 43.7209H349.581Z" fill="black"/>
<path d="M380.788 45.2297V74.452H369.895V44.0816C369.895 29.0074 377.305 21.3037 391.831 21.3037C395.077 21.2229 398.304 21.8025 401.317 23.0074V33.1555C398.627 32.2204 395.796 31.7446 392.942 31.7481C385.086 31.7481 380.788 36.4889 380.788 45.2297Z" fill="black"/>
<path d="M460.493 75.7976C445.114 75.7976 434.294 65.1679 434.294 46.6864V0.723389H445.188V30.353H445.67C447.267 27.4927 449.635 25.1386 452.503 23.5601C455.375 21.9817 458.632 21.2424 461.901 21.4271C476.056 21.4271 486.765 32.2419 486.765 48.6494C486.765 65.0568 475.649 75.7976 460.493 75.7976ZM460.493 31.5752C452.044 31.5752 445.114 37.1679 445.114 47.9087C445.114 58.6494 451.488 65.4642 460.307 65.4642C469.127 65.4642 475.797 58.6124 475.797 48.0938C475.797 37.5753 469.386 31.6493 460.493 31.6493V31.5752Z" fill="black"/>
<path d="M515.298 86.6657C525.192 86.6657 530.491 81.5546 530.306 72.1471V66.4805H529.861C528.627 69.3049 526.526 71.6638 523.862 73.2153C521.193 74.7668 518.107 75.4305 515.038 75.1101C502.402 75.1101 494.25 66.5546 494.25 52.8879V22.8877H505.367V51.3694C505.367 59.8879 509.517 64.5542 517.225 64.5542C524.932 64.5542 529.935 59.5171 529.935 50.9986V22.8877H540.867V72.8134C540.867 87.9246 531.454 96.9249 515.705 96.9249C509.395 97.0731 503.203 95.2046 498.03 91.5916V81.369H498.326C503.318 84.8094 509.236 86.656 515.298 86.6657Z" fill="black"/>
<path d="M591.16 71.3335C585.79 68.2901 581.355 63.832 578.338 58.4446C575.211 52.8472 573.61 46.5231 573.706 40.1113C573.643 33.8131 575.285 27.6152 578.464 22.1762C581.64 16.7373 586.235 12.2606 591.753 9.22221C597.418 6.07614 603.803 4.45525 610.281 4.51851C617.814 4.21095 625.251 6.27044 631.551 10.4074V16C628.723 13.9485 625.529 12.4528 622.139 11.5926C618.274 10.5646 614.283 10.0662 610.281 10.1111C604.867 10.055 599.534 11.4352 594.828 14.1111C590.215 16.6864 586.372 20.4481 583.7 25.0065C581.032 29.5649 579.628 34.7543 579.635 40.0372C579.569 45.4357 580.91 50.7587 583.526 55.4816C586.013 60.095 589.718 63.9383 594.235 66.5927C598.856 69.2427 604.103 70.6109 609.428 70.5557C612.726 70.7379 616.028 70.262 619.141 69.1553C622.25 68.049 625.11 66.3342 627.549 64.1113C629.824 61.795 631.592 59.032 632.74 55.9968C633.889 52.962 634.393 49.7216 634.219 46.4816V41.2594H610.095V35.7407H639.518V45.5187C639.625 51.1827 638.354 56.7879 635.812 61.852C633.474 66.3512 629.831 70.042 625.362 72.4446C620.43 75.0183 614.92 76.2931 609.354 76.1483C602.969 76.1924 596.688 74.5301 591.16 71.3335ZM595.792 63.9261C591.716 61.5609 588.358 58.129 586.083 54.0001C583.641 49.7524 582.363 44.9361 582.377 40.0372C582.325 35.2034 583.608 30.4491 586.083 26.2963C588.518 22.1921 591.997 18.8056 596.162 16.4815C600.431 14.047 605.259 12.7702 610.169 12.7778C614.06 12.7604 617.929 13.3094 621.657 14.4074C625.144 15.3685 628.449 16.895 631.44 18.9259V24.3333L631.069 24.6296C628.056 22.6925 624.773 21.2075 621.323 20.2222C617.81 19.1923 614.168 18.6807 610.503 18.7037C606.616 18.6542 602.784 19.6248 599.386 21.5185C596.14 23.3317 593.45 25.995 591.604 29.2222C589.726 32.6196 588.766 36.4505 588.825 40.3335C588.755 44.2661 589.644 48.1568 591.419 51.6668C593.09 54.9005 595.666 57.5775 598.83 59.3705C602.084 61.2461 605.786 62.2061 609.539 62.1483C612.363 62.1968 615.168 61.6542 617.766 60.5557C620.026 59.6357 622.005 58.142 623.51 56.2224C624.858 54.4272 625.585 52.2438 625.585 50.0001H610.207V44.2964H631.477V48.0001C631.536 51.6198 630.587 55.1838 628.735 58.2964C626.863 61.309 624.177 63.7346 620.99 65.2964C617.432 67.0387 613.504 67.9024 609.539 67.815C604.696 67.8216 599.942 66.5024 595.792 64.0001V63.9261ZM646.41 31.8518C648.337 28.1383 651.317 25.0729 654.97 23.037C658.917 20.9066 663.349 19.8347 667.829 19.9259C672.639 19.7539 677.371 21.1445 681.317 23.8889C679.987 25.022 678.745 26.2605 677.611 27.5926C676.378 26.784 674.992 26.23 673.535 25.963C671.768 25.5248 669.952 25.301 668.125 25.2963C664.642 25.2285 661.203 26.0847 658.157 27.7778C655.281 29.3884 652.925 31.7927 651.376 34.7037C649.719 37.825 648.889 41.319 648.967 44.852V74.2594H643.372V44.9261C643.301 40.4087 644.346 35.9438 646.41 31.926V31.8518ZM653.821 36.1852C655.17 33.6866 657.186 31.6099 659.639 30.1852C662.218 28.7443 665.135 28.0156 668.088 28.0741C670.856 28.097 673.565 28.8509 675.944 30.2593C675.04 31.7918 674.225 33.3746 673.498 35C671.783 34.1581 669.893 33.727 667.977 33.7407C666.55 33.6894 665.127 33.9436 663.804 34.4865C662.481 35.0295 661.288 35.8485 660.306 36.8889C658.287 39.109 657.22 42.0368 657.342 45.0372V74.3705H651.709V45.0372C651.657 41.9838 652.373 38.9664 653.784 36.2593L653.821 36.1852ZM687.728 72.4816C683.622 70.1935 680.235 66.8079 677.945 62.7038C675.566 58.372 674.354 53.4968 674.425 48.5557C674.414 43.3868 675.688 38.2957 678.13 33.7407C680.42 29.4053 683.855 25.7801 688.061 23.2593C692.297 20.7497 697.147 19.4673 702.068 19.5555C706.938 19.5319 711.722 20.8107 715.927 23.2593C720.004 25.5866 723.346 29.0135 725.562 33.1481C727.893 37.4694 729.079 42.3142 729.008 47.2224V74.7409H723.339V47.3335C723.391 43.4516 722.435 39.6235 720.559 36.2222C718.862 32.9903 716.298 30.2964 713.148 28.4444C709.769 26.5101 705.926 25.5367 702.031 25.6296C698.118 25.5734 694.268 26.6126 690.915 28.6296C687.602 30.6093 684.919 33.4855 683.17 36.9259C681.261 40.6475 680.294 44.7809 680.354 48.9631C680.283 52.9057 681.243 56.799 683.133 60.2594C684.915 63.5075 687.572 66.1901 690.803 68.0001C694.213 69.8601 698.041 70.8164 701.92 70.7779C705.555 70.9713 709.146 69.8979 712.074 67.7409V73.3335C710.714 74.362 709.183 75.1513 707.553 75.6668C705.722 76.1801 703.825 76.4172 701.92 76.3705C696.925 76.3624 692.023 75.0472 687.691 72.5557L687.728 72.4816ZM711.258 37.4075C710.061 36.1203 708.601 35.1041 706.978 34.4271C705.355 33.75 703.606 33.4275 701.846 33.4815C700.049 33.4325 698.259 33.7901 696.618 34.5275C694.976 35.265 693.52 36.3633 692.36 37.7409C689.825 40.8042 688.506 44.6935 688.654 48.6668C688.573 50.4516 688.858 52.235 689.495 53.9046C690.133 55.5742 691.111 57.0942 692.36 58.3705C693.657 59.6146 695.195 60.5842 696.873 61.2205C698.556 61.8572 700.349 62.1476 702.143 62.0742C704.018 62.089 705.878 61.8142 707.664 61.2594C709.246 60.8235 710.725 60.0672 712 59.0372V64.6668C709.046 66.7705 705.474 67.8383 701.846 67.7038C698.389 67.7768 694.969 66.9605 691.915 65.3335C689.084 63.7738 686.75 61.4513 685.171 58.6298C683.533 55.5953 682.703 52.1894 682.762 48.7409C682.692 45.0072 683.518 41.3113 685.171 37.9631C686.701 34.9018 689.066 32.3343 691.989 30.5555C694.95 28.8944 698.289 28.0218 701.679 28.0218C705.074 28.0218 708.412 28.8944 711.37 30.5555C714.175 32.1954 716.48 34.5632 718.04 37.4075C719.674 40.4316 720.504 43.8235 720.448 47.2594V74.5927H714.853V47.5557C714.949 45.7194 714.675 43.8831 714.052 42.1535C713.43 40.4238 712.466 38.8357 711.221 37.4816L711.258 37.4075ZM747.24 71.3705C743.064 68.5557 739.895 64.4809 738.198 59.7409L742.2 54.3335C742.834 57.3487 744.183 60.1683 746.128 62.5557C748.151 64.9864 750.682 66.9461 753.539 68.2964C756.433 69.6753 759.602 70.3842 762.803 70.3705C766.613 70.4242 770.355 69.3827 773.587 67.3705C776.736 65.3575 779.293 62.5457 780.998 59.2224C782.847 55.6664 783.788 51.7101 783.74 47.7038C783.807 43.6509 782.84 39.6479 780.924 36.0741C779.167 32.7343 776.51 29.9511 773.253 28.037C769.896 26.0404 766.046 25.0266 762.136 25.1111C758.086 25.0352 754.099 26.1282 750.649 28.2593C746.703 30.9425 743.212 34.2441 740.31 38.0372C738.717 39.9261 735.752 43.815 731.38 49.7038V41.3335C734.53 36.7778 737.309 33.1481 739.643 30.2222C742.315 27.257 745.457 24.7541 748.944 22.8148C752.935 20.453 757.504 19.2476 762.136 19.3333C766.961 19.2516 771.712 20.506 775.866 22.9574C780.02 25.4088 783.41 28.9617 785.667 33.2222C787.957 37.6801 789.15 42.619 789.15 47.6298C789.15 52.6405 787.957 57.579 785.667 62.0372C783.444 66.2316 780.127 69.7498 776.069 72.2224C771.941 74.7261 767.187 76.0101 762.359 75.9261C756.963 76.0442 751.668 74.4775 747.203 71.4446L747.24 71.3705ZM753.725 65.1483C751.142 63.5935 748.937 61.4801 747.277 58.9631C745.765 56.752 744.802 54.2131 744.461 51.5557L748.833 45.5927H749.019V46.4446C749.004 49.092 749.615 51.7057 750.797 54.0742C751.894 56.3753 753.584 58.3435 755.689 59.7779C757.753 61.1813 760.198 61.9183 762.692 61.889C764.419 61.9464 766.135 61.6131 767.713 60.9142C769.292 60.215 770.693 59.1683 771.808 57.852C774.287 55.0031 775.61 51.3298 775.514 47.5557C775.629 43.8453 774.302 40.235 771.808 37.4816C770.63 36.1536 769.17 35.103 767.539 34.405C765.905 33.7071 764.137 33.379 762.359 33.4444C760.258 33.4081 758.175 33.8647 756.282 34.7778C754.521 35.6705 752.921 36.8467 751.538 38.2594C750.167 39.7409 748.314 41.9631 746.054 44.5187C745.276 45.5557 744.683 46.2964 744.238 46.815C738.976 53.1483 734.826 58.5927 731.713 63.2224V54.1113L738.272 45.4075L741.496 41.2224C744.253 37.2094 747.703 33.7222 751.687 30.9259C754.899 28.8443 758.646 27.7379 762.47 27.7407C765.857 27.6969 769.188 28.5808 772.104 30.2963C774.976 31.99 777.311 34.4536 778.849 37.4075C780.472 40.5427 781.298 44.0268 781.257 47.5557C781.298 51.1079 780.472 54.6161 778.849 57.7779C777.344 60.7272 775.065 63.2113 772.253 64.9631C769.433 66.7194 766.168 67.632 762.84 67.5927C759.628 67.7016 756.448 66.8783 753.688 65.2224L753.725 65.1483ZM740.681 0V25.3333C738.643 27.3829 736.738 29.5601 734.974 31.8518V0H740.681ZM749.019 0V19.6296C746.962 20.5424 745.068 21.7944 743.423 23.3333V0.111107L749.019 0Z" fill="#00B14F"/>
</svg>
