<svg width="800" height="150" viewBox="0 0 800 150" fill="none" xmlns="http://www.w3.org/2000/svg">
<rect width="800" height="150" rx="15" fill="white"/>
<path d="M113.788 66.0143C113.788 78.2411 105.653 85.669 92.6249 85.669H83.1748V103.459H74V47.0627H92.6249C105.867 47.0627 113.788 54.1237 113.788 66.0143ZM104.613 66.0143C104.613 59.4424 100.148 55.5298 93.1754 55.5298H83.236V77.2019H93.1754C94.6787 77.2982 96.1856 77.0762 97.5972 76.5508C99.0089 76.025 100.294 75.2077 101.368 74.1516C102.441 73.0955 103.28 71.8249 103.829 70.4227C104.378 69.0205 104.624 67.5183 104.552 66.0143H104.613Z" fill="black"/>
<path d="M139.048 59.576C152.291 59.576 160.762 68.1043 160.762 81.4316V103.44H151.985V96.2261H151.587C150.415 98.8488 148.468 101.051 146.008 102.536C143.549 104.023 140.693 104.722 137.825 104.54C125.592 104.54 117.365 95.5536 117.365 82.1347C117.365 68.7156 126.142 59.576 139.048 59.576ZM139.048 95.9816C146.327 95.9816 151.832 90.4184 151.74 81.7373C151.74 73.9121 146.816 68.1043 139.048 68.1043C131.28 68.1043 126.509 73.6065 126.509 81.9819C126.509 90.3572 131.464 95.9204 139.048 95.9816Z" fill="black"/>
<path d="M184.925 113.526C193.06 113.526 197.464 109.308 197.311 101.544V96.8671H196.914C195.909 99.1692 194.204 101.096 192.041 102.375C189.878 103.653 187.367 104.218 184.864 103.989C174.435 103.989 167.707 96.9283 167.707 85.649V60.8895H176.698V84.3958C176.698 91.4262 180.154 95.2774 186.515 95.2774C192.877 95.2774 197.005 91.1202 197.005 84.0898V60.8895H205.997V102.094C205.997 114.565 198.259 121.993 185.262 121.993C180.054 122.116 174.944 120.573 170.674 117.592V109.155H170.918C175.038 111.994 179.921 113.518 184.925 113.526Z" fill="black"/>
<path d="M249.33 103.459H214.466V47.0627H223.641V94.9919H249.361L249.33 103.459Z" fill="black"/>
<path d="M272.846 59.576C286.088 59.576 294.529 68.1043 294.529 81.4316V103.44H285.843V96.2261H285.446C284.285 98.8549 282.347 101.066 279.893 102.563C277.438 104.06 274.585 104.771 271.714 104.602C259.481 104.602 251.285 95.6148 251.285 82.1958C251.285 68.7767 260.001 59.576 272.846 59.576ZM272.846 95.9816C280.124 95.9816 285.599 90.4184 285.538 81.7373C285.538 73.9121 280.583 68.1043 272.846 68.1043C265.108 68.1043 260.307 73.6065 260.307 81.9819C260.307 90.3572 265.322 95.9204 272.846 95.9816Z" fill="black"/>
<path d="M325.946 94.5172V103.045C323.181 103.784 320.335 104.174 317.474 104.207C309.951 104.207 305.791 100.08 305.791 92.4692V69.3605H298.604V60.9851H305.791V51.8149H314.966V60.9851H325.15V69.3605H314.966V90.7574C314.941 91.3626 315.04 91.9664 315.257 92.5315C315.475 93.097 315.806 93.6118 316.23 94.0443C316.654 94.4768 317.162 94.818 317.724 95.0463C318.285 95.2749 318.887 95.3862 319.493 95.3731C321.667 95.3021 323.828 95.0154 325.946 94.5172Z" fill="black"/>
<path d="M371.137 85.6032H340.34C341.594 92.5725 346.854 95.996 355.295 95.996C360.421 96.1271 365.486 94.8589 369.944 92.328L370.189 92.5725V100.703C365.38 103.536 359.865 104.945 354.286 104.769C338.536 104.769 330.859 95.1401 330.859 81.5989C330.859 68.0576 340.034 59.7433 351.87 59.7433C363.705 59.7433 371.443 67.5685 371.443 80.651C371.448 82.3065 371.346 83.9608 371.137 85.6032ZM362.513 78.0834C362.531 76.6932 362.257 75.3146 361.709 74.0366C361.161 72.7586 360.35 71.61 359.33 70.665C358.309 69.72 357.101 68.9996 355.785 68.5504C354.468 68.1013 353.072 67.9333 351.686 68.0575C348.839 67.8968 346.042 68.8557 343.893 70.7293C341.744 72.6029 340.414 75.2425 340.187 78.0834H362.513Z" fill="black"/>
<path d="M388.269 79.3286V103.446H379.278V78.381C379.278 65.9401 385.394 59.5822 397.382 59.5822C400.061 59.5155 402.725 59.9939 405.212 60.9883V69.3636C402.991 68.5918 400.655 68.1992 398.3 68.2021C391.816 68.2021 388.269 72.1147 388.269 79.3286Z" fill="black"/>
<path d="M454.05 104.557C441.358 104.557 432.428 95.7839 432.428 80.5309V42.597H441.419V67.0507H441.817C443.135 64.69 445.089 62.7472 447.456 61.4445C449.826 60.1417 452.515 59.5317 455.212 59.684C466.895 59.684 475.733 68.6096 475.733 82.1509C475.733 95.6922 466.558 104.557 454.05 104.557ZM454.05 68.0594C447.077 68.0594 441.358 72.6751 441.358 81.5396C441.358 90.4041 446.618 96.0284 453.897 96.0284C461.176 96.0284 466.68 90.3735 466.68 81.6924C466.68 73.0114 461.39 68.1206 454.05 68.1206V68.0594Z" fill="black"/>
<path d="M499.281 113.526C507.447 113.526 511.82 109.308 511.667 101.544V96.8671H511.3C510.282 99.1982 508.548 101.145 506.349 102.425C504.147 103.706 501.599 104.254 499.067 103.989C488.638 103.989 481.91 96.9283 481.91 85.649V60.8895H491.085V84.3958C491.085 91.4262 494.51 95.2774 500.871 95.2774C507.233 95.2774 511.361 91.1202 511.361 84.0898V60.8895H520.383V102.094C520.383 114.565 512.615 121.993 499.618 121.993C494.409 122.116 489.299 120.573 485.03 117.592V109.155H485.274C489.394 111.994 494.278 113.518 499.281 113.526Z" fill="black"/>
<path d="M561.891 100.872C557.46 98.3606 553.799 94.6813 551.31 90.235C548.728 85.6154 547.407 80.3961 547.487 75.1043C547.435 69.9063 548.79 64.7911 551.414 60.3023C554.035 55.8135 557.827 52.1188 562.381 49.6112C567.057 47.0147 572.326 45.677 577.672 45.7292C583.889 45.4753 590.027 47.1751 595.227 50.5893V55.205C592.893 53.5118 590.257 52.2774 587.459 51.5675C584.269 50.7191 580.975 50.3078 577.672 50.3448C573.204 50.2985 568.803 51.4376 564.919 53.6461C561.111 55.7715 557.94 58.8761 555.735 62.6382C553.533 66.4003 552.374 70.6831 552.38 75.0431C552.325 79.4986 553.432 83.8917 555.591 87.7896C557.643 91.5971 560.702 94.769 564.43 96.9598C568.243 99.1468 572.574 100.276 576.969 100.23C579.69 100.381 582.415 99.988 584.984 99.0747C587.55 98.1617 589.911 96.7464 591.924 94.9118C593.801 93.0001 595.26 90.7198 596.208 88.2148C597.156 85.7101 597.572 83.0358 597.429 80.3618V76.0519H577.519V71.4972H601.802V79.5671C601.891 84.2417 600.842 88.8677 598.744 93.0472C596.814 96.7605 593.808 99.8065 590.119 101.789C586.049 103.913 581.501 104.966 576.907 104.846C571.638 104.882 566.454 103.511 561.891 100.872ZM565.714 94.7589C562.35 92.8069 559.579 89.9746 557.701 86.5669C555.686 83.0612 554.631 79.0863 554.643 75.0431C554.6 71.0538 555.659 67.13 557.701 63.7026C559.711 60.3154 562.582 57.5205 566.02 55.6023C569.543 53.5932 573.528 52.5394 577.58 52.5456C580.791 52.5313 583.984 52.9844 587.061 53.8906C589.939 54.6838 592.667 55.9436 595.135 57.6198V62.0826L594.829 62.3271C592.343 60.7284 589.633 59.5028 586.786 58.6896C583.886 57.8396 580.88 57.4174 577.856 57.4364C574.647 57.3955 571.485 58.1965 568.681 59.7595C566.002 61.2559 563.781 63.454 562.258 66.1174C560.708 68.9214 559.916 72.0831 559.965 75.2877C559.906 78.5333 560.64 81.7444 562.105 84.6412C563.485 87.31 565.61 89.5194 568.222 90.9992C570.907 92.5471 573.962 93.3394 577.06 93.2917C579.391 93.3317 581.706 92.8839 583.85 91.9773C585.715 91.218 587.348 89.9853 588.59 88.401C589.703 86.9194 590.303 85.1174 590.303 83.2657H577.611V78.5584H595.165V81.6151C595.214 84.6024 594.431 87.5439 592.902 90.1127C591.358 92.5991 589.141 94.6009 586.51 95.8899C583.574 97.3278 580.333 98.0406 577.06 97.9685C573.063 97.974 569.139 96.8852 565.714 94.8201V94.7589ZM607.49 68.2877C609.081 65.2229 611.539 62.693 614.555 61.0127C617.812 59.2544 621.47 58.3698 625.167 58.4451C629.137 58.3031 633.042 59.4508 636.299 61.7158C635.201 62.6509 634.177 63.6731 633.241 64.7725C632.223 64.1051 631.079 63.6479 629.877 63.4275C628.418 63.0659 626.92 62.8812 625.412 62.8773C622.537 62.8214 619.699 63.528 617.185 64.9253C614.812 66.2546 612.867 68.2389 611.588 70.6414C610.221 73.2174 609.536 76.1011 609.6 79.0169V103.287H604.982V79.078C604.924 75.3497 605.787 71.6648 607.49 68.3489V68.2877ZM613.607 71.864C614.72 69.802 616.384 68.088 618.408 66.9122C620.537 65.723 622.944 65.1216 625.381 65.1699C627.666 65.1888 629.901 65.811 631.865 66.9733C631.119 68.2381 630.446 69.5444 629.846 70.8859C628.43 70.1911 626.871 69.8353 625.289 69.8466C624.112 69.8042 622.938 70.0141 621.846 70.4621C620.754 70.9102 619.769 71.5862 618.959 72.4448C617.292 74.2771 616.411 76.6935 616.512 79.1697V103.379H611.864V79.1697C611.821 76.6497 612.411 74.1595 613.576 71.9252L613.607 71.864ZM641.59 101.82C638.202 99.9315 635.406 97.1373 633.516 93.7502C631.553 90.1751 630.553 86.1515 630.611 82.0736C630.602 77.8076 631.654 73.6059 633.669 69.8466C635.559 66.2685 638.394 63.2766 641.865 61.1961C645.361 59.125 649.364 58.0666 653.426 58.1394C657.444 58.1199 661.392 59.1753 664.864 61.1961C668.228 63.1169 670.986 65.9452 672.815 69.3575C674.739 72.9239 675.717 76.9224 675.659 80.9732V103.685H670.98V81.0649C671.023 77.8611 670.234 74.7017 668.686 71.8946C667.286 69.2272 665.169 67.004 662.57 65.4755C659.781 63.8791 656.609 63.0758 653.395 63.1524C650.166 63.1061 646.988 63.9637 644.22 65.6284C641.486 67.2622 639.272 69.636 637.828 72.4754C636.253 75.5469 635.455 78.9582 635.504 82.4098C635.446 85.6637 636.238 88.8769 637.798 91.7328C639.269 94.4135 641.462 96.6275 644.128 98.1213C646.942 99.6564 650.101 100.446 653.303 100.414C656.303 100.573 659.267 99.6876 661.683 97.9073V102.523C660.561 103.372 659.298 104.023 657.952 104.449C656.441 104.872 654.875 105.068 653.303 105.029C649.181 105.023 645.135 103.937 641.559 101.881L641.59 101.82ZM661.01 72.8729C660.022 71.8105 658.817 70.9719 657.478 70.4131C656.138 69.8542 654.695 69.5881 653.242 69.6326C651.759 69.5923 650.282 69.8873 648.927 70.496C647.572 71.1046 646.37 72.0111 645.413 73.148C643.321 75.6762 642.232 78.886 642.355 82.1653C642.287 83.6383 642.523 85.1101 643.049 86.4881C643.575 87.866 644.382 89.1205 645.413 90.1739C646.483 91.2006 647.753 92.0009 649.138 92.526C650.526 93.0514 652.007 93.2911 653.487 93.2306C655.034 93.2428 656.57 93.016 658.044 92.5581C659.35 92.1983 660.57 91.5741 661.622 90.7241V95.3703C659.184 97.1065 656.236 97.9877 653.242 97.8768C650.389 97.937 647.566 97.2633 645.046 95.9205C642.709 94.6333 640.783 92.7164 639.48 90.3878C638.128 87.8835 637.443 85.0725 637.492 82.2264C637.434 79.1449 638.116 76.0947 639.48 73.3314C640.743 70.8049 642.694 68.6859 645.107 67.2178C647.551 65.8468 650.306 65.1268 653.105 65.1268C655.906 65.1268 658.661 65.8468 661.102 67.2178C663.417 68.5712 665.319 70.5254 666.607 72.8729C667.956 75.3687 668.641 78.168 668.595 81.0037V103.562H663.977V81.2483C664.056 79.7327 663.83 78.2172 663.316 76.7897C662.802 75.3623 662.007 74.0515 660.98 72.934L661.01 72.8729ZM690.706 100.903C687.259 98.5798 684.645 95.2168 683.244 91.3048L686.547 86.842C687.07 89.3305 688.183 91.6576 689.789 93.6279C691.458 95.6341 693.547 97.2514 695.905 98.3658C698.294 99.5038 700.908 100.089 703.551 100.078C706.695 100.122 709.784 99.2624 712.45 97.6017C715.05 95.9403 717.16 93.6197 718.567 90.8769C720.093 87.9422 720.87 84.677 720.83 81.3705C720.885 78.0256 720.087 74.7219 718.506 71.7723C717.056 69.016 714.863 66.719 712.175 65.1393C709.404 63.4915 706.227 62.6548 703 62.7245C699.658 62.6618 696.367 63.5639 693.52 65.3227C690.263 67.5372 687.382 70.262 684.987 73.3925C683.672 74.9514 681.225 78.161 677.617 83.0212V76.113C680.216 72.3531 682.51 69.3575 684.437 66.9427C686.642 64.4955 689.235 62.4298 692.113 60.8293C695.407 58.8801 699.178 57.8853 703 57.956C706.982 57.8886 710.903 58.9238 714.331 60.947C717.76 62.9702 720.558 65.9024 722.42 69.4187C724.31 73.0979 725.295 77.174 725.295 81.3094C725.295 85.4448 724.31 89.5206 722.42 93.2C720.585 96.6617 717.848 99.5653 714.5 101.606C711.093 103.672 707.169 104.732 703.184 104.663C698.731 104.76 694.361 103.467 690.676 100.964L690.706 100.903ZM696.058 95.7676C693.926 94.4844 692.107 92.7403 690.737 90.6629C689.489 88.8381 688.694 86.7427 688.412 84.5495L692.021 79.6282H692.174V80.3312C692.162 82.5162 692.666 84.6733 693.642 86.6281C694.547 88.5272 695.942 90.1515 697.679 91.3354C699.382 92.4936 701.401 93.1019 703.459 93.0777C704.884 93.1251 706.3 92.85 707.603 92.2732C708.906 91.6961 710.062 90.8323 710.982 89.7459C713.028 87.3947 714.12 84.3631 714.041 81.2483C714.136 78.1861 713.041 75.2064 710.982 72.934C710.01 71.838 708.805 70.9709 707.459 70.3949C706.111 69.8188 704.652 69.5481 703.184 69.6021C701.45 69.5721 699.731 69.949 698.168 70.7025C696.716 71.4393 695.394 72.41 694.254 73.5759C693.122 74.7986 691.593 76.6326 689.727 78.7418C689.085 79.5976 688.596 80.209 688.229 80.6369C683.886 85.8639 680.461 90.3573 677.892 94.1781V86.6586L683.305 79.4754L685.966 76.0213C688.241 72.7093 691.088 69.8313 694.376 67.5235C697.028 65.8056 700.119 64.8924 703.276 64.8947C706.071 64.8586 708.82 65.588 711.227 67.0039C713.597 68.4017 715.524 70.4349 716.793 72.8729C718.133 75.4604 718.815 78.3358 718.781 81.2483C718.815 84.18 718.133 87.0753 716.793 89.6848C715.552 92.1188 713.671 94.169 711.349 95.6148C709.022 97.0643 706.328 97.8175 703.581 97.7851C700.93 97.8749 698.306 97.1954 696.028 95.8288L696.058 95.7676ZM685.293 42V62.9079C683.611 64.5994 682.039 66.3963 680.583 68.2877V42H685.293ZM692.174 42V58.2006C690.477 58.9539 688.914 59.9871 687.556 61.2573V42.0917L692.174 42Z" fill="#00B14F"/>
</svg>
