<svg width="180" height="180" viewBox="0 0 180 180" fill="none" xmlns="http://www.w3.org/2000/svg">
<rect width="180" height="180" rx="15" fill="white"/>
<path d="M86.3156 117.93L72.183 99.775C70.0892 97.0679 66.4776 93.5164 66.4776 89.9649C66.4776 86.4134 70.0631 82.8371 72.183 80.0307L86.3156 61.8511C86.8752 61.1173 87.5353 60.4575 88.2785 59.8891V38.9775C88.2785 22.1638 80.8719 17.9418 71.8166 29.5648L41.2744 68.805C36.7468 74.6414 29 82.2907 29 89.9649C29 97.6391 36.8514 105.288 41.2744 111.125L71.7642 150.241C80.8196 161.864 88.2261 157.692 88.2261 140.853V119.917C87.4707 119.351 86.809 118.682 86.2633 117.93" fill="#0E86C8"/>
<path d="M146.195 68.8052L115.706 29.6643C106.65 18.0165 99.2437 22.2137 99.2437 39.077V59.9886C99.9841 60.552 100.636 61.2127 101.18 61.9506L115.339 80.1302C117.459 82.8373 121.045 86.4136 121.045 90.0644C121.045 93.7152 117.459 97.1674 115.339 99.8745L101.18 118.029C100.635 118.781 99.9835 119.458 99.2437 120.041V140.953C99.2437 157.791 106.65 161.963 115.706 150.34L146.195 111.224C150.723 105.363 158.47 97.689 158.47 90.0396C158.47 82.3902 150.618 74.7409 146.195 68.9045" fill="#252C57"/>
</svg>
