<svg width="180" height="180" viewBox="0 0 180 180" fill="none" xmlns="http://www.w3.org/2000/svg">
<circle cx="90" cy="90" r="90" fill="white"/>
<path d="M82.3156 117.93L68.183 99.775C66.0892 97.0679 62.4776 93.5164 62.4776 89.9649C62.4776 86.4134 66.0631 82.8371 68.183 80.0307L82.3156 61.8511C82.8752 61.1173 83.5353 60.4575 84.2785 59.8891V38.9775C84.2785 22.1638 76.8719 17.9418 67.8166 29.5648L37.2744 68.805C32.7468 74.6414 25 82.2907 25 89.9649C25 97.6391 32.8514 105.288 37.2744 111.125L67.7642 150.241C76.8196 161.864 84.2261 157.692 84.2261 140.853V119.917C83.4707 119.351 82.809 118.682 82.2633 117.93" fill="#0E86C8"/>
<path d="M142.195 68.8052L111.706 29.6643C102.65 18.0165 95.2437 22.2137 95.2437 39.077V59.9886C95.9841 60.552 96.6362 61.2127 97.1803 61.9506L111.339 80.1302C113.459 82.8373 117.045 86.4136 117.045 90.0644C117.045 93.7152 113.459 97.1674 111.339 99.8745L97.1803 118.029C96.6352 118.781 95.9835 119.458 95.2437 120.041V140.953C95.2437 157.791 102.65 161.963 111.706 150.34L142.195 111.224C146.723 105.363 154.47 97.689 154.47 90.0396C154.47 82.3902 146.618 74.7409 142.195 68.9045" fill="#252C57"/>
</svg>
