<svg width="180" height="180" viewBox="0 0 180 180" fill="none" xmlns="http://www.w3.org/2000/svg">
<rect width="180" height="180" rx="15" fill="white"/>
<path d="M9.9097 121.824C9.89584 121.121 10.0251 120.424 10.2897 119.774C10.508 119.188 10.8489 118.656 11.2897 118.214C11.7585 117.777 12.3091 117.437 12.9097 117.214C14.2285 116.76 15.6609 116.76 16.9797 117.214C17.5774 117.437 18.1247 117.777 18.5897 118.214C19.0628 118.65 19.4377 119.181 19.6897 119.774C20.1963 121.093 20.1963 122.554 19.6897 123.874C19.4467 124.455 19.0844 124.979 18.6262 125.411C18.168 125.843 17.6241 126.175 17.0297 126.384C15.7132 126.85 14.2762 126.85 12.9597 126.384C12.3569 126.165 11.8055 125.824 11.3397 125.384C10.9011 124.939 10.5604 124.408 10.3397 123.824C10.0751 123.173 9.94584 122.476 9.9597 121.774M12.1097 121.774C12.1051 122.19 12.1763 122.603 12.3197 122.994C12.4474 123.363 12.6481 123.703 12.9097 123.994C13.1727 124.266 13.4894 124.48 13.8397 124.624C14.6137 124.93 15.4757 124.93 16.2497 124.624C16.585 124.473 16.8857 124.254 17.1334 123.983C17.3811 123.711 17.5704 123.391 17.6897 123.044C17.9697 122.258 17.9697 121.399 17.6897 120.614C17.5688 120.241 17.3673 119.9 17.0997 119.614C16.8422 119.339 16.5283 119.125 16.1797 118.984C15.4057 118.677 14.5437 118.677 13.7697 118.984C13.4194 119.127 13.1027 119.341 12.8397 119.614C12.5798 119.905 12.3794 120.245 12.2497 120.614C12.1073 121.001 12.0361 121.411 12.0397 121.824" fill="#252C57"/>
<path d="M21.23 120.063H23.15V120.943C23.2195 120.809 23.3069 120.684 23.41 120.573C23.5317 120.442 23.6735 120.33 23.83 120.243C24.0002 120.14 24.1813 120.056 24.37 119.993C24.588 119.932 24.8135 119.901 25.04 119.903C25.4599 119.886 25.8779 119.968 26.26 120.143C26.5588 120.283 26.8119 120.505 26.99 120.783C27.1723 121.09 27.2913 121.43 27.34 121.783C27.4016 122.183 27.4317 122.588 27.43 122.993V126.563H25.43V123.383C25.43 123.203 25.43 123.003 25.43 122.803C25.4113 122.616 25.3711 122.431 25.31 122.253C25.2441 122.092 25.1373 121.95 25 121.843C24.8273 121.724 24.6191 121.668 24.41 121.683C24.1915 121.675 23.9746 121.723 23.78 121.823C23.6268 121.909 23.5018 122.038 23.42 122.193C23.3307 122.358 23.2731 122.537 23.25 122.723C23.2394 122.926 23.2394 123.13 23.25 123.333V126.553H21.25L21.23 120.063Z" fill="#252C57"/>
<path d="M30.8999 116.473H28.8999V126.533H30.8999V116.473Z" fill="#252C57"/>
<path d="M32.2 118.034C32.196 117.881 32.2242 117.729 32.2828 117.587C32.3414 117.446 32.429 117.319 32.54 117.214C32.7576 116.996 33.0525 116.874 33.36 116.874C33.6676 116.874 33.9625 116.996 34.18 117.214C34.2891 117.32 34.3755 117.448 34.4339 117.589C34.4924 117.73 34.5217 117.881 34.52 118.034C34.5221 118.266 34.454 118.494 34.3248 118.688C34.1956 118.881 34.0112 119.031 33.7955 119.119C33.5798 119.206 33.3429 119.227 33.1154 119.177C32.888 119.128 32.6805 119.012 32.52 118.844C32.4093 118.74 32.3217 118.615 32.2631 118.475C32.2045 118.335 32.1762 118.185 32.18 118.034M32.34 120.034H34.34V126.504H32.34V120.034Z" fill="#252C57"/>
<path d="M35.7998 120.063H37.6898V120.943C37.7596 120.806 37.8508 120.681 37.9598 120.573C38.0758 120.44 38.2146 120.328 38.3698 120.243C38.54 120.14 38.7211 120.056 38.9098 119.993C39.1278 119.932 39.3534 119.901 39.5798 119.903C39.9997 119.886 40.4177 119.968 40.7998 120.143C41.0986 120.283 41.3517 120.505 41.5298 120.783C41.7121 121.09 41.8311 121.43 41.8798 121.783C41.945 122.183 41.9784 122.588 41.9798 122.993V126.563H39.9798V123.383C39.9798 123.203 39.9798 123.003 39.9798 122.803C39.9708 122.614 39.9303 122.428 39.8598 122.253C39.794 122.092 39.6871 121.95 39.5498 121.843C39.3771 121.724 39.169 121.668 38.9598 121.683C38.7413 121.675 38.5244 121.723 38.3298 121.823C38.1766 121.909 38.0516 122.038 37.9698 122.193C37.8806 122.358 37.8229 122.537 37.7998 122.723C37.7892 122.926 37.7892 123.13 37.7998 123.333V126.553H35.7998V120.063Z" fill="#252C57"/>
<path d="M49.5598 125.383C49.2412 125.795 48.8255 126.121 48.3498 126.333C47.8725 126.55 47.3542 126.663 46.8298 126.663C46.3526 126.667 45.8784 126.586 45.4298 126.423C45.0061 126.273 44.6155 126.042 44.2798 125.743C43.9542 125.44 43.6953 125.072 43.5198 124.663C43.3266 124.226 43.231 123.751 43.2398 123.273C43.2309 122.792 43.3264 122.314 43.5198 121.873C43.6955 121.467 43.9544 121.103 44.2798 120.803C44.6124 120.498 45.0037 120.263 45.4298 120.113C45.8784 119.95 46.3526 119.869 46.8298 119.873C47.2617 119.868 47.6902 119.95 48.0898 120.113C48.4721 120.263 48.8144 120.499 49.0898 120.803C49.3591 121.116 49.5631 121.48 49.6898 121.873C49.8389 122.325 49.9132 122.798 49.9098 123.273V123.893H45.2298C45.2961 124.246 45.4792 124.567 45.7498 124.803C46.0072 125.001 46.3176 125.118 46.6416 125.14C46.9656 125.161 47.2887 125.086 47.5698 124.923C47.7992 124.774 47.9992 124.585 48.1598 124.363L49.5598 125.383ZM47.8698 122.533C47.8771 122.375 47.8515 122.217 47.7947 122.069C47.7379 121.921 47.6511 121.786 47.5398 121.673C47.3053 121.469 47.0002 121.365 46.6898 121.383C46.4907 121.376 46.2926 121.414 46.1098 121.493C45.9515 121.557 45.8059 121.648 45.6798 121.763C45.5584 121.871 45.4627 122.004 45.3998 122.153C45.3298 122.294 45.289 122.447 45.2798 122.603L47.8698 122.533Z" fill="#252C57"/>
<path d="M55.27 117.113H58.78C59.1913 117.115 59.602 117.142 60.01 117.193C60.4004 117.246 60.779 117.364 61.13 117.543C61.4515 117.715 61.7235 117.966 61.92 118.273C62.1441 118.643 62.2521 119.071 62.23 119.503C62.2457 119.986 62.0858 120.459 61.78 120.833C61.4713 121.192 61.0647 121.453 60.61 121.583C60.9032 121.62 61.1876 121.708 61.45 121.843C61.6966 121.963 61.9174 122.129 62.1 122.333C62.2867 122.535 62.4296 122.774 62.52 123.033C62.6216 123.305 62.6725 123.593 62.67 123.883C62.6851 124.319 62.574 124.749 62.35 125.123C62.1424 125.453 61.8618 125.73 61.53 125.933C61.1762 126.14 60.7912 126.289 60.39 126.373C59.9758 126.461 59.5534 126.505 59.13 126.503H55.27V117.113ZM57.35 120.873H58.85C59.0082 120.877 59.1662 120.86 59.32 120.823C59.4701 120.796 59.6129 120.738 59.74 120.653C59.8666 120.575 59.9701 120.465 60.04 120.333C60.1206 120.187 60.1587 120.02 60.15 119.853C60.157 119.682 60.1154 119.512 60.03 119.363C59.944 119.24 59.8312 119.137 59.7 119.063C59.559 118.99 59.4071 118.939 59.25 118.913C59.0885 118.882 58.9245 118.866 58.76 118.863H57.35V120.873ZM57.35 124.773H59.21C59.3694 124.793 59.5306 124.793 59.69 124.773C59.85 124.742 60.0027 124.681 60.14 124.593C60.272 124.499 60.3841 124.381 60.47 124.243C60.5541 124.083 60.5955 123.904 60.59 123.723C60.5996 123.53 60.5432 123.34 60.43 123.183C60.3199 123.045 60.175 122.938 60.01 122.873C59.8335 122.801 59.6488 122.751 59.46 122.723C59.2803 122.709 59.0997 122.709 58.92 122.723H57.35V124.773Z" fill="#252C57"/>
<path d="M67.6898 125.723C67.474 126.056 67.1642 126.317 66.7998 126.473C66.4278 126.622 66.0304 126.697 65.6298 126.693C65.3348 126.696 65.0412 126.652 64.7598 126.563C64.4909 126.485 64.2396 126.356 64.0198 126.183C63.8061 126.019 63.6347 125.807 63.5198 125.563C63.3869 125.293 63.3217 124.994 63.3298 124.693C63.3221 124.367 63.3942 124.045 63.5398 123.753C63.6733 123.499 63.8652 123.279 64.0998 123.113C64.3419 122.938 64.6126 122.806 64.8998 122.723C65.2068 122.627 65.5212 122.557 65.8398 122.513C66.1598 122.513 66.4898 122.443 66.8398 122.433H67.7398C67.7461 122.272 67.715 122.111 67.6491 121.964C67.5832 121.816 67.4842 121.686 67.3598 121.583C67.1052 121.378 66.7868 121.268 66.4598 121.273C66.1504 121.269 65.8448 121.341 65.5698 121.483C65.2897 121.616 65.0409 121.807 64.8398 122.043L63.6898 120.943C64.0713 120.6 64.5164 120.335 64.9998 120.163C65.4952 119.992 66.0156 119.904 66.5398 119.903C67.0322 119.891 67.523 119.966 67.9898 120.123C68.3431 120.254 68.6542 120.479 68.8898 120.773C69.125 121.064 69.2863 121.407 69.3598 121.773C69.4574 122.243 69.5043 122.723 69.4998 123.203V126.493H67.6898V125.723ZM67.1998 123.723C67.0498 123.723 66.8598 123.723 66.6298 123.723C66.4096 123.735 66.1914 123.771 65.9798 123.833C65.7851 123.887 65.6043 123.983 65.4498 124.113C65.3752 124.177 65.3164 124.257 65.2783 124.347C65.2401 124.437 65.2235 124.535 65.2298 124.633C65.2245 124.741 65.2499 124.848 65.303 124.942C65.3561 125.035 65.4348 125.112 65.5298 125.163C65.7239 125.276 65.945 125.335 66.1698 125.333C66.3628 125.337 66.5553 125.31 66.7398 125.253C66.9123 125.202 67.0771 125.128 67.2298 125.033C67.3704 124.937 67.484 124.806 67.5598 124.653C67.6514 124.492 67.6964 124.308 67.6898 124.123V123.703L67.1998 123.723Z" fill="#252C57"/>
<path d="M70.79 120.063H72.69V120.943C72.7599 120.806 72.851 120.682 72.96 120.573C73.076 120.44 73.2149 120.328 73.37 120.243C73.5428 120.138 73.7274 120.054 73.92 119.993C74.1345 119.931 74.3568 119.901 74.58 119.903C75.0032 119.885 75.4247 119.968 75.81 120.143C76.1058 120.284 76.3555 120.506 76.53 120.783C76.7168 121.088 76.8362 121.429 76.88 121.783C76.9501 122.183 76.9836 122.588 76.98 122.993V126.563H74.98V123.383C74.98 123.203 74.98 123.003 74.98 122.803C74.9711 122.615 74.9305 122.429 74.86 122.253C74.7974 122.07 74.6741 121.913 74.5104 121.81C74.3467 121.706 74.1526 121.662 73.96 121.683C73.7447 121.675 73.531 121.724 73.34 121.823C73.1842 121.909 73.0559 122.037 72.97 122.193C72.8853 122.36 72.8279 122.539 72.8 122.723C72.7896 122.926 72.7896 123.13 72.8 123.333V126.553H70.8L70.79 120.063Z" fill="#252C57"/>
<path d="M78.4302 116.473H80.4302V122.623L82.6402 120.063H85.0802L82.5102 122.983L85.1502 126.533H82.6402L80.4502 123.263H80.4302V126.533H78.4302V116.473Z" fill="#252C57"/>
<path d="M85.6898 118.033C85.6858 117.881 85.714 117.728 85.7726 117.587C85.8312 117.446 85.9188 117.319 86.0298 117.213C86.1331 117.103 86.2587 117.015 86.3983 116.956C86.538 116.898 86.6884 116.87 86.8398 116.873C87.1475 116.873 87.4425 116.996 87.6601 117.213C87.8776 117.431 87.9998 117.726 87.9998 118.033C88.0037 118.185 87.9754 118.335 87.9168 118.475C87.8582 118.615 87.7706 118.74 87.6598 118.843C87.5547 118.954 87.4273 119.042 87.286 119.101C87.1447 119.159 86.9927 119.187 86.8398 119.183C86.5356 119.181 86.2446 119.059 86.0295 118.844C85.8144 118.629 85.6924 118.338 85.6898 118.033ZM85.8498 120.033H87.8498V126.503H85.8498V120.033Z" fill="#252C57"/>
<path d="M89.29 120.063H91.21V120.943C91.2833 120.809 91.3741 120.684 91.48 120.573C91.596 120.44 91.7349 120.328 91.89 120.243C92.0628 120.138 92.2474 120.054 92.44 119.993C92.6545 119.931 92.8768 119.901 93.1 119.903C93.5232 119.885 93.9446 119.968 94.33 120.143C94.6258 120.284 94.8755 120.506 95.05 120.783C95.2356 121.089 95.358 121.429 95.41 121.783C95.4717 122.184 95.5018 122.588 95.5 122.993V126.563H93.5V123.383C93.5 123.203 93.5 123.003 93.5 122.803C93.4911 122.615 93.4505 122.429 93.38 122.253C93.3174 122.07 93.1941 121.913 93.0304 121.81C92.8667 121.706 92.6725 121.662 92.48 121.683C92.2648 121.676 92.0513 121.724 91.86 121.823C91.706 121.912 91.5783 122.039 91.49 122.193C91.4041 122.358 91.3498 122.538 91.33 122.723C91.3145 122.926 91.3145 123.13 91.33 123.333V126.553H89.33L89.29 120.063Z" fill="#252C57"/>
<path d="M103.69 125.993C103.726 126.495 103.663 126.999 103.503 127.476C103.343 127.953 103.091 128.394 102.76 128.773C102.386 129.125 101.943 129.395 101.46 129.567C100.976 129.739 100.462 129.809 99.95 129.773C99.3742 129.772 98.8005 129.705 98.24 129.573C97.6772 129.441 97.1511 129.185 96.7 128.823L97.8 127.173C98.1023 127.424 98.4391 127.629 98.8 127.783C99.1565 127.938 99.5414 128.016 99.93 128.013C100.174 128.034 100.419 128.005 100.651 127.927C100.883 127.85 101.097 127.726 101.28 127.563C101.427 127.406 101.539 127.22 101.61 127.017C101.681 126.813 101.708 126.598 101.69 126.383V125.763C101.47 126.058 101.172 126.287 100.83 126.423C100.511 126.548 100.172 126.612 99.83 126.613C99.384 126.621 98.9413 126.536 98.53 126.363C98.1508 126.208 97.8097 125.973 97.53 125.673C97.2453 125.368 97.0273 125.007 96.89 124.613C96.5966 123.775 96.5966 122.862 96.89 122.023C97.0142 121.63 97.2109 121.264 97.47 120.943C97.7235 120.63 98.0405 120.375 98.4 120.193C98.7831 119.996 99.2091 119.896 99.64 119.903C99.9034 119.899 100.166 119.933 100.42 120.003C100.639 120.059 100.85 120.139 101.05 120.243C101.222 120.33 101.384 120.437 101.53 120.563C101.65 120.668 101.754 120.789 101.84 120.923V120.063H103.69V125.993ZM98.69 123.263C98.6892 123.469 98.73 123.673 98.81 123.863C98.8887 124.054 99.0043 124.227 99.15 124.373C99.2928 124.521 99.4626 124.639 99.65 124.723C99.8476 124.813 100.063 124.858 100.28 124.853C100.497 124.857 100.712 124.812 100.91 124.723C101.099 124.637 101.272 124.519 101.42 124.373C101.566 124.227 101.681 124.054 101.76 123.863C101.84 123.673 101.881 123.469 101.88 123.263C101.881 123.054 101.84 122.847 101.76 122.653C101.684 122.464 101.568 122.294 101.42 122.153C101.272 122.005 101.099 121.883 100.91 121.793C100.712 121.704 100.497 121.66 100.28 121.663C100.063 121.659 99.8476 121.703 99.65 121.793C99.4621 121.881 99.2924 122.003 99.15 122.153C99.0023 122.294 98.8864 122.464 98.81 122.653C98.73 122.847 98.6892 123.054 98.69 123.263Z" fill="#252C57"/>
<path d="M109.51 117.113H113.01C113.473 117.109 113.935 117.152 114.39 117.243C114.797 117.318 115.185 117.474 115.53 117.703C115.859 117.924 116.124 118.228 116.3 118.583C116.506 119.017 116.606 119.493 116.59 119.973C116.605 120.448 116.513 120.919 116.32 121.353C116.16 121.712 115.908 122.022 115.59 122.253C115.257 122.479 114.883 122.639 114.49 122.723C114.033 122.818 113.567 122.865 113.1 122.863H111.58V126.533H109.51V117.113ZM111.58 121.113H112.97C113.151 121.111 113.331 121.095 113.51 121.063C113.672 121.028 113.827 120.967 113.97 120.883C114.11 120.796 114.227 120.676 114.31 120.533C114.396 120.363 114.437 120.174 114.43 119.983C114.437 119.778 114.381 119.575 114.27 119.403C114.157 119.255 114.009 119.138 113.84 119.063C113.657 118.979 113.46 118.928 113.26 118.913C113.05 118.913 112.85 118.913 112.65 118.913H111.58V121.113Z" fill="#252C57"/>
<path d="M121.69 125.723C121.482 126.059 121.174 126.321 120.81 126.473C120.438 126.622 120.041 126.697 119.64 126.693C119.345 126.696 119.051 126.652 118.77 126.563C118.501 126.485 118.25 126.356 118.03 126.183C117.816 126.019 117.645 125.807 117.53 125.563C117.397 125.293 117.332 124.994 117.34 124.693C117.332 124.367 117.404 124.045 117.55 123.753C117.684 123.499 117.875 123.279 118.11 123.113C118.352 122.938 118.623 122.806 118.91 122.723C119.217 122.627 119.531 122.557 119.85 122.513C120.17 122.513 120.5 122.443 120.85 122.433H121.75C121.756 122.272 121.725 122.111 121.659 121.964C121.593 121.816 121.494 121.686 121.37 121.583C121.115 121.378 120.797 121.268 120.47 121.273C120.158 121.272 119.85 121.344 119.57 121.483C119.295 121.619 119.05 121.81 118.85 122.043L117.69 120.943C118.072 120.6 118.517 120.335 119 120.163C119.495 119.991 120.016 119.903 120.54 119.903C121.033 119.891 121.523 119.966 121.99 120.123C122.343 120.254 122.654 120.479 122.89 120.773C123.125 121.064 123.287 121.407 123.36 121.773C123.458 122.243 123.505 122.723 123.5 123.203V126.493H121.69V125.723ZM121.2 123.723C121.05 123.723 120.86 123.723 120.63 123.723C120.41 123.734 120.192 123.771 119.98 123.833C119.785 123.887 119.605 123.983 119.45 124.113C119.375 124.177 119.317 124.257 119.279 124.347C119.24 124.437 119.224 124.535 119.23 124.633C119.225 124.741 119.25 124.848 119.303 124.942C119.356 125.035 119.435 125.112 119.53 125.163C119.724 125.276 119.945 125.335 120.17 125.333C120.363 125.337 120.556 125.31 120.74 125.253C120.913 125.202 121.077 125.128 121.23 125.033C121.371 124.937 121.484 124.806 121.56 124.653C121.652 124.492 121.697 124.308 121.69 124.123V123.703L121.2 123.723Z" fill="#252C57"/>
<path d="M128.52 127.583C128.38 127.933 128.25 128.233 128.13 128.503C128.016 128.754 127.857 128.981 127.66 129.173C127.449 129.364 127.201 129.507 126.93 129.593C126.552 129.697 126.162 129.744 125.77 129.733C125.264 129.734 124.761 129.653 124.28 129.493L124.55 127.853C124.843 127.984 125.16 128.052 125.48 128.053C125.663 128.06 125.845 128.037 126.02 127.983C126.157 127.943 126.282 127.867 126.38 127.763C126.478 127.666 126.556 127.551 126.61 127.423C126.67 127.293 126.74 127.143 126.81 126.963L126.96 126.583L124.12 120.063H126.28L127.94 124.343L129.36 120.063H131.41L128.52 127.583Z" fill="#252C57"/>
<path d="M132.19 120.063H134.11V120.943C134.18 120.806 134.271 120.681 134.38 120.573C134.498 120.442 134.637 120.33 134.79 120.243C134.963 120.138 135.147 120.054 135.34 119.993C135.554 119.931 135.777 119.901 136 119.903C136.42 119.893 136.837 119.989 137.21 120.183C137.565 120.379 137.843 120.689 138 121.063C138.187 120.691 138.479 120.382 138.84 120.173C139.214 119.983 139.63 119.89 140.05 119.903C140.428 119.896 140.804 119.971 141.15 120.123C141.43 120.262 141.67 120.468 141.85 120.723C142.034 120.992 142.163 121.294 142.23 121.613C142.303 121.975 142.34 122.344 142.34 122.713V126.533H140.34V122.773C140.351 122.5 140.285 122.23 140.15 121.993C140.077 121.88 139.973 121.789 139.852 121.731C139.73 121.672 139.594 121.649 139.46 121.663C139.261 121.659 139.064 121.697 138.88 121.773C138.732 121.848 138.605 121.957 138.51 122.093C138.414 122.232 138.346 122.388 138.31 122.553C138.27 122.737 138.25 122.925 138.25 123.113V126.533H136.25V123.113C136.25 123.003 136.25 122.853 136.25 122.693C136.241 122.53 136.211 122.368 136.16 122.213C136.111 122.062 136.021 121.927 135.9 121.823C135.75 121.705 135.56 121.648 135.37 121.663C135.155 121.656 134.941 121.704 134.75 121.803C134.596 121.891 134.468 122.019 134.38 122.173C134.295 122.34 134.238 122.518 134.21 122.703C134.199 122.906 134.199 123.11 134.21 123.313V126.533H132.21L132.19 120.063Z" fill="#252C57"/>
<path d="M149.89 125.383C149.58 125.812 149.168 126.156 148.69 126.383C148.213 126.601 147.694 126.714 147.17 126.713C146.693 126.716 146.219 126.634 145.77 126.473C145.347 126.321 144.957 126.09 144.62 125.793C144.297 125.487 144.039 125.12 143.86 124.713C143.667 124.276 143.571 123.801 143.58 123.323C143.565 122.864 143.646 122.408 143.818 121.982C143.99 121.557 144.25 121.172 144.58 120.853C144.914 120.55 145.305 120.315 145.73 120.163C146.179 120.002 146.653 119.921 147.13 119.923C147.562 119.917 147.991 119.998 148.39 120.163C148.774 120.31 149.117 120.547 149.39 120.853C149.659 121.168 149.866 121.531 150 121.923C150.145 122.375 150.216 122.848 150.21 123.323V123.943H145.58C145.642 124.298 145.826 124.62 146.1 124.853C146.378 125.09 146.735 125.212 147.1 125.193C147.393 125.205 147.682 125.129 147.93 124.973C148.163 124.829 148.364 124.638 148.52 124.413L149.89 125.383ZM148.2 122.533C148.207 122.375 148.182 122.217 148.125 122.069C148.068 121.921 147.981 121.786 147.87 121.673C147.755 121.554 147.617 121.461 147.463 121.399C147.31 121.337 147.145 121.307 146.98 121.313C146.778 121.306 146.576 121.344 146.39 121.423C146.232 121.487 146.086 121.578 145.96 121.693C145.842 121.803 145.746 121.936 145.68 122.083C145.613 122.224 145.576 122.377 145.57 122.533H148.2Z" fill="#252C57"/>
<path d="M151.41 120.063H153.33V120.943C153.4 120.806 153.491 120.682 153.6 120.573C153.716 120.44 153.855 120.328 154.01 120.243C154.183 120.138 154.368 120.054 154.56 119.993C154.775 119.931 154.997 119.901 155.22 119.903C155.643 119.885 156.065 119.968 156.45 120.143C156.746 120.284 156.996 120.506 157.17 120.783C157.356 121.089 157.478 121.429 157.53 121.783C157.592 122.184 157.622 122.588 157.62 122.993V126.563H155.62V123.383C155.62 123.203 155.62 123.003 155.62 122.803C155.611 122.615 155.571 122.429 155.5 122.253C155.438 122.07 155.314 121.913 155.151 121.81C154.987 121.706 154.793 121.662 154.6 121.683C154.385 121.675 154.171 121.724 153.98 121.823C153.824 121.909 153.696 122.037 153.61 122.193C153.524 122.358 153.47 122.538 153.45 122.723C153.435 122.926 153.435 123.13 153.45 123.333V126.553H151.45L151.41 120.063Z" fill="#252C57"/>
<path d="M163.46 121.663H161.69V123.823C161.69 123.993 161.69 124.163 161.69 124.303C161.706 124.436 161.746 124.565 161.81 124.683C161.877 124.796 161.979 124.884 162.1 124.933C162.263 124.995 162.436 125.022 162.61 125.013H163.03C163.175 125.004 163.315 124.952 163.43 124.863V126.523C163.205 126.606 162.969 126.66 162.73 126.683C162.497 126.698 162.263 126.698 162.03 126.683C161.714 126.684 161.398 126.647 161.09 126.573C160.825 126.511 160.574 126.399 160.35 126.243C160.137 126.083 159.965 125.874 159.85 125.633C159.722 125.347 159.661 125.036 159.67 124.723V121.653H158.39V120.053H159.69V118.143H161.69V120.053H163.45L163.46 121.663Z" fill="#252C57"/>
<path d="M168.13 121.964C167.992 121.79 167.815 121.65 167.614 121.557C167.412 121.463 167.192 121.417 166.97 121.424C166.8 121.424 166.632 121.465 166.48 121.544C166.403 121.58 166.339 121.638 166.297 121.711C166.254 121.784 166.234 121.869 166.24 121.954C166.239 122.031 166.261 122.107 166.304 122.171C166.347 122.235 166.408 122.285 166.48 122.314C166.685 122.396 166.895 122.463 167.11 122.514L167.92 122.694C168.203 122.759 168.476 122.863 168.73 123.004C168.979 123.15 169.193 123.348 169.36 123.584C169.537 123.886 169.62 124.234 169.6 124.584C169.609 124.936 169.516 125.284 169.33 125.584C169.153 125.854 168.912 126.077 168.63 126.234C168.336 126.405 168.015 126.523 167.68 126.584C167.331 126.651 166.976 126.684 166.62 126.684C166.157 126.684 165.696 126.62 165.25 126.494C164.805 126.373 164.401 126.134 164.08 125.804L165.29 124.464C165.456 124.68 165.668 124.858 165.91 124.984C166.155 125.107 166.426 125.169 166.7 125.164C166.914 125.168 167.128 125.134 167.33 125.064C167.412 125.047 167.485 125.001 167.537 124.935C167.588 124.869 167.614 124.787 167.61 124.704C167.612 124.622 167.589 124.542 167.544 124.475C167.5 124.407 167.435 124.354 167.36 124.324C167.164 124.223 166.956 124.149 166.74 124.104L165.92 123.924C165.639 123.855 165.368 123.754 165.11 123.624C164.856 123.492 164.643 123.295 164.49 123.054C164.303 122.755 164.215 122.405 164.24 122.054C164.228 121.706 164.308 121.361 164.47 121.054C164.624 120.784 164.836 120.552 165.09 120.374C165.354 120.192 165.649 120.06 165.96 119.984C166.287 119.9 166.623 119.857 166.96 119.854C167.397 119.854 167.831 119.918 168.25 120.044C168.673 120.157 169.055 120.39 169.35 120.714L168.13 121.964Z" fill="#252C57"/>
<path d="M68.2598 57.7734H94.2398V65.6434H76.7898V73.5234H92.9298V81.3934H76.7898V96.4934H68.2598V57.7734Z" fill="#252C57"/>
<path d="M100.37 57.7733H114.75C116.657 57.764 118.559 57.9449 120.43 58.3133C122.098 58.6335 123.688 59.2754 125.11 60.2033C126.458 61.1155 127.55 62.3585 128.28 63.8133C129.128 65.5973 129.533 67.5595 129.46 69.5333C129.52 71.4849 129.145 73.4253 128.36 75.2133C127.694 76.6752 126.66 77.9396 125.36 78.8833C123.995 79.8326 122.45 80.4928 120.82 80.8233C118.949 81.2155 117.042 81.4065 115.13 81.3933H108.9V96.4933H100.37V57.7733ZM108.9 74.1733H114.59C115.332 74.1752 116.072 74.1048 116.8 73.9633C117.474 73.8264 118.12 73.5762 118.71 73.2233C119.278 72.8718 119.749 72.3836 120.08 71.8033C120.45 71.1055 120.629 70.3225 120.6 69.5333C120.643 68.6851 120.4 67.8472 119.91 67.1533C119.459 66.5457 118.86 66.0637 118.17 65.7533C117.417 65.414 116.613 65.2011 115.79 65.1233C114.953 65.0371 114.112 64.9937 113.27 64.9933H108.9V74.1733Z" fill="#252C57"/>
<path d="M144.44 76.2534L131.65 57.7734H142.36L150.62 71.3334L158.55 57.7734H168.89L156.36 76.0934L170.36 96.4934H159.64L150.19 80.9034L141 96.4934H130.88L144.44 76.2534Z" fill="#252C57"/>
<path d="M30.9 89.2233L25.5 81.9133C24.7 80.8233 23.32 79.3933 23.32 77.9633C23.32 76.5333 24.69 75.0933 25.5 73.9633L30.9 66.6433C31.1138 66.3479 31.3661 66.0822 31.65 65.8533V57.4333C31.65 50.6633 28.82 48.9633 25.36 53.6433L13.69 69.4433C11.96 71.7933 9 74.8733 9 77.9633C9 81.0533 12 84.1333 13.69 86.4833L25.34 102.233C28.8 106.913 31.63 105.233 31.63 98.4533V90.0233C31.3413 89.7957 31.0885 89.526 30.88 89.2233" fill="#0E86C8"/>
<path d="M53.7798 69.4434L42.1298 53.6834C38.6698 48.9934 35.8398 50.6834 35.8398 57.4734V65.8934C36.1228 66.1203 36.3719 66.3863 36.5798 66.6834L41.9898 74.0034C42.7998 75.0934 44.1698 76.5334 44.1698 78.0034C44.1698 79.4734 42.7998 80.8634 41.9898 81.9534L36.5798 89.2634C36.3715 89.5661 36.1225 89.8387 35.8398 90.0734V98.4934C35.8398 105.273 38.6698 106.953 42.1298 102.273L53.7798 86.5234C55.5098 84.1634 58.4698 81.0734 58.4698 77.9934C58.4698 74.9134 55.4698 71.8334 53.7798 69.4834" fill="#252C57"/>
</svg>
