<svg width="162" height="79" viewBox="0 0 162 79" fill="none" xmlns="http://www.w3.org/2000/svg">
<path d="M0.909699 70.8235C0.895837 70.1215 1.02513 69.424 1.2897 68.7735C1.50796 68.1882 1.84892 67.6563 2.2897 67.2135C2.75849 66.7767 3.30905 66.4368 3.9097 66.2135C5.22849 65.7602 6.6609 65.7602 7.9797 66.2135C8.57738 66.4368 9.12467 66.7767 9.5897 67.2135C10.0628 67.6497 10.4377 68.1815 10.6897 68.7735C11.1963 70.0932 11.1963 71.5538 10.6897 72.8735C10.4467 73.4548 10.0844 73.9786 9.62619 74.411C9.16798 74.8433 8.62407 75.1747 8.02969 75.3835C6.71317 75.8503 5.27622 75.8503 3.9597 75.3835C3.35689 75.1647 2.80548 74.8243 2.3397 74.3835C1.90106 73.9391 1.56041 73.4077 1.3397 72.8235C1.07513 72.1731 0.945836 71.4756 0.959698 70.7735M3.1097 70.7735C3.10512 71.1896 3.17628 71.603 3.3197 71.9935C3.44744 72.363 3.64808 72.7031 3.9097 72.9935C4.17268 73.2657 4.48938 73.4803 4.8397 73.6235C5.61374 73.9304 6.47566 73.9304 7.2497 73.6235C7.58496 73.4726 7.88572 73.2545 8.13339 72.9827C8.38107 72.711 8.5704 72.3913 8.6897 72.0435C8.96968 71.2577 8.96968 70.3993 8.6897 69.6135C8.56877 69.241 8.36734 68.8995 8.0997 68.6135C7.8422 68.3395 7.52831 68.1245 7.1797 67.9835C6.40566 67.6767 5.54374 67.6767 4.7697 67.9835C4.41938 68.1268 4.10268 68.3413 3.8397 68.6135C3.57979 68.9053 3.37937 69.245 3.2497 69.6135C3.10726 70.0009 3.03611 70.4108 3.0397 70.8235" fill="#252C57"/>
<path d="M12.23 69.0631H14.15V69.9431C14.2195 69.8085 14.3069 69.6841 14.41 69.5731C14.5317 69.4417 14.6735 69.3303 14.83 69.2431C15.0002 69.14 15.1813 69.0562 15.37 68.9931C15.588 68.9318 15.8135 68.9015 16.04 68.9031C16.4599 68.886 16.8779 68.9682 17.26 69.1431C17.5588 69.2833 17.8119 69.5052 17.99 69.7831C18.1723 70.0897 18.2913 70.4297 18.34 70.7831C18.4016 71.1834 18.4317 71.588 18.43 71.9931V75.5631H16.43V72.3831C16.43 72.2031 16.43 72.0031 16.43 71.8031C16.4113 71.6157 16.3711 71.4312 16.31 71.2531C16.2441 71.0917 16.1373 70.9504 16 70.8431C15.8273 70.7241 15.6191 70.6676 15.41 70.6831C15.1915 70.6752 14.9746 70.7234 14.78 70.8231C14.6268 70.9091 14.5018 71.0376 14.42 71.1931C14.3307 71.3576 14.2731 71.5374 14.25 71.7231C14.2394 71.9263 14.2394 72.1299 14.25 72.3331V75.5531H12.25L12.23 69.0631Z" fill="#252C57"/>
<path d="M21.8999 65.4731H19.8999V75.5331H21.8999V65.4731Z" fill="#252C57"/>
<path d="M23.2 67.0335C23.196 66.8806 23.2242 66.7286 23.2828 66.5874C23.3414 66.4461 23.429 66.3187 23.54 66.2135C23.7576 65.9961 24.0525 65.874 24.36 65.874C24.6676 65.874 24.9625 65.9961 25.18 66.2135C25.2891 66.3202 25.3755 66.4478 25.4339 66.5887C25.4924 66.7297 25.5217 66.881 25.52 67.0335C25.5221 67.2662 25.454 67.4941 25.3248 67.6877C25.1956 67.8812 25.0112 68.0314 24.7955 68.1187C24.5798 68.2061 24.3429 68.2266 24.1154 68.1775C23.888 68.1284 23.6805 68.0121 23.52 67.8435C23.4093 67.7403 23.3217 67.6147 23.2631 67.475C23.2045 67.3354 23.1762 67.1849 23.18 67.0335M23.34 69.0335H25.34V75.5035H23.34V69.0335Z" fill="#252C57"/>
<path d="M26.7998 69.0631H28.6898V69.9431C28.7596 69.8062 28.8508 69.6813 28.9598 69.5731C29.0758 69.4396 29.2146 69.3279 29.3698 69.2431C29.54 69.14 29.7211 69.0562 29.9098 68.9931C30.1278 68.9318 30.3534 68.9015 30.5798 68.9031C30.9997 68.886 31.4177 68.9682 31.7998 69.1431C32.0986 69.2833 32.3517 69.5052 32.5298 69.7831C32.7121 70.0897 32.8311 70.4297 32.8798 70.7831C32.945 71.1832 32.9784 71.5878 32.9798 71.9931V75.5631H30.9798V72.3831C30.9798 72.2031 30.9798 72.0031 30.9798 71.8031C30.9708 71.6143 30.9303 71.4284 30.8598 71.2531C30.794 71.0917 30.6871 70.9504 30.5498 70.8431C30.3771 70.7241 30.169 70.6676 29.9598 70.6831C29.7413 70.6752 29.5244 70.7234 29.3298 70.8231C29.1766 70.9091 29.0516 71.0376 28.9698 71.1931C28.8806 71.3576 28.8229 71.5374 28.7998 71.7231C28.7892 71.9263 28.7892 72.1299 28.7998 72.3331V75.5531H26.7998V69.0631Z" fill="#252C57"/>
<path d="M40.5598 74.3833C40.2412 74.7951 39.8255 75.1215 39.3498 75.3333C38.8725 75.5503 38.3542 75.6628 37.8298 75.6633C37.3526 75.6674 36.8784 75.5862 36.4298 75.4233C36.0061 75.2732 35.6155 75.0423 35.2798 74.7433C34.9542 74.44 34.6953 74.0722 34.5198 73.6633C34.3266 73.2258 34.231 72.7515 34.2398 72.2733C34.2309 71.7919 34.3264 71.3142 34.5198 70.8733C34.6955 70.4674 34.9544 70.1028 35.2798 69.8033C35.6124 69.4977 36.0037 69.2629 36.4298 69.1133C36.8784 68.9504 37.3526 68.8691 37.8298 68.8733C38.2617 68.868 38.6902 68.9496 39.0898 69.1133C39.4721 69.2627 39.8144 69.4989 40.0898 69.8033C40.3591 70.1164 40.5631 70.4802 40.6898 70.8733C40.8389 71.3249 40.9132 71.7978 40.9098 72.2733V72.8933H36.2298C36.2961 73.2464 36.4792 73.5669 36.7498 73.8033C37.0072 74.0012 37.3176 74.1183 37.6416 74.1396C37.9656 74.161 38.2887 74.0857 38.5698 73.9233C38.7992 73.7744 38.9992 73.5845 39.1598 73.3633L40.5598 74.3833ZM38.8698 71.5333C38.8771 71.3749 38.8515 71.2168 38.7947 71.0688C38.7379 70.9208 38.6511 70.7861 38.5398 70.6733C38.3053 70.4693 38.0002 70.3652 37.6898 70.3833C37.4907 70.3764 37.2926 70.414 37.1098 70.4933C36.9515 70.5569 36.8059 70.6484 36.6798 70.7633C36.5584 70.8706 36.4627 71.0039 36.3998 71.1533C36.3298 71.2936 36.289 71.4467 36.2798 71.6033L38.8698 71.5333Z" fill="#252C57"/>
<path d="M46.27 66.1133H49.78C50.1913 66.115 50.602 66.1417 51.01 66.1933C51.4004 66.2461 51.779 66.3644 52.13 66.5433C52.4515 66.715 52.7235 66.9664 52.92 67.2733C53.1441 67.643 53.2521 68.0715 53.23 68.5033C53.2457 68.9864 53.0858 69.4589 52.78 69.8333C52.4713 70.1919 52.0647 70.4525 51.61 70.5833C51.9032 70.6196 52.1876 70.7077 52.45 70.8433C52.6966 70.9627 52.9174 71.1291 53.1 71.3333C53.2867 71.5353 53.4296 71.7736 53.52 72.0333C53.6216 72.305 53.6725 72.5932 53.67 72.8833C53.6851 73.3188 53.574 73.7495 53.35 74.1233C53.1424 74.4526 52.8618 74.7297 52.53 74.9333C52.1762 75.1403 51.7912 75.2889 51.39 75.3733C50.9758 75.461 50.5534 75.5045 50.13 75.5033H46.27V66.1133ZM48.35 69.8733H49.85C50.0082 69.877 50.1662 69.8602 50.32 69.8233C50.4701 69.7956 50.6129 69.7377 50.74 69.6533C50.8666 69.5751 50.9701 69.4646 51.04 69.3333C51.1206 69.1866 51.1587 69.0204 51.15 68.8533C51.157 68.6819 51.1154 68.512 51.03 68.3633C50.944 68.2397 50.8312 68.1372 50.7 68.0633C50.559 67.9896 50.4071 67.9389 50.25 67.9133C50.0885 67.8823 49.9245 67.8656 49.76 67.8633H48.35V69.8733ZM48.35 73.7733H50.21C50.3694 73.7926 50.5306 73.7926 50.69 73.7733C50.85 73.7423 51.0027 73.6812 51.14 73.5933C51.272 73.4995 51.3841 73.3805 51.47 73.2433C51.5541 73.0832 51.5955 72.9041 51.59 72.7233C51.5996 72.5303 51.5432 72.3399 51.43 72.1833C51.3199 72.0446 51.175 71.9376 51.01 71.8733C50.8335 71.8011 50.6488 71.7507 50.46 71.7233C50.2803 71.7091 50.0997 71.7091 49.92 71.7233H48.35V73.7733Z" fill="#252C57"/>
<path d="M58.6898 74.7231C58.474 75.0558 58.1642 75.3169 57.7998 75.4731C57.4278 75.6218 57.0304 75.6966 56.6298 75.6931C56.3348 75.6956 56.0412 75.6517 55.7598 75.5631C55.4909 75.4853 55.2396 75.3563 55.0198 75.1831C54.8061 75.0192 54.6347 74.8067 54.5198 74.5631C54.3869 74.2928 54.3217 73.9942 54.3298 73.6931C54.3221 73.3674 54.3942 73.0447 54.5398 72.7531C54.6733 72.4985 54.8652 72.2792 55.0998 72.1131C55.3419 71.9379 55.6126 71.806 55.8998 71.7231C56.2068 71.6273 56.5212 71.5571 56.8398 71.5131C57.1598 71.5131 57.4898 71.4431 57.8398 71.4331H58.7398C58.7461 71.2718 58.715 71.1111 58.6491 70.9637C58.5832 70.8163 58.4842 70.686 58.3598 70.5831C58.1052 70.3778 57.7868 70.2682 57.4598 70.2731C57.1504 70.2692 56.8448 70.3413 56.5698 70.4831C56.2897 70.6163 56.0409 70.8071 55.8398 71.0431L54.6898 69.9431C55.0713 69.6001 55.5164 69.3351 55.9998 69.1631C56.4952 68.9919 57.0156 68.904 57.5398 68.9031C58.0322 68.8911 58.523 68.9655 58.9898 69.1231C59.3431 69.2542 59.6542 69.4789 59.8898 69.7731C60.125 70.0635 60.2863 70.4067 60.3598 70.7731C60.4574 71.2434 60.5043 71.7228 60.4998 72.2031V75.4931H58.6898V74.7231ZM58.1998 72.7231C58.0498 72.7231 57.8598 72.7231 57.6298 72.7231C57.4096 72.7345 57.1914 72.7714 56.9798 72.8331C56.7851 72.8874 56.6043 72.9829 56.4498 73.1131C56.3752 73.1767 56.3164 73.2568 56.2783 73.3471C56.2401 73.4374 56.2235 73.5353 56.2298 73.6331C56.2245 73.7408 56.2499 73.8477 56.303 73.9415C56.3561 74.0354 56.4348 74.1122 56.5298 74.1631C56.7239 74.2763 56.945 74.335 57.1698 74.3331C57.3628 74.3374 57.5553 74.3103 57.7398 74.2531C57.9123 74.2021 58.0771 74.1281 58.2298 74.0331C58.3704 73.9366 58.484 73.8058 58.5598 73.6531C58.6514 73.4919 58.6964 73.3084 58.6898 73.1231V72.7031L58.1998 72.7231Z" fill="#252C57"/>
<path d="M61.79 69.0633H63.69V69.9433C63.7599 69.8064 63.851 69.6815 63.96 69.5733C64.076 69.4398 64.2149 69.3281 64.37 69.2433C64.5428 69.1384 64.7274 69.0544 64.92 68.9933C65.1345 68.9313 65.3568 68.901 65.58 68.9033C66.0032 68.8853 66.4247 68.9676 66.81 69.1433C67.1058 69.2841 67.3555 69.5061 67.53 69.7833C67.7168 70.0878 67.8362 70.4288 67.88 70.7833C67.9501 71.1827 67.9836 71.5878 67.98 71.9933V75.5633H65.98V72.3833C65.98 72.2033 65.98 72.0033 65.98 71.8033C65.9711 71.6145 65.9305 71.4286 65.86 71.2533C65.7974 71.0699 65.6741 70.9135 65.5104 70.8098C65.3467 70.7061 65.1526 70.6615 64.96 70.6833C64.7447 70.6753 64.531 70.7236 64.34 70.8233C64.1842 70.9091 64.0559 71.0374 63.97 71.1933C63.8853 71.3597 63.8279 71.5386 63.8 71.7233C63.7896 71.9265 63.7896 72.1301 63.8 72.3333V75.5533H61.8L61.79 69.0633Z" fill="#252C57"/>
<path d="M69.4302 65.4731H71.4302V71.6232L73.6402 69.0631H76.0802L73.5102 71.9832L76.1502 75.5331H73.6402L71.4502 72.2632H71.4302V75.5331H69.4302V65.4731Z" fill="#252C57"/>
<path d="M76.6898 67.0334C76.6858 66.8805 76.714 66.7285 76.7726 66.5872C76.8312 66.4459 76.9188 66.3186 77.0298 66.2134C77.1331 66.1026 77.2587 66.015 77.3983 65.9564C77.538 65.8978 77.6884 65.8695 77.8398 65.8734C78.1475 65.8734 78.4425 65.9956 78.6601 66.2131C78.8776 66.4307 78.9998 66.7257 78.9998 67.0334C79.0037 67.1848 78.9754 67.3353 78.9168 67.4749C78.8582 67.6145 78.7706 67.7401 78.6598 67.8434C78.5547 67.9544 78.4273 68.0421 78.286 68.1006C78.1447 68.1592 77.9927 68.1874 77.8398 68.1834C77.5356 68.1808 77.2446 68.0588 77.0295 67.8437C76.8144 67.6286 76.6924 67.3376 76.6898 67.0334ZM76.8498 69.0334H78.8498V75.5034H76.8498V69.0334Z" fill="#252C57"/>
<path d="M80.29 69.0633H82.21V69.9433C82.2833 69.8086 82.3741 69.6842 82.48 69.5733C82.596 69.4398 82.7349 69.3281 82.89 69.2433C83.0628 69.1384 83.2474 69.0544 83.44 68.9933C83.6545 68.9313 83.8768 68.901 84.1 68.9033C84.5232 68.8853 84.9446 68.9676 85.33 69.1433C85.6258 69.2841 85.8755 69.5061 86.05 69.7833C86.2356 70.0892 86.358 70.4293 86.41 70.7833C86.4717 71.1836 86.5018 71.5882 86.5 71.9933V75.5633H84.5V72.3833C84.5 72.2033 84.5 72.0033 84.5 71.8033C84.4911 71.6145 84.4505 71.4286 84.38 71.2533C84.3174 71.0699 84.1941 70.9135 84.0304 70.8098C83.8667 70.7061 83.6725 70.6615 83.48 70.6833C83.2648 70.6762 83.0513 70.7244 82.86 70.8233C82.706 70.9116 82.5783 71.0393 82.49 71.1933C82.4041 71.3584 82.3498 71.5382 82.33 71.7233C82.3145 71.9263 82.3145 72.1303 82.33 72.3333V75.5533H80.33L80.29 69.0633Z" fill="#252C57"/>
<path d="M94.69 74.9932C94.7262 75.495 94.6627 75.9991 94.5031 76.4762C94.3435 76.9534 94.0909 77.3942 93.76 77.7732C93.386 78.1247 92.9432 78.3951 92.4596 78.5672C91.976 78.7393 91.462 78.8094 90.95 78.7732C90.3742 78.772 89.8005 78.7049 89.24 78.5732C88.6772 78.441 88.1511 78.1848 87.7 77.8232L88.8 76.1732C89.1023 76.4236 89.4391 76.629 89.8 76.7832C90.1565 76.938 90.5414 77.0164 90.93 77.0132C91.1738 77.0339 91.4193 77.0046 91.6514 76.9273C91.8835 76.8499 92.0974 76.726 92.28 76.5632C92.427 76.4061 92.5394 76.2199 92.61 76.0166C92.6806 75.8134 92.7079 75.5976 92.69 75.3832V74.7632C92.4696 75.0582 92.172 75.2866 91.83 75.4232C91.5113 75.5477 91.1722 75.6122 90.83 75.6132C90.384 75.6211 89.9413 75.5359 89.53 75.3632C89.1508 75.208 88.8097 74.9726 88.53 74.6732C88.2453 74.3682 88.0273 74.0072 87.89 73.6132C87.5966 72.7748 87.5966 71.8616 87.89 71.0232C88.0142 70.6301 88.2109 70.2638 88.47 69.9432C88.7235 69.6303 89.0405 69.3747 89.4 69.1932C89.7831 68.9956 90.2091 68.896 90.64 68.9032C90.9034 68.8994 91.1661 68.9331 91.42 69.0032C91.6385 69.0588 91.8499 69.1393 92.05 69.2432C92.2225 69.3298 92.3837 69.4373 92.53 69.5632C92.6501 69.6677 92.7545 69.7889 92.84 69.9232V69.0632H94.69V74.9932ZM89.69 72.2632C89.6892 72.4692 89.73 72.6733 89.81 72.8632C89.8887 73.0539 90.0043 73.2272 90.15 73.3732C90.2928 73.5207 90.4626 73.6395 90.65 73.7232C90.8476 73.8131 91.0629 73.8576 91.28 73.8532C91.497 73.8566 91.7121 73.8122 91.91 73.7232C92.0991 73.6372 92.2717 73.5187 92.42 73.3732C92.5657 73.2272 92.6813 73.0539 92.76 72.8632C92.84 72.6733 92.8808 72.4692 92.88 72.2632C92.8808 72.0539 92.84 71.8466 92.76 71.6532C92.6836 71.4642 92.5677 71.2937 92.42 71.1532C92.272 71.0047 92.0995 70.8829 91.91 70.7932C91.7121 70.7042 91.497 70.6598 91.28 70.6632C91.0629 70.6588 90.8476 70.7032 90.65 70.7932C90.4621 70.8805 90.2924 71.0027 90.15 71.1532C90.0023 71.2937 89.8864 71.4642 89.81 71.6532C89.73 71.8466 89.6892 72.0539 89.69 72.2632Z" fill="#252C57"/>
<path d="M100.51 66.1131H104.01C104.473 66.1089 104.935 66.1524 105.39 66.2431C105.797 66.318 106.185 66.4745 106.53 66.7031C106.859 66.9241 107.124 67.2275 107.3 67.5831C107.506 68.0165 107.606 68.4932 107.59 68.9731C107.605 69.4476 107.513 69.9194 107.32 70.3531C107.16 70.7119 106.908 71.0223 106.59 71.2531C106.257 71.479 105.883 71.6386 105.49 71.7231C105.033 71.8177 104.567 71.8646 104.1 71.8631H102.58V75.5331H100.51V66.1131ZM102.58 70.1131H103.97C104.151 70.1113 104.331 70.0946 104.51 70.0631C104.672 70.0276 104.827 69.9668 104.97 69.8831C105.11 69.7963 105.227 69.676 105.31 69.5331C105.396 69.3629 105.437 69.1736 105.43 68.9831C105.437 68.7779 105.381 68.5754 105.27 68.4031C105.157 68.2553 105.009 68.1383 104.84 68.0631C104.657 67.9791 104.46 67.9283 104.26 67.9131C104.05 67.9131 103.85 67.9131 103.65 67.9131H102.58V70.1131Z" fill="#252C57"/>
<path d="M112.69 74.7231C112.482 75.0589 112.174 75.3212 111.81 75.4731C111.438 75.6218 111.041 75.6966 110.64 75.6931C110.345 75.6956 110.051 75.6517 109.77 75.5631C109.501 75.4853 109.25 75.3563 109.03 75.1831C108.816 75.0192 108.645 74.8067 108.53 74.5631C108.397 74.2928 108.332 73.9942 108.34 73.6931C108.332 73.3674 108.404 73.0447 108.55 72.7531C108.684 72.4985 108.875 72.2792 109.11 72.1131C109.352 71.9379 109.623 71.806 109.91 71.7231C110.217 71.6273 110.531 71.5571 110.85 71.5131C111.17 71.5131 111.5 71.4431 111.85 71.4331H112.75C112.756 71.2718 112.725 71.1111 112.659 70.9637C112.593 70.8163 112.494 70.686 112.37 70.5831C112.115 70.3778 111.797 70.2682 111.47 70.2731C111.158 70.2719 110.85 70.3438 110.57 70.4831C110.295 70.6191 110.05 70.8097 109.85 71.0431L108.69 69.9431C109.072 69.6001 109.517 69.3351 110 69.1631C110.495 68.9912 111.016 68.9033 111.54 68.9031C112.033 68.8911 112.523 68.9655 112.99 69.1231C113.343 69.2542 113.654 69.4789 113.89 69.7731C114.125 70.0635 114.287 70.4067 114.36 70.7731C114.458 71.2434 114.505 71.7228 114.5 72.2031V75.4931H112.69V74.7231ZM112.2 72.7231C112.05 72.7231 111.86 72.7231 111.63 72.7231C111.41 72.7337 111.192 72.7706 110.98 72.8331C110.785 72.8874 110.605 72.9829 110.45 73.1131C110.375 73.1767 110.317 73.2568 110.279 73.3471C110.24 73.4374 110.224 73.5353 110.23 73.6331C110.225 73.7408 110.25 73.8477 110.303 73.9415C110.356 74.0354 110.435 74.1122 110.53 74.1631C110.724 74.2763 110.945 74.335 111.17 74.3331C111.363 74.3374 111.556 74.3103 111.74 74.2531C111.913 74.2021 112.077 74.1281 112.23 74.0331C112.371 73.9366 112.484 73.8058 112.56 73.6531C112.652 73.4919 112.697 73.3084 112.69 73.1231V72.7031L112.2 72.7231Z" fill="#252C57"/>
<path d="M119.52 76.5835C119.38 76.9335 119.25 77.2335 119.13 77.5035C119.016 77.7539 118.857 77.9811 118.66 78.1735C118.449 78.3637 118.201 78.5069 117.93 78.5935C117.552 78.6967 117.162 78.7439 116.77 78.7335C116.264 78.7343 115.761 78.6532 115.28 78.4935L115.55 76.8535C115.843 76.9837 116.16 77.0518 116.48 77.0535C116.663 77.0602 116.845 77.0366 117.02 76.9835C117.157 76.9432 117.282 76.8673 117.38 76.7635C117.478 76.6661 117.556 76.5506 117.61 76.4235C117.67 76.2935 117.74 76.1435 117.81 75.9635L117.96 75.5835L115.12 69.0635H117.28L118.94 73.3435L120.36 69.0635H122.41L119.52 76.5835Z" fill="#252C57"/>
<path d="M123.19 69.0631H125.11V69.9431C125.18 69.8063 125.271 69.6814 125.38 69.5731C125.498 69.4419 125.637 69.3305 125.79 69.2431C125.963 69.1382 126.147 69.0543 126.34 68.9931C126.554 68.9311 126.777 68.9008 127 68.9031C127.42 68.8928 127.837 68.9891 128.21 69.1831C128.565 69.3791 128.843 69.6892 129 70.0631C129.187 69.691 129.479 69.3817 129.84 69.1731C130.214 68.9825 130.63 68.8897 131.05 68.9031C131.428 68.8956 131.804 68.9706 132.15 69.1231C132.43 69.2616 132.67 69.4678 132.85 69.7231C133.034 69.9918 133.163 70.2943 133.23 70.6131C133.303 70.9752 133.34 71.3437 133.34 71.7131V75.5331H131.34V71.7731C131.351 71.5005 131.285 71.2303 131.15 70.9931C131.077 70.8797 130.973 70.7888 130.852 70.7305C130.73 70.6723 130.594 70.6489 130.46 70.6631C130.261 70.6591 130.064 70.6965 129.88 70.7731C129.732 70.8475 129.605 70.9575 129.51 71.0931C129.414 71.2319 129.346 71.3882 129.31 71.5531C129.27 71.7371 129.25 71.9248 129.25 72.1131V75.5331H127.25V72.1131C127.25 72.0031 127.25 71.8531 127.25 71.6931C127.241 71.5299 127.211 71.3685 127.16 71.2131C127.111 71.0618 127.021 70.9269 126.9 70.8231C126.75 70.7051 126.56 70.6479 126.37 70.6631C126.155 70.656 125.941 70.7042 125.75 70.8031C125.596 70.8914 125.468 71.0191 125.38 71.1731C125.295 71.3395 125.238 71.5185 125.21 71.7031C125.199 71.9063 125.199 72.1099 125.21 72.3131V75.5331H123.21L123.19 69.0631Z" fill="#252C57"/>
<path d="M140.89 74.3832C140.58 74.812 140.168 75.1559 139.69 75.3832C139.213 75.6011 138.694 75.7137 138.17 75.7132C137.693 75.7157 137.219 75.6344 136.77 75.4732C136.347 75.3209 135.957 75.0902 135.62 74.7932C135.297 74.4872 135.039 74.1201 134.86 73.7132C134.667 73.2757 134.571 72.8014 134.58 72.3232C134.565 71.8644 134.646 71.4076 134.818 70.9821C134.99 70.5566 135.25 70.172 135.58 69.8532C135.914 69.5498 136.305 69.3153 136.73 69.1632C137.179 69.002 137.653 68.9207 138.13 68.9232C138.562 68.9168 138.991 68.9985 139.39 69.1632C139.774 69.31 140.117 69.5466 140.39 69.8532C140.659 70.1683 140.866 70.5313 141 70.9232C141.145 71.3754 141.216 71.8482 141.21 72.3232V72.9432H136.58C136.642 73.298 136.826 73.62 137.1 73.8532C137.378 74.09 137.735 74.2116 138.1 74.1932C138.393 74.2054 138.682 74.1287 138.93 73.9732C139.163 73.8289 139.364 73.6383 139.52 73.4132L140.89 74.3832ZM139.2 71.5332C139.207 71.3749 139.182 71.2167 139.125 71.0687C139.068 70.9207 138.981 70.7861 138.87 70.6732C138.755 70.5542 138.617 70.4606 138.463 70.3986C138.31 70.3366 138.145 70.3075 137.98 70.3132C137.778 70.3061 137.576 70.3437 137.39 70.4232C137.232 70.4868 137.086 70.5783 136.96 70.6932C136.842 70.8032 136.746 70.9358 136.68 71.0832C136.613 71.2242 136.576 71.3773 136.57 71.5332H139.2Z" fill="#252C57"/>
<path d="M142.41 69.0633H144.33V69.9433C144.4 69.8064 144.491 69.6815 144.6 69.5733C144.716 69.4398 144.855 69.3281 145.01 69.2433C145.183 69.1384 145.368 69.0544 145.56 68.9933C145.775 68.9313 145.997 68.901 146.22 68.9033C146.643 68.8853 147.065 68.9676 147.45 69.1433C147.746 69.2841 147.996 69.5061 148.17 69.7833C148.356 70.0892 148.478 70.4293 148.53 70.7833C148.592 71.1836 148.622 71.5882 148.62 71.9933V75.5633H146.62V72.3833C146.62 72.2033 146.62 72.0033 146.62 71.8033C146.611 71.6145 146.571 71.4286 146.5 71.2533C146.438 71.0699 146.314 70.9135 146.151 70.8098C145.987 70.7061 145.793 70.6615 145.6 70.6833C145.385 70.6753 145.171 70.7236 144.98 70.8233C144.824 70.9091 144.696 71.0374 144.61 71.1933C144.524 71.3584 144.47 71.5382 144.45 71.7233C144.435 71.9263 144.435 72.1303 144.45 72.3333V75.5533H142.45L142.41 69.0633Z" fill="#252C57"/>
<path d="M154.46 70.6631H152.69V72.8231C152.69 72.9931 152.69 73.1631 152.69 73.3031C152.706 73.4362 152.746 73.5651 152.81 73.6831C152.877 73.7958 152.979 73.8836 153.1 73.9331C153.263 73.9952 153.436 74.0225 153.61 74.0131H154.03C154.175 74.0041 154.315 73.9518 154.43 73.8631V75.5231C154.205 75.6058 153.969 75.6596 153.73 75.6831C153.497 75.6977 153.263 75.6977 153.03 75.6831C152.714 75.6837 152.398 75.6468 152.09 75.5731C151.825 75.5105 151.574 75.3986 151.35 75.2431C151.137 75.0829 150.965 74.8736 150.85 74.6331C150.722 74.3472 150.661 74.0361 150.67 73.7231V70.6531H149.39V69.0531H150.69V67.1431H152.69V69.0531H154.45L154.46 70.6631Z" fill="#252C57"/>
<path d="M159.13 70.9635C158.992 70.7896 158.815 70.6503 158.614 70.5565C158.412 70.4628 158.192 70.4173 157.97 70.4235C157.8 70.4239 157.632 70.465 157.48 70.5435C157.403 70.5796 157.339 70.6381 157.297 70.7113C157.254 70.7845 157.234 70.8689 157.24 70.9535C157.239 71.0308 157.261 71.1067 157.304 71.171C157.347 71.2353 157.408 71.285 157.48 71.3135C157.685 71.3963 157.895 71.4632 158.11 71.5135L158.92 71.6935C159.203 71.7591 159.476 71.8634 159.73 72.0035C159.979 72.1503 160.193 72.348 160.36 72.5835C160.537 72.886 160.62 73.2338 160.6 73.5835C160.609 73.936 160.516 74.2836 160.33 74.5835C160.153 74.8535 159.912 75.0766 159.63 75.2335C159.336 75.4046 159.015 75.5231 158.68 75.5835C158.331 75.651 157.976 75.6845 157.62 75.6835C157.157 75.684 156.696 75.62 156.25 75.4935C155.805 75.3726 155.401 75.1343 155.08 74.8035L156.29 73.4635C156.456 73.68 156.668 73.8575 156.91 73.9835C157.155 74.1075 157.426 74.1693 157.7 74.1635C157.914 74.1677 158.128 74.1339 158.33 74.0635C158.412 74.0469 158.485 74.0014 158.537 73.9354C158.588 73.8693 158.614 73.7871 158.61 73.7035C158.612 73.6223 158.589 73.5424 158.544 73.4745C158.5 73.4066 158.435 73.354 158.36 73.3235C158.164 73.2228 157.956 73.1488 157.74 73.1035L156.92 72.9235C156.639 72.8551 156.368 72.7545 156.11 72.6235C155.856 72.4919 155.643 72.2952 155.49 72.0535C155.303 71.7552 155.215 71.4049 155.24 71.0535C155.228 70.7058 155.308 70.3612 155.47 70.0535C155.624 69.7842 155.836 69.5521 156.09 69.3735C156.354 69.1922 156.649 69.0601 156.96 68.9835C157.287 68.9004 157.623 68.8567 157.96 68.8535C158.397 68.8543 158.831 68.9183 159.25 69.0435C159.673 69.157 160.055 69.3895 160.35 69.7135L159.13 70.9635Z" fill="#252C57"/>
<path d="M59.2598 6.77344H85.2398V14.6434H67.7898V22.5234H83.9298V30.3934H67.7898V45.4934H59.2598V6.77344Z" fill="#252C57"/>
<path d="M91.3701 6.77329H105.75C107.657 6.76398 109.559 6.94488 111.43 7.31329C113.098 7.63348 114.688 8.27543 116.11 9.20329C117.458 10.1155 118.55 11.3585 119.28 12.8133C120.128 14.5973 120.533 16.5595 120.46 18.5333C120.52 20.4849 120.145 22.4253 119.36 24.2133C118.694 25.6752 117.66 26.9396 116.36 27.8833C114.995 28.8326 113.45 29.4928 111.82 29.8233C109.949 30.2155 108.042 30.4065 106.13 30.3933H99.9001V45.4933H91.3701V6.77329ZM99.9001 23.1733H105.59C106.332 23.1752 107.072 23.1048 107.8 22.9633C108.474 22.8264 109.12 22.5762 109.71 22.2233C110.278 21.8718 110.749 21.3836 111.08 20.8033C111.45 20.1055 111.629 19.3225 111.6 18.5333C111.643 17.6851 111.4 16.8472 110.91 16.1533C110.459 15.5457 109.86 15.0637 109.17 14.7533C108.417 14.414 107.613 14.2011 106.79 14.1233C105.953 14.0371 105.112 13.9937 104.27 13.9933H99.9001V23.1733Z" fill="#252C57"/>
<path d="M135.44 25.2534L122.65 6.77344H133.36L141.62 20.3334L149.55 6.77344H159.89L147.36 25.0934L161.36 45.4934H150.64L141.19 29.9034L132 45.4934H121.88L135.44 25.2534Z" fill="#252C57"/>
<path d="M21.9 38.2233L16.5 30.9133C15.7 29.8233 14.32 28.3933 14.32 26.9633C14.32 25.5333 15.69 24.0933 16.5 22.9633L21.9 15.6433C22.1138 15.3479 22.3661 15.0822 22.65 14.8533V6.43332C22.65 -0.33668 19.82 -2.03668 16.36 2.64332L4.69 18.4433C2.96 20.7933 0 23.8733 0 26.9633C0 30.0533 3 33.1333 4.69 35.4833L16.34 51.2333C19.8 55.9133 22.63 54.2333 22.63 47.4533V39.0233C22.3413 38.7957 22.0885 38.526 21.88 38.2233" fill="#0E86C8"/>
<path d="M44.7798 18.4434L33.1298 2.68338C29.6698 -2.00662 26.8398 -0.316625 26.8398 6.47338V14.8934C27.1228 15.1203 27.3719 15.3863 27.5798 15.6834L32.9898 23.0034C33.7998 24.0934 35.1698 25.5334 35.1698 27.0034C35.1698 28.4734 33.7998 29.8634 32.9898 30.9534L27.5798 38.2634C27.3715 38.5661 27.1225 38.8387 26.8398 39.0734V47.4934C26.8398 54.2734 29.6698 55.9534 33.1298 51.2734L44.7798 35.5234C46.5098 33.1634 49.4698 30.0734 49.4698 26.9934C49.4698 23.9134 46.4698 20.8334 44.7798 18.4834" fill="#252C57"/>
</svg>
