<svg width="800" height="180" viewBox="0 0 800 180" fill="none" xmlns="http://www.w3.org/2000/svg">
<rect width="800" height="180" rx="15" fill="#0863BA"/>
<path d="M238.897 26.9955V83.3102H251.08V26.9955C251.08 23.1374 254.118 20 257.835 20C261.547 20 264.584 23.1374 264.584 26.9955V83.3102H276.768V26.9955C276.768 23.1374 279.788 20 283.513 20C287.267 20 290.277 23.1374 290.277 26.9955V83.3102H307.959C311.856 83.3102 315 86.3135 315 90.0423C315 93.771 311.856 96.8067 307.959 96.8067H290.277V153.094C290.277 156.952 287.267 160.084 283.513 160.084C279.788 160.084 276.768 156.952 276.768 153.094V96.8067H264.584V153.094C264.584 156.952 261.547 160.084 257.835 160.084C254.118 160.084 251.08 156.952 251.08 153.094V96.8067H238.897V153.094C238.897 156.952 235.868 160.084 232.133 160.084C228.412 160.084 225.369 156.952 225.369 153.094V96.8067H213.172V153.094C213.172 156.952 210.139 160.084 206.408 160.084C202.673 160.084 199.663 156.952 199.663 153.094V96.8067H181.981C178.112 96.8067 175 93.771 175 90.0423C175 86.3135 178.112 83.3102 181.981 83.3102H199.663V26.9955C199.663 23.1374 202.673 20 206.408 20C210.139 20 213.172 23.1374 213.172 26.9955V83.3102H225.369V26.9955C225.369 23.1374 228.412 20 232.133 20C235.868 20 238.897 23.1374 238.897 26.9955Z" fill="#ED1B2B"/>
<path d="M464.704 88.5063C476.946 88.5063 484.579 78.9497 484.579 61.1366C484.579 43.4658 476.856 33.7763 464.576 33.7763C452.537 33.7763 444.582 43.7078 444.582 60.7902C444.582 78.9639 452.111 88.5063 464.704 88.5063ZM464.803 19.0001C488.012 19.0001 502.691 35.5937 502.691 61.2362C502.691 86.8455 487.988 103.278 464.576 103.278C441.267 103.278 426.811 86.8028 426.811 60.9041C426.811 35.4419 441.395 19.0001 464.803 19.0001ZM378.668 103.107C368.175 103.121 360.722 101.162 354.729 96.535C347.167 90.7603 345 84.6296 345 71.2199V23.1331C345 21.4723 346.389 20.063 348.063 20.063H360.395C362.073 20.063 363.463 21.4723 363.463 23.1331V70.5082C363.463 79.1443 364.416 81.5263 367.886 84.3923C370.75 86.7506 373.998 88.1742 378.677 88.1742C383.348 88.1742 386.605 86.7696 389.502 84.3923C392.968 81.5263 393.911 79.1443 393.911 70.5082V23.1331C393.911 21.4723 395.329 20.063 396.993 20.063H409.321C411.013 20.063 412.393 21.4723 412.393 23.1331V71.2199C412.393 84.6296 410.188 90.7603 402.678 96.535C396.647 101.171 389.198 103.079 378.668 103.107ZM576.764 62.2042C581.961 65.9624 585 72.5011 585 79.5903C585 87.0164 582.155 92.9383 576.56 97.2753C570.994 101.441 565.068 103.041 555.357 103.041H520.21C518.527 103.041 517.119 101.66 517.119 99.961V23.954C517.119 22.298 518.527 20.8792 520.21 20.8792H553.707C563.716 20.8792 567.969 22.0749 572.497 25.4487C577.338 28.9838 580.368 35.3754 580.368 41.7339C580.368 49.8622 577.433 55.7889 570.819 58.9396C573.109 59.7368 574.664 60.6621 576.764 62.2042ZM551.929 54.3131C559.255 54.3131 562.958 50.7496 562.958 44.1159C562.958 37.6341 559.07 33.6862 553.233 33.6862H535.335V54.3131H551.929ZM552.873 90.1481C562.588 90.1481 566.523 86.4612 566.523 78.7409C566.523 71.367 562.19 67.2388 554.205 67.2388H535.335V90.1481H552.873Z" fill="white"/>
<path d="M369.929 113.008V116.041C369.929 119.548 369.748 122.875 369.386 125.903L369.289 126.686H392.267V130.741H375.325L375.506 131.583C376.738 137.282 378.571 142.017 380.937 145.662C383.933 150.255 387.981 154.071 392.917 157.06C392.438 157.852 390.908 160.391 390.381 161.282C384.652 157.241 380.257 152.726 377.393 147.829C374.558 143.299 372.505 137.761 371.312 131.309L371.21 130.741H368.619L368.507 131.304C367.734 134.968 366.674 138.334 365.329 141.274C362.475 147.736 356.849 154.423 348.676 161.15C348.035 160.602 345.86 158.733 345 157.994C352.64 152.501 358.149 146.523 361.307 140.197C362.577 137.869 363.589 134.968 364.308 131.578L364.489 130.741H345.709V126.686H365.09L365.153 126.065C365.491 123.017 365.662 119.641 365.662 116.041V113.008H369.929Z" fill="white"/>
<path d="M485.364 112.54C488.419 115.27 491.171 118.161 493.586 121.135C492.975 121.717 491.591 123.038 490.932 123.669C488.258 120.318 485.975 117.686 484.191 115.964L483.57 115.368L483.12 116.092C481.287 119.022 479.19 121.908 476.898 124.687L475.945 125.827H476.028C475.798 126.086 473.921 128.16 473.163 129.006C472.719 127.71 472.039 125.577 471.868 125.078C475.353 121.629 478.579 117.422 481.454 112.54H485.364Z" fill="white"/>
<path d="M490.615 125.826V128.996H484.735V134.95H492.566V138.125H484.735V155.291C484.735 155.291 491.153 153.564 492.566 153.182V156.514C486.607 158.294 479.954 159.738 472.793 160.794C472.671 159.919 472.422 158.06 472.324 157.203C475.037 156.974 477.872 156.612 480.776 156.073L481.348 155.956V138.125H472.671V134.95H481.348V128.996H476.171V125.826H490.615Z" fill="white"/>
<path d="M476.018 142.623C476.814 145.03 477.376 148.205 477.709 152.094C476.858 152.167 475.196 152.329 474.341 152.402C474.194 148.474 473.813 145.299 473.251 142.882C474.072 142.804 475.333 142.692 476.018 142.623Z" fill="white"/>
<path d="M489.768 142.154C490.511 142.193 491.895 142.267 492.721 142.296C492.564 145.099 492.085 147.8 491.264 150.378C490.482 150.172 489.055 149.815 488.238 149.605C489.172 147.081 489.68 144.591 489.768 142.154Z" fill="white"/>
<path d="M499.51 127.052H514.565V134.718H499.51V127.052ZM499.51 117.483H514.565V124.273H499.51V117.483ZM513.221 149.618L512.82 148.924L513.553 148.63C516.315 147.49 518.812 145.901 521.046 143.968C520.401 143.303 519.194 142.08 518.622 141.503C516.647 143.474 514.545 145.064 512.341 146.116L511.652 146.444L511.388 145.729C510.625 143.685 510.078 141.243 509.745 138.45L509.638 137.677H517.957V114.543H496.122V157.108L496.112 157.68C496.112 157.68 494.089 158.082 493.258 158.253C493.507 159.109 493.962 160.674 494.191 161.447C499.607 160.205 504.53 158.854 508.846 157.421V154.31C507.37 154.711 499.51 156.912 499.51 156.912V137.677H506.759L506.783 138.333C507.003 142.515 508.005 146.39 509.794 149.883C511.348 153.493 514.501 157.49 519.091 161.741C519.712 161.11 521.266 159.534 521.956 158.835C517.869 155.665 514.907 152.563 513.221 149.618Z" fill="white"/>
<path d="M547.791 125.42C548.49 126.036 549.883 127.279 550.445 127.793C549.291 129.735 548.04 131.638 546.686 133.428L546.554 133.614V161.958H542.942V138.188C542.942 138.188 538.601 142.473 537.77 143.3C537.15 142.488 535.669 140.521 535.17 139.866C539.804 135.947 544.042 131.095 547.791 125.42Z" fill="white"/>
<path d="M547.294 112.33C547.881 112.839 549.128 113.9 549.768 114.458C546.639 118.499 542.773 122.231 538.247 125.568C537.694 124.819 536.384 123.078 535.832 122.363C540.031 119.599 543.878 116.244 547.294 112.33Z" fill="white"/>
<path d="M585 129.648V133.039H576.954V156.99C576.954 158.648 576.558 159.812 575.796 160.453C575.058 161.162 573.645 161.51 571.592 161.51H562.818C562.657 160.796 562.236 158.78 562.007 157.714C563.497 157.792 570.028 158.12 570.028 158.12C572.511 158.12 572.892 156.853 572.892 156.089V133.039H553.159V129.648H585Z" fill="white"/>
<path d="M582.175 118.697H556.005V115.082H582.175V118.697Z" fill="white"/>
<path d="M445.55 134.062H435.226V128.104H445.55V134.062ZM445.55 144.066H435.226V137.007H445.55V144.066ZM425.054 119.885H441.161V125.384H425.054V119.885ZM431.428 134.062H421.545V128.104H431.428V134.062ZM431.428 144.066H421.545V137.007H431.428V144.066ZM457.609 119.885V116.93H444.998V112.317H441.161V116.93H425.054V112.317H421.217V116.93H408.821V119.885H421.217V125.384H411.212V128.104H417.942V134.062H409.041V137.007H417.942V144.066H410.83V146.791H431.428V152.74H412.546V155.464H431.428V161.971H435.222V155.464H454.104V152.74H435.222V146.791H455.825V144.066H449.104V137.007H457.609V134.062H449.104V128.104H454.774V125.384H444.998V119.885H457.609Z" fill="white"/>
</svg>
