<svg width="403" height="144" viewBox="0 0 403 144" fill="none" xmlns="http://www.w3.org/2000/svg">
<path d="M284.584 68.4198C296.635 68.4198 304.149 59.0125 304.149 41.4778C304.149 24.0832 296.546 14.5452 284.458 14.5452C272.608 14.5452 264.776 24.3214 264.776 41.1368C264.776 59.0265 272.188 68.4198 284.584 68.4198ZM284.682 -0.000152588C307.528 -0.000152588 321.978 16.3341 321.978 41.5759C321.978 66.785 307.505 82.9604 284.458 82.9604C261.514 82.9604 247.284 66.7429 247.284 41.2489C247.284 16.1847 261.64 -0.000152588 284.682 -0.000152588ZM199.893 82.7923C189.564 82.8063 182.227 80.8772 176.328 76.323C168.884 70.6385 166.751 64.6036 166.751 51.4036V4.06824C166.751 2.4334 168.118 1.04614 169.766 1.04614H181.905C183.558 1.04614 184.925 2.4334 184.925 4.06824V50.7029C184.925 59.204 185.863 61.5488 189.28 64.3701C192.099 66.6916 195.296 68.0928 199.902 68.0928C204.499 68.0928 207.706 66.7102 210.557 64.3701C213.969 61.5488 214.898 59.204 214.898 50.7029V4.06824C214.898 2.4334 216.293 1.04614 217.932 1.04614H230.066C231.732 1.04614 233.091 2.4334 233.091 4.06824V51.4036C233.091 64.6036 230.92 70.6385 223.528 76.323C217.591 80.8866 210.259 82.7643 199.893 82.7923ZM394.893 42.5288C400.008 46.2282 403 52.6647 403 59.6431C403 66.9531 400.2 72.7825 394.693 77.0517C389.213 81.1528 383.379 82.7269 373.821 82.7269H339.223C337.566 82.7269 336.18 81.3677 336.18 79.6955V4.87631C336.18 3.24615 337.566 1.84954 339.223 1.84954H372.197C382.049 1.84954 386.236 3.02661 390.693 6.34765C395.458 9.82751 398.44 16.1193 398.44 22.3783C398.44 30.3797 395.551 36.2137 389.041 39.3152C391.295 40.0999 392.826 41.0107 394.893 42.5288ZM370.446 34.761C377.657 34.761 381.302 31.2531 381.302 24.7231C381.302 18.3426 377.475 14.4564 371.73 14.4564H354.111V34.761H370.446ZM371.375 70.036C380.938 70.036 384.812 66.4066 384.812 58.807C384.812 51.5484 380.546 47.4846 372.687 47.4846H354.111V70.036H371.375Z" fill="#003E7E"/>
<path d="M64.5941 9.45769V66.3871H76.9109V9.45769C76.9109 5.55745 79.9819 2.38588 83.739 2.38588C87.4914 2.38588 90.5624 5.55745 90.5624 9.45769V66.3871H102.879V9.45769C102.879 5.55745 105.932 2.38588 109.698 2.38588C113.492 2.38588 116.535 5.55745 116.535 9.45769V66.3871H134.411C138.35 66.3871 141.528 69.4232 141.528 73.1927C141.528 76.9621 138.35 80.031 134.411 80.031H116.535V136.932C116.535 140.833 113.492 144 109.698 144C105.932 144 102.879 140.833 102.879 136.932V80.031H90.5624V136.932C90.5624 140.833 87.4914 144 83.739 144C79.9819 144 76.9109 140.833 76.9109 136.932V80.031H64.5941V136.932C64.5941 140.833 61.5324 144 57.7566 144C53.9949 144 50.9192 140.833 50.9192 136.932V80.031H38.5884V136.932C38.5884 140.833 35.5221 144 31.751 144C27.9752 144 24.9322 140.833 24.9322 136.932V80.031H7.05681C3.1457 80.031 0 76.9621 0 73.1927C0 69.4232 3.1457 66.3871 7.05681 66.3871H24.9322V9.45769C24.9322 5.55745 27.9752 2.38588 31.751 2.38588C35.5221 2.38588 38.5884 5.55745 38.5884 9.45769V66.3871H50.9192V9.45769C50.9192 5.55745 53.9949 2.38588 57.7566 2.38588C61.5324 2.38588 64.5941 5.55745 64.5941 9.45769Z" fill="#ED1B2B"/>
<path d="M193.052 94.8617V97.7577C193.052 101.107 192.879 104.283 192.534 107.174L192.44 107.922H214.381V111.794H198.204L198.377 112.597C199.553 118.039 201.303 122.56 203.562 126.04C206.423 130.426 210.288 134.07 215.002 136.924C214.544 137.68 213.083 140.104 212.579 140.955C207.109 137.096 202.914 132.785 200.179 128.109C197.472 123.784 195.511 118.497 194.373 112.336L194.275 111.794H191.801L191.694 112.331C190.956 115.83 189.943 119.043 188.66 121.85C185.934 128.021 180.562 134.406 172.759 140.828C172.147 140.305 170.07 138.521 169.249 137.816C176.544 132.57 181.804 126.862 184.819 120.823C186.032 118.599 186.998 115.83 187.684 112.593L187.857 111.794H169.926V107.922H188.431L188.492 107.328C188.814 104.418 188.977 101.196 188.977 97.7577V94.8617H193.052Z" fill="#003E7E"/>
<path d="M303.271 94.4148C306.188 97.0212 308.816 99.7817 311.121 102.622C310.538 103.178 309.217 104.439 308.587 105.041C306.034 101.842 303.854 99.3286 302.151 97.6845L301.558 97.1146L301.129 97.8059C299.378 100.604 297.376 103.36 295.187 106.013L294.277 107.101H294.357C294.137 107.349 292.345 109.329 291.622 110.137C291.197 108.899 290.548 106.863 290.385 106.386C293.712 103.093 296.793 99.0764 299.537 94.4148H303.271Z" fill="#003E7E"/>
<path d="M308.285 107.101V110.128H302.67V115.812H310.147V118.844H302.67V135.234C302.67 135.234 308.798 133.585 310.147 133.221V136.402C304.458 138.102 298.106 139.48 291.268 140.489C291.152 139.653 290.914 137.878 290.82 137.061C293.411 136.841 296.118 136.495 298.89 135.982L299.436 135.869V118.844H291.152V115.812H299.436V110.128H294.493V107.101H308.285Z" fill="#003E7E"/>
<path d="M294.347 123.139C295.107 125.437 295.644 128.468 295.962 132.182C295.149 132.252 293.563 132.406 292.746 132.476C292.606 128.725 292.242 125.694 291.705 123.386C292.489 123.312 293.693 123.204 294.347 123.139Z" fill="#003E7E"/>
<path d="M307.477 122.691C308.187 122.729 309.508 122.799 310.296 122.827C310.147 125.503 309.69 128.082 308.906 130.543C308.159 130.347 306.796 130.006 306.017 129.805C306.908 127.395 307.393 125.017 307.477 122.691Z" fill="#003E7E"/>
<path d="M316.778 108.271H331.153V115.591H316.778V108.271ZM316.778 99.1348H331.153V105.618H316.778V99.1348ZM329.869 129.818L329.487 129.155L330.187 128.875C332.824 127.786 335.209 126.268 337.342 124.423C336.726 123.788 335.573 122.62 335.027 122.069C333.141 123.952 331.134 125.47 329.029 126.474L328.371 126.787L328.119 126.105C327.391 124.152 326.868 121.822 326.551 119.154L326.448 118.416H334.392V96.3276H313.544V136.969L313.534 137.516C313.534 137.516 311.602 137.899 310.809 138.062C311.047 138.88 311.481 140.375 311.7 141.113C316.871 139.926 321.571 138.637 325.692 137.268V134.298C324.283 134.681 316.778 136.783 316.778 136.783V118.416H323.699L323.723 119.042C323.933 123.036 324.89 126.735 326.598 130.07C328.082 133.518 331.092 137.334 335.475 141.393C336.068 140.79 337.552 139.286 338.21 138.618C334.308 135.592 331.48 132.63 329.869 129.818Z" fill="#003E7E"/>
<path d="M362.878 106.713C363.545 107.302 364.875 108.488 365.412 108.978C364.311 110.833 363.116 112.65 361.823 114.359L361.697 114.537V141.6H358.248V118.904C358.248 118.904 354.104 122.996 353.31 123.785C352.717 123.01 351.303 121.132 350.827 120.506C355.252 116.765 359.298 112.131 362.878 106.713Z" fill="#003E7E"/>
<path d="M362.405 94.2144C362.965 94.7002 364.155 95.7138 364.766 96.2463C361.779 100.104 358.087 103.668 353.766 106.854C353.238 106.139 351.987 104.476 351.46 103.795C355.469 101.155 359.142 97.9512 362.405 94.2144Z" fill="#003E7E"/>
<path d="M398.406 110.751V113.987H390.724V136.856C390.724 138.44 390.346 139.552 389.618 140.163C388.913 140.841 387.564 141.172 385.604 141.172H377.226C377.072 140.49 376.671 138.566 376.452 137.548C377.875 137.622 384.11 137.935 384.11 137.935C386.481 137.935 386.845 136.726 386.845 135.997V113.987H368.004V110.751H398.406Z" fill="#003E7E"/>
<path d="M395.709 100.293H370.721V96.8416H395.709V100.293Z" fill="#003E7E"/>
<path d="M265.256 114.965H255.399V109.275H265.256V114.965ZM265.256 124.517H255.399V117.776H265.256V124.517ZM245.686 101.428H261.065V106.678H245.686V101.428ZM251.772 114.965H242.335V109.275H251.772V114.965ZM251.772 124.517H242.335V117.776H251.772V124.517ZM276.77 101.428V98.6069H264.728V94.2022H261.065V98.6069H245.686V94.2022H242.023V98.6069H230.187V101.428H242.023V106.678H232.469V109.275H238.896V114.965H230.397V117.776H238.896V124.517H232.105V127.118H251.772V132.798H233.743V135.4H251.772V141.612H255.394V135.4H273.423V132.798H255.394V127.118H275.066V124.517H268.649V117.776H276.77V114.965H268.649V109.275H274.063V106.678H264.728V101.428H276.77Z" fill="#003E7E"/>
</svg>
