<svg width="500" height="350" viewBox="0 0 500 350" fill="none" xmlns="http://www.w3.org/2000/svg">
<rect width="500" height="350" rx="15" fill="white"/>
<path d="M244.297 36.4918V88.7526H255.603V36.4918C255.603 32.9115 258.423 30 261.872 30C265.316 30 268.135 32.9115 268.135 36.4918V88.7526H279.442V36.4918C279.442 32.9115 282.244 30 285.702 30C289.185 30 291.978 32.9115 291.978 36.4918V88.7526H308.388C312.004 88.7526 314.922 91.5397 314.922 95C314.922 98.4603 312.004 101.277 308.388 101.277H291.978V153.512C291.978 157.093 289.185 160 285.702 160C282.244 160 279.442 157.093 279.442 153.512V101.277H268.135V153.512C268.135 157.093 265.316 160 261.872 160C258.423 160 255.603 157.093 255.603 153.512V101.277H244.297V153.512C244.297 157.093 241.486 160 238.02 160C234.567 160 231.743 157.093 231.743 153.512V101.277H220.424V153.512C220.424 157.093 217.609 160 214.147 160C210.681 160 207.888 157.093 207.888 153.512V101.277H191.478C187.888 101.277 185 98.4603 185 95C185 91.5397 187.888 88.7526 191.478 88.7526H207.888V36.4918C207.888 32.9115 210.681 30 214.147 30C217.609 30 220.424 32.9115 220.424 36.4918V88.7526H231.743V36.4918C231.743 32.9115 234.567 30 238.02 30C241.486 30 244.297 32.9115 244.297 36.4918Z" fill="#ED1B2B"/>
<path d="M249.704 246.506C261.946 246.506 269.579 236.95 269.579 219.137C269.579 201.466 261.856 191.776 249.576 191.776C237.537 191.776 229.582 201.708 229.582 218.79C229.582 236.964 237.111 246.506 249.704 246.506ZM249.803 177C273.012 177 287.691 193.594 287.691 219.236C287.691 244.846 272.988 261.278 249.576 261.278C226.267 261.278 211.811 244.803 211.811 218.904C211.811 193.442 226.395 177 249.803 177ZM163.668 261.107C153.175 261.121 145.722 259.162 139.729 254.535C132.167 248.76 130 242.63 130 229.22V181.133C130 179.472 131.389 178.063 133.063 178.063H145.395C147.073 178.063 148.463 179.472 148.463 181.133V228.508C148.463 237.144 149.416 239.526 152.886 242.392C155.75 244.751 158.998 246.174 163.677 246.174C168.348 246.174 171.605 244.77 174.502 242.392C177.968 239.526 178.911 237.144 178.911 228.508V181.133C178.911 179.472 180.329 178.063 181.993 178.063H194.321C196.013 178.063 197.393 179.472 197.393 181.133V229.22C197.393 242.63 195.188 248.76 187.678 254.535C181.647 259.171 174.198 261.079 163.668 261.107ZM361.764 220.204C366.961 223.962 370 230.501 370 237.59C370 245.016 367.155 250.938 361.56 255.275C355.994 259.441 350.068 261.041 340.357 261.041H305.21C303.527 261.041 302.119 259.66 302.119 257.961V181.954C302.119 180.298 303.527 178.879 305.21 178.879H338.707C348.716 178.879 352.969 180.075 357.497 183.449C362.338 186.984 365.368 193.375 365.368 199.734C365.368 207.862 362.433 213.789 355.819 216.94C358.109 217.737 359.664 218.662 361.764 220.204ZM336.929 212.313C344.255 212.313 347.958 208.75 347.958 202.116C347.958 195.634 344.07 191.686 338.233 191.686H320.335V212.313H336.929ZM337.873 248.148C347.588 248.148 351.523 244.461 351.523 236.741C351.523 229.367 347.19 225.239 339.205 225.239H320.335V248.148H337.873Z" fill="#0863BA"/>
<path d="M154.929 271.008V274.041C154.929 277.548 154.748 280.875 154.386 283.903L154.289 284.686H177.267V288.741H160.325L160.506 289.583C161.738 295.282 163.571 300.017 165.937 303.662C168.933 308.255 172.981 312.071 177.917 315.06C177.438 315.852 175.908 318.391 175.381 319.282C169.652 315.241 165.257 310.726 162.393 305.829C159.558 301.299 157.505 295.761 156.312 289.309L156.21 288.741H153.619L153.507 289.304C152.734 292.968 151.674 296.334 150.329 299.274C147.475 305.736 141.849 312.423 133.676 319.15C133.035 318.602 130.86 316.733 130 315.994C137.64 310.501 143.149 304.523 146.307 298.197C147.577 295.869 148.589 292.968 149.308 289.578L149.489 288.741H130.709V284.686H150.09L150.153 284.065C150.491 281.017 150.662 277.641 150.662 274.041V271.008H154.929Z" fill="#0863BA"/>
<path d="M270.364 270.54C273.419 273.27 276.171 276.161 278.586 279.135C277.975 279.717 276.591 281.038 275.932 281.669C273.258 278.318 270.975 275.686 269.191 273.964L268.57 273.368L268.12 274.092C266.287 277.022 264.19 279.908 261.898 282.687L260.945 283.827H261.028C260.798 284.086 258.921 286.16 258.163 287.006C257.719 285.71 257.039 283.577 256.868 283.078C260.353 279.629 263.579 275.422 266.454 270.54H270.364Z" fill="#0863BA"/>
<path d="M275.615 283.826V286.996H269.735V292.95H277.566V296.125H269.735V313.291C269.735 313.291 276.153 311.564 277.566 311.182V314.514C271.607 316.294 264.954 317.738 257.793 318.794C257.671 317.919 257.422 316.06 257.324 315.203C260.037 314.974 262.872 314.612 265.776 314.073L266.348 313.956V296.125H257.671V292.95H266.348V286.996H261.171V283.826H275.615Z" fill="#0863BA"/>
<path d="M261.018 300.623C261.814 303.03 262.376 306.205 262.709 310.094C261.858 310.167 260.196 310.329 259.341 310.402C259.194 306.474 258.813 303.299 258.251 300.882C259.072 300.804 260.333 300.692 261.018 300.623Z" fill="#0863BA"/>
<path d="M274.768 300.154C275.511 300.193 276.895 300.267 277.721 300.296C277.564 303.099 277.085 305.8 276.264 308.378C275.482 308.172 274.055 307.815 273.238 307.605C274.172 305.081 274.68 302.591 274.768 300.154Z" fill="#0863BA"/>
<path d="M284.51 285.052H299.565V292.718H284.51V285.052ZM284.51 275.483H299.565V282.273H284.51V275.483ZM298.221 307.618L297.82 306.924L298.553 306.63C301.315 305.49 303.812 303.901 306.046 301.968C305.401 301.303 304.194 300.08 303.622 299.503C301.647 301.474 299.545 303.064 297.341 304.116L296.652 304.444L296.388 303.729C295.625 301.685 295.078 299.243 294.745 296.45L294.638 295.677H302.957V272.543H281.122V315.108L281.112 315.68C281.112 315.68 279.089 316.082 278.258 316.253C278.507 317.109 278.962 318.674 279.191 319.447C284.607 318.205 289.53 316.854 293.846 315.421V312.31C292.37 312.711 284.51 314.912 284.51 314.912V295.677H291.759L291.783 296.333C292.003 300.515 293.005 304.39 294.794 307.883C296.348 311.493 299.501 315.49 304.091 319.741C304.712 319.11 306.266 317.534 306.956 316.835C302.869 313.665 299.907 310.563 298.221 307.618Z" fill="#0863BA"/>
<path d="M332.791 283.42C333.49 284.036 334.883 285.279 335.445 285.793C334.291 287.735 333.04 289.638 331.686 291.428L331.554 291.614V319.958H327.942V296.188C327.942 296.188 323.601 300.473 322.77 301.3C322.15 300.488 320.669 298.521 320.17 297.866C324.804 293.947 329.042 289.095 332.791 283.42Z" fill="#0863BA"/>
<path d="M332.294 270.33C332.881 270.839 334.128 271.9 334.768 272.458C331.639 276.499 327.773 280.231 323.247 283.568C322.694 282.819 321.384 281.078 320.832 280.363C325.031 277.599 328.878 274.244 332.294 270.33Z" fill="#0863BA"/>
<path d="M370 287.648V291.039H361.954V314.99C361.954 316.648 361.558 317.812 360.796 318.453C360.058 319.162 358.645 319.51 356.592 319.51H347.818C347.657 318.796 347.236 316.78 347.007 315.714C348.497 315.792 355.028 316.12 355.028 316.12C357.511 316.12 357.892 314.853 357.892 314.089V291.039H338.159V287.648H370Z" fill="#0863BA"/>
<path d="M367.175 276.697H341.005V273.082H367.175V276.697Z" fill="#0863BA"/>
<path d="M230.55 292.062H220.226V286.104H230.55V292.062ZM230.55 302.066H220.226V295.007H230.55V302.066ZM210.054 277.885H226.161V283.384H210.054V277.885ZM216.428 292.062H206.545V286.104H216.428V292.062ZM216.428 302.066H206.545V295.007H216.428V302.066ZM242.609 277.885V274.93H229.998V270.317H226.161V274.93H210.054V270.317H206.217V274.93H193.821V277.885H206.217V283.384H196.212V286.104H202.942V292.062H194.041V295.007H202.942V302.066H195.83V304.791H216.428V310.74H197.546V313.464H216.428V319.971H220.222V313.464H239.104V310.74H220.222V304.791H240.825V302.066H234.104V295.007H242.609V292.062H234.104V286.104H239.774V283.384H229.998V277.885H242.609Z" fill="#0863BA"/>
</svg>
