<svg width="180" height="180" viewBox="0 0 180 180" fill="none" xmlns="http://www.w3.org/2000/svg">
<circle cx="90" cy="90" r="90" fill="#EA1F33"/>
<path fill-rule="evenodd" clip-rule="evenodd" d="M61.4386 64.3133L30.5555 43.5025C35.5245 36.6859 41.5589 30.5829 48.6587 25.9196L75.2828 53.5511C69.9581 56.0612 64.9895 59.6499 61.4386 64.3133ZM53.2734 84.0519L18.1295 70.4162C20.2606 61.8032 23.4557 53.9079 28.0705 46.7344L59.6632 66.4706C56.1143 71.4909 53.9846 77.5942 53.2734 84.0519ZM95.5168 100.201L57.5339 85.487C58.5977 79.7466 61.0844 74.005 64.6321 69.3416L95.5168 89.0766V100.201ZM95.5168 87.2818L66.0534 67.5452C69.6027 63.2387 74.2174 60.0108 79.5418 57.8576L95.5168 74.005V87.2818ZM20.2606 112.761C17.4212 104.866 16 96.6118 16 88.0012C16 82.9765 16.3557 78.3115 17.4212 73.6482L53.2734 86.5645C53.2734 86.9238 53.2734 87.2818 53.2734 88.0012C53.2734 96.6118 56.1143 104.866 61.4386 111.324H61.7928C58.5978 105.584 56.8239 99.124 56.8239 92.3065C56.8239 90.8714 56.8239 89.4347 57.1781 88.0012L95.5168 101.637V112.761H20.2606ZM22.7457 119.579C22.3899 118.144 21.6803 116.709 20.9703 115.273H43.3339L47.239 119.579H80.2534L73.1532 127.116H32.331C31.2652 123.168 27.3605 119.938 22.7457 119.579ZM107.231 121.374C109.717 119.938 112.2 118.144 114.332 116.349C115.751 115.273 117.171 113.838 118.236 112.402C123.915 105.584 127.466 97.3296 127.466 88.0012C127.466 67.1884 110.781 50.3191 90.1925 50.3191C85.9335 50.3191 81.673 51.0409 78.1221 52.4764L52.2092 23.4095C63.2141 16.9497 76.3483 13 90.1925 13C131.37 13 164.383 46.3735 164.383 88.0012C164.383 129.268 131.37 163 90.1925 163C69.9581 163 51.4995 154.745 38.0096 141.11H128.885L129.595 140.391L33.749 136.444L33.039 135.728H134.566L134.92 135.01L28.7801 129.986L28.4243 129.626H69.6027C69.6027 129.626 90.5467 130.344 107.231 121.374Z" fill="white"/>
</svg>
