<svg width="800" height="180" viewBox="0 0 800 180" fill="none" xmlns="http://www.w3.org/2000/svg">
<rect width="800" height="180" rx="15" fill="#EA1F33"/>
<path fill-rule="evenodd" clip-rule="evenodd" d="M568.105 104.954C568.105 98.2201 563.982 91.4844 556.049 89.8804V89.5608C562.394 87.3153 566.836 81.2225 566.836 74.8098C566.836 63.905 558.587 58.1318 543.996 58.1318C535.428 58.1318 526.544 58.1318 520.833 58.4507V125.48C529.401 125.48 536.697 125.8 540.823 125.8C561.444 125.8 568.105 114.575 568.105 104.954ZM552.879 76.7341C552.879 82.8265 548.438 86.3542 539.235 86.3542C537.331 86.3542 535.747 86.3542 534.159 86.3542V68.7141C536.381 68.7141 538.919 68.3951 541.773 68.3951C550.022 68.3951 552.879 71.9214 552.879 76.7341ZM554.145 105.276C554.145 111.369 549.707 115.218 541.139 115.218C538.285 115.218 535.747 114.897 534.159 114.897V95.975C535.428 95.975 538.919 95.975 539.869 95.975C548.438 95.975 554.145 98.5401 554.145 105.276Z" fill="white"/>
<path fill-rule="evenodd" clip-rule="evenodd" d="M616.326 125.48C616.01 121.631 616.01 116.82 616.01 112.971V92.127C616.01 81.5422 611.249 75.1284 595.389 75.1284C588.725 75.1284 582.379 76.4113 577.303 78.0131L578.576 88.919C582.698 86.3539 588.725 85.0699 593.167 85.0699C600.466 85.0699 603 87.6365 603 92.7681V95.3332C585.871 95.3332 574.134 101.748 574.134 113.614C574.134 121.631 579.207 126.441 588.409 126.441C596.02 126.441 602.05 122.593 604.588 117.141C604.273 119.707 603.954 122.593 603.954 125.48H616.326ZM603 104.954C603 110.727 598.558 116.82 592.217 116.82C588.725 116.82 586.506 114.896 586.506 111.69C586.506 107.519 589.359 103.671 603 103.671V104.954Z" fill="white"/>
<path fill-rule="evenodd" clip-rule="evenodd" d="M671.528 125.48V90.8433C671.528 82.185 668.04 75.1286 656.618 75.1286C648.369 75.1286 642.658 79.2999 639.485 85.0701C640.12 82.185 640.12 78.3359 640.12 76.089H628.063V125.48H640.754V101.748C640.754 93.0884 646.146 85.7127 652.492 85.7127C657.253 85.7127 658.837 88.9192 658.837 94.0509V125.48H671.528Z" fill="white"/>
<path fill-rule="evenodd" clip-rule="evenodd" d="M728 125.48L709.282 98.8615L726.731 76.089H710.867L696.276 96.616V53.0001H683.585V125.48H696.276V101.107L711.821 125.48H728Z" fill="white"/>
<path fill-rule="evenodd" clip-rule="evenodd" d="M316.525 90.8443C316.525 67.4321 302.248 57.1688 283.531 57.1688C263.862 57.1688 248 70.9583 248 92.7694C248 113.935 258.786 126.763 280.993 126.763C300.662 126.763 316.525 112.972 316.525 90.8443ZM299.075 92.1283C299.075 107.201 289.876 112.652 281.944 112.652C270.524 112.652 265.448 104.635 265.448 91.4854C265.448 77.6955 273.697 71.2809 282.262 71.2809C293.048 71.2809 299.075 78.3369 299.075 92.1283Z" fill="white"/>
<path fill-rule="evenodd" clip-rule="evenodd" d="M374.582 123.876L372.678 110.086C369.188 111.368 363.795 112.331 359.989 112.331C346.981 112.331 341.271 104.954 341.271 91.8056C341.271 79.6186 347.616 71.9211 359.354 71.9211C363.795 71.9211 368.237 72.5625 372.361 73.8455L374.264 59.737C369.824 58.4505 364.431 58.1315 359.672 58.1315C335.878 58.1315 323.188 72.5625 323.188 94.3707C323.188 109.765 330.485 126.441 356.815 126.441C362.844 126.441 369.188 125.48 374.582 123.876Z" fill="white"/>
<path fill-rule="evenodd" clip-rule="evenodd" d="M437.715 104.634C437.715 97.8986 433.276 91.4844 425.977 89.8804V89.5608C432.323 86.9957 436.445 81.2225 436.445 75.1287C436.445 63.905 427.246 58.1318 411.7 58.1318C402.818 58.1318 392.032 58.1318 385.37 58.4507V125.48C395.838 125.48 403.77 125.8 408.211 125.8C429.15 125.8 437.715 115.218 437.715 104.634ZM418.998 77.372C418.998 82.5051 414.874 85.3916 406.942 85.3916C405.039 85.3916 403.452 85.3916 402.185 85.3916V70.6385C404.088 70.6385 406.307 70.6385 408.846 70.6385C415.826 70.6385 418.998 73.2043 418.998 77.372ZM419.95 104.954C419.95 110.086 415.826 113.293 408.528 113.293C405.991 113.293 403.452 112.971 402.185 112.971V96.9361C403.452 96.9361 406.625 96.9361 407.578 96.9361C415.19 96.9361 419.95 99.5026 419.95 104.954Z" fill="white"/>
<path fill-rule="evenodd" clip-rule="evenodd" d="M496.09 123.876L494.186 110.086C490.698 111.368 485.303 112.331 481.815 112.331C468.808 112.331 463.097 104.954 463.097 91.8056C463.097 79.6186 469.443 71.9211 480.861 71.9211C485.303 71.9211 489.745 72.5625 493.871 73.8455L495.771 59.737C491.333 58.4505 486.256 58.1315 481.18 58.1315C457.386 58.1315 444.695 72.5625 444.695 94.3707C444.695 109.765 451.994 126.441 478.326 126.441C484.672 126.441 491.014 125.48 496.09 123.876Z" fill="white"/>
<path fill-rule="evenodd" clip-rule="evenodd" d="M95.4386 66.3133L64.5555 45.5025C69.5245 38.6859 75.5589 32.5829 82.6587 27.9196L109.283 55.5511C103.958 58.0612 98.9895 61.6499 95.4386 66.3133ZM87.2734 86.0519L52.1295 72.4162C54.2606 63.8032 57.4557 55.9079 62.0705 48.7344L93.6632 68.4706C90.1143 73.4909 87.9846 79.5942 87.2734 86.0519ZM129.517 102.201L91.5339 87.487C92.5977 81.7466 95.0844 76.005 98.6321 71.3416L129.517 91.0766V102.201ZM129.517 89.2818L100.053 69.5452C103.603 65.2387 108.217 62.0108 113.542 59.8576L129.517 76.005V89.2818ZM54.2606 114.761C51.4212 106.866 50 98.6118 50 90.0012C50 84.9765 50.3557 80.3115 51.4212 75.6482L87.2734 88.5645C87.2734 88.9238 87.2734 89.2818 87.2734 90.0012C87.2734 98.6118 90.1143 106.866 95.4386 113.324H95.7928C92.5978 107.584 90.8239 101.124 90.8239 94.3065C90.8239 92.8714 90.8239 91.4347 91.1781 90.0012L129.517 103.637V114.761H54.2606ZM56.7457 121.579C56.3899 120.144 55.6803 118.709 54.9703 117.273H77.3339L81.239 121.579H114.253L107.153 129.116H66.331C65.2652 125.168 61.3605 121.938 56.7457 121.579ZM141.231 123.374C143.717 121.938 146.2 120.144 148.332 118.349C149.751 117.273 151.171 115.838 152.236 114.402C157.915 107.584 161.466 99.3296 161.466 90.0012C161.466 69.1884 144.781 52.3191 124.192 52.3191C119.934 52.3191 115.673 53.0409 112.122 54.4764L86.2092 25.4095C97.2141 18.9497 110.348 15 124.192 15C165.37 15 198.383 48.3735 198.383 90.0012C198.383 131.268 165.37 165 124.192 165C103.958 165 85.4995 156.745 72.0096 143.11H162.885L163.595 142.391L67.749 138.444L67.039 137.728H168.566L168.92 137.01L62.7801 131.986L62.4243 131.626H103.603C103.603 131.626 124.547 132.344 141.231 123.374Z" fill="white"/>
</svg>
