<svg width="368" height="151" viewBox="0 0 368 151" fill="none" xmlns="http://www.w3.org/2000/svg">
<path d="M368 151H0V84.0111H368V151Z" fill="#ED1C24"/>
<path d="M29.3248 121.315L33.1691 110.115L37.0135 121.315H29.3248ZM37.9678 101.957H28.6345L17.0216 133.404H25.1999L27.3943 127.032H38.944L41.1412 133.404H49.5807L37.9678 101.957Z" fill="#FFF200"/>
<path d="M74.3793 116.528V133.404H66.7923V121.51C66.7923 120.352 66.762 119.366 66.707 118.554C66.652 117.74 66.498 117.079 66.245 116.57C65.992 116.063 65.6098 115.692 65.0983 115.458C64.5841 115.227 63.8663 115.108 62.9396 115.108C62.1971 115.108 61.4712 115.26 60.7699 115.562C60.0687 115.868 59.4362 116.19 58.878 116.528V133.404H51.2882V109.716H58.878V112.262C60.1787 111.233 61.4244 110.429 62.6151 109.851C63.8059 109.273 65.1231 108.981 66.564 108.981C68.1205 108.981 69.4927 109.331 70.6834 110.03C71.8741 110.729 72.8063 111.756 73.4773 113.11C74.9898 111.827 76.461 110.817 77.8882 110.085C79.3182 109.35 80.7179 108.981 82.0901 108.981C84.6393 108.981 86.5752 109.752 87.8979 111.291C89.2206 112.826 89.8834 115.042 89.8834 117.932V133.404H82.2963V121.51C82.2963 120.338 82.2688 119.35 82.2193 118.541C82.1726 117.737 82.0213 117.079 81.7683 116.57C81.5291 116.063 81.1524 115.692 80.6326 115.458C80.1129 115.227 79.3814 115.108 78.4437 115.108C77.8112 115.108 77.1925 115.218 76.5902 115.439C75.988 115.656 75.2483 116.019 74.3793 116.528Z" fill="#FFF200"/>
<path d="M111.176 112.62C110.951 113.14 110.475 113.559 109.749 113.886C109.229 114.126 108.52 114.269 107.623 114.307C106.727 114.354 105.643 114.373 104.37 114.373H103.108V107.677H103.864C105.448 107.677 106.677 107.688 107.552 107.71C108.426 107.729 109.158 107.856 109.749 108.081C110.403 108.337 110.863 108.725 111.121 109.248C111.382 109.774 111.512 110.3 111.512 110.823C111.512 111.503 111.402 112.1 111.176 112.62ZM120.069 118.692C118.862 117.409 117.234 116.564 115.177 116.154V115.989C116.632 115.342 117.759 114.439 118.557 113.281C119.354 112.116 119.753 110.779 119.753 109.259C119.753 107.952 119.462 106.788 118.881 105.766C118.298 104.748 117.41 103.936 116.217 103.331C115.067 102.753 113.907 102.384 112.735 102.213C111.564 102.045 109.716 101.96 107.191 101.96H95.0312V133.404H108.726C111 133.404 112.881 133.208 114.363 132.812C115.843 132.418 117.204 131.755 118.439 130.822C119.508 130.035 120.344 129.044 120.958 127.844C121.568 126.649 121.876 125.287 121.876 123.762C121.876 121.667 121.271 119.975 120.069 118.692ZM112.999 125.689C112.683 126.28 112.106 126.754 111.267 127.109C110.442 127.467 109.54 127.651 108.561 127.665C107.582 127.679 105.959 127.684 103.696 127.684H103.108V119.765H104.87C106.072 119.765 107.224 119.771 108.333 119.787C109.435 119.798 110.302 119.897 110.931 120.085C111.855 120.354 112.507 120.764 112.892 121.312C113.277 121.86 113.469 122.639 113.469 123.649C113.469 124.42 113.313 125.1 112.999 125.689Z" fill="#FFF200"/>
<path d="M137.351 128.524C136.592 128.835 135.844 128.992 135.104 128.992C134.178 128.992 133.493 128.926 133.056 128.788C132.618 128.654 132.242 128.444 131.928 128.161C131.601 127.877 131.395 127.58 131.312 127.266C131.23 126.953 131.191 126.545 131.191 126.05C131.191 125.296 131.384 124.687 131.774 124.228C132.165 123.762 132.728 123.41 133.465 123.171C134.065 122.97 134.948 122.799 136.111 122.648C137.271 122.499 138.352 122.381 139.35 122.295V127.286C138.776 127.798 138.11 128.213 137.351 128.524ZM139.35 133.404H146.94V117.25C146.94 114.401 145.983 112.312 144.075 110.983C142.166 109.648 139.064 108.982 134.772 108.982C132.965 108.982 131.166 109.128 129.371 109.411C127.572 109.7 126.274 109.948 125.48 110.157V115.844H126.167C126.775 115.601 127.784 115.252 129.187 114.803C130.589 114.355 131.906 114.129 133.144 114.129C135.198 114.129 136.754 114.385 137.81 114.897C138.866 115.409 139.392 116.334 139.392 117.674V117.803C137.183 117.93 135.052 118.131 132.998 118.398C130.944 118.67 129.22 119.122 127.834 119.76C126.431 120.396 125.348 121.271 124.583 122.375C123.819 123.482 123.439 124.907 123.439 126.65C123.439 128.835 124.187 130.627 125.689 132.034C127.187 133.435 129.046 134.139 131.268 134.139C132.214 134.139 133.083 134.043 133.872 133.856C134.664 133.666 135.426 133.399 136.163 133.044C136.691 132.793 137.252 132.446 137.849 132.012C138.446 131.574 138.946 131.202 139.35 130.891V133.404Z" fill="#FFF200"/>
<path d="M175.378 133.403H167.788V121.595C167.788 120.634 167.741 119.679 167.64 118.724C167.541 117.769 167.373 117.064 167.134 116.613C166.853 116.09 166.441 115.71 165.899 115.47C165.357 115.228 164.601 115.107 163.63 115.107C162.94 115.107 162.242 115.22 161.532 115.448C160.823 115.674 160.05 116.035 159.222 116.527V133.403H151.632V109.718H159.222V112.264C160.567 111.204 161.859 110.392 163.102 109.828C164.345 109.264 165.723 108.983 167.238 108.983C169.79 108.983 171.784 109.729 173.222 111.226C174.657 112.721 175.378 114.956 175.378 117.934V133.403Z" fill="#FFF200"/>
<path d="M205.165 133.403H196.39L189.705 123.042L187.621 125.594V133.403H180.034V100.569H187.621V120.073L195.752 109.718H204.596L196.036 119.927L205.165 133.403Z" fill="#FFF200"/>
<path d="M247.181 131.607C245.778 132.154 243.919 132.702 241.607 133.244C239.289 133.784 236.984 134.056 234.685 134.056C229.353 134.056 225.182 132.603 222.165 129.691C219.148 126.782 217.641 122.758 217.641 117.63C217.641 112.736 219.162 108.794 222.203 105.8C225.242 102.805 229.48 101.305 234.913 101.305C236.973 101.305 238.934 101.492 240.798 101.864C242.663 102.238 244.733 102.976 247.019 104.085V111.434H246.114C245.723 111.145 245.149 110.738 244.392 110.212C243.636 109.686 242.91 109.24 242.212 108.869C241.401 108.431 240.449 108.054 239.366 107.74C238.282 107.427 237.13 107.267 235.912 107.267C234.485 107.267 233.189 107.479 232.032 107.903C230.868 108.327 229.823 108.973 228.902 109.846C228.019 110.691 227.324 111.764 226.815 113.069C226.301 114.374 226.048 115.877 226.048 117.583C226.048 121.062 226.963 123.726 228.792 125.571C230.624 127.415 233.327 128.34 236.904 128.34C237.212 128.34 237.553 128.334 237.922 128.318C238.29 128.304 238.631 128.285 238.939 128.254V122.05H232.738V116.088H247.181V131.607Z" fill="#FFF200"/>
<path d="M268.826 117.069H268.152C267.83 116.959 267.31 116.876 266.598 116.824C265.88 116.769 265.286 116.741 264.811 116.741C263.73 116.741 262.776 116.81 261.948 116.95C261.12 117.093 260.232 117.327 259.278 117.663V133.402H251.691V109.717H259.278V113.199C260.947 111.765 262.396 110.826 263.631 110.383C264.866 109.94 265.999 109.717 267.038 109.717C267.302 109.717 267.605 109.725 267.94 109.739C268.278 109.755 268.573 109.775 268.826 109.802V117.069Z" fill="#FFF200"/>
<path d="M284.041 128.482C283.416 128.716 282.762 128.829 282.072 128.829C281.269 128.829 280.554 128.702 279.932 128.452C279.305 128.198 278.766 127.799 278.318 127.251C277.853 126.676 277.504 125.917 277.265 124.97C277.025 124.023 276.91 122.903 276.91 121.612C276.91 120.167 277.045 118.969 277.32 118.017C277.592 117.062 277.96 116.311 278.425 115.763C278.945 115.176 279.489 114.783 280.059 114.585C280.628 114.392 281.277 114.29 282.008 114.29C282.737 114.29 283.419 114.411 284.052 114.651C284.684 114.887 285.223 115.295 285.677 115.87C286.125 116.432 286.477 117.183 286.727 118.122C286.98 119.06 287.109 120.224 287.109 121.612C287.109 123.112 286.983 124.29 286.738 125.138C286.493 125.988 286.125 126.712 285.633 127.315C285.195 127.862 284.667 128.251 284.041 128.482ZM291.564 112.355C289.315 110.109 286.13 108.984 282.008 108.984C277.941 108.984 274.768 110.101 272.494 112.336C270.214 114.571 269.075 117.648 269.075 121.57C269.075 125.465 270.208 128.534 272.472 130.775C274.735 133.018 277.914 134.138 282.008 134.138C286.103 134.138 289.282 133.018 291.545 130.775C293.811 128.534 294.941 125.465 294.941 121.57C294.941 117.678 293.816 114.604 291.564 112.355Z" fill="#FFF200"/>
<path d="M321.652 133.403H314.065V130.857C312.662 131.931 311.378 132.745 310.215 133.301C309.051 133.86 307.66 134.138 306.049 134.138C303.442 134.138 301.431 133.384 300.021 131.876C298.613 130.364 297.909 128.135 297.909 125.187V109.718H305.496V121.526C305.496 122.729 305.534 123.728 305.611 124.527C305.688 125.325 305.867 125.985 306.15 126.508C306.417 127.031 306.824 127.414 307.363 127.653C307.905 127.893 308.661 128.014 309.632 128.014C310.281 128.014 310.996 127.893 311.785 127.653C312.571 127.414 313.33 127.059 314.065 126.591V109.718H321.652V133.403Z" fill="#FFF200"/>
<path d="M341.885 126.732C340.9 127.913 339.402 128.502 337.391 128.502C336.828 128.502 336.258 128.474 335.684 128.417C335.106 128.362 334.564 128.232 334.058 128.034V116.053C334.749 115.645 335.472 115.329 336.231 115.111C336.99 114.891 337.73 114.784 338.447 114.784C340.147 114.784 341.393 115.304 342.179 116.35C342.968 117.396 343.361 119.08 343.361 121.398C343.361 123.773 342.869 125.551 341.885 126.732ZM348.735 112.243C347.096 110.069 344.8 108.982 341.846 108.982C340.254 108.982 338.852 109.287 337.633 109.887C336.418 110.493 335.224 111.258 334.058 112.185V109.717H326.471V142.058H334.058V132.248C335.043 132.768 336.008 133.17 336.949 133.459C337.892 133.748 339.039 133.894 340.392 133.894C341.854 133.894 343.227 133.61 344.505 133.046C345.784 132.479 346.931 131.648 347.943 130.544C348.914 129.501 349.7 128.174 350.297 126.561C350.893 124.954 351.193 123.168 351.193 121.205C351.193 117.407 350.374 114.42 348.735 112.243Z" fill="#FFF200"/>
<path d="M170.547 42.504C168.155 45.2785 164.629 47.0318 160.678 47.0318C153.495 47.0318 147.676 41.2104 147.676 34.021C147.676 26.8344 153.495 21.0102 160.678 21.0102C167.86 21.0102 173.685 26.8344 173.685 34.021V67.1714H193.822L193.806 34.1586C193.806 15.8411 178.976 0.999954 160.678 0.999954C142.388 0.999954 127.558 15.8411 127.558 34.1586C127.558 52.4706 142.388 67.3118 160.678 67.3118C164.107 67.3118 167.418 66.7916 170.531 65.8172L170.547 42.504Z" fill="#ED1C24"/>
<path d="M170.547 42.504C168.155 45.2785 164.629 47.0318 160.678 47.0318C153.495 47.0318 147.676 41.2104 147.676 34.021C147.676 26.8344 153.495 21.0102 160.678 21.0102C167.86 21.0102 173.685 26.8344 173.685 34.021V67.1714H193.822L193.806 34.1586C193.806 15.8411 178.976 0.999952 160.678 0.999952C142.388 0.999952 127.558 15.8411 127.558 34.1586C127.558 52.4706 142.388 67.3118 160.678 67.3118C164.107 67.3118 167.418 66.7916 170.531 65.8172L170.547 42.504Z" stroke="#ED1C24" stroke-width="0.275"/>
<path d="M203.11 67.0325C204.545 67.2224 206.017 67.3215 207.496 67.3215C225.791 67.3215 240.619 52.4776 240.619 34.1711C240.619 15.8564 225.791 1.00972 207.496 1.00972C199.497 1.00972 192.143 3.85849 186.412 8.59544L186.451 8.66976C191.439 13.7453 194.937 20.2851 196.243 27.5818L196.293 27.5625C198.556 23.7201 202.728 21.1548 207.496 21.1548C214.684 21.1548 220.503 26.979 220.503 34.1711C220.503 41.3495 214.684 47.1847 207.496 47.1847C205.953 47.1847 204.471 46.9122 203.085 46.4112L203.11 67.0325Z" fill="#ED1C24"/>
<path d="M203.11 67.0325C204.545 67.2224 206.017 67.3215 207.496 67.3215C225.791 67.3215 240.619 52.4776 240.619 34.1711C240.619 15.8564 225.791 1.00972 207.496 1.00972C199.497 1.00972 192.143 3.85849 186.412 8.59544L186.451 8.66976C191.439 13.7453 194.937 20.2851 196.243 27.5818L196.293 27.5625C198.556 23.7201 202.728 21.1548 207.496 21.1548C214.684 21.1548 220.503 26.979 220.503 34.1711C220.503 41.3495 214.684 47.1847 207.496 47.1847C205.953 47.1847 204.471 46.9122 203.085 46.4112L203.11 67.0325Z" stroke="#ED1C24" stroke-width="0.275"/>
</svg>
