<svg width="500" height="350" viewBox="0 0 500 350" fill="none" xmlns="http://www.w3.org/2000/svg">
<rect width="500" height="350" rx="15" fill="#ED1C24"/>
<path d="M221.784 135.096C217.455 140.116 211.076 143.288 203.926 143.288C190.93 143.288 180.402 132.755 180.402 119.747C180.402 106.744 190.93 96.2058 203.926 96.2058C216.923 96.2058 227.461 106.744 227.461 119.747V179.728H263.897L263.868 119.996C263.868 86.8531 237.034 60 203.926 60C170.833 60 144 86.8531 144 119.996C144 153.129 170.833 179.982 203.926 179.982C210.131 179.982 216.122 179.041 221.754 177.278L221.784 135.096Z" fill="#FFF200"/>
<path d="M221.784 135.096C217.455 140.116 211.076 143.288 203.926 143.288C190.93 143.288 180.402 132.755 180.402 119.747C180.402 106.744 190.93 96.2058 203.926 96.2058C216.923 96.2058 227.461 106.744 227.461 119.747V179.728H263.897L263.868 119.996C263.868 86.8531 237.034 60 203.926 60C170.833 60 144 86.8531 144 119.996C144 153.129 170.833 179.982 203.926 179.982C210.131 179.982 216.122 179.041 221.754 177.278L221.784 135.096Z" stroke="#FFF200" stroke-width="0.275"/>
<path d="M280.702 179.477C283.299 179.821 285.961 180 288.638 180C321.741 180 348.569 153.142 348.569 120.019C348.569 86.8806 321.741 60.0175 288.638 60.0175C274.164 60.0175 260.859 65.172 250.49 73.7429L250.56 73.8774C259.585 83.0608 265.914 94.8937 268.278 108.096L268.367 108.061C272.462 101.109 280.01 96.4674 288.638 96.4674C301.644 96.4674 312.173 107.005 312.173 120.019C312.173 133.007 301.644 143.565 288.638 143.565C285.847 143.565 283.165 143.072 280.657 142.165L280.702 179.477Z" fill="#FFF200"/>
<path d="M280.702 179.477C283.299 179.821 285.961 180 288.638 180C321.741 180 348.569 153.142 348.569 120.019C348.569 86.8806 321.741 60.0175 288.638 60.0175C274.164 60.0175 260.859 65.172 250.49 73.7429L250.56 73.8774C259.585 83.0608 265.914 94.8937 268.278 108.096L268.367 108.061C272.462 101.109 280.01 96.4674 288.638 96.4674C301.644 96.4674 312.173 107.005 312.173 120.019C312.173 133.007 301.644 143.565 288.638 143.565C285.847 143.565 283.165 143.072 280.657 142.165L280.702 179.477Z" stroke="#FFF200" stroke-width="0.275"/>
<path d="M46.5676 261.937L51.7445 246.856L56.9214 261.937H46.5676ZM58.2064 235.87H45.6381L30 278.216H41.013L43.968 269.636H59.521L62.4797 278.216H73.8445L58.2064 235.87Z" fill="#FFF200"/>
<path d="M107.239 255.492V278.216H97.0218V262.2C97.0218 260.64 96.981 259.313 96.907 258.22C96.8329 257.123 96.6255 256.233 96.2849 255.547C95.9442 254.865 95.4294 254.365 94.7407 254.05C94.0482 253.739 93.0817 253.579 91.8338 253.579C90.8339 253.579 89.8563 253.783 88.912 254.191C87.9677 254.602 87.116 255.036 86.3643 255.492V278.216H76.1438V246.318H86.3643V249.747C88.1159 248.36 89.7934 247.278 91.3968 246.5C93.0002 245.721 94.774 245.329 96.7144 245.329C98.8104 245.329 100.658 245.799 102.262 246.741C103.865 247.682 105.12 249.065 106.024 250.888C108.061 249.161 110.042 247.801 111.964 246.815C113.889 245.825 115.774 245.329 117.622 245.329C121.055 245.329 123.662 246.366 125.443 248.438C127.224 250.506 128.117 253.49 128.117 257.382V278.216H117.9V262.2C117.9 260.621 117.863 259.291 117.796 258.201C117.733 257.119 117.529 256.233 117.189 255.547C116.867 254.865 116.359 254.365 115.659 254.05C114.959 253.739 113.974 253.579 112.712 253.579C111.86 253.579 111.027 253.727 110.216 254.024C109.405 254.317 108.409 254.806 107.239 255.492Z" fill="#FFF200"/>
<path d="M156.79 250.228C156.486 250.929 155.846 251.492 154.868 251.933C154.168 252.256 153.213 252.449 152.005 252.501C150.798 252.564 149.339 252.59 147.625 252.59H145.925V243.572H146.943C149.076 243.572 150.732 243.586 151.909 243.616C153.087 243.642 154.072 243.813 154.868 244.117C155.749 244.461 156.368 244.984 156.716 245.688C157.068 246.396 157.242 247.104 157.242 247.808C157.242 248.724 157.094 249.528 156.79 250.228ZM168.766 258.405C167.14 256.678 164.948 255.54 162.178 254.988V254.765C164.137 253.894 165.655 252.678 166.729 251.118C167.803 249.55 168.34 247.749 168.34 245.703C168.34 243.942 167.947 242.374 167.166 240.999C166.381 239.628 165.185 238.535 163.578 237.719C162.03 236.941 160.467 236.444 158.89 236.214C157.312 235.988 154.824 235.873 151.424 235.873H135.049V278.216H153.49C156.553 278.216 159.086 277.953 161.082 277.419C163.074 276.889 164.907 275.996 166.57 274.739C168.01 273.679 169.136 272.345 169.962 270.729C170.784 269.12 171.199 267.286 171.199 265.232C171.199 262.412 170.384 260.132 168.766 258.405ZM159.245 267.827C158.819 268.624 158.041 269.261 156.912 269.739C155.801 270.221 154.587 270.47 153.268 270.488C151.95 270.507 149.765 270.514 146.717 270.514H145.925V259.85H148.299C149.917 259.85 151.469 259.858 152.961 259.88C154.446 259.895 155.612 260.028 156.46 260.28C157.705 260.644 158.582 261.196 159.101 261.934C159.619 262.671 159.878 263.72 159.878 265.08C159.878 266.118 159.667 267.034 159.245 267.827Z" fill="#FFF200"/>
<path d="M192.037 271.645C191.015 272.064 190.008 272.275 189.012 272.275C187.764 272.275 186.842 272.186 186.253 272.001C185.664 271.819 185.157 271.538 184.735 271.156C184.294 270.774 184.016 270.374 183.905 269.951C183.794 269.529 183.742 268.98 183.742 268.313C183.742 267.298 184.001 266.478 184.527 265.859C185.053 265.233 185.812 264.759 186.805 264.436C187.612 264.166 188.801 263.936 190.367 263.732C191.93 263.532 193.385 263.372 194.729 263.257V269.977C193.955 270.667 193.059 271.226 192.037 271.645ZM194.729 278.217H204.95V256.463C204.95 252.627 203.661 249.814 201.091 248.024C198.521 246.226 194.344 245.329 188.564 245.329C186.131 245.329 183.709 245.526 181.291 245.907C178.869 246.297 177.121 246.63 176.051 246.912V254.569H176.977C177.795 254.243 179.154 253.773 181.043 253.168C182.931 252.564 184.705 252.26 186.371 252.26C189.138 252.26 191.234 252.605 192.656 253.294C194.078 253.984 194.785 255.229 194.785 257.034V257.208C191.811 257.379 188.941 257.65 186.175 258.009C183.409 258.376 181.087 258.984 179.221 259.844C177.332 260.7 175.873 261.879 174.844 263.365C173.814 264.855 173.303 266.775 173.303 269.121C173.303 272.064 174.31 274.477 176.332 276.371C178.351 278.258 180.854 279.206 183.846 279.206C185.12 279.206 186.29 279.077 187.353 278.825C188.419 278.569 189.445 278.209 190.437 277.731C191.148 277.394 191.904 276.927 192.707 276.341C193.511 275.752 194.185 275.252 194.729 274.833V278.217Z" fill="#FFF200"/>
<path d="M243.245 278.214H233.024V262.314C233.024 261.02 232.961 259.734 232.824 258.448C232.691 257.162 232.465 256.213 232.143 255.605C231.765 254.901 231.21 254.389 230.48 254.067C229.751 253.741 228.733 253.578 227.425 253.578C226.496 253.578 225.555 253.73 224.6 254.037C223.644 254.341 222.604 254.827 221.489 255.49V278.214H211.269V246.32H221.489V249.749C223.3 248.322 225.041 247.228 226.714 246.469C228.388 245.709 230.243 245.331 232.284 245.331C235.72 245.331 238.405 246.335 240.342 248.351C242.275 250.364 243.245 253.374 243.245 257.384V278.214Z" fill="#FFF200"/>
<path d="M283.357 278.214H271.541L262.538 264.263L259.731 267.699V278.214H249.515V234H259.731V260.264L270.681 246.32H282.591L271.063 260.068L283.357 278.214Z" fill="#FFF200"/>
<path d="M339.936 275.796C338.047 276.534 335.544 277.271 332.43 278.002C329.308 278.728 326.205 279.095 323.109 279.095C315.929 279.095 310.311 277.138 306.249 273.217C302.187 269.299 300.157 263.88 300.157 256.975C300.157 250.385 302.205 245.077 306.301 241.044C310.393 237.012 316.099 234.992 323.416 234.992C326.19 234.992 328.83 235.244 331.341 235.744C333.852 236.248 336.64 237.241 339.717 238.735V248.631H338.499C337.973 248.242 337.199 247.694 336.181 246.986C335.162 246.278 334.185 245.677 333.244 245.177C332.152 244.588 330.871 244.08 329.412 243.657C327.953 243.235 326.401 243.02 324.76 243.02C322.839 243.02 321.094 243.305 319.535 243.876C317.969 244.447 316.562 245.318 315.321 246.493C314.133 247.631 313.196 249.076 312.511 250.833C311.818 252.59 311.478 254.614 311.478 256.912C311.478 261.597 312.711 265.185 315.173 267.668C317.639 270.151 321.28 271.397 326.097 271.397C326.512 271.397 326.971 271.389 327.467 271.367C327.964 271.348 328.423 271.322 328.838 271.282V262.927H320.487V254.899H339.936V275.796Z" fill="#FFF200"/>
<path d="M369.083 256.219H368.175C367.742 256.071 367.042 255.959 366.083 255.889C365.117 255.815 364.317 255.778 363.676 255.778C362.221 255.778 360.936 255.871 359.821 256.06C358.707 256.252 357.511 256.567 356.226 257.02V278.213H346.009V246.319H356.226V251.008C358.473 249.077 360.425 247.813 362.088 247.216C363.75 246.619 365.276 246.319 366.676 246.319C367.031 246.319 367.439 246.33 367.89 246.349C368.346 246.371 368.742 246.397 369.083 246.434V256.219Z" fill="#FFF200"/>
<path d="M389.571 271.588C388.731 271.903 387.849 272.055 386.92 272.055C385.838 272.055 384.876 271.885 384.039 271.547C383.194 271.206 382.469 270.669 381.865 269.931C381.239 269.157 380.769 268.134 380.447 266.859C380.125 265.584 379.969 264.075 379.969 262.337C379.969 260.391 380.15 258.778 380.521 257.496C380.887 256.21 381.384 255.198 382.009 254.46C382.709 253.671 383.443 253.141 384.209 252.874C384.976 252.615 385.85 252.477 386.835 252.477C387.816 252.477 388.734 252.641 389.586 252.963C390.438 253.282 391.163 253.83 391.774 254.605C392.378 255.361 392.852 256.373 393.189 257.637C393.53 258.901 393.704 260.469 393.704 262.337C393.704 264.357 393.533 265.943 393.204 267.085C392.874 268.23 392.378 269.205 391.715 270.016C391.126 270.754 390.415 271.277 389.571 271.588ZM399.703 249.872C396.674 246.847 392.385 245.331 386.835 245.331C381.358 245.331 377.084 246.836 374.022 249.846C370.952 252.856 369.419 256.999 369.419 262.281C369.419 267.526 370.945 271.658 373.992 274.676C377.04 277.696 381.321 279.205 386.835 279.205C392.348 279.205 396.629 277.696 399.677 274.676C402.728 271.658 404.25 267.526 404.25 262.281C404.25 257.04 402.736 252.9 399.703 249.872Z" fill="#FFF200"/>
<path d="M440.219 278.215H430.002V274.787C428.114 276.232 426.384 277.329 424.818 278.078C423.251 278.83 421.378 279.205 419.208 279.205C415.697 279.205 412.99 278.189 411.091 276.158C409.195 274.123 408.247 271.121 408.247 267.151V246.321H418.463V262.222C418.463 263.841 418.515 265.187 418.619 266.262C418.723 267.337 418.963 268.226 419.345 268.93C419.704 269.635 420.252 270.15 420.978 270.472C421.707 270.795 422.726 270.958 424.033 270.958C424.907 270.958 425.87 270.795 426.932 270.472C427.991 270.15 429.013 269.672 430.002 269.042V246.321H440.219V278.215Z" fill="#FFF200"/>
<path d="M467.465 269.232C466.139 270.822 464.121 271.615 461.414 271.615C460.655 271.615 459.888 271.578 459.115 271.5C458.337 271.426 457.607 271.252 456.926 270.985V254.851C457.856 254.302 458.829 253.876 459.851 253.583C460.874 253.287 461.87 253.142 462.836 253.142C465.125 253.142 466.802 253.843 467.861 255.251C468.924 256.66 469.454 258.928 469.454 262.049C469.454 265.248 468.791 267.642 467.465 269.232ZM476.689 249.721C474.482 246.793 471.39 245.329 467.413 245.329C465.269 245.329 463.38 245.74 461.74 246.548C460.103 247.364 458.496 248.394 456.926 249.643V246.319H446.709V289.87H456.926V276.66C458.252 277.36 459.552 277.901 460.818 278.291C462.088 278.68 463.632 278.876 465.454 278.876C467.424 278.876 469.272 278.494 470.994 277.735C472.716 276.971 474.26 275.852 475.623 274.365C476.93 272.961 477.989 271.174 478.793 269.002C479.596 266.838 480 264.432 480 261.789C480 256.674 478.896 252.653 476.689 249.721Z" fill="#FFF200"/>
</svg>
