<svg width="800" height="180" viewBox="0 0 800 180" fill="none" xmlns="http://www.w3.org/2000/svg">
<rect width="800" height="180" rx="15" fill="#009CA6"/>
<path d="M306.023 100.692C306.603 104.194 309.602 106.886 313.303 106.964C317.469 107.07 320.931 103.784 321.029 99.6545C321.132 95.5032 317.834 92.0759 313.663 91.9751C309.881 91.8756 306.701 94.5634 306.061 98.1362C302.151 98.034 284.827 98.2896 273.387 111.492C273.358 111.129 273.337 110.758 273.31 110.394C274.682 102.792 280.321 86.3221 303.407 83.5188C304.487 86.0612 306.939 87.9296 309.915 88.1142C314.084 88.3524 317.651 85.1958 317.895 81.0482C318.144 76.917 314.961 73.3644 310.803 73.1204C306.644 72.8777 303.06 76.0281 302.815 80.1784V80.2721C299.152 80.5687 282.072 82.6427 272.538 94.7294C272.499 93.8163 272.46 92.9176 272.432 92.0304C276.956 74.0776 291.236 67.5686 295.453 66.0209C296.534 68.3367 298.799 70.0628 301.57 70.33C305.726 70.727 309.423 67.7082 309.819 63.5739C310.223 59.4669 307.188 55.8049 303.022 55.3972C298.868 55.0007 295.185 58.0092 294.777 62.1364C294.746 62.449 294.736 62.7604 294.746 63.0842C285.65 65.47 278.322 71.099 273.8 75.3849C273.998 73.0597 275.581 58.8148 284.458 51.3678C285.639 53.0797 287.539 54.2777 289.775 54.5199C293.917 55.0007 297.672 52.0475 298.145 47.9324C298.623 43.8129 295.646 40.0956 291.49 39.6344C287.358 39.1523 283.608 42.1019 283.133 46.225C283.035 47.0172 283.079 47.7915 283.223 48.5319C280.004 50.6671 274.881 54.9071 271.521 61.6801C270.029 50.3098 272.824 42.5961 274.615 39.026C275.488 39.5131 276.494 39.8481 277.555 39.9444C281.697 40.3994 285.429 37.4002 285.855 33.2816C286.307 29.1598 283.288 25.4773 279.143 25.0438C274.987 24.5995 271.268 27.5866 270.833 31.7008C270.621 33.6817 271.203 35.5456 272.32 37.0019C270.79 39.1808 269.656 41.6674 268.82 44.2478C267.982 41.6674 266.857 39.1808 265.32 37.0019C266.443 35.5456 267.026 33.6817 266.822 31.7008C266.378 27.5866 262.648 24.5995 258.506 25.0438C254.355 25.4773 251.345 29.1602 251.787 33.2816C252.22 37.4002 255.952 40.3994 260.101 39.9444C261.169 39.8485 262.156 39.5131 263.035 39.026C264.792 42.5252 267.501 49.9739 266.22 60.9798H266.119C266.119 60.9798 266.114 61.2728 266.1 61.842C266.076 62.1163 266.032 62.4031 265.989 62.6765C262.645 55.3049 257.179 50.767 253.825 48.5319C253.965 47.791 254.004 47.0172 253.91 46.225C253.441 42.1019 249.686 39.1523 245.542 39.6344C241.392 40.0961 238.421 43.8129 238.888 47.9324C239.37 52.0475 243.114 55.0007 247.257 54.5199C249.505 54.2777 251.404 53.0797 252.592 51.3678C261.446 58.8148 263.042 73.0593 263.245 75.3849C258.717 71.099 251.404 65.47 242.298 63.0842C242.309 62.7604 242.298 62.449 242.275 62.1364C241.864 58.0092 238.169 55.0003 234.018 55.3972C229.857 55.8049 226.822 59.4664 227.224 63.5739C227.622 67.7082 231.321 70.727 235.469 70.33C238.238 70.0628 240.492 68.3371 241.591 66.0209C245.915 67.6056 260.842 74.4317 264.966 93.4742C264.93 94.0576 264.907 94.6415 264.881 95.2365C255.435 82.7177 237.939 80.5678 234.233 80.2712V80.1775C233.982 76.0267 230.403 72.8764 226.241 73.1195C222.072 73.3635 218.895 76.9161 219.139 81.0473C219.377 85.1945 222.963 88.3511 227.135 88.1133C230.084 87.9287 232.553 86.0603 233.634 83.5179C258.308 86.5223 263.054 105.129 263.949 111.836C252.498 98.2999 234.906 98.0345 230.989 98.1357C230.344 94.5617 227.156 91.8756 223.376 91.9742C219.197 92.075 215.904 95.5032 216.002 99.654C216.097 103.783 219.569 107.069 223.734 106.964C227.423 106.886 230.427 104.194 231.012 100.691C237.569 101.26 242.821 102.802 246.995 104.868C240.687 105.619 236.184 109.134 233.949 111.307C232.693 110.532 231.189 110.089 229.599 110.164C225.425 110.352 222.188 113.845 222.372 117.988C222.56 122.12 226.083 125.335 230.255 125.164C234.429 124.964 237.655 121.48 237.482 117.323C237.407 115.808 236.883 114.409 236.046 113.254C244.707 106.426 252.48 109.27 255.149 110.608C258.384 113.792 260.353 117.18 261.543 119.939C256.892 117.221 252.209 119.939 249.823 121.827C248.79 121.3 247.628 120.996 246.382 120.996C242.205 120.996 238.824 124.35 238.824 128.492C238.824 132.64 242.205 136.008 246.382 136.008C250.555 136.008 253.934 132.64 253.934 128.492C253.934 126.887 253.421 125.387 252.538 124.157C259.641 120.081 262.292 126.73 262.921 128.825C262.031 140.269 260.967 149.437 259.695 152.445C259.695 152.445 263.299 155.207 268.719 154.988C274.147 155.207 277.754 152.445 277.754 152.445C276.457 149.343 275.356 139.754 274.444 127.857C275.475 125.246 278.286 120.593 284.49 124.157C283.628 125.387 283.101 126.887 283.101 128.492C283.101 132.64 286.487 136.008 290.661 136.008C294.835 136.008 298.217 132.64 298.217 128.492C298.217 124.35 294.835 120.996 290.661 120.996C289.407 120.996 288.248 121.301 287.209 121.827C284.826 119.939 280.146 117.221 275.502 119.939C276.69 117.18 278.654 113.792 281.889 110.614C284.547 109.27 292.339 106.41 300.993 113.254C300.16 114.409 299.631 115.809 299.558 117.323C299.383 121.48 302.618 124.964 306.783 125.164C310.946 125.335 314.483 122.12 314.676 117.988C314.844 113.845 311.607 110.352 307.446 110.164C305.848 110.088 304.349 110.531 303.094 111.307C300.859 109.134 296.339 105.619 290.041 104.868C294.217 102.802 299.466 101.261 306.023 100.692ZM313.551 96.4212C315.245 96.4689 316.582 97.8574 316.548 99.5416C316.509 101.225 315.097 102.55 313.4 102.513C311.724 102.477 310.381 101.079 310.415 99.4038C310.451 97.7196 311.853 96.3962 313.551 96.4212ZM310.539 77.5713C312.231 77.6753 313.521 79.1079 313.421 80.7899C313.32 82.4759 311.864 83.7413 310.173 83.6481C308.493 83.5531 307.197 82.1013 307.293 80.4367C307.404 78.7533 308.838 77.4746 310.539 77.5713ZM302.6 59.8295C304.275 60.0083 305.517 61.4834 305.344 63.1511C305.179 64.8264 303.686 66.0588 302.007 65.8884C300.316 65.7225 299.096 64.2332 299.24 62.5614C299.405 60.8866 300.906 59.6725 302.6 59.8295ZM287.593 46.738C287.786 45.056 289.306 43.8691 290.982 44.0497C292.675 44.2482 293.875 45.7442 293.684 47.4217C293.493 49.0886 291.976 50.2937 290.291 50.0926C288.607 49.9008 287.402 48.3972 287.593 46.738ZM275.302 32.179C275.475 30.5037 276.992 29.2927 278.662 29.4649C280.353 29.6477 281.582 31.1535 281.395 32.8208C281.213 34.4863 279.712 35.6973 278.026 35.5278C276.333 35.348 275.118 33.8364 275.302 32.179ZM259.628 35.5278C257.941 35.6968 256.44 34.4863 256.247 32.8208C256.074 31.1531 257.296 29.6473 258.974 29.4649C260.662 29.2927 262.166 30.5037 262.351 32.179C262.527 33.8364 261.309 35.348 259.628 35.5278ZM246.751 50.0926C245.07 50.2937 243.55 49.0886 243.362 47.4217C243.166 45.7442 244.364 44.2482 246.064 44.0497C247.729 43.8691 249.259 45.0564 249.454 46.738C249.635 48.3972 248.426 49.9008 246.751 50.0926ZM235.035 65.8884C233.354 66.0588 231.86 64.8264 231.684 63.1511C231.529 61.4834 232.761 60.0088 234.449 59.8295C236.139 59.6725 237.626 60.887 237.8 62.5614C237.959 64.2332 236.726 65.7225 235.035 65.8884ZM226.874 83.6486C225.17 83.7418 223.714 82.4764 223.618 80.7904C223.529 79.1084 224.819 77.6757 226.504 77.5718C228.197 77.475 229.632 78.7533 229.745 80.4371C229.839 82.1017 228.548 83.5535 226.874 83.6486ZM223.635 102.514C221.941 102.55 220.524 101.227 220.496 99.543C220.457 97.8587 221.799 96.4693 223.488 96.4225C225.176 96.3962 226.59 97.7196 226.624 99.4056C226.661 101.08 225.325 102.478 223.635 102.514ZM246.382 131.55C244.686 131.55 243.321 130.184 243.321 128.493C243.321 126.814 244.686 125.463 246.382 125.463C248.075 125.463 249.454 126.814 249.454 128.493C249.454 130.183 248.075 131.55 246.382 131.55ZM293.729 128.492C293.729 130.183 292.348 131.55 290.662 131.55C288.964 131.55 287.593 130.183 287.593 128.492C287.593 126.813 288.964 125.462 290.662 125.462C292.347 125.462 293.729 126.814 293.729 128.492ZM271.84 77.289L271.992 77.1717L271.84 77.3251V77.289ZM265.041 77.1717L265.59 77.599V77.6913L265.041 77.1717ZM230.066 120.696C228.368 120.767 226.927 119.47 226.874 117.793C226.799 116.101 228.106 114.69 229.798 114.606C231.486 114.544 232.915 115.849 232.993 117.523C233.063 119.207 231.746 120.628 230.066 120.696ZM307.236 114.608C308.939 114.692 310.245 116.102 310.173 117.795C310.111 119.471 308.666 120.768 306.975 120.696C305.301 120.63 303.981 119.209 304.038 117.525C304.118 115.849 305.558 114.546 307.236 114.608Z" fill="white"/>
<path d="M396.418 87.1939C408.934 84.2601 415.214 77.5611 415.214 67.0982C415.214 52.3521 404.83 45 384.045 45H346V135H388.557C408.905 135 419.052 127.034 419.052 111.072C419.054 98.1614 411.528 90.2013 396.418 87.1939ZM368.151 53.7837H382.758C390.684 53.7837 396.608 58.5512 396.608 68.0675C396.608 78.3594 390.899 83.5263 383.406 83.5263H368.152L368.151 53.7837ZM382.835 126.179H368.151V92.2597H384.305C394.423 92.2597 399.504 98.3 399.504 110.368C399.504 120.923 392.677 126.179 382.835 126.179Z" fill="white"/>
<path d="M465.072 77.8267C454.151 74.0755 449.279 67.5846 449.279 62.3665C449.279 60.2034 449.76 58.3865 450.693 56.9163L451.534 55.8136C452.782 54.4445 454.535 53.439 456.793 52.7986C476.85 47.823 490.993 70.8636 490.993 70.8636V51.9275C482.642 46.3387 472.064 45.1867 466.286 45.01H463.131C454.456 45.2478 447.382 47.6129 441.937 52.1413C436.172 56.9163 433.299 63.1949 433.299 71.0065C433.299 84.8269 442.932 92.8613 460.172 99.1398C472.108 103.519 477.073 110.608 477.073 116.4C477.073 118.435 477.048 119.826 475.841 121.987C475.841 121.987 473.911 124.759 469.894 125.922C450.218 131.585 436.253 109.005 436.253 109.005V127.946V128.563C444.455 133.692 454.534 134.816 460.132 134.978H463.626C464.091 134.958 464.355 134.939 464.355 134.939L464.298 134.978H464.743V134.996H464.79C474.621 134.996 482.46 132.492 488.365 127.518C494.279 122.518 497.237 115.897 497.237 107.653C497.238 93.5989 486.145 85.0116 465.072 77.8267Z" fill="white"/>
<path d="M575.851 45.0017H574.276V108.812L531.479 45.0017H514.812V134.995H523.649H525.225V75.7643L564.562 134.995H584.689V45.0017H575.851Z" fill="white"/>
</svg>
