<svg width="400" height="160" viewBox="0 0 400 160" fill="none" xmlns="http://www.w3.org/2000/svg">
<path d="M400 0H0V160H400V0Z" fill="#009CA6"/>
<path d="M199.919 77.6342C210.46 75.1634 215.749 69.5214 215.749 60.7094C215.749 48.2902 207.004 42.0981 189.498 42.0981H157.456V117.897H193.298C210.435 117.897 218.981 111.188 218.981 97.7444C218.983 86.8712 212.644 80.1671 199.919 77.6342ZM176.112 49.4959H188.414C195.09 49.4959 200.079 53.5111 200.079 61.5258C200.079 70.1937 195.271 74.5453 188.96 74.5453H176.113L176.112 49.4959ZM188.479 110.468H176.112V81.9007H189.718C198.238 81.9007 202.518 86.9879 202.518 97.1516C202.518 106.041 196.768 110.468 188.479 110.468Z" fill="white"/>
<path d="M257.74 69.745C248.542 66.5856 244.439 61.119 244.439 56.7242C244.439 54.9024 244.844 53.3722 245.63 52.134L246.338 51.2053C247.389 50.0522 248.866 49.2054 250.767 48.6661C267.66 44.4755 279.571 63.8806 279.571 63.8806V47.9324C272.538 43.2255 263.628 42.2552 258.762 42.1064H256.105C248.799 42.3067 242.842 44.2987 238.255 48.1125C233.4 52.134 230.981 57.4219 230.981 64.0009C230.981 75.6406 239.093 82.4072 253.614 87.695C263.666 91.3834 267.847 97.3538 267.847 102.231C267.847 103.946 267.826 105.117 266.81 106.937C266.81 106.937 265.184 109.272 261.801 110.251C245.23 115.021 233.469 96.0037 233.469 96.0037V111.956V112.476C240.376 116.795 248.865 117.742 253.579 117.878H256.522C256.914 117.862 257.136 117.845 257.136 117.845L257.088 117.878H257.463V117.893H257.503C265.782 117.893 272.384 115.784 277.358 111.595C282.338 107.384 284.83 101.808 284.83 94.8652C284.83 83.0284 275.488 75.7961 257.74 69.745Z" fill="white"/>
<path d="M351.039 42.0996H349.713V95.8409L313.669 42.0996H299.631V117.893H307.074H308.402V68.0081L341.531 117.893H358.483V42.0996H351.039Z" fill="white"/>
<path d="M121.382 89.4855C121.897 92.5921 124.557 94.9806 127.841 95.0499C131.537 95.1437 134.608 92.2289 134.695 88.565C134.787 84.8822 131.861 81.8416 128.16 81.7522C124.805 81.6639 121.984 84.0484 121.416 87.2181C117.948 87.1274 102.578 87.3542 92.4283 99.0667C92.4031 98.745 92.3847 98.4162 92.3607 98.0929C93.5775 91.3488 98.5808 76.737 119.062 74.25C120.02 76.5055 122.195 78.1631 124.835 78.3269C128.534 78.5382 131.698 75.7378 131.915 72.0581C132.136 68.3931 129.312 65.2413 125.623 65.0249C121.934 64.8096 118.754 67.6045 118.536 71.2865V71.3696C115.286 71.6328 100.134 73.4728 91.6755 84.1956C91.6411 83.3856 91.6059 82.5883 91.5815 81.8012C95.5947 65.874 108.264 60.0995 112.005 58.7264C112.964 60.7809 114.973 62.3123 117.432 62.5493C121.119 62.9015 124.398 60.2234 124.75 56.5555C125.109 52.9119 122.416 49.6631 118.72 49.3015C115.035 48.9497 111.767 51.6187 111.406 55.2802C111.378 55.5576 111.369 55.8338 111.378 56.1211C103.308 58.2377 96.8068 63.2315 92.7948 67.0339C92.9712 64.971 94.3752 52.3334 102.251 45.7266C103.298 47.2454 104.984 48.3082 106.968 48.5231C110.643 48.9497 113.974 46.3297 114.393 42.6789C114.817 39.0242 112.176 35.7263 108.49 35.3172C104.824 34.8894 101.497 37.5062 101.075 41.1641C100.988 41.8669 101.028 42.5539 101.155 43.2107C98.2996 45.105 93.7544 48.8666 90.7736 54.8754C89.45 44.788 91.9291 37.9447 93.518 34.7774C94.2924 35.2095 95.1856 35.5067 96.1264 35.5922C99.8015 35.9958 103.112 33.3351 103.49 29.6811C103.891 26.0244 101.212 22.7575 97.5352 22.3728C93.8484 21.9787 90.5488 24.6287 90.1632 28.2787C89.9752 30.0361 90.4907 31.6897 91.4823 32.9817C90.1243 34.9147 89.1191 37.1208 88.3768 39.41C87.6339 37.1208 86.6352 34.9147 85.2715 32.9817C86.2683 31.6897 86.7851 30.0361 86.6044 28.2787C86.2104 24.6287 82.9016 21.9787 79.2267 22.3728C75.5439 22.7575 72.8735 26.0248 73.2663 29.6811C73.6503 33.3351 76.9608 35.9958 80.6416 35.5922C81.5896 35.5071 82.4652 35.2095 83.2452 34.7774C84.8036 37.8818 87.2071 44.4901 86.0703 54.2541H85.9812C85.9812 54.2541 85.9767 54.5141 85.9635 55.019C85.9423 55.2624 85.9035 55.5168 85.8651 55.7594C82.8991 49.2195 78.0499 45.1936 75.0739 43.2107C75.1979 42.5535 75.2323 41.8669 75.1495 41.1641C74.7331 37.5062 71.4015 34.8894 67.7255 35.3172C64.0435 35.7267 61.4079 39.0242 61.8219 42.6789C62.2499 46.3297 65.5711 48.9497 69.2467 48.5231C71.2411 48.3082 72.926 47.2454 73.9804 45.7266C81.8348 52.3334 83.2511 64.9706 83.4311 67.0339C79.4143 63.2315 72.9259 58.2377 64.8479 56.1211C64.8571 55.8338 64.8479 55.5576 64.8271 55.2802C64.4623 51.6187 61.1843 48.9493 57.5015 49.3015C53.8103 49.6631 51.1179 52.9115 51.4747 56.5555C51.8275 60.2234 55.1088 62.9015 58.7892 62.5493C61.246 62.3123 63.2451 60.7813 64.2203 58.7264C68.0563 60.1323 81.2991 66.1882 84.958 83.0821C84.9259 83.5997 84.9055 84.1177 84.8827 84.6456C76.5019 73.5393 60.9804 71.632 57.6924 71.3688V71.2857C57.47 67.6033 54.2943 64.8084 50.6023 65.0241C46.9039 65.2405 44.0851 68.3923 44.3015 72.0574C44.5127 75.7366 47.694 78.537 51.3952 78.3261C54.012 78.1623 56.2023 76.5047 57.1611 74.2492C79.0508 76.9146 83.2619 93.4215 84.056 99.3718C73.8963 87.3633 58.2895 87.1278 54.8143 87.2177C54.2419 84.0469 51.4144 81.6639 48.0603 81.7514C44.3528 81.8408 41.4315 84.8822 41.5187 88.5646C41.6031 92.2281 44.6831 95.1433 48.3783 95.0499C51.6511 94.9802 54.3164 92.5921 54.8348 89.4851C60.6524 89.9892 65.3116 91.3571 69.0147 93.1905C63.4187 93.8564 59.4231 96.9746 57.4403 98.9025C56.3259 98.2155 54.9919 97.8222 53.5815 97.8887C49.8783 98.0557 47.0064 101.155 47.17 104.83C47.3368 108.496 50.4623 111.348 54.1635 111.196C57.8663 111.019 60.7283 107.928 60.5747 104.24C60.5087 102.896 60.0432 101.655 59.3012 100.631C66.9844 94.5723 73.8811 97.0957 76.2487 98.2828C79.1187 101.108 80.8651 104.113 81.9211 106.561C77.7951 104.15 73.6407 106.561 71.5231 108.236C70.6067 107.768 69.5763 107.498 68.4707 107.498C64.7647 107.498 61.7651 110.474 61.7651 114.149C61.7651 117.829 64.7647 120.816 68.4707 120.816C72.1731 120.816 75.1707 117.829 75.1707 114.149C75.1707 112.725 74.7151 111.395 73.9323 110.303C80.2339 106.686 82.5855 112.586 83.1439 114.444C82.354 124.597 81.41 132.73 80.2819 135.399C80.2819 135.399 83.4787 137.85 88.2872 137.655C93.1031 137.85 96.3028 135.399 96.3028 135.399C95.1528 132.648 94.1752 124.14 93.3668 113.586C94.2808 111.269 96.7752 107.141 102.279 110.303C101.514 111.395 101.046 112.725 101.046 114.149C101.046 117.829 104.051 120.816 107.754 120.816C111.457 120.816 114.457 117.829 114.457 114.149C114.457 110.474 111.457 107.498 107.754 107.498C106.641 107.498 105.613 107.769 104.692 108.236C102.577 106.561 98.4248 104.15 94.3056 106.561C95.3588 104.113 97.1012 101.108 99.9711 98.2883C102.33 97.0957 109.242 94.5584 116.92 100.631C116.181 101.655 115.711 102.897 115.647 104.24C115.492 107.928 118.361 111.019 122.057 111.196C125.75 111.348 128.888 108.496 129.059 104.83C129.208 101.155 126.336 98.0557 122.645 97.8887C121.228 97.8214 119.897 98.2147 118.784 98.9025C116.801 96.975 112.791 93.8564 107.204 93.1905C110.908 91.3575 115.566 89.9904 121.382 89.4855ZM128.061 85.6966C129.564 85.7389 130.75 86.9707 130.72 88.4649C130.685 89.9587 129.432 91.1336 127.927 91.1011C126.44 91.0695 125.249 89.8289 125.279 88.3427C125.311 86.8485 126.555 85.6744 128.061 85.6966ZM125.389 68.9736C126.89 69.0658 128.034 70.3368 127.946 71.829C127.856 73.3248 126.565 74.4474 125.064 74.3647C123.574 74.2804 122.424 72.9924 122.509 71.5156C122.607 70.0222 123.88 68.8877 125.389 68.9736ZM118.346 53.2336C119.832 53.3923 120.934 54.7009 120.78 56.1804C120.634 57.6667 119.309 58.76 117.82 58.6089C116.32 58.4617 115.237 57.1404 115.365 55.6573C115.511 54.1714 116.843 53.0943 118.346 53.2336ZM105.032 41.6192C105.203 40.127 106.552 39.074 108.038 39.2343C109.54 39.4104 110.605 40.7376 110.436 42.2258C110.266 43.7046 108.92 44.7738 107.425 44.5953C105.932 44.4252 104.862 43.0912 105.032 41.6192ZM94.1276 28.7029C94.2816 27.2167 95.6272 26.1423 97.1083 26.2951C98.6087 26.4573 99.6992 27.7932 99.5336 29.2724C99.3716 30.7499 98.0404 31.8243 96.5448 31.6739C95.0424 31.5144 93.9648 30.1734 94.1276 28.7029ZM80.2223 31.6739C78.7251 31.8239 77.3943 30.7499 77.2223 29.2724C77.0691 27.7928 78.1531 26.4569 79.6419 26.2951C81.1391 26.1423 82.4739 27.2167 82.6383 28.7029C82.7943 30.1734 81.7135 31.5144 80.2223 31.6739ZM68.7983 44.5953C67.3067 44.7738 65.9579 43.7046 65.7911 42.2258C65.6175 40.7376 66.6803 39.4104 68.1887 39.2343C69.6659 39.074 71.0236 40.1274 71.196 41.6192C71.3568 43.0912 70.2843 44.4252 68.7983 44.5953ZM58.4039 58.6089C56.9131 58.76 55.5872 57.6667 55.4312 56.1804C55.2936 54.7009 56.3868 53.3927 57.884 53.2336C59.384 53.0943 60.7031 54.1718 60.8567 55.6573C60.9984 57.1404 59.9039 58.4617 58.4039 58.6089ZM51.164 74.3651C49.652 74.4478 48.3604 73.3252 48.2752 71.8294C48.196 70.3372 49.3411 69.0662 50.8355 68.974C52.3375 68.8881 53.6107 70.0222 53.7107 71.516C53.7939 72.9928 52.6492 74.2808 51.164 74.3651ZM48.2899 91.1015C46.7879 91.134 45.5307 89.9599 45.5055 88.4661C45.4711 86.9719 46.6611 85.7393 48.1604 85.6978C49.6575 85.6744 50.912 86.8485 50.9424 88.3442C50.9752 89.8293 49.7899 91.0699 48.2899 91.1015ZM68.4711 116.862C66.9663 116.862 65.7547 115.65 65.7547 114.149C65.7547 112.66 66.9663 111.461 68.4711 111.461C69.9731 111.461 71.1963 112.66 71.1963 114.149C71.1959 115.649 69.9731 116.862 68.4711 116.862ZM110.475 114.149C110.475 115.649 109.25 116.862 107.754 116.862C106.248 116.862 105.032 115.649 105.032 114.149C105.032 112.66 106.248 111.461 107.754 111.461C109.25 111.461 110.475 112.66 110.475 114.149ZM91.0567 68.7231L91.1908 68.6191L91.0567 68.7552V68.7231ZM85.0247 68.6191L85.5119 68.9981V69.0801L85.0247 68.6191ZM53.996 107.232C52.4896 107.296 51.2112 106.145 51.164 104.657C51.0972 103.156 52.2572 101.904 53.758 101.83C55.2556 101.775 56.5236 102.932 56.5924 104.417C56.6544 105.912 55.4864 107.172 53.996 107.232ZM122.458 101.831C123.969 101.905 125.128 103.157 125.064 104.658C125.01 106.146 123.727 107.296 122.227 107.232C120.742 107.174 119.57 105.913 119.621 104.419C119.692 102.933 120.97 101.776 122.458 101.831Z" fill="white"/>
</svg>
