<svg width="800" height="180" viewBox="0 0 800 180" fill="none" xmlns="http://www.w3.org/2000/svg">
<rect width="800" height="180" rx="15" fill="white"/>
<path d="M200 101.698L169.383 48.225L182.87 23.9998H149.335L119.214 78.1274H152.717L183.322 131.63L200 101.698Z" fill="#F25C19"/>
<path d="M109.635 24.0424L78.0396 78.1279L50 78.2246L66.7602 107.234L129.167 107.152L112.223 77.7904L143.613 24.0002L109.635 24.0424Z" fill="#F25C19"/>
<path d="M87.9731 142.533L149.62 142.605L163.855 166.374L180.61 137.364L148.758 84.2069L132.011 113.196L70.4331 113.169L87.9731 142.533Z" fill="#F25C19"/>
<path d="M262.505 78.7222H274.223C276.234 78.7222 277.674 78.6418 278.515 78.5282C280.012 78.3028 281.312 77.9244 282.409 77.407C283.509 76.8955 284.508 76.1526 285.381 75.1609C286.256 74.179 286.874 73.0304 287.211 71.7486C287.601 70.2296 287.505 68.9067 286.901 67.7934C286.295 66.686 285.261 65.8746 283.782 65.4395C282.301 64.9848 280.057 64.7613 277.068 64.7613H266.167L262.505 78.7222ZM267.429 59.9986H277.605C280.373 59.9986 282.387 59.8516 283.676 59.538C285.381 59.1166 286.738 58.4444 287.788 57.5271C288.841 56.5667 289.549 55.3986 289.932 53.9737C290.275 52.639 290.212 51.4571 289.732 50.4262C289.253 49.3952 288.36 48.7092 287.066 48.3192C285.767 47.9448 283.443 47.7469 280.049 47.7469H270.642L267.429 59.9986ZM255 83.4771L265.638 42.9999H283.305C286.907 42.9999 289.686 43.4095 291.646 44.2268C293.615 45.0422 294.979 46.3024 295.767 47.9997C296.55 49.701 296.699 51.4943 296.215 53.3367C295.759 55.0615 294.788 56.6883 293.3 58.2269C291.803 59.7321 289.843 60.9727 287.387 61.9115C290.051 62.6171 291.915 63.8519 292.984 65.5865C294.067 67.3308 294.29 69.3692 293.668 71.7212C293.174 73.6262 292.234 75.3765 290.871 77.0366C289.516 78.6418 288.035 79.906 286.428 80.7899C284.828 81.6719 282.929 82.3363 280.751 82.8067C278.556 83.2614 275.961 83.4771 272.976 83.4771H255Z" fill="#176FC1"/>
<path d="M311.96 66.8683H328L326.038 55.6514C325.446 52.2372 325.057 49.407 324.867 47.1824C323.543 49.8166 322.015 52.4057 320.242 54.9929L311.96 66.8683ZM294.023 83.4771L322.707 42.9999H329.512L338.151 83.4771H331.046L328.816 71.2253H308.963L300.648 83.4771H294.023Z" fill="#176FC1"/>
<path d="M343.071 83.4771L353.697 42.9999H360.093L376.498 74.7748L384.838 42.9999H390.815L380.19 83.4771H373.789L357.4 51.6884L349.044 83.4771H343.071Z" fill="#176FC1"/>
<path d="M390.421 83.4771L401.068 42.9999H407.312L402.049 63.0248L430.692 42.9999H439.131L415.056 59.4244L429.374 83.4771H421.133L409.75 63.0385L400.36 69.4594L396.68 83.4771H390.421Z" fill="#176FC1"/>
<path d="M455.556 59.3754H461.688C462.34 59.3754 463.673 59.1794 465.676 58.8305C466.679 58.6619 467.575 58.2268 468.368 57.5487C469.158 56.8764 469.672 56.0983 469.894 55.2163C470.231 53.9345 470 52.9193 469.234 52.2372C468.458 51.5355 466.749 51.1808 464.085 51.1808H457.7L455.556 59.3754ZM434.554 83.4771L445.199 42.9999H469.482C473.987 42.9999 477.351 43.3292 479.566 44.0053C481.751 44.66 483.358 45.883 484.352 47.6783C485.333 49.4756 485.496 51.659 484.809 54.2285C484.24 56.4766 483.162 58.4032 481.62 60.0418C480.07 61.6587 478.193 62.9954 475.978 63.997C474.56 64.6418 472.718 65.1945 470.435 65.6159C472.04 66.1059 473.16 66.6174 473.819 67.1074C474.268 67.4426 474.864 68.1364 475.594 69.2281C476.329 70.3355 476.792 71.1606 476.981 71.7623L480.967 83.4771H464.505L459.956 71.1195C459.397 69.5006 458.795 68.4657 458.142 68.0031C457.253 67.3583 456.145 67.0369 454.821 67.0369H453.538L449.213 83.4771H434.554Z" fill="#176FC1"/>
<path d="M515.581 68.0522L514.221 53.5053L505.224 68.0522H515.581ZM516.297 76.8269H499.743L495.694 83.4771H480.814L509.147 42.9999H525.114L532.127 83.4771H516.891L516.297 76.8269Z" fill="#176FC1"/>
<path d="M547.517 42.9999H562.117L558.092 58.2974L577.394 42.9999H596.743L575.593 58.2562L586.86 83.4771H568.906L563.373 66.8683L554.085 73.591L551.478 83.4771H536.887L547.517 42.9999Z" fill="#176FC1"/>
<path d="M597.535 42.9999H613.711L619.676 56.5962L632.738 42.9999H648.795L624.321 66.5194L619.87 83.4771H605.272L609.73 66.5194L597.535 42.9999Z" fill="#176FC1"/>
<path d="M666.714 68.0522L665.331 53.5053L656.341 68.0522H666.714ZM667.409 76.8269H650.869L646.81 83.4771H631.939L660.253 42.9999H676.238L683.238 83.4771H668.009L667.409 76.8269Z" fill="#176FC1"/>
<path d="M690.675 42.9999H735L732.389 52.9506H717.523L709.506 83.4771H694.9L702.932 52.9506H688.066L690.675 42.9999Z" fill="#176FC1"/>
<path fill-rule="evenodd" clip-rule="evenodd" d="M661.43 104.36L657.959 100.921L661.43 97.4632L664.878 100.921L661.43 104.36Z" fill="#176FC1"/>
<path fill-rule="evenodd" clip-rule="evenodd" d="M666.392 134.51L669.854 137.964L673.308 134.51L669.854 131.055L666.392 134.51ZM675.188 134.51L678.648 137.964L682.096 134.51L678.648 131.055L675.188 134.51ZM515.014 134.51L518.454 137.964L521.909 134.51L518.454 131.055L515.014 134.51ZM662.025 121.816C660.617 121.816 659.471 120.677 659.471 119.268C659.471 117.861 660.617 116.734 662.025 116.734C663.432 116.734 664.562 117.861 664.562 119.268C664.562 120.677 663.432 121.816 662.025 121.816ZM700.368 119.75L701.781 121.451L701.796 123.917L688.044 123.884V113.057C686.068 117.708 680.947 119.638 680.947 119.638L682.371 121.334V123.827L667.275 123.84V120.724C667.275 120.724 670.223 118.106 672.263 118.433L672.39 117.329C672.39 117.329 668.983 115.716 667.049 115.961C667.049 115.961 665.921 112.441 661.821 112.441C657.72 112.441 656.592 115.961 656.592 115.961C654.666 115.716 651.266 117.329 651.266 117.329L651.372 118.433C653.418 118.106 656.37 120.724 656.37 120.724V123.903H640.466C640.466 123.903 641.827 113.905 629.346 113.905H607.08C607.08 113.905 607.766 111.655 610.381 111.655C610.381 111.655 621.168 109.374 617.641 101.546C617.641 101.546 613.781 93.604 601.06 97.3436C601.06 97.3436 604.92 101.546 604.92 102.449C604.92 102.449 610.942 101.432 611.621 103.814C611.621 103.814 612.874 106.53 606.168 108.008C606.168 108.008 595.615 110.732 598.439 119.023H628.559C628.559 119.023 632.982 119.023 632.982 121.298C632.982 121.298 633.073 123.903 628.308 123.903H588.453V128.868L707.451 128.874V113.168C705.46 117.804 700.368 119.75 700.368 119.75ZM690.982 134.51L694.436 137.964L697.885 134.51L694.436 131.055L690.982 134.51ZM568.816 115.277C568.816 115.277 564.843 118.433 565.289 121.965C565.289 121.965 571.542 121.859 571.997 127.411C571.997 127.411 572.335 134.561 561.885 135.465L562.003 135.69C562.003 135.69 577.794 137.299 578.129 125.479C578.129 125.479 577.794 114.037 568.816 115.277ZM658.506 107.273L655.064 103.827L651.615 107.273L655.064 110.732L658.506 107.273ZM486.961 111.908L483.505 108.468L480.057 111.908L483.505 115.36L486.961 111.908ZM478.158 111.908L474.709 108.468L471.239 111.908L474.709 115.36L478.158 111.908ZM492.603 124.123C492.603 124.123 488.479 121.712 493.493 119.668C493.493 119.668 496.52 118.693 497.667 121.902C497.667 121.902 496.959 125.275 492.603 124.123ZM556.964 123.84H545.177C542.842 118.496 549.159 117.708 549.159 117.708C552.682 117.629 554.575 114.632 554.575 114.632C551.275 112.02 551.66 106.655 551.66 106.655C550.644 112.428 543.551 113.378 543.551 113.378C534.749 114.254 538.266 123.903 538.266 123.903H528.392V113.127C526.395 117.763 521.287 119.717 521.287 119.717L522.701 121.404V123.84H502.238V111.404L502.216 109.603C500.453 112.812 495.531 114.05 495.531 114.05L496.591 115.746V116.636C484.66 113.329 484.178 123.917 484.178 123.917H479.188C479.321 125.947 471.934 128.889 471.934 128.889H565.74C559.951 127.649 556.964 123.84 556.964 123.84ZM670.784 107.273L667.331 103.827L663.861 107.273L667.331 110.732L670.784 107.273ZM506.196 134.51L509.666 137.964L513.115 134.51L509.666 131.055L506.196 134.51Z" fill="#176FC1"/>
</svg>
