<svg width="500" height="350" viewBox="0 0 500 350" fill="none" xmlns="http://www.w3.org/2000/svg">
<rect width="500" height="350" rx="15" fill="#176FC1"/>
<path d="M325 137.698L294.383 84.225L307.87 59.9998H274.335L244.214 114.127H277.717L308.322 167.63L325 137.698Z" fill="#F25C19"/>
<path d="M234.635 60.0428L203.04 114.128L175 114.225L191.76 143.234L254.167 143.152L237.223 113.791L268.613 60.0007L234.635 60.0428Z" fill="#F25C19"/>
<path d="M212.973 178.533L274.62 178.605L288.855 202.374L305.61 173.364L273.758 120.207L257.011 149.196L195.433 149.169L212.973 178.533Z" fill="#F25C19"/>
<path d="M32.0359 264.49H43.0219C44.9068 264.49 46.2567 264.414 47.0456 264.308C48.4487 264.096 49.6679 263.742 50.6959 263.257C51.7276 262.777 52.6636 262.081 53.482 261.151C54.3022 260.23 54.8814 259.154 55.1977 257.952C55.5637 256.528 55.4736 255.288 54.9072 254.244C54.3389 253.206 53.3698 252.445 51.9832 252.037C50.5948 251.611 48.491 251.401 45.6884 251.401H35.4693L32.0359 264.49ZM36.6517 246.936H46.1923C48.7871 246.936 50.6757 246.798 51.8839 246.504C53.482 246.109 54.7546 245.479 55.7384 244.619C56.7259 243.719 57.3898 242.624 57.7484 241.288C58.0702 240.037 58.0114 238.929 57.5608 237.962C57.1121 236.996 56.2754 236.352 55.0617 235.987C53.8443 235.636 51.6651 235.45 48.4836 235.45H39.664L36.6517 246.936ZM25 268.947L34.9727 231H51.5363C54.9127 231 57.5185 231.384 59.3556 232.15C61.202 232.915 62.4801 234.096 63.2193 235.687C63.9531 237.282 64.0928 238.963 63.6386 240.691C63.212 242.308 62.3017 243.833 60.9059 245.275C59.5028 246.686 57.6656 247.849 55.3632 248.73C57.8606 249.391 59.6076 250.549 60.6098 252.175C61.625 253.81 61.8346 255.721 61.2516 257.926C60.7882 259.712 59.9073 261.353 58.6292 262.909C57.3585 264.414 55.9701 265.599 54.464 266.428C52.9634 267.255 51.1833 267.878 49.142 268.319C47.0842 268.745 44.6512 268.947 41.8523 268.947H25Z" fill="white"/>
<path d="M78.4 253.377H93.4373L91.5983 242.861C91.043 239.66 90.6788 237.007 90.5005 234.921C89.2592 237.391 87.8266 239.818 86.1642 242.243L78.4 253.377ZM61.5845 268.947L88.4758 231H94.8551L102.954 268.947H96.2932L94.2023 257.461H75.5901L67.7947 268.947H61.5845Z" fill="white"/>
<path d="M107.566 268.947L117.528 231H123.525L138.904 260.789L146.724 231H152.327L142.365 268.947H136.365L121 239.145L113.166 268.947H107.566Z" fill="white"/>
<path d="M151.957 268.947L161.939 231H167.792L162.858 249.773L189.711 231H197.622L175.053 246.398L188.475 268.947H180.75L170.078 249.786L161.275 255.806L157.825 268.947H151.957Z" fill="white"/>
<path d="M213.022 246.352H218.77C219.381 246.352 220.631 246.168 222.509 245.841C223.449 245.683 224.289 245.275 225.032 244.639C225.773 244.009 226.255 243.28 226.463 242.453C226.779 241.251 226.562 240.299 225.845 239.66C225.117 239.002 223.515 238.67 221.017 238.67H215.032L213.022 246.352ZM193.332 268.947L203.312 231H226.077C230.301 231 233.454 231.309 235.531 231.943C237.579 232.556 239.085 233.703 240.018 235.386C240.937 237.071 241.09 239.118 240.446 241.527C239.913 243.634 238.901 245.441 237.456 246.977C236.003 248.493 234.243 249.746 232.167 250.685C230.838 251.289 229.111 251.807 226.97 252.202C228.475 252.662 229.525 253.141 230.142 253.601C230.564 253.915 231.123 254.565 231.807 255.589C232.496 256.627 232.93 257.401 233.107 257.965L236.844 268.947H221.411L217.146 257.362C216.622 255.844 216.058 254.874 215.445 254.44C214.612 253.836 213.573 253.535 212.332 253.535H211.129L207.074 268.947H193.332Z" fill="white"/>
<path d="M269.295 254.486L268.02 240.849L259.585 254.486H269.295ZM269.966 262.713H254.447L250.651 268.947H236.701L263.263 231H278.232L284.806 268.947H270.523L269.966 262.713Z" fill="white"/>
<path d="M299.235 231H312.922L309.149 245.341L327.244 231H345.384L325.556 245.303L336.119 268.947H319.287L314.099 253.377L305.392 259.679L302.948 268.947H289.27L299.235 231Z" fill="white"/>
<path d="M346.127 231H361.291L366.883 243.746L379.129 231H394.183L371.238 253.05L367.065 268.947H353.38L357.56 253.05L346.127 231Z" fill="white"/>
<path d="M410.982 254.486L409.686 240.849L401.258 254.486H410.982ZM411.633 262.713H396.127L392.322 268.947H378.381L404.925 231H419.91L426.474 268.947H412.196L411.633 262.713Z" fill="white"/>
<path d="M433.445 231H475L472.552 240.329H458.615L451.099 268.947H437.406L444.936 240.329H430.999L433.445 231Z" fill="white"/>
<path fill-rule="evenodd" clip-rule="evenodd" d="M406.028 288.525L402.774 285.301L406.028 282.059L409.26 285.301L406.028 288.525Z" fill="white"/>
<path fill-rule="evenodd" clip-rule="evenodd" d="M410.68 316.791L413.926 320.029L417.164 316.791L413.926 313.552L410.68 316.791ZM418.926 316.791L422.17 320.029L425.403 316.791L422.17 313.552L418.926 316.791ZM268.763 316.791L271.988 320.029L275.227 316.791L271.988 313.552L268.763 316.791ZM406.586 304.89C405.266 304.89 404.192 303.822 404.192 302.501C404.192 301.182 405.266 300.125 406.586 300.125C407.905 300.125 408.964 301.182 408.964 302.501C408.964 303.822 407.905 304.89 406.586 304.89ZM442.533 302.953L443.857 304.548L443.872 306.86L430.979 306.828V296.678C429.127 301.039 424.325 302.848 424.325 302.848L425.66 304.438V306.775L411.507 306.788V303.866C411.507 303.866 414.271 301.412 416.184 301.718L416.304 300.684C416.304 300.684 413.109 299.172 411.296 299.401C411.296 299.401 410.239 296.101 406.395 296.101C402.55 296.101 401.492 299.401 401.492 299.401C399.687 299.172 396.5 300.684 396.5 300.684L396.599 301.718C398.517 301.412 401.285 303.866 401.285 303.866V306.847H386.374C386.374 306.847 387.65 297.474 375.949 297.474H355.075C355.075 297.474 355.719 295.365 358.17 295.365C358.17 295.365 368.282 293.226 364.976 285.887C364.976 285.887 361.357 278.441 349.431 281.947C349.431 281.947 353.05 285.887 353.05 286.734C353.05 286.734 358.696 285.78 359.332 288.013C359.332 288.013 360.507 290.56 354.22 291.945C354.22 291.945 344.326 294.499 346.974 302.272H375.212C375.212 302.272 379.359 302.272 379.359 304.405C379.359 304.405 379.443 306.847 374.976 306.847H337.612V311.501L449.173 311.507V296.783C447.307 301.129 442.533 302.953 442.533 302.953ZM433.733 316.791L436.972 320.029L440.205 316.791L436.972 313.552L433.733 316.791ZM319.202 298.76C319.202 298.76 315.478 301.718 315.896 305.03C315.896 305.03 321.758 304.93 322.185 310.136C322.185 310.136 322.501 316.839 312.705 317.686L312.815 317.897C312.815 317.897 327.619 319.406 327.934 308.324C327.934 308.324 327.619 297.597 319.202 298.76ZM403.287 291.256L400.06 288.026L396.827 291.256L400.06 294.499L403.287 291.256ZM242.464 295.602L239.223 292.377L235.991 295.602L239.223 298.837L242.464 295.602ZM234.21 295.602L230.978 292.377L227.724 295.602L230.978 298.837L234.21 295.602ZM247.753 307.053C247.753 307.053 243.887 304.793 248.587 302.876C248.587 302.876 251.425 301.963 252.501 304.971C252.501 304.971 251.837 308.133 247.753 307.053ZM308.091 306.788H297.041C294.852 301.777 300.774 301.039 300.774 301.039C304.077 300.965 305.851 298.156 305.851 298.156C302.758 295.706 303.119 290.677 303.119 290.677C302.166 296.088 295.516 296.98 295.516 296.98C287.265 297.801 290.562 306.847 290.562 306.847H281.305V296.744C279.433 301.09 274.644 302.922 274.644 302.922L275.97 304.504V306.788H256.786V295.129L256.765 293.441C255.112 296.449 250.498 297.61 250.498 297.61L251.491 299.199V300.034C240.307 296.934 239.854 306.86 239.854 306.86H235.176C235.301 308.763 228.375 311.521 228.375 311.521H316.319C310.892 310.358 308.091 306.788 308.091 306.788ZM414.797 291.256L411.561 288.026L408.308 291.256L411.561 294.499L414.797 291.256ZM260.497 316.791L263.75 320.029L266.983 316.791L263.75 313.552L260.497 316.791Z" fill="white"/>
</svg>
