<svg width="180" height="180" viewBox="0 0 180 180" fill="none" xmlns="http://www.w3.org/2000/svg">
<circle cx="90" cy="90" r="90" fill="white"/>
<path d="M152.265 120.148C152.789 116.335 152.489 112.374 151.367 108.711C150.843 106.842 150.095 105.048 149.122 103.328C146.129 98.021 141.863 93.5358 136.7 90.2467C131.237 86.6585 125.7 85.014 120.087 82.0986C116.944 80.3793 113.951 78.361 111.257 75.9689L107.74 78.8095C111.332 80.3045 114.924 81.7996 118.441 83.5189C125.774 87.0323 132.36 92.265 136.7 99.0675C139.918 104.076 141.788 109.757 142.163 115.663C142.237 116.933 142.163 118.204 141.863 119.4L141.714 120.148C135.727 119.699 129.291 120.148 123.305 120.073C124.502 112.523 121.958 105.048 117.393 99.0675C112.379 92.4893 105.046 87.9293 97.4879 84.8645C97.1885 84.7897 96.964 84.715 96.6647 84.6402L93.6714 85.9858C103.1 91.7417 110.808 100.787 112.679 111.925C113.277 114.616 113.203 117.457 112.604 120.148C97.5627 119.774 82.3718 120.148 67.2558 120.148C67.0313 117.606 66.5074 116.186 66.8068 113.495C68.1537 101.833 75.6369 91.8165 85.6644 85.911L82.746 84.715C74.4396 88.0041 67.7048 92.4893 62.3169 99.5908C60.0719 102.656 58.5004 106.094 57.6024 109.757C56.7793 113.121 56.8541 116.709 57.1535 120.148C51.6907 119.849 46.1532 119.849 40.6904 120.148C40.3163 120.148 39.9421 120.148 39.4931 120.073C38.2958 112.224 40.4659 104.524 44.881 98.021C49.0716 91.667 55.4323 86.9576 62.1672 83.5937C65.4598 81.9491 68.8272 80.6783 72.1947 79.1833L68.4531 76.1931C65.834 78.4357 63.0652 80.3793 59.9971 82.0986C54.9833 84.715 49.9696 86.2848 45.0307 89.2001C37.8468 93.4611 31.7854 100.189 29.316 108.187C28.0438 111.925 27.8193 115.887 28.5677 119.774C27.969 119.998 27.3703 120.073 26.7717 120.148C21.4586 119.924 15.9959 119.924 10.608 120.148C9.48551 116.335 10.0842 112 11.057 108.187C13.4516 98.9928 20.3361 91.1437 28.3432 86.21C33.0576 83.2947 38.3706 81.5006 43.3096 79.0338C48.6226 76.4174 53.9357 72.1565 56.8541 66.9986C58.1263 64.9055 58.9494 62.5134 59.1739 60.0465C59.2487 59.7475 59.3236 59.3738 59.5481 59.0747H62.9903C63.4393 63.4852 65.3101 67.5966 68.3782 70.7362C71.3715 67.5218 73.2423 63.4852 73.6913 59.0747L77.2084 59C77.8071 63.4852 79.7527 67.6713 82.8208 71.0352C84.3174 69.5401 85.5148 67.7461 86.4876 65.8773C87.6849 63.1862 87.8345 61.7658 88.508 59.0747H92.1C92.549 63.4104 94.4198 67.5218 97.3382 70.7362C100.107 67.3723 102.202 63.4852 102.651 59.1495H106.243C106.617 63.3357 108.413 67.2976 111.257 70.4372C114.026 67.2228 115.747 63.2609 116.196 59.0747H119.713C120.461 65.055 123.679 70.1382 128.319 73.9506C130.564 75.8194 132.958 77.5387 135.577 78.8842C141.04 81.7249 146.353 83.2947 151.666 86.7333C159.823 91.8912 166.483 99.8898 168.952 109.309C169.551 111.775 169.925 114.242 170 116.784C170 117.905 169.85 119.101 169.551 120.223C163.714 119.849 157.952 120.073 152.265 120.148ZM82.8956 80.7531L86.3379 79.1085L83.0453 76.4922L79.5282 79.258C80.6507 79.7065 81.7732 80.2298 82.8956 80.7531ZM96.4402 80.3793L96.8144 80.5288C98.0865 79.9308 99.2838 79.4075 100.481 78.7348L97.3382 76.1184L93.5966 79.1085C94.5694 79.4823 95.5422 79.9308 96.4402 80.3793ZM89.4809 83.5937C90.4537 83.6684 91.3516 82.9209 92.1748 82.3976L89.9298 81.5006L87.6101 82.6966C88.2087 83.0704 88.8074 83.3694 89.4809 83.5937ZM156.231 116.335L166.034 116.261C166.034 115.887 166.034 115.513 166.034 115.139C165.884 112.224 165.211 109.309 164.088 106.543C161.095 99.1423 155.258 93.162 148.374 89.0506C143.435 86.1353 138.346 84.5655 133.407 81.9491C126.897 78.5852 121.284 73.3525 117.992 66.7743C116.869 69.0169 115.448 71.1847 113.876 73.203C116.196 75.2961 118.815 77.0902 121.584 78.5852C126.897 81.3511 132.584 83.2199 137.673 86.4343C141.04 88.6021 144.108 91.1437 146.802 93.9843C152.265 99.8898 156.381 108.187 156.231 116.335ZM103.998 76.4174L104.298 76.6417L108.638 73.203C107.066 71.2595 105.645 69.0916 104.522 66.9238C103.4 69.2411 101.903 71.4837 100.182 73.4273C101.304 74.4738 102.651 75.4456 103.998 76.4174ZM85.7393 73.7263L90.0795 76.8659C91.7258 75.8194 93.2224 74.6981 94.6442 73.3525C92.9231 71.3342 91.5013 69.0916 90.3788 66.6995C89.1067 69.2411 87.5352 71.6332 85.7393 73.7263ZM127.346 116.335L138.571 116.261C138.496 114.616 138.271 112.972 137.972 111.402C137.523 109.159 136.849 106.991 135.802 104.973C132.135 97.5724 126.148 92.1155 119.039 88.0789C114.325 85.3878 108.937 83.9674 104.298 81.1268L101.828 82.5471C105.495 84.4159 109.087 86.5838 112.454 88.9011C120.386 94.8066 127.795 105.945 127.346 116.335ZM75.5621 76.9407L75.7866 77.0902L80.2017 73.8011C78.4057 71.708 76.8342 69.4654 75.5621 67.0733C74.29 69.3906 72.8682 71.5585 71.147 73.5768C72.6437 74.7728 74.0655 75.8941 75.5621 76.9407ZM23.6287 116.261H24.3771C24.3771 113.869 24.6764 111.551 25.2002 109.234C27.2955 99.9645 33.8807 91.8165 41.8129 86.7333C47.3505 83.2199 52.8132 81.5006 58.4256 78.5105C61.0447 77.0902 63.5142 75.3709 65.7591 73.4273C63.9632 71.409 62.4665 69.1664 61.344 66.6995C57.9766 73.6516 51.9152 78.959 45.1055 82.3976C39.9421 85.014 35.078 86.509 30.0643 89.6486C27.7445 91.1437 25.5744 92.7883 23.5539 94.7319C17.9415 100.189 13.8258 107.664 13.9006 115.663C13.9006 115.887 13.9754 116.111 14.0503 116.335C17.268 116.261 20.411 116.261 23.6287 116.261ZM43.0102 116.261L53.2622 116.186C53.2622 112.523 53.8608 108.86 55.133 105.421C59.6977 94.4328 67.3306 87.2566 78.3309 82.6219C77.4329 82.3976 76.6098 81.9491 75.9363 81.3511C71.147 84.117 65.9088 85.612 61.1195 88.3779C58.9494 89.6487 56.8541 91.069 54.9085 92.6388C48.0988 98.021 42.4116 107.365 43.0102 116.261ZM70.698 116.261H109.386C109.311 114.018 109.012 111.85 108.338 109.757C105.57 100.264 98.3858 92.4145 89.6305 87.9293C86.2631 89.7982 83.1201 92.0407 80.2765 94.6571C74.6641 100.114 70.0994 108.262 70.698 116.261Z" fill="#26366F"/>
</svg>
