<svg width="180" height="180" viewBox="0 0 180 180" fill="none" xmlns="http://www.w3.org/2000/svg">
<rect width="180" height="180" rx="15" fill="#26366F"/>
<path d="M148.373 101.326C148.864 97.752 148.584 94.0377 147.531 90.6037C147.04 88.8517 146.339 87.1698 145.427 85.5579C142.621 80.5822 138.622 76.3773 133.781 73.2938C128.66 69.9299 123.468 68.3881 118.207 65.655C115.26 64.0431 112.454 62.1509 109.928 59.9083L106.631 62.5714C109.999 63.973 113.366 65.3746 116.663 66.9865C123.538 70.2803 129.712 75.1859 133.781 81.5633C136.798 86.2587 138.552 91.5848 138.902 97.1212C138.973 98.3126 138.902 99.504 138.622 100.625L138.481 101.326C132.869 100.906 126.836 101.326 121.223 101.256C122.346 94.1778 119.961 87.1698 115.681 81.5633C110.981 75.3962 104.106 71.1213 97.0199 68.2479C96.7393 68.1779 96.5288 68.1078 96.2482 68.0377L93.442 69.2992C102.281 74.6954 109.507 83.1752 111.261 93.6172C111.823 96.1401 111.752 98.8032 111.191 101.326C97.09 100.976 82.8486 101.326 68.6773 101.326C68.4668 98.9433 67.9757 97.6118 68.2563 95.0889C69.5191 84.1563 76.5346 74.7654 85.9354 69.2291L83.1993 68.1078C75.4122 71.1913 69.0982 75.3962 64.0471 82.0539C61.9424 84.9272 60.4691 88.1509 59.6273 91.5849C58.8556 94.7385 58.9257 98.1024 59.2064 101.326C54.0851 101.046 48.8936 101.046 43.7723 101.326C43.4215 101.326 43.0707 101.326 42.6498 101.256C41.5273 93.8975 43.5618 86.6792 47.701 80.5822C51.6296 74.6253 57.5928 70.2102 63.9067 67.0566C66.9936 65.5148 70.1505 64.3234 73.3075 62.9218L69.7998 60.1186C67.3443 62.221 64.7486 64.0431 61.8722 65.655C57.1719 68.1078 52.4715 69.5795 47.8413 72.3126C41.1064 76.3072 35.4238 82.6145 33.1087 90.1132C31.9161 93.6172 31.7056 97.3315 32.4072 100.976C31.8459 101.186 31.2847 101.256 30.7235 101.326C25.7425 101.116 20.6211 101.116 15.57 101.326C14.5177 97.752 15.0789 93.6873 15.9909 90.1132C18.2359 81.4932 24.6901 74.1347 32.1967 69.5094C36.6165 66.7763 41.5975 65.0943 46.2277 62.7817C51.2087 60.3288 56.1897 56.3342 58.9257 51.4986C60.1184 49.5364 60.8901 47.2938 61.1005 44.9811C61.1707 44.7008 61.2409 44.3504 61.4513 44.0701H64.6784C65.0994 48.2048 66.8533 52.0593 69.7296 55.0027C72.5358 51.9892 74.2897 48.2048 74.7106 44.0701L78.0079 44C78.5691 48.2048 80.3932 52.1294 83.2695 55.283C84.6726 53.8814 85.7951 52.1994 86.7071 50.4474C87.8296 47.9245 87.9699 46.593 88.6013 44.0701H91.9687C92.3896 48.1348 94.1435 51.9892 96.8796 55.0027C99.4753 51.849 101.44 48.2048 101.861 44.1402H105.228C105.579 48.0647 107.262 51.779 109.928 54.7224C112.524 51.7089 114.138 47.9946 114.559 44.0701H117.856C118.557 49.6765 121.574 54.442 125.924 58.0161C128.028 59.7682 130.273 61.38 132.729 62.6415C137.85 65.3045 142.831 66.7762 147.812 70C155.459 74.8355 161.703 82.3342 164.018 91.1644C164.579 93.477 164.93 95.7897 165 98.1724C165 99.2237 164.86 100.345 164.579 101.396C159.107 101.046 153.705 101.256 148.373 101.326ZM83.3397 64.3935L86.5668 62.8517L83.48 60.3989L80.1827 62.9919C81.235 63.4124 82.2873 63.9029 83.3397 64.3935ZM96.0377 64.0431L96.3885 64.1833C97.5811 63.6226 98.7036 63.1321 99.8261 62.5013L96.8796 60.0485L93.3718 62.8517C94.2838 63.2021 95.1958 63.6226 96.0377 64.0431ZM89.5133 67.0566C90.4253 67.1267 91.2672 66.4258 92.0389 65.9353L89.9342 65.0943L87.7594 66.2156C88.3207 66.566 88.8819 66.8463 89.5133 67.0566ZM152.091 97.752L161.282 97.6819C161.282 97.3315 161.282 96.9811 161.282 96.6307C161.141 93.8975 160.51 91.1644 159.458 88.5714C156.652 81.6334 151.179 76.0269 144.725 72.1725C140.095 69.4393 135.324 67.9676 130.694 65.5148C124.591 62.3612 119.329 57.4555 116.242 51.2884C115.19 53.3908 113.857 55.4232 112.384 57.3153C114.559 59.2776 117.014 60.9595 119.61 62.3612C124.591 64.9541 129.923 66.7062 134.693 69.7196C137.85 71.752 140.726 74.1347 143.252 76.7978C148.373 82.3342 152.232 90.1131 152.091 97.752ZM103.123 60.3288L103.404 60.5391L107.473 57.3153C106 55.4932 104.667 53.4609 103.614 51.4286C102.562 53.6011 101.159 55.7035 99.5455 57.5256C100.598 58.5067 101.861 59.4178 103.123 60.3288ZM86.0055 57.8059L90.0745 60.7493C91.6179 59.7682 93.021 58.717 94.354 57.4555C92.7404 55.5633 91.4075 53.4609 90.3552 51.2183C89.1625 53.6011 87.6893 55.8436 86.0055 57.8059ZM125.012 97.752L135.535 97.6819C135.465 96.1401 135.254 94.5983 134.974 93.1266C134.553 91.0242 133.921 88.9918 132.939 87.0997C129.502 80.1617 123.889 75.0458 117.224 71.2614C112.805 68.7385 107.754 67.407 103.404 64.7439L101.089 66.0754C104.526 67.8275 107.894 69.8598 111.051 72.0323C118.487 77.5687 125.433 88.0107 125.012 97.752ZM76.4645 60.8194L76.6749 60.9595L80.8141 57.876C79.1304 55.9137 77.6571 53.8113 76.4645 51.5687C75.2718 53.7412 73.9389 55.7736 72.3253 57.6657C73.7284 58.787 75.0614 59.8382 76.4645 60.8194ZM27.777 97.6819H28.4785C28.4785 95.4393 28.7591 93.2668 29.2502 91.0943C31.2145 82.4043 37.3882 74.7655 44.8246 70C50.0161 66.7062 55.1374 65.0943 60.399 62.2911C62.8544 60.9595 65.1695 59.3477 67.2742 57.5256C65.5905 55.6334 64.1874 53.531 63.135 51.2183C59.9781 57.7358 54.2955 62.7116 47.9114 65.9353C43.0707 68.3881 38.5107 69.7897 33.8103 72.7331C31.6355 74.1347 29.601 75.6765 27.7068 77.4986C22.4452 82.6145 18.5867 89.6226 18.6568 97.1212C18.6568 97.3315 18.727 97.5417 18.7971 97.752C21.8138 97.6819 24.7603 97.6819 27.777 97.6819ZM45.9471 97.6819L55.5583 97.6118C55.5583 94.1778 56.1195 90.7439 57.3122 87.5202C61.5916 77.2183 68.7474 70.4905 79.0602 66.1455C78.2183 65.9353 77.4466 65.5148 76.8152 64.9542C72.3253 67.5471 67.4145 68.9488 62.9246 71.5417C60.8901 72.7331 58.9257 74.0646 57.1017 75.5363C50.7176 80.5822 45.3858 89.3423 45.9471 97.6819ZM71.9044 97.6819H108.174C108.104 95.5794 107.824 93.5471 107.192 91.5849C104.597 82.6846 97.8617 75.3261 89.6536 71.1213C86.4966 72.8733 83.5501 74.9757 80.8842 77.4285C75.6226 82.5444 71.3432 90.1832 71.9044 97.6819Z" fill="white"/>
<path d="M153.381 112.415C152.5 111.855 151.779 111.055 151.298 110.174C150.497 110.975 149.695 111.695 148.814 112.415C148.333 112.816 148.413 112.095 148.734 111.615L151.618 107.133C152.9 107.213 152.5 106.652 154.022 107.373C155.785 108.173 155.705 109.454 155.304 111.055C155.064 111.775 154.423 112.335 153.702 112.576L153.381 112.415Z" fill="white"/>
<path d="M22.0513 131.225C20.2083 131.065 18.3654 131.145 16.8429 129.945C15.8013 129.064 15.1603 127.783 15 126.423C15 123.941 15.4006 121.46 16.2019 119.139C16.2821 118.738 16.6827 119.779 16.7628 120.099C17.0032 121.94 17.5641 123.701 18.3654 125.302C19.8878 125.942 21.4904 126.263 23.1731 126.343C27.9808 126.423 33.9103 126.182 37.5962 122.661L36.3942 119.779L38.5577 114.576C40.9615 117.618 41.2821 121.94 39.2788 125.302C35.9135 131.145 28.0609 131.786 22.0513 131.225Z" fill="white"/>
<path d="M46.8907 122.501C46.8105 119.299 46.8105 116.097 46.8907 112.816L50.2561 109.614L50.3362 120.98L46.9708 123.701C46.8906 123.301 46.8907 122.901 46.8907 122.501Z" fill="white"/>
<path d="M29.5031 110.255C27.8204 110.335 26.2178 110.335 24.5352 110.255L26.5384 107.293L31.5063 107.373L30.064 110.255H29.5031Z" fill="white"/>
<path d="M80.9456 131.866C80.9456 124.742 80.9456 117.618 80.9456 110.494C80.9456 110.174 81.0257 109.854 81.1859 109.614L83.5898 107.853L83.6699 126.983C86.4744 127.624 89.0385 126.903 91.5225 125.543C90.8815 123.702 90.3206 122.741 90.9616 120.82C91.2821 119.86 92.8045 119.059 93.7661 118.979C94.8077 118.899 96.4905 118.819 97.2917 119.539C98.734 120.9 98.2532 123.542 97.452 125.062C99.5353 125.303 101.539 124.982 103.542 124.342C103.862 124.182 104.183 124.022 104.503 123.862C104.183 122.901 104.022 121.861 104.183 120.82C104.183 120.18 104.664 119.539 105.224 119.299C106.587 118.819 108.029 118.899 109.311 119.619C109.712 119.94 109.952 120.34 110.032 120.82C110.272 121.701 110.673 122.101 110.433 123.141C110.353 123.542 110.112 123.942 109.872 124.262C107.468 127.624 98.8142 129.705 94.8879 130.185C94.4872 130.265 94.1667 130.265 93.7661 130.185L92.8045 128.985C90.7212 130.105 88.5577 131.066 86.3142 131.786C84.5513 132.186 82.7084 132.266 80.9456 131.866Z" fill="white"/>
<path d="M35.2722 132.426C34.7113 132.426 34.2306 132.106 34.7113 131.866C43.1248 128.584 50.9774 124.022 56.6665 116.738C57.9485 114.977 58.83 113.056 59.471 110.974C60.1921 110.494 60.9133 110.094 61.6345 109.774L62.9165 109.454V126.183C64.1184 126.663 65.4806 126.823 66.7626 126.583C68.5255 126.263 70.128 125.622 71.6505 124.662C71.5704 123.141 72.2114 120.9 73.6537 120.179C73.8139 120.099 74.0543 120.019 74.2146 119.939C75.1761 119.859 76.2178 120.019 77.0992 120.5C78.4614 121.3 78.3011 122.901 77.8203 124.182C76.6985 127.223 70.2883 129.865 67.3235 130.745C64.8396 131.466 62.3556 131.866 59.7915 131.866C59.7915 127.623 59.7915 123.301 59.7915 119.059C59.7915 118.258 59.7915 117.378 59.3107 118.098C55.6248 123.381 51.5383 128.024 45.5286 130.585C42.2434 131.946 38.7979 132.586 35.2722 132.426Z" fill="white"/>
<path d="M120.689 130.265C119.086 128.904 117.484 126.903 117.644 124.742C117.804 122.181 119.167 119.539 120.689 117.538C121.651 116.257 122.853 115.137 124.135 114.256C125.417 113.376 126.699 112.656 128.141 112.015C128.622 111.935 129.183 111.855 129.663 111.775C131.426 114.016 131.987 116.898 131.266 119.619C130.625 121.78 128.381 122.501 126.458 122.821C125.977 122.901 125.417 122.901 124.936 122.901V119.379C125.817 119.379 126.699 119.379 127.66 119.299C129.343 118.659 128.381 116.578 127.66 115.537C126.538 116.177 119.727 120.82 120.288 122.501C120.208 124.342 122.051 126.103 123.654 126.743C127.901 128.504 136.314 125.062 139.679 122.421L139.76 111.135C140.561 110.254 141.522 109.454 142.484 108.733V126.583C144.808 127.624 147.131 126.983 149.054 125.543C148.974 123.621 148.654 122.261 149.936 120.74C150.897 119.539 152.5 118.979 154.022 119.299L154.583 119.379C156.987 120.34 155.385 123.942 154.583 125.382C156.587 125.863 157.308 125.943 159.231 125.062C160.593 124.422 161.795 123.381 162.596 122.101L160.994 119.859L163.638 115.537C164.76 116.978 164.92 118.979 165 120.74C164.84 122.101 164.519 123.461 163.878 124.742C161.394 128.744 156.266 129.785 151.859 130.185L150.577 128.904C147.532 130.585 144.327 131.866 140.801 131.626C140.401 131.546 139.92 131.386 139.599 131.226V126.023C135.593 128.984 130.945 131.626 125.897 132.026C123.974 131.946 122.131 131.386 120.689 130.265Z" fill="white"/>
<path d="M159.151 135.948L156.667 134.187C157.388 132.826 158.269 131.546 159.151 130.265C159.311 130.105 159.551 130.505 159.712 130.585C160.513 131.065 161.314 131.546 162.035 132.186L159.551 136.188L159.151 135.948Z" fill="white"/>
</svg>
