<svg width="760" height="150" viewBox="0 0 760 150" fill="none" xmlns="http://www.w3.org/2000/svg">
<path d="M759.683 149.894C759.471 150 759.259 150 759.048 150C506.032 150 253.016 150 0 150V0H760V149.789L759.683 149.894Z" fill="#26366F"/>
<path d="M6.56081 143.551H753.651V6.44775C506.243 6.55346 258.836 6.55346 11.4285 6.44775C9.73541 6.44775 8.14811 6.44775 6.56081 6.44775C6.66663 50.9509 6.66663 95.5598 6.56081 140.063C6.45499 141.226 6.45499 142.389 6.56081 143.551Z" fill="white"/>
<path d="M11.1111 139.535C11.1111 139.006 11.1111 138.478 11.1111 137.949C11.3227 95.4545 11.1111 52.9598 11.1111 10.4651H749.206C749.206 11.3108 749.312 12.2621 749.312 13.1078C749.312 55.074 749.312 96.9344 749.312 138.901C748.889 139.323 748.254 139.535 747.725 139.641L11.1111 139.535ZM13.9682 136.998H746.984L746.878 12.685C503.492 12.685 260.106 13.2135 16.7196 12.685C15.6614 12.685 14.6031 12.685 13.6508 12.7907C13.6508 53.6998 13.8624 94.7145 13.5449 135.624C13.4391 136.152 13.545 136.681 13.9682 136.998Z" fill="#26366F"/>
<path d="M667.407 118.71C664.338 118.816 661.164 118.71 658.095 118.604C657.989 102.642 658.095 86.5747 657.989 70.6127C657.989 70.0842 657.989 69.5556 658.095 69.0271L669.1 68.9214C669.1 84.6719 669.206 100.317 669.1 115.962C669.1 116.807 669.1 117.759 668.995 118.604C668.36 118.71 667.83 118.71 667.407 118.71Z" fill="#E04918"/>
<path d="M713.545 35.3064C712.381 34.5664 711.428 33.5093 710.793 32.3465C709.735 33.4036 708.677 34.355 707.513 35.3064C706.878 35.8349 706.984 34.8835 707.407 34.2493L711.217 28.3296C712.91 28.4353 712.381 27.6954 714.391 28.6467C716.719 29.7038 716.613 31.3951 716.084 33.5093C715.767 34.4607 714.92 35.2007 713.968 35.5178L713.545 35.3064Z" fill="#26366F"/>
<path d="M540.106 60.1475C537.672 59.9361 535.238 60.0418 533.228 58.4561C531.852 57.2933 531.005 55.602 530.794 53.805C530.794 50.528 531.323 47.2511 532.381 44.1855C532.487 43.657 533.016 45.0312 533.122 45.454C533.439 47.8853 534.18 50.2109 535.238 52.3251C537.249 53.1707 539.365 53.5936 541.587 53.6993C547.937 53.805 555.767 53.4878 560.635 48.8367L559.048 45.0312L561.905 38.1602C565.079 42.1771 565.503 47.8853 562.857 52.3251C558.413 60.0418 548.042 60.8874 540.106 60.1475Z" fill="#26366F"/>
<path d="M572.91 48.6257C572.804 44.3974 572.804 40.1691 572.91 35.835L577.354 31.6067L577.46 46.6173L573.015 50.2113C572.91 49.6828 572.91 49.1542 572.91 48.6257Z" fill="#26366F"/>
<path d="M549.947 32.4525C547.725 32.5582 545.608 32.5582 543.386 32.4525L546.032 28.5413L552.593 28.647L550.688 32.4525H549.947Z" fill="#26366F"/>
<path d="M617.884 60.9932C617.884 51.5852 617.884 42.1772 617.884 32.7691C617.884 32.3463 617.989 31.9235 618.201 31.6064L621.376 29.2808L621.481 54.545C625.185 55.3907 628.571 54.4393 631.852 52.6423C631.005 50.211 630.264 48.9425 631.111 46.4055C631.534 45.137 633.545 44.0799 634.815 43.9742C636.19 43.8685 638.413 43.7628 639.471 44.7142C641.376 46.5112 640.741 49.9996 639.682 52.008C642.434 52.3252 645.079 51.9023 647.725 51.0567C648.148 50.8452 648.571 50.6338 648.995 50.4224C648.571 49.1539 648.36 47.7797 648.571 46.4055C648.571 45.5598 649.206 44.7142 649.947 44.397C651.746 43.7628 653.651 43.8685 655.344 44.8199C655.873 45.2427 656.19 45.7713 656.296 46.4055C656.614 47.5683 657.143 48.0968 656.825 49.471C656.72 49.9996 656.402 50.5281 656.085 50.951C652.91 55.3907 641.481 58.1391 636.296 58.7734C635.767 58.8791 635.344 58.8791 634.815 58.7734L633.545 57.1877C630.794 58.6676 627.936 59.9361 624.974 60.8875C622.645 61.4161 620.212 61.5218 617.884 60.9932Z" fill="#26366F"/>
<path d="M557.566 61.7333C556.825 61.7333 556.19 61.3105 556.825 60.9933C567.936 56.6593 578.307 50.6339 585.82 41.0145C587.513 38.6889 588.677 36.1519 589.524 33.4035C590.476 32.7692 591.428 32.2407 592.381 31.8179L594.074 31.395V53.488C595.661 54.1223 597.46 54.3337 599.153 54.0166C601.481 53.5937 603.598 52.7481 605.608 51.4796C605.502 49.4711 606.349 46.5113 608.254 45.5599C608.465 45.4542 608.783 45.3485 608.994 45.2428C610.264 45.1371 611.64 45.3485 612.804 45.9828C614.603 47.0398 614.391 49.154 613.756 50.8453C612.275 54.8623 603.809 58.3506 599.894 59.5134C596.613 60.4648 593.333 60.9933 589.947 60.9933C589.947 55.3908 589.947 49.6825 589.947 44.08C589.947 43.0229 589.947 41.8601 589.312 42.8115C584.444 49.7883 579.047 55.9193 571.111 59.302C566.772 61.099 562.222 61.9447 557.566 61.7333Z" fill="#26366F"/>
<path d="M233.439 117.759C234.18 112.368 233.756 106.765 232.169 101.585C231.428 98.9426 230.37 96.4056 228.995 93.9743C224.762 86.469 218.73 80.1265 211.428 75.4754C203.703 70.4014 195.873 68.0758 187.936 63.9532C183.492 61.5219 179.259 58.6677 175.45 55.2851L170.476 59.302C175.555 61.4161 180.635 63.5303 185.608 65.9616C195.979 70.9299 205.291 78.3295 211.428 87.9489C215.979 95.0314 218.624 103.065 219.153 111.416C219.259 113.213 219.153 115.01 218.73 116.702L218.518 117.759C210.053 117.124 200.952 117.759 192.487 117.653C194.18 106.976 190.582 96.4056 184.127 87.9489C177.037 78.6466 166.666 72.1984 155.979 67.8643C155.555 67.7586 155.238 67.6529 154.815 67.5472L150.582 69.45C163.915 77.5895 174.815 90.3802 177.46 106.131C178.307 109.936 178.201 113.953 177.354 117.759C156.084 117.23 134.603 117.759 113.227 117.759C112.91 114.165 112.169 112.156 112.592 108.351C114.497 91.8601 125.079 77.6952 139.259 69.3443L135.132 67.653C123.386 72.3041 113.862 78.6466 106.243 88.6889C103.069 93.0229 100.846 97.8855 99.5765 103.065C98.4125 107.822 98.5183 112.896 98.9416 117.759C91.2167 117.336 83.386 117.336 75.6612 117.759C75.1321 117.759 74.603 117.759 73.968 117.653C72.2749 106.554 75.3437 95.6656 81.5871 86.469C87.513 77.4838 96.5077 70.8242 106.032 66.0673C110.688 63.7417 115.45 61.9447 120.211 59.8305L114.92 55.6022C111.217 58.7734 107.301 61.5219 102.963 63.9532C95.8728 67.653 88.7829 69.8728 81.7987 73.9954C71.64 80.0208 63.0686 89.5345 59.5765 100.845C57.7776 106.131 57.4601 111.733 58.5183 117.23C57.6717 117.547 56.8252 117.653 55.9786 117.759C48.4654 117.442 40.7405 117.442 33.1215 117.759C31.5342 112.368 32.3807 106.236 33.7564 100.845C37.1426 87.8432 46.8781 76.7439 58.2008 69.7671C64.8675 65.6445 72.3807 63.1075 79.3649 59.6191C86.8781 55.9193 94.3913 49.894 98.5183 42.6001C100.317 39.6403 101.481 36.2576 101.799 32.7692C101.905 32.3464 102.01 31.8178 102.328 31.395H107.196C107.83 37.6318 110.476 43.4458 114.815 47.8855C119.047 43.34 121.693 37.6318 122.328 31.395L127.301 31.2893C128.148 37.6318 130.899 43.5515 135.238 48.3083C137.354 46.1942 139.047 43.6572 140.423 41.0145C142.116 37.209 142.328 35.2005 143.28 31.395H148.36C148.994 37.5261 151.64 43.34 155.767 47.8855C159.682 43.1286 162.645 37.6318 163.28 31.5007H168.36C168.889 37.4204 171.428 43.0229 175.45 47.4627C179.365 42.9172 181.799 37.3147 182.434 31.395H187.407C188.465 39.8517 193.016 47.0398 199.577 52.4309C202.751 55.0736 206.137 57.5049 209.841 59.4077C217.566 63.4246 225.079 65.6445 232.592 70.5071C244.127 77.8009 253.545 89.1117 257.037 102.431C257.883 105.919 258.412 109.408 258.518 113.002C258.518 114.587 258.307 116.279 257.883 117.864C249.629 117.336 241.481 117.653 233.439 117.759ZM135.344 62.0504L140.211 59.7248L135.555 56.025L130.582 59.9362C132.169 60.5705 133.756 61.3104 135.344 62.0504ZM154.497 61.5219L155.026 61.7333C156.825 60.8876 158.518 60.1477 160.211 59.1963L155.767 55.4965L150.476 59.7248C151.852 60.2534 153.227 60.8876 154.497 61.5219ZM144.656 66.0673C146.032 66.173 147.301 65.1159 148.465 64.376L145.291 63.1075L142.01 64.7988C142.857 65.3274 143.703 65.7502 144.656 66.0673ZM239.047 112.368L252.91 112.262C252.91 111.733 252.91 111.205 252.91 110.676C252.698 106.554 251.746 102.431 250.159 98.5197C245.926 88.0546 237.672 79.598 227.936 73.784C220.952 69.6614 213.756 67.4415 206.772 63.7417C197.566 58.9849 189.629 51.5853 184.973 42.283C183.386 45.4542 181.375 48.5198 179.153 51.3739C182.434 54.3337 186.137 56.8707 190.053 58.9849C197.566 62.8961 205.608 65.5388 212.804 70.0842C217.566 73.1498 221.905 76.7439 225.714 80.7608C233.439 89.1117 239.259 100.845 239.047 112.368ZM165.185 55.9193L165.608 56.2364L171.746 51.3739C169.524 48.6255 167.513 45.5599 165.926 42.4944C164.338 45.7713 162.222 48.9426 159.788 51.691C161.375 53.1709 163.28 54.5451 165.185 55.9193ZM139.365 52.1138L145.502 56.5536C147.83 55.0737 149.947 53.488 151.957 51.5853C149.524 48.7312 147.513 45.5599 145.926 42.1773C144.127 45.7713 141.905 49.154 139.365 52.1138ZM198.201 112.368L214.074 112.262C213.968 109.936 213.651 107.611 213.227 105.391C212.592 102.22 211.64 99.154 210.159 96.2999C204.973 85.8347 196.508 78.1181 186.455 72.4098C179.788 68.6043 172.169 66.5958 165.608 62.5789L162.116 64.5874C167.301 67.2301 172.381 70.2956 177.143 73.5726C188.36 81.9235 198.836 97.6741 198.201 112.368ZM124.973 56.6593L125.291 56.8707L131.534 52.2195C128.994 49.2597 126.772 46.0885 124.973 42.7058C123.174 45.9828 121.164 49.0483 118.73 51.9024C120.846 53.5937 122.857 55.1794 124.973 56.6593ZM51.5342 112.262H52.5924C52.5924 108.879 53.0157 105.602 53.7564 102.325C56.7194 89.2174 66.0315 77.6952 77.2485 70.5071C85.0792 65.5388 92.804 63.1075 100.741 58.8791C104.444 56.8707 107.936 54.4394 111.111 51.691C108.571 48.8369 106.455 45.6656 104.868 42.1773C100.106 52.0081 91.5342 59.5134 81.9046 64.376C74.603 68.0758 67.7247 70.1899 60.6347 74.6297C57.3543 76.7438 54.2855 79.0694 51.4284 81.8178C43.4918 89.5345 37.6717 100.105 37.7776 111.416C37.7776 111.733 37.8834 112.05 37.9892 112.368C42.5395 112.262 46.9839 112.262 51.5342 112.262ZM78.9416 112.262L93.4389 112.156C93.4389 106.976 94.2855 101.797 96.0844 96.9341C102.539 81.395 113.333 71.247 128.889 64.6931C127.619 64.376 126.455 63.7417 125.502 62.8961C118.73 66.8073 111.323 68.9214 104.55 72.8326C101.481 74.6297 98.5183 76.6381 95.767 78.858C86.1374 86.469 78.095 99.6825 78.9416 112.262ZM118.095 112.262H172.804C172.698 109.091 172.275 106.025 171.323 103.065C167.407 89.6403 157.248 78.5409 144.868 72.1984C140.106 74.8411 135.661 78.0123 131.64 81.7121C123.703 89.4288 117.248 100.951 118.095 112.262Z" fill="#26366F"/>
<path d="M670.37 58.8794C668.254 57.0823 666.137 54.4396 666.349 51.5855C666.561 48.2028 668.36 44.7145 670.37 42.0718C671.64 40.3804 673.227 38.9005 674.921 37.7377C676.614 36.5749 678.307 35.6236 680.212 34.7779C680.847 34.6722 681.587 34.5665 682.222 34.4608C684.55 37.4206 685.291 41.2261 684.339 44.8202C683.492 47.6743 680.529 48.6257 677.989 49.0485C677.354 49.1542 676.614 49.1542 675.979 49.1542V44.503C677.143 44.503 678.307 44.503 679.577 44.3973C681.799 43.5517 680.529 40.8033 679.577 39.429C678.095 40.2747 669.1 46.4058 669.841 48.6257C669.735 51.057 672.169 53.3825 674.286 54.2282C679.894 56.5538 691.005 52.0083 695.45 48.52L695.556 33.6151C696.614 32.4523 697.884 31.3952 699.153 30.4438V54.0168C702.222 55.391 705.291 54.5453 707.831 52.6426C707.725 50.1056 707.301 48.3085 708.995 46.3001C710.264 44.7145 712.381 43.9745 714.391 44.3973L715.132 44.503C718.307 45.7715 716.19 50.5284 715.132 52.4311C717.778 53.0654 718.73 53.1711 721.27 52.0083C723.069 51.1627 724.656 49.7885 725.714 48.0971L723.598 45.1373L727.09 39.429C728.571 41.3318 728.783 43.9745 728.889 46.3001C728.677 48.0971 728.254 49.8942 727.407 51.5855C724.127 56.8709 717.354 58.2451 711.534 58.7736L709.841 57.0823C705.82 59.3022 701.587 60.9935 696.931 60.6764C696.402 60.5707 695.767 60.3593 695.344 60.1479V53.2768C690.053 57.188 683.915 60.6764 677.249 61.205C674.709 61.0992 672.275 60.3593 670.37 58.8794Z" fill="#26366F"/>
<path d="M380.741 118.816C380.529 118.393 380.423 117.864 380.423 117.442C380.423 110.676 380.635 103.805 380.106 97.0399C380 95.8771 379.577 94.8201 378.836 93.9744C377.249 92.3888 374.815 91.9659 372.698 92.9173C371.111 93.763 369.947 95.2429 369.735 97.0399C369.101 103.7 369.524 111.945 369.63 118.816H358.518C358.518 107.294 358.836 95.7714 358.201 84.2492H367.619L368.148 87.5262C368.148 87.8433 368.677 87.8433 368.995 88.0547C372.275 84.0378 377.778 82.875 382.645 83.9321C384.339 84.355 385.926 85.2006 387.196 86.3634C388.783 87.949 391.005 91.6488 391.111 93.9744C391.534 102.22 391.323 110.465 391.217 118.816H380.741Z" fill="#26366F"/>
<path d="M721.164 66.3843L717.884 64.0587C718.836 62.2617 720 60.5704 721.164 58.879C721.376 58.6676 721.693 59.1961 721.905 59.3019C722.963 59.9361 724.021 60.5704 724.974 61.416L721.693 66.7014L721.164 66.3843Z" fill="#26366F"/>
<path d="M491.64 118.71C488.571 118.816 485.397 118.816 482.328 118.604C481.799 107.188 481.27 95.8769 481.27 84.4605C481.27 84.1433 480.529 84.6719 480.212 84.7776C477.354 95.4541 473.862 106.236 470.582 116.701C470.476 117.124 470.159 117.547 469.947 117.864C467.301 118.076 464.762 118.076 462.116 117.864C461.799 117.653 461.481 117.441 461.376 117.124C458.307 106.236 455.45 95.137 452.381 84.1433C452.275 83.6148 451.852 85.0947 451.852 85.6233C451.852 86.5746 452.063 87.526 451.958 88.6888C451.64 97.9911 451.217 107.399 450.794 116.701C450.688 117.336 450.476 117.97 450.264 118.604L440.635 118.816C441.587 103.065 442.434 87.4203 443.704 71.6697C448.254 71.4583 452.91 71.4583 457.46 71.6697C457.883 71.8812 458.201 72.304 458.413 72.7268C461.164 82.8748 464.444 92.9171 466.455 103.171C469.629 92.6 472.698 82.2406 475.873 71.6697C480.635 71.3526 485.503 71.2469 490.264 71.564C490.688 87.1031 491.852 102.854 492.592 118.498L491.64 118.71Z" fill="#E04918"/>
<path d="M542.328 119.556C538.836 119.344 536.191 117.653 533.863 115.222C532.804 114.059 532.169 111.522 532.169 109.936C531.958 107.611 532.381 105.285 533.228 103.171C534.392 100.528 538.942 97.8855 541.587 97.0398C544.868 96.2999 548.148 95.877 551.429 95.877C552.064 95.1371 552.169 94.08 551.534 93.34C550.688 92.3887 549.63 91.6487 548.36 91.3316C546.561 91.2259 544.868 91.2259 543.069 91.4373C540.635 91.7544 538.413 92.6001 536.296 93.8686L534.392 86.7861C535.979 85.9404 537.566 85.3062 539.259 84.7777C540 84.5662 544.656 83.7206 545.291 83.7206C550.053 83.5092 555.238 84.0377 558.942 87.209C561.799 89.5345 562.857 93.6572 562.963 97.1455C563.175 104.334 562.857 111.522 563.281 118.71C560.318 118.816 557.355 118.816 554.392 118.71C553.228 118.287 553.333 116.49 553.228 115.644C550.37 118.287 546.455 119.767 542.328 119.556ZM545.397 111.628C548.148 112.262 550.9 110.888 552.064 108.351C552.487 106.871 552.593 105.285 552.381 103.805C552.275 103.488 552.593 102.854 552.169 102.748C549.418 102.431 544.233 102.854 543.175 106.025C542.54 107.822 542.434 108.985 543.81 110.57C544.233 111.099 544.762 111.522 545.397 111.628Z" fill="#E04918"/>
<path d="M292.381 119.238C290.264 119.133 288.254 118.921 286.137 118.498V71.9869C294.815 70.6126 309.1 69.6613 316.402 75.2638C320.212 78.2236 320.741 83.9319 318.73 88.0545C317.672 90.2744 314.921 92.1771 312.804 93.3399C317.883 94.7141 321.481 99.3653 321.376 104.756C321.587 114.376 312.91 118.816 304.339 119.238C300.529 119.344 296.402 119.344 292.381 119.238ZM297.249 89.8516C299.682 90.1687 302.116 90.063 304.55 89.5344C306.349 89.2173 307.831 88.0545 308.677 86.4689C309.206 85.0947 309.206 82.2406 307.936 81.1835C304.868 78.6465 300.952 78.8579 297.249 79.4921C297.143 82.8748 297.143 86.3632 297.249 89.8516ZM297.249 110.888C299.682 111.416 302.222 111.416 304.55 110.782C306.561 110.465 308.254 109.302 309.418 107.611C310.37 106.342 310.476 102.854 309.524 101.585C306.667 97.7797 301.587 97.7797 297.249 98.0968C297.143 102.325 297.143 106.659 297.249 110.888Z" fill="#26366F"/>
<path d="M417.672 118.816C415.026 114.27 412.275 109.725 409.629 105.18C408.36 105.92 407.513 107.082 407.09 108.457C406.666 111.839 407.09 115.433 407.09 118.922H396.084C396.19 102.854 396.084 86.7863 396.084 70.7187C396.084 70.1901 396.084 69.5559 396.084 69.0273H406.878C406.878 69.6616 406.984 70.1901 406.984 70.8244C406.878 79.3868 406.984 87.9491 406.878 96.5115C406.878 97.5686 406.878 98.7313 407.407 97.8857C410.053 93.5516 412.804 89.3233 415.767 85.2007C415.979 84.8836 416.296 84.6722 416.614 84.5665L429.524 84.355L417.143 98.4142L431.323 118.816H417.672Z" fill="#26366F"/>
<path d="M330.265 119.133C326.878 118.076 324.339 115.433 323.175 112.156C322.751 109.937 322.751 107.611 323.175 105.285C326.349 97.463 334.603 95.4545 342.328 95.7717C342.54 95.4545 342.646 95.0317 342.857 94.7146C342.963 93.6575 341.799 92.389 340.847 91.9662C336.614 90.0634 331.111 91.4376 327.196 93.7632C326.667 91.7547 326.032 89.9577 325.503 87.9493C325.397 87.5264 325.291 86.9979 325.397 86.5751C330.9 83.7209 337.143 82.8753 343.175 83.9324C347.831 84.778 351.958 87.9493 353.228 92.4947C355.132 99.7886 353.757 110.782 354.392 118.816H344.55L343.915 115.645C342.328 117.336 340.212 118.605 337.884 119.239C335.344 119.767 332.698 119.767 330.265 119.133ZM334.709 110.782C335.661 111.522 338.095 112.262 339.365 111.416C340.529 110.888 342.54 109.619 342.857 108.351C343.175 106.871 343.386 105.285 343.28 103.805C343.175 103.383 343.492 102.748 343.175 102.748C340.106 102.537 335.556 102.96 333.968 106.131C333.122 107.717 333.439 109.619 334.709 110.782Z" fill="#26366F"/>
<path d="M630.264 119.345C627.619 118.71 624.127 116.279 623.28 113.636C621.905 109.091 621.481 106.554 624.021 102.326C625.291 100.74 626.878 99.4714 628.677 98.4144C632.804 96.5116 637.354 95.6659 641.905 95.8774C642.222 94.926 642.116 93.8689 641.693 92.9175C637.566 89.4292 630.794 91.5433 626.561 93.6575L624.55 86.6808C629.841 84.2495 635.767 83.2981 641.587 83.8266C642.857 84.038 644.127 84.2495 645.397 84.6723C646.772 85.3065 648.042 86.0465 649.312 86.9979C650.582 88.3721 651.534 89.9577 652.275 91.649C652.698 93.1289 653.016 94.6089 653.227 96.1945C653.227 102.22 652.381 113.108 653.862 118.499C650.793 118.605 647.725 118.71 644.656 118.605C643.809 117.653 643.28 116.49 643.069 115.222C641.27 117.653 640.423 117.653 637.883 118.922C636.508 119.662 631.64 119.662 630.264 119.345ZM635.555 111.628C636.614 111.734 637.566 111.734 638.624 111.734C640.317 111.205 641.587 110.042 642.328 108.457C642.751 106.66 642.751 104.757 642.54 102.96C640.952 102.643 639.365 102.748 637.883 103.171C635.873 103.7 632.91 105.285 633.016 107.717C632.91 109.197 633.862 111.205 635.555 111.628Z" fill="#E04918"/>
<path d="M715.026 119.133C713.227 118.393 711.64 117.336 710.37 115.962C708.889 113.742 708.042 111.099 708.042 108.351C707.725 103.171 708.042 97.8855 708.042 92.6001L703.492 92.0715V84.3548H707.936C708.042 82.5578 708.042 80.655 708.042 78.858C708.042 78.4352 708.677 77.9066 708.994 77.6952C711.217 76.8496 713.545 76.321 715.767 75.6867C716.613 75.4753 717.566 75.3696 718.412 75.3696L718.624 84.3548L726.455 84.4605V92.0715C724.762 92.6001 722.963 92.6001 721.164 92.2829C720.211 92.1772 719.365 92.3887 718.518 92.9172C718.412 98.0969 718.624 103.171 718.942 108.245C721.164 110.888 722.857 110.782 726.031 109.936C725.82 112.685 725.82 115.327 725.82 117.97C725.502 118.393 725.502 118.604 724.762 118.816C721.693 119.556 718.307 119.661 715.026 119.133Z" fill="#E04918"/>
<path d="M504.868 119.027C501.799 118.076 500.741 117.019 498.942 114.482C498.095 112.473 497.46 110.465 496.931 108.456C496.72 100.528 496.826 92.4945 496.826 84.5664L507.619 84.4607C507.619 91.6489 507.408 98.9427 507.937 106.131C508.042 107.611 508.783 109.091 510.053 109.936C512.699 111.205 515.767 110.571 517.672 108.456C517.672 108.351 518.201 107.082 518.201 106.977C518.836 99.6827 518.519 92.1774 518.519 84.7778C522.222 84.4607 525.926 84.4607 529.63 84.6721L529.736 118.922H520.423L520.212 114.059C516.402 118.922 510.9 120.613 504.868 119.027Z" fill="#E04918"/>
<path d="M678.73 119.133C677.672 118.816 676.614 118.287 675.661 117.548C671.958 114.905 670.899 110.359 671.64 106.131C672.275 103.277 673.968 100.846 676.402 99.26C678.307 98.2029 680.317 97.3573 682.434 96.723C685.291 96.1945 688.148 95.9831 691.005 95.9831C691.534 94.6088 691.111 93.0232 689.947 92.0718C688.995 91.649 687.936 91.3319 686.878 91.2262C682.963 90.9091 679.047 91.7547 675.661 93.5518L673.756 86.6807C678.73 83.9323 684.338 83.4038 689.947 83.7209C690.053 83.7209 694.286 84.5666 694.497 84.6723C697.672 85.9408 700.212 88.4778 701.481 91.649C702.01 93.6575 702.328 95.6659 702.434 97.6744C702.434 104.651 702.116 111.734 702.751 118.605C699.788 118.816 696.719 118.816 693.757 118.393C692.698 118.182 692.487 115.75 692.487 115.011C689.418 119.767 683.704 119.873 678.73 119.133ZM684.762 111.628C685.714 111.839 686.772 111.839 687.831 111.522C692.275 110.359 692.063 106.448 691.852 102.748C688.995 102.22 684.021 102.96 682.751 106.025C682.328 106.977 682.222 108.034 682.54 109.091C682.751 110.359 683.598 111.205 684.762 111.628Z" fill="#E04918"/>
<path d="M618.095 118.816C615.132 118.816 612.169 118.816 609.312 118.71C609.206 111.522 609.523 104.228 608.889 97.0399C608.677 94.6086 606.878 92.7059 604.444 92.283C602.01 91.9659 599.153 94.82 599.047 97.0399C598.518 104.228 598.836 111.522 598.836 118.71H588.254C588.254 111.522 588.465 104.334 588.254 97.0399C587.725 95.6657 587.09 94.3972 586.349 93.2344C585.608 92.9173 584.762 92.6002 584.021 92.3887C582.751 92.6002 581.058 92.9173 580.105 93.9744C579.471 95.0314 578.836 96.0885 578.307 97.1456C578.201 104.439 578.412 111.733 578.201 118.922L567.936 119.027C567.83 118.287 567.83 117.547 567.83 116.807C567.936 106.131 568.148 95.3486 567.513 84.672H576.508C576.719 86.0462 576.825 87.3147 576.825 88.689C576.825 89.1118 577.672 88.3718 577.883 88.0547C580.952 84.672 584.021 83.7207 588.465 83.8264C592.486 83.9321 594.92 86.152 597.143 89.2175C598.518 87.5262 600.211 86.0462 602.116 84.9892C603.386 84.5663 604.656 84.1435 605.926 83.9321C608.783 83.615 611.64 84.1435 614.285 85.412C616.931 86.7862 618.941 91.3316 619.259 94.1858C620 101.057 619.788 109.831 619.682 116.913C619.576 117.653 619.365 118.287 619.047 119.027L618.095 118.816Z" fill="#E04918"/>
</svg>
