<svg width="181" height="180" viewBox="0 0 181 180" fill="none" xmlns="http://www.w3.org/2000/svg">
<rect x="0.100586" width="180" height="180" rx="15" fill="#0F156E"/>
<path d="M42.0289 143.002C37.3998 143.002 34.3345 146.837 34.3345 151.752C34.3345 156.668 37.4503 160.516 42.0289 160.516C46.6065 160.516 49.7221 156.681 49.7221 151.752C49.7221 146.823 46.6573 143.002 42.0289 143.002ZM40.9896 137.519C44.2369 137.476 47.3152 139.035 49.3122 141.732V138.073H55.0304V165.446H49.3122V161.786C47.3152 164.483 44.2369 166.042 40.9896 165.999C33.8605 165.999 28.4492 159.585 28.4492 151.752C28.4492 143.92 33.8605 137.519 40.9896 137.519Z" fill="white"/>
<path d="M59.4805 160.692L73.1109 143.542H59.6852V138.073H80.4965V142.894L66.9178 159.976H80.8043V165.445H59.4805V160.692Z" fill="white"/>
<path d="M96.384 143.002C91.7547 143.002 88.6905 146.837 88.6905 151.752C88.6905 156.668 91.8064 160.516 96.384 160.516C100.961 160.516 104.077 156.681 104.077 151.752C104.077 146.823 101.013 143.002 96.384 143.002ZM95.3456 137.519C98.592 137.476 101.671 139.035 103.667 141.732V138.073H109.386V165.446H103.667V161.786C101.671 164.483 98.592 166.042 95.3456 165.999C88.2166 165.999 82.8174 159.585 82.8174 151.752C82.8174 143.92 88.2166 137.519 95.3456 137.519Z" fill="white"/>
<path d="M126.76 143.002C122.131 143.002 119.067 146.837 119.067 151.752C119.067 156.668 122.196 160.516 126.76 160.516C131.326 160.516 134.454 156.681 134.454 151.752C134.454 146.823 131.389 143.002 126.76 143.002ZM125.722 137.519C128.966 137.474 132.041 139.034 134.031 141.732V126H139.75V165.446H134.031V161.786C132.041 164.484 128.966 166.044 125.722 165.999C118.593 165.999 113.182 159.585 113.182 151.752C113.182 143.92 118.593 137.519 125.722 137.519Z" fill="white"/>
<path d="M157.125 143.002C152.495 143.002 149.43 146.837 149.43 151.752C149.43 156.668 152.559 160.516 157.125 160.516C161.689 160.516 164.818 156.681 164.818 151.752C164.818 146.823 161.753 143.002 157.125 143.002ZM156.085 137.519C159.329 137.474 162.405 139.034 164.395 141.732V138.073H170.1V165.446H164.369V161.786C162.379 164.484 159.303 166.044 156.06 165.999C148.931 165.999 143.52 159.585 143.52 151.752C143.52 143.92 148.956 137.519 156.085 137.519Z" fill="white"/>
<path d="M10.1006 128.201H16.2297V159.26H26.7954V165.391H10.1259L10.1006 128.201Z" fill="white"/>
<path d="M51.7148 20.5245C49.1066 21.8977 32.6133 31.4329 27.6867 34.329L27.3175 34.5285C25.9197 35.398 25.0934 36.8887 25.1311 38.4726V80.9086C25.3029 82.4305 26.3021 83.7562 27.766 84.4032C29.6892 85.3269 80.6179 115.581 87.4936 119.351C88.2971 119.782 89.2059 120.006 90.1288 120V120C91.0563 119.99 91.9654 119.75 92.7634 119.301C99.7714 115.606 150.542 85.3519 152.465 84.3534C153.936 83.7142 154.939 82.3842 155.1 80.8588V38.4224C155.117 36.8316 154.246 35.3504 152.808 34.5285C151.939 34.0045 131.493 22.1474 128.49 20.5747C127.893 20.2344 127.21 20.0536 126.514 20.0506C125.864 20.0421 125.225 20.2065 124.669 20.5245C124.432 20.5245 102.38 33.7797 98.9284 35.502C96.2166 36.9045 93.1648 37.6103 90.0762 37.5489C87.3506 37.5919 84.6492 37.0548 82.1722 35.9762C78.6414 34.7034 55.5619 20.4496 55.5619 20.4496C54.9845 20.1615 54.3435 20.0073 53.691 20.0001C52.9952 20.0073 52.3136 20.1881 51.7148 20.5245Z" fill="url(#paint0_linear_846_2315)"/>
<mask id="mask0_846_2315" style="mask-type:luminance" maskUnits="userSpaceOnUse" x="89" y="36" width="67" height="84">
<path d="M89.8652 70.0746V120H90.1284C91.0514 120.005 91.9598 119.782 92.763 119.351C99.6394 115.581 150.541 85.3268 152.465 84.4031C153.935 83.7639 154.938 82.4337 155.099 80.9085V38.4725C155.108 37.7539 154.937 37.0438 154.599 36.4007L89.8652 70.0746Z" fill="white"/>
</mask>
<g mask="url(#mask0_846_2315)">
<mask id="mask1_846_2315" style="mask-type:luminance" maskUnits="userSpaceOnUse" x="-11329" y="-10544" width="22698" height="21505">
<path d="M-11328.3 -10543.8H11368.6V10960.4H-11328.3V-10543.8Z" fill="url(#paint1_linear_846_2315)"/>
</mask>
<g mask="url(#mask1_846_2315)">
<path d="M89.8662 70.0756V120.001H90.1294C91.0524 120.006 91.9608 119.783 92.764 119.351C99.6404 115.582 150.542 85.3278 152.466 84.4041C153.936 83.7649 154.939 82.4347 155.1 80.9095V38.4735C155.109 37.7549 154.938 37.0448 154.6 36.4017L89.8662 70.0756Z" fill="url(#paint2_linear_846_2315)"/>
</g>
</g>
<path d="M25.1009 38.7424V80.7266C25.2606 82.2357 26.2521 83.5515 27.7074 84.1841C29.6101 85.0977 79.9698 115.03 86.7731 118.759C87.5676 119.186 88.4667 119.407 89.3796 119.401H89.6404V70.0082L25.5958 36.6926C25.2619 37.3295 25.0922 38.0317 25.1009 38.7424Z" fill="url(#paint3_linear_846_2315)"/>
<defs>
<linearGradient id="paint0_linear_846_2315" x1="25.4559" y1="70.3411" x2="154.23" y2="69.2883" gradientUnits="userSpaceOnUse">
<stop stop-color="#FFB900"/>
<stop offset="1e-07" stop-color="#FFB900"/>
<stop offset="0.337553" stop-color="#F38000"/>
<stop offset="0.56729" stop-color="#F83C72"/>
<stop offset="0.78" stop-color="#FC1CBE"/>
<stop offset="0.93" stop-color="#FE08ED"/>
<stop offset="1" stop-color="#FF00FF"/>
</linearGradient>
<linearGradient id="paint1_linear_846_2315" x1="61.6472" y1="110.278" x2="189.519" y2="35.5493" gradientUnits="userSpaceOnUse">
<stop stop-color="white"/>
<stop offset="1" stop-color="white" stop-opacity="0"/>
</linearGradient>
<linearGradient id="paint2_linear_846_2315" x1="61.6468" y1="110.278" x2="189.519" y2="35.5494" gradientUnits="userSpaceOnUse">
<stop stop-color="#EE0A3F"/>
<stop offset="1" stop-color="#EE0A3F"/>
</linearGradient>
<linearGradient id="paint3_linear_846_2315" x1="75.4158" y1="89.9557" x2="14.6954" y2="38.3292" gradientUnits="userSpaceOnUse">
<stop stop-color="#ED6600"/>
<stop offset="1" stop-color="#F98200"/>
</linearGradient>
</defs>
</svg>
