<svg width="181" height="180" viewBox="0 0 181 180" fill="none" xmlns="http://www.w3.org/2000/svg">
<circle cx="90.1006" cy="90" r="90" fill="#0F156E"/>
<path d="M54.0471 135.751C50.5752 135.751 48.2762 138.628 48.2762 142.314C48.2762 146.001 50.6131 148.887 54.0471 148.887C57.4803 148.887 59.817 146.011 59.817 142.314C59.817 138.618 57.5183 135.751 54.0471 135.751ZM53.2676 131.639C55.703 131.607 58.0118 132.777 59.5095 134.799V132.055H63.7982V152.584H59.5095V149.839C58.0118 151.862 55.703 153.032 53.2676 152.999C47.9208 152.999 43.8623 148.189 43.8623 142.314C43.8623 136.44 47.9208 131.639 53.2676 131.639Z" fill="white"/>
<path d="M67.1357 149.019L77.3585 136.156H67.2893V132.054H82.8978V135.67L72.7137 148.482H83.1287V152.584H67.1357V149.019Z" fill="white"/>
<path d="M94.8127 135.751C91.3407 135.751 89.0425 138.628 89.0425 142.314C89.0425 146.001 91.3794 148.887 94.8127 148.887C98.2457 148.887 100.583 146.011 100.583 142.314C100.583 138.618 98.2845 135.751 94.8127 135.751ZM94.0339 131.639C96.4687 131.607 98.7781 132.777 100.275 134.799V132.055H104.564V152.584H100.275V149.839C98.7781 151.862 96.4687 153.032 94.0339 152.999C88.6871 152.999 84.6377 148.189 84.6377 142.314C84.6377 136.44 88.6871 131.639 94.0339 131.639Z" fill="white"/>
<path d="M117.595 135.751C114.123 135.751 111.825 138.628 111.825 142.314C111.825 146.001 114.172 148.887 117.595 148.887C121.019 148.887 123.365 146.011 123.365 142.314C123.365 138.617 121.067 135.751 117.595 135.751ZM116.816 131.639C119.249 131.605 121.556 132.776 123.048 134.799V123H127.337V152.584H123.048V149.839C121.556 151.863 119.249 153.033 116.816 152.999C111.47 152.999 107.411 148.189 107.411 142.314C107.411 136.44 111.47 131.639 116.816 131.639Z" fill="white"/>
<path d="M140.369 135.751C136.897 135.751 134.598 138.628 134.598 142.314C134.598 146.001 136.945 148.887 140.369 148.887C143.792 148.887 146.139 146.011 146.139 142.314C146.139 138.617 143.84 135.751 140.369 135.751ZM139.589 131.639C142.022 131.605 144.329 132.776 145.821 134.799V132.055H150.101V152.584H145.802V149.839C144.31 151.863 142.003 153.033 139.57 152.999C134.224 152.999 130.165 148.189 130.165 142.314C130.165 136.44 134.243 131.639 139.589 131.639Z" fill="white"/>
<path d="M30.1006 124.651H34.6974V147.945H42.6217V152.543H30.1196L30.1006 124.651Z" fill="white"/>
<path d="M56.6444 30.472C54.3371 31.7079 39.7469 40.2896 35.3888 42.8961L35.0622 43.0756C33.8257 43.8582 33.0947 45.1999 33.1281 46.6254V84.8178C33.28 86.1875 34.1639 87.3806 35.4589 87.9629C37.1602 88.7942 82.2125 116.023 88.2949 119.416C89.0056 119.804 89.8095 120.005 90.626 120V120C91.4465 119.991 92.2507 119.775 92.9566 119.371C99.156 116.046 144.068 88.8167 145.77 87.918C147.071 87.3428 147.958 86.1458 148.101 84.7729V46.5802C148.116 45.1485 147.345 43.8154 146.073 43.0756C145.304 42.604 127.217 31.9327 124.561 30.5172C124.033 30.2109 123.429 30.0482 122.813 30.0456C122.238 30.0379 121.673 30.1859 121.181 30.472C120.971 30.472 101.464 42.4017 98.4103 43.9518C96.0114 45.214 93.3117 45.8493 90.5795 45.7941C88.1683 45.8327 85.7786 45.3493 83.5875 44.3786C80.464 43.233 60.0475 30.4047 60.0475 30.4047C59.5368 30.1454 58.9697 30.0066 58.3925 30.0001C57.777 30.0066 57.1741 30.1693 56.6444 30.472Z" fill="url(#paint0_linear_846_2314)"/>
<mask id="mask0_846_2314" style="mask-type:luminance" maskUnits="userSpaceOnUse" x="90" y="44" width="59" height="76">
<path d="M90.3926 75.0671V120H90.6254C91.4419 120.005 92.2455 119.804 92.956 119.415C99.039 116.023 144.068 88.7941 145.769 87.9628C147.07 87.3875 147.957 86.1903 148.1 84.8177V46.6253C148.107 45.9785 147.956 45.3394 147.657 44.7606L90.3926 75.0671Z" fill="white"/>
</mask>
<g mask="url(#mask0_846_2314)">
<mask id="mask1_846_2314" style="mask-type:luminance" maskUnits="userSpaceOnUse" x="-10011" y="-9478" width="20079" height="19355">
<path d="M-10010.2 -9477.4H10067.7V9876.32H-10010.2V-9477.4Z" fill="url(#paint1_linear_846_2314)"/>
</mask>
<g mask="url(#mask1_846_2314)">
<path d="M90.3936 75.0671V120H90.6264C91.4429 120.005 92.2465 119.804 92.957 119.415C99.0399 116.023 144.069 88.7941 145.77 87.9628C147.071 87.3875 147.958 86.1903 148.101 84.8177V46.6253C148.108 45.9785 147.957 45.3394 147.658 44.7606L90.3936 75.0671Z" fill="url(#paint2_linear_846_2314)"/>
</g>
</g>
<path d="M33.1009 46.8684V84.6541C33.2421 86.0123 34.1192 87.1966 35.4066 87.7659C37.0898 88.5881 81.6388 115.527 87.6571 118.883C88.3599 119.267 89.1552 119.467 89.9628 119.461H90.1935V75.0076L33.5387 45.0235C33.2433 45.5967 33.0932 46.2287 33.1009 46.8684Z" fill="url(#paint3_linear_846_2314)"/>
<defs>
<linearGradient id="paint0_linear_846_2314" x1="33.4154" y1="75.307" x2="147.332" y2="74.3916" gradientUnits="userSpaceOnUse">
<stop stop-color="#FFB900"/>
<stop offset="1e-07" stop-color="#FFB900"/>
<stop offset="0.337553" stop-color="#F38000"/>
<stop offset="0.56729" stop-color="#F83C72"/>
<stop offset="0.78" stop-color="#FC1CBE"/>
<stop offset="0.93" stop-color="#FE08ED"/>
<stop offset="1" stop-color="#FF00FF"/>
</linearGradient>
<linearGradient id="paint1_linear_846_2314" x1="65.4303" y1="111.249" x2="179.533" y2="45.7075" gradientUnits="userSpaceOnUse">
<stop stop-color="white"/>
<stop offset="1" stop-color="white" stop-opacity="0"/>
</linearGradient>
<linearGradient id="paint2_linear_846_2314" x1="65.4302" y1="111.249" x2="179.532" y2="45.7077" gradientUnits="userSpaceOnUse">
<stop stop-color="#EE0A3F"/>
<stop offset="1" stop-color="#EE0A3F"/>
</linearGradient>
<linearGradient id="paint3_linear_846_2314" x1="77.6102" y1="92.9603" x2="23.1211" y2="47.4238" gradientUnits="userSpaceOnUse">
<stop stop-color="#ED6600"/>
<stop offset="1" stop-color="#F98200"/>
</linearGradient>
</defs>
</svg>
