<svg width="499" height="125" viewBox="0 0 499 125" fill="none" xmlns="http://www.w3.org/2000/svg">
<path d="M262.4 42.2778C253.877 42.2778 248.233 48.6919 248.233 56.9127C248.233 65.1336 253.97 71.5698 262.4 71.5698C270.828 71.5698 276.564 65.1561 276.564 56.9127C276.564 48.6693 270.922 42.2778 262.4 42.2778ZM260.486 33.1087C266.465 33.037 272.133 35.6445 275.81 40.1547V34.0349H286.338V79.8136H275.81V73.6929C272.133 78.2039 266.465 80.811 260.486 80.7393C247.361 80.7393 237.397 70.0117 237.397 56.9127C237.397 43.8137 247.361 33.1087 260.486 33.1087Z" fill="#000083"/>
<path d="M294.531 71.8639L319.627 43.1817H294.908V34.0348H333.225V42.0974L308.225 70.6669H333.792V79.8135H294.531V71.8639Z" fill="#000083"/>
<path d="M362.477 42.2783C353.953 42.2783 348.311 48.6924 348.311 56.9132C348.311 65.1341 354.048 71.5703 362.477 71.5703C370.904 71.5703 376.641 65.1566 376.641 56.9132C376.641 48.6698 370.999 42.2783 362.477 42.2783ZM360.565 33.1092C366.542 33.0375 372.211 35.645 375.886 40.1552V34.0353H386.416V79.814H375.886V73.6934C372.211 78.2044 366.542 80.8115 360.565 80.7398C347.439 80.7398 337.498 70.0122 337.498 56.9132C337.498 43.8142 347.439 33.1092 360.565 33.1092Z" fill="#000083"/>
<path d="M418.404 42.2782C409.881 42.2782 404.239 48.6922 404.239 56.9131C404.239 65.1339 410 71.5701 418.404 71.5701C426.81 71.5701 432.569 65.1565 432.569 56.9131C432.569 48.6697 426.927 42.2782 418.404 42.2782ZM416.492 33.1091C422.465 33.0337 428.127 35.6428 431.791 40.155V13.8443H442.319V79.8139H431.791V73.6933C428.127 78.2063 422.465 80.8146 416.492 80.7396C403.366 80.7396 393.403 70.0121 393.403 56.9131C393.403 43.8141 403.366 33.1091 416.492 33.1091Z" fill="#000083"/>
<path d="M474.311 42.2782C465.788 42.2782 460.145 48.6922 460.145 56.9131C460.145 65.1339 465.905 71.5701 474.311 71.5701C482.715 71.5701 488.475 65.1565 488.475 56.9131C488.475 48.6697 482.832 42.2782 474.311 42.2782ZM472.397 33.1091C478.37 33.0337 484.034 35.6428 487.696 40.155V34.0352H498.202V79.8139H487.65V73.6933C483.985 78.2063 478.323 80.8146 472.351 80.7396C459.225 80.7396 449.262 70.0121 449.262 56.9131C449.262 43.8141 459.272 33.1091 472.397 33.1091Z" fill="#000083"/>
<path d="M203.614 17.5257H214.899V69.4701H234.352V79.7231H203.661L203.614 17.5257Z" fill="#000083"/>
<path d="M32.9188 0.711494C29.6927 2.42647 9.29225 14.3346 3.19863 17.9514L2.74199 18.2006C1.01307 19.2865 -0.00902618 21.1482 0.0376665 23.1263V76.1231C0.25014 78.0237 1.486 79.6793 3.29673 80.4874C5.67549 81.6409 68.6687 119.425 77.1732 124.132C78.167 124.671 79.291 124.95 80.4326 124.942V124.943C81.5798 124.931 82.7043 124.63 83.6913 124.07C92.3594 119.456 155.157 81.6721 157.536 80.4251C159.355 79.6268 160.595 77.9659 160.795 76.0608V23.0636C160.816 21.0769 159.738 19.2271 157.959 18.2006C156.884 17.5462 131.595 2.7383 127.881 0.77417C127.143 0.349213 126.298 0.123428 125.437 0.119736C124.633 0.109085 123.843 0.3144 123.156 0.711494C122.862 0.711494 95.5864 17.2654 91.3168 19.4164C87.9626 21.1679 84.1878 22.0494 80.3675 21.9727C76.9962 22.0264 73.6549 21.3556 70.5912 20.0086C66.2239 18.419 37.6771 0.61805 37.6771 0.61805C36.963 0.258247 36.1701 0.0656509 35.3631 0.056633C34.5024 0.0656509 33.6594 0.291451 32.9188 0.711494Z" fill="url(#paint0_linear_845_2137)"/>
<mask id="mask0_845_2137" style="mask-type:luminance" maskUnits="userSpaceOnUse" x="80" y="20" width="81" height="105">
<path d="M80.1074 62.5929V124.943H80.433C81.5746 124.95 82.6982 124.671 83.6916 124.132C92.197 119.424 155.157 81.6408 157.536 80.4873C159.355 79.689 160.596 78.0277 160.795 76.123V23.1262C160.806 22.2287 160.594 21.3419 160.176 20.5387L80.1074 62.5929Z" fill="white"/>
</mask>
<g mask="url(#mask0_845_2137)">
<mask id="mask1_845_2137" style="mask-type:luminance" maskUnits="userSpaceOnUse" x="-14043" y="-13193" width="28074" height="26857">
<path d="M-14042.8 -13192.7H14030.6V13663.1H-14042.8V-13192.7Z" fill="url(#paint1_linear_845_2137)"/>
</mask>
<g mask="url(#mask1_845_2137)">
<path d="M80.1074 62.5933V124.943H80.433C81.5746 124.95 82.6982 124.671 83.6916 124.132C92.197 119.425 155.157 81.6413 157.536 80.4877C159.355 79.6895 160.596 78.0282 160.795 76.1235V23.1267C160.806 22.2292 160.594 21.3424 160.176 20.5392L80.1074 62.5933Z" fill="url(#paint2_linear_845_2137)"/>
</g>
</g>
<path d="M0.000390155 23.4633V75.8958C0.19787 77.7805 1.4243 79.4237 3.22433 80.2138C5.57781 81.3547 67.8672 118.736 76.2821 123.393C77.2648 123.926 78.3769 124.203 79.5061 124.195H79.8286V62.51L0.612536 20.9034C0.199584 21.6988 -0.0103192 22.5757 0.000390155 23.4633Z" fill="url(#paint3_linear_845_2137)"/>
<defs>
<linearGradient id="paint0_linear_845_2137" x1="0.439407" y1="62.9256" x2="159.72" y2="61.636" gradientUnits="userSpaceOnUse">
<stop stop-color="#FFB900"/>
<stop offset="1e-07" stop-color="#FFB900"/>
<stop offset="0.337553" stop-color="#F38000"/>
<stop offset="0.56729" stop-color="#F83C72"/>
<stop offset="0.78" stop-color="#FC1CBE"/>
<stop offset="0.93" stop-color="#FE08ED"/>
<stop offset="1" stop-color="#FF00FF"/>
</linearGradient>
<linearGradient id="paint1_linear_845_2137" x1="45.204" y1="112.8" x2="204.14" y2="20.8084" gradientUnits="userSpaceOnUse">
<stop stop-color="white"/>
<stop offset="1" stop-color="white" stop-opacity="0"/>
</linearGradient>
<linearGradient id="paint2_linear_845_2137" x1="45.2031" y1="112.801" x2="204.139" y2="20.8089" gradientUnits="userSpaceOnUse">
<stop stop-color="#EE0A3F"/>
<stop offset="1" stop-color="#EE0A3F"/>
</linearGradient>
<linearGradient id="paint3_linear_845_2137" x1="62.2344" y1="87.4217" x2="-13.4763" y2="23.6671" gradientUnits="userSpaceOnUse">
<stop stop-color="#ED6600"/>
<stop offset="1" stop-color="#F98200"/>
</linearGradient>
</defs>
</svg>
