<svg width="181" height="180" viewBox="0 0 181 180" fill="none" xmlns="http://www.w3.org/2000/svg">
<circle cx="90.1006" cy="90" r="90" fill="#0F156E"/>
<path d="M51.7148 40.5245C49.1066 41.8977 32.6133 51.4329 27.6867 54.329L27.3175 54.5285C25.9197 55.398 25.0934 56.8887 25.1311 58.4726V100.909C25.3029 102.431 26.3021 103.756 27.766 104.403C29.6892 105.327 80.6179 135.581 87.4936 139.351C88.2971 139.782 89.2059 140.006 90.1288 140V140C91.0563 139.99 91.9654 139.75 92.7634 139.301C99.7714 135.606 150.542 105.352 152.465 104.353C153.936 103.714 154.939 102.384 155.1 100.859V58.4224C155.117 56.8316 154.246 55.3504 152.808 54.5285C151.939 54.0045 131.493 42.1474 128.49 40.5747C127.893 40.2344 127.21 40.0536 126.514 40.0506C125.864 40.0421 125.225 40.2065 124.669 40.5245C124.432 40.5245 102.38 53.7797 98.9284 55.502C96.2166 56.9045 93.1648 57.6103 90.0762 57.5489C87.3506 57.5919 84.6492 57.0548 82.1722 55.9762C78.6414 54.7034 55.5619 40.4496 55.5619 40.4496C54.9845 40.1615 54.3435 40.0073 53.691 40.0001C52.9952 40.0073 52.3136 40.1881 51.7148 40.5245Z" fill="url(#paint0_linear_846_2313)"/>
<mask id="mask0_846_2313" style="mask-type:luminance" maskUnits="userSpaceOnUse" x="89" y="56" width="67" height="84">
<path d="M89.8652 90.0746V140H90.1284C91.0514 140.005 91.9598 139.782 92.763 139.351C99.6394 135.581 150.541 105.327 152.465 104.403C153.935 103.764 154.938 102.434 155.099 100.909V58.4725C155.108 57.7539 154.937 57.0438 154.599 56.4007L89.8652 90.0746Z" fill="white"/>
</mask>
<g mask="url(#mask0_846_2313)">
<mask id="mask1_846_2313" style="mask-type:luminance" maskUnits="userSpaceOnUse" x="-11329" y="-10524" width="22698" height="21505">
<path d="M-11328.3 -10523.8H11368.6V10980.4H-11328.3V-10523.8Z" fill="url(#paint1_linear_846_2313)"/>
</mask>
<g mask="url(#mask1_846_2313)">
<path d="M89.8662 90.0756V140.001H90.1294C91.0524 140.006 91.9608 139.783 92.764 139.351C99.6404 135.582 150.542 105.328 152.466 104.404C153.936 103.765 154.939 102.435 155.1 100.91V58.4735C155.109 57.7549 154.938 57.0448 154.6 56.4017L89.8662 90.0756Z" fill="url(#paint2_linear_846_2313)"/>
</g>
</g>
<path d="M25.1009 58.7424V100.727C25.2606 102.236 26.2521 103.552 27.7074 104.184C29.6101 105.098 79.9698 135.03 86.7731 138.759C87.5676 139.186 88.4667 139.407 89.3796 139.401H89.6404V90.0082L25.5958 56.6926C25.2619 57.3295 25.0922 58.0317 25.1009 58.7424Z" fill="url(#paint3_linear_846_2313)"/>
<defs>
<linearGradient id="paint0_linear_846_2313" x1="25.4559" y1="90.3411" x2="154.23" y2="89.2883" gradientUnits="userSpaceOnUse">
<stop stop-color="#FFB900"/>
<stop offset="1e-07" stop-color="#FFB900"/>
<stop offset="0.337553" stop-color="#F38000"/>
<stop offset="0.56729" stop-color="#F83C72"/>
<stop offset="0.78" stop-color="#FC1CBE"/>
<stop offset="0.93" stop-color="#FE08ED"/>
<stop offset="1" stop-color="#FF00FF"/>
</linearGradient>
<linearGradient id="paint1_linear_846_2313" x1="61.6472" y1="130.278" x2="189.519" y2="55.5493" gradientUnits="userSpaceOnUse">
<stop stop-color="white"/>
<stop offset="1" stop-color="white" stop-opacity="0"/>
</linearGradient>
<linearGradient id="paint2_linear_846_2313" x1="61.6468" y1="130.278" x2="189.519" y2="55.5494" gradientUnits="userSpaceOnUse">
<stop stop-color="#EE0A3F"/>
<stop offset="1" stop-color="#EE0A3F"/>
</linearGradient>
<linearGradient id="paint3_linear_846_2313" x1="75.4158" y1="109.956" x2="14.6954" y2="58.3292" gradientUnits="userSpaceOnUse">
<stop stop-color="#ED6600"/>
<stop offset="1" stop-color="#F98200"/>
</linearGradient>
</defs>
</svg>
