<svg width="180" height="180" viewBox="0 0 180 180" fill="none" xmlns="http://www.w3.org/2000/svg">
<rect width="180" height="180" rx="15" fill="white"/>
<path d="M44.4933 65.0842C46.4815 62.9425 47.8232 59.9661 47.4583 57C44.5852 57.1047 41.1116 58.7052 39.066 60.8391C37.2128 62.7332 35.6096 65.7657 36.0521 68.6731C39.247 68.8927 42.5051 67.2258 44.4933 65.0842ZM52.7477 83.9072C52.6845 77.4925 58.6376 74.4063 58.9134 74.2532C55.5548 69.9137 50.3458 69.3113 48.4898 69.2449C44.0508 68.8544 39.8187 71.5678 37.5748 71.5678C35.3223 71.5678 31.8573 69.3062 28.1682 69.3751C23.3299 69.4364 18.868 71.8741 16.377 75.7209C11.3634 83.4886 15.1042 94.9601 20 101.242C22.3961 104.318 25.2463 107.774 29.0014 107.649C32.6158 107.524 33.9719 105.571 38.3391 105.571C42.6976 105.566 43.9301 107.644 47.737 107.585C51.6215 107.511 54.0866 104.446 56.4684 101.354C59.2065 97.7935 60.3414 94.3347 60.3988 94.1611C60.3213 94.1151 52.8339 91.5778 52.7477 83.9072ZM98.9934 65.0816C97.5453 63.841 95.6778 62.8761 93.4425 62.2125C91.2274 61.5564 88.5668 61.2246 85.5357 61.2246C83.5941 61.2169 81.6536 61.3064 79.7234 61.4926C78.1142 61.6522 76.5103 61.8522 74.9138 62.0925L74.4455 62.164V107.261H79.0798V88.262C80.6399 88.4994 82.427 88.6244 84.398 88.6244C87.0211 88.6244 89.4776 88.3258 91.7014 87.7412C93.8409 87.2007 95.8335 86.2773 97.5568 85.0278C99.2167 83.7951 100.552 82.2536 101.467 80.5122C102.415 78.7254 102.898 76.6246 102.898 74.2608C102.898 72.3055 102.55 70.5468 101.872 69.0331C101.217 67.5595 100.238 66.2163 98.9934 65.0816ZM94.7354 82.3067C92.3565 84.0782 88.9892 84.9768 84.7169 84.9768C83.5418 84.9768 82.4299 84.9308 81.4099 84.8466C80.6254 84.7835 79.8474 84.6674 79.0827 84.4994V65.3216C79.6947 65.222 80.4532 65.1276 81.3438 65.0433C82.473 64.9361 83.832 64.8825 85.3892 64.8825C87.1775 64.8667 88.9597 65.072 90.6843 65.4926C92.1541 65.8517 93.5351 66.4526 94.7555 67.2641C95.8674 68.0299 96.7409 69.0254 97.3471 70.2251C97.9591 71.4402 98.2665 72.8901 98.2665 74.5314C98.2636 77.9392 97.0741 80.5556 94.7354 82.3067ZM130.598 103.039C130.546 101.763 130.526 100.481 130.526 99.2051V86.6691C130.526 85.1835 130.356 83.6673 130.026 82.1612C129.707 80.6627 129.055 79.2359 128.107 77.9647C127.164 76.7088 125.846 75.6724 124.196 74.8811C122.547 74.0924 120.404 73.6942 117.821 73.6942C115.936 73.6942 114.094 73.9111 112.356 74.3425C110.531 74.809 108.804 75.5385 107.245 76.502L106.869 76.7343L108.434 79.9889L109 79.6494C110.236 78.9124 111.588 78.3413 113.011 77.9545C114.45 77.5546 115.948 77.3498 117.456 77.347C119.387 77.347 120.93 77.6584 122.03 78.271C123.148 78.8913 123.989 79.6596 124.532 80.5582C125.099 81.4848 125.469 82.4701 125.633 83.4937C125.808 84.5581 125.891 85.5103 125.891 86.3271V86.6896C119.022 86.6615 113.658 87.6774 110.095 89.717C106.357 91.8561 104.461 94.9013 104.461 98.766C104.461 99.879 104.685 101 105.127 102.107C105.576 103.228 106.257 104.231 107.147 105.089C108.044 105.957 109.202 106.664 110.586 107.192C111.965 107.726 113.589 107.994 115.402 107.994C117.969 108.032 120.494 107.418 122.682 106.225C123.636 105.701 124.484 105.107 125.208 104.466C125.516 104.191 125.811 103.903 126.09 103.603H126.268L126.693 107.264H131.161L131.037 106.677C130.792 105.475 130.645 104.259 130.598 103.039ZM125.891 96.6167C125.891 97.0558 125.774 97.6582 125.55 98.3806C125.25 99.1622 124.83 99.9034 124.303 100.583C123.129 102.11 121.424 103.254 119.45 103.838C118.252 104.188 116.996 104.358 115.735 104.341C114.903 104.341 114.077 104.216 113.293 103.971C112.531 103.735 111.832 103.364 111.239 102.878C110.617 102.356 110.126 101.724 109.796 101.023C109.431 100.275 109.248 99.348 109.248 98.2708C109.248 96.5069 109.782 95.0749 110.831 94.0284C111.96 92.9131 113.378 92.0589 114.962 91.5395C116.757 90.94 118.635 90.5596 120.545 90.4087C122.322 90.2565 124.106 90.1875 125.891 90.202V96.6167ZM162.05 74.4268L153.402 95.3149C152.861 96.5759 152.359 97.8471 151.899 99.0851C151.675 99.7028 151.462 100.287 151.252 100.844H151.089C150.873 100.234 150.652 99.6259 150.428 99.0187C149.98 97.7935 149.497 96.5912 149.003 95.4451L139.754 74.4268H134.81L148.04 104.645C148.388 105.372 148.44 105.707 148.44 105.842C148.44 105.883 148.422 106.13 148.035 107.049C147.312 108.689 146.369 110.245 145.228 111.685C144.167 112.966 143.196 114.008 142.331 114.776C141.326 115.669 140.289 116.402 139.234 116.956C138.157 117.52 137.174 117.977 136.304 118.322L135.804 118.521L137.416 122L137.927 121.832C138.346 121.691 139.134 121.372 140.329 120.854C141.536 120.325 142.872 119.488 144.297 118.355C145.559 117.367 146.681 116.245 147.635 115.013C148.612 113.768 149.589 112.305 150.549 110.682C151.497 109.061 152.445 107.218 153.37 105.199C154.295 103.169 155.289 100.9 156.315 98.4623L167 74.4268H162.05Z" fill="black"/>
</svg>
