<svg width="180" height="180" viewBox="0 0 180 180" fill="none" xmlns="http://www.w3.org/2000/svg">
<rect width="180" height="180" rx="15" fill="white"/>
<path d="M104.148 55.9601C108.004 51.7319 110.607 45.8559 109.899 40C104.326 40.2066 97.5885 43.3664 93.6205 47.5794C90.026 51.3187 86.9162 57.3056 87.7745 63.0456C93.9716 63.479 100.291 60.1882 104.148 55.9601ZM120.159 93.1212C120.037 80.457 131.584 74.3643 132.119 74.0619C125.604 65.4948 115.5 64.3054 111.9 64.1744C103.29 63.4034 95.0807 68.7604 90.7282 68.7604C86.3589 68.7604 79.6379 64.2954 72.4822 64.4314C63.0973 64.5524 54.4424 69.3651 49.6106 76.9596C39.8858 92.2948 47.1418 114.942 56.6382 127.344C61.286 133.417 66.8145 140.24 74.0984 139.993C81.1092 139.747 83.7396 135.891 92.2106 135.891C100.665 135.881 103.056 139.983 110.44 139.868C117.975 139.721 122.756 133.669 127.376 127.566C132.687 120.536 134.889 113.708 135 113.365C134.85 113.274 120.326 108.265 120.159 93.1212Z" fill="black"/>
</svg>
