<svg width="180" height="180" viewBox="0 0 180 180" fill="none" xmlns="http://www.w3.org/2000/svg">
<path d="M40.8849 65.0842C43.029 62.9425 44.476 59.9661 44.0825 57C40.9841 57.1047 37.238 58.7052 35.0319 60.8391C33.0334 62.7332 31.3045 65.7657 31.7816 68.6731C35.2271 68.8927 38.7408 67.2258 40.8849 65.0842ZM49.7868 83.9072C49.7186 77.4925 56.1386 74.4063 56.4361 74.2532C52.814 69.9137 47.1965 69.3113 45.1949 69.2449C40.4077 68.8544 35.8437 71.5678 33.4238 71.5678C30.9946 71.5678 27.2579 69.3062 23.2795 69.3751C18.0617 69.4364 13.2498 71.8741 10.5634 75.7209C5.1566 83.4886 9.19079 94.9601 14.4706 101.242C17.0547 104.318 20.1283 107.774 24.178 107.649C28.0759 107.524 29.5384 105.571 34.248 105.571C38.9484 105.566 40.2776 107.644 44.3831 107.585C48.5722 107.511 51.2307 104.446 53.7993 101.354C56.7521 97.7935 57.976 94.3347 58.038 94.1611C57.9543 94.1151 49.8797 91.5778 49.7868 83.9072ZM99.6595 65.0816C98.0979 63.841 96.0839 62.8761 93.6733 62.2125C91.2844 61.5564 88.4152 61.2246 85.1464 61.2246C83.0525 61.2169 80.9598 61.3064 78.8782 61.4926C77.1427 61.6522 75.4131 61.8522 73.6914 62.0925L73.1863 62.164V107.261H78.1841V88.262C79.8666 88.4994 81.7938 88.6244 83.9194 88.6244C86.7483 88.6244 89.3974 88.3258 91.7956 87.7412C94.103 87.2007 96.2518 86.2773 98.1103 85.0278C99.9003 83.7951 101.34 82.2536 102.327 80.5122C103.35 78.7254 103.87 76.6246 103.87 74.2608C103.87 72.3055 103.495 70.5468 102.764 69.0331C102.057 67.5595 101.002 66.2163 99.6595 65.0816ZM95.0676 82.3067C92.5021 84.0782 88.8707 84.9768 84.2633 84.9768C82.996 84.9768 81.7969 84.9308 80.697 84.8466C79.8509 84.7835 79.0119 84.6674 78.1872 84.4994V65.3216C78.8472 65.222 79.6652 65.1276 80.6257 65.0433C81.8434 64.9361 83.309 64.8825 84.9883 64.8825C86.917 64.8667 88.8389 65.072 90.6988 65.4926C92.2839 65.8517 93.7731 66.4526 95.0893 67.2641C96.2884 68.0299 97.2303 69.0254 97.8841 70.2251C98.5441 71.4402 98.8756 72.8901 98.8756 74.5314C98.8725 77.9392 97.5898 80.5556 95.0676 82.3067ZM133.743 103.039C133.687 101.763 133.665 100.481 133.665 99.2051V86.6691C133.665 85.1835 133.482 83.6673 133.126 82.1612C132.783 80.6627 132.079 79.2359 131.056 77.9647C130.04 76.7088 128.618 75.6724 126.839 74.8811C125.061 74.0924 122.749 73.6942 119.964 73.6942C117.931 73.6942 115.945 73.9111 114.07 74.3425C112.102 74.809 110.24 75.5385 108.558 76.502L108.152 76.7343L109.841 79.9889L110.451 79.6494C111.784 78.9124 113.242 78.3413 114.777 77.9545C116.329 77.5546 117.944 77.3498 119.57 77.347C121.652 77.347 123.316 77.6584 124.503 78.271C125.708 78.8913 126.616 79.6596 127.202 80.5582C127.812 81.4848 128.212 82.4701 128.388 83.4937C128.577 84.5581 128.667 85.5103 128.667 86.3271V86.6896C121.259 86.6615 115.474 87.6774 111.632 89.717C107.601 91.8561 105.556 94.9013 105.556 98.766C105.556 99.879 105.798 101 106.275 102.107C106.758 103.228 107.492 104.231 108.453 105.089C109.42 105.957 110.668 106.664 112.162 107.192C113.649 107.726 115.4 107.994 117.355 107.994C120.123 108.032 122.847 107.418 125.206 106.225C126.235 105.701 127.149 105.107 127.93 104.466C128.263 104.191 128.58 103.903 128.881 103.603H129.073L129.532 107.264H134.35L134.217 106.677C133.952 105.475 133.794 104.259 133.743 103.039ZM128.667 96.6167C128.667 97.0558 128.54 97.6582 128.299 98.3806C127.975 99.1622 127.522 99.9034 126.954 100.583C125.688 102.11 123.85 103.254 121.721 103.838C120.428 104.188 119.074 104.358 117.714 104.341C116.817 104.341 115.927 104.216 115.081 103.971C114.259 103.735 113.505 103.364 112.865 102.878C112.195 102.356 111.665 101.724 111.31 101.023C110.916 100.275 110.718 99.348 110.718 98.2708C110.718 96.5069 111.294 95.0749 112.425 94.0284C113.643 92.9131 115.172 92.0589 116.881 91.5395C118.816 90.94 120.841 90.5596 122.901 90.4087C124.817 90.2565 126.742 90.1875 128.667 90.202V96.6167ZM167.661 74.4268L158.335 95.3149C157.753 96.5759 157.21 97.8471 156.715 99.0851C156.473 99.7028 156.244 100.287 156.017 100.844H155.841C155.608 100.234 155.37 99.6259 155.128 99.0187C154.645 97.7935 154.124 96.5912 153.591 95.4451L143.617 74.4268H138.285L152.553 104.645C152.928 105.372 152.984 105.707 152.984 105.842C152.984 105.883 152.965 106.13 152.547 107.049C151.768 108.689 150.751 110.245 149.52 111.685C148.377 112.966 147.329 114.008 146.397 114.776C145.312 115.669 144.194 116.402 143.057 116.956C141.895 117.52 140.835 117.977 139.896 118.322L139.357 118.521L141.095 122L141.647 121.832C142.099 121.691 142.948 121.372 144.237 120.854C145.538 120.325 146.979 119.488 148.516 118.355C149.878 117.367 151.087 116.245 152.116 115.013C153.17 113.768 154.223 112.305 155.258 110.682C156.281 109.061 157.303 107.218 158.301 105.199C159.299 103.169 160.371 100.9 161.477 98.4623L173 74.4268H167.661Z" fill="black"/>
</svg>
