<svg width="153" height="65" viewBox="0 0 153 65" fill="none" xmlns="http://www.w3.org/2000/svg">
<path d="M30.4933 8.08416C32.4815 5.94251 33.8232 2.96615 33.4583 0C30.5852 0.104658 27.1116 1.70515 25.066 3.83915C23.2128 5.73319 21.6096 8.76571 22.0521 11.6731C25.247 11.8927 28.5051 10.2258 30.4933 8.08416ZM38.7477 26.9072C38.6845 20.4925 44.6376 17.4063 44.9134 17.2532C41.5548 12.9137 36.3458 12.3113 34.4898 12.2449C30.0508 11.8544 25.8187 14.5678 23.5748 14.5678C21.3223 14.5678 17.8573 12.3062 14.1682 12.3751C9.32991 12.4364 4.86796 14.8741 2.37697 18.7209C-2.63661 26.4886 1.10419 37.9601 5.99997 44.2421C8.39615 47.318 11.2463 50.7742 15.0014 50.6491C18.6158 50.5241 19.9719 48.5713 24.3391 48.5713C28.6976 48.5662 29.9301 50.644 33.737 50.5853C37.6215 50.5113 40.0866 47.4456 42.4684 44.3544C45.2065 40.7935 46.3414 37.3347 46.3988 37.1611C46.3213 37.1151 38.8339 34.5778 38.7477 26.9072ZM84.9934 8.08161C83.5453 6.84103 81.6778 5.87614 79.4425 5.21246C77.2274 4.55643 74.5668 4.22459 71.5357 4.22459C69.5941 4.21693 67.6536 4.30641 65.7234 4.49262C64.1142 4.65218 62.5103 4.85221 60.9138 5.09248L60.4455 5.16396V50.2611H65.0798V31.262C66.6399 31.4994 68.427 31.6244 70.398 31.6244C73.0211 31.6244 75.4776 31.3258 77.7014 30.7412C79.8409 30.2007 81.8335 29.2773 83.5568 28.0278C85.2167 26.7951 86.5515 25.2536 87.4671 23.5122C88.4153 21.7254 88.8979 19.6246 88.8979 17.2608C88.8979 15.3055 88.5503 13.5468 87.8722 12.0331C87.2167 10.5595 86.2382 9.21631 84.9934 8.08161ZM80.7354 25.3067C78.3565 27.0782 74.9892 27.9768 70.7169 27.9768C69.5418 27.9768 68.4299 27.9308 67.4099 27.8466C66.6254 27.7835 65.8474 27.6674 65.0827 27.4994V8.32155C65.6947 8.222 66.4532 8.12755 67.3438 8.04332C68.473 7.93611 69.832 7.8825 71.3892 7.8825C73.1775 7.86666 74.9597 8.07199 76.6843 8.49258C78.1541 8.85174 79.5351 9.45264 80.7555 10.2641C81.8674 11.0299 82.7409 12.0254 83.3471 13.2251C83.9591 14.4402 84.2665 15.8901 84.2665 17.5314C84.2636 20.9392 83.0741 23.5556 80.7354 25.3067ZM116.598 46.0391C116.546 44.7628 116.526 43.4814 116.526 42.2051V29.6691C116.526 28.1835 116.356 26.6673 116.026 25.1612C115.707 23.6627 115.055 22.2359 114.107 20.9647C113.164 19.7088 111.846 18.6724 110.196 17.8811C108.547 17.0924 106.404 16.6942 103.821 16.6942C101.936 16.6942 100.094 16.9111 98.3562 17.3425C96.531 17.809 94.8042 18.5385 93.245 19.502L92.8686 19.7343L94.4344 22.9889L95.0004 22.6494C96.2364 21.9124 97.5879 21.3413 99.0113 20.9545C100.45 20.5546 101.948 20.3498 103.456 20.347C105.387 20.347 106.93 20.6584 108.03 21.271C109.148 21.8913 109.989 22.6596 110.532 23.5582C111.099 24.4848 111.469 25.4701 111.633 26.4937C111.808 27.5581 111.891 28.5103 111.891 29.3271V29.6896C105.022 29.6615 99.6578 30.6774 96.0951 32.717C92.3572 34.8561 90.4609 37.9013 90.4609 41.766C90.4609 42.879 90.685 43.9996 91.1275 45.1074C91.5757 46.228 92.2566 47.2312 93.1473 48.0889C94.0437 48.9568 95.2016 49.6638 96.5864 50.1922C97.9655 50.7257 99.5888 50.9938 101.402 50.9938C103.969 51.0319 106.494 50.4182 108.682 49.2248C109.636 48.7015 110.484 48.1067 111.208 47.466C111.516 47.1905 111.811 46.9026 112.09 46.6032H112.268L112.693 50.2637H117.161L117.037 49.6766C116.792 48.4751 116.645 47.2595 116.598 46.0391ZM111.891 39.6167C111.891 40.0558 111.774 40.6582 111.55 41.3806C111.25 42.1622 110.83 42.9034 110.303 43.5835C109.129 45.1104 107.424 46.2536 105.45 46.8381C104.252 47.1881 102.996 47.3581 101.735 47.341C100.903 47.3411 100.077 47.216 99.2929 46.9708C98.5312 46.7354 97.832 46.3635 97.2386 45.8783C96.6171 45.3561 96.1258 44.7239 95.7963 44.0225C95.4314 43.2746 95.2475 42.348 95.2475 41.2708C95.2475 39.5069 95.7819 38.0749 96.8306 37.0284C97.96 35.9131 99.378 35.0589 100.962 34.5395C102.757 33.94 104.635 33.5596 106.545 33.4087C108.322 33.2565 110.106 33.1875 111.891 33.202V39.6167ZM148.05 17.4268L139.402 38.3149C138.861 39.5759 138.359 40.8471 137.899 42.0851C137.675 42.7028 137.462 43.2874 137.252 43.8438H137.089C136.873 43.2343 136.652 42.6259 136.428 42.0187C135.98 40.7935 135.497 39.5912 135.003 38.4451L125.754 17.4268H120.81L134.04 47.6447C134.388 48.3722 134.44 48.7066 134.44 48.8419C134.44 48.8827 134.422 49.1303 134.035 50.0493C133.312 51.6891 132.369 53.2455 131.228 54.6848C130.167 55.9663 129.196 57.0077 128.331 57.7761C127.326 58.6695 126.289 59.4021 125.234 59.956C124.157 60.5201 123.174 60.9771 122.304 61.3217L121.804 61.5208L123.416 65L123.927 64.8315C124.346 64.6911 125.134 64.372 126.329 63.8539C127.536 63.3255 128.872 62.4882 130.297 61.3548C131.559 60.3669 132.681 59.2446 133.635 58.0135C134.612 56.7678 135.589 55.3051 136.549 53.6817C137.497 52.0607 138.445 50.2178 139.37 48.1986C140.295 46.1693 141.289 43.9 142.315 41.4623L153 17.4268H148.05Z" fill="black"/>
</svg>
