<svg width="180" height="180" viewBox="0 0 180 180" fill="none" xmlns="http://www.w3.org/2000/svg">
<rect width="180" height="180" rx="15" fill="white"/>
<g clip-path="url(#clip0_820_576)">
<path d="M37.5469 117.93C31.475 117.372 26.1607 114.889 22.1237 110.723C18.3114 106.789 15.9722 101.795 15.1772 95.8942C14.9818 94.444 14.9383 91.0372 15.0956 89.5074C15.606 84.5434 17.3566 80.1078 20.3134 76.2869C21.1102 75.2572 22.7659 73.5112 23.7192 72.6954C28.7725 68.3708 35.151 66.2641 42.0551 66.6393C45.3124 66.8163 47.5487 67.2292 50.0514 68.1156C51.7882 68.7308 54.2844 70.0323 55.0545 70.7241L55.249 70.8989L55.227 72.8544L55.2049 74.8099L54.3809 74.2863C50.6005 71.8843 45.8053 70.613 40.5374 70.6162C36.0726 70.6189 31.9518 71.8539 28.4433 74.2406C24.8334 76.6963 22.1134 80.1629 20.5211 84.3375C18.3654 89.989 18.699 96.8948 21.3968 102.469C24.4723 108.824 30.1381 112.913 37.1676 113.85C39.236 114.126 42.2864 114 44.4532 113.55C51.5434 112.077 55.9925 107.071 56.9402 99.4997C57.0391 98.7097 57.0741 97.7578 57.0803 95.6917L57.0885 92.9369L48.7107 92.9163L40.333 92.8957V89.0074H60.8163L60.8156 92.5116C60.8148 96.4629 60.7312 98.5307 60.5056 100.185C59.8242 105.179 58.0228 109.154 55.0506 112.223C52.0384 115.333 48.1836 117.157 43.2367 117.814C42.0822 117.967 38.7038 118.036 37.5469 117.93ZM133.096 71.5165V62.9993H136.942V77.3966L136.609 77.5507C135.922 77.8693 134.948 78.5554 133.194 79.9554C133.116 80.018 133.096 78.3181 133.096 71.5165ZM127.289 74.6016V62.9993H131.134V81.5712L130.533 82.2307C129.918 82.9062 128.811 84.2489 127.92 85.4019C127.645 85.7584 127.39 86.0847 127.354 86.127C127.318 86.1694 127.289 80.9829 127.289 74.6016Z" fill="#00B14F"/>
<path d="M38.5671 111.888C33.7381 111.496 29.6717 109.572 26.4705 106.164C25.5303 105.163 24.9883 104.467 24.2657 103.336C21.5879 99.141 20.5467 93.6628 21.4589 88.5687C22.6284 82.0378 26.9943 76.6161 33.1094 74.101C34.6645 73.4614 36.5832 72.9896 38.4064 72.7986C39.5895 72.6747 42.7668 72.744 44.0215 72.9212C48.0612 73.4916 51.6675 74.78 54.5571 76.6854L55.2434 77.1379L55.2438 79.0593C55.2441 80.8104 55.2319 80.9875 55.1061 81.057C54.998 81.1167 54.7548 80.9938 53.9877 80.4918C50.9611 78.5112 47.7389 77.3542 43.943 76.8851C42.4965 76.7063 39.3711 76.6833 38.2925 76.8435C31.356 77.8737 26.4148 83.025 25.5363 90.142C25.2972 92.0793 25.4598 94.8109 25.9271 96.7047C26.9706 100.934 29.4922 104.374 32.8681 106.172C35.1589 107.392 37.1732 107.886 39.8621 107.886C43.6269 107.886 46.6552 106.781 48.7322 104.648C50.0786 103.266 50.8653 101.59 51.0443 99.7228L51.1006 99.1354H40.3329V95.0033H55.0872V96.6556C55.0872 99.2045 54.89 100.719 54.3354 102.431C53.2114 105.899 50.8281 108.652 47.5531 110.266C45.4231 111.315 43.1562 111.825 40.3445 111.889C39.5828 111.906 38.783 111.905 38.5671 111.888ZM145.394 111.932C142.343 111.653 139.656 110.263 137.363 107.778C135.719 105.997 134.554 103.871 134.048 101.728C133.754 100.486 133.662 100.729 135.337 98.3438C136.155 97.1801 136.847 96.2258 136.875 96.2233C136.904 96.2207 136.95 96.6106 136.978 97.0896C137.049 98.3018 137.154 99.0439 137.39 99.9861C138.437 104.17 141.38 107.193 145.051 107.856C146.026 108.032 147.7 107.968 148.635 107.719C152.016 106.819 154.263 104.182 155.121 100.108C155.329 99.1239 155.33 96.2339 155.124 95.2651C154.704 93.2905 153.883 91.6239 152.697 90.3343C151.001 88.4917 148.777 87.5493 146.124 87.5493C142.719 87.5493 140.242 88.9754 136.975 92.8171C133.78 96.573 128.476 103.534 125.808 107.468L124.856 108.874V102.336L126.212 100.432C126.958 99.3846 128.265 97.598 129.117 96.4617C129.969 95.3253 131.151 93.7395 131.743 92.9376C134.467 89.2531 136.224 87.4046 138.456 85.8752C143.062 82.7206 149.122 82.6411 153.517 85.6778C158.002 88.7767 160.157 94.8373 158.954 100.969C157.984 105.915 154.916 109.732 150.671 111.272C149.752 111.606 148.697 111.831 147.575 111.931C146.541 112.025 146.404 112.025 145.393 111.932L145.394 111.932ZM113.241 106.661C113.241 97.8484 113.224 96.3256 113.119 95.5961C112.735 92.9255 111.541 90.7004 109.743 89.3079C108.578 88.4051 107.271 87.8441 105.719 87.5804C104.607 87.3915 102.946 87.4652 101.9 87.75C98.4109 88.7008 95.9019 91.6352 95.1443 95.6515C94.9282 96.7974 94.9468 98.9593 95.1827 100.108C95.9593 103.888 98.2818 106.618 101.547 107.588C104.422 108.442 108.383 107.802 110.829 106.088L111.282 105.771L111.261 107.86L111.24 109.948L110.455 110.372C108.469 111.444 105.357 112.128 103.156 111.976C98.9427 111.685 95.5518 109.711 93.2954 106.233C90.8934 102.532 90.2793 97.1596 91.7403 92.6288C93.6704 86.6435 99.0824 82.9876 105.255 83.4993C108.603 83.7767 111.117 84.936 113.322 87.2193C115.361 89.33 116.455 91.6092 116.979 94.8412C117.105 95.6164 117.12 96.6333 117.145 106.286L117.172 116.879H113.241V106.661ZM69.2147 106.407C69.2159 95.6667 69.2488 94.2273 69.5253 92.8267C70.2355 89.229 72.3026 86.3675 75.3246 84.7989C76.0399 84.4276 77.5267 83.9376 78.3957 83.7868C81.0153 83.3321 83.738 83.7432 85.6715 84.8852L86.0803 85.1266L85.7566 85.6695C85.5786 85.9681 85.1891 86.7319 84.8911 87.367C84.5932 88.002 84.343 88.5215 84.3352 88.5215C84.3273 88.5215 83.9855 88.3979 83.5754 88.2469C81.8209 87.6007 80.2174 87.496 78.5779 87.9204C77.0429 88.3179 75.6445 89.2541 74.739 90.4904C74.2339 91.1802 73.6499 92.4522 73.3924 93.4234L73.1777 94.2336L73.1555 105.556L73.1334 116.879H69.2136L69.2147 106.407Z" fill="#00B14F"/>
<path d="M63.4844 105.718C63.4845 94.5651 63.5031 93.6633 63.7671 92.0054C64.5807 86.8956 67.1711 82.726 71.0373 80.3027C74.7126 77.9991 79.5886 77.2109 84.2816 78.1618C85.953 78.5004 88.0308 79.335 89.3117 80.1821L89.8292 80.5244L88.9111 81.4643C88.4061 81.9813 87.8335 82.5987 87.6388 82.8362L87.2846 83.2682L86.823 83.0278C85.2809 82.2248 82.6718 81.6346 80.6644 81.6346C74.3509 81.6346 69.4269 85.4189 67.8844 91.4566C67.3545 93.5307 67.3791 92.8874 67.3501 105.475L67.3238 116.879H63.4844L63.4844 105.718ZM144.79 117.963C138.899 117.409 134.018 114.49 131.02 109.726C130.546 108.975 129.724 107.266 129.562 106.698L129.465 106.36L130.829 104.445L132.194 102.529L132.263 102.797C133.146 106.221 135.082 109.134 137.811 111.144C138.66 111.769 140.202 112.615 141.224 113.016C143.788 114.021 146.631 114.264 149.399 113.712C151.199 113.353 153.338 112.408 154.835 111.31C155.756 110.634 157.464 108.885 158.085 107.98C159.604 105.769 160.604 103.14 161.006 100.298C161.191 98.9961 161.193 96.3687 161.01 95.0795C160.371 90.581 158.388 86.9614 155.188 84.4563C152.495 82.348 148.702 81.254 145.083 81.5422C139.603 81.9785 135.827 84.5516 130.396 91.5507C129.839 92.2687 128.377 94.2416 127.147 95.935C125.918 97.6283 124.9 99.029 124.884 99.0476C124.868 99.0661 124.856 97.7528 124.856 96.129V93.1767L126.172 91.2744C128.961 87.2423 130.168 85.7015 132.073 83.7412C134.057 81.6996 135.645 80.4903 137.766 79.4053C139.548 78.4936 141.26 77.9455 143.377 77.6094C144.647 77.4078 147.758 77.4078 149.028 77.6094C153.354 78.2962 156.796 80.1065 159.701 83.2221C162.545 86.2733 164.249 90.0586 164.893 94.7602C165.034 95.7927 165.034 99.5569 164.893 100.594C164.436 103.956 163.379 106.973 161.788 109.466C158.833 114.092 154.529 116.952 149.224 117.812C148.465 117.935 145.548 118.035 144.79 117.963H144.79ZM102.175 117.921C93.6702 117.117 87.1047 110.945 85.4661 102.214C85.1558 100.561 85.1056 99.94 85.1056 97.758C85.1056 95.0855 85.2801 93.7054 85.8946 91.5178C87.5031 85.791 91.5892 81.0445 96.7991 78.8509C99.2877 77.8031 101.448 77.3816 104.294 77.3885C107.054 77.3952 109.087 77.7645 111.396 78.6784C113.861 79.6538 115.851 81.0088 117.72 82.9836C120.439 85.856 122.058 89.3132 122.759 93.7419C122.923 94.7794 122.927 95.0227 122.952 105.84L122.979 116.879H119.048L119.047 106.731C119.047 100.431 119.016 96.2145 118.965 95.6109C118.631 91.605 117.05 88.0733 114.455 85.5386C111.545 82.6948 107.281 81.1945 103.097 81.5424C95.9099 82.14 90.5682 87.2279 89.305 94.6791C88.9525 96.7586 89.0143 99.5321 89.4644 101.832C89.7889 103.49 90.6102 105.674 91.4202 107.033C93.1136 109.873 95.6072 111.947 98.6685 113.062C101.291 114.016 104.294 114.258 106.85 113.72C108.31 113.412 110.048 112.722 110.92 112.103L111.279 111.848V115.872L110.827 116.18C109.543 117.054 107.654 117.694 105.667 117.929C104.847 118.026 103.244 118.022 102.175 117.921Z" fill="#00B14F"/>
</g>
<defs>
<clipPath id="clip0_820_576">
<rect width="150" height="55" fill="white" transform="translate(15 63)"/>
</clipPath>
</defs>
</svg>
