<svg width="282" height="245" viewBox="0 0 282 245" fill="none" xmlns="http://www.w3.org/2000/svg">
<path fill-rule="evenodd" clip-rule="evenodd" d="M281.656 72.7434C281.521 73.7954 281.387 74.8474 281.252 75.8994C280.293 83.4234 277.1 89.882 271.869 95.3314C266.544 100.878 260.083 104.343 252.484 105.615C240.295 107.659 226.201 102.657 219.057 91.4834C217.951 89.7514 217.231 87.7727 216.339 85.9047C216.107 85.4207 216.192 85.0234 216.568 84.586C217.883 83.058 219.145 81.486 220.42 79.9247C220.551 79.7647 220.625 79.558 220.817 79.206C221.292 80.526 221.585 81.5487 222.015 82.514C226.061 91.634 233.017 97.1474 242.832 98.8247C257.04 101.25 270.628 91.6754 273.868 78.1087C274.375 75.9914 274.607 73.7767 274.688 71.598C274.796 68.7647 274.723 65.9154 274.557 63.0834C274.241 57.6874 272.264 52.8727 268.979 48.6234C264.181 42.4154 257.88 38.626 250.071 37.722C242.308 36.8234 235.421 39.1807 229.416 44.1154C223.157 49.2567 217.748 55.2407 212.555 61.4207C210.136 64.2967 207.827 67.262 205.464 70.1847C205.321 70.362 205.16 70.5234 204.905 70.8047C204.885 70.4474 204.861 70.2447 204.861 70.042C204.86 67.17 204.848 64.2967 204.877 61.4247C204.881 61.03 205.003 60.5594 205.237 60.254C209.387 54.8847 213.687 49.6434 218.52 44.862C222.095 41.3274 225.973 38.162 230.213 35.4647C234.107 32.9874 238.409 31.582 242.971 30.9834C261.073 28.6047 276.848 41.4074 280.565 57.114C280.999 58.942 281.148 60.838 281.435 62.702C281.499 63.1167 281.581 63.5287 281.656 63.9407V72.7434Z" fill="#00B041"/>
<path fill-rule="evenodd" clip-rule="evenodd" d="M190.019 219.842C190.537 220.25 190.915 220.538 191.284 220.84C196.743 225.268 202.936 228.078 209.909 228.974C214.545 229.57 219.183 229.48 223.6 227.641C228.525 225.589 230.991 221.701 231.44 216.525C231.677 213.794 231.583 211.034 231.629 208.286C231.633 208.057 231.581 207.828 231.545 207.513C231.363 207.605 231.236 207.632 231.169 207.706C228.069 211.245 224.015 213.074 219.529 213.965C212.237 215.413 205.168 214.629 198.559 211.122C191.487 207.37 187.408 201.269 185.448 193.642C184.68 190.648 184.34 187.592 184.34 184.497C184.341 170.928 184.341 157.358 184.341 143.789C184.341 142.606 184.343 142.604 185.556 142.604C190.232 142.602 194.909 142.628 199.585 142.582C200.528 142.573 200.744 142.857 200.741 143.774C200.713 157.557 200.647 171.342 200.765 185.125C200.819 191.464 204.583 197.866 212.568 199.256C217.188 200.058 221.587 199.326 225.385 196.349C228.255 194.098 229.697 191.02 230.161 187.473C230.343 186.088 230.359 184.673 230.361 183.27C230.375 170.129 230.369 156.986 230.369 143.845C230.369 142.606 230.371 142.604 231.619 142.604C236.173 142.602 240.727 142.614 245.28 142.592C245.98 142.589 246.223 142.785 246.221 143.529C246.201 167.856 246.272 192.184 246.152 216.51C246.119 223.169 244.147 229.326 239.599 234.429C235.792 238.7 230.949 241.217 225.495 242.661C222.269 243.514 218.98 243.892 215.648 244.044C206.396 244.465 198.129 241.892 190.875 236.102C190.219 235.581 189.933 235.029 189.94 234.172C189.983 229.68 189.96 225.188 189.963 220.694C189.963 220.484 189.991 220.273 190.019 219.842Z" fill="#00B041"/>
<path fill-rule="evenodd" clip-rule="evenodd" d="M60.7849 172.54C62.9529 172.54 65.1249 172.61 67.2889 172.519C69.1409 172.443 71.0182 172.35 72.8235 171.972C77.7675 170.936 81.3689 168.176 83.0275 163.274C84.3542 159.352 84.3782 155.358 83.2195 151.395C82.0942 147.55 79.6102 144.908 75.8729 143.419C73.5395 142.49 71.1035 142.122 68.6342 142.091C63.3209 142.026 58.0062 142.076 52.6929 142.063C52.0169 142.06 51.8129 142.315 51.8142 142.984C51.8329 152.512 51.8342 162.042 51.8129 171.57C51.8102 172.346 52.0715 172.563 52.8142 172.554C55.4715 172.519 58.1275 172.54 60.7849 172.54ZM51.8262 214.978H50.7289C46.2369 214.978 41.7435 214.947 37.2515 215.004C36.2849 215.015 36.0889 214.712 36.0889 213.816C36.1115 194.654 36.1062 175.491 36.1062 156.328C36.1062 147.099 36.1062 137.868 36.1075 128.639C36.1075 127.434 36.1115 127.43 37.3062 127.431C48.4609 127.436 59.6209 127.247 70.7702 127.514C78.8262 127.707 86.2075 130.155 92.0462 136.092C95.7075 139.818 97.8675 144.352 98.8475 149.44C100.092 155.899 99.9542 162.328 97.7755 168.58C94.4982 177.983 87.6902 183.52 78.2155 186.008C75.0129 186.847 71.7449 187.184 68.4355 187.18C63.3009 187.174 58.1662 187.178 53.0315 187.179C51.8289 187.18 51.8262 187.187 51.8262 188.399C51.8262 196.864 51.8262 205.331 51.8262 213.796V214.978Z" fill="#00B041"/>
<path fill-rule="evenodd" clip-rule="evenodd" d="M158.843 178.582C158.661 175.999 158.715 173.377 158.255 170.845C157.133 164.689 153.672 160.285 147.731 158.053C144.015 156.657 140.171 156.55 136.285 157.234C129.072 158.507 123.515 164.158 122.432 171.379C121.827 175.415 121.84 179.486 122.265 183.522C122.976 190.258 126.396 195.223 132.567 198.129C136.412 199.938 140.476 200.107 144.649 199.539C151.227 198.646 156.145 194.438 157.925 188.046C158.792 184.937 158.701 181.766 158.843 178.582ZM158.676 207.531C155.075 211.294 150.74 213.367 145.824 214.345C142.175 215.071 138.497 215.023 134.812 214.642C130.335 214.177 126.073 212.993 122.123 210.817C114.783 206.775 110.305 200.51 108.061 192.543C107.071 189.03 106.625 185.431 106.612 181.793C106.599 178.282 106.515 174.755 106.811 171.265C107.96 157.707 115.627 146.427 130.577 142.882C138.392 141.027 146.229 141.189 153.848 143.834C164.117 147.402 170.383 154.719 173.032 165.198C173.811 168.283 174.164 171.427 174.161 174.614C174.151 187.357 174.157 200.099 174.156 212.841C174.156 214.133 174.155 214.134 172.86 214.135C168.489 214.135 164.12 214.118 159.752 214.15C158.947 214.155 158.619 213.975 158.655 213.086C158.728 211.237 158.676 209.385 158.676 207.531Z" fill="#00B041"/>
<path fill-rule="evenodd" clip-rule="evenodd" d="M71.7715 63.7095H43.0182C42.9942 63.3148 42.9609 62.9935 42.9595 62.6721C42.9529 61.1441 42.9555 59.6161 42.9569 58.0881C42.9569 56.8308 42.9569 56.8295 44.2609 56.8295H67.5489C70.9102 56.8295 74.2729 56.8535 77.6342 56.8121C78.4382 56.8015 78.6809 57.0335 78.6795 57.8415C78.6582 69.7921 78.6702 81.7415 78.6409 93.6908C78.6395 94.1855 78.4209 94.7828 78.1009 95.1575C74.6142 99.2335 70.2102 102.047 65.3649 104.211C60.7929 106.253 55.9862 107.415 51.0075 107.956C42.5355 108.875 34.2809 108.108 26.4942 104.497C12.8435 98.1695 4.28353 87.5908 1.1702 72.8695C-0.6618 64.2041 -0.480467 55.5015 2.69953 47.0921C6.8822 36.0335 14.4755 27.9575 24.8182 22.4041C30.3009 19.4588 36.1649 17.6961 42.3649 17.0108C46.9115 16.5068 51.4435 16.6841 55.9822 17.0401C60.4382 17.3881 64.7915 18.2068 68.9969 19.7721C69.8542 20.0908 70.2315 20.4735 70.1849 21.4628C70.0862 23.5561 70.1555 25.6588 70.1555 27.8961C69.3049 27.4628 68.5889 27.0828 67.8582 26.7308C64.0502 24.8921 60.0075 23.8881 55.8169 23.5548C52.7822 23.3148 49.7302 23.1521 46.6889 23.1895C37.5982 23.3055 29.4622 26.2841 22.2675 31.7868C15.4449 37.0055 10.6782 43.6961 8.29554 51.9988C7.08887 56.2041 6.8702 60.5001 7.04487 64.8615C7.26754 70.4028 8.44087 75.6921 10.9355 80.6295C16.3982 91.4428 25.0835 98.1535 36.9529 100.681C41.7515 101.704 46.5915 101.603 51.4369 101.045C57.1369 100.391 62.5649 98.8695 67.4449 95.7601C68.7782 94.9108 70.0129 93.8921 71.2115 92.8588C71.5689 92.5508 71.8342 91.9281 71.8369 91.4468C71.8729 82.5228 71.8649 73.5988 71.8595 64.6761C71.8595 64.3775 71.8062 64.0801 71.7715 63.7095Z" fill="#00B041"/>
<path fill-rule="evenodd" clip-rule="evenodd" d="M175.969 97.0885C175.969 99.3085 175.993 101.413 175.938 103.514C175.931 103.757 175.527 104.125 175.245 104.202C173.107 104.79 170.982 105.587 168.799 105.821C159.838 106.778 151.733 104.405 144.606 98.9232C137.105 93.1552 132.469 85.5632 131.257 76.1605C130.742 72.1592 130.905 68.0512 130.983 63.9952C131.139 55.8605 134.113 48.7632 139.425 42.6619C144.714 36.5872 151.325 32.6285 159.275 31.2459C170.05 29.3739 179.687 32.0619 187.969 39.2206C194.375 44.7565 198.211 51.8005 199.579 60.1552C199.838 61.7432 199.966 63.3712 199.969 64.9819C199.999 78.2459 199.987 91.5099 199.987 104.774V105.999H193.125V104.691C193.125 91.4272 193.213 78.1632 193.101 64.8992C192.983 50.9566 182.909 40.2939 170.551 37.9859C155.606 35.1939 141.229 45.4126 138.262 60.0245C137.966 61.4805 137.782 62.9846 137.763 64.4685C137.713 68.3699 137.409 72.2966 138.187 76.1605C140.241 86.3472 146.181 93.4005 155.731 97.3379C162.073 99.9525 168.523 99.7499 174.939 97.4379C175.246 97.3272 175.557 97.2272 175.969 97.0885Z" fill="#00B041"/>
<path fill-rule="evenodd" clip-rule="evenodd" d="M66.4961 69.0339V70.0085C66.4961 76.3659 66.4854 82.7219 66.5121 89.0765C66.5148 89.7645 66.2948 90.2045 65.7681 90.6192C62.7921 92.9565 59.3361 94.2059 55.7134 95.0245C51.6174 95.9472 47.4401 96.3912 43.2614 96.1165C30.9788 95.3059 21.8921 89.3525 16.0161 78.5779C13.4454 73.8632 12.3974 68.7339 12.3054 63.3592C12.2174 58.1579 12.8801 53.1339 15.1601 48.4139C19.3401 39.7552 26.1228 33.9685 35.0561 30.6325C40.4321 28.6259 46.0134 28.1659 51.7134 28.5245C56.5521 28.8285 61.2828 29.5672 65.8134 31.3405C67.0894 31.8405 68.3334 32.4285 69.5614 33.0365C69.8254 33.1672 70.1241 33.5552 70.1281 33.8299C70.1721 36.2712 70.1534 38.7152 70.1534 41.3445C69.7814 41.0925 69.5148 40.9299 69.2668 40.7432C65.4894 37.8899 61.1801 36.3539 56.5268 35.8512C53.4094 35.5152 50.2494 35.1925 47.1294 35.3245C36.1228 35.7939 27.5294 40.5525 21.9774 50.2485C20.0521 53.6099 19.2428 57.3112 19.1641 61.2032C19.0761 65.7125 19.5254 70.1139 21.4708 74.2325C25.3401 82.4259 31.6921 87.5072 40.6921 88.9259C47.0454 89.9272 53.2668 89.0352 59.3041 86.8392C59.9161 86.6165 60.1441 86.2725 60.1388 85.6245C60.1121 82.7525 60.1001 79.8792 60.1441 77.0072C60.1588 76.1099 59.9094 75.7912 58.9588 75.8005C53.9774 75.8459 48.9961 75.8045 44.0161 75.8392C43.1934 75.8432 42.9054 75.6419 42.9361 74.7765C43.0028 72.8885 42.9561 70.9965 42.9561 69.0339H66.4961Z" fill="#00B041"/>
<path fill-rule="evenodd" clip-rule="evenodd" d="M230.475 67.5553C230.871 69.3539 231.125 70.8806 231.547 72.3593C232.709 76.4206 234.718 79.9899 237.754 82.9819C244.153 89.2899 253.114 87.5353 258.106 82.4326C260.865 79.6139 262.387 76.2193 262.457 72.2539C262.51 69.2659 262.663 66.2566 262.391 63.2913C261.803 56.9006 256.979 51.5659 250.711 50.1406C245.193 48.8873 240.386 50.4153 236.246 54.1459C230.739 59.1099 225.951 64.7539 221.194 70.4086C215.786 76.8326 210.546 83.3979 205.234 89.9046C205.177 89.9739 205.141 90.0619 204.921 90.0979C204.901 89.8553 204.863 89.6126 204.863 89.3699C204.859 86.4059 204.837 83.4419 204.885 80.4779C204.893 79.9753 205.082 79.3899 205.383 78.9899C210.285 72.4606 215.613 66.2846 221.139 60.2846C224.159 57.0046 227.182 53.7179 230.375 50.6113C233.989 47.0939 238.177 44.3806 243.181 43.3099C249.141 42.0366 254.646 43.3899 259.591 46.8673C264.679 50.4459 267.902 55.3059 269.058 61.4579C269.259 62.5299 269.343 63.6406 269.337 64.7326C269.314 68.0273 269.462 71.3473 269.107 74.6099C268.163 83.2419 261.662 90.6126 253.163 93.0326C243.861 95.6819 234.381 91.9433 228.895 83.4713C227.223 80.8859 226.014 78.0993 225.315 75.1073C225.217 74.6833 225.359 74.0646 225.627 73.7193C227.066 71.8593 228.583 70.0593 230.066 68.2339C230.197 68.0739 230.283 67.8779 230.475 67.5553Z" fill="#00B041"/>
<path fill-rule="evenodd" clip-rule="evenodd" d="M175.97 83.6705C175.97 86.0332 175.999 88.2279 175.939 90.4199C175.93 90.7465 175.554 91.1519 175.239 91.3652C173.415 92.6119 171.335 93.2359 169.187 93.5665C159.825 95.0079 150.965 90.8145 146.15 82.6825C144.118 79.2519 143.051 75.5425 143.078 71.5359C143.091 69.5812 143.094 67.6252 143.078 65.6692C143.017 58.2572 146.035 52.2932 151.739 47.7052C164.482 37.4612 184.195 44.1025 187.349 60.8679C187.634 62.3865 187.753 63.9559 187.757 65.5039C187.787 78.6105 187.775 91.7185 187.774 104.827C187.774 106.06 187.771 106.06 186.515 106.06C184.989 106.061 183.458 106.019 181.933 106.077C181.142 106.108 180.954 105.811 180.961 105.076C180.991 101.563 180.974 98.0479 180.974 94.5345C180.974 84.9705 180.977 75.4079 180.973 65.8439C180.973 62.4425 180.245 59.2279 178.251 56.4199C175.121 52.0079 170.842 49.8279 165.398 49.7305C159.021 49.6172 152.273 53.8679 150.426 61.2839C150.126 62.4852 149.997 63.7492 149.954 64.9879C149.879 67.1545 149.934 69.3265 149.934 71.4959C149.934 79.3252 155.39 85.7572 163.142 86.8652C167.387 87.4719 171.391 86.5772 175.047 84.2759C175.303 84.1145 175.554 83.9452 175.97 83.6705Z" fill="#00B041"/>
<path fill-rule="evenodd" clip-rule="evenodd" d="M138.622 35.3155C136.892 37.1982 135.365 38.8582 133.877 40.4769C132.102 39.8062 130.396 38.9249 128.581 38.5129C117.716 36.0515 108.028 38.1075 100.214 46.4675C96.7276 50.1982 94.7863 54.7809 94.0383 59.8075C93.6836 62.1782 93.549 64.6022 93.5396 67.0035C93.493 79.5915 93.5183 92.1795 93.517 104.768C93.517 106.06 93.5156 106.06 92.2263 106.061C90.6676 106.061 89.109 106.033 87.5516 106.073C86.8996 106.09 86.6543 105.849 86.717 105.226C86.733 105.076 86.7183 104.921 86.7183 104.768C86.7183 91.6609 86.7263 78.5529 86.7143 65.4449C86.7076 57.8902 88.565 50.8862 92.953 44.6755C98.1397 37.3302 105.298 33.0155 114.076 31.3542C120.9 30.0622 127.616 30.4889 134.116 33.0475C135.633 33.6449 137.042 34.5115 138.622 35.3155Z" fill="#00B041"/>
<path fill-rule="evenodd" clip-rule="evenodd" d="M130.876 44.8859C129.839 46.9539 128.859 48.9059 127.904 50.8099C126.537 50.4886 125.199 50.0379 123.827 49.8766C117.293 49.1046 110.975 51.1593 107.571 57.4486C106.329 59.7433 105.745 62.2313 105.744 64.8366C105.733 78.1313 105.739 91.4246 105.739 104.719V105.979H98.9375C98.9215 105.663 98.8881 105.339 98.8881 105.017C98.8855 91.5086 98.7721 77.9993 98.9228 64.4939C99.0428 53.6059 106.553 45.1126 116.775 43.2659C120.868 42.5273 124.913 42.7726 128.884 44.0246C129.569 44.2393 130.209 44.5939 130.876 44.8859Z" fill="#00B041"/>
<path fill-rule="evenodd" clip-rule="evenodd" d="M212.09 0.0481186H218.835C218.851 0.416119 218.882 0.741451 218.882 1.06678C218.885 12.7401 218.879 24.4148 218.894 36.0881C218.895 36.6828 218.709 37.0788 218.285 37.5108C216.443 39.3814 214.659 41.3081 212.855 43.2148C212.631 43.4534 212.419 43.7014 212.09 44.0681V0.0481186Z" fill="#00B041"/>
<path fill-rule="evenodd" clip-rule="evenodd" d="M224.251 33.8293V32.6747C224.251 22.192 224.251 11.7093 224.253 1.22668C224.253 0.00134659 224.255 0.00134659 225.518 1.52588e-05C226.925 1.52588e-05 228.331 1.52588e-05 229.737 1.52588e-05C231.05 0.00134659 231.051 0.00134659 231.051 1.36135C231.053 3.37868 231.053 5.39601 231.053 7.41335C231.053 14.3507 231.043 21.288 231.063 28.2267C231.066 28.9453 230.849 29.3587 230.215 29.7587C228.461 30.8653 226.779 32.0867 225.07 33.2627C224.855 33.4107 224.642 33.5587 224.251 33.8293Z" fill="#00B041"/>
</svg>
