<svg width="180" height="180" viewBox="0 0 180 180" fill="none" xmlns="http://www.w3.org/2000/svg">
<circle cx="90" cy="90" r="90" fill="#00B041"/>
<path fill-rule="evenodd" clip-rule="evenodd" d="M165 69.7428C164.928 70.3031 164.856 70.8634 164.784 71.4237C164.274 75.4309 162.573 78.8708 159.788 81.773C156.951 84.7272 153.51 86.5728 149.464 87.2503C142.972 88.3389 135.466 85.6745 131.662 79.7236C131.072 78.8012 130.689 77.7473 130.214 76.7525C130.09 76.4947 130.136 76.2831 130.336 76.0501C131.036 75.2363 131.709 74.3991 132.387 73.5675C132.457 73.4823 132.497 73.3723 132.599 73.1848C132.852 73.8878 133.008 74.4325 133.237 74.9466C135.392 79.8039 139.096 82.7402 144.323 83.6336C151.89 84.9253 159.126 79.8259 160.852 72.6003C161.122 71.4727 161.245 70.2931 161.289 69.1328C161.346 67.6238 161.307 66.1062 161.219 64.5979C161.051 61.7241 159.998 59.1598 158.248 56.8966C155.693 53.5903 152.337 51.5721 148.178 51.0906C144.044 50.612 140.377 51.8675 137.178 54.4957C133.845 57.2339 130.964 60.421 128.199 63.7124C126.911 65.2442 125.681 66.8235 124.422 68.3801C124.346 68.4745 124.261 68.5604 124.125 68.7103C124.114 68.52 124.102 68.412 124.102 68.3041C124.101 66.7745 124.094 65.2442 124.11 63.7145C124.112 63.5043 124.177 63.2537 124.302 63.091C126.512 60.2314 128.802 57.4399 131.376 54.8933C133.279 53.0108 135.345 51.325 137.603 49.8884C139.677 48.569 141.968 47.8205 144.397 47.5016C154.038 46.2348 162.439 53.0534 164.419 61.4187C164.649 62.3923 164.729 63.4021 164.882 64.3948C164.916 64.6157 164.96 64.8351 165 65.0545V69.7428Z" fill="white"/>
<path fill-rule="evenodd" clip-rule="evenodd" d="M116.197 148.087C116.473 148.304 116.674 148.458 116.871 148.618C119.778 150.976 123.076 152.473 126.79 152.951C129.259 153.268 131.729 153.22 134.081 152.24C136.704 151.148 138.017 149.077 138.257 146.32C138.383 144.866 138.333 143.396 138.357 141.932C138.36 141.81 138.332 141.688 138.313 141.52C138.215 141.569 138.148 141.584 138.112 141.623C136.462 143.508 134.302 144.482 131.913 144.957C128.03 145.728 124.265 145.31 120.745 143.443C116.979 141.444 114.807 138.195 113.763 134.133C113.354 132.538 113.173 130.91 113.173 129.262C113.174 122.035 113.174 114.808 113.174 107.581C113.174 106.951 113.174 106.95 113.82 106.95C116.311 106.949 118.802 106.963 121.292 106.939C121.794 106.934 121.909 107.085 121.908 107.573C121.893 114.914 121.857 122.256 121.92 129.597C121.949 132.973 123.953 136.383 128.206 137.123C130.667 137.55 133.009 137.16 135.032 135.574C136.56 134.376 137.329 132.736 137.576 130.847C137.672 130.109 137.681 129.356 137.682 128.609C137.689 121.61 137.686 114.61 137.686 107.611C137.686 106.951 137.687 106.95 138.352 106.95C140.777 106.949 143.202 106.956 145.627 106.944C146 106.942 146.129 107.047 146.129 107.443C146.118 120.399 146.156 133.356 146.092 146.312C146.074 149.859 145.024 153.138 142.602 155.856C140.574 158.13 137.995 159.471 135.09 160.24C133.373 160.694 131.621 160.895 129.846 160.976C124.919 161.201 120.517 159.83 116.653 156.747C116.304 156.469 116.152 156.175 116.155 155.719C116.178 153.326 116.166 150.934 116.167 148.541C116.167 148.428 116.182 148.316 116.197 148.087Z" fill="white"/>
<path fill-rule="evenodd" clip-rule="evenodd" d="M47.3719 122.894C48.5265 122.894 49.6833 122.931 50.8357 122.883C51.822 122.842 52.8218 122.792 53.7833 122.591C56.4163 122.04 58.3342 120.57 59.2176 117.959C59.9241 115.87 59.9369 113.743 59.3198 111.632C58.7205 109.584 57.3976 108.177 55.4072 107.384C54.1646 106.889 52.8673 106.693 51.5522 106.677C48.7225 106.642 45.8921 106.669 43.0624 106.662C42.7024 106.661 42.5938 106.796 42.5945 107.153C42.6044 112.227 42.6051 117.302 42.5938 122.377C42.5923 122.79 42.7315 122.906 43.127 122.901C44.5422 122.883 45.9567 122.894 47.3719 122.894ZM42.6009 145.496H42.0165C39.6242 145.496 37.2312 145.48 34.8389 145.51C34.3241 145.516 34.2197 145.355 34.2197 144.877C34.2318 134.671 34.229 124.466 34.229 114.26C34.229 109.344 34.229 104.428 34.2297 99.5124C34.2297 98.8704 34.2318 98.8683 34.868 98.869C40.8086 98.8719 46.752 98.771 52.6898 98.9131C56.9801 99.016 60.9111 100.32 64.0206 103.482C65.9705 105.466 67.1208 107.881 67.6427 110.591C68.3052 114.031 68.2321 117.455 67.0718 120.785C65.3264 125.793 61.7007 128.742 56.6549 130.067C54.9492 130.514 53.2088 130.693 51.4464 130.691C48.7119 130.688 45.9773 130.69 43.2428 130.69C42.6023 130.691 42.6009 130.695 42.6009 131.34C42.6009 135.849 42.6009 140.358 42.6009 144.867V145.496Z" fill="white"/>
<path fill-rule="evenodd" clip-rule="evenodd" d="M99.594 126.112C99.4974 124.737 99.5258 123.34 99.2809 121.991C98.6837 118.713 96.8403 116.367 93.6762 115.178C91.6972 114.435 89.65 114.378 87.5808 114.742C83.7392 115.42 80.7796 118.43 80.203 122.276C79.8806 124.426 79.8877 126.594 80.1142 128.743C80.4927 132.331 82.3141 134.975 85.6004 136.523C87.6482 137.486 89.8126 137.576 92.0352 137.274C95.538 136.798 98.1575 134.557 99.1055 131.153C99.567 129.497 99.5187 127.808 99.594 126.112ZM99.5053 141.53C97.5873 143.534 95.2788 144.639 92.6607 145.159C90.7172 145.546 88.7588 145.521 86.7961 145.317C84.4117 145.07 82.1422 144.439 80.0383 143.28C76.1292 141.128 73.7448 137.791 72.5497 133.548C72.0221 131.677 71.7849 129.76 71.7778 127.822C71.7707 125.952 71.726 124.074 71.8836 122.215C72.4957 114.994 76.5787 108.987 84.5409 107.098C88.7027 106.111 92.8766 106.197 96.934 107.605C102.403 109.506 105.74 113.403 107.151 118.984C107.565 120.627 107.754 122.302 107.752 123.999C107.746 130.785 107.75 137.572 107.749 144.358C107.749 145.046 107.749 145.047 107.059 145.048C104.731 145.048 102.405 145.038 100.078 145.055C99.6494 145.058 99.4747 144.962 99.4939 144.489C99.5329 143.504 99.5053 142.517 99.5053 141.53Z" fill="white"/>
<path fill-rule="evenodd" clip-rule="evenodd" d="M53.2229 64.9312H37.9099C37.8972 64.721 37.8794 64.5499 37.8787 64.3788C37.8751 63.5649 37.8766 62.7511 37.8773 61.9373C37.8773 61.2677 37.8773 61.267 38.5717 61.267H50.9741C52.7642 61.267 54.555 61.2798 56.3452 61.2577C56.7733 61.2521 56.9026 61.3756 56.9019 61.806C56.8905 68.1708 56.8969 74.535 56.8813 80.8991C56.8806 81.1626 56.7641 81.4807 56.5937 81.6803C54.7368 83.8511 52.3914 85.3495 49.811 86.502C47.3761 87.5899 44.8162 88.2085 42.1648 88.4968C37.6529 88.9861 33.2568 88.5777 29.1099 86.6547C21.84 83.2844 17.2813 77.6503 15.6232 69.8098C14.6475 65.1947 14.7441 60.5597 16.4377 56.0809C18.6652 50.1911 22.7091 45.8899 28.2173 42.9322C31.1371 41.3636 34.2601 40.4248 37.562 40.0598C39.9834 39.7913 42.397 39.8858 44.8141 40.0754C47.1872 40.2607 49.5056 40.6968 51.7452 41.5304C52.2018 41.7002 52.4028 41.904 52.3779 42.4309C52.3254 43.5458 52.3623 44.6656 52.3623 45.8572C51.9093 45.6264 51.528 45.4241 51.1388 45.2366C49.1108 44.2573 46.9578 43.7226 44.726 43.5451C43.1099 43.4172 41.4845 43.3306 39.8648 43.3505C35.0234 43.4123 30.6905 44.9987 26.8589 47.9294C23.2254 50.7088 20.6868 54.2722 19.4179 58.6942C18.7753 60.9339 18.6588 63.222 18.7518 65.5448C18.8704 68.4961 19.4953 71.3131 20.8239 73.9427C23.7331 79.7019 28.3586 83.2759 34.6798 84.6223C37.2354 85.167 39.813 85.113 42.3934 84.8162C45.429 84.4675 48.3198 83.6573 50.9187 82.0012C51.6288 81.5489 52.2863 81.0064 52.9247 80.456C53.115 80.292 53.2563 79.9603 53.2577 79.704C53.2769 74.9511 53.2726 70.1982 53.2698 65.4461C53.2698 65.287 53.2414 65.1286 53.2229 64.9312Z" fill="white"/>
<path fill-rule="evenodd" clip-rule="evenodd" d="M108.714 82.7088C108.714 83.8912 108.727 85.0118 108.698 86.1309C108.694 86.2602 108.479 86.4562 108.329 86.4974C107.19 86.8105 106.059 87.2352 104.896 87.3595C100.124 87.8693 95.8071 86.6053 92.0117 83.686C88.0167 80.614 85.5478 76.5705 84.9023 71.5627C84.6282 69.4316 84.7149 67.2437 84.7567 65.0835C84.8398 60.751 86.4233 56.971 89.2523 53.7215C92.0692 50.4862 95.5898 48.3778 99.824 47.6414C105.562 46.6444 110.695 48.076 115.105 51.8887C118.517 54.8371 120.56 58.5887 121.288 63.0383C121.426 63.8841 121.494 64.7512 121.496 65.609C121.512 72.6733 121.506 79.7377 121.506 86.802V87.4546H117.851V86.758C117.851 79.6936 117.898 72.6293 117.838 65.565C117.776 58.1392 112.41 52.4603 105.829 51.2311C97.8699 49.7441 90.213 55.1865 88.6331 62.9688C88.4755 63.7442 88.3775 64.5452 88.3675 65.3356C88.3405 67.4134 88.1786 69.5048 88.5933 71.5627C89.6869 76.9881 92.8503 80.7446 97.9366 82.8416C101.314 84.2342 104.749 84.1263 108.166 82.8949C108.329 82.836 108.495 82.7827 108.714 82.7088Z" fill="white"/>
<path fill-rule="evenodd" clip-rule="evenodd" d="M50.4138 67.7667V68.2858C50.4138 71.6717 50.4081 75.0568 50.4223 78.4413C50.4238 78.8077 50.3066 79.0421 50.0261 79.2629C48.4412 80.5078 46.6007 81.1732 44.6714 81.6092C42.49 82.1006 40.2653 82.3371 38.0399 82.1908C31.4986 81.759 26.6593 78.5883 23.53 72.8498C22.161 70.3388 21.6028 67.6069 21.5538 64.7444C21.507 61.9742 21.8599 59.2984 23.0741 56.7846C25.3002 52.173 28.9125 49.0911 33.67 47.3143C36.5331 46.2456 39.5055 46.0006 42.5411 46.1916C45.118 46.3535 47.6374 46.747 50.0503 47.6914C50.7298 47.9577 51.3923 48.2709 52.0463 48.5947C52.1869 48.6643 52.346 48.8709 52.3481 49.0172C52.3715 50.3175 52.3616 51.6191 52.3616 53.0195C52.1635 52.8853 52.0215 52.7987 51.8894 52.6992C49.8777 51.1796 47.5827 50.3615 45.1045 50.0938C43.4443 49.9148 41.7614 49.743 40.0998 49.8133C34.2381 50.0632 29.6616 52.5977 26.7048 57.7617C25.6794 59.552 25.2484 61.5233 25.2065 63.5961C25.1596 65.9978 25.3989 68.3419 26.435 70.5355C28.4956 74.8992 31.8785 77.6055 36.6715 78.3611C40.0551 78.8944 43.3684 78.4193 46.5836 77.2497C46.9096 77.1311 47.031 76.9479 47.0281 76.6028C47.0139 75.0732 47.0075 73.5429 47.031 72.0132C47.0388 71.5353 46.906 71.3656 46.3997 71.3706C43.7468 71.3947 41.094 71.3727 38.4418 71.3912C38.0037 71.3933 37.8503 71.2861 37.8666 70.8252C37.9021 69.8197 37.8773 68.812 37.8773 67.7667H50.4138Z" fill="white"/>
<path fill-rule="evenodd" clip-rule="evenodd" d="M137.742 66.9794C137.953 67.9374 138.088 68.7505 138.313 69.538C138.932 71.701 140.002 73.6021 141.619 75.1956C145.026 78.5552 149.799 77.6207 152.457 74.903C153.927 73.4018 154.738 71.5938 154.774 69.4819C154.803 67.8905 154.885 66.2878 154.74 64.7084C154.427 61.3048 151.857 58.4636 148.519 57.7045C145.58 57.0369 143.02 57.8507 140.816 59.8377C137.883 62.4815 135.333 65.4874 132.799 68.4991C129.919 71.9205 127.129 75.4171 124.3 78.8826C124.269 78.9195 124.25 78.9664 124.133 78.9855C124.122 78.8563 124.102 78.727 124.102 78.5978C124.1 77.0192 124.088 75.4406 124.114 73.862C124.118 73.5942 124.219 73.2825 124.379 73.0695C126.99 69.592 129.827 66.3027 132.77 63.1071C134.379 61.3602 135.988 59.6097 137.689 57.9551C139.613 56.0818 141.844 54.6367 144.509 54.0665C147.683 53.3883 150.615 54.1091 153.249 55.9611C155.958 57.8671 157.674 60.4555 158.29 63.732C158.397 64.303 158.442 64.8945 158.439 65.4761C158.426 67.2308 158.505 68.999 158.316 70.7367C157.814 75.3341 154.351 79.2596 149.825 80.5485C144.871 81.9595 139.822 79.9683 136.901 75.4562C136.01 74.0793 135.366 72.5951 134.994 71.0016C134.942 70.7758 135.018 70.4463 135.161 70.2623C135.927 69.2717 136.735 68.313 137.524 67.3409C137.594 67.2557 137.64 67.1513 137.742 66.9794Z" fill="white"/>
<path fill-rule="evenodd" clip-rule="evenodd" d="M108.715 75.5625C108.715 76.8208 108.73 77.9897 108.699 79.1572C108.694 79.3311 108.493 79.547 108.326 79.6606C107.354 80.3246 106.247 80.6569 105.103 80.8331C100.116 81.6007 95.3979 79.3674 92.8338 75.0363C91.7516 73.2091 91.1836 71.2336 91.1978 69.0996C91.2049 68.0586 91.2063 67.0168 91.1978 65.9751C91.1651 62.0275 92.7727 58.8511 95.8105 56.4076C102.597 50.9517 113.095 54.4888 114.775 63.4179C114.927 64.2268 114.99 65.0626 114.992 65.887C115.008 72.8676 115.002 79.8488 115.001 86.8301C115.001 87.4869 115 87.4869 114.331 87.4869C113.518 87.4877 112.703 87.4649 111.89 87.4962C111.469 87.5125 111.369 87.3542 111.373 86.9629C111.389 85.0917 111.38 83.2198 111.38 81.3486C111.38 76.2549 111.381 71.1619 111.379 66.0681C111.379 64.2566 110.991 62.5445 109.93 61.0489C108.263 58.6991 105.984 57.5381 103.085 57.4862C99.6882 57.4259 96.0945 59.6898 95.111 63.6395C94.9513 64.2793 94.8824 64.9525 94.8597 65.6122C94.8199 66.7662 94.849 67.923 94.849 69.0783C94.849 73.2482 97.7547 76.6739 101.883 77.264C104.144 77.5871 106.276 77.1106 108.223 75.8849C108.36 75.799 108.493 75.7088 108.715 75.5625Z" fill="white"/>
<path fill-rule="evenodd" clip-rule="evenodd" d="M88.8257 49.8089C87.904 50.8116 87.0909 51.6958 86.2985 52.5578C85.3534 52.2006 84.4445 51.7313 83.478 51.5118C77.6915 50.2009 72.5321 51.2959 68.371 55.7484C66.5141 57.7354 65.4802 60.1761 65.0819 62.8533C64.893 64.1159 64.8212 65.4069 64.8163 66.6858C64.7914 73.3901 64.8049 80.0944 64.8042 86.7987C64.8042 87.4868 64.8035 87.4868 64.1168 87.4875C63.2868 87.4875 62.4567 87.4726 61.6273 87.4939C61.2801 87.5032 61.1494 87.3746 61.1828 87.043C61.1913 86.9627 61.1835 86.8804 61.1835 86.7987C61.1835 79.8182 61.1877 72.8369 61.1814 65.8557C61.1778 61.8321 62.167 58.1018 64.5038 54.794C67.2661 50.8819 71.0785 48.584 75.753 47.6992C79.3872 47.011 82.9639 47.2383 86.4256 48.601C87.2337 48.9192 87.9842 49.3807 88.8257 49.8089Z" fill="white"/>
<path fill-rule="evenodd" clip-rule="evenodd" d="M84.7004 54.9061C84.1479 56.0075 83.626 57.0471 83.1176 58.0612C82.3897 57.8901 81.6768 57.65 80.9461 57.5641C77.4667 57.153 74.1016 58.2473 72.2888 61.5969C71.6277 62.819 71.3167 64.1441 71.316 65.5317C71.3103 72.6124 71.3131 79.6924 71.3131 86.773V87.4441H67.691C67.6825 87.2758 67.6647 87.1032 67.6647 86.9314C67.6633 79.7371 67.6029 72.5421 67.6832 65.3492C67.7471 59.5503 71.747 55.0268 77.1905 54.0433C79.3705 53.6499 81.5249 53.7806 83.6395 54.4474C84.0045 54.5617 84.3453 54.7506 84.7004 54.9061Z" fill="white"/>
<path fill-rule="evenodd" clip-rule="evenodd" d="M127.951 31.0256H131.543C131.552 31.2216 131.568 31.3949 131.568 31.5682C131.57 37.7853 131.567 44.0032 131.575 50.2204C131.575 50.5371 131.476 50.748 131.25 50.9781C130.27 51.9744 129.32 53.0005 128.359 54.016C128.239 54.1431 128.127 54.2752 127.951 54.4705V31.0256Z" fill="white"/>
<path fill-rule="evenodd" clip-rule="evenodd" d="M134.428 49.0173V48.4024C134.428 42.8194 134.428 37.2363 134.428 31.6533C134.428 31.0007 134.43 31.0007 135.102 31C135.851 31 136.601 31 137.349 31C138.048 31.0007 138.049 31.0007 138.049 31.7251C138.05 32.7995 138.05 33.8739 138.05 34.9483C138.05 38.6431 138.045 42.3379 138.056 46.0334C138.057 46.4161 137.941 46.6363 137.604 46.8493C136.669 47.4387 135.774 48.0892 134.864 48.7155C134.749 48.7944 134.636 48.8732 134.428 49.0173Z" fill="white"/>
</svg>
