<svg width="180" height="180" viewBox="0 0 180 180" fill="none" xmlns="http://www.w3.org/2000/svg">
<rect width="180" height="180" rx="15" fill="white"/>
<path fill-rule="evenodd" clip-rule="evenodd" d="M165 63.7428C164.928 64.3031 164.857 64.8634 164.785 65.4237C164.274 69.4309 162.574 72.8708 159.788 75.773C156.952 78.7272 153.511 80.5728 149.464 81.2503C142.973 82.3389 135.467 79.6745 131.662 73.7236C131.073 72.8012 130.689 71.7473 130.214 70.7525C130.091 70.4947 130.136 70.2831 130.337 70.0501C131.037 69.2363 131.709 68.3991 132.388 67.5675C132.458 67.4823 132.497 67.3723 132.6 67.1848C132.852 67.8878 133.009 68.4325 133.237 68.9466C135.392 73.8039 139.097 76.7402 144.324 77.6336C151.89 78.9253 159.127 73.8259 160.852 66.6003C161.122 65.4727 161.246 64.2931 161.289 63.1328C161.347 61.6238 161.308 60.1062 161.22 58.5979C161.051 55.7241 159.998 53.1598 158.249 50.8966C155.694 47.5903 152.338 45.5721 148.179 45.0906C144.045 44.612 140.377 45.8675 137.179 48.4957C133.846 51.2339 130.965 54.421 128.199 57.7124C126.911 59.2442 125.681 60.8235 124.423 62.3801C124.347 62.4745 124.261 62.5604 124.125 62.7103C124.115 62.52 124.102 62.412 124.102 62.3041C124.101 60.7745 124.095 59.2442 124.111 57.7145C124.113 57.5043 124.177 57.2537 124.302 57.091C126.512 54.2314 128.802 51.4399 131.376 48.8933C133.28 47.0108 135.345 45.325 137.604 43.8884C139.677 42.569 141.968 41.8205 144.398 41.5016C154.038 40.2348 162.439 47.0534 164.419 55.4187C164.65 56.3923 164.73 57.4021 164.882 58.3948C164.916 58.6157 164.96 58.8351 165 59.0545V63.7428Z" fill="#00B041"/>
<path fill-rule="evenodd" clip-rule="evenodd" d="M116.197 142.087C116.473 142.304 116.674 142.458 116.871 142.618C119.778 144.976 123.076 146.473 126.79 146.951C129.259 147.268 131.729 147.22 134.081 146.24C136.704 145.148 138.017 143.077 138.257 140.32C138.383 138.866 138.333 137.396 138.357 135.932C138.36 135.81 138.332 135.688 138.313 135.52C138.215 135.569 138.148 135.584 138.112 135.623C136.462 137.508 134.302 138.482 131.913 138.957C128.03 139.728 124.265 139.31 120.745 137.443C116.979 135.444 114.807 132.195 113.763 128.133C113.354 126.538 113.173 124.91 113.173 123.262C113.174 116.035 113.174 108.808 113.174 101.581C113.174 100.951 113.174 100.95 113.82 100.95C116.311 100.949 118.802 100.963 121.292 100.939C121.794 100.934 121.909 101.085 121.908 101.573C121.893 108.914 121.857 116.256 121.92 123.597C121.949 126.973 123.953 130.383 128.206 131.123C130.667 131.55 133.009 131.16 135.032 129.574C136.56 128.376 137.329 126.736 137.576 124.847C137.672 124.109 137.681 123.356 137.682 122.609C137.689 115.61 137.686 108.61 137.686 101.611C137.686 100.951 137.687 100.95 138.352 100.95C140.777 100.949 143.202 100.956 145.627 100.944C146 100.942 146.129 101.047 146.129 101.443C146.118 114.399 146.156 127.356 146.092 140.312C146.074 143.859 145.024 147.138 142.602 149.856C140.574 152.13 137.995 153.471 135.09 154.24C133.373 154.694 131.621 154.895 129.846 154.976C124.919 155.201 120.517 153.83 116.653 150.747C116.304 150.469 116.152 150.175 116.155 149.719C116.178 147.326 116.166 144.934 116.167 142.541C116.167 142.428 116.182 142.316 116.197 142.087Z" fill="#00B041"/>
<path fill-rule="evenodd" clip-rule="evenodd" d="M47.3719 116.894C48.5265 116.894 49.6833 116.931 50.8357 116.883C51.822 116.842 52.8218 116.792 53.7833 116.591C56.4163 116.04 58.3342 114.57 59.2176 111.959C59.9241 109.87 59.9369 107.743 59.3198 105.632C58.7205 103.584 57.3976 102.177 55.4072 101.384C54.1646 100.889 52.8673 100.693 51.5522 100.677C48.7225 100.642 45.8921 100.669 43.0624 100.662C42.7024 100.661 42.5938 100.796 42.5945 101.153C42.6044 106.227 42.6051 111.302 42.5938 116.377C42.5923 116.79 42.7315 116.906 43.127 116.901C44.5422 116.883 45.9567 116.894 47.3719 116.894ZM42.6009 139.496H42.0165C39.6242 139.496 37.2312 139.48 34.8389 139.51C34.3241 139.516 34.2197 139.355 34.2197 138.877C34.2318 128.671 34.229 118.466 34.229 108.26C34.229 103.344 34.229 98.4279 34.2297 93.5124C34.2297 92.8704 34.2318 92.8683 34.868 92.869C40.8086 92.8719 46.752 92.771 52.6898 92.9131C56.9801 93.016 60.9111 94.3198 64.0206 97.482C65.9705 99.4661 67.1208 101.881 67.6427 104.591C68.3052 108.031 68.2321 111.455 67.0718 114.785C65.3264 119.793 61.7007 122.742 56.6549 124.067C54.9492 124.514 53.2088 124.693 51.4464 124.691C48.7119 124.688 45.9773 124.69 43.2428 124.69C42.6023 124.691 42.6009 124.695 42.6009 125.34C42.6009 129.849 42.6009 134.358 42.6009 138.867V139.496Z" fill="#00B041"/>
<path fill-rule="evenodd" clip-rule="evenodd" d="M99.594 120.112C99.4974 118.737 99.5258 117.34 99.2809 115.991C98.6837 112.713 96.8403 110.367 93.6762 109.178C91.6972 108.435 89.65 108.378 87.5808 108.742C83.7392 109.42 80.7796 112.43 80.203 116.276C79.8806 118.426 79.8877 120.594 80.1142 122.743C80.4927 126.331 82.3141 128.975 85.6004 130.523C87.6482 131.486 89.8126 131.576 92.0352 131.274C95.538 130.798 98.1575 128.557 99.1055 125.153C99.567 123.497 99.5187 121.808 99.594 120.112ZM99.5053 135.53C97.5873 137.534 95.2788 138.639 92.6607 139.159C90.7172 139.546 88.7588 139.521 86.7961 139.317C84.4117 139.07 82.1422 138.439 80.0383 137.28C76.1292 135.128 73.7448 131.791 72.5497 127.548C72.0221 125.677 71.7849 123.76 71.7778 121.822C71.7707 119.952 71.726 118.074 71.8836 116.215C72.4957 108.994 76.5787 102.987 84.5409 101.098C88.7027 100.111 92.8766 100.197 96.934 101.605C102.403 103.506 105.74 107.403 107.151 112.984C107.565 114.627 107.754 116.302 107.752 117.999C107.746 124.785 107.75 131.572 107.749 138.358C107.749 139.046 107.749 139.047 107.059 139.048C104.731 139.048 102.405 139.038 100.078 139.055C99.6494 139.058 99.4747 138.962 99.4939 138.489C99.5329 137.504 99.5053 136.517 99.5053 135.53Z" fill="#00B041"/>
<path fill-rule="evenodd" clip-rule="evenodd" d="M53.2229 58.9312H37.9099C37.8972 58.721 37.8794 58.5499 37.8787 58.3788C37.8751 57.5649 37.8766 56.7511 37.8773 55.9373C37.8773 55.2677 37.8773 55.267 38.5717 55.267H50.9741C52.7642 55.267 54.555 55.2798 56.3452 55.2577C56.7733 55.2521 56.9026 55.3756 56.9019 55.806C56.8905 62.1708 56.8969 68.535 56.8813 74.8991C56.8806 75.1626 56.7641 75.4807 56.5937 75.6803C54.7368 77.8511 52.3914 79.3495 49.811 80.502C47.3761 81.5899 44.8162 82.2085 42.1648 82.4968C37.6529 82.9861 33.2568 82.5777 29.1099 80.6547C21.84 77.2844 17.2813 71.6503 15.6232 63.8098C14.6475 59.1947 14.7441 54.5597 16.4377 50.0809C18.6652 44.1911 22.7091 39.8899 28.2173 36.9322C31.1371 35.3636 34.2601 34.4248 37.562 34.0598C39.9834 33.7913 42.397 33.8858 44.8141 34.0754C47.1872 34.2607 49.5056 34.6968 51.7452 35.5304C52.2018 35.7002 52.4028 35.904 52.3779 36.4309C52.3254 37.5458 52.3623 38.6656 52.3623 39.8572C51.9093 39.6264 51.528 39.4241 51.1388 39.2366C49.1108 38.2573 46.9578 37.7226 44.726 37.5451C43.1099 37.4172 41.4845 37.3306 39.8648 37.3505C35.0234 37.4123 30.6905 38.9987 26.8589 41.9294C23.2254 44.7088 20.6868 48.2722 19.4179 52.6942C18.7753 54.9339 18.6588 57.222 18.7518 59.5448C18.8704 62.4961 19.4953 65.3131 20.8239 67.9427C23.7331 73.7019 28.3586 77.2759 34.6798 78.6223C37.2354 79.167 39.813 79.113 42.3934 78.8162C45.429 78.4675 48.3198 77.6573 50.9187 76.0012C51.6288 75.5489 52.2863 75.0064 52.9247 74.456C53.115 74.292 53.2563 73.9603 53.2577 73.704C53.2769 68.9511 53.2726 64.1982 53.2698 59.4461C53.2698 59.287 53.2414 59.1286 53.2229 58.9312Z" fill="#00B041"/>
<path fill-rule="evenodd" clip-rule="evenodd" d="M108.715 76.7088C108.715 77.8912 108.728 79.0118 108.698 80.1309C108.695 80.2602 108.48 80.4562 108.329 80.4974C107.191 80.8105 106.059 81.2352 104.897 81.3595C100.124 81.8693 95.8076 80.6053 92.0122 77.686C88.0172 74.614 85.5483 70.5705 84.9028 65.5627C84.6287 63.4316 84.7153 61.2437 84.7572 59.0835C84.8403 54.751 86.4238 50.971 89.2528 47.7215C92.0697 44.4862 95.5903 42.3778 99.8245 41.6414C105.563 40.6444 110.695 42.076 115.106 45.8887C118.518 48.8371 120.56 52.5887 121.289 57.0383C121.427 57.8841 121.495 58.7512 121.496 59.609C121.513 66.6733 121.506 73.7377 121.506 80.802V81.4546H117.851V80.758C117.851 73.6936 117.898 66.6293 117.839 59.565C117.776 52.1392 112.411 46.4603 105.83 45.2311C97.8704 43.7441 90.2135 49.1865 88.6336 56.9688C88.476 57.7442 88.378 58.5452 88.368 59.3356C88.341 61.4134 88.1791 63.5048 88.5938 65.5627C89.6874 70.9881 92.8508 74.7446 97.9371 76.8416C101.314 78.2342 104.75 78.1263 108.167 76.8949C108.33 76.836 108.495 76.7827 108.715 76.7088Z" fill="#00B041"/>
<path fill-rule="evenodd" clip-rule="evenodd" d="M50.4133 61.7667V62.2858C50.4133 65.6717 50.4077 69.0568 50.4219 72.4413C50.4233 72.8077 50.3061 73.0421 50.0256 73.2629C48.4407 74.5078 46.6002 75.1732 44.6709 75.6092C42.4895 76.1006 40.2648 76.3371 38.0394 76.1908C31.4981 75.759 26.6589 72.5883 23.5295 66.8498C22.1605 64.3388 21.6023 61.6069 21.5533 58.7444C21.5065 55.9742 21.8594 53.2984 23.0736 50.7846C25.2998 46.173 28.912 43.0911 33.6695 41.3143C36.5326 40.2456 39.505 40.0006 42.5406 40.1916C45.1175 40.3535 47.6369 40.747 50.0498 41.6914C50.7293 41.9577 51.3918 42.2709 52.0458 42.5947C52.1864 42.6643 52.3455 42.8709 52.3476 43.0172C52.371 44.3175 52.3611 45.6191 52.3611 47.0195C52.163 46.8853 52.021 46.7987 51.8889 46.6992C49.8772 45.1796 47.5822 44.3615 45.104 44.0938C43.4439 43.9148 41.761 43.743 40.0994 43.8133C34.2376 44.0632 29.6611 46.5977 26.7043 51.7617C25.6789 53.552 25.2479 55.5233 25.206 57.5961C25.1592 59.9978 25.3985 62.3419 26.4345 64.5355C28.4951 68.8992 31.878 71.6055 36.6711 72.3611C40.0546 72.8944 43.3679 72.4193 46.5831 71.2497C46.9091 71.1311 47.0305 70.9479 47.0277 70.6028C47.0135 69.0732 47.0071 67.5429 47.0305 66.0132C47.0383 65.5353 46.9055 65.3656 46.3992 65.3706C43.7463 65.3947 41.0935 65.3727 38.4413 65.3912C38.0032 65.3933 37.8498 65.2861 37.8661 64.8252C37.9016 63.8197 37.8768 62.812 37.8768 61.7667H50.4133Z" fill="#00B041"/>
<path fill-rule="evenodd" clip-rule="evenodd" d="M137.743 60.9794C137.954 61.9374 138.089 62.7505 138.314 63.538C138.932 65.701 140.002 67.6021 141.619 69.1956C145.027 72.5552 149.799 71.6207 152.458 68.903C153.927 67.4018 154.738 65.5938 154.775 63.4819C154.803 61.8905 154.885 60.2878 154.74 58.7084C154.427 55.3048 151.858 52.4636 148.52 51.7045C145.581 51.0369 143.021 51.8507 140.816 53.8377C137.883 56.4815 135.334 59.4874 132.8 62.4991C129.92 65.9205 127.129 69.4171 124.3 72.8826C124.27 72.9195 124.251 72.9664 124.133 72.9855C124.123 72.8563 124.103 72.727 124.103 72.5978C124.101 71.0192 124.089 69.4406 124.114 67.862C124.118 67.5942 124.219 67.2825 124.38 67.0695C126.99 63.592 129.828 60.3027 132.771 57.1071C134.379 55.3602 135.989 53.6097 137.69 51.9551C139.614 50.0818 141.844 48.6367 144.509 48.0665C147.683 47.3883 150.615 48.1091 153.249 49.9611C155.959 51.8671 157.675 54.4555 158.291 57.732C158.398 58.303 158.443 58.8945 158.439 59.4761C158.427 61.2308 158.506 62.999 158.317 64.7367C157.814 69.3341 154.352 73.2596 149.826 74.5485C144.871 75.9595 139.823 73.9683 136.901 69.4562C136.011 68.0793 135.367 66.5951 134.995 65.0016C134.942 64.7758 135.018 64.4463 135.161 64.2623C135.927 63.2717 136.735 62.313 137.525 61.3409C137.594 61.2557 137.641 61.1513 137.743 60.9794Z" fill="#00B041"/>
<path fill-rule="evenodd" clip-rule="evenodd" d="M108.715 69.5625C108.715 70.8208 108.731 71.9897 108.699 73.1572C108.694 73.3311 108.494 73.547 108.326 73.6606C107.355 74.3246 106.247 74.6569 105.103 74.8331C100.117 75.6007 95.3984 73.3674 92.8343 69.0363C91.7521 67.2091 91.184 65.2336 91.1982 63.0996C91.2053 62.0586 91.2068 61.0168 91.1982 59.9751C91.1656 56.0275 92.7732 52.8511 95.811 50.4076C102.597 44.9517 113.096 48.4888 114.775 57.4179C114.927 58.2268 114.99 59.0626 114.992 59.887C115.009 66.8676 115.002 73.8488 115.002 80.8301C115.002 81.4869 115 81.4869 114.331 81.4869C113.518 81.4877 112.703 81.4649 111.891 81.4962C111.47 81.5125 111.37 81.3542 111.373 80.9629C111.39 79.0917 111.38 77.2198 111.38 75.3486C111.38 70.2549 111.382 65.1619 111.38 60.0681C111.38 58.2566 110.992 56.5445 109.93 55.0489C108.263 52.6991 105.984 51.5381 103.085 51.4862C99.6887 51.4259 96.095 53.6898 95.1115 57.6395C94.9518 58.2793 94.8829 58.9525 94.8602 59.6122C94.8204 60.7662 94.8495 61.923 94.8495 63.0783C94.8495 67.2482 97.7552 70.6739 101.884 71.264C104.145 71.5871 106.277 71.1106 108.224 69.8849C108.36 69.799 108.494 69.7088 108.715 69.5625Z" fill="#00B041"/>
<path fill-rule="evenodd" clip-rule="evenodd" d="M88.8252 43.8089C87.9035 44.8116 87.0905 45.6958 86.298 46.5578C85.3529 46.2006 84.444 45.7313 83.4775 45.5118C77.6911 44.2009 72.5316 45.2959 68.3705 49.7484C66.5136 51.7354 65.4797 54.1761 65.0814 56.8533C64.8925 58.1159 64.8208 59.4069 64.8158 60.6858C64.7909 67.3901 64.8044 74.0944 64.8037 80.7987C64.8037 81.4868 64.803 81.4868 64.1164 81.4875C63.2863 81.4875 62.4562 81.4726 61.6268 81.4939C61.2796 81.5032 61.1489 81.3746 61.1823 81.043C61.1908 80.9627 61.183 80.8804 61.183 80.7987C61.183 73.8182 61.1873 66.8369 61.1809 59.8557C61.1773 55.8321 62.1665 52.1018 64.5034 48.794C67.2656 44.8819 71.078 42.584 75.7525 41.6992C79.3867 41.011 82.9634 41.2383 86.4251 42.601C87.2332 42.9192 87.9837 43.3807 88.8252 43.8089Z" fill="#00B041"/>
<path fill-rule="evenodd" clip-rule="evenodd" d="M84.6999 48.9061C84.1474 50.0075 83.6255 51.0471 83.1171 52.0612C82.3893 51.8901 81.6763 51.65 80.9457 51.5641C77.4662 51.153 74.1011 52.2473 72.2883 55.5969C71.6272 56.819 71.3162 58.1441 71.3155 59.5317C71.3098 66.6124 71.3126 73.6924 71.3126 80.773V81.4441H67.6905C67.682 81.2758 67.6642 81.1032 67.6642 80.9314C67.6628 73.7371 67.6024 66.5421 67.6827 59.3492C67.7466 53.5503 71.7465 49.0268 77.19 48.0433C79.37 47.6499 81.5244 47.7806 83.639 48.4474C84.004 48.5617 84.3448 48.7506 84.6999 48.9061Z" fill="#00B041"/>
<path fill-rule="evenodd" clip-rule="evenodd" d="M127.951 25.0256H131.543C131.552 25.2216 131.568 25.3949 131.568 25.5682C131.57 31.7853 131.567 38.0032 131.575 44.2204C131.575 44.5371 131.476 44.748 131.25 44.9781C130.27 45.9744 129.32 47.0005 128.359 48.016C128.239 48.1431 128.127 48.2752 127.951 48.4705V25.0256Z" fill="#00B041"/>
<path fill-rule="evenodd" clip-rule="evenodd" d="M134.428 43.0173V42.4024C134.428 36.8194 134.428 31.2363 134.429 25.6533C134.429 25.0007 134.43 25.0007 135.103 25C135.852 25 136.601 25 137.35 25C138.049 25.0007 138.05 25.0007 138.05 25.7251C138.05 26.7995 138.05 27.8739 138.05 28.9483C138.05 32.6431 138.045 36.3379 138.056 40.0334C138.057 40.4161 137.942 40.6363 137.604 40.8493C136.67 41.4387 135.775 42.0892 134.864 42.7155C134.75 42.7944 134.636 42.8732 134.428 43.0173Z" fill="#00B041"/>
</svg>
