<svg width="180" height="180" viewBox="0 0 180 180" fill="none" xmlns="http://www.w3.org/2000/svg">
<circle cx="90" cy="90" r="90" fill="#FF7900"/>
<path d="M117.223 27.9367C119.834 28.5038 123.822 29.6381 126.142 30.4888C130.638 32.1194 138.831 37.2237 139.919 39.0669C141.007 40.7684 130.855 55.1597 127.592 56.4358C124.184 57.8537 123.822 57.7828 118.456 54.309C110.625 49.2756 105.477 47.8577 95.1077 47.8577C87.9292 47.9286 85.5363 48.2122 81.6933 49.5592C72.0495 52.8203 61.9705 60.5476 57.6924 67.9205C56.7498 69.5511 55.6622 70.8981 55.3721 70.8981C54.5745 70.8981 55.2996 64.943 56.7498 59.2715C58.4175 52.4658 61.8981 46.9361 68.2789 40.7684C74.8048 34.3171 81.2583 30.7724 90.467 28.4329C96.9929 26.7315 110.262 26.5188 117.223 27.9367ZM85.5363 56.0814C82.7809 60.1223 82.7084 65.7228 85.3188 68.4168C87.7116 70.9689 93.585 73.7338 102.359 76.5695C119.834 82.1701 130.203 89.4721 129.695 95.9943C129.332 100.319 124.039 109.535 119.036 114.427C114.468 118.893 106.854 123.359 101.851 124.493L99.8208 124.919L101.561 121.87C103.954 117.688 104.606 112.796 103.229 110.173C100.763 105.494 98.153 104.147 82.926 99.2554C70.4543 95.2145 64.6534 92.0951 60.8104 87.3453C56.7498 82.3119 56.6048 80.9649 59.4327 75.0099C63.7108 65.9355 72.9921 57.7828 82.7084 54.4508C87.7841 52.7494 87.7841 52.7494 85.5363 56.0814ZM131.363 114.356C128.535 128.18 118.746 140.728 106.274 146.612C96.8479 151.078 92.3522 152 80.9682 152C73.2096 151.929 69.9466 151.646 65.3785 150.369C57.5475 148.314 48.7012 143.918 43.9155 139.735L40 136.333L45.5108 129.314C48.4837 125.486 51.8917 121.729 52.9793 120.949C56.1697 118.609 59.5052 119.106 65.5961 122.934C77.7777 130.661 87.5666 132.717 100.111 130.094C111.35 127.754 123.822 118.964 129.55 109.251C131.798 105.423 132.088 105.14 132.305 106.77C132.45 107.763 132.015 111.165 131.363 114.356Z" fill="white"/>
</svg>
