<svg width="180" height="180" viewBox="0 0 180 180" fill="none" xmlns="http://www.w3.org/2000/svg">
<circle cx="90" cy="90" r="90" fill="#FF7900"/>
<path d="M72.4211 40.9577C73.7087 41.2461 75.6759 41.8227 76.8204 42.2553C79.0379 43.0842 83.0796 45.6792 83.6161 46.6163C84.1526 47.4813 79.1452 54.7978 77.5357 55.4466C75.8547 56.1674 75.6759 56.1314 73.0291 54.3653C69.1663 51.8063 66.6269 51.0855 61.5123 51.0855C57.9714 51.1216 56.7911 51.2658 54.8954 51.9506C50.1384 53.6085 45.1669 57.537 43.0566 61.2854C42.5917 62.1144 42.0552 62.7992 41.9121 62.7992C41.5187 62.7992 41.8763 59.7716 42.5917 56.8883C43.4143 53.4282 45.1311 50.617 48.2786 47.4813C51.4976 44.2015 54.6808 42.3994 59.2232 41.21C62.4422 40.345 68.9875 40.2369 72.4211 40.9577ZM56.7911 55.2664C55.4319 57.3208 55.3962 60.1681 56.6838 61.5377C57.8641 62.8352 60.7612 64.2409 65.0889 65.6825C73.7087 68.5299 78.8233 72.2422 78.573 75.5581C78.3941 77.7566 75.7832 82.4421 73.3153 84.929C71.0619 87.1997 67.3065 89.4703 64.8386 90.047L63.8371 90.2632L64.6955 88.7134C65.8758 86.5869 66.1977 84.1 65.5181 82.7665C64.3021 80.3877 63.0145 79.7029 55.5035 77.216C49.3516 75.1616 46.4902 73.5758 44.5946 71.1609C42.5917 68.602 42.5201 67.9172 43.915 64.8896C46.0253 60.2762 50.6034 56.1314 55.3961 54.4374C57.8998 53.5724 57.8998 53.5724 56.7911 55.2664ZM108.581 76.0266C114.411 77.9368 116.271 85.6859 111.943 90.047C110.119 91.8851 108.009 92.606 103.824 92.9303L100.677 93.1826V97.4356V101.725H97.6366H94.5965V88.5693V75.4139H100.641C105.398 75.4139 107.079 75.5581 108.581 76.0266ZM132.617 88.317C135.299 95.3812 137.517 101.328 137.517 101.472C137.517 101.905 132.33 101.761 131.687 101.256C131.365 101.04 130.721 99.7062 130.256 98.3727L129.433 95.8858H124.462H119.49L118.667 98.3727C118.202 99.7062 117.559 101.04 117.237 101.256C116.593 101.761 111.407 101.905 111.407 101.436C111.407 101.292 113.624 95.3812 116.307 88.317L121.243 75.4139H124.462H127.681L132.617 88.317ZM141.63 81.469L144.491 87.3438L147.352 81.469L150.214 75.5941L153.54 75.486C155.328 75.4499 156.831 75.45 156.831 75.5581C156.831 75.6302 154.756 79.2704 152.181 83.6675L147.531 91.6689V96.6787V101.725H144.491H141.451V96.7148V91.7049L136.801 83.7036C134.262 79.3425 132.152 75.6662 132.152 75.5581C132.152 75.45 133.654 75.4499 135.478 75.486L138.768 75.5941L141.63 81.469ZM79.3956 84.893C78.0007 91.9212 73.1722 98.3006 67.0203 101.292C62.3706 103.563 60.1531 104.031 54.5378 104.031C50.7107 103.995 49.1012 103.851 46.8479 103.202C42.9851 102.157 38.6216 99.9225 36.261 97.796L34.3295 96.066L37.0478 92.4978C38.5143 90.5516 40.1953 88.6413 40.7318 88.2449C42.3055 87.0555 43.9508 87.3078 46.9552 89.2541C52.964 93.1826 57.7925 94.2279 63.9802 92.8943C69.524 91.7049 75.6759 87.2357 78.5014 82.2979C79.6102 80.3517 79.7533 80.2075 79.8606 81.0365C79.9321 81.5411 79.7175 83.2711 79.3956 84.893ZM42.1625 111.276C44.5231 111.78 47.1698 113.042 48.0282 114.087C48.3859 114.484 48.2428 114.916 47.3844 116.105C46.7764 116.934 46.0253 117.727 45.7391 117.835C45.453 117.944 44.2727 117.619 43.1282 117.079C40.8391 116.069 37.5843 115.817 35.6887 116.538C34.258 117.079 32.7558 118.592 31.9689 120.286C31.0748 122.269 31.0748 126.594 31.9689 128.576C33.6142 132.18 37.3697 133.838 41.4114 132.685C42.7347 132.324 42.7347 132.324 42.7347 130.378V128.396H41.161C39.1938 128.396 38.7288 127.855 38.8719 125.621L38.9792 123.891L43.5574 123.782L48.0997 123.674V129.477V135.244L46.3829 136.109C42.5201 138.091 36.3325 138.307 32.6485 136.613C27.0331 134.018 24.0645 128.18 25.1375 121.836C25.9244 117.295 28.285 114.123 32.2551 112.285C35.5098 110.771 38.407 110.483 42.1625 111.276ZM81.935 111.132C84.6533 111.636 87.8008 113.33 89.446 115.168C94.3103 120.575 93.7738 129.837 88.373 134.631C87.9438 134.991 86.5847 135.82 85.2971 136.433C83.1153 137.514 82.7219 137.587 79.2168 137.587C75.6759 137.587 75.2824 137.514 73.0649 136.397C63.3006 131.567 63.2648 116.79 72.9576 112.321C76.1766 110.843 78.573 110.519 81.935 111.132ZM57.0414 121.908V132.721H61.8699H66.6984V135.064V137.406H58.8298H50.9611V124.251V111.096H54.0012H57.0414V121.908ZM110.37 112.213C113.052 113.474 114.018 114.916 114.197 117.763C114.34 120.322 113.589 121.872 111.55 123.062L110.262 123.818L111.729 124.539C116.521 126.81 115.842 133.586 110.548 136.433C109.189 137.154 108.474 137.226 101.857 137.334L94.5965 137.442V124.251V111.023L101.499 111.168C108.009 111.276 108.474 111.348 110.37 112.213ZM135.764 124.215C138.482 131.315 140.736 137.226 140.736 137.298C140.736 137.334 139.484 137.406 137.91 137.406C134.62 137.406 134.476 137.298 133.368 134.018L132.617 131.82L127.645 131.712L122.638 131.604L121.994 133.694C120.885 137.298 120.778 137.406 117.487 137.406C115.913 137.406 114.626 137.262 114.626 137.118C114.626 136.794 124.176 111.961 124.498 111.42C124.605 111.204 126.071 111.132 127.752 111.168L130.792 111.276L135.764 124.215ZM147.96 121.8L148.068 132.541L152.825 132.649L157.546 132.757V135.064V137.406H149.677H141.809V124.251V111.096H144.849H147.889L147.96 121.8Z" fill="white"/>
<path d="M101.635 84.1358L101.742 88.1725L104.246 88.0644C107.214 87.9562 107.894 87.6319 108.573 86.046C109.539 83.7393 108.967 81.5047 107.25 80.6036C106.678 80.3153 105.247 80.0991 103.888 80.0991H101.527L101.635 84.1358Z" fill="#FF7900"/>
<path d="M123.631 86.1542C122.701 88.8573 121.95 91.2001 121.95 91.3442C121.95 91.5244 123.488 91.6326 125.384 91.6326H128.817L128.603 90.7676C128.496 90.263 127.709 87.9202 126.85 85.5415L125.348 81.2164L123.631 86.1542Z" fill="#FF7900"/>
<path d="M76.3476 116.934C72.4132 119.205 71.6621 127.17 75.06 130.594C77.7067 133.261 82.2133 133.405 84.8958 130.955C86.5053 129.477 87.3637 127.17 87.3637 124.251C87.3637 121.079 86.4338 118.808 84.5381 117.367C83.3936 116.466 82.8571 116.321 80.4965 116.213C78.2074 116.141 77.5636 116.249 76.3476 116.934Z" fill="#FF7900"/>
<path d="M101.635 118.88L101.742 122.088L103.173 122.196C105.354 122.376 107.608 121.944 108.395 121.151C109.289 120.25 109.289 117.943 108.395 116.826C107.787 116.069 107.357 115.961 104.603 115.817L101.527 115.709L101.635 118.88Z" fill="#FF7900"/>
<path d="M101.85 126.449C101.671 126.593 101.563 128.071 101.563 129.729V132.72H104.568C108.145 132.72 108.574 132.576 109.253 131.243C110.04 129.729 109.933 128.287 108.896 127.314C108.145 126.593 107.537 126.449 105.033 126.305C103.423 126.233 101.993 126.269 101.85 126.449Z" fill="#FF7900"/>
<path d="M126.814 121.944C125.92 124.539 125.169 126.809 125.169 126.99C125.169 127.17 126.707 127.314 128.567 127.314C130.427 127.314 131.965 127.242 131.965 127.17C131.965 126.954 128.674 117.439 128.567 117.294C128.531 117.258 127.744 119.313 126.814 121.944Z" fill="#FF7900"/>
</svg>
