<svg width="180" height="180" viewBox="0 0 180 180" fill="none" xmlns="http://www.w3.org/2000/svg">
<rect width="180" height="180" rx="15" fill="white"/>
<path d="M17.475 6.53802C11.925 7.88802 7.65 12.2755 6.45 17.938C5.85 20.7505 5.85 158.526 6.45 161.338C7.725 167.263 12.3 171.763 18.225 172.888C19.875 173.188 41.25 173.263 96.7875 173.188L173.1 173.076L173.212 96.763C173.287 41.0755 173.212 19.8505 172.875 18.2005C171.75 12.163 167.362 7.66302 161.362 6.42552C158.4 5.78801 20.0625 5.90051 17.475 6.53802ZM70.9125 40.288C72.2625 40.588 74.325 41.188 75.525 41.638C77.85 42.5005 82.0875 45.2005 82.65 46.1755C83.2125 47.0755 77.9625 54.688 76.275 55.363C74.5125 56.113 74.325 56.0755 71.55 54.238C67.5 51.5755 64.8375 50.8255 59.475 50.8255C55.7625 50.863 54.525 51.013 52.5375 51.7255C47.55 53.4505 42.3375 57.538 40.125 61.438C39.6375 62.3005 39.075 63.013 38.925 63.013C38.5125 63.013 38.8875 59.863 39.6375 56.863C40.5 53.263 42.3 50.338 45.6 47.0755C48.975 43.663 52.3125 41.788 57.075 40.5505C60.45 39.6505 67.3125 39.538 70.9125 40.288ZM54.525 55.1755C53.1 57.313 53.0625 60.2755 54.4125 61.7005C55.65 63.0505 58.6875 64.513 63.225 66.013C72.2625 68.9755 77.625 72.838 77.3625 76.288C77.175 78.5755 74.4375 83.4505 71.85 86.038C69.4875 88.4005 65.55 90.763 62.9625 91.363L61.9125 91.588L62.8125 89.9755C64.05 87.763 64.3875 85.1755 63.675 83.788C62.4 81.313 61.05 80.6005 53.175 78.013C46.725 75.8755 43.725 74.2255 41.7375 71.713C39.6375 69.0505 39.5625 68.338 41.025 65.188C43.2375 60.388 48.0375 56.0755 53.0625 54.313C55.6875 53.413 55.6875 53.413 54.525 55.1755ZM108.825 76.7755C114.937 78.763 116.887 86.8255 112.35 91.363C110.437 93.2755 108.225 94.0255 103.837 94.363L100.537 94.6255V99.0505V103.513H97.35H94.1625V89.8255V76.138H100.5C105.487 76.138 107.25 76.288 108.825 76.7755ZM134.025 89.563C136.837 96.913 139.162 103.101 139.162 103.251C139.162 103.701 133.725 103.551 133.05 103.026C132.712 102.801 132.037 101.413 131.55 100.026L130.687 97.438H125.475H120.262L119.4 100.026C118.912 101.413 118.237 102.801 117.9 103.026C117.225 103.551 111.787 103.701 111.787 103.213C111.787 103.063 114.112 96.913 116.925 89.563L122.1 76.138H125.475H128.85L134.025 89.563ZM143.475 82.438L146.475 88.5505L149.475 82.438L152.475 76.3255L155.962 76.213C157.837 76.1755 159.412 76.1755 159.412 76.288C159.412 76.363 157.237 80.1505 154.537 84.7255L149.662 93.0505V98.263V103.513H146.475H143.287V98.3005V93.088L138.412 84.763C135.75 80.2255 133.537 76.4005 133.537 76.288C133.537 76.1755 135.112 76.1755 137.025 76.213L140.475 76.3255L143.475 82.438ZM78.225 86.0005C76.7625 93.313 71.7 99.9505 65.25 103.063C60.375 105.426 58.05 105.913 52.1625 105.913C48.15 105.876 46.4625 105.726 44.1 105.051C40.05 103.963 35.475 101.638 33 99.4255L30.975 97.6255L33.825 93.913C35.3625 91.888 37.125 89.9005 37.6875 89.488C39.3375 88.2505 41.0625 88.513 44.2125 90.538C50.5125 94.6255 55.575 95.713 62.0625 94.3255C67.875 93.088 74.325 88.438 77.2875 83.3005C78.45 81.2755 78.6 81.1255 78.7125 81.988C78.7875 82.513 78.5625 84.313 78.225 86.0005ZM39.1875 113.451C41.6625 113.976 44.4375 115.288 45.3375 116.376C45.7125 116.788 45.5625 117.238 44.6625 118.476C44.025 119.338 43.2375 120.163 42.9375 120.276C42.6375 120.388 41.4 120.051 40.2 119.488C37.8 118.438 34.3875 118.176 32.4 118.926C30.9 119.488 29.325 121.063 28.5 122.826C27.5625 124.888 27.5625 129.388 28.5 131.451C30.225 135.201 34.1625 136.926 38.4 135.726C39.7875 135.351 39.7875 135.351 39.7875 133.326V131.263H38.1375C36.075 131.263 35.5875 130.701 35.7375 128.376L35.85 126.576L40.65 126.463L45.4125 126.351V132.388V138.388L43.6125 139.288C39.5625 141.351 33.075 141.576 29.2125 139.813C23.325 137.113 20.2125 131.038 21.3375 124.438C22.1625 119.713 24.6375 116.413 28.8 114.501C32.2125 112.926 35.25 112.626 39.1875 113.451ZM80.8875 113.301C83.7375 113.826 87.0375 115.588 88.7625 117.501C93.8625 123.126 93.3 132.763 87.6375 137.751C87.1875 138.126 85.7625 138.988 84.4125 139.626C82.125 140.751 81.7125 140.826 78.0375 140.826C74.325 140.826 73.9125 140.751 71.5875 139.588C61.35 134.563 61.3125 119.188 71.475 114.538C74.85 113.001 77.3625 112.663 80.8875 113.301ZM54.7875 124.513V135.763H59.85H64.9125V138.201V140.638H56.6625H48.4125V126.951V113.263H51.6H54.7875V124.513ZM110.7 114.426C113.512 115.738 114.525 117.238 114.712 120.201C114.862 122.863 114.075 124.476 111.937 125.713L110.587 126.501L112.125 127.251C117.15 129.613 116.437 136.663 110.887 139.626C109.462 140.376 108.712 140.451 101.775 140.563L94.1625 140.676V126.951V113.188L101.4 113.338C108.225 113.451 108.712 113.526 110.7 114.426ZM137.325 126.913C140.175 134.301 142.537 140.451 142.537 140.526C142.537 140.563 141.225 140.638 139.575 140.638C136.125 140.638 135.975 140.526 134.812 137.113L134.025 134.826L128.812 134.713L123.562 134.601L122.887 136.776C121.725 140.526 121.612 140.638 118.162 140.638C116.512 140.638 115.162 140.488 115.162 140.338C115.162 140.001 125.175 114.163 125.512 113.601C125.625 113.376 127.162 113.301 128.925 113.338L132.112 113.451L137.325 126.913ZM150.112 124.401L150.225 135.576L155.212 135.688L160.162 135.801V138.201V140.638H151.912H143.662V126.951V113.263H146.85H150.037L150.112 124.401Z" fill="#FF7900"/>
<path d="M100.613 85.2131L100.725 89.4131L103.35 89.3006C106.463 89.1881 107.175 88.8506 107.888 87.2006C108.9 84.8006 108.3 82.4756 106.5 81.5381C105.9 81.2381 104.4 81.0131 102.975 81.0131H100.5L100.613 85.2131Z" fill="#FF7900"/>
<path d="M123.675 87.3131C122.7 90.1256 121.912 92.5631 121.912 92.7131C121.912 92.9006 123.525 93.0131 125.512 93.0131H129.112L128.887 92.1131C128.775 91.5881 127.95 89.1506 127.05 86.6756L125.475 82.1756L123.675 87.3131Z" fill="#FF7900"/>
<path d="M74.0995 119.338C69.9745 121.701 69.187 129.988 72.7495 133.551C75.5245 136.326 80.2495 136.476 83.062 133.926C84.7495 132.388 85.6495 129.988 85.6495 126.951C85.6495 123.651 84.6745 121.288 82.687 119.788C81.487 118.851 80.9245 118.701 78.4495 118.588C76.0495 118.513 75.3745 118.626 74.0995 119.338Z" fill="#FF7900"/>
<path d="M100.613 121.363L100.725 124.7L102.225 124.813C104.513 125 106.875 124.55 107.7 123.725C108.638 122.788 108.638 120.388 107.7 119.225C107.063 118.438 106.613 118.325 103.725 118.175L100.5 118.063L100.613 121.363Z" fill="#FF7900"/>
<path d="M100.837 129.238C100.65 129.388 100.537 130.926 100.537 132.651V135.763H103.687C107.437 135.763 107.887 135.613 108.6 134.226C109.425 132.651 109.312 131.151 108.225 130.138C107.437 129.388 106.8 129.238 104.175 129.088C102.487 129.013 100.987 129.051 100.837 129.238Z" fill="#FF7900"/>
<path d="M127.012 124.551C126.075 127.251 125.287 129.613 125.287 129.801C125.287 129.988 126.9 130.138 128.85 130.138C130.8 130.138 132.412 130.063 132.412 129.988C132.412 129.763 128.962 119.863 128.85 119.713C128.812 119.676 127.987 121.813 127.012 124.551Z" fill="#FF7900"/>
<path d="M17.475 6.53802C11.925 7.88802 7.65 12.2755 6.45 17.938C5.85 20.7505 5.85 158.526 6.45 161.338C7.725 167.263 12.3 171.763 18.225 172.888C19.875 173.188 41.25 173.263 96.7875 173.188L173.1 173.076L173.212 96.763C173.287 41.0755 173.212 19.8505 172.875 18.2005C171.75 12.163 167.362 7.66302 161.362 6.42552C158.4 5.78801 20.0625 5.90051 17.475 6.53802ZM70.9125 40.288C72.2625 40.588 74.325 41.188 75.525 41.638C77.85 42.5005 82.0875 45.2005 82.65 46.1755C83.2125 47.0755 77.9625 54.688 76.275 55.363C74.5125 56.113 74.325 56.0755 71.55 54.238C67.5 51.5755 64.8375 50.8255 59.475 50.8255C55.7625 50.863 54.525 51.013 52.5375 51.7255C47.55 53.4505 42.3375 57.538 40.125 61.438C39.6375 62.3005 39.075 63.013 38.925 63.013C38.5125 63.013 38.8875 59.863 39.6375 56.863C40.5 53.263 42.3 50.338 45.6 47.0755C48.975 43.663 52.3125 41.788 57.075 40.5505C60.45 39.6505 67.3125 39.538 70.9125 40.288ZM54.525 55.1755C53.1 57.313 53.0625 60.2755 54.4125 61.7005C55.65 63.0505 58.6875 64.513 63.225 66.013C72.2625 68.9755 77.625 72.838 77.3625 76.288C77.175 78.5755 74.4375 83.4505 71.85 86.038C69.4875 88.4005 65.55 90.763 62.9625 91.363L61.9125 91.588L62.8125 89.9755C64.05 87.763 64.3875 85.1755 63.675 83.788C62.4 81.313 61.05 80.6005 53.175 78.013C46.725 75.8755 43.725 74.2255 41.7375 71.713C39.6375 69.0505 39.5625 68.338 41.025 65.188C43.2375 60.388 48.0375 56.0755 53.0625 54.313C55.6875 53.413 55.6875 53.413 54.525 55.1755ZM108.825 76.7755C114.937 78.763 116.887 86.8255 112.35 91.363C110.437 93.2755 108.225 94.0255 103.837 94.363L100.537 94.6255V99.0505V103.513H97.35H94.1625V89.8255V76.138H100.5C105.487 76.138 107.25 76.288 108.825 76.7755ZM134.025 89.563C136.837 96.913 139.162 103.101 139.162 103.251C139.162 103.701 133.725 103.551 133.05 103.026C132.712 102.801 132.037 101.413 131.55 100.026L130.687 97.438H125.475H120.262L119.4 100.026C118.912 101.413 118.237 102.801 117.9 103.026C117.225 103.551 111.787 103.701 111.787 103.213C111.787 103.063 114.112 96.913 116.925 89.563L122.1 76.138H125.475H128.85L134.025 89.563ZM143.475 82.438L146.475 88.5505L149.475 82.438L152.475 76.3255L155.962 76.213C157.837 76.1755 159.412 76.1755 159.412 76.288C159.412 76.363 157.237 80.1505 154.537 84.7255L149.662 93.0505V98.263V103.513H146.475H143.287V98.3005V93.088L138.412 84.763C135.75 80.2255 133.537 76.4005 133.537 76.288C133.537 76.1755 135.112 76.1755 137.025 76.213L140.475 76.3255L143.475 82.438ZM78.225 86.0005C76.7625 93.313 71.7 99.9505 65.25 103.063C60.375 105.426 58.05 105.913 52.1625 105.913C48.15 105.876 46.4625 105.726 44.1 105.051C40.05 103.963 35.475 101.638 33 99.4255L30.975 97.6255L33.825 93.913C35.3625 91.888 37.125 89.9005 37.6875 89.488C39.3375 88.2505 41.0625 88.513 44.2125 90.538C50.5125 94.6255 55.575 95.713 62.0625 94.3255C67.875 93.088 74.325 88.438 77.2875 83.3005C78.45 81.2755 78.6 81.1255 78.7125 81.988C78.7875 82.513 78.5625 84.313 78.225 86.0005ZM39.1875 113.451C41.6625 113.976 44.4375 115.288 45.3375 116.376C45.7125 116.788 45.5625 117.238 44.6625 118.476C44.025 119.338 43.2375 120.163 42.9375 120.276C42.6375 120.388 41.4 120.051 40.2 119.488C37.8 118.438 34.3875 118.176 32.4 118.926C30.9 119.488 29.325 121.063 28.5 122.826C27.5625 124.888 27.5625 129.388 28.5 131.451C30.225 135.201 34.1625 136.926 38.4 135.726C39.7875 135.351 39.7875 135.351 39.7875 133.326V131.263H38.1375C36.075 131.263 35.5875 130.701 35.7375 128.376L35.85 126.576L40.65 126.463L45.4125 126.351V132.388V138.388L43.6125 139.288C39.5625 141.351 33.075 141.576 29.2125 139.813C23.325 137.113 20.2125 131.038 21.3375 124.438C22.1625 119.713 24.6375 116.413 28.8 114.501C32.2125 112.926 35.25 112.626 39.1875 113.451ZM80.8875 113.301C83.7375 113.826 87.0375 115.588 88.7625 117.501C93.8625 123.126 93.3 132.763 87.6375 137.751C87.1875 138.126 85.7625 138.988 84.4125 139.626C82.125 140.751 81.7125 140.826 78.0375 140.826C74.325 140.826 73.9125 140.751 71.5875 139.588C61.35 134.563 61.3125 119.188 71.475 114.538C74.85 113.001 77.3625 112.663 80.8875 113.301ZM54.7875 124.513V135.763H59.85H64.9125V138.201V140.638H56.6625H48.4125V126.951V113.263H51.6H54.7875V124.513ZM110.7 114.426C113.512 115.738 114.525 117.238 114.712 120.201C114.862 122.863 114.075 124.476 111.937 125.713L110.587 126.501L112.125 127.251C117.15 129.613 116.437 136.663 110.887 139.626C109.462 140.376 108.712 140.451 101.775 140.563L94.1625 140.676V126.951V113.188L101.4 113.338C108.225 113.451 108.712 113.526 110.7 114.426ZM137.325 126.913C140.175 134.301 142.537 140.451 142.537 140.526C142.537 140.563 141.225 140.638 139.575 140.638C136.125 140.638 135.975 140.526 134.812 137.113L134.025 134.826L128.812 134.713L123.562 134.601L122.887 136.776C121.725 140.526 121.612 140.638 118.162 140.638C116.512 140.638 115.162 140.488 115.162 140.338C115.162 140.001 125.175 114.163 125.512 113.601C125.625 113.376 127.162 113.301 128.925 113.338L132.112 113.451L137.325 126.913ZM150.112 124.401L150.225 135.576L155.212 135.688L160.162 135.801V138.201V140.638H151.912H143.662V126.951V113.263H146.85H150.037L150.112 124.401Z" fill="#FF7900"/>
</svg>
