<svg width="180" height="180" viewBox="0 0 180 180" fill="none" xmlns="http://www.w3.org/2000/svg">
<path d="M12.3506 0.579224C6.3771 2.03244 1.7759 6.75539 0.484337 12.8508C-0.161446 15.8784 -0.161446 164.187 0.484337 167.215C1.85662 173.593 6.78071 178.437 13.1578 179.648C14.9337 179.971 37.9397 180.052 97.7149 179.971L179.85 179.85L179.971 97.7026C180.052 37.7574 179.971 14.9095 179.608 13.1334C178.397 6.63428 173.675 1.79024 167.217 0.458115C164.029 -0.228134 15.1355 -0.107025 12.3506 0.579224ZM69.8656 36.9097C71.3186 37.2326 73.5384 37.8785 74.83 38.3629C77.3324 39.2913 81.8932 42.1978 82.4987 43.2473C83.1041 44.2161 77.4535 52.4106 75.6372 53.1373C73.7402 53.9446 73.5384 53.9042 70.5517 51.9262C66.1927 49.0602 63.327 48.2528 57.5553 48.2528C53.5596 48.2932 52.2276 48.4547 50.0885 49.2216C44.7204 51.0785 39.1102 55.4785 36.7289 59.6767C36.2042 60.6052 35.5987 61.3722 35.4373 61.3722C34.9933 61.3722 35.3969 57.9813 36.2042 54.7519C37.1325 50.8767 39.0698 47.7281 42.6216 44.2161C46.2541 40.5427 49.8463 38.5243 54.9722 37.1922C58.6047 36.2234 65.9909 36.1023 69.8656 36.9097ZM52.2276 52.9354C50.6939 55.2363 50.6535 58.4254 52.1065 59.9593C53.4385 61.4125 56.7077 62.9868 61.5915 64.6015C71.3186 67.7905 77.0902 71.9484 76.8077 75.6621C76.6059 78.1245 73.6595 83.3723 70.8746 86.1576C68.3318 88.7007 64.0939 91.2439 61.3089 91.8897L60.1788 92.1319L61.1475 90.3961C62.4794 88.0145 62.8427 85.2291 62.0758 83.7356C60.7035 81.0713 59.2505 80.3044 50.7746 77.519C43.8325 75.2181 40.6035 73.4419 38.4644 70.7373C36.2042 67.8713 36.1234 67.1043 37.6975 63.7134C40.0788 58.5464 45.2451 53.9042 50.6535 52.007C53.4788 51.0382 53.4788 51.0382 52.2276 52.9354ZM110.671 76.1869C117.25 78.3264 119.349 87.0053 114.465 91.8897C112.406 93.9484 110.025 94.7558 105.303 95.1191L101.751 95.4017V100.165V104.969H98.3203H94.8896V90.2347V75.5007H101.711C107.079 75.5007 108.976 75.6621 110.671 76.1869ZM137.794 89.9521C140.821 97.8641 143.323 104.525 143.323 104.686C143.323 105.171 137.471 105.009 136.744 104.444C136.381 104.202 135.655 102.708 135.13 101.215L134.202 98.4292H128.591H122.981L122.053 101.215C121.528 102.708 120.802 104.202 120.438 104.444C119.712 105.009 113.859 105.171 113.859 104.646C113.859 104.484 116.362 97.8641 119.389 89.9521L124.959 75.5007H128.591H132.224L137.794 89.9521ZM147.965 82.2823L151.194 88.8622L154.423 82.2823L157.652 75.7025L161.405 75.5814C163.423 75.541 165.118 75.541 165.118 75.6621C165.118 75.7429 162.777 79.8199 159.871 84.7447L154.624 93.7063V99.3173V104.969H151.194H147.763V99.3577V93.7466L142.516 84.7851C139.65 79.9007 137.269 75.7832 137.269 75.6621C137.269 75.541 138.964 75.541 141.023 75.5814L144.736 75.7025L147.965 82.2823ZM77.736 86.1172C76.1619 93.9888 70.7131 101.134 63.771 104.484C58.524 107.027 56.0216 107.552 49.6849 107.552C45.3662 107.512 43.5499 107.35 41.0072 106.624C36.6481 105.453 31.724 102.95 29.0602 100.569L26.8807 98.6311L29.9481 94.6347C31.603 92.4549 33.5 90.3154 34.1054 89.8714C35.8813 88.5393 37.7379 88.8218 41.1282 91.0017C47.909 95.4017 53.3577 96.5723 60.3403 95.0787C66.5963 93.7466 73.5384 88.7411 76.727 83.2108C77.9782 81.031 78.1396 80.8695 78.2607 81.7979C78.3414 82.3631 78.0993 84.3007 77.736 86.1172ZM35.7198 115.666C38.3837 116.231 41.3704 117.644 42.3391 118.815C42.7427 119.259 42.5813 119.743 41.6126 121.075C40.9264 122.004 40.0788 122.892 39.756 123.013C39.4331 123.134 38.1011 122.771 36.8096 122.165C34.2265 121.035 30.5536 120.752 28.4144 121.56C26.8 122.165 25.1048 123.861 24.2168 125.758C23.2078 127.978 23.2078 132.822 24.2168 135.042C26.0735 139.079 30.3114 140.936 34.8722 139.644C36.3656 139.24 36.3656 139.24 36.3656 137.061V134.84H34.5897C32.3698 134.84 31.8451 134.235 32.0066 131.732L32.1277 129.795L37.2939 129.673L42.4198 129.552V136.051V142.51L40.4825 143.479C36.1234 145.699 29.1409 145.941 24.9837 144.044C18.647 141.138 15.297 134.598 16.5078 127.494C17.3958 122.407 20.0596 118.855 24.5397 116.796C28.2126 115.101 31.4819 114.778 35.7198 115.666ZM80.6017 115.505C83.6691 116.07 87.2209 117.967 89.0776 120.026C94.5667 126.081 93.9613 136.455 87.8667 141.824C87.3824 142.228 85.8487 143.156 84.3957 143.842C81.9336 145.053 81.4896 145.134 77.5342 145.134C73.5384 145.134 73.0945 145.053 70.5921 143.802C59.5734 138.393 59.533 121.842 70.471 116.837C74.1035 115.182 76.8077 114.818 80.6017 115.505ZM52.5102 127.574V139.684H57.9589H63.4077V142.308V144.932H54.5282H45.6487V130.198V115.464H49.0794H52.5102V127.574ZM112.689 116.716C115.716 118.128 116.806 119.743 117.008 122.932C117.169 125.798 116.322 127.534 114.021 128.866L112.568 129.714L114.223 130.521C119.631 133.064 118.864 140.653 112.891 143.842C111.357 144.65 110.55 144.73 103.083 144.851L94.8896 144.973V130.198V115.383L102.679 115.545C110.025 115.666 110.55 115.747 112.689 116.716ZM141.346 130.158C144.413 138.11 146.956 144.73 146.956 144.811C146.956 144.851 145.543 144.932 143.767 144.932C140.054 144.932 139.893 144.811 138.641 141.138L137.794 138.675L132.184 138.554L126.533 138.433L125.806 140.774C124.555 144.811 124.434 144.932 120.721 144.932C118.945 144.932 117.492 144.771 117.492 144.609C117.492 144.246 128.268 116.433 128.632 115.827C128.753 115.585 130.408 115.505 132.305 115.545L135.735 115.666L141.346 130.158ZM155.109 127.453L155.23 139.483L160.598 139.604L165.926 139.725V142.308V144.932H157.046H148.167V130.198V115.464H151.597H155.028L155.109 127.453Z" fill="#FF7900"/>
</svg>
