<svg width="168" height="168" viewBox="0 0 168 168" fill="none" xmlns="http://www.w3.org/2000/svg">
<path d="M11.475 0.538025C5.925 1.88802 1.65 6.27551 0.45 11.938C-0.15 14.7505 -0.15 152.526 0.45 155.338C1.725 161.263 6.3 165.763 12.225 166.888C13.875 167.188 35.25 167.263 90.7875 167.188L167.1 167.076L167.212 90.763C167.287 35.0755 167.212 13.8505 166.875 12.2005C165.75 6.16301 161.362 1.66302 155.362 0.425522C152.4 -0.21199 14.0625 -0.0994873 11.475 0.538025ZM64.9125 34.288C66.2625 34.588 68.325 35.188 69.525 35.638C71.85 36.5005 76.0875 39.2005 76.65 40.1755C77.2125 41.0755 71.9625 48.688 70.275 49.363C68.5125 50.113 68.325 50.0755 65.55 48.238C61.5 45.5755 58.8375 44.8255 53.475 44.8255C49.7625 44.863 48.525 45.013 46.5375 45.7255C41.55 47.4505 36.3375 51.538 34.125 55.438C33.6375 56.3005 33.075 57.013 32.925 57.013C32.5125 57.013 32.8875 53.863 33.6375 50.863C34.5 47.263 36.3 44.338 39.6 41.0755C42.975 37.663 46.3125 35.788 51.075 34.5505C54.45 33.6505 61.3125 33.538 64.9125 34.288ZM48.525 49.1755C47.1 51.313 47.0625 54.2755 48.4125 55.7005C49.65 57.0505 52.6875 58.513 57.225 60.013C66.2625 62.9755 71.625 66.838 71.3625 70.288C71.175 72.5755 68.4375 77.4505 65.85 80.038C63.4875 82.4005 59.55 84.763 56.9625 85.363L55.9125 85.588L56.8125 83.9755C58.05 81.763 58.3875 79.1755 57.675 77.788C56.4 75.313 55.05 74.6005 47.175 72.013C40.725 69.8755 37.725 68.2255 35.7375 65.713C33.6375 63.0505 33.5625 62.338 35.025 59.188C37.2375 54.388 42.0375 50.0755 47.0625 48.313C49.6875 47.413 49.6875 47.413 48.525 49.1755ZM102.825 70.7755C108.937 72.763 110.887 80.8255 106.35 85.363C104.437 87.2755 102.225 88.0255 97.8375 88.363L94.5375 88.6255V93.0505V97.513H91.35H88.1625V83.8255V70.138H94.5C99.4875 70.138 101.25 70.288 102.825 70.7755ZM128.025 83.563C130.837 90.913 133.162 97.1005 133.162 97.2505C133.162 97.7005 127.725 97.5505 127.05 97.0255C126.712 96.8005 126.037 95.413 125.55 94.0255L124.687 91.438H119.475H114.262L113.4 94.0255C112.912 95.413 112.237 96.8005 111.9 97.0255C111.225 97.5505 105.787 97.7005 105.787 97.213C105.787 97.063 108.112 90.913 110.925 83.563L116.1 70.138H119.475H122.85L128.025 83.563ZM137.475 76.438L140.475 82.5505L143.475 76.438L146.475 70.3255L149.962 70.213C151.837 70.1755 153.412 70.1755 153.412 70.288C153.412 70.363 151.237 74.1505 148.537 78.7255L143.662 87.0505V92.263V97.513H140.475H137.287V92.3005V87.088L132.412 78.763C129.75 74.2255 127.537 70.4005 127.537 70.288C127.537 70.1755 129.112 70.1755 131.025 70.213L134.475 70.3255L137.475 76.438ZM72.225 80.0005C70.7625 87.313 65.7 93.9505 59.25 97.063C54.375 99.4255 52.05 99.913 46.1625 99.913C42.15 99.8755 40.4625 99.7255 38.1 99.0505C34.05 97.963 29.475 95.638 27 93.4255L24.975 91.6255L27.825 87.913C29.3625 85.888 31.125 83.9005 31.6875 83.488C33.3375 82.2505 35.0625 82.513 38.2125 84.538C44.5125 88.6255 49.575 89.713 56.0625 88.3255C61.875 87.088 68.325 82.438 71.2875 77.3005C72.45 75.2755 72.6 75.1255 72.7125 75.988C72.7875 76.513 72.5625 78.313 72.225 80.0005ZM33.1875 107.451C35.6625 107.976 38.4375 109.288 39.3375 110.376C39.7125 110.788 39.5625 111.238 38.6625 112.476C38.025 113.338 37.2375 114.163 36.9375 114.276C36.6375 114.388 35.4 114.051 34.2 113.488C31.8 112.438 28.3875 112.176 26.4 112.926C24.9 113.488 23.325 115.063 22.5 116.826C21.5625 118.888 21.5625 123.388 22.5 125.451C24.225 129.201 28.1625 130.926 32.4 129.726C33.7875 129.351 33.7875 129.351 33.7875 127.326V125.263H32.1375C30.075 125.263 29.5875 124.701 29.7375 122.376L29.85 120.576L34.65 120.463L39.4125 120.351V126.388V132.388L37.6125 133.288C33.5625 135.351 27.075 135.576 23.2125 133.813C17.325 131.113 14.2125 125.038 15.3375 118.438C16.1625 113.713 18.6375 110.413 22.8 108.501C26.2125 106.926 29.25 106.626 33.1875 107.451ZM74.8875 107.301C77.7375 107.826 81.0375 109.588 82.7625 111.501C87.8625 117.126 87.3 126.763 81.6375 131.751C81.1875 132.126 79.7625 132.988 78.4125 133.626C76.125 134.751 75.7125 134.826 72.0375 134.826C68.325 134.826 67.9125 134.751 65.5875 133.588C55.35 128.563 55.3125 113.188 65.475 108.538C68.85 107.001 71.3625 106.663 74.8875 107.301ZM48.7875 118.513V129.763H53.85H58.9125V132.201V134.638H50.6625H42.4125V120.951V107.263H45.6H48.7875V118.513ZM104.7 108.426C107.512 109.738 108.525 111.238 108.712 114.201C108.862 116.863 108.075 118.476 105.937 119.713L104.587 120.501L106.125 121.251C111.15 123.613 110.437 130.663 104.887 133.626C103.462 134.376 102.712 134.451 95.775 134.563L88.1625 134.676V120.951V107.188L95.4 107.338C102.225 107.451 102.712 107.526 104.7 108.426ZM131.325 120.913C134.175 128.301 136.537 134.451 136.537 134.526C136.537 134.563 135.225 134.638 133.575 134.638C130.125 134.638 129.975 134.526 128.812 131.113L128.025 128.826L122.812 128.713L117.562 128.601L116.887 130.776C115.725 134.526 115.612 134.638 112.162 134.638C110.512 134.638 109.162 134.488 109.162 134.338C109.162 134.001 119.175 108.163 119.512 107.601C119.625 107.376 121.162 107.301 122.925 107.338L126.112 107.451L131.325 120.913ZM144.112 118.401L144.225 129.576L149.212 129.688L154.162 129.801V132.201V134.638H145.912H137.662V120.951V107.263H140.85H144.037L144.112 118.401Z" fill="#FF7900"/>
<path d="M94.6125 79.2131L94.725 83.4131L97.35 83.3006C100.463 83.1881 101.175 82.8506 101.888 81.2006C102.9 78.8006 102.3 76.4756 100.5 75.5381C99.9 75.2381 98.4 75.0131 96.975 75.0131H94.5L94.6125 79.2131Z" fill="#FF7900"/>
<path d="M117.675 81.3131C116.7 84.1256 115.912 86.5631 115.912 86.7131C115.912 86.9006 117.525 87.0131 119.512 87.0131H123.112L122.887 86.1131C122.775 85.5881 121.95 83.1506 121.05 80.6756L119.475 76.1756L117.675 81.3131Z" fill="#FF7900"/>
<path d="M68.0995 113.338C63.9745 115.701 63.187 123.988 66.7495 127.551C69.5245 130.326 74.2495 130.476 77.062 127.926C78.7495 126.388 79.6495 123.988 79.6495 120.951C79.6495 117.651 78.6745 115.288 76.687 113.788C75.487 112.851 74.9245 112.701 72.4495 112.588C70.0495 112.513 69.3745 112.626 68.0995 113.338Z" fill="#FF7900"/>
<path d="M94.6125 115.363L94.725 118.7L96.225 118.813C98.5125 119 100.875 118.55 101.7 117.725C102.638 116.788 102.638 114.388 101.7 113.225C101.063 112.438 100.613 112.325 97.725 112.175L94.5 112.063L94.6125 115.363Z" fill="#FF7900"/>
<path d="M94.8371 123.238C94.6496 123.388 94.5371 124.926 94.5371 126.651V129.763H97.6871C101.437 129.763 101.887 129.613 102.6 128.226C103.425 126.651 103.312 125.151 102.225 124.138C101.437 123.388 100.8 123.238 98.1746 123.088C96.4871 123.013 94.9871 123.051 94.8371 123.238Z" fill="#FF7900"/>
<path d="M121.012 118.551C120.075 121.251 119.287 123.613 119.287 123.801C119.287 123.988 120.9 124.138 122.85 124.138C124.8 124.138 126.412 124.063 126.412 123.988C126.412 123.763 122.962 113.863 122.85 113.713C122.812 113.676 121.987 115.813 121.012 118.551Z" fill="#FF7900"/>
</svg>
