<svg width="180" height="180" viewBox="0 0 180 180" fill="none" xmlns="http://www.w3.org/2000/svg">
<circle cx="90" cy="90" r="90" fill="#FFBC02"/>
<circle cx="90" cy="90" r="80" fill="#233043"/>
<path d="M79.0546 45.8918H84.377V40.6265H79.0546V45.8918ZM134.062 100.888H139.362V95.5422H134.062V100.888ZM111.908 117.571H106.574V122.925H111.908V117.571ZM139.383 134.01H134.057V139.32H139.383V134.01ZM84.5727 122.923H89.91V117.556H84.5727V122.923ZM111.908 84.553H106.535V89.9405H111.908V84.553ZM57.0623 89.871H62.3941V84.5456H57.0623V89.871ZM67.9867 89.9405H73.4955V88.6214V76.6588C73.5216 74.5109 74.541 73.5057 76.6953 73.4756H88.5608H89.9809V69.4617C89.9809 68.1576 89.9809 66.8855 90.0107 65.602C90.0107 63.535 91.0096 62.5653 93.1229 62.5296C95.2772 62.4939 97.4203 62.5296 99.6063 62.5296H100.924V51.5668H89.9809V55.682C89.9809 56.8734 90.0107 58.1212 89.9809 59.3351C89.9809 61.2048 88.8944 62.4939 87.2432 62.4939C85.6294 62.4939 84.4888 61.2443 84.4888 59.3257C84.4553 57.1628 84.4553 55.0544 84.4553 52.9366V51.5104H82.8712C72.2879 51.4202 73.5737 52.6735 73.4955 41.9944V38.099C73.5421 36.0413 74.5167 35.0191 76.5443 35.0003H86.9153C88.9689 35.0191 89.9809 36.0752 89.9809 38.178C90.0107 40.7674 89.9809 43.293 89.9809 45.9839H91.3618H103.335C105.404 46.0234 106.461 47.0794 106.487 49.1521C106.5 54.3667 106.5 59.632 106.487 64.8691C106.461 66.9155 105.404 68.0035 103.335 68.0167H95.4617V75.3246C95.4356 78.1414 94.6193 78.9607 91.8351 78.9607H80.4188H79.0863V89.871H101.013V87.5653C101.013 85.6749 100.993 83.792 101.013 81.8885C101.034 80.0976 102.105 79.0152 103.868 78.9607H114.551C116.396 79.0152 117.482 80.0977 117.482 81.9806C117.529 85.4757 117.529 89.0066 117.482 92.5093C117.482 94.3114 116.354 95.4501 114.524 95.5008C111.908 95.5403 109.29 95.5008 106.574 95.5008V111.861H111.977V105.697V104.028C112.018 102.021 113.065 100.98 115.022 100.98H127.042H128.494V98.453C128.494 96.6209 128.477 94.7587 128.494 92.9077C128.511 91.0756 129.554 90.0532 131.364 90.0138C133.582 89.9762 135.829 89.9762 138.056 89.9762H139.383V78.9607H138.075H125.73C124.241 78.9607 123.093 77.8991 122.976 76.4371C122.86 75.1743 123.744 73.9303 124.972 73.6164C125.302 73.5056 125.615 73.5057 125.932 73.5057C131.282 73.4756 136.656 73.4756 142.018 73.5057C143.852 73.5057 144.977 74.6068 144.977 76.4371C145.007 85.4626 145.007 94.441 144.977 103.446C144.977 105.421 143.852 106.469 141.856 106.469H119.057H117.607V111.902C118.015 111.902 118.438 111.956 118.85 111.956C122.761 111.956 126.701 111.941 130.609 111.956C132.957 111.956 133.975 112.988 133.975 115.328V127.074V128.468H141.575C144.008 128.468 144.977 129.434 144.977 131.932C145.007 135.143 145.007 138.403 144.977 141.622C144.977 143.934 143.945 144.977 141.688 144.977H131.929C129.48 144.977 128.494 144.013 128.494 141.572V119.035V117.556H117.499V124.654C117.499 127.61 116.641 128.468 113.719 128.468H104.314C101.997 128.468 101.013 127.474 101.013 125.174V97.0737V95.5761H79.0714V100.98H80.3591H92.3402C94.4069 100.98 95.4356 102.003 95.4356 104.072C95.4617 111.158 95.4617 118.22 95.4356 125.3C95.4356 127.442 94.4069 128.468 92.2656 128.468H82.178C80.0349 128.468 78.9856 127.386 78.9856 125.266V115.196C78.9856 113.037 80.0349 111.956 82.1519 111.956C84.733 111.941 87.3178 111.956 89.9361 111.956V106.469H88.7117H77.0587C74.336 106.469 73.4955 105.59 73.4955 102.824V95.5008H72.1239H54.9546C52.4872 95.5008 51.4883 94.5199 51.4883 91.9624V82.1496C51.4976 80.0976 52.5766 78.9607 54.5968 78.9607H64.9397C66.8965 78.9607 67.9625 80.0751 67.9867 82.0519C68.0109 84.6507 67.9867 87.1932 67.9867 89.9405Z" fill="#917621"/>
<path d="M62.4352 117.556H40.564V139.333H62.4352V117.556ZM35.0049 128.498C35.0049 124.952 34.9863 121.361 35.0217 117.855C35.0217 114.262 37.2729 111.956 40.7858 111.956C47.9085 111.941 55.0572 111.941 62.1948 111.956C65.7319 111.956 67.9626 114.241 67.9868 117.834C68.011 124.935 68.011 132.031 67.9868 139.126C67.9626 142.608 65.7319 144.933 62.247 144.976C55.1019 145.008 47.9084 145.008 40.7727 144.976C37.2338 144.933 35.0217 142.608 35.0217 139.004C35.0049 135.513 35.0049 132.017 35.0049 128.498Z" fill="#917621"/>
<path d="M139.384 40.6264H117.568V62.4206H139.384V40.6264ZM128.463 35.0002H139.026C142.757 35.019 144.978 37.2947 144.978 41.0755C145.008 48.0546 145.008 54.983 144.978 61.9226C144.978 65.6715 142.721 68.0166 139.003 68.0166H117.876C114.279 68.0034 112.019 65.6883 111.978 62.1011V40.912C112.019 37.304 114.229 35.0435 117.79 35.0002H128.463Z" fill="#917621"/>
<path d="M40.5423 62.3962H62.4358V40.6264H40.5423V62.3962ZM51.4295 35.0002H62.1414C65.7642 35.0435 67.9875 37.2815 67.9875 40.9402C67.9875 47.9963 68.0117 55.0543 67.9875 62.1255C67.9633 65.6714 65.6934 68.0034 62.16 68.0166H40.7865C37.296 68.0034 35.0223 65.6508 35.0223 62.1011C35.0056 55.0543 35.0056 47.9963 35.0223 40.9402C35.0223 37.2815 37.2344 35.0435 40.8629 35.0002H51.4295Z" fill="#917621"/>
<path d="M59.7926 106.465H54.5186C52.7239 106.452 51.4902 105.319 51.4902 103.686C51.4996 102.148 52.7239 100.983 54.4403 100.983H65.087C66.8239 101.012 67.9868 102.148 67.9868 103.721C67.9644 105.332 66.7885 106.452 65.0479 106.465H59.7926Z" fill="#917621"/>
<path d="M144.978 117.555C144.978 118.38 145.008 119.224 144.978 120.032C144.926 121.752 143.774 122.98 142.237 122.98C140.731 122.98 139.525 121.819 139.462 120.173C139.423 118.345 139.423 116.531 139.462 114.722C139.55 113.094 140.781 111.942 142.289 111.959C143.795 112.004 144.926 113.179 144.978 114.825C145.008 115.727 144.978 116.682 144.978 117.555Z" fill="#917621"/>
<path d="M87.243 139.333C87.243 138.476 87.2038 137.615 87.243 136.73C87.3268 135.123 88.5046 133.956 90.0104 133.97C91.4696 133.992 92.666 135.073 92.7425 136.644C92.8114 138.515 92.8114 140.381 92.7425 142.245C92.666 143.876 91.4361 145.043 89.9116 144.976C88.404 144.914 87.3175 143.711 87.243 142.093C87.2038 141.146 87.243 140.268 87.243 139.333Z" fill="#917621"/>
<path d="M120.232 139.494C120.232 140.381 120.258 141.255 120.232 142.117C120.144 143.816 118.951 145.043 117.425 144.972C115.893 144.91 114.754 143.709 114.738 142.093C114.706 140.343 114.706 138.583 114.738 136.846C114.754 135.148 115.936 133.954 117.529 133.971C119.007 133.992 120.144 135.123 120.232 136.784C120.258 137.671 120.232 138.583 120.232 139.494Z" fill="#917621"/>
<path d="M101.071 35.0013C101.964 35.0013 102.864 35.0013 103.794 35.022C105.301 35.1028 106.399 36.1532 106.462 37.6208C106.555 39.0997 105.475 40.4264 103.941 40.4546C101.964 40.5861 99.9266 40.5861 97.9661 40.4546C96.4808 40.4264 95.4148 39.0659 95.4614 37.6753C95.536 36.2303 96.6411 35.1028 98.1469 35.022C99.1085 35.0013 100.1 35.0013 101.071 35.0013Z" fill="#917621"/>
<path d="M40.5423 106.465C39.6086 106.465 38.6544 106.465 37.7282 106.452C36.1479 106.394 35.0428 105.264 35.0223 103.722C34.9869 102.256 36.1144 101.027 37.6574 100.984C39.5564 100.957 41.4927 100.942 43.4103 101.027C44.8807 101.055 45.9821 102.275 46.0175 103.686C46.0175 105.169 44.8807 106.345 43.3395 106.452C42.4133 106.484 41.4741 106.465 40.5423 106.465Z" fill="#917621"/>
<path d="M40.5646 87.2353C41.4535 87.2353 42.3574 87.2353 43.2668 87.2766C44.836 87.3123 46.0548 88.5319 46.0175 90.0558C45.9821 91.5159 44.7931 92.6735 43.2668 92.7092C41.4144 92.7656 39.6067 92.7656 37.7543 92.7092C36.187 92.6472 35.0428 91.5159 35.0223 90.0558C34.9869 88.4774 36.1404 87.3123 37.7543 87.2766C38.6563 87.2353 39.6123 87.2353 40.5646 87.2353Z" fill="#917621"/>
<path d="M40.4857 78.9603C39.6061 78.9603 38.6836 79.0167 37.7798 78.9603C36.1473 78.9039 35.0049 77.7577 35.0217 76.2111C35.0217 74.7341 36.1473 73.5634 37.6754 73.5071C39.5744 73.4526 41.4529 73.4526 43.3389 73.5071C44.8521 73.5634 46.0243 74.7943 46.0243 76.2299C46.0243 77.6975 44.8354 78.9039 43.3054 78.9603C42.3568 79.0167 41.4268 78.9603 40.4857 78.9603Z" fill="#917621"/>
<path d="M106.461 139.531C106.488 140.448 106.512 141.35 106.461 142.244C106.406 143.781 105.232 144.933 103.729 144.975C102.287 144.975 101.07 143.862 101.012 142.314C100.975 140.44 100.975 138.49 101.012 136.609C101.07 135.032 102.287 133.957 103.793 133.97C105.187 133.993 106.387 135.073 106.461 136.569C106.536 137.545 106.461 138.514 106.461 139.531Z" fill="#917621"/>
<path d="M73.5217 139.389C73.5217 138.44 73.4751 137.483 73.5217 136.535C73.613 135.073 74.7796 133.992 76.2183 133.973C77.657 133.956 78.9131 135.02 78.969 136.499C79.0118 138.476 79.0118 140.447 78.969 142.407C78.9131 143.888 77.6179 144.976 76.2183 144.976C74.8001 144.936 73.613 143.863 73.5217 142.356C73.4751 141.405 73.5217 140.396 73.5217 139.389Z" fill="#917621"/>
<path d="M73.5212 62.4712C73.5212 61.5335 73.4952 60.5545 73.5212 59.5943C73.6126 58.1379 74.7289 57.0105 76.1862 56.9823C77.6752 56.9729 78.9126 58.0966 78.9685 59.5943C79.0114 61.5335 79.0114 63.4747 78.9685 65.4027C78.9126 66.8872 77.6752 68.0146 76.2682 68.0146C74.7997 68.0146 73.6126 66.8872 73.5436 65.4027C73.4747 64.4274 73.5212 63.4578 73.5212 62.4712Z" fill="#917621"/>
<path d="M51.4893 122.993C52.4472 122.993 53.3566 122.954 54.2996 122.993C55.824 123.074 56.9105 124.053 56.9552 125.596C57.0241 127.531 57.0241 129.416 56.9552 131.372C56.9105 132.872 55.7867 133.905 54.2642 133.954C52.4472 133.988 50.5966 133.988 48.7572 133.954C47.1285 133.905 46.055 132.84 46.0159 131.175C46.0159 129.36 45.9823 127.531 46.0159 125.737C46.055 124.072 47.1285 123.074 48.7759 122.993C49.6965 122.954 50.5966 122.993 51.4893 122.993Z" fill="#917621"/>
<path d="M128.463 56.9791C127.569 56.9791 126.661 56.9998 125.731 56.9791C124.138 56.902 123.033 55.8704 122.977 54.2205C122.928 52.4166 122.928 50.5919 122.977 48.7974C123.033 47.093 124.138 46.0369 125.839 46.0219C127.632 45.9824 129.356 45.9824 131.143 46.0219C132.82 46.0369 133.938 47.1174 133.976 48.8425C133.994 50.5919 133.976 52.3696 133.976 54.1397C133.938 55.846 132.846 56.9302 131.182 56.9791C130.234 56.9998 129.356 56.9791 128.463 56.9791Z" fill="#917621"/>
<path d="M51.489 56.9791C50.5963 56.9791 49.6962 56.9998 48.7756 56.9791C47.1282 56.902 46.0548 55.893 46.0156 54.2205V48.7974C46.0548 47.155 47.1282 46.0369 48.757 46.0219C50.5963 45.9617 52.4469 45.9617 54.2639 46.0219C55.8424 46.0369 56.9102 47.093 56.9549 48.7128C57.0239 50.5656 57.0239 52.4166 56.9549 54.2844C56.9102 55.9381 55.8424 56.9302 54.1782 56.9791C53.2818 56.9998 52.3817 56.9791 51.489 56.9791Z" fill="#917621"/>
<ellipse cx="90.0003" cy="90.0003" rx="45.8333" ry="45.8333" fill="#233043"/>
<circle cx="90" cy="90" r="41.25" fill="#FFBC02"/>
<path d="M89.9772 123.74C71.3579 123.74 56.2602 108.649 56.2602 90.0311C56.2602 71.4022 71.3579 56.313 89.9772 56.313C108.625 56.313 123.711 71.4022 123.711 90.0311C123.711 108.649 108.625 123.74 89.9772 123.74ZM89.9772 53.3337C69.7429 53.3337 53.333 69.7771 53.333 90.0311C53.333 110.278 69.7429 126.667 89.9772 126.667C110.255 126.667 126.666 110.278 126.666 90.0311C126.666 69.7771 110.255 53.3337 89.9772 53.3337Z" fill="#1D1D1B"/>
<path d="M75.3577 88.3333C72.7725 87.6851 70.4323 90.7392 69.1406 93.0498C69.5967 89.8855 73.5015 84.7001 75.3577 88.3333Z" fill="#1D1D1B"/>
<path d="M69.5938 88.3877C70.4891 85.3691 72.5602 84.2371 73.6855 85.1188C72.2088 85.6175 71.0667 86.4992 69.5938 88.3877Z" fill="#1D1D1B"/>
<path d="M76.3107 93.2298C77.6584 92.0848 77.4958 90.3737 75.4097 89.8077C73.8564 89.4136 70.5498 92.2323 70.1572 95.335C71.4993 93.6277 75.3611 90.4578 76.3107 93.2298Z" fill="#1D1D1B"/>
<path d="M97.3609 101.23C97.6057 97.2648 93.7121 95.41 92.9981 91.3397C92.2541 87.2602 99.0319 80.7878 94.7477 74.1454C102.782 80.6028 96.4749 84.4471 100.561 89.851C98.989 89.3728 97.4263 87.9663 96.9739 87.2265C94.6916 90.2096 102.49 94.3042 97.3609 101.23Z" fill="#1D1D1B"/>
<path d="M84.3964 69.252C85.3366 69.252 86.9872 69.9432 86.2918 70.6941C84.1029 72.7413 81.0785 71.9138 78.6729 74.0396C79.6598 71.402 84.0282 71.0004 84.3964 69.252Z" fill="#1D1D1B"/>
<path d="M81.6409 78.0163C81.368 78.0163 81.0801 77.6203 81.0334 77.0469C81.4072 78.0369 82.3512 77.5848 81.8073 76.1895C82.1662 76.2194 82.6839 76.2194 83.684 76.1895C82.6839 76.7461 82.1979 78.0163 81.6409 78.0163ZM91.6356 72.2014C92.602 71.1087 91.7067 69.7133 87.9065 69.2501C91.8637 71.2152 85.4728 71.6224 85.2298 74.9286C83.1587 75.7617 81.4465 74.4037 80.424 75.3284C79.4016 76.238 78.2632 75.6721 78.5903 74.5457C77.3641 75.2032 77.6221 76.8769 78.8165 77.3495C79.0408 77.4746 79.2296 77.6763 79.067 77.8351C77.7716 79.0605 77.1436 80.1252 78.5305 81.3394C79.2296 79.9627 79.6259 79.4733 80.4614 78.799C81.2297 79.3388 82.5718 78.9615 84.3961 77.002C84.5064 76.8769 84.6111 76.9273 84.5774 77.0469C83.1157 82.0417 79.4016 82.8337 78.2221 82.6077C78.9324 83.6631 83.6522 84.3673 84.2466 82.2397C85.5906 77.5288 90.1421 75.418 86.2074 75.4946C87.2673 74.2393 90.8281 73.0887 91.6356 72.2014Z" fill="#1D1D1B"/>
<path d="M93.6411 69.659C95.5552 70.8564 96.4207 71.6895 97.7179 73.167C97.9385 71.1459 96.7553 67.1765 95.1047 66.2089C94.3309 65.8372 93.2785 68.5849 93.6411 69.659Z" fill="#1D1D1B"/>
<path d="M63.0947 85.8984C64.3116 82.6781 67.3154 78.8003 72.2128 75.89C73.3399 72.9667 72.9736 71.0035 84.7571 66.5018C85.045 64.7235 84.974 62.6333 85.5217 62.6333C85.9777 62.6333 87.7273 63.4216 88.9853 65.2503C89.5255 65.1307 89.9498 65.0822 90.2713 65.0653C90.477 64.0454 91.206 61.266 92.1069 59.7903C92.9799 58.5014 94.5911 58.3389 96.7164 60.0966C98.9146 61.9048 100.447 62.6333 103.468 66.5018C106.023 67.5964 110.005 69.0833 113.448 73.2506C111.954 72.3036 110.253 71.9337 108.863 71.7469C111.668 74.2388 113.539 78.2567 112.095 84.2248C111.552 78.6602 107.485 76.3346 105.001 74.5993C106.339 79.2971 100.447 77.6534 98.6642 74.1491C99.266 74.334 99.8848 74.2929 100.246 74.0539C100.064 66.9239 96.6547 62.779 95.1911 61.5779C93.2771 59.9603 92.2172 63.7933 91.5985 66.7091C91.363 67.6394 90.5386 68.3249 89.5255 68.3099C89.7386 67.9588 89.9816 67.0341 90.034 66.7222C87.0544 66.9781 83.7066 68.7078 81.6972 69.6623C76.4466 71.9618 75.1437 73.1423 74.0129 77.1509C69.8613 78.8601 65.0948 83.6214 63.0947 85.8984Z" fill="#1D1D1B"/>
<path d="M89.1194 84.9027C89.7119 85.5639 93.1307 90.7904 89.1437 97.3618C90.2447 92.5052 87.1885 83.2234 83.8519 87.9661C86.1436 88.9561 86.8988 90.8035 86.2931 92.5948C85.3323 90.8465 83.0108 88.9673 80.6387 89.7761C79.4761 90.1534 77.947 90.1534 76.7807 88.4648C75.289 86.2439 77.7975 83.5708 73.5039 83.752C78.676 81.1164 77.2237 86.2439 79.6929 86.8771C82.6052 87.5346 82.9977 85.7414 83.9865 84.587C84.7548 83.5877 86.2931 82.8984 87.8465 83.8977C88.611 81.6226 87.5249 78.0137 89.6259 76.1252C90.4017 75.4397 92.9569 75.5443 94.2317 76.5418C92.3662 76.5287 90.226 78.7086 89.1194 84.9027Z" fill="#1D1D1B"/>
<path d="M77.2623 105.873C76.995 105.653 76.3127 104.767 76.3501 103.813C77.2623 104.401 78.4175 104.636 78.4175 104.636C78.4175 104.636 77.8605 105.596 77.2623 105.873ZM82.4662 100.122C83.0139 100.256 83.4457 100.654 83.9018 100.327C84.3953 99.946 83.8681 98.5787 83.5279 98.1117C83.9878 98.0463 85.7747 98.1995 85.7056 98.8701C85.485 100.538 84.427 101.147 81.8064 102.363C82.2756 101.956 82.1989 101.056 82.4662 100.122ZM72.1294 98.7393C72.3406 98.1995 73.3257 97.5457 73.7276 97.5233C73.5743 98.9803 74.15 101.037 74.15 101.037C74.15 101.037 72.1294 99.7237 72.1294 98.7393ZM65.4582 92.1679C64.5684 91.4581 63.0955 89.9488 62.9104 89.3697C63.0955 89.1531 63.8787 88.262 64.9011 88.0043C65.6152 87.8287 66.0769 88.2284 66.0115 88.4918C65.86 88.7029 65.2413 88.7029 65.0544 89.2446C64.7553 90.1543 65.7049 90.3766 65.86 90.7912C66.0115 91.0079 66.2619 91.6262 65.4582 92.1679ZM115.791 75.8347C118.406 85.0455 117.652 93.9518 114.938 99.2829C115.269 95.9542 112.318 91.1032 113.538 85.4116C107.985 90.7912 116.656 104.031 104.054 112.661C105.925 109.642 106.787 102.109 106.164 99.3725C106.787 99.6359 107.488 100.452 107.919 101.183C108.981 97.74 109.076 92.831 107.11 87.9202C107.787 87.9688 109.196 88.6412 109.833 89.2147C110.166 81.573 104.572 80.9808 103.499 78.9317C103.499 81.1284 106.164 83.0412 106.602 85.9327C104.762 85.0455 103.441 84.9857 102.489 85.0455C103.91 86.0952 107.045 92.1679 106.164 97.0731C104.762 95.9411 103.499 95.4144 102.132 95.3378C103.831 97.824 104.529 104.457 102.448 107.435C102.351 106.785 102.121 104.799 101.319 104.031C100.357 107.672 97.463 109.22 95.4816 109.712C97.9396 107.11 97.463 102.584 93.8573 101.323C90.5749 100.256 86.4626 102.442 84.7934 110.151C82.4662 110.836 75.4118 109.351 79.625 104.799C82.1989 105.653 88.6889 101.285 88.2515 98.2331C87.6533 93.9761 83.7822 92.5004 80.64 92.5359C76.9015 92.5901 74.3071 96.1634 71.1948 97.7082C68.5891 97.2692 67.7199 96.9218 66.3741 93.4493C66.2395 91.3348 68.4788 89.8517 68.4041 87.683C66.5853 88.023 66.1479 85.2808 62.5067 88.1612C62.2618 87.6624 62.7272 86.3866 62.7272 86.3866C61.3851 87.5859 61.1197 88.9943 61.1104 89.3398C61.7384 90.6063 62.673 91.7775 64.4525 92.9207C66.5498 98.6347 68.733 99.2343 71.0284 99.4491C71.3574 99.9609 73.0696 101.956 75.1819 102.277C74.8398 101.233 74.7389 98.1995 74.9538 97.4672C79.5502 92.8684 83.0139 95.6441 83.4457 96.8714C79.3259 97.74 82.2232 106.452 75.4772 102.584C75.1819 103.476 75.5837 105.729 76.438 107.025C77.0997 113.001 84.6457 111.537 86.986 112.581C86.7243 106.732 89.9468 102.509 92.732 102.839C95.4816 103.176 96.2312 107.748 91.4946 112.004C92.6666 112.661 97.7322 111.789 100.302 109.913C100.562 111.404 98.663 115.773 96.3022 118.879C116.194 114.26 125.092 92.6909 115.791 75.8347Z" fill="#1D1D1B"/>
</svg>
