<svg width="180" height="180" viewBox="0 0 180 180" fill="none" xmlns="http://www.w3.org/2000/svg">
<rect width="180" height="180" rx="30" fill="#FFBC02"/>
<rect x="10" y="10" width="160" height="160" rx="20" fill="#233043"/>
<path d="M78.0596 41.8817H83.8659V36.1377H78.0596V41.8817ZM138.068 101.878H143.85V96.0457H138.068V101.878ZM113.9 120.078H108.081V125.918H113.9V120.078ZM143.872 138.011H138.062V143.804H143.872V138.011ZM84.0794 125.916H89.902V120.061H84.0794V125.916ZM113.9 84.0575H108.038V89.9348H113.9V84.0575ZM54.068 89.859H59.8845V84.0494H54.068V89.859ZM65.9856 89.9348H71.9951V88.4958V75.4457C72.0236 73.1025 73.1357 72.0059 75.4858 71.9731H88.4301H89.9792V67.5943C89.9792 66.1716 89.9792 64.7839 90.0118 63.3837C90.0118 61.1288 91.1014 60.071 93.4069 60.032C95.757 59.9931 98.095 60.032 100.48 60.032H101.917V48.0726H89.9792V52.5619C89.9792 53.8615 90.0117 55.2228 89.9792 56.5471C89.9792 58.5868 88.794 59.993 86.9927 59.993C85.2321 59.993 83.9879 58.6298 83.9879 56.5368C83.9513 54.1773 83.9513 51.8772 83.9513 49.5669V48.011H82.2232C70.6778 47.9126 72.0805 49.2799 71.9951 37.63V33.3804C72.046 31.1357 73.1093 30.0205 75.3212 30H86.6349C88.8753 30.0205 89.9792 31.1727 89.9792 33.4666C90.0117 36.2914 89.9792 39.0466 89.9792 41.9821H91.4857H104.548C106.804 42.0252 107.957 43.1772 107.986 45.4383C108 51.127 108 56.871 107.986 62.5842C107.957 64.8166 106.804 66.0035 104.548 66.0179H95.9583V73.9901C95.9298 77.063 95.0394 77.9568 92.002 77.9568H79.5478H78.0942V89.859H102.015V87.3437C102.015 85.2814 101.992 83.2274 102.015 81.1507C102.037 79.1971 103.206 78.0163 105.129 77.9568H116.782C118.795 78.0163 119.98 79.1972 119.98 81.2512C120.031 85.0641 120.031 88.916 119.98 92.7371C119.98 94.703 118.75 95.9452 116.754 96.0006C113.9 96.0436 111.043 96.0006 108.081 96.0006V113.848H113.975V107.124V105.303C114.02 103.114 115.162 101.978 117.297 101.978H130.41H131.993V99.2212C131.993 97.2225 131.975 95.191 131.993 93.1717C132.012 91.173 133.15 90.0578 135.124 90.0147C137.544 89.9737 139.995 89.9737 142.425 89.9737H143.872V77.9568H142.445H128.979C127.354 77.9568 126.102 76.7987 125.974 75.2038C125.848 73.8262 126.811 72.4691 128.151 72.1267C128.511 72.0058 128.852 72.0059 129.198 72.0059C135.035 71.9731 140.898 71.9731 146.747 72.0059C148.748 72.0059 149.975 73.2071 149.975 75.2038C150.008 85.0498 150.008 94.8445 149.975 104.668C149.975 106.822 148.748 107.966 146.57 107.966H121.698H120.117V113.893C120.562 113.893 121.023 113.952 121.473 113.952C125.74 113.952 130.038 113.936 134.301 113.952C136.863 113.952 137.973 115.078 137.973 117.63V130.444V131.965H146.263C148.918 131.965 149.975 133.019 149.975 135.743C150.008 139.247 150.008 142.803 149.975 146.315C149.975 148.836 148.849 149.974 146.387 149.974H135.74C133.069 149.974 131.993 148.922 131.993 146.26V121.674V120.061H119.999V127.804C119.999 131.028 119.064 131.965 115.876 131.965H105.615C103.088 131.965 102.015 130.881 102.015 128.372V97.7165V96.0827H78.0779V101.978H79.4828H92.553C94.8076 101.978 95.9298 103.094 95.9298 105.351C95.9583 113.081 95.9583 120.785 95.9298 128.509C95.9298 130.846 94.8076 131.965 92.4717 131.965H81.467C79.129 131.965 77.9844 130.784 77.9844 128.472V117.486C77.9844 115.131 79.129 113.952 81.4385 113.952C84.2543 113.936 87.074 113.952 89.9304 113.952V107.966H88.5947H75.8823C72.9121 107.966 71.9951 107.007 71.9951 103.989V96.0006H70.4989H51.7687C49.077 96.0006 47.9873 94.9305 47.9873 92.1405V81.4356C47.9975 79.1971 49.1746 77.9568 51.3784 77.9568H62.6616C64.7963 77.9568 65.9591 79.1725 65.9856 81.329C66.012 84.1641 65.9856 86.9377 65.9856 89.9348Z" fill="#917621"/>
<path d="M59.9293 120.061H36.0698V143.818H59.9293V120.061ZM30.0053 131.998C30.0053 128.129 29.985 124.212 30.0236 120.387C30.0236 116.467 32.4796 113.952 36.3118 113.952C44.082 113.935 51.8806 113.935 59.667 113.952C63.5257 113.952 65.9592 116.445 65.9856 120.364C66.012 128.111 66.012 135.852 65.9856 143.592C65.9592 147.391 63.5257 149.927 59.724 149.974C51.9294 150.009 44.0819 150.009 36.2975 149.974C32.4368 149.927 30.0236 147.391 30.0236 143.459C30.0053 139.65 30.0053 135.837 30.0053 131.998Z" fill="#917621"/>
<path d="M143.872 36.1373H120.074V59.9129H143.872V36.1373ZM131.959 29.9997H143.482C147.552 30.0202 149.975 32.5028 149.975 36.6273C150.008 44.2409 150.008 51.7991 149.975 59.3696C149.975 63.4593 147.513 66.0176 143.457 66.0176H120.409C116.485 66.0032 114.019 63.4777 113.975 59.5643V36.4489C114.019 32.513 116.43 30.0469 120.316 29.9997H131.959Z" fill="#917621"/>
<path d="M36.0463 59.8862H59.9301V36.1373H36.0463V59.8862ZM47.9231 29.9997H59.6089C63.5611 30.0469 65.9864 32.4884 65.9864 36.4797C65.9864 44.1773 66.0129 51.8769 65.9864 59.5909C65.96 63.4592 63.4838 66.0032 59.6292 66.0176H36.3126C32.5048 66.0032 30.0245 63.4367 30.0245 59.5643C30.0062 51.8769 30.0062 44.1773 30.0245 36.4797C30.0245 32.4884 32.4377 30.0469 36.3959 29.9997H47.9231Z" fill="#917621"/>
<path d="M57.0463 107.962H51.2929C49.3351 107.948 47.9893 106.711 47.9893 104.93C47.9994 103.253 49.3351 101.982 51.2075 101.982H62.8221C64.7169 102.013 65.9855 103.253 65.9855 104.969C65.9611 106.726 64.6783 107.948 62.7794 107.962H57.0463Z" fill="#917621"/>
<path d="M149.976 120.061C149.976 120.961 150.009 121.881 149.976 122.763C149.92 124.638 148.663 125.979 146.986 125.979C145.343 125.979 144.028 124.712 143.959 122.916C143.916 120.922 143.916 118.944 143.959 116.969C144.054 115.194 145.398 113.938 147.043 113.956C148.686 114.005 149.92 115.286 149.976 117.082C150.009 118.066 149.976 119.108 149.976 120.061Z" fill="#917621"/>
<path d="M86.9926 143.817C86.9926 142.883 86.9499 141.944 86.9926 140.978C87.0841 139.226 88.369 137.953 90.0116 137.967C91.6035 137.991 92.9087 139.17 92.992 140.884C93.0673 142.926 93.0673 144.961 92.992 146.995C92.9087 148.774 91.5669 150.047 89.9039 149.974C88.2592 149.906 87.0739 148.594 86.9926 146.829C86.9499 145.796 86.9926 144.838 86.9926 143.817Z" fill="#917621"/>
<path d="M122.98 143.993C122.98 144.961 123.009 145.914 122.98 146.855C122.885 148.708 121.584 150.047 119.918 149.969C118.247 149.901 117.005 148.591 116.987 146.828C116.952 144.92 116.952 142.999 116.987 141.105C117.005 139.252 118.294 137.95 120.032 137.968C121.644 137.991 122.885 139.225 122.98 141.037C123.009 142.005 122.98 142.999 122.98 143.993Z" fill="#917621"/>
<path d="M102.077 30.0015C103.051 30.0015 104.033 30.0015 105.047 30.024C106.692 30.1122 107.889 31.2581 107.959 32.8591C108.06 34.4725 106.881 35.9197 105.208 35.9505C103.051 36.094 100.829 36.094 98.69 35.9505C97.0697 35.9197 95.9068 34.4356 95.9577 32.9186C96.039 31.3422 97.2446 30.1122 98.8872 30.024C99.9363 30.0015 101.018 30.0015 102.077 30.0015Z" fill="#917621"/>
<path d="M36.0461 107.962C35.0276 107.962 33.9867 107.962 32.9763 107.947C31.2523 107.884 30.0467 106.652 30.0243 104.969C29.9857 103.37 31.2157 102.029 32.899 101.982C34.9706 101.953 37.0829 101.937 39.1749 102.029C40.779 102.06 41.9805 103.39 42.0191 104.93C42.0191 106.547 40.779 107.831 39.0977 107.947C38.0873 107.982 37.0626 107.962 36.0461 107.962Z" fill="#917621"/>
<path d="M36.0705 86.9838C37.0402 86.9838 38.0262 86.9838 39.0184 87.0289C40.7302 87.0678 42.0597 88.3983 42.0191 90.0608C41.9805 91.6536 40.6834 92.9164 39.0184 92.9553C36.9975 93.0168 35.0255 93.0168 33.0047 92.9553C31.2949 92.8877 30.0467 91.6536 30.0243 90.0608C29.9857 88.3388 31.2441 87.0678 33.0047 87.0289C33.9887 86.9838 35.0316 86.9838 36.0705 86.9838Z" fill="#917621"/>
<path d="M35.9844 77.9561C35.0248 77.9561 34.0185 78.0176 33.0325 77.9561C31.2516 77.8946 30.0053 76.6441 30.0236 74.957C30.0236 73.3457 31.2516 72.0686 32.9186 72.0071C34.9903 71.9476 37.0396 71.9476 39.097 72.0071C40.7478 72.0686 42.0265 73.4113 42.0265 74.9775C42.0265 76.5785 40.7295 77.8946 39.0604 77.9561C38.0256 78.0176 37.0111 77.9561 35.9844 77.9561Z" fill="#917621"/>
<path d="M107.958 144.033C107.987 145.034 108.013 146.018 107.958 146.994C107.897 148.67 106.617 149.927 104.978 149.972C103.404 149.972 102.077 148.759 102.014 147.069C101.973 145.026 101.973 142.898 102.014 140.846C102.077 139.126 103.404 137.953 105.047 137.968C106.568 137.992 107.877 139.171 107.958 140.803C108.04 141.867 107.958 142.924 107.958 144.033Z" fill="#917621"/>
<path d="M72.0236 143.879C72.0236 142.844 71.9727 141.8 72.0236 140.765C72.1232 139.17 73.3958 137.992 74.9653 137.971C76.5348 137.953 77.9051 139.113 77.9661 140.726C78.0128 142.883 78.0128 145.033 77.9661 147.171C77.9051 148.787 76.4921 149.974 74.9653 149.974C73.4182 149.931 72.1232 148.76 72.0236 147.116C71.9727 146.079 72.0236 144.978 72.0236 143.879Z" fill="#917621"/>
<path d="M72.0226 59.9687C72.0226 58.9458 71.9942 57.8778 72.0226 56.8302C72.1223 55.2415 73.34 54.0115 74.9299 53.9808C76.5542 53.9705 77.9042 55.1964 77.9651 56.8302C78.0119 58.9458 78.0119 61.0634 77.9651 63.1667C77.9042 64.7861 76.5542 66.0161 75.0193 66.0161C73.4173 66.0161 72.1223 64.7861 72.047 63.1667C71.9718 62.1027 72.0226 61.045 72.0226 59.9687Z" fill="#917621"/>
<path d="M47.9882 125.992C49.0332 125.992 50.0253 125.949 51.054 125.992C52.717 126.08 53.9022 127.148 53.951 128.831C54.0263 130.943 54.0263 132.999 53.951 135.133C53.9022 136.769 52.6763 137.896 51.0154 137.949C49.0332 137.986 47.0144 137.986 45.0078 137.949C43.231 137.896 42.0599 136.734 42.0172 134.917C42.0172 132.937 41.9806 130.943 42.0172 128.985C42.0599 127.169 43.231 126.08 45.0281 125.992C46.0324 125.949 47.0144 125.992 47.9882 125.992Z" fill="#917621"/>
<path d="M131.959 53.9778C130.984 53.9778 129.993 54.0003 128.979 53.9778C127.241 53.8937 126.035 52.7683 125.974 50.9684C125.921 49.0005 125.921 47.0099 125.974 45.0522C126.035 43.1929 127.241 42.0408 129.097 42.0244C131.053 41.9814 132.933 41.9814 134.883 42.0244C136.713 42.0408 137.932 43.2196 137.973 45.1014C137.993 47.0099 137.973 48.9492 137.973 50.8803C137.932 52.7416 136.741 53.9245 134.926 53.9778C133.891 54.0003 132.933 53.9778 131.959 53.9778Z" fill="#917621"/>
<path d="M47.9885 53.9778C47.0147 53.9778 46.0328 54.0003 45.0285 53.9778C43.2313 53.8937 42.0603 52.7929 42.0176 50.9684V45.0522C42.0603 43.2606 43.2313 42.0408 45.0081 42.0244C47.0147 41.9588 49.0335 41.9588 51.0157 42.0244C52.7377 42.0408 53.9026 43.1929 53.9514 44.96C54.0266 46.9812 54.0266 49.0005 53.9514 51.0381C53.9026 52.8421 52.7377 53.9245 50.9222 53.9778C49.9443 54.0003 48.9624 53.9778 47.9885 53.9778Z" fill="#917621"/>
<circle cx="90" cy="90" r="50" fill="#233043"/>
<circle cx="90" cy="90" r="45" fill="#FFBC02"/>
<path d="M89.9755 126.807C69.6635 126.807 53.1933 110.344 53.1933 90.0336C53.1933 69.7112 69.6635 53.2502 89.9755 53.2502C110.318 53.2502 126.776 69.7112 126.776 90.0336C126.776 110.344 110.318 126.807 89.9755 126.807ZM89.9755 50C67.9017 50 50 67.9383 50 90.0336C50 112.121 67.9017 130 89.9755 130C112.096 130 130 112.121 130 90.0336C130 67.9383 112.096 50 89.9755 50Z" fill="#1D1D1B"/>
<path d="M74.0273 88.1813C71.2072 87.4742 68.6542 90.806 67.2451 93.3267C67.7427 89.8747 72.0025 84.2179 74.0273 88.1813Z" fill="#1D1D1B"/>
<path d="M67.7393 88.2407C68.716 84.9477 70.9754 83.7128 72.203 84.6747C70.592 85.2187 69.3461 86.1806 67.7393 88.2407Z" fill="#1D1D1B"/>
<path d="M75.0664 93.5233C76.5366 92.2741 76.3592 90.4076 74.0835 89.7901C72.389 89.3602 68.7817 92.4351 68.3535 95.8198C69.8176 93.9573 74.0305 90.4993 75.0664 93.5233Z" fill="#1D1D1B"/>
<path d="M98.0303 102.251C98.2974 97.9248 94.0499 95.9014 93.2709 91.4611C92.4593 87.0107 99.8533 79.9499 95.1796 72.7036C103.944 79.7481 97.0637 83.9418 101.521 89.837C99.8064 89.3153 98.1017 87.7809 97.6082 86.974C95.1184 90.2283 103.626 94.695 98.0303 102.251Z" fill="#1D1D1B"/>
<path d="M83.8874 67.3656C84.9131 67.3656 86.7137 68.1196 85.9551 68.9388C83.5673 71.1721 80.2679 70.2694 77.6436 72.5884C78.7202 69.7111 83.4857 69.273 83.8874 67.3656Z" fill="#1D1D1B"/>
<path d="M80.8806 76.9263C80.5829 76.9263 80.2689 76.4943 80.2179 75.8687C80.6257 76.9487 81.6555 76.4555 81.0621 74.9333C81.4536 74.966 82.0185 74.966 83.1094 74.9333C82.0185 75.5406 81.4883 76.9263 80.8806 76.9263ZM91.784 70.5828C92.8382 69.3907 91.8615 67.8685 87.7159 67.3631C92.0327 69.5068 85.0609 69.951 84.7958 73.5579C82.5364 74.4667 80.6686 72.9853 79.5531 73.9939C78.4377 74.9863 77.1959 74.3689 77.5527 73.1401C76.215 73.8574 76.4965 75.6832 77.7995 76.1988C78.0442 76.3353 78.2501 76.5554 78.0727 76.7286C76.6596 78.0654 75.9744 79.2269 77.4875 80.5514C78.2501 79.0496 78.6824 78.5157 79.5939 77.7801C80.432 78.369 81.8961 77.9574 83.8863 75.8198C84.0066 75.6832 84.1208 75.7383 84.0841 75.8687C82.4895 81.3176 78.4377 82.1816 77.151 81.9351C77.9259 83.0864 83.0748 83.8546 83.7232 81.5336C85.1894 76.3944 90.1547 74.0918 85.8623 74.1753C87.0185 72.8059 90.9031 71.5507 91.784 70.5828Z" fill="#1D1D1B"/>
<path d="M93.973 67.8093C96.0611 69.1155 97.0053 70.0244 98.4204 71.6362C98.661 69.4314 97.3703 65.1012 95.5697 64.0456C94.7255 63.6401 93.5774 66.6376 93.973 67.8093Z" fill="#1D1D1B"/>
<path d="M60.6484 85.5254C61.9759 82.0123 65.2528 77.7819 70.5954 74.6071C71.825 71.4181 71.4254 69.2764 84.2802 64.3654C84.5942 62.4255 84.5167 60.1452 85.1142 60.1452C85.6117 60.1452 87.5204 61.0052 88.8927 63.0001C89.482 62.8697 89.9449 62.8167 90.2957 62.7984C90.52 61.6858 91.3152 58.6536 92.2981 57.0438C93.2504 55.6377 95.0081 55.4604 97.3267 57.378C99.7247 59.3505 101.397 60.1452 104.692 64.3654C107.48 65.5595 111.823 67.1816 115.579 71.7278C113.95 70.6947 112.094 70.2912 110.577 70.0874C113.638 72.8058 115.679 77.189 114.103 83.6996C113.511 77.6291 109.074 75.0921 106.364 73.199C107.824 78.324 101.397 76.5308 99.4515 72.7079C100.108 72.9097 100.783 72.8649 101.177 72.604C100.979 64.8259 97.2594 60.3042 95.6627 58.9939C93.5746 57.2292 92.4184 61.4107 91.7435 64.5916C91.4865 65.6064 90.5873 66.3542 89.482 66.3379C89.7145 65.9548 89.9796 64.9462 90.0367 64.6059C86.7863 64.885 83.1342 66.772 80.9421 67.8133C75.2141 70.3217 73.7928 71.6096 72.5591 75.9826C68.0302 77.8472 62.8303 83.0414 60.6484 85.5254Z" fill="#1D1D1B"/>
<path d="M89.04 84.439C89.6864 85.1603 93.416 90.862 89.0665 98.0308C90.2675 92.7326 86.9335 82.607 83.2936 87.7809C85.7936 88.8609 86.6174 90.8762 85.9568 92.8304C84.9086 90.9231 82.376 88.8731 79.7883 89.7555C78.52 90.1671 76.8519 90.1671 75.5795 88.325C73.9523 85.9021 76.6888 82.9861 72.0049 83.1837C77.6472 80.3085 76.0628 85.9021 78.7565 86.5929C81.9335 87.3102 82.3617 85.3539 83.4404 84.0946C84.2785 83.0044 85.9568 82.2525 87.6513 83.3427C88.4853 80.8607 87.3006 76.9238 89.5926 74.8636C90.4388 74.1157 93.2263 74.2299 94.617 75.318C92.582 75.3037 90.2471 77.6818 89.04 84.439Z" fill="#1D1D1B"/>
<path d="M76.1047 107.316C75.8131 107.076 75.0688 106.11 75.1096 105.068C76.1047 105.71 77.3649 105.967 77.3649 105.967C77.3649 105.967 76.7572 107.014 76.1047 107.316ZM81.7817 101.042C82.3792 101.189 82.8502 101.623 83.3478 101.266C83.8861 100.85 83.311 99.3586 82.9399 98.8492C83.4416 98.7779 85.391 98.945 85.3155 99.6765C85.0749 101.496 83.9208 102.161 81.0619 103.487C81.5737 103.043 81.4901 102.061 81.7817 101.042ZM70.5052 99.5339C70.7356 98.945 71.8102 98.2318 72.2486 98.2073C72.0814 99.7967 72.7095 102.04 72.7095 102.04C72.7095 102.04 70.5052 100.608 70.5052 99.5339ZM63.2274 92.3651C62.2568 91.5907 60.65 89.9442 60.4481 89.3125C60.65 89.0761 61.5044 88.1041 62.6198 87.8229C63.3987 87.6314 63.9024 88.0675 63.831 88.3548C63.6659 88.585 62.9909 88.585 62.787 89.176C62.4607 90.1684 63.4966 90.4109 63.6659 90.8632C63.831 91.0996 64.1043 91.7741 63.2274 92.3651ZM118.136 74.547C120.988 84.5951 120.167 94.3111 117.206 100.127C117.567 96.4956 114.347 91.2036 115.679 84.9945C109.62 90.8633 119.08 105.307 105.332 114.721C107.373 111.428 108.313 103.21 107.634 100.225C108.313 100.512 109.078 101.402 109.549 102.199C110.707 98.4437 110.811 93.0885 108.666 87.7312C109.404 87.7842 110.942 88.5178 111.637 89.1434C112 80.807 105.897 80.161 104.726 77.9256C104.726 80.322 107.634 82.4086 108.111 85.5631C106.105 84.5951 104.663 84.5299 103.625 84.5951C105.175 85.7404 108.594 92.3651 107.634 97.7162C106.105 96.4813 104.726 95.9067 103.236 95.8231C105.089 98.5354 105.85 105.771 103.58 109.02C103.474 108.31 103.223 106.144 102.349 105.307C101.298 109.278 98.1418 110.968 95.9803 111.504C98.6618 108.665 98.1418 103.728 94.2083 102.352C90.6275 101.189 86.1414 103.573 84.3204 111.982C81.7817 112.73 74.0859 111.11 78.6822 106.144C81.4901 107.076 88.57 102.311 88.0929 98.9816C87.4403 94.3376 83.2172 92.7278 79.7894 92.7665C75.7111 92.8256 72.8808 96.7238 69.4856 98.409C66.643 97.9302 65.6948 97.5511 64.2266 93.763C64.0798 91.4562 66.5227 89.8383 66.4411 87.4724C64.4571 87.8433 63.9799 84.8519 60.0076 87.9941C59.7405 87.45 60.2482 86.0582 60.2482 86.0582C58.7841 87.3665 58.4946 88.9029 58.4844 89.2799C59.1695 90.6615 60.1891 91.9392 62.1304 93.1863C64.4183 99.4198 66.8 100.074 69.3041 100.308C69.663 100.867 71.5309 103.043 73.8351 103.393C73.4619 102.254 73.3518 98.945 73.5863 98.1462C78.6006 93.1292 82.3792 96.1573 82.8502 97.4961C78.3559 98.4437 81.5166 107.948 74.1573 103.728C73.8351 104.702 74.2735 107.159 75.2054 108.573C75.9273 115.092 84.1593 113.494 86.7124 114.634C86.4269 108.253 89.9424 103.646 92.9807 104.007C95.9803 104.374 96.798 109.362 91.6308 114.004C92.9093 114.721 98.4354 113.77 101.239 111.724C101.523 113.35 99.4509 118.116 96.8755 121.505C118.576 116.466 128.282 92.9356 118.136 74.547Z" fill="#1D1D1B"/>
</svg>
