<svg width="100" height="100" viewBox="0 0 100 100" fill="none" xmlns="http://www.w3.org/2000/svg">
<path d="M45.9079 0.158805C42.3851 0.543337 38.405 1.42227 34.8015 2.65827C17.4023 8.56359 4.62853 23.0385 0.782953 41.2489C0.0568656 44.6822 -0.238948 52.208 0.218218 55.7787C1.56282 66.1336 5.4084 76.3787 10.733 83.7397L11.6743 85.0581L11.8087 55.5864C11.9701 22.4068 11.7549 25.2633 14.0946 22.7089C16.1115 20.5116 17.4023 20.1545 22.7 20.2644C26.8952 20.3468 27.0297 20.3742 28.4281 21.1433C29.2079 21.6102 30.2029 22.3518 30.6063 22.8462C31.0097 23.3132 35.5007 30.4819 40.5833 38.7769C45.639 47.0718 49.8073 53.8835 49.8611 53.911C49.888 53.9659 54.1369 47.0992 59.3002 38.6945C64.4635 30.2622 69.0889 22.9836 69.573 22.4892C70.0571 21.9948 70.9714 21.3081 71.5899 20.9785C72.6387 20.4017 73.0421 20.3468 77.56 20.3468C82.0778 20.3468 82.4812 20.4017 83.53 20.9785C84.9822 21.7476 86.4075 23.2033 87.1605 24.6865L87.779 25.8401L87.9134 55.504L88.0479 85.168L89.4732 83.108C94.8785 75.3624 98.6165 64.8976 99.7191 54.4878C100.122 50.8622 100.096 48.8296 99.6115 45.0118C98.3745 35.4259 94.6903 26.6916 88.7202 19.2481C86.4613 16.419 81.6476 11.8321 78.7432 9.71719C75.8658 7.62972 70.5949 4.74573 67.0451 3.34493C60.6179 0.818003 52.0125 -0.472927 45.9079 0.158805Z" fill="black"/>
<path d="M62.9035 65.447C59.7302 70.391 56.6376 75.0054 56.046 75.6371C55.4813 76.2963 54.3787 77.1752 53.6257 77.5598C52.4156 78.1915 51.9853 78.2739 49.323 78.2739C46.6069 78.3014 46.2304 78.219 44.8051 77.5323C43.8908 77.0654 42.842 76.2414 42.1966 75.4723C41.6049 74.7582 38.6468 70.2811 35.5811 65.5294C32.5423 60.7777 29.9875 56.8225 29.9337 56.7675C29.88 56.7126 29.8262 65.447 29.8262 76.2139V95.7701L31.0094 96.2645C33.349 97.3083 37.3022 98.5168 40.583 99.2309C43.568 99.8901 44.5362 99.9725 49.323 100C53.9215 100 55.1586 99.9176 57.7671 99.3683C60.537 98.7915 67.6365 96.5941 68.4971 96.0723C68.766 95.88 68.8198 91.7325 68.766 76.1315L68.6853 56.4105L62.9035 65.447Z" fill="black"/>
</svg>
