<svg width="180" height="180" viewBox="0 0 180 180" fill="none" xmlns="http://www.w3.org/2000/svg">
<rect width="180" height="180" rx="15" fill="url(#paint0_linear_864_3970)"/>
<path d="M84.2711 20.2225C79.3391 20.7609 73.7671 21.9914 68.7221 23.7218C44.3632 31.9892 26.4799 52.2541 21.0961 77.7486C20.0796 82.5552 19.6655 93.0914 20.3055 98.0904C22.188 112.587 27.5718 126.93 35.0263 137.236L36.344 139.082L36.5322 97.8212C36.7581 51.3697 36.4569 55.3688 39.7324 51.7926C42.556 48.7164 44.3632 48.2165 51.78 48.3703C57.6533 48.4857 57.8415 48.5241 59.7993 49.6008C60.8911 50.2545 62.2841 51.2927 62.8488 51.9849C63.4136 52.6386 69.701 62.6749 76.8166 74.2878C83.8946 85.9007 89.7302 95.4371 89.8055 95.4755C89.8432 95.5524 95.7917 85.9391 103.02 74.1724C110.249 62.3673 116.725 52.1772 117.402 51.485C118.08 50.7929 119.36 49.8315 120.226 49.3701C121.694 48.5626 122.259 48.4857 128.584 48.4857C134.909 48.4857 135.474 48.5626 136.942 49.3701C138.975 50.4468 140.97 52.4848 142.025 54.5613L142.891 56.1763L143.079 97.7058L143.267 139.235L145.262 136.351C152.83 125.508 158.063 110.857 159.607 96.2831C160.171 91.2072 160.134 88.3617 159.456 83.0167C157.724 69.5965 152.566 57.3684 144.208 46.9475C141.046 42.9868 134.307 36.5652 130.241 33.6043C126.212 30.6818 118.833 26.6442 113.863 24.6831C104.865 21.1454 92.8174 19.3381 84.2711 20.2225Z" fill="black"/>
<path d="M108.065 111.626C103.623 118.547 99.2929 125.008 98.4646 125.892C97.674 126.815 96.1304 128.045 95.0762 128.584C93.382 129.468 92.7796 129.583 89.0523 129.583C85.2498 129.622 84.7227 129.507 82.7273 128.545C81.4473 127.892 79.9789 126.738 79.0754 125.661C78.2471 124.661 74.1057 118.394 69.8137 111.741C65.5594 105.089 61.9827 99.5515 61.9074 99.4746C61.8321 99.3977 61.7568 111.626 61.7568 126.699V154.078L63.4134 154.77C66.6889 156.232 72.2233 157.924 76.8164 158.923C80.9955 159.846 82.3508 159.962 89.0523 160C95.4903 160 97.2222 159.885 100.874 159.116C104.752 158.308 114.691 155.232 115.896 154.501C116.273 154.232 116.348 148.426 116.273 126.584L116.16 98.9747L108.065 111.626Z" fill="black"/>
<defs>
<linearGradient id="paint0_linear_864_3970" x1="180" y1="180" x2="0" y2="0" gradientUnits="userSpaceOnUse">
<stop stop-color="#FDB302"/>
<stop offset="1" stop-color="#F8DC00"/>
</linearGradient>
</defs>
</svg>
