<svg width="180" height="180" viewBox="0 0 180 180" fill="none" xmlns="http://www.w3.org/2000/svg">
<rect width="180" height="180" rx="15" fill="white"/>
<path fill-rule="evenodd" clip-rule="evenodd" d="M90.8556 96.1502C90.8556 95.4588 90.9784 94.7674 91.4699 94.2143C92.2481 93.3385 93.7637 92.693 97.2453 91.7712V97.6713C95.5249 98.7315 94.5419 99.1465 93.395 99.1465C91.8386 99.1465 90.8556 97.994 90.8556 96.1502ZM71.7681 84.1195C74.1847 84.1195 76.11 86.2858 76.11 90.8955C76.11 96.7956 73.2835 99.4229 70.1297 99.4229C69.3923 99.4229 68.696 99.3308 67.9178 99.0541V85.6866C69.2694 84.6263 70.3754 84.1195 71.7681 84.1195ZM126.778 79.0027L126.819 78.9569H120.715L116.865 93.9836H116.66L112.237 78.9569H104.987L113.711 103.756L110.066 111.315V111.5H115.759L126.778 79.0027ZM50.6326 103.664H57.1044V78.9569H50.6326V103.664ZM98.0236 103.664H104.495L103.717 97.487V87.1615C103.717 81.5379 100.768 78.4498 95.5659 78.4498C92.2481 78.4498 89.9544 79.0949 85.7765 80.524L86.9234 86.1937C90.7325 84.2577 92.4121 83.4281 94.1733 83.4281C96.3033 83.4281 97.2453 85.1336 97.2453 87.761V87.9453C89.8315 89.5124 87.5378 90.3884 86.1041 92.0018C85.0391 93.2003 84.5887 94.9057 84.5887 96.8877C84.5887 101.636 87.8653 104.171 90.9374 104.171C93.2312 104.171 95.0743 103.203 97.573 101.082L98.0236 103.664ZM71.6862 103.987C77.4616 103.987 82.6634 99.1925 82.6634 90.6651C82.6634 83.0131 78.8951 78.4498 74.2257 78.4498C71.85 78.4498 70.0067 79.4637 67.9178 81.3999V78.9569H61.446V111.5H67.9178V103.433C69.1466 103.802 70.2935 103.987 71.6862 103.987ZM18.9703 92.0018L22.8206 77.0207H22.9845L26.6299 92.0018H18.9703ZM10 103.664H15.9803L17.6187 97.3026H27.8996L29.4561 103.664H37.1158L28.3912 71.1667H19.7077L10 103.664ZM39.7373 103.664H46.2089V70.0143H39.7373V103.664Z" fill="#040F24"/>
<path fill-rule="evenodd" clip-rule="evenodd" d="M50.1406 73.0104C50.1406 75.4072 51.6972 77.0206 53.8679 77.0206C56.039 77.0206 57.5953 75.4072 57.5953 73.0104C57.5953 70.6595 56.039 69 53.8679 69C51.6972 69 50.1406 70.6595 50.1406 73.0104Z" fill="#1677FF"/>
<path fill-rule="evenodd" clip-rule="evenodd" d="M167.465 86.5532H156.306V73.9955C156.306 71.7984 154.723 70.0175 152.771 70.0175H148.982V86.5532C148.982 91.1049 152.261 94.7948 156.306 94.7948H171V90.5314C171 88.3344 169.417 86.5532 167.465 86.5532Z" fill="#1677FF"/>
<path fill-rule="evenodd" clip-rule="evenodd" d="M134.289 90.8168C134.289 93.0141 135.872 94.7952 137.824 94.7952H145.422V86.5534H134.289V90.8168Z" fill="#00B6FF"/>
<path fill-rule="evenodd" clip-rule="evenodd" d="M148.982 98.8384V107.353C148.982 109.55 150.565 111.331 152.517 111.331H156.306V98.8384H148.982Z" fill="#00B6FF"/>
</svg>
