<svg width="348" height="83" viewBox="0 0 348 83" fill="none" xmlns="http://www.w3.org/2000/svg">
<path fill-rule="evenodd" clip-rule="evenodd" d="M174.769 52.7033C174.769 51.3612 175.034 50.019 176.097 48.9452C177.779 47.2453 181.054 45.9922 188.58 44.2028V55.6559C184.861 57.7141 182.736 58.5195 180.257 58.5195C176.893 58.5195 174.769 56.2825 174.769 52.7033ZM133.511 29.3494C138.735 29.3494 142.896 33.5547 142.896 42.5029C142.896 53.956 136.787 59.0562 129.97 59.0562C128.376 59.0562 126.871 58.8773 125.189 58.3402V32.3915C128.11 30.3334 130.501 29.3494 133.511 29.3494ZM252.414 19.4169L252.502 19.3279H239.31L230.988 48.4976H230.546L220.984 19.3279H205.313L224.171 67.4672L216.291 82.1417V82.4999H228.598L252.414 19.4169ZM87.827 67.2883H101.816V19.3279H87.827V67.2883ZM190.262 67.2883H204.251L202.569 55.2981V35.2547C202.569 24.3383 196.194 18.3436 184.95 18.3436C177.779 18.3436 172.821 19.5958 163.79 22.37L166.269 33.3759C174.503 29.6178 178.133 28.0073 181.94 28.0073C186.544 28.0073 188.58 31.3181 188.58 36.4183V36.7761C172.555 39.8182 167.597 41.5185 164.498 44.6505C162.196 46.977 161.223 50.2874 161.223 54.1349C161.223 63.3514 168.305 68.2727 174.946 68.2727C179.903 68.2727 183.887 66.3934 189.288 62.2776L190.262 67.2883ZM133.334 67.9149C145.818 67.9149 157.061 58.609 157.061 42.0557C157.061 27.2019 148.916 18.3436 138.823 18.3436C133.688 18.3436 129.704 20.3118 125.189 24.0703V19.3279H111.2V82.4999H125.189V66.8411C127.845 67.5567 130.324 67.9149 133.334 67.9149ZM19.3892 44.6505L27.7115 15.5694H28.066L35.9454 44.6505H19.3892ZM0 67.2883H12.9263L16.4677 54.9403H38.6898L42.0543 67.2883H58.6105L39.7523 4.20579H20.9831L0 67.2883ZM64.2769 67.2883H78.2652V1.96875H64.2769V67.2883Z" fill="#040F24"/>
<path fill-rule="evenodd" clip-rule="evenodd" d="M86.7646 7.78491C86.7646 12.4374 90.1291 15.5694 94.8211 15.5694C99.5139 15.5694 102.878 12.4374 102.878 7.78491C102.878 3.22139 99.5139 0 94.8211 0C90.1291 0 86.7646 3.22139 86.7646 7.78491Z" fill="#1677FF"/>
<path fill-rule="evenodd" clip-rule="evenodd" d="M340.359 34.0739H316.24V9.69704C316.24 5.43226 312.819 1.9751 308.599 1.9751H300.41V34.0739C300.41 42.9096 307.497 50.0723 316.24 50.0723H348V41.7963C348 37.5315 344.579 34.0739 340.359 34.0739Z" fill="#1677FF"/>
<path fill-rule="evenodd" clip-rule="evenodd" d="M268.649 42.3505C268.649 46.6157 272.071 50.0733 276.29 50.0733H292.713V34.0745H268.649V42.3505Z" fill="#00B6FF"/>
<path fill-rule="evenodd" clip-rule="evenodd" d="M300.41 57.9216V74.4493C300.41 78.7145 303.831 82.1721 308.051 82.1721H316.24V57.9216H300.41Z" fill="#00B6FF"/>
</svg>
