<svg width="428" height="233" viewBox="0 0 428 233" fill="none" xmlns="http://www.w3.org/2000/svg">
<path d="M427.797 232.299H0V0.000115147H427.797V232.299Z" fill="black"/>
<path d="M361.203 37.7279H365.011V33.9919H361.203V37.7279ZM400.559 76.7505H404.351V72.9572H400.559V76.7505ZM384.708 88.5879H380.892V92.3866H384.708V88.5879ZM404.366 100.252H400.555V104.02H404.366V100.252ZM365.151 92.3852H368.97V88.5771H365.151V92.3852ZM384.708 65.1598H380.864V68.9825H384.708V65.1598ZM345.468 68.9332H349.283V65.1545H345.468V68.9332ZM353.284 68.9825H357.226V68.0466V59.5585C357.244 58.0345 357.974 57.3212 359.515 57.2999H368.004H369.02V54.4518C369.02 53.5265 369.02 52.6239 369.042 51.7132C369.042 50.2466 369.756 49.5585 371.268 49.5332C372.81 49.5079 374.343 49.5332 375.907 49.5332H376.85V41.7546H369.02V44.6745C369.02 45.5198 369.042 46.4052 369.02 47.2665C369.02 48.5932 368.243 49.5078 367.062 49.5078C365.907 49.5078 365.091 48.6212 365.091 47.2599C365.067 45.7252 365.067 44.2292 365.067 42.7265V41.7145H363.934C356.362 41.6505 357.282 42.5398 357.226 34.9625V32.1985C357.259 30.7385 357.956 30.0132 359.407 29.9998H366.827C368.296 30.0132 369.02 30.7626 369.02 32.2546C369.042 34.0919 369.02 35.8839 369.02 37.7932H370.008H378.575C380.055 37.8212 380.811 38.5705 380.83 40.0412C380.839 43.7412 380.839 47.4772 380.83 51.1932C380.811 52.6452 380.055 53.4172 378.575 53.4265H372.942V58.6118C372.923 60.6105 372.339 61.1918 370.347 61.1918H362.179H361.226V68.9332H376.914V67.2972C376.914 65.9559 376.899 64.6199 376.914 63.2692C376.928 61.9985 377.695 61.2305 378.956 61.1918H386.599C387.919 61.2305 388.696 61.9986 388.696 63.3346C388.73 65.8146 388.73 68.3198 388.696 70.8052C388.696 72.0838 387.89 72.8918 386.58 72.9278C384.708 72.9558 382.835 72.9278 380.892 72.9278V84.5359H384.758V80.1625V78.9785C384.787 77.5545 385.536 76.8158 386.936 76.8158H395.536H396.575V75.0225C396.575 73.7225 396.563 72.4012 396.575 71.0879C396.587 69.7879 397.334 69.0625 398.628 69.0345C400.215 69.0078 401.823 69.0078 403.416 69.0078H404.366V61.1918H403.43H394.598C393.532 61.1918 392.711 60.4385 392.627 59.4012C392.544 58.5052 393.176 57.6225 394.055 57.3998C394.291 57.3212 394.515 57.3212 394.742 57.3212C398.57 57.2999 402.415 57.2999 406.251 57.3212C407.563 57.3212 408.368 58.1025 408.368 59.4012C408.39 65.8052 408.39 72.1759 408.368 78.5652C408.368 79.9665 407.563 80.7105 406.135 80.7105H389.823H388.786V84.5652C389.078 84.5652 389.38 84.6038 389.675 84.6038C392.474 84.6038 395.292 84.5932 398.088 84.6038C399.768 84.6038 400.496 85.3359 400.496 86.9959V95.3305V96.3198H405.934C407.675 96.3198 408.368 97.0052 408.368 98.7772C408.39 101.056 408.39 103.369 408.368 105.653C408.368 107.293 407.63 108.033 406.015 108.033H399.032C397.28 108.033 396.575 107.349 396.575 105.617V89.6265V88.5771H388.708V93.6132C388.708 95.7105 388.095 96.3198 386.004 96.3198H379.275C377.618 96.3198 376.914 95.6145 376.914 93.9825V74.0439V72.9812H361.215V76.8158H362.136H370.708C372.187 76.8158 372.923 77.5412 372.923 79.0092C372.942 84.0372 372.942 89.0479 372.923 94.0719C372.923 95.5919 372.187 96.3198 370.655 96.3198H363.438C361.904 96.3198 361.154 95.5519 361.154 94.0479V86.9025C361.154 85.3705 361.904 84.6038 363.419 84.6038C365.266 84.5932 367.115 84.6038 368.988 84.6038V80.7105H368.112H359.775C357.827 80.7105 357.226 80.0865 357.226 78.1239V72.9278H356.244H343.96C342.195 72.9278 341.48 72.2318 341.48 70.4172V63.4545C341.487 61.9985 342.259 61.1918 343.704 61.1918H351.104C352.504 61.1918 353.267 61.9825 353.284 63.3852C353.302 65.2292 353.284 67.0332 353.284 68.9825Z" fill="#DADADA"/>
<path d="M349.312 88.5772H333.664V104.029H349.312V88.5772ZM329.687 96.3412C329.687 93.8252 329.674 91.2773 329.699 88.7893C329.699 86.24 331.31 84.6039 333.823 84.6039C338.919 84.5933 344.034 84.5933 349.14 84.6039C351.671 84.6039 353.267 86.2253 353.284 88.7746C353.302 93.8133 353.302 98.8479 353.284 103.883C353.267 106.353 351.671 108.003 349.178 108.033C344.066 108.056 338.919 108.056 333.814 108.033C331.282 108.003 329.699 106.353 329.699 103.796C329.687 101.319 329.687 98.8386 329.687 96.3412Z" fill="#FFD000"/>
<path d="M404.366 33.9921H388.758V49.4561H404.366V33.9921ZM396.552 30.0001H404.11C406.779 30.0134 408.368 31.6281 408.368 34.3108C408.39 39.2628 408.39 44.1788 408.368 49.1028C408.368 51.7628 406.754 53.4268 404.094 53.4268H388.978C386.404 53.4174 384.787 51.7747 384.758 49.2294V34.1947C384.787 31.6347 386.368 30.0307 388.916 30.0001H396.552Z" fill="#FFD000"/>
<path d="M333.649 49.4388H349.313V33.9921H333.649V49.4388ZM341.438 30.0001H349.102C351.694 30.0307 353.285 31.6188 353.285 34.2148C353.285 39.2214 353.302 44.2294 353.285 49.2467C353.267 51.7627 351.643 53.4174 349.115 53.4268H333.823C331.326 53.4174 329.699 51.7481 329.699 49.2294C329.687 44.2294 329.687 39.2214 329.699 34.2148C329.699 31.6188 331.282 30.0307 333.878 30.0001H341.438Z" fill="#FFD000"/>
<path d="M347.421 80.708H343.648C342.364 80.6987 341.481 79.8947 341.481 78.736C341.488 77.6453 342.364 76.8187 343.592 76.8187H351.209C352.452 76.8387 353.284 77.6453 353.284 78.7613C353.268 79.904 352.427 80.6987 351.181 80.708H347.421Z" fill="#FFD000"/>
<path d="M408.369 88.5774C408.369 89.1628 408.39 89.7614 408.369 90.3348C408.332 91.5548 407.508 92.4268 406.408 92.4268C405.33 92.4268 404.468 91.6028 404.422 90.4348C404.394 89.1374 404.394 87.8508 404.422 86.5668C404.485 85.4121 405.366 84.5948 406.445 84.6068C407.522 84.6388 408.332 85.4721 408.369 86.6401C408.39 87.2801 408.369 87.9574 408.369 88.5774Z" fill="#FFD000"/>
<path d="M367.061 104.029C367.061 103.421 367.033 102.811 367.061 102.183C367.121 101.043 367.964 100.215 369.041 100.224C370.085 100.24 370.941 101.007 370.996 102.121C371.045 103.449 371.045 104.773 370.996 106.096C370.941 107.253 370.061 108.081 368.971 108.033C367.892 107.989 367.115 107.136 367.061 105.988C367.033 105.316 367.061 104.693 367.061 104.029Z" fill="#FFD000"/>
<path d="M390.663 104.143C390.663 104.773 390.682 105.393 390.663 106.005C390.601 107.21 389.747 108.081 388.655 108.03C387.559 107.986 386.745 107.134 386.733 105.987C386.71 104.746 386.71 103.497 386.733 102.265C386.745 101.059 387.59 100.213 388.73 100.225C389.787 100.239 390.601 101.042 390.663 102.221C390.682 102.85 390.663 103.497 390.663 104.143Z" fill="#FFD000"/>
<path d="M376.955 30.0011C377.593 30.0011 378.237 30.0011 378.903 30.0158C379.981 30.0731 380.767 30.8184 380.812 31.8598C380.879 32.9091 380.105 33.8504 379.008 33.8704C377.593 33.9638 376.136 33.9638 374.733 33.8704C373.671 33.8504 372.908 32.8851 372.941 31.8984C372.995 30.8731 373.785 30.0731 374.863 30.0158C375.551 30.0011 376.26 30.0011 376.955 30.0011Z" fill="#FFD000"/>
<path d="M333.649 80.708C332.981 80.708 332.298 80.708 331.636 80.6987C330.505 80.6574 329.714 79.856 329.7 78.7614C329.674 77.7214 330.481 76.8494 331.585 76.8187C332.944 76.8 334.329 76.7894 335.701 76.8494C336.753 76.8694 337.541 77.7347 337.566 78.736C337.566 79.788 336.753 80.6227 335.65 80.6987C334.988 80.7214 334.316 80.708 333.649 80.708Z" fill="#FFD000"/>
<path d="M333.665 67.0635C334.301 67.0635 334.948 67.0635 335.598 67.0929C336.721 67.1182 337.593 67.9835 337.566 69.0649C337.541 70.1009 336.69 70.9222 335.598 70.9475C334.273 70.9875 332.98 70.9875 331.654 70.9475C330.533 70.9035 329.714 70.1009 329.7 69.0649C329.674 67.9449 330.5 67.1182 331.654 67.0929C332.3 67.0635 332.984 67.0635 333.665 67.0635Z" fill="#FFD000"/>
<path d="M333.609 61.1917C332.979 61.1917 332.319 61.2317 331.673 61.1917C330.505 61.1517 329.687 60.3384 329.699 59.241C329.699 58.193 330.505 57.3624 331.598 57.3224C332.957 57.2837 334.301 57.2837 335.65 57.3224C336.733 57.3624 337.571 58.2357 337.571 59.2544C337.571 60.2957 336.721 61.1517 335.626 61.1917C334.947 61.2317 334.282 61.1917 333.609 61.1917Z" fill="#FFD000"/>
<path d="M380.811 104.17C380.83 104.82 380.847 105.46 380.811 106.095C380.771 107.186 379.931 108.003 378.857 108.032C377.825 108.032 376.954 107.243 376.913 106.144C376.886 104.815 376.886 103.431 376.913 102.096C376.954 100.978 377.825 100.215 378.902 100.224C379.899 100.24 380.758 101.007 380.811 102.068C380.865 102.76 380.811 103.448 380.811 104.17Z" fill="#FFD000"/>
<path d="M357.244 104.069C357.244 103.396 357.211 102.717 357.244 102.044C357.31 101.007 358.144 100.24 359.174 100.227C360.203 100.215 361.102 100.969 361.142 102.019C361.172 103.421 361.172 104.82 361.142 106.211C361.102 107.261 360.175 108.033 359.174 108.033C358.159 108.005 357.31 107.244 357.244 106.175C357.211 105.5 357.244 104.784 357.244 104.069Z" fill="#FFD000"/>
<path d="M357.243 49.4924C357.243 48.8271 357.225 48.1324 357.243 47.4511C357.309 46.4178 358.107 45.6178 359.15 45.5978C360.215 45.5911 361.101 46.3884 361.141 47.4511C361.171 48.8271 361.171 50.2044 361.141 51.5724C361.101 52.6258 360.215 53.4258 359.209 53.4258C358.158 53.4258 357.309 52.6258 357.259 51.5724C357.21 50.8804 357.243 50.1924 357.243 49.4924Z" fill="#FFD000"/>
<path d="M341.481 92.4351C342.167 92.4351 342.817 92.4071 343.492 92.4351C344.583 92.4925 345.36 93.1871 345.392 94.2818C345.441 95.6551 345.441 96.9925 345.392 98.3805C345.36 99.4445 344.556 100.178 343.467 100.212C342.167 100.236 340.843 100.236 339.527 100.212C338.361 100.178 337.593 99.4218 337.565 98.2405C337.565 96.9525 337.541 95.6551 337.565 94.3818C337.593 93.2005 338.361 92.4925 339.54 92.4351C340.199 92.4071 340.843 92.4351 341.481 92.4351Z" fill="#DADADA"/>
<path d="M396.553 45.5955C395.913 45.5955 395.264 45.6102 394.598 45.5955C393.458 45.5409 392.668 44.8089 392.628 43.6382C392.593 42.3582 392.593 41.0635 392.628 39.7902C392.668 38.5809 393.458 37.8315 394.676 37.8209C395.958 37.7929 397.192 37.7929 398.47 37.8209C399.67 37.8315 400.47 38.5982 400.497 39.8222C400.51 41.0635 400.497 42.3249 400.497 43.5809C400.47 44.7915 399.689 45.5609 398.498 45.5955C397.82 45.6102 397.192 45.5955 396.553 45.5955Z" fill="#DADADA"/>
<path d="M341.48 45.5955C340.842 45.5955 340.198 45.6102 339.539 45.5955C338.36 45.5409 337.592 44.8249 337.564 43.6382V39.7902C337.592 38.6249 338.36 37.8315 339.526 37.8209C340.842 37.7782 342.166 37.7782 343.466 37.8209C344.595 37.8315 345.359 38.5809 345.391 39.7302C345.44 41.0449 345.44 42.3582 345.391 43.6835C345.359 44.8569 344.595 45.5609 343.404 45.5955C342.763 45.6102 342.119 45.5955 341.48 45.5955Z" fill="#DADADA"/>
<path d="M30 30.1285V107.893L321.897 107.937V30.1285H30Z" fill="#FFD000"/>
<path d="M212.495 66.7741C211.507 66.7741 210.471 67.0074 209.793 67.2434V79.7768C210.311 79.9168 211.301 80.0501 212.289 80.0501C215.851 80.0501 217.917 77.5528 217.917 73.2434C217.917 69.1261 215.935 66.7741 212.495 66.7741ZM211.705 85.6074C207.551 85.6074 203.51 84.8141 201.195 83.9114V51.0234H209.793V62.1074C210.885 61.6968 212.751 61.4021 214.235 61.4021C221.495 61.4021 226.497 65.4514 226.497 72.6448C226.497 81.4128 221.261 85.6074 211.705 85.6074Z" fill="#1D1D1B"/>
<path d="M243.684 74.3164C239.052 74.4884 235.56 74.9404 235.56 77.7111C235.56 79.6311 237.503 80.6577 240.576 80.6577C241.767 80.6577 243.132 80.4884 243.684 80.3057V74.3164ZM240.834 85.6084C231.995 85.6084 227.583 82.9057 227.583 77.8897C227.583 71.6711 235.211 70.2417 243.684 69.8817V68.9337C243.684 67.1004 242.12 66.2057 239.214 66.2057C236.506 66.2057 233.263 66.9591 231.246 67.6617L229.166 62.8711C231.658 62.0497 235.131 61.0124 240.259 61.0124C247.898 61.0124 251.788 63.6164 251.788 69.8297V83.9244C249.632 84.8164 245.311 85.6084 240.834 85.6084Z" fill="#1D1D1B"/>
<path d="M270.815 85.0835V69.9182C270.815 67.9422 269.708 66.6742 266.62 66.6742C265.04 66.6742 263.632 67.2435 263.632 67.2435V85.0835H255.039V62.8688C258.154 61.8635 261.867 61.0115 266.744 61.0115C275.55 61.0115 279.422 63.9982 279.422 69.0808V85.0835H270.815Z" fill="#1D1D1B"/>
<path d="M299.909 85.0835L291.327 73.4288H291.214V85.0835H282.717V51.0235H291.214V71.7222H291.327L299.106 61.7102H308.77L300.017 72.5942L309.491 85.0835H299.909Z" fill="#1D1D1B"/>
<path d="M185.047 94.3921H176.007L180.268 85.0828L169.671 61.6974H179.015L184.718 78.3348L190.383 61.6974H199.703L185.047 94.3921Z" fill="#1D1D1B"/>
<path d="M140.355 53.6767H130.354L123.726 73.074L117.135 53.6767H107.127L102.59 85.082H110.767L113.389 63.4874L121.023 85.082H126.457L134.094 63.4874L136.713 85.082H144.899L140.355 53.6767Z" fill="#1D1D1B"/>
<path d="M162.032 74.3164C157.439 74.4884 153.935 74.9404 153.935 77.7111C153.935 79.6311 155.852 80.6577 158.946 80.6577C160.106 80.6577 161.464 80.4884 162.032 80.3057V74.3164ZM159.174 85.6084C150.356 85.6084 145.959 82.9057 145.959 77.8897C145.959 71.6711 153.572 70.2417 162.032 69.8817V68.9337C162.032 67.1004 160.475 66.2057 157.567 66.2057C154.867 66.2057 151.65 66.9591 149.624 67.6617L147.512 62.8711C150.04 62.0497 154.255 61.0124 158.62 61.0124C166.256 61.0124 170.122 63.6164 170.122 69.8297V83.9244C167.978 84.8164 163.688 85.6084 159.174 85.6084Z" fill="#1D1D1B"/>
<path d="M68.5488 93.4365C55.2675 93.4365 44.4982 82.6645 44.4982 69.3752C44.4982 56.0779 55.2675 45.3072 68.5488 45.3072C81.8502 45.3072 92.6115 56.0779 92.6115 69.3752C92.6115 82.6645 81.8502 93.4365 68.5488 93.4365ZM68.5488 43.1805C54.1155 43.1805 42.4102 54.9179 42.4102 69.3752C42.4102 83.8272 54.1155 95.5259 68.5488 95.5259C83.0128 95.5259 94.7195 83.8272 94.7195 69.3752C94.7195 54.9179 83.0128 43.1805 68.5488 43.1805Z" fill="#1D1D1B"/>
<path d="M58.1202 68.1631C56.2762 67.7005 54.6069 69.8805 53.6855 71.5298C54.0109 69.2711 56.7962 65.5698 58.1202 68.1631Z" fill="#1D1D1B"/>
<path d="M54.0098 68.2021C54.6484 66.0475 56.1258 65.2395 56.9284 65.8688C55.8751 66.2248 55.0604 66.8541 54.0098 68.2021Z" fill="#1D1D1B"/>
<path d="M58.8005 71.6585C59.7618 70.8411 59.6458 69.6198 58.1578 69.2158C57.0498 68.9345 54.6911 70.9465 54.4111 73.1611C55.3685 71.9425 58.1231 69.6798 58.8005 71.6585Z" fill="#1D1D1B"/>
<path d="M73.8152 77.3691C73.9899 74.5385 71.2126 73.2145 70.7032 70.3091C70.1726 67.3971 75.0072 62.7771 71.9512 58.0358C77.6819 62.6451 73.1832 65.3891 76.0979 69.2465C74.9766 68.9051 73.8619 67.9011 73.5392 67.3731C71.9112 69.5025 77.4739 72.4251 73.8152 77.3691Z" fill="#1D1D1B"/>
<path d="M64.568 54.5431C65.2387 54.5431 66.416 55.0364 65.92 55.5724C64.3587 57.0338 62.2014 56.4431 60.4854 57.9604C61.1894 56.0778 64.3054 55.7911 64.568 54.5431Z" fill="#1D1D1B"/>
<path d="M62.6017 60.799C62.4071 60.799 62.2017 60.5163 62.1684 60.107C62.4351 60.8136 63.1084 60.491 62.7204 59.495C62.9764 59.5163 63.3457 59.5163 64.0591 59.495C63.3457 59.8923 62.9991 60.799 62.6017 60.799ZM69.7311 56.6483C70.4204 55.8683 69.7817 54.8723 67.0711 54.5416C69.8937 55.9443 65.3351 56.235 65.1617 58.595C63.6844 59.1896 62.4631 58.2203 61.7337 58.8803C61.0044 59.5296 60.1924 59.1256 60.4257 58.3216C59.5511 58.791 59.7351 59.9856 60.5871 60.323C60.7471 60.4123 60.8817 60.5563 60.7657 60.6696C59.8417 61.5443 59.3937 62.3043 60.3831 63.171C60.8817 62.1883 61.1644 61.839 61.7604 61.3576C62.3084 61.743 63.2657 61.4736 64.5671 60.075C64.6457 59.9856 64.7204 60.0216 64.6964 60.107C63.6537 63.6723 61.0044 64.2376 60.1631 64.0763C60.6697 64.8296 64.0364 65.3323 64.4604 63.8136C65.4191 60.451 68.6657 58.9443 65.8591 58.999C66.6151 58.103 69.1551 57.2816 69.7311 56.6483Z" fill="#1D1D1B"/>
<path d="M71.162 54.8339C72.5273 55.6886 73.1446 56.2832 74.07 57.3379C74.2273 55.8952 73.3833 53.0619 72.206 52.3712C71.654 52.1059 70.9033 54.0672 71.162 54.8339Z" fill="#1D1D1B"/>
<path d="M49.373 66.4253C50.241 64.1266 52.3837 61.3586 55.877 59.2813C56.681 57.1946 56.4197 55.7933 64.825 52.58C65.0304 51.3106 64.9797 49.8186 65.3704 49.8186C65.6957 49.8186 66.9437 50.3813 67.841 51.6866C68.2264 51.6013 68.529 51.5666 68.7584 51.5546C68.905 50.8266 69.425 48.8426 70.0677 47.7893C70.6904 46.8693 71.8397 46.7533 73.3557 48.008C74.9237 49.2986 76.017 49.8186 78.1717 52.58C79.9944 53.3613 82.8344 54.4226 85.2904 57.3973C84.225 56.7213 83.0117 56.4573 82.0197 56.324C84.021 58.1026 85.3557 60.9706 84.325 65.2306C83.9384 61.2586 81.037 59.5986 79.265 58.36C80.2197 61.7133 76.017 60.54 74.745 58.0386C75.1744 58.1706 75.6157 58.1413 75.873 57.9706C75.7437 52.8813 73.3117 49.9226 72.2677 49.0653C70.9024 47.9106 70.1464 50.6466 69.705 52.728C69.537 53.392 68.949 53.8813 68.2264 53.8706C68.3784 53.62 68.5517 52.96 68.589 52.7373C66.4637 52.92 64.0757 54.1546 62.6424 54.836C58.897 56.4773 57.9677 57.32 57.161 60.1813C54.1997 61.4013 50.7997 64.8 49.373 66.4253Z" fill="#1D1D1B"/>
<path d="M67.9375 65.7146C68.3602 66.1866 70.7988 69.9172 67.9548 74.6079C68.7402 71.1412 66.5602 64.5159 64.1802 67.9012C65.8148 68.6079 66.3535 69.9266 65.9215 71.2052C65.2362 69.9572 63.5802 68.6159 61.8882 69.1932C61.0588 69.4626 59.9682 69.4626 59.1362 68.2572C58.0722 66.6719 59.8615 64.7639 56.7988 64.8932C60.4882 63.0119 59.4522 66.6719 61.2135 67.1239C63.2908 67.5932 63.5708 66.3132 64.2762 65.4892C64.8242 64.7759 65.9215 64.2839 67.0295 64.9972C67.5748 63.3732 66.8002 60.7972 68.2988 59.4492C68.8522 58.9599 70.6748 59.0346 71.5842 59.7466C70.2535 59.7372 68.7268 61.2932 67.9375 65.7146Z" fill="#1D1D1B"/>
<path d="M59.4793 80.6833C59.2887 80.526 58.802 79.894 58.8287 79.2126C59.4793 79.6326 60.3033 79.8006 60.3033 79.8006C60.3033 79.8006 59.906 80.486 59.4793 80.6833ZM63.1913 76.578C63.582 76.674 63.89 76.958 64.2153 76.7246C64.5673 76.4526 64.1913 75.4766 63.9487 75.1433C64.2767 75.0966 65.5513 75.206 65.502 75.6846C65.3447 76.8753 64.59 77.31 62.7207 78.178C63.0553 77.8873 63.0007 77.2446 63.1913 76.578ZM55.818 75.5913C55.9687 75.206 56.6713 74.7393 56.958 74.7233C56.8487 75.7633 57.2593 77.2313 57.2593 77.2313C57.2593 77.2313 55.818 76.294 55.818 75.5913ZM51.0593 70.9006C50.4247 70.394 49.374 69.3166 49.242 68.9033C49.374 68.7486 49.9327 68.1126 50.662 67.9286C51.1713 67.8033 51.5007 68.0886 51.454 68.2766C51.346 68.4273 50.9047 68.4273 50.7713 68.814C50.558 69.4633 51.2353 69.622 51.346 69.918C51.454 70.0726 51.6327 70.514 51.0593 70.9006ZM86.962 59.242C88.8273 65.8166 88.29 72.174 86.354 75.9793C86.59 73.6033 84.4847 70.1406 85.3553 66.078C81.394 69.918 87.5793 79.3686 78.59 85.5286C79.9247 83.374 80.5393 77.9966 80.0953 76.0433C80.5393 76.2313 81.0393 76.814 81.3473 77.3353C82.1047 74.878 82.1727 71.374 80.77 67.8686C81.2527 67.9033 82.258 68.3833 82.7127 68.7926C82.95 63.338 78.9593 62.9153 78.194 61.4526C78.194 63.0206 80.0953 64.386 80.4073 66.45C79.0953 65.8166 78.1527 65.774 77.474 65.8166C78.4873 66.566 80.7233 70.9006 80.0953 74.402C79.0953 73.594 78.194 73.218 77.2193 73.1633C78.4313 74.938 78.9287 79.6726 77.4447 81.798C77.3753 81.334 77.2113 79.9166 76.6393 79.3686C75.9527 81.9673 73.8887 83.0726 72.4753 83.4233C74.2287 81.566 73.8887 78.3353 71.3167 77.4353C68.9753 76.674 66.042 78.234 64.8513 83.7366C63.1913 84.226 58.1593 83.166 61.1647 79.9166C63.0007 80.526 67.63 77.4086 67.318 75.23C66.8913 72.1913 64.13 71.138 61.8887 71.1633C59.222 71.202 57.3713 73.7526 55.1513 74.8553C53.2927 74.542 52.6727 74.294 51.7127 71.8153C51.6167 70.306 53.214 69.2473 53.1607 67.6993C51.8633 67.942 51.5513 65.9846 48.954 68.0406C48.7793 67.6846 49.1113 66.774 49.1113 66.774C48.154 67.63 47.9647 68.6353 47.958 68.882C48.406 69.786 49.0727 70.622 50.342 71.438C51.838 75.5166 53.3953 75.9446 55.0327 76.098C55.2673 76.4633 56.4887 77.8873 57.9953 78.1166C57.7513 77.3713 57.6793 75.206 57.8327 74.6833C61.1113 71.4006 63.582 73.382 63.89 74.258C60.9513 74.878 63.018 81.0966 58.206 78.3353C57.9953 78.9726 58.282 80.5806 58.8913 81.506C59.3633 85.7713 64.746 84.726 66.4153 85.4713C66.2287 81.2966 68.5273 78.282 70.514 78.518C72.4753 78.758 73.01 82.022 69.6313 85.0593C70.4673 85.5286 74.0807 84.906 75.914 83.5673C76.0993 84.6313 74.7447 87.75 73.0607 89.9673C87.25 86.67 93.5967 71.274 86.962 59.242Z" fill="#1D1D1B"/>
<path d="M369.798 140.573L356.969 116.069H382.63L369.798 140.573Z" fill="#FFD000"/>
<path d="M390.523 116.068C388.925 118.757 370.89 151.439 369.213 154.101C365.774 148.376 351.558 121.833 348.106 116.068H330.414C335.442 124.817 356.203 161.429 361.165 170.128V199.892H377.218V170.128C379.351 166.448 406.077 119.599 408.214 116.068H390.523Z" fill="white"/>
<path d="M258.414 151.273C257.867 153.049 257.062 154.596 255.956 155.981C254.856 157.364 253.419 158.449 251.627 159.256C249.922 160.064 247.831 160.45 245.463 160.45H224.116V130.173H243.712C246.253 130.173 248.475 130.664 250.383 131.56C252.306 132.484 253.892 133.648 255.216 135.133C256.5 136.556 257.489 138.233 258.203 140.104C258.868 141.978 259.219 143.861 259.219 145.78C259.219 147.688 258.931 149.541 258.414 151.273ZM272.919 134.133C271.347 130.506 269.231 127.365 266.567 124.69C263.887 122 260.723 119.898 257.09 118.325C253.45 116.768 249.573 115.961 245.463 115.961H208.076V199.893H224.116V174.888H242.831C248.176 174.888 252.92 174.138 256.986 172.638C261.06 171.177 264.439 169.101 267.124 166.445C269.782 163.858 271.831 160.746 273.184 157.248C274.579 153.73 275.273 149.889 275.273 145.78C275.273 141.662 274.496 137.78 272.919 134.133Z" fill="white"/>
<path d="M331.156 160.008L317.142 165.932L307.818 147.331L293.561 175.876L292.653 177.696L291.15 180.683L281.569 199.828H264.15L307.033 116.025H308.638L331.156 160.008Z" fill="white"/>
<path d="M351.504 199.826H334.091L323.255 178.2L320.223 172.089L317.143 165.932L331.155 160.006L327.592 170.32L340.611 178.486L344.932 186.953L351.504 199.826Z" fill="white"/>
<path d="M142.687 158.957H164.734C166.195 158.957 167.701 158.683 169.254 158.119C170.811 157.533 172.215 156.637 173.405 155.453C174.647 154.269 175.639 152.817 176.446 151.048C177.262 149.281 177.638 147.233 177.638 144.867C177.638 143.665 177.511 142.211 177.197 140.507C176.891 138.82 176.278 137.225 175.353 135.701C174.47 134.159 173.162 132.847 171.486 131.764C169.819 130.717 167.565 130.176 164.734 130.176H142.687V158.957ZM142.687 199.892H126.633V115.965H164.759C169.059 115.965 172.971 116.667 176.526 118.095C180.078 119.524 183.15 121.497 185.67 124.055C188.19 126.624 190.155 129.673 191.577 133.248C192.982 136.777 193.693 140.66 193.693 144.867C193.693 151.208 192.106 156.736 188.934 161.488C185.755 166.217 181.539 169.619 176.27 171.699C183.31 181.017 190.274 190.437 197.143 199.892H177.981C174.647 195.541 171.362 191.152 168.162 186.707C164.974 182.28 161.771 177.776 158.551 173.193H142.687V199.892Z" fill="white"/>
<path d="M96.0406 168.188C94.6526 171.415 92.7846 174.271 90.458 176.698C90.3033 176.855 90.1446 177.035 89.9713 177.139C89.8166 177.252 89.6793 177.422 89.5246 177.566C89.242 177.851 88.9006 178.126 88.5753 178.436H88.55C87.582 179.23 86.562 179.983 85.498 180.682C84.9673 181.019 84.382 181.32 83.8126 181.631C83.5473 181.799 83.2633 181.915 82.966 182.083C82.69 182.214 82.4313 182.32 82.138 182.471C81.7046 182.675 81.314 182.836 80.9273 182.97H80.8753C80.4846 183.164 80.0726 183.304 79.6446 183.422C77.186 184.228 74.6206 184.646 71.91 184.646C68.318 184.646 64.93 183.931 61.758 182.471C60.9513 182.131 60.194 181.755 59.4526 181.32C57.9713 180.506 56.594 179.516 55.322 178.436C54.9806 178.126 54.6486 177.878 54.3566 177.566C54.1993 177.45 54.0526 177.323 53.9193 177.139C53.73 177.035 53.5766 176.855 53.4393 176.698C51.082 174.271 49.1926 171.415 47.8046 168.188C46.446 164.971 45.7393 161.572 45.7393 157.96C45.7393 154.351 46.446 150.92 47.8046 147.65C49.1926 144.403 51.082 141.572 53.4393 139.16C53.73 138.866 54.0526 138.531 54.3846 138.315C54.6766 137.976 54.9806 137.714 55.322 137.456C56.594 136.355 57.9713 135.415 59.4526 134.562C60.194 134.16 60.9513 133.78 61.758 133.414C64.93 131.972 68.318 131.272 71.91 131.272C74.6206 131.272 77.186 131.679 79.6446 132.482C80.0726 132.61 80.4846 132.766 80.8753 132.919H80.9273C81.314 133.079 81.7046 133.264 82.138 133.414C82.69 133.702 83.2633 133.952 83.8126 134.284C84.382 134.562 84.9673 134.899 85.498 135.232C86.562 135.91 87.582 136.652 88.55 137.456H88.5753C88.8686 137.714 89.214 138.011 89.4953 138.315C89.8166 138.531 90.1446 138.866 90.458 139.16C92.7846 141.572 94.6526 144.403 96.0406 147.65C97.4206 150.92 98.142 154.351 98.142 157.96C98.142 161.572 97.4206 164.971 96.0406 168.188ZM110.553 141.624C108.333 136.532 105.373 132.106 101.574 128.31C100.143 126.898 98.6406 125.576 97.002 124.382C94.358 122.391 91.418 120.662 88.222 119.272C87.598 119.003 86.9673 118.755 86.3046 118.518C85.6553 118.254 84.9673 118.055 84.3246 117.836C80.3793 116.574 76.3033 115.966 71.9993 115.966C66.1726 115.966 60.7393 117.066 55.6606 119.272C52.4913 120.662 49.5193 122.366 46.8593 124.382C45.2726 125.576 43.7966 126.898 42.37 128.31C38.5753 132.106 35.5553 136.532 33.3353 141.624C31.126 146.73 30.0353 152.194 30.0353 157.96V158.792C30.0006 159.051 30.0353 159.308 30.054 159.592C30.0353 159.664 30.054 159.75 30.054 159.828C30.2326 164.903 31.0953 169.723 32.6753 174.28C34.11 178.436 36.1873 182.131 38.8806 185.395C39.5073 186.192 40.1553 186.894 40.826 187.588C44.4993 191.394 49.1433 194.419 54.7433 196.615C59.6206 198.58 65.334 199.644 71.7846 199.878C71.886 199.918 71.9993 199.878 72.0646 199.878C78.566 199.644 84.254 198.58 89.1353 196.615C94.7473 194.419 99.354 191.394 103.051 187.588C103.743 186.894 104.382 186.192 105.003 185.395C107.695 182.131 109.769 178.436 111.21 174.28C112.766 169.723 113.642 164.903 113.818 159.828V159.592C113.818 159.308 113.859 159.051 113.859 158.792C113.885 158.463 113.885 158.23 113.885 157.96C113.885 152.194 112.766 146.73 110.553 141.624Z" fill="white"/>
<path d="M60.7402 156.244C60.7402 156.244 79.0829 155.981 87.6496 166.05C96.2482 176.11 103.29 196.06 117.912 197.917C117.912 197.917 96.5282 205.818 81.3962 182.45C74.2762 169.804 71.0282 157.921 60.7402 156.244Z" fill="white"/>
<path d="M340.611 178.486L323.255 178.2L292.652 177.693L293.56 175.876L317.142 165.932L331.155 160.008L335.89 169.278V169.306L340.611 178.486Z" fill="#FFD000"/>
</svg>
