<svg width="180" height="180" viewBox="0 0 180 180" fill="none" xmlns="http://www.w3.org/2000/svg">
<path d="M143.505 0H36.4987C16.3726 0 0 16.3729 0 36.496V143.504C0 163.631 16.3726 180 36.4987 180H143.505C163.624 180 180 163.627 180 143.504V36.496C180 16.3729 163.624 0 143.505 0Z" fill="#015ABF"/>
<path d="M73.1402 71.5724H63.8173C61.0835 71.5724 57.54 73.5067 56.5169 76.0814L57.4519 71.1455H46.0592L40.998 99.5245H52.4043L55.5548 81.5594H67.8249C67.8249 81.5594 66.2565 90.4555 65.5586 94.4395C64.8607 98.4235 67.5675 99.3924 68.9022 99.3924H74.8679L78.7569 77.3213C78.4351 74.1572 76.3009 71.5724 73.1402 71.5724Z" fill="white"/>
<path d="M37.8475 71.1455L35.7065 83.3244L44.3722 71.1455H37.8475Z" fill="white"/>
<path d="M51.3743 26.6953H13.2191L11.5625 36.0996H24.8794L19.5438 66.3995H31.0314L36.3941 36.0996H49.7143L51.3743 26.6953Z" fill="white"/>
<path d="M59.2675 57.0969L60.941 47.6146H50.717L49.0537 57.0969H59.2675ZM43.1626 66.3996C40.0019 66.3996 37.8744 63.8114 38.43 60.6472L41.3637 44.0541C41.9125 40.8934 44.9648 38.3052 48.1153 38.3052H66.822C69.9827 38.3052 72.1169 40.8934 71.541 44.0541L68.6276 60.6472C68.0653 63.8114 65.0231 66.3996 61.8658 66.3996H43.1626Z" fill="white"/>
<path d="M118.416 57.097L120.093 47.6147H134.9L136.543 38.312H117.495C114.334 38.312 111.275 40.8935 110.723 44.0542L107.799 60.6473C107.24 63.8114 109.371 66.3963 112.542 66.3963H131.062L132.695 57.097H118.416Z" fill="white"/>
<path d="M95.1326 57.0969H82.5983L85.9047 38.3086H75.9178L71.9915 60.6473C71.4326 63.8114 73.56 66.3962 76.7207 66.3962H86.4568C89.6175 66.3962 92.2023 64.516 94.2451 62.0837C94.2451 62.0837 95.3596 65.3359 96.962 66.0642C98.5745 66.8028 103.446 66.63 103.446 66.63L108.446 38.312H98.4526L95.1326 57.0969Z" fill="white"/>
<path d="M167.144 38.4475H157.828C155.088 38.4475 152.442 40.3853 151.415 42.9566L154.098 27.6982H143.597L136.774 66.3962H147.286L150.447 48.4379H161.839C161.839 48.4379 160.274 57.3273 159.576 61.318C158.872 65.2918 161.585 66.2675 162.903 66.2675H167.991L171.88 44.1965C172.432 41.0323 170.308 38.4475 167.144 38.4475Z" fill="white"/>
<path d="M129.697 108.966C125.449 108.966 122.583 105.47 123.325 101.225L127.265 78.9206C128.007 74.6589 132.109 71.1797 136.374 71.1797H160.169C164.407 71.1797 167.29 74.6589 166.538 78.9206L162.602 101.225C161.849 105.467 157.754 108.966 153.502 108.966H129.697ZM151.866 98.539L154.867 81.6037H138L135.006 98.539H151.866Z" fill="white"/>
<path d="M106.624 98.5389H89.7429L92.7342 81.6037H120.096L121.902 71.1763H91.1149C86.8532 71.1763 82.7677 74.6555 82.019 78.9172L78.0792 101.222C77.3339 105.463 80.1897 108.963 84.4446 108.963H108.253C112.511 108.963 116.61 105.467 117.352 101.222L119.761 87.5322H108.555L106.624 98.5389Z" fill="white"/>
<path d="M83.2485 122.334L68.9085 151.892H59.8093L58.7286 134.001L50.0426 151.892H40.8926L39.1445 122.334H45.6217L46.7532 145.516L57.9088 122.334H64.4876L65.6191 145.516L76.7747 122.334H83.2485Z" fill="#FDDB00"/>
<path d="M110.336 151.892H104.015L110.285 122.334H116.607L110.336 151.892Z" fill="#FDDB00"/>
<path d="M120.719 151.892H114.398L120.669 122.334H126.99L120.719 151.892Z" fill="#FDDB00"/>
<path d="M164.414 151.892H159.325C156.961 151.892 155.318 151.662 154.389 151.197C153.465 150.733 153 149.802 153 148.396C153 147.606 153.119 146.682 153.36 145.621L158.295 122.334H164.617L163.025 129.685H169.143L167.96 135.031H161.947L160.148 143.463C159.976 144.32 159.891 144.886 159.891 145.16C159.891 145.743 160.087 146.119 160.48 146.292C160.873 146.465 161.67 146.549 162.872 146.549H165.545L164.414 151.892Z" fill="#FDDB00"/>
<path d="M83.2485 122.334L68.9085 151.892H59.8093L58.7286 134.001L50.0426 151.892H40.8926L39.1445 122.334H45.6217L46.7532 145.516L57.9088 122.334H64.4876L65.6191 145.516L76.7747 122.334H83.2485Z" fill="#FDDB00"/>
<path d="M110.336 151.892H104.015L110.285 122.334H116.607L110.336 151.892Z" fill="#FDDB00"/>
<path d="M120.719 151.892H114.398L120.669 122.334H126.99L120.719 151.892Z" fill="#FDDB00"/>
<path d="M164.414 151.892H159.325C156.961 151.892 155.318 151.662 154.389 151.197C153.465 150.733 153 149.802 153 148.396C153 147.606 153.119 146.682 153.36 145.621L158.295 122.334H164.617L163.025 129.685H169.143L167.96 135.031H161.947L160.148 143.463C159.976 144.32 159.891 144.886 159.891 145.16C159.891 145.743 160.087 146.119 160.48 146.292C160.873 146.465 161.67 146.549 162.872 146.549H165.545L164.414 151.892Z" fill="#FDDB00"/>
<path d="M83.2485 122.334L68.9085 151.892H59.8093L58.7286 134.001L50.0426 151.892H40.8926L39.1445 122.334H45.6217L46.7532 145.516L57.9088 122.334H64.4876L65.6191 145.516L76.7747 122.334H83.2485Z" fill="#FDDB00"/>
<path d="M110.336 151.892H104.015L110.285 122.334H116.607L110.336 151.892Z" fill="#FDDB00"/>
<path d="M120.719 151.892H114.398L120.669 122.334H126.99L120.719 151.892Z" fill="#FDDB00"/>
<path d="M164.414 151.892H159.325C156.961 151.892 155.318 151.662 154.389 151.197C153.465 150.733 153 149.802 153 148.396C153 147.606 153.119 146.682 153.36 145.621L158.295 122.334H164.617L163.025 129.685H169.143L167.96 135.031H161.947L160.148 143.463C159.976 144.32 159.891 144.886 159.891 145.16C159.891 145.743 160.087 146.119 160.48 146.292C160.873 146.465 161.67 146.549 162.872 146.549H165.545L164.414 151.892Z" fill="#FDDB00"/>
<path d="M35.2014 130.352C34.2765 129.871 32.6301 129.634 30.2655 129.634H21.2205C18.6154 129.634 16.637 130.122 15.2819 131.098C13.9268 132.073 13.0122 133.693 12.5311 135.956L10.5256 145.57C10.3867 146.153 10.2851 146.675 10.2174 147.139C10.1496 147.603 10.1157 148.023 10.1157 148.399C10.1157 149.087 10.2174 149.642 10.424 150.069C10.6306 150.499 10.9728 150.848 11.4505 151.123C11.9315 151.397 12.5819 151.583 13.4051 151.688C14.2283 151.79 15.2548 151.844 16.4879 151.844H31.8577L32.9892 146.549H20.0382C18.839 146.549 18.0429 146.454 17.6465 146.268C17.2535 146.078 17.057 145.695 17.057 145.109C17.057 144.699 17.1248 144.151 17.2637 143.466L17.2671 143.449H19.9399L19.9366 143.466H34.639L36.2312 135.963C36.4717 134.865 36.5903 133.923 36.5903 133.134C36.5903 131.758 36.1262 130.834 35.2014 130.352ZM29.649 138.114H22.5823V138.107H18.3918C18.5273 137.426 18.6899 136.877 18.8796 136.467C19.0693 136.057 19.3064 135.739 19.6012 135.515C19.8925 135.292 20.2685 135.146 20.7327 135.078C21.1968 135.011 21.7693 134.977 22.4536 134.977H27.491C29.1374 134.977 29.9573 135.492 29.9573 136.518C29.9573 136.623 29.8556 137.155 29.649 138.114Z" fill="#FDDB00"/>
<path d="M103.114 131.43C102.89 130.986 102.531 130.634 102.033 130.377C101.539 130.119 100.885 129.94 100.082 129.838C99.2756 129.736 98.2729 129.682 97.0736 129.682H81.7546L80.6232 135.028H93.5776C94.7768 135.028 95.5729 135.113 95.9693 135.285C96.3622 135.458 96.5621 135.834 96.5621 136.417C96.5621 136.691 96.4774 137.254 96.3046 138.107H91.2401V138.114H86.2805C84.8069 138.114 83.5806 138.192 82.6049 138.345C81.6293 138.497 80.8129 138.798 80.1624 139.242C79.512 139.689 78.9971 140.323 78.621 141.146C78.245 141.969 77.9029 143.047 77.5946 144.385L77.3371 145.618C77.0966 146.682 76.978 147.607 76.978 148.393C76.978 149.111 77.0898 149.697 77.3134 150.141C77.537 150.588 77.8961 150.937 78.3941 151.194C78.8887 151.452 79.5425 151.631 80.3488 151.733C81.155 151.834 82.1544 151.889 83.357 151.889H99.7025L103.097 135.953C103.334 134.892 103.456 133.968 103.456 133.178C103.449 132.46 103.337 131.877 103.114 131.43ZM84.9966 146.546C84.0718 146.546 83.6077 146.153 83.6077 145.364C83.6077 144.883 83.794 144.446 84.1734 144.053C84.5494 143.66 85.0474 143.46 85.664 143.46H92.5003L92.5037 143.443H95.1664L94.5058 146.543H84.9966V146.546Z" fill="#FDDB00"/>
<path d="M150.69 130.352C149.765 129.871 148.119 129.634 145.754 129.634H136.706C134.101 129.634 132.122 130.122 130.767 131.098C129.412 132.073 128.498 133.693 128.016 135.956L126.011 145.57C125.872 146.153 125.77 146.675 125.703 147.139C125.635 147.603 125.601 148.023 125.601 148.399C125.601 149.087 125.703 149.642 125.909 150.069C126.116 150.499 126.458 150.848 126.936 151.123C127.417 151.397 128.067 151.583 128.89 151.688C129.714 151.79 130.74 151.844 131.977 151.844H147.346L148.478 146.549H135.524C134.324 146.549 133.525 146.454 133.132 146.268C132.739 146.078 132.539 145.695 132.539 145.109C132.539 144.699 132.607 144.151 132.746 143.466L132.749 143.449H135.422L135.419 143.466H150.121L151.713 135.963C151.954 134.865 152.072 133.923 152.072 133.134C152.076 131.758 151.615 130.834 150.69 130.352ZM145.138 138.114H138.481V138.107H133.881C134.016 137.426 134.179 136.877 134.368 136.467C134.555 136.057 134.795 135.739 135.087 135.515C135.378 135.292 135.754 135.146 136.218 135.078C136.682 135.011 137.255 134.977 137.939 134.977H142.976C144.619 134.977 145.443 135.492 145.443 136.518C145.446 136.623 145.344 137.155 145.138 138.114Z" fill="#FDDB00"/>
</svg>
