<svg width="180" height="180" viewBox="0 0 180 180" fill="none" xmlns="http://www.w3.org/2000/svg">
<path d="M139.049 1.62567e-06H40.9525C18.3743 1.62567e-06 0 18.3793 0 40.9574V139.043C0 161.623 18.3743 180 40.9525 180H139.049C161.632 180 180 161.623 180 139.043V40.9574C180 18.3793 161.632 1.62567e-06 139.049 1.62567e-06Z" fill="white"/>
<path d="M139.354 6.98716H40.6518C22.092 6.98716 6.98389 22.0935 6.98389 40.6495V139.348C6.98389 157.911 22.092 173.01 40.6518 173.01H139.354C157.911 173.01 173.017 157.911 173.017 139.348V40.6495C173.017 22.0935 157.911 6.98716 139.354 6.98716Z" fill="#005ABE"/>
<path d="M71.5634 74.7697H63.1979C60.7426 74.7697 57.5637 76.5053 56.6477 78.8143L57.4871 74.3839H47.2642L42.7227 99.8511H52.9583L55.7858 83.7306H66.797C66.797 83.7306 65.3902 91.7138 64.7619 95.2881C64.1345 98.8635 66.5643 99.7313 67.765 99.7313H73.1194L76.6037 79.9275C76.317 77.0865 74.3996 74.7697 71.5634 74.7697Z" fill="white"/>
<path d="M39.8905 74.3847L37.9692 85.314L45.7456 74.3847H39.8905Z" fill="white"/>
<path d="M52.0304 34.4997H17.792L16.3047 42.9374H28.2565L23.4655 70.1284H33.7768L38.5903 42.9374H50.5421L52.0304 34.4997Z" fill="white"/>
<path d="M59.1149 61.781L60.616 53.2727H51.4396L49.9473 61.781H59.1149ZM44.6607 70.1284C41.8244 70.1284 39.9159 67.8067 40.4126 64.9667L43.0447 50.0773C43.5366 47.2411 46.2766 44.9165 49.104 44.9165H65.8899C68.7271 44.9165 70.6435 47.2411 70.1261 50.0773L67.5098 64.9667C67.0052 67.8067 64.2749 70.1284 61.4426 70.1284H44.6607Z" fill="white"/>
<path d="M112.195 61.7811L113.7 53.2727H126.988L128.464 44.9224H111.367C108.531 44.9224 105.788 47.2412 105.292 50.0773L102.667 64.9667C102.168 67.8067 104.08 70.1255 106.925 70.1255H123.545L125.012 61.7811H112.195Z" fill="white"/>
<path d="M91.3005 61.7811H80.0517L83.0195 44.9224H74.0572L70.5337 64.9667C70.032 67.8068 71.9405 70.1255 74.7768 70.1255H83.5153C86.3516 70.1255 88.6714 68.439 90.5043 66.2537C90.5043 66.2537 91.5047 69.1723 92.941 69.8251C94.3871 70.4887 98.7589 70.3327 98.7589 70.3327L103.244 44.9224H94.2762L91.3005 61.7811Z" fill="white"/>
<path d="M155.922 45.0456H147.561C145.101 45.0456 142.726 46.7861 141.807 49.0902L144.215 35.3985H134.789L128.667 70.124H138.101L140.937 54.0085H151.16C151.16 54.0085 149.756 61.9858 149.13 65.566C148.497 69.1315 150.931 70.0072 152.114 70.0072H156.681L160.171 50.2034C160.666 47.3624 158.762 45.0456 155.922 45.0456Z" fill="white"/>
<path d="M122.316 108.323C118.505 108.323 115.93 105.184 116.596 101.378L120.132 81.3624C120.798 77.5377 124.478 74.4149 128.306 74.4149H149.659C153.463 74.4149 156.048 77.5377 155.374 81.3624L151.842 101.378C151.169 105.184 147.494 108.323 143.677 108.323H122.316ZM142.21 98.9682L144.902 83.7725H129.765L127.077 98.9682H142.21Z" fill="white"/>
<path d="M101.612 98.9667H86.4628L89.1469 83.771H113.7L115.32 74.4135H87.6919C83.868 74.4135 80.2002 77.5372 79.5307 81.361L75.9935 101.377C75.3239 105.185 77.8892 108.321 81.7052 108.321H103.07C106.891 108.321 110.571 105.185 111.236 101.377L113.399 89.0918H103.342L101.612 98.9667Z" fill="white"/>
<path d="M84.0657 120.625L70.7219 148.125H62.2563L61.2519 131.482L53.1692 148.125H44.6565L43.0308 120.625H49.0567L50.1091 142.194L60.4872 120.625H66.6093L67.6618 142.194L78.0398 120.625H84.0657Z" fill="#FFDC00"/>
<path d="M109.267 148.125H103.385L109.219 120.625H115.102L109.267 148.125Z" fill="#FFDC00"/>
<path d="M118.929 148.125H113.046L118.88 120.625H124.762L118.929 148.125Z" fill="#FFDC00"/>
<path d="M159.58 148.125H154.845C152.645 148.125 151.116 147.909 150.254 147.479C149.393 147.049 148.963 146.18 148.963 144.873C148.963 144.139 149.075 143.279 149.298 142.29L153.889 120.625H159.771L158.288 127.464H163.982L162.88 132.438H157.284L155.611 140.282C155.452 141.078 155.372 141.605 155.372 141.859C155.372 142.403 155.554 142.753 155.922 142.912C156.288 143.071 157.029 143.151 158.146 143.151H160.633L159.58 148.125Z" fill="#FFDC00"/>
<path d="M39.3605 128.086C38.4985 127.639 36.969 127.416 34.7689 127.416H26.3514C23.9285 127.416 22.0867 127.87 20.8271 128.779C19.5675 129.687 18.7144 131.195 18.2687 133.299L16.4034 142.242C16.2758 142.784 16.1805 143.27 16.1167 143.7C16.0519 144.131 16.0215 144.521 16.0215 144.871C16.0215 145.51 16.1167 146.027 16.3082 146.426C16.4986 146.825 16.8177 147.151 17.2644 147.407C17.7101 147.662 18.3168 147.837 19.0826 147.933C19.8473 148.028 20.8045 148.077 21.9522 148.077H36.2513L37.3038 143.151H25.2519C24.1346 143.151 23.3934 143.062 23.0282 142.888C22.66 142.712 22.4774 142.354 22.4774 141.811C22.4774 141.429 22.5413 140.919 22.6689 140.281L22.6718 140.267H25.1586L25.1566 140.281H38.8333L40.3177 133.299C40.5396 132.279 40.6525 131.402 40.6525 130.668C40.6525 129.393 40.2205 128.533 39.3605 128.086ZM34.1946 135.307H27.6208V135.303H23.7223C23.8499 134.668 24.0001 134.159 24.1759 133.777C24.3506 133.394 24.5744 133.099 24.8454 132.892C25.1154 132.685 25.4669 132.55 25.8969 132.485C26.3278 132.421 26.8609 132.39 27.4991 132.39H32.1869C33.7165 132.39 34.4822 132.868 34.4822 133.825C34.4822 133.921 34.386 134.415 34.1946 135.307Z" fill="#FFDC00"/>
<path d="M102.548 129.09C102.339 128.677 102.005 128.349 101.543 128.11C101.083 127.871 100.475 127.703 99.7268 127.608C98.9757 127.512 98.045 127.464 96.9288 127.464H82.6768L81.6244 132.437H93.6763C94.7925 132.437 95.5337 132.517 95.8999 132.678C96.2671 132.837 96.4507 133.188 96.4507 133.729C96.4507 133.983 96.3702 134.509 96.2111 135.303H91.4988V135.308H86.8855C85.5131 135.308 84.3733 135.379 83.4651 135.522C82.5561 135.665 81.7981 135.946 81.1944 136.359C80.5867 136.774 80.1086 137.363 79.7581 138.13C79.4076 138.895 79.0885 139.899 78.8019 141.142L78.5633 142.289C78.3395 143.278 78.2275 144.139 78.2275 144.872C78.2275 145.541 78.3316 146.085 78.5388 146.498C78.7459 146.913 79.0807 147.239 79.5441 147.479C80.0045 147.718 80.6112 147.885 81.3613 147.98C82.1094 148.076 83.042 148.125 84.1592 148.125H99.3675L102.525 133.299C102.747 132.311 102.86 131.449 102.86 130.717C102.86 130.048 102.754 129.506 102.548 129.09ZM85.6888 143.151C84.8288 143.151 84.3968 142.784 84.3968 142.051C84.3968 141.604 84.5726 141.199 84.924 140.831C85.2735 140.465 85.7369 140.282 86.3112 140.282H92.672L92.6739 140.266H95.1528L94.5363 143.151H85.6888Z" fill="#FFDC00"/>
<path d="M146.811 128.086C145.951 127.639 144.42 127.416 142.22 127.416H133.802C131.379 127.416 129.537 127.87 128.278 128.779C127.018 129.687 126.165 131.195 125.719 133.299L123.854 142.242C123.726 142.784 123.631 143.27 123.567 143.7C123.503 144.131 123.471 144.521 123.471 144.871C123.471 145.51 123.567 146.027 123.759 146.426C123.949 146.825 124.268 147.151 124.716 147.407C125.161 147.662 125.767 147.837 126.533 147.933C127.298 148.028 128.255 148.077 129.403 148.077H143.702L144.754 143.151H132.703C131.585 143.151 130.844 143.062 130.479 142.888C130.111 142.712 129.928 142.354 129.928 141.811C129.928 141.429 129.992 140.919 130.12 140.281L130.123 140.267H132.609L132.606 140.281H146.286L147.768 133.299C147.991 132.279 148.103 131.402 148.103 130.668C148.103 129.393 147.671 128.533 146.811 128.086ZM141.645 135.307H135.452V135.303H131.173C131.301 134.668 131.451 134.159 131.627 133.777C131.801 133.394 132.024 133.099 132.296 132.892C132.566 132.685 132.918 132.55 133.348 132.485C133.779 132.421 134.312 132.39 134.95 132.39H139.638C141.167 132.39 141.933 132.868 141.933 133.825C141.933 133.921 141.838 134.415 141.645 135.307Z" fill="#FFDC00"/>
</svg>
