<svg width="180" height="180" viewBox="0 0 180 180" fill="none" xmlns="http://www.w3.org/2000/svg">
<circle cx="90" cy="90" r="90" fill="white"/>
<circle cx="90" cy="90" r="83" fill="#005ABE"/>
<path d="M75.0461 76.662H68.2614C66.2701 76.662 63.6919 78.0697 62.949 79.9425L63.6298 76.3491H55.3386L51.6553 97.0049H59.9568L62.2499 83.93H71.1804C71.1804 83.93 70.0394 90.4049 69.5298 93.304C69.021 96.2039 70.9917 96.9077 71.9655 96.9077H76.3081L79.1339 80.8454C78.9014 78.5411 77.3464 76.662 75.0461 76.662Z" fill="white"/>
<path d="M49.358 76.3499L47.7998 85.2144L54.1067 76.3499H49.358Z" fill="white"/>
<path d="M59.2043 43.9999H31.4358L30.2295 50.8435H39.9228L36.0372 72.8975H44.4L48.3039 50.8435H57.9972L59.2043 43.9999Z" fill="white"/>
<path d="M64.9497 66.1271L66.1672 59.2262H58.7248L57.5145 66.1271H64.9497ZM53.2268 72.8975C50.9265 72.8975 49.3787 71.0144 49.7816 68.7109L51.9163 56.6345C52.3152 54.3341 54.5374 52.4487 56.8306 52.4487H70.4445C72.7456 52.4487 74.2998 54.3341 73.8802 56.6345L71.7583 68.7109C71.349 71.0144 69.1347 72.8975 66.8376 72.8975H53.2268Z" fill="white"/>
<path d="M107.999 66.1271L109.219 59.2261H119.996L121.193 52.4534H107.328C105.027 52.4534 102.803 54.3341 102.401 56.6344L100.271 68.7108C99.8661 71.0143 101.417 72.895 103.725 72.895H117.204L118.394 66.1271H107.999Z" fill="white"/>
<path d="M91.0531 66.1272H81.9299L84.3369 52.4536H77.0681L74.2104 68.711C73.8036 71.0145 75.3514 72.8952 77.6518 72.8952H84.739C87.0393 72.8952 88.9208 71.5273 90.4073 69.7549C90.4073 69.7549 91.2187 72.1221 92.3836 72.6516C93.5564 73.1898 97.102 73.0632 97.102 73.0632L100.74 52.4536H93.4664L91.0531 66.1272Z" fill="white"/>
<path d="M143.463 52.5535H136.683C134.687 52.5535 132.761 53.9653 132.016 55.834L133.969 44.729H126.324L121.358 72.894H129.01L131.31 59.8231H139.602C139.602 59.8231 138.463 66.2933 137.955 69.1971C137.441 72.0891 139.416 72.7993 140.375 72.7993H144.079L146.909 56.7369C147.311 54.4326 145.767 52.5535 143.463 52.5535Z" fill="white"/>
<path d="M116.208 103.876C113.117 103.876 111.03 101.33 111.569 98.2434L114.437 82.0091C114.977 78.907 117.962 76.3742 121.067 76.3742H138.385C141.469 76.3742 143.567 78.907 143.02 82.0091L140.155 98.2434C139.609 101.33 136.628 103.876 133.533 103.876H116.208ZM132.343 96.2887L134.526 83.9638H122.25L120.07 96.2887H132.343Z" fill="white"/>
<path d="M99.4175 96.2877H87.1309L89.3078 83.9629H109.221L110.535 76.3732H88.1277C85.0264 76.3732 82.0517 78.9068 81.5087 82.0081L78.6399 98.2425C78.0969 101.331 80.1774 103.875 83.2723 103.875H100.6C103.699 103.875 106.684 101.331 107.223 98.2425L108.977 88.2784H100.82L99.4175 96.2877Z" fill="white"/>
<path d="M85.1861 113.854L74.3637 136.158H67.4978L66.6833 122.66L60.1279 136.158H53.2238L51.9053 113.854H56.7925L57.6461 131.348L66.063 113.854H71.0283L71.8819 131.348L80.2988 113.854H85.1861Z" fill="#FFDC00"/>
<path d="M105.625 136.158H100.854L105.586 113.854H110.357L105.625 136.158Z" fill="#FFDC00"/>
<path d="M113.46 136.158H108.689L113.421 113.854H118.192L113.46 136.158Z" fill="#FFDC00"/>
<path d="M146.431 136.158H142.59C140.806 136.158 139.565 135.983 138.866 135.634C138.168 135.286 137.819 134.581 137.819 133.521C137.819 132.926 137.91 132.228 138.091 131.426L141.815 113.854H146.585L145.383 119.401H150L149.107 123.435H144.568L143.211 129.797C143.082 130.443 143.017 130.87 143.017 131.077C143.017 131.518 143.165 131.801 143.464 131.93C143.76 132.059 144.361 132.124 145.267 132.124H147.284L146.431 136.158Z" fill="#FFDC00"/>
<path d="M48.9287 119.905C48.2297 119.543 46.9891 119.362 45.2048 119.362H38.3779C36.4128 119.362 34.9191 119.73 33.8975 120.467C32.876 121.204 32.1841 122.427 31.8226 124.133L30.3097 131.387C30.2062 131.826 30.129 132.22 30.0772 132.569C30.0247 132.919 30 133.236 30 133.519C30 134.037 30.0772 134.457 30.2325 134.78C30.387 135.104 30.6457 135.369 31.008 135.576C31.3695 135.783 31.8616 135.925 32.4826 136.003C33.1029 136.08 33.8792 136.12 34.81 136.12H46.4071L47.2606 132.124H37.4861C36.58 132.124 35.9789 132.052 35.6827 131.911C35.3841 131.768 35.236 131.478 35.236 131.037C35.236 130.728 35.2878 130.314 35.3913 129.797L35.3937 129.785H37.4105L37.4089 129.797H48.5012L49.7051 124.133C49.885 123.306 49.9766 122.595 49.9766 121.999C49.9766 120.965 49.6262 120.267 48.9287 119.905ZM44.739 125.762H39.4074V125.759H36.2456C36.3491 125.244 36.471 124.831 36.6135 124.521C36.7552 124.21 36.9367 123.972 37.1565 123.804C37.3755 123.636 37.6605 123.526 38.0093 123.473C38.3588 123.421 38.7912 123.396 39.3087 123.396H43.1107C44.3512 123.396 44.9723 123.784 44.9723 124.56C44.9723 124.638 44.8943 125.038 44.739 125.762Z" fill="#FFDC00"/>
<path d="M100.176 120.72C100.007 120.385 99.7358 120.119 99.3608 119.925C98.9874 119.731 98.4945 119.595 97.8878 119.518C97.2787 119.44 96.5238 119.401 95.6185 119.401H84.0597L83.2061 123.434H92.9806C93.8859 123.434 94.4871 123.5 94.7841 123.63C95.0819 123.759 95.2308 124.044 95.2308 124.482C95.2308 124.689 95.1655 125.115 95.0365 125.759H91.2146V125.763H87.4731C86.36 125.763 85.4356 125.821 84.6991 125.937C83.9617 126.052 83.3471 126.28 82.8574 126.615C82.3645 126.952 81.9767 127.43 81.6925 128.052C81.4082 128.672 81.1495 129.487 80.917 130.495L80.7235 131.425C80.5419 132.227 80.4512 132.926 80.4512 133.52C80.4512 134.063 80.5356 134.504 80.7036 134.839C80.8716 135.176 81.1431 135.44 81.5189 135.634C81.8923 135.829 82.3844 135.964 82.9927 136.041C83.5995 136.119 84.3559 136.158 85.262 136.158H97.5964L100.157 124.134C100.337 123.333 100.429 122.633 100.429 122.039C100.429 121.496 100.343 121.057 100.176 120.72ZM86.5025 132.124C85.805 132.124 85.4547 131.827 85.4547 131.232C85.4547 130.87 85.5972 130.541 85.8822 130.242C86.1657 129.946 86.5415 129.797 87.0073 129.797H92.1661L92.1677 129.784H94.1782L93.6781 132.124H86.5025Z" fill="#FFDC00"/>
<path d="M136.075 119.905C135.378 119.543 134.135 119.362 132.351 119.362H125.524C123.559 119.362 122.065 119.73 121.044 120.467C120.022 121.204 119.33 122.427 118.969 124.133L117.456 131.387C117.353 131.826 117.275 132.22 117.224 132.569C117.171 132.919 117.146 133.236 117.146 133.519C117.146 134.037 117.224 134.457 117.379 134.78C117.533 135.104 117.792 135.369 118.155 135.576C118.516 135.783 119.007 135.925 119.629 136.003C120.249 136.08 121.026 136.12 121.956 136.12H133.553L134.407 132.124H124.632C123.726 132.124 123.125 132.052 122.829 131.911C122.53 131.768 122.382 131.478 122.382 131.037C122.382 130.728 122.434 130.314 122.538 129.797L122.54 129.785H124.557L124.554 129.797H135.649L136.851 124.133C137.032 123.306 137.123 122.595 137.123 121.999C137.123 120.965 136.773 120.267 136.075 119.905ZM131.885 125.762H126.863V125.759H123.392C123.495 125.244 123.617 124.831 123.76 124.521C123.902 124.21 124.082 123.972 124.303 123.804C124.522 123.636 124.807 123.526 125.156 123.473C125.505 123.421 125.937 123.396 126.455 123.396H130.257C131.498 123.396 132.119 123.784 132.119 124.56C132.119 124.638 132.041 125.038 131.885 125.762Z" fill="#FFDC00"/>
</svg>
