<svg width="180" height="180" viewBox="0 0 180 180" fill="none" xmlns="http://www.w3.org/2000/svg">
<circle cx="90" cy="90" r="90" fill="#015ABF"/>
<path d="M75.5685 75.6373H67.7923C65.512 75.6373 62.5564 77.2596 61.7031 79.419L62.4829 75.2793H52.9803L48.7588 99.0802H58.2727L60.9006 84.0132H71.135C71.135 84.0132 69.8268 91.4742 69.2447 94.8155C68.6626 98.1568 70.9203 98.9694 72.0336 98.9694H77.0095L80.2534 80.4588C79.9849 77.8051 78.2048 75.6373 75.5685 75.6373Z" fill="white"/>
<path d="M46.1315 75.2793L44.3457 85.4935L51.5737 75.2793H46.1315Z" fill="white"/>
<path d="M57.414 38H25.5888L24.207 45.8872H35.3146L30.8642 71.2991H40.446L44.919 45.8872H56.0294L57.414 38Z" fill="white"/>
<path d="M63.998 63.4971L65.3939 55.5445H56.8661L55.4787 63.4971H63.998ZM50.5649 71.299C47.9286 71.299 46.1541 69.1284 46.6175 66.4747L49.0645 52.5584C49.5223 49.9075 52.0682 47.7368 54.696 47.7368H70.2992C72.9355 47.7368 74.7157 49.9075 74.2353 52.5584L71.8053 66.4747C71.3362 69.1284 68.7988 71.299 66.1653 71.299H50.5649Z" fill="white"/>
<path d="M113.333 63.4967L114.732 55.5442H127.083L128.453 47.7422H112.565C109.928 47.7422 107.377 49.9072 106.916 52.5581L104.478 66.4743C104.011 69.128 105.789 71.2959 108.434 71.2959H123.881L125.243 63.4967H113.333Z" fill="white"/>
<path d="M93.9125 63.4967H83.4576L86.2154 47.7393H77.8854L74.6105 66.4743C74.1443 69.128 75.9188 71.2958 78.5551 71.2958H86.676C89.3123 71.2958 91.4683 69.7189 93.1722 67.6789C93.1722 67.6789 94.1018 70.4065 95.4383 71.0174C96.7833 71.6367 100.847 71.4918 100.847 71.4918L105.017 47.7421H96.6816L93.9125 63.4967Z" fill="white"/>
<path d="M153.977 47.856H146.207C143.921 47.856 141.714 49.4812 140.858 51.6377L143.096 38.8408H134.336L128.646 71.2961H137.413L140.05 56.2348H149.552C149.552 56.2348 148.247 63.6901 147.665 67.0371C147.077 70.3698 149.341 71.1881 150.44 71.1881H154.684L157.928 52.6776C158.388 50.0239 156.617 47.856 153.977 47.856Z" fill="white"/>
<path d="M122.743 106.999C119.199 106.999 116.809 104.066 117.428 100.506L120.714 81.7998C121.333 78.2255 124.755 75.3076 128.312 75.3076H148.159C151.694 75.3076 154.099 78.2255 153.472 81.7998L150.188 100.506C149.561 104.064 146.145 106.999 142.598 106.999H122.743ZM141.234 98.2533L143.737 84.05H129.668L127.17 98.2533H141.234Z" fill="white"/>
<path d="M103.497 98.2537H89.4172L91.9122 84.0504H114.735L116.241 75.3052H90.5615C87.0069 75.3052 83.5992 78.2231 82.9747 81.7974L79.6885 100.504C79.0668 104.061 81.4489 106.996 84.9979 106.996H104.856C108.408 106.996 111.827 104.064 112.446 100.504L114.455 89.0226H105.108L103.497 98.2537Z" fill="white"/>
<path d="M83.9999 118.21L72.039 143H64.4493L63.5479 127.996L56.303 143H48.6709L47.2129 118.21H52.6155L53.5593 137.653L62.8641 118.21H68.3515L69.2953 137.653L78.6001 118.21H83.9999Z" fill="#FDDB00"/>
<path d="M106.594 143H101.321L106.552 118.21H111.824L106.594 143Z" fill="#FDDB00"/>
<path d="M115.254 143H109.981L115.212 118.21H120.484L115.254 143Z" fill="#FDDB00"/>
<path d="M151.699 143H147.455C145.483 143 144.112 142.807 143.338 142.418C142.567 142.028 142.18 141.247 142.18 140.068C142.18 139.406 142.279 138.63 142.479 137.741L146.596 118.21H151.869L150.541 124.376H155.644L154.658 128.859H149.642L148.142 135.931C147.998 136.65 147.927 137.124 147.927 137.355C147.927 137.843 148.091 138.159 148.419 138.304C148.746 138.448 149.41 138.519 150.414 138.519H152.643L151.699 143Z" fill="#FDDB00"/>
<path d="M83.9999 118.21L72.039 143H64.4493L63.5479 127.996L56.303 143H48.6709L47.2129 118.21H52.6155L53.5593 137.653L62.8641 118.21H68.3515L69.2953 137.653L78.6001 118.21H83.9999Z" fill="#FDDB00"/>
<path d="M106.594 143H101.321L106.552 118.21H111.824L106.594 143Z" fill="#FDDB00"/>
<path d="M115.254 143H109.981L115.212 118.21H120.484L115.254 143Z" fill="#FDDB00"/>
<path d="M151.699 143H147.455C145.483 143 144.112 142.807 143.338 142.418C142.567 142.028 142.18 141.247 142.18 140.068C142.18 139.406 142.279 138.63 142.479 137.741L146.596 118.21H151.869L150.541 124.376H155.644L154.658 128.859H149.642L148.142 135.931C147.998 136.65 147.927 137.124 147.927 137.355C147.927 137.843 148.091 138.159 148.419 138.304C148.746 138.448 149.41 138.519 150.414 138.519H152.643L151.699 143Z" fill="#FDDB00"/>
<path d="M83.9999 118.21L72.039 143H64.4493L63.5479 127.996L56.303 143H48.6709L47.2129 118.21H52.6155L53.5593 137.653L62.8641 118.21H68.3515L69.2953 137.653L78.6001 118.21H83.9999Z" fill="#FDDB00"/>
<path d="M106.594 143H101.321L106.552 118.21H111.824L106.594 143Z" fill="#FDDB00"/>
<path d="M115.254 143H109.981L115.212 118.21H120.484L115.254 143Z" fill="#FDDB00"/>
<path d="M151.699 143H147.455C145.483 143 144.112 142.807 143.338 142.418C142.567 142.028 142.18 141.247 142.18 140.068C142.18 139.406 142.279 138.63 142.479 137.741L146.596 118.21H151.869L150.541 124.376H155.644L154.658 128.859H149.642L148.142 135.931C147.998 136.65 147.927 137.124 147.927 137.355C147.927 137.843 148.091 138.159 148.419 138.304C148.746 138.448 149.41 138.519 150.414 138.519H152.643L151.699 143Z" fill="#FDDB00"/>
<path d="M43.9239 124.936C43.1525 124.532 41.7792 124.333 39.8069 124.333H32.2625C30.0895 124.333 28.4394 124.743 27.3091 125.561C26.1788 126.379 25.4159 127.737 25.0147 129.635L23.3419 137.699C23.2261 138.187 23.1413 138.625 23.0848 139.014C23.0283 139.403 23 139.756 23 140.071C23 140.648 23.0848 141.114 23.2571 141.472C23.4295 141.833 23.7149 142.125 24.1133 142.355C24.5145 142.585 25.0571 142.742 25.7437 142.83C26.4303 142.915 27.2865 142.961 28.315 142.961H41.135L42.0787 138.52H31.2763C30.276 138.52 29.612 138.44 29.2814 138.284C28.9536 138.125 28.7897 137.804 28.7897 137.312C28.7897 136.968 28.8463 136.508 28.9621 135.934L28.9649 135.92H31.1944L31.1915 135.934H43.4548L44.7829 129.641C44.9835 128.72 45.0824 127.93 45.0824 127.268C45.0824 126.115 44.6953 125.339 43.9239 124.936ZM39.2926 131.445H33.3984V131.439H29.903C30.0161 130.868 30.1517 130.408 30.3099 130.064C30.4682 129.72 30.666 129.453 30.9118 129.266C31.1548 129.078 31.4684 128.956 31.8556 128.899C32.2427 128.843 32.7202 128.814 33.291 128.814H37.4927C38.866 128.814 39.5498 129.246 39.5498 130.107C39.5498 130.195 39.465 130.641 39.2926 131.445Z" fill="#FDDB00"/>
<path d="M100.569 125.839C100.383 125.467 100.083 125.171 99.668 124.956C99.2554 124.74 98.7101 124.589 98.0404 124.504C97.3679 124.419 96.5315 124.373 95.5312 124.373H82.7537L81.8099 128.856H92.6152C93.6154 128.856 94.2795 128.928 94.6101 129.072C94.9378 129.217 95.1046 129.533 95.1046 130.021C95.1046 130.252 95.0339 130.723 94.8898 131.439H90.6655V131.445H86.5287C85.2996 131.445 84.2767 131.51 83.4629 131.638C82.6491 131.766 81.9682 132.019 81.4256 132.391C80.8831 132.766 80.4536 133.297 80.14 133.988C79.8263 134.678 79.5409 135.582 79.2838 136.704L79.069 137.738C78.8684 138.63 78.7695 139.406 78.7695 140.065C78.7695 140.667 78.8628 141.159 79.0493 141.531C79.2358 141.906 79.5353 142.199 79.9506 142.415C80.3632 142.631 80.9085 142.781 81.581 142.867C82.2536 142.952 83.0871 142.997 84.0902 142.997H97.7239L100.555 129.632C100.753 128.743 100.855 127.967 100.855 127.305C100.849 126.703 100.756 126.214 100.569 125.839ZM85.4578 138.517C84.6864 138.517 84.2993 138.187 84.2993 137.525C84.2993 137.122 84.4547 136.755 84.7712 136.426C85.0848 136.096 85.5002 135.928 86.0145 135.928H91.7166L91.7194 135.914H93.9404L93.3894 138.514H85.4578V138.517Z" fill="#FDDB00"/>
<path d="M140.253 124.935C139.481 124.532 138.108 124.333 136.136 124.333H128.589C126.416 124.333 124.766 124.742 123.635 125.56C122.505 126.379 121.742 127.737 121.341 129.635L119.668 137.698C119.552 138.187 119.467 138.624 119.411 139.014C119.354 139.403 119.326 139.755 119.326 140.071C119.326 140.647 119.411 141.113 119.583 141.471C119.756 141.832 120.041 142.125 120.439 142.355C120.841 142.585 121.383 142.741 122.07 142.829C122.756 142.915 123.613 142.96 124.644 142.96H137.464L138.408 138.519H127.602C126.602 138.519 125.935 138.44 125.608 138.283C125.28 138.124 125.113 137.803 125.113 137.312C125.113 136.968 125.17 136.508 125.285 135.934L125.288 135.919H127.518L127.515 135.934H139.778L141.106 129.64C141.307 128.72 141.406 127.93 141.406 127.268C141.409 126.114 141.024 125.339 140.253 124.935ZM135.622 131.445H130.069V131.439H126.232C126.345 130.868 126.481 130.408 126.639 130.064C126.794 129.72 126.995 129.453 127.238 129.265C127.481 129.078 127.795 128.956 128.182 128.899C128.569 128.842 129.046 128.814 129.617 128.814H133.819C135.189 128.814 135.876 129.245 135.876 130.106C135.879 130.194 135.794 130.641 135.622 131.445Z" fill="#FDDB00"/>
</svg>
