<svg width="263" height="245" viewBox="0 0 263 245" fill="none" xmlns="http://www.w3.org/2000/svg">
<path d="M188.847 -6.83211e-05H55.6187C24.9547 -6.83211e-05 0 24.9626 0 55.6279V188.847C0 219.515 24.9547 244.475 55.6187 244.475H188.847C219.516 244.475 244.463 219.515 244.463 188.847V55.6279C244.463 24.9626 219.516 -6.83211e-05 188.847 -6.83211e-05Z" fill="white"/>
<path d="M189.26 9.4898H55.2102C30.0035 9.4898 9.48486 30.0071 9.48486 55.2098V189.262C9.48486 214.474 30.0035 234.98 55.2102 234.98H189.26C214.464 234.98 234.978 214.474 234.978 189.262V55.2098C234.978 30.0071 214.464 9.4898 189.26 9.4898Z" fill="#005ABE"/>
<path d="M97.1923 101.552H85.8309C82.4963 101.552 78.1789 103.909 76.9349 107.045L78.0749 101.028H64.191L58.0229 135.617H71.9243L75.7643 113.723H90.7189C90.7189 113.723 88.8083 124.565 87.9549 129.42C87.1029 134.276 90.4029 135.455 92.0336 135.455H99.3056L104.038 108.557C103.648 104.699 101.044 101.552 97.1923 101.552Z" fill="white"/>
<path d="M54.1762 101.029L51.5669 115.873L62.1282 101.029H54.1762Z" fill="white"/>
<path d="M70.6636 46.8574H24.1636L22.1436 58.3174H38.3756L31.8689 95.248H45.8729L52.4102 58.3174H68.6422L70.6636 46.8574Z" fill="white"/>
<path d="M80.2851 83.9107L82.3238 72.3547H69.8611L67.8345 83.9107H80.2851ZM60.6545 95.248C56.8025 95.248 54.2105 92.0947 54.8851 88.2374L58.4598 68.0147C59.1278 64.1627 62.8491 61.0054 66.6891 61.0054H89.4865C93.3398 61.0054 95.9425 64.1627 95.2398 68.0147L91.6865 88.2374C91.0011 92.0947 87.2931 95.248 83.4465 95.248H60.6545Z" fill="white"/>
<path d="M152.375 83.9108L154.419 72.3548H172.466L174.47 61.0135H151.251C147.399 61.0135 143.674 64.1628 143 68.0148L139.435 88.2375C138.756 92.0948 141.354 95.2441 145.218 95.2441H167.79L169.782 83.9108H152.375Z" fill="white"/>
<path d="M123.997 83.9105H108.72L112.751 61.0132H100.579L95.7933 88.2372C95.112 92.0945 97.704 95.2438 101.556 95.2438H113.424C117.276 95.2438 120.427 92.9532 122.916 89.9852C122.916 89.9852 124.275 93.9492 126.225 94.8358C128.189 95.7372 134.127 95.5252 134.127 95.5252L140.219 61.0132H128.039L123.997 83.9105Z" fill="white"/>
<path d="M211.761 61.1809H200.406C197.065 61.1809 193.84 63.5449 192.592 66.6742L195.862 48.0782H183.06L174.745 95.2422H187.558L191.41 73.3542H205.294C205.294 73.3542 203.388 84.1889 202.537 89.0515C201.677 93.8942 204.984 95.0835 206.589 95.0835H212.792L217.532 68.1862C218.205 64.3275 215.618 61.1809 211.761 61.1809Z" fill="white"/>
<path d="M166.12 147.123C160.944 147.123 157.448 142.86 158.352 137.691L163.155 110.506C164.059 105.311 169.058 101.07 174.256 101.07H203.256C208.422 101.07 211.934 105.311 211.018 110.506L206.22 137.691C205.307 142.86 200.315 147.123 195.132 147.123H166.12ZM193.139 134.418L196.795 113.779H176.238L172.587 134.418H193.139Z" fill="white"/>
<path d="M138.002 134.416H117.427L121.073 113.777H154.419L156.619 101.068H119.097C113.903 101.068 108.922 105.31 108.013 110.504L103.209 137.689C102.299 142.861 105.783 147.121 110.966 147.121H139.982C145.171 147.121 150.17 142.861 151.073 137.689L154.01 121.004H140.351L138.002 134.416Z" fill="white"/>
<path d="M114.172 163.832L96.0489 201.182H84.5516L83.1876 178.578L72.2103 201.182H60.6489L58.4409 163.832H66.6249L68.0543 193.127L82.1489 163.832H90.4636L91.8929 193.127L105.988 163.832H114.172Z" fill="#FFDC00"/>
<path d="M148.399 201.182H140.41L148.334 163.832H156.323L148.399 201.182Z" fill="#FFDC00"/>
<path d="M161.52 201.182H153.531L161.455 163.832H169.443L161.52 201.182Z" fill="#FFDC00"/>
<path d="M216.73 201.182H210.298C207.311 201.182 205.234 200.888 204.063 200.304C202.894 199.72 202.31 198.54 202.31 196.766C202.31 195.768 202.462 194.6 202.765 193.258L209.001 163.832H216.989L214.975 173.12H222.707L221.211 179.876H213.611L211.339 190.53C211.123 191.611 211.014 192.327 211.014 192.672C211.014 193.411 211.262 193.886 211.762 194.102C212.258 194.318 213.265 194.427 214.782 194.427H218.159L216.73 201.182Z" fill="#FFDC00"/>
<path d="M53.4566 173.965C52.2859 173.359 50.2086 173.056 47.2206 173.056H35.7886C32.4979 173.056 29.9966 173.672 28.2859 174.907C26.5753 176.14 25.4166 178.188 24.8113 181.045L22.2779 193.192C22.1046 193.928 21.9753 194.588 21.8886 195.172C21.8006 195.757 21.7593 196.288 21.7593 196.763C21.7593 197.631 21.8886 198.333 22.1486 198.875C22.4073 199.417 22.8406 199.86 23.4473 200.207C24.0526 200.553 24.8766 200.791 25.9166 200.921C26.9553 201.051 28.2553 201.117 29.8139 201.117H49.2339L50.6633 194.427H34.2953C32.7779 194.427 31.7713 194.305 31.2753 194.069C30.7753 193.831 30.5273 193.344 30.5273 192.607C30.5273 192.088 30.6139 191.395 30.7873 190.529L30.7913 190.509H34.1686L34.1659 190.529H52.7406L54.7566 181.045C55.0579 179.66 55.2113 178.469 55.2113 177.472C55.2113 175.74 54.6246 174.572 53.4566 173.965ZM46.4406 183.773H37.5126V183.768H32.2179C32.3913 182.905 32.5953 182.213 32.8339 181.695C33.0713 181.175 33.3753 180.775 33.7433 180.493C34.1099 180.212 34.5873 180.028 35.1713 179.94C35.7566 179.853 36.4806 179.811 37.3473 179.811H43.7139C45.7913 179.811 46.8313 180.46 46.8313 181.76C46.8313 181.891 46.7006 182.561 46.4406 183.773Z" fill="#FFDC00"/>
<path d="M139.274 175.33C138.99 174.768 138.536 174.323 137.908 173.998C137.283 173.674 136.458 173.446 135.442 173.316C134.422 173.186 133.158 173.12 131.642 173.12H112.286L110.856 179.875H127.224C128.74 179.875 129.747 179.984 130.244 180.202C130.743 180.418 130.992 180.895 130.992 181.63C130.992 181.975 130.883 182.69 130.667 183.767H124.267V183.775H118.002C116.138 183.775 114.59 183.871 113.356 184.066C112.122 184.259 111.092 184.64 110.272 185.202C109.447 185.766 108.798 186.566 108.322 187.607C107.846 188.646 107.412 190.01 107.023 191.698L106.699 193.256C106.395 194.599 106.243 195.768 106.243 196.764C106.243 197.672 106.384 198.411 106.666 198.972C106.947 199.536 107.402 199.979 108.031 200.304C108.656 200.63 109.48 200.856 110.499 200.986C111.515 201.116 112.782 201.182 114.299 201.182H134.954L139.242 181.046C139.543 179.704 139.696 178.534 139.696 177.539C139.696 176.63 139.554 175.894 139.274 175.33ZM116.376 194.427C115.208 194.427 114.622 193.928 114.622 192.932C114.622 192.326 114.86 191.775 115.338 191.275C115.812 190.779 116.442 190.53 117.222 190.53H125.86L125.863 190.508H129.23L128.392 194.427H116.376Z" fill="#FFDC00"/>
<path d="M199.388 173.965C198.22 173.359 196.14 173.056 193.152 173.056H181.72C178.429 173.056 175.928 173.672 174.217 174.907C172.507 176.14 171.348 178.188 170.743 181.045L168.209 193.192C168.036 193.928 167.907 194.588 167.82 195.172C167.732 195.757 167.689 196.288 167.689 196.763C167.689 197.631 167.82 198.333 168.08 198.875C168.339 199.417 168.772 199.86 169.38 200.207C169.984 200.553 170.807 200.791 171.848 200.921C172.887 201.051 174.187 201.117 175.745 201.117H195.165L196.595 194.427H180.227C178.709 194.427 177.703 194.305 177.207 194.069C176.707 193.831 176.459 193.344 176.459 192.607C176.459 192.088 176.545 191.395 176.719 190.529L176.723 190.509H180.1L180.096 190.529H198.675L200.688 181.045C200.991 179.66 201.143 178.469 201.143 177.472C201.143 175.74 200.556 174.572 199.388 173.965ZM192.372 183.773H183.961V183.768H178.149C178.323 182.905 178.527 182.213 178.765 181.695C179.003 181.175 179.305 180.775 179.675 180.493C180.041 180.212 180.519 180.028 181.103 179.94C181.688 179.853 182.412 179.811 183.279 179.811H189.645C191.723 179.811 192.763 180.46 192.763 181.76C192.763 181.891 192.633 182.561 192.372 183.773Z" fill="#FFDC00"/>
<path d="M253.07 19.822C253.956 19.822 254.791 19.17 254.791 17.9833C254.791 16.77 253.943 16.2887 253.108 16.2887H250.684V19.822H253.07ZM249.002 14.97H253.618C255.066 14.97 256.618 16.026 256.618 17.9833C256.618 19.2993 255.9 20.2793 254.962 20.774L257.008 24.5953H255.131L253.331 21.1393H250.684V24.5953H249.002V14.97ZM261.026 19.9007C261.026 15.2047 257.23 11.41 252.536 11.41C247.84 11.41 244.046 15.2047 244.046 19.9007C244.046 24.5953 247.84 28.39 252.536 28.39C257.23 28.39 261.026 24.5953 261.026 19.9007ZM242.102 19.9007C242.102 14.1353 246.771 9.46732 252.536 9.46732C258.3 9.46732 262.968 14.1353 262.968 19.9007C262.968 25.6647 258.3 30.334 252.536 30.334C246.771 30.334 242.102 25.6647 242.102 19.9007Z" fill="#005ABE"/>
</svg>
