<svg width="180" height="180" viewBox="0 0 180 180" fill="none" xmlns="http://www.w3.org/2000/svg">
<circle cx="90" cy="90" r="90" fill="white"/>
<path d="M68.2598 69.7734H94.2398V77.6434H76.7898V85.5234H92.9298V93.3934H76.7898V108.493H68.2598V69.7734Z" fill="#252C57"/>
<path d="M100.37 69.7733H114.75C116.657 69.764 118.559 69.9449 120.43 70.3133C122.098 70.6335 123.688 71.2754 125.11 72.2033C126.458 73.1155 127.55 74.3585 128.28 75.8133C129.128 77.5973 129.533 79.5595 129.46 81.5333C129.52 83.4849 129.145 85.4253 128.36 87.2133C127.694 88.6752 126.66 89.9396 125.36 90.8833C123.995 91.8326 122.45 92.4928 120.82 92.8233C118.949 93.2155 117.042 93.4065 115.13 93.3933H108.9V108.493H100.37V69.7733ZM108.9 86.1733H114.59C115.332 86.1752 116.072 86.1048 116.8 85.9633C117.474 85.8264 118.12 85.5762 118.71 85.2233C119.278 84.8718 119.749 84.3836 120.08 83.8033C120.45 83.1055 120.629 82.3225 120.6 81.5333C120.643 80.6851 120.4 79.8472 119.91 79.1533C119.459 78.5457 118.86 78.0637 118.17 77.7533C117.417 77.414 116.613 77.2011 115.79 77.1233C114.953 77.0371 114.112 76.9937 113.27 76.9933H108.9V86.1733Z" fill="#252C57"/>
<path d="M144.44 88.2534L131.65 69.7734H142.36L150.62 83.3334L158.55 69.7734H168.89L156.36 88.0934L170.36 108.493H159.64L150.19 92.9034L141 108.493H130.88L144.44 88.2534Z" fill="#252C57"/>
<path d="M30.9 101.223L25.5 93.9133C24.7 92.8233 23.32 91.3933 23.32 89.9633C23.32 88.5333 24.69 87.0933 25.5 85.9633L30.9 78.6433C31.1138 78.3479 31.3661 78.0822 31.65 77.8533V69.4333C31.65 62.6633 28.82 60.9633 25.36 65.6433L13.69 81.4433C11.96 83.7933 9 86.8733 9 89.9633C9 93.0533 12 96.1333 13.69 98.4833L25.34 114.233C28.8 118.913 31.63 117.233 31.63 110.453V102.023C31.3413 101.796 31.0885 101.526 30.88 101.223" fill="#0E86C8"/>
<path d="M53.7798 81.4434L42.1298 65.6834C38.6698 60.9934 35.8398 62.6834 35.8398 69.4734V77.8934C36.1228 78.1203 36.3719 78.3863 36.5798 78.6834L41.9898 86.0034C42.7998 87.0934 44.1698 88.5334 44.1698 90.0034C44.1698 91.4734 42.7998 92.8634 41.9898 93.9534L36.5798 101.263C36.3715 101.566 36.1225 101.839 35.8398 102.073V110.493C35.8398 117.273 38.6698 118.953 42.1298 114.273L53.7798 98.5234C55.5098 96.1634 58.4698 93.0734 58.4698 89.9934C58.4698 86.9134 55.4698 83.8334 53.7798 81.4834" fill="#252C57"/>
</svg>
