<svg width="269" height="49" viewBox="0 0 269 49" fill="none" xmlns="http://www.w3.org/2000/svg">
<path d="M138.971 43.2268H119.029L136.478 5.30855L138.971 0H133.986H110.928V5.30855H131.493L113.42 43.2268L110.928 48.5353H115.913H136.478L138.971 43.2268Z" fill="#44D62C"/>
<path d="M194.435 0H166.392V5.30855H191.942L194.435 0Z" fill="#44D62C"/>
<path d="M194.435 21.2344H166.392V26.5429H191.942L194.435 21.2344Z" fill="#44D62C"/>
<path d="M194.435 43.2266H166.392V48.5351H191.942L194.435 43.2266Z" fill="#44D62C"/>
<path d="M249.899 15.1673V12.1338C249.899 5.30855 245.537 0 239.928 0H226.218H221.855V26.5428V47.777H226.218V26.5428H234.319L244.29 47.777H249.276L239.305 26.5428H239.928C245.537 26.5428 249.899 21.2342 249.899 15.1673ZM226.218 5.30855H239.928C243.044 5.30855 245.537 8.34201 245.537 12.1338V15.1673C245.537 18.9591 243.044 21.9926 239.928 21.9926H226.218V5.30855Z" fill="#44D62C"/>
<path d="M28.0435 15.1673V12.1338C28.0435 5.30855 23.6812 0 18.0725 0H4.36232H0V26.5428V47.777H4.36232V26.5428H12.4638L22.4348 47.777H27.4203L18.0725 26.5428H18.6957C23.6812 26.5428 28.0435 21.2342 28.0435 15.1673ZM4.36232 5.30855H18.0725C21.1884 5.30855 23.6812 8.34201 23.6812 12.1338V15.1673C23.6812 18.9591 21.1884 21.9926 18.0725 21.9926H4.36232V5.30855Z" fill="#44D62C"/>
<path d="M57.9561 48.5353L69.7966 14.4089L81.014 48.5353H85.3764L71.6662 6.82528L69.7966 0L67.3039 6.82528L53.5938 48.5353H57.9561Z" fill="#44D62C"/>
<path d="M252.392 2.27503V0.758301H258.623V2.27503H256.131V10.617H254.884V2.27503H252.392Z" fill="#44D62C"/>
<path d="M260.493 10.617V0.758301H262.363L264.855 9.10031L266.725 0.758301H268.595V10.617H267.971V2.27503H267.348L264.855 10.617H264.232L261.74 2.27503V10.617H260.493Z" fill="#44D62C"/>
</svg>
