<svg width="180" height="180" viewBox="0 0 180 180" fill="none" xmlns="http://www.w3.org/2000/svg">
<circle cx="90" cy="90" r="90" fill="black"/>
<path d="M95.6105 99.2656H84.4736L94.2184 79.7344L95.6105 77H92.8262H79.9492V79.7344H91.4341L81.3413 99.2656L79.9492 102H82.7334H94.2184L95.6105 99.2656Z" fill="#44D62C"/>
<path d="M126.585 77H110.924V79.7344H125.193L126.585 77Z" fill="#44D62C"/>
<path d="M126.585 87.9375H110.924V90.6719H125.193L126.585 87.9375Z" fill="#44D62C"/>
<path d="M126.585 99.2656H110.924V102H125.193L126.585 99.2656Z" fill="#44D62C"/>
<path d="M157.559 84.8125V83.25C157.559 79.7344 155.123 77 151.99 77H144.334H141.897V90.6719V101.609H144.334V90.6719H148.858L154.426 101.609H157.211L151.642 90.6719H151.99C155.123 90.6719 157.559 87.9375 157.559 84.8125ZM144.334 79.7344H151.99C153.73 79.7344 155.123 81.2969 155.123 83.25V84.8125C155.123 86.7656 153.73 88.3281 151.99 88.3281H144.334V79.7344Z" fill="#44D62C"/>
<path d="M33.6613 84.8125V83.25C33.6613 79.7344 31.2251 77 28.0928 77H20.4362H18V90.6719V101.609H20.4362V90.6719H24.9606L30.529 101.609H33.3132L28.0928 90.6719H28.4408C31.2251 90.6719 33.6613 87.9375 33.6613 84.8125ZM20.4362 79.7344H28.0928C29.8329 79.7344 31.2251 81.2969 31.2251 83.25V84.8125C31.2251 86.7656 29.8329 88.3281 28.0928 88.3281H20.4362V79.7344Z" fill="#44D62C"/>
<path d="M50.3669 102L56.9794 84.4219L63.2439 102H65.6801L58.0235 80.5156L56.9794 77L55.5873 80.5156L47.9307 102H50.3669Z" fill="#44D62C"/>
<path d="M158.951 78.1719V77.3906H162.431V78.1719H161.039V82.4688H160.343V78.1719H158.951Z" fill="#44D62C"/>
<path d="M163.476 82.4688V77.3906H164.52L165.912 81.6875L166.956 77.3906H168V82.4688H167.652V78.1719H167.304L165.912 82.4688H165.564L164.172 78.1719V82.4688H163.476Z" fill="#44D62C"/>
</svg>
