<svg width="316" height="202" viewBox="0 0 316 202" fill="none" xmlns="http://www.w3.org/2000/svg">
<path d="M221.997 0.0401204L190.959 0.030778L221.819 0.0507812C221.878 0.0507812 221.937 0.0401204 221.997 0.0401204Z" fill="#E02F41"/>
<path d="M72.0802 181.888L108.796 19.4748C111.214 8.85078 124.667 0.238785 135.36 0.0201111L64.1323 0.000106812C53.3802 0.000106812 39.5947 8.71211 37.1375 19.4748L0.421353 181.888C0.197916 182.879 0.0739587 183.85 0 184.801V187.814C0.718749 195.573 6.64427 201.223 15.1619 201.352H86.8209C76.2422 201.192 69.6526 192.531 72.0802 181.888Z" fill="#ED1C24"/>
<path d="M190.959 0.0307617L135.786 9.76585e-05C135.647 9.76585e-05 135.503 0.0107676 135.359 0.0201009L190.959 0.0307617Z" fill="#2E4F7D"/>
<path d="M158.753 181.888L195.458 19.4748C197.877 8.92944 211.157 0.377441 221.82 0.0507812L190.96 0.030777L135.36 0.0201111C124.667 0.238785 111.214 8.85078 108.796 19.4748L72.0803 181.888C69.6527 192.531 76.2423 201.192 86.821 201.352H173.5C162.914 201.192 156.334 192.531 158.753 181.888Z" fill="#176FC1"/>
<path d="M299.633 0.0600739L222.017 0.0401001C222.008 0.0401001 221.997 0.0401001 221.997 0.0401001C221.937 0.0401001 221.878 0.0507507 221.82 0.0507507C211.157 0.377426 197.877 8.92943 195.458 19.4748L158.753 181.888C156.334 192.531 162.914 201.192 173.5 201.352H183.994H232.076H255.038C265.462 200.836 275.592 192.383 277.969 181.957L314.676 19.5428C317.133 8.79074 310.394 0.0600739 299.633 0.0600739Z" fill="#059EA9"/>
<path d="M136.861 118.365H138.209C139.448 118.365 140.281 117.949 140.672 117.126L144.174 111.884H153.554L151.598 115.332H162.845L161.418 120.615H148.036C146.494 122.934 144.597 124.024 142.316 123.895H135.345L136.861 118.365ZM135.321 125.936H159.961L158.39 131.675H148.481L146.969 137.214H156.612L155.041 142.952H145.398L143.158 151.137C142.604 152.505 143.333 153.12 145.334 152.981H153.193L151.737 158.313H136.649C133.789 158.313 132.808 156.677 133.705 153.397L136.569 142.952H130.405L131.971 137.214H138.136L139.646 131.675H133.754L135.321 125.936ZM174.649 111.845L174.261 115.204C174.261 115.204 178.909 111.715 183.13 111.715H198.729L192.764 133.309C192.269 135.777 190.148 137.005 186.401 137.005H168.721L164.58 152.168C164.341 152.981 164.678 153.397 165.57 153.397H169.049L167.77 158.104H158.926C155.532 158.104 154.12 157.083 154.68 155.033L166.382 111.845H174.649ZM187.858 117.949H173.936L172.27 123.776C172.27 123.776 174.589 122.102 178.464 122.042C182.328 121.981 186.738 122.042 186.738 122.042L187.858 117.949ZM182.814 131.466C183.844 131.605 184.42 131.198 184.489 130.237L185.341 127.165H171.397L170.228 131.466H182.814ZM173.409 138.442H181.448L181.297 141.921H183.437C184.518 141.921 185.054 141.574 185.054 140.891L185.688 138.641H192.368L191.476 141.921C190.721 144.656 188.721 146.083 185.47 146.223H181.189L181.169 152.168C181.09 153.12 181.952 153.605 183.725 153.605H187.749L186.45 158.313H176.798C174.093 158.441 172.766 157.152 172.794 154.418L173.409 138.442Z" fill="white"/>
<path d="M207.569 118.603L209.433 112.043H218.857L218.45 114.45C218.45 114.45 223.266 112.043 226.734 112.043C230.204 112.043 238.388 112.043 238.388 112.043L236.536 118.603H234.702L225.912 149.542H227.745L226.001 155.686H224.168L223.405 158.352H214.278L215.04 155.686H197.034L198.789 149.542H200.593L209.392 118.603H207.569ZM217.737 118.603L215.338 126.976C215.338 126.976 219.442 125.401 222.98 124.955C223.761 122.031 224.782 118.603 224.782 118.603H217.737ZM214.228 130.901L211.821 139.672C211.821 139.672 216.369 137.432 219.49 137.244C220.392 133.854 221.294 130.901 221.294 130.901H214.228ZM215.992 149.542L217.796 143.18H210.761L208.948 149.542H215.992ZM238.785 111.637H247.645L248.021 114.906C247.962 115.738 248.457 116.136 249.507 116.136H251.073L249.489 121.675H242.977C240.49 121.804 239.212 120.853 239.093 118.801L238.785 111.637ZM236.189 123.519H264.888L263.204 129.465H254.066L252.5 134.994H261.628L259.933 140.93H249.766L247.466 144.409H252.442L253.591 151.375C253.729 152.069 254.344 152.406 255.394 152.406H256.939L255.316 158.143H249.845C247.01 158.283 245.545 157.331 245.425 155.28L244.106 148.918L239.578 155.686C238.508 157.599 236.862 158.491 234.644 158.352H226.289L227.914 152.613H230.521C231.592 152.613 232.482 152.138 233.285 151.177L240.372 140.93H231.234L232.928 134.994H242.838L244.414 129.465H234.494L236.189 123.519Z" fill="white"/>
<path d="M76.015 83.0757C74.9248 88.4175 72.3978 92.5201 68.4779 95.4336C64.5936 98.2977 59.5836 99.7341 53.4499 99.7341C47.6775 99.7341 43.4456 98.2675 40.7451 95.3243C38.8723 93.2331 37.9404 90.5773 37.9404 87.3664C37.9404 86.0388 38.0994 84.6117 38.4166 83.0757L44.9519 51.5628H54.8223L48.3759 82.7191C48.1775 83.5815 48.0983 84.3841 48.1087 85.1076C48.0983 86.7035 48.4946 88.0112 49.2972 89.0315C50.4666 90.5481 52.3644 91.3008 55.0056 91.3008C58.0426 91.3008 60.5451 90.5581 62.4874 89.0612C64.43 87.5748 65.6983 85.4644 66.268 82.7191L72.7347 51.5628H82.5551L76.015 83.0757Z" fill="white"/>
<path d="M85.1068 70.6685H92.0781L91.2808 74.7314L92.2813 73.5721C94.5412 71.1543 97.286 69.9549 100.527 69.9549C103.46 69.9549 105.576 70.8075 106.904 72.5215C108.211 74.2362 108.568 76.6049 107.95 79.6471L104.109 98.8127H96.9442L100.413 81.4409C100.77 79.6471 100.671 78.309 100.12 77.4466C99.5756 76.5846 98.5344 76.159 97.0333 76.159C95.1901 76.159 93.639 76.733 92.3756 77.8731C91.1068 79.0226 90.2698 80.6185 89.8584 82.6497L86.6625 98.8127H79.4829L85.1068 70.6685Z" fill="white"/>
<path d="M165.054 70.6685H172.032L171.24 74.7314L172.229 73.5721C174.49 71.1543 177.245 69.9549 180.476 69.9549C183.409 69.9549 185.529 70.8075 186.846 72.5215C188.146 74.2362 188.522 76.6049 187.888 79.6471L184.062 98.8127H176.888L180.357 81.4409C180.714 79.6471 180.614 78.309 180.069 77.4466C179.504 76.5846 178.482 76.159 176.988 76.159C175.144 76.159 173.598 76.733 172.32 77.8731C171.05 79.0226 170.209 80.6185 169.813 82.6497L166.602 98.8127H159.432L165.054 70.6685Z" fill="white"/>
<path d="M117.467 70.6784H125.198L119.142 98.803H111.427L117.467 70.6784ZM119.901 60.4322H127.7L126.243 67.2588H118.444L119.901 60.4322Z" fill="white"/>
<path d="M132.04 96.6622C130.018 94.7299 128.997 92.1236 128.987 88.8138C128.987 88.2486 129.022 87.6048 129.097 86.9007C129.171 86.1871 129.265 85.4934 129.399 84.8496C130.315 80.2814 132.268 76.6543 135.275 73.9783C138.278 71.2928 141.901 69.945 146.142 69.945C149.615 69.945 152.37 70.9163 154.387 72.8586C156.403 74.8111 157.414 77.4466 157.414 80.7971C157.414 81.371 157.37 82.0351 157.295 82.7486C157.206 83.472 157.098 84.1658 156.973 84.8496C156.077 89.3486 154.13 92.9362 151.122 95.5627C148.114 98.2086 144.502 99.5256 140.29 99.5256C136.802 99.5256 134.057 98.5747 132.04 96.6622ZM146.771 91.0928C148.134 89.6163 149.11 87.3762 149.705 84.3939C149.794 83.9283 149.873 83.4423 149.922 82.957C149.971 82.481 149.991 82.0351 149.991 81.6288C149.991 79.8944 149.55 78.5471 148.663 77.5955C147.782 76.634 146.529 76.159 144.909 76.159C142.767 76.159 141.023 76.9111 139.657 78.4179C138.278 79.9247 137.302 82.2038 136.687 85.2362C136.603 85.7018 136.534 86.1679 136.47 86.6236C136.421 87.0892 136.406 87.5252 136.415 87.9215C136.415 89.646 136.857 90.9742 137.743 91.9152C138.625 92.857 139.873 93.3226 141.514 93.3226C143.665 93.3226 145.409 92.5794 146.771 91.0928Z" fill="white"/>
<path d="M199.543 53.2267H219.799C223.693 53.2267 226.705 54.1094 228.776 55.8427C230.837 57.5974 231.869 60.1147 231.869 63.3947V63.4934C231.869 64.1174 231.828 64.8214 231.769 65.5841C231.669 66.3374 231.54 67.1001 231.373 67.8934C230.481 72.2341 228.409 75.7226 225.209 78.3685C221.997 81.0043 218.193 82.3325 213.813 82.3325H202.951L199.592 98.8127H190.187L199.543 53.2267ZM204.605 74.4049H213.615C215.963 74.4049 217.825 73.859 219.184 72.7794C220.532 71.6893 221.424 70.0247 221.919 67.7654C221.997 67.3481 222.048 66.9721 222.107 66.6254C222.137 66.2987 222.176 65.9707 222.176 65.6547C222.176 64.0387 221.603 62.8694 220.452 62.1361C219.303 61.3921 217.5 61.0361 215.001 61.0361H207.351L204.605 74.4049Z" fill="white"/>
<path d="M273.965 104.254C270.992 110.576 268.158 114.262 266.494 115.976C264.828 117.672 261.529 121.616 253.581 121.318L254.265 116.492C260.953 114.431 264.57 105.145 266.632 101.033L264.174 70.7477L269.348 70.6784H273.688L274.154 89.6757L282.289 70.6784H290.525L273.965 104.254Z" fill="white"/>
<path d="M250.936 72.9673L247.664 75.2173C244.245 72.5419 241.124 70.8867 235.1 73.6809C226.893 77.4861 220.036 106.671 242.63 97.0585L243.918 98.5845L252.808 98.8127L258.645 72.2933L250.936 72.9673ZM245.881 87.4657C244.453 91.6777 241.264 94.4621 238.766 93.6695C236.269 92.8965 235.377 88.8329 236.824 84.6116C238.25 80.3897 241.461 77.6152 243.938 78.408C246.436 79.1809 247.337 83.2439 245.881 87.4657Z" fill="white"/>
</svg>
