<svg width="180" height="180" viewBox="0 0 180 180" fill="none" xmlns="http://www.w3.org/2000/svg">
<rect width="180" height="180" rx="15" fill="white"/>
<path d="M122.695 40.0193L106.939 40.0141L122.605 40.0251C122.635 40.0251 122.665 40.0193 122.695 40.0193Z" fill="#E02F41"/>
<path d="M46.5911 130.333L65.2299 49.672C66.4572 44.3956 73.2866 40.1185 78.7145 40.0099L42.5564 40C37.0982 40 30.1001 44.3268 28.8527 49.672L10.2139 130.333C10.1005 130.826 10.0375 131.308 10 131.78V133.276C10.3649 137.13 13.3729 139.936 17.6969 140H54.0741C48.7039 139.921 45.3588 135.619 46.5911 130.333Z" fill="#ED1C24"/>
<path d="M106.939 40.0151L78.931 39.9999C78.8606 39.9999 78.7875 40.0052 78.7144 40.0098L106.939 40.0151Z" fill="#2E4F7D"/>
<path d="M90.5898 130.333L109.223 49.672C110.451 44.4347 117.192 40.1874 122.605 40.0252L106.939 40.0152L78.7143 40.0099C73.2864 40.1185 66.457 44.3956 65.2296 49.672L46.5909 130.333C45.3585 135.619 48.7037 139.921 54.0739 140H98.0759C92.7023 139.921 89.362 135.619 90.5898 130.333Z" fill="#176FC1"/>
<path d="M162.107 40.0298L122.706 40.0199C122.701 40.0199 122.695 40.0199 122.695 40.0199C122.665 40.0199 122.635 40.0252 122.605 40.0252C117.193 40.1874 110.451 44.4347 109.223 49.672L90.59 130.333C89.3622 135.619 92.7025 139.921 98.076 140H103.404H127.812H139.469C144.76 139.744 149.902 135.545 151.109 130.368L169.743 49.7057C170.991 44.3658 167.57 40.0298 162.107 40.0298Z" fill="#059EA9"/>
<path d="M79.4769 98.7851H80.1612C80.79 98.7851 81.213 98.5787 81.4113 98.17L83.1894 95.5666H87.9511L86.9582 97.2789H92.6675L91.9433 99.9026H85.1496C84.3672 101.054 83.404 101.596 82.2459 101.531H78.7073L79.4769 98.7851ZM78.6951 102.545H91.2034L90.4061 105.395H85.3757L84.6081 108.146H89.5032L88.7058 110.996H83.8108L82.6737 115.061C82.3921 115.741 82.7623 116.046 83.7783 115.977H87.7677L87.0286 118.625H79.3692C77.9174 118.625 77.4193 117.813 77.8747 116.184L79.3286 110.996H76.1997L76.9945 108.146H80.1239L80.8908 105.395H77.8998L78.6951 102.545ZM98.6597 95.5471L98.4628 97.2155C98.4628 97.2155 100.822 95.4825 102.965 95.4825H110.884L107.856 106.207C107.604 107.433 106.528 108.043 104.626 108.043H95.6504L93.5481 115.573C93.4269 115.977 93.5982 116.184 94.051 116.184H95.8169L95.1678 118.521H90.6782C88.9549 118.521 88.2381 118.014 88.5224 116.996L94.4632 95.5471H98.6597ZM105.365 98.5787H98.2976L97.4522 101.472C97.4522 101.472 98.6293 100.641 100.596 100.611C102.558 100.581 104.797 100.611 104.797 100.611L105.365 98.5787ZM102.805 105.292C103.327 105.361 103.62 105.159 103.655 104.681L104.087 103.156H97.0089L96.4153 105.292H102.805ZM98.0302 108.757H102.111L102.035 110.484H103.121C103.67 110.484 103.942 110.312 103.942 109.973L104.263 108.855H107.655L107.202 110.484C106.819 111.842 105.803 112.551 104.153 112.621H101.98L101.97 115.573C101.93 116.046 102.367 116.287 103.267 116.287H105.31L104.651 118.625H99.7508C98.3775 118.689 97.704 118.049 97.7182 116.691L98.0302 108.757Z" fill="white"/>
<path d="M115.371 98.9033L116.318 95.6454H121.102L120.895 96.8409C120.895 96.8409 123.34 95.6454 125.1 95.6454C126.862 95.6454 131.016 95.6454 131.016 95.6454L130.076 98.9033H129.145L124.683 114.269H125.614L124.728 117.321H123.798L123.41 118.644H118.777L119.164 117.321H110.023L110.914 114.269H111.83L116.297 98.9033H115.371ZM120.533 98.9033L119.315 103.062C119.315 103.062 121.399 102.28 123.194 102.058C123.591 100.606 124.11 98.9033 124.11 98.9033H120.533ZM118.752 105.011L117.53 109.367C117.53 109.367 119.839 108.255 121.423 108.161C121.881 106.478 122.339 105.011 122.339 105.011H118.752ZM119.647 114.269L120.563 111.109H116.992L116.071 114.269H119.647ZM131.218 95.4436H135.716L135.907 97.0673C135.877 97.4806 136.128 97.678 136.661 97.678H137.456L136.652 100.429H133.346C132.084 100.493 131.435 100.021 131.374 99.0016L131.218 95.4436ZM129.9 101.345H144.469L143.614 104.298H138.975L138.18 107.044H142.814L141.954 109.992H136.793L135.625 111.72H138.151L138.734 115.18C138.804 115.524 139.116 115.691 139.65 115.691H140.434L139.61 118.541H136.832C135.393 118.61 134.65 118.137 134.589 117.119L133.919 113.959L131.621 117.321C131.077 118.27 130.242 118.713 129.116 118.644H124.874L125.699 115.794H127.023C127.566 115.794 128.018 115.558 128.426 115.081L132.023 109.992H127.385L128.244 107.044H133.276L134.076 104.298H129.04L129.9 101.345Z" fill="white"/>
<path d="M48.5886 81.2589C48.0352 83.9119 46.7523 85.9494 44.7624 87.3964C42.7906 88.8188 40.2473 89.5322 37.1336 89.5322C34.2032 89.5322 32.0549 88.8038 30.684 87.3421C29.7333 86.3035 29.2603 84.9846 29.2603 83.3899C29.2603 82.7305 29.3409 82.0218 29.502 81.2589L32.8196 65.6082H37.8302L34.5578 81.0818C34.457 81.5101 34.4168 81.9088 34.4221 82.2681C34.4168 83.0606 34.618 83.7101 35.0255 84.2168C35.6191 84.9701 36.5825 85.3439 37.9233 85.3439C39.465 85.3439 40.7354 84.975 41.7214 84.2316C42.7076 83.4934 43.3514 82.4453 43.6406 81.0818L46.9234 65.6082H51.9087L48.5886 81.2589Z" fill="white"/>
<path d="M53.204 75.097H56.743L56.3382 77.1149L56.8462 76.5391C57.9934 75.3383 59.3868 74.7426 61.0319 74.7426C62.5209 74.7426 63.5949 75.1661 64.2691 76.0174C64.933 76.8689 65.1141 78.0453 64.8001 79.5562L62.8504 89.0747H59.2133L60.9739 80.4471C61.1553 79.5562 61.1051 78.8917 60.8253 78.4634C60.5491 78.0352 60.0205 77.8239 59.2585 77.8239C58.3228 77.8239 57.5354 78.109 56.894 78.6752C56.2499 79.2461 55.825 80.0386 55.6162 81.0474L53.9938 89.0747H50.3491L53.204 75.097Z" fill="white"/>
<path d="M93.7889 75.097H97.3309L96.9288 77.1149L97.4311 76.5391C98.579 75.3383 99.9774 74.7426 101.617 74.7426C103.107 74.7426 104.183 75.1661 104.851 76.0174C105.511 76.8689 105.702 78.0453 105.38 79.5562L103.438 89.0747H99.796L101.557 80.4471C101.739 79.5562 101.688 78.8917 101.411 78.4634C101.124 78.0352 100.606 77.8239 99.8468 77.8239C98.9107 77.8239 98.1262 78.109 97.4771 78.6752C96.8327 79.2461 96.4056 80.0386 96.2046 81.0474L94.5747 89.0747H90.9346L93.7889 75.097Z" fill="white"/>
<path d="M69.6316 75.102H73.5558L70.4819 89.0698H66.5654L69.6316 75.102ZM70.8669 70.0132H74.826L74.0865 73.4036H70.1276L70.8669 70.0132Z" fill="white"/>
<path d="M77.0296 88.0066C76.0032 87.0469 75.485 85.7526 75.48 84.1087C75.48 83.828 75.4974 83.5083 75.5355 83.1586C75.5733 82.8042 75.6212 82.4597 75.6889 82.14C76.1542 79.8712 77.1454 78.0698 78.6721 76.7408C80.1963 75.4071 82.0354 74.7377 84.1885 74.7377C85.9517 74.7377 87.3501 75.2201 88.3742 76.1847C89.3976 77.1544 89.9106 78.4633 89.9106 80.1273C89.9106 80.4123 89.8883 80.7422 89.8504 81.0965C89.805 81.4558 89.7502 81.8003 89.6866 82.14C89.2317 84.3743 88.2435 86.1561 86.7165 87.4605C85.1895 88.7746 83.3559 89.4287 81.2177 89.4287C79.4471 89.4287 78.0534 88.9564 77.0296 88.0066ZM84.5079 85.2406C85.1997 84.5073 85.6951 83.3948 85.997 81.9136C86.0424 81.6824 86.0823 81.441 86.1073 81.2C86.1324 80.9636 86.1425 80.7422 86.1425 80.5404C86.1425 79.679 85.9185 79.0099 85.4684 78.5373C85.021 78.0597 84.3847 77.8238 83.5624 77.8238C82.4753 77.8238 81.59 78.1974 80.8962 78.9457C80.1963 79.694 79.7009 80.8259 79.3888 82.3319C79.3462 82.5632 79.311 82.7947 79.2785 83.021C79.2535 83.2523 79.246 83.4688 79.2508 83.6656C79.2508 84.5221 79.4748 85.1817 79.9249 85.6491C80.3723 86.1168 81.0059 86.348 81.8391 86.348C82.9309 86.348 83.8162 85.9789 84.5079 85.2406Z" fill="white"/>
<path d="M111.297 66.4347H121.58C123.557 66.4347 125.086 66.8731 126.137 67.7339C127.183 68.6054 127.707 69.8556 127.707 71.4846V71.5336C127.707 71.8435 127.686 72.1931 127.657 72.5719C127.606 72.946 127.54 73.3248 127.456 73.7188C127.003 75.8746 125.951 77.6071 124.326 78.9212C122.696 80.2303 120.765 80.8899 118.541 80.8899H113.027L111.322 89.0747H106.547L111.297 66.4347ZM113.867 76.9527H118.44C119.632 76.9527 120.578 76.6816 121.268 76.1454C121.952 75.604 122.405 74.7773 122.656 73.6553C122.696 73.448 122.722 73.2612 122.751 73.0891C122.767 72.9268 122.787 72.7639 122.787 72.607C122.787 71.8044 122.496 71.2237 121.911 70.8595C121.328 70.49 120.413 70.3132 119.144 70.3132H115.261L113.867 76.9527Z" fill="white"/>
<path d="M149.077 91.777C147.567 94.9168 146.129 96.7474 145.284 97.5989C144.438 98.4409 142.764 100.4 138.729 100.252L139.076 97.8552C142.471 96.8315 144.308 92.2194 145.354 90.1772L144.107 75.1364L146.733 75.102H148.936L149.173 84.5369L153.302 75.102H157.483L149.077 91.777Z" fill="white"/>
<path d="M137.386 76.2387L135.725 77.3562C133.989 76.0274 132.405 75.2054 129.347 76.5931C125.181 78.483 121.7 92.9777 133.17 88.2035L133.824 88.9613L138.336 89.0747L141.3 75.904L137.386 76.2387ZM134.82 83.4393C134.095 85.5311 132.476 86.914 131.208 86.5203C129.94 86.1364 129.488 84.1183 130.222 82.0218C130.946 79.925 132.576 78.5471 133.834 78.9408C135.102 79.3247 135.559 81.3425 134.82 83.4393Z" fill="white"/>
</svg>
