<svg width="500" height="350" viewBox="0 0 500 350" fill="none" xmlns="http://www.w3.org/2000/svg">
<rect width="500" height="350" rx="15" fill="#009CA6"/>
<path d="M296.423 133.686C297.141 138.02 300.853 141.352 305.435 141.449C310.591 141.58 314.876 137.513 314.997 132.402C315.125 127.264 311.043 123.022 305.88 122.897C301.199 122.774 297.263 126.101 296.471 130.523C291.632 130.396 270.188 130.712 256.029 147.053C255.994 146.604 255.968 146.146 255.935 145.694C257.632 136.286 264.612 115.9 293.187 112.43C294.523 115.577 297.557 117.89 301.241 118.118C306.401 118.413 310.816 114.506 311.119 109.372C311.427 104.259 307.487 99.8619 302.34 99.5599C297.193 99.2595 292.756 103.159 292.453 108.296V108.412C287.919 108.779 266.779 111.346 254.979 126.306C254.931 125.176 254.881 124.063 254.847 122.965C260.446 100.745 278.122 92.6883 283.341 90.7726C284.679 93.6389 287.482 95.7755 290.912 96.1061C296.056 96.5975 300.632 92.8611 301.123 87.744C301.623 82.6605 297.866 78.1281 292.709 77.6235C287.568 77.1327 283.009 80.8564 282.505 85.9647C282.466 86.3517 282.453 86.737 282.466 87.1378C271.208 90.0908 262.137 97.0579 256.54 102.363C256.786 99.4848 258.745 81.8534 269.732 72.6361C271.194 74.7549 273.546 76.2378 276.313 76.5376C281.441 77.1327 286.088 73.4775 286.673 68.3841C287.264 63.2852 283.58 58.6843 278.437 58.1134C273.322 57.5166 268.681 61.1675 268.092 66.2708C267.971 67.2512 268.026 68.2096 268.204 69.1261C264.22 71.7688 257.879 77.0168 253.72 85.3999C251.874 71.3266 255.332 61.7791 257.549 57.3604C258.629 57.9633 259.876 58.3779 261.188 58.4971C266.316 59.0602 270.935 55.3481 271.462 50.2503C272.021 45.1487 268.284 40.5908 263.154 40.0542C258.01 39.5043 253.407 43.2015 252.869 48.2938C252.606 50.7455 253.326 53.0526 254.709 54.8551C252.814 57.552 251.412 60.6297 250.376 63.8235C249.34 60.6297 247.946 57.552 246.044 54.8551C247.435 53.0526 248.156 50.7455 247.904 48.2938C247.354 43.2015 242.738 39.5043 237.611 40.0542C232.473 40.5908 228.747 45.1492 229.295 50.2503C229.831 55.3481 234.449 59.0602 239.585 58.4971C240.907 58.3784 242.129 57.9633 243.217 57.3604C245.391 61.6914 248.745 70.9109 247.159 84.5331H247.034C247.034 84.5331 247.028 84.8959 247.01 85.6003C246.98 85.9398 246.926 86.2948 246.872 86.6332C242.734 77.5092 235.969 71.8925 231.817 69.1261C231.99 68.2091 232.038 67.2512 231.922 66.2708C231.341 61.1675 226.693 57.5166 221.565 58.1134C216.428 58.6848 212.751 63.2852 213.329 68.3841C213.926 73.4775 218.559 77.1327 223.687 76.5376C226.47 76.2378 228.82 74.7549 230.291 72.6361C241.249 81.8534 243.225 99.4842 243.476 102.363C237.872 97.0579 228.82 90.0908 217.55 87.1378C217.563 86.737 217.55 86.3517 217.521 85.9647C217.012 80.8564 212.439 77.1321 207.301 77.6235C202.151 78.1281 198.395 82.66 198.893 87.744C199.385 92.8611 203.963 96.5975 209.097 96.1061C212.525 95.7755 215.314 93.6395 216.675 90.7726C222.026 92.7341 240.502 101.183 245.607 124.752C245.562 125.474 245.533 126.197 245.502 126.934C233.809 111.439 212.154 108.778 207.567 108.411V108.295C207.257 103.157 202.826 99.2579 197.676 99.5588C192.516 99.8608 188.583 104.258 188.885 109.371C189.18 114.504 193.618 118.411 198.782 118.117C202.432 117.889 205.488 115.576 206.826 112.429C237.365 116.148 243.24 139.177 244.348 147.479C230.174 130.725 208.4 130.397 203.552 130.522C202.753 126.098 198.808 122.774 194.129 122.896C188.956 123.021 184.881 127.264 185.003 132.401C185.12 137.512 189.417 141.579 194.573 141.449C199.139 141.352 202.857 138.02 203.58 133.685C211.697 134.389 218.197 136.297 223.364 138.855C215.556 139.784 209.982 144.134 207.216 146.824C205.661 145.866 203.8 145.317 201.832 145.41C196.665 145.643 192.659 149.966 192.887 155.093C193.12 160.208 197.48 164.187 202.644 163.975C207.81 163.728 211.803 159.416 211.589 154.271C211.496 152.396 210.847 150.664 209.812 149.235C220.531 140.783 230.153 144.303 233.456 145.959C237.46 149.901 239.897 154.093 241.37 157.509C235.613 154.144 229.817 157.509 226.863 159.846C225.585 159.193 224.147 158.817 222.605 158.817C217.434 158.817 213.249 162.968 213.249 168.095C213.249 173.229 217.434 177.397 222.605 177.397C227.77 177.397 231.952 173.229 231.952 168.095C231.952 166.109 231.316 164.252 230.224 162.73C239.016 157.684 242.297 165.914 243.076 168.507C241.974 182.672 240.657 194.019 239.083 197.742C239.083 197.742 243.543 201.161 250.251 200.889C256.97 201.161 261.434 197.742 261.434 197.742C259.83 193.903 258.466 182.034 257.338 167.309C258.613 164.077 262.093 158.319 269.772 162.73C268.705 164.252 268.052 166.109 268.052 168.095C268.052 173.229 272.244 177.397 277.41 177.397C282.577 177.397 286.762 173.229 286.762 168.095C286.762 162.968 282.577 158.817 277.41 158.817C275.858 158.817 274.423 159.195 273.138 159.846C270.188 157.509 264.395 154.144 258.648 157.509C260.117 154.093 262.548 149.901 266.552 145.967C269.842 144.303 279.486 140.763 290.199 149.235C289.167 150.664 288.512 152.397 288.422 154.271C288.205 159.416 292.209 163.728 297.365 163.975C302.518 164.187 306.895 160.208 307.133 155.093C307.342 149.966 303.335 145.643 298.185 145.41C296.208 145.316 294.352 145.865 292.799 146.824C290.032 144.135 284.438 139.784 276.643 138.855C281.811 136.298 288.309 134.39 296.423 133.686ZM305.742 128.4C307.838 128.459 309.492 130.178 309.451 132.262C309.403 134.346 307.655 135.985 305.554 135.94C303.48 135.896 301.818 134.165 301.86 132.092C301.905 130.007 303.64 128.369 305.742 128.4ZM302.014 105.069C304.107 105.198 305.704 106.971 305.581 109.053C305.456 111.139 303.654 112.706 301.561 112.59C299.481 112.473 297.876 110.676 297.995 108.615C298.133 106.532 299.908 104.949 302.014 105.069ZM292.187 83.1094C294.261 83.3307 295.798 85.1564 295.583 87.2206C295.38 89.2942 293.531 90.8195 291.453 90.6087C289.36 90.4033 287.85 88.5599 288.028 86.4908C288.232 84.4178 290.09 82.915 292.187 83.1094ZM273.612 66.9056C273.851 64.8238 275.733 63.3547 277.807 63.5783C279.903 63.824 281.388 65.6756 281.152 67.752C280.915 69.815 279.038 71.3067 276.952 71.0577C274.868 70.8204 273.376 68.9593 273.612 66.9056ZM258.399 48.8856C258.614 46.812 260.492 45.3132 262.558 45.5263C264.651 45.7526 266.173 47.6164 265.942 49.68C265.716 51.7415 263.858 53.2403 261.772 53.0305C259.676 52.8081 258.172 50.9371 258.399 48.8856ZM239 53.0305C236.911 53.2398 235.054 51.7415 234.814 49.68C234.601 47.6159 236.113 45.7521 238.19 45.5263C240.279 45.3132 242.141 46.812 242.37 48.8856C242.588 50.9371 241.08 52.8081 239 53.0305ZM223.062 71.0577C220.981 71.3067 219.099 69.815 218.866 67.752C218.624 65.6756 220.107 63.824 222.211 63.5783C224.272 63.3547 226.166 64.8244 226.407 66.9056C226.631 68.9593 225.135 70.8204 223.062 71.0577ZM208.56 90.6087C206.48 90.8195 204.63 89.2942 204.412 87.2206C204.22 85.1564 205.746 83.3313 207.834 83.1094C209.927 82.915 211.768 84.4183 211.982 86.4908C212.179 88.5599 210.653 90.4033 208.56 90.6087ZM198.459 112.591C196.35 112.706 194.548 111.14 194.429 109.053C194.318 106.971 195.916 105.198 198.001 105.07C200.096 104.95 201.873 106.532 202.012 108.616C202.128 110.676 200.531 112.473 198.459 112.591ZM194.449 135.941C192.354 135.986 190.6 134.348 190.565 132.264C190.517 130.179 192.177 128.459 194.269 128.402C196.357 128.369 198.108 130.007 198.15 132.094C198.196 134.166 196.542 135.896 194.449 135.941ZM222.605 171.88C220.506 171.88 218.815 170.189 218.815 168.096C218.815 166.018 220.506 164.346 222.605 164.346C224.701 164.346 226.407 166.018 226.407 168.096C226.407 170.188 224.701 171.88 222.605 171.88ZM281.207 168.095C281.207 170.188 279.497 171.88 277.411 171.88C275.309 171.88 273.613 170.188 273.613 168.095C273.613 166.017 275.309 164.345 277.411 164.345C279.497 164.345 281.207 166.018 281.207 168.095ZM254.115 104.719L254.302 104.574L254.115 104.764V104.719ZM245.7 104.574L246.379 105.103V105.217L245.7 104.574ZM202.41 158.445C200.308 158.534 198.525 156.928 198.459 154.853C198.366 152.758 199.984 151.012 202.078 150.908C204.167 150.831 205.937 152.446 206.032 154.518C206.119 156.603 204.489 158.362 202.41 158.445ZM297.925 150.91C300.033 151.014 301.649 152.759 301.56 154.854C301.484 156.93 299.695 158.534 297.602 158.446C295.53 158.364 293.896 156.605 293.967 154.521C294.065 152.447 295.848 150.834 297.925 150.91Z" fill="white"/>
<path d="M196.214 249.817C205.949 247.536 210.833 242.325 210.833 234.187C210.833 222.718 202.757 217 186.59 217H157V287H190.1C205.926 287 213.818 280.804 213.818 268.389C213.819 258.348 207.966 252.157 196.214 249.817ZM174.229 223.832H185.589C191.754 223.832 196.362 227.54 196.362 234.941C196.362 242.946 191.922 246.965 186.094 246.965H174.229L174.229 223.832ZM185.649 280.139H174.229V253.758H186.793C194.662 253.758 198.614 258.456 198.614 267.842C198.614 276.051 193.305 280.139 185.649 280.139Z" fill="white"/>
<path d="M249.612 242.532C241.118 239.614 237.328 234.566 237.328 230.507C237.328 228.825 237.702 227.412 238.428 226.268L239.082 225.411C240.053 224.346 241.416 223.564 243.172 223.066C258.772 219.196 269.772 237.116 269.772 237.116V222.388C263.278 218.041 255.05 217.145 250.556 217.008H248.102C241.355 217.193 235.853 219.032 231.618 222.554C227.134 226.268 224.9 231.152 224.9 237.227C224.9 247.977 232.391 254.225 245.801 259.109C255.084 262.515 258.946 268.029 258.946 272.533C258.946 274.116 258.926 275.198 257.987 276.879C257.987 276.879 256.486 279.035 253.362 279.939C238.058 284.344 227.197 266.782 227.197 266.782V281.514V281.994C233.576 285.983 241.416 286.857 245.769 286.983H248.487C248.849 286.968 249.054 286.953 249.054 286.953L249.01 286.983H249.356V286.997H249.393C257.039 286.997 263.135 285.049 267.729 281.181C272.328 277.292 274.629 272.142 274.629 265.73C274.63 254.799 266.002 248.12 249.612 242.532Z" fill="white"/>
<path d="M335.773 217.001H334.548V266.631L301.262 217.001H288.298V286.996H295.172H296.398V240.928L326.993 286.996H342.647V217.001H335.773Z" fill="white"/>
</svg>
