<svg width="180" height="180" viewBox="0 0 180 180" fill="none" xmlns="http://www.w3.org/2000/svg">
<rect width="180" height="180" rx="15" fill="#009CA6"/>
<path d="M129.947 101.514C130.572 105.286 133.802 108.185 137.788 108.269C142.275 108.383 146.003 104.845 146.108 100.397C146.219 95.9266 142.667 92.2356 138.176 92.127C134.103 92.0199 130.678 94.9145 129.989 98.762C125.778 98.652 107.121 98.9273 94.8009 113.145C94.7703 112.754 94.748 112.355 94.7188 111.963C96.1959 103.776 102.269 86.0392 127.131 83.0202C128.294 85.7582 130.934 87.7703 134.139 87.9692C138.629 88.2257 142.47 84.8263 142.733 80.3596C143.001 75.9106 139.573 72.0847 135.095 71.822C130.617 71.5606 126.757 74.9533 126.493 79.4229V79.5238C122.548 79.8432 104.154 82.0768 93.8871 95.0932C93.8453 94.1099 93.8026 93.142 93.773 92.1866C98.6445 72.8528 114.024 65.8431 118.564 64.1763C119.729 66.6703 122.168 68.5292 125.152 68.8169C129.628 69.2444 133.609 65.9935 134.036 61.5412C134.471 57.1182 131.202 53.1745 126.716 52.7355C122.243 52.3085 118.276 55.5484 117.837 59.993C117.804 60.3297 117.792 60.665 117.804 61.0137C108.008 63.5831 100.116 69.645 95.2457 74.2607C95.4598 71.7566 97.1641 56.4159 106.724 48.3961C107.996 50.2396 110.042 51.5298 112.45 51.7907C116.911 52.3085 120.955 49.1281 121.464 44.6965C121.978 40.26 118.772 36.2568 114.297 35.7602C109.847 35.2409 105.809 38.4174 105.297 42.8577C105.191 43.7108 105.239 44.5447 105.394 45.342C101.928 47.6415 96.4105 52.2076 92.7921 59.5016C91.1854 47.2567 94.1949 38.9496 96.1235 35.105C97.0636 35.6295 98.1478 35.9902 99.2898 36.094C103.751 36.5839 107.77 33.3541 108.229 28.9186C108.715 24.4798 105.464 20.514 101 20.0472C96.5246 19.5687 92.5193 22.7856 92.0512 27.2163C91.823 29.3495 92.4489 31.3568 93.6525 32.9252C92.0041 35.2716 90.7839 37.9496 89.8827 40.7283C88.981 37.9496 87.7686 35.2716 86.1133 32.9252C87.3233 31.3568 87.9507 29.3495 87.7312 27.2163C87.2529 22.7856 83.2364 19.5687 78.7756 20.0472C74.3051 20.514 71.0635 24.4802 71.5404 28.9186C72.0065 33.3541 76.0249 36.5839 80.493 36.094C81.6438 35.9907 82.7067 35.6295 83.6535 35.105C85.5452 38.8733 88.4629 46.895 87.083 58.7475H86.9747C86.9747 58.7475 86.9694 59.0631 86.9533 59.676C86.9276 59.9714 86.8805 60.2803 86.8339 60.5747C83.2335 52.6361 77.3471 47.749 73.7346 45.342C73.8851 44.5442 73.9269 43.7108 73.8263 42.8577C73.3209 38.4174 69.2767 35.2409 64.8144 35.7602C60.3449 36.2573 57.1456 40.26 57.6481 44.6965C58.1677 49.1281 62.1992 52.3085 66.661 51.7907C69.082 51.5298 71.1271 50.2396 72.4071 48.3961C81.9414 56.4159 83.6608 71.7561 83.8793 74.2607C79.0033 69.645 71.1271 63.5831 61.3214 61.0137C61.3325 60.665 61.3214 60.3297 61.2961 59.993C60.8533 55.5484 56.8742 52.308 52.4036 52.7355C47.9229 53.1745 44.6547 57.1177 45.0878 61.5412C45.516 65.9935 49.4991 69.2444 53.9667 68.8169C56.9489 68.5292 59.3757 66.6707 60.5595 64.1763C65.216 65.883 81.2913 73.2342 85.7327 93.7415C85.6938 94.3698 85.669 94.9985 85.6414 95.6393C75.468 82.1575 56.6265 79.8422 52.6353 79.5228V79.4219C52.3653 74.9519 48.5105 71.5592 44.0288 71.821C39.5393 72.0837 36.1176 75.9097 36.3803 80.3586C36.6367 84.8249 40.4983 88.2242 44.9912 87.9682C48.1677 87.7694 50.8266 85.7572 51.9904 83.0192C78.562 86.2548 83.6739 106.292 84.6377 113.515C72.3051 98.9383 53.3602 98.6525 49.1417 98.7615C48.4469 94.9126 45.0145 92.0199 40.9431 92.1261C36.4425 92.2346 32.8965 95.9266 33.0023 100.397C33.1048 104.844 36.8435 108.382 41.3291 108.269C45.3019 108.184 48.5372 105.286 49.1665 101.514C56.2284 102.126 61.8841 103.786 66.3794 106.012C59.5865 106.82 54.7363 110.605 52.3294 112.946C50.9766 112.112 49.3573 111.634 47.6452 111.715C43.1499 111.918 39.6636 115.68 39.8622 120.141C40.0647 124.591 43.8588 128.053 48.3517 127.868C52.8465 127.653 56.3206 123.902 56.1342 119.425C56.0541 117.794 55.4889 116.286 54.5882 115.043C63.9147 107.689 72.2867 110.752 75.1607 112.193C78.6445 115.623 80.7644 119.27 82.0463 122.242C77.0378 119.315 71.9948 122.242 69.4243 124.275C68.3119 123.708 67.0611 123.38 65.719 123.38C61.2204 123.38 57.5792 126.992 57.5792 131.453C57.5792 135.92 61.2204 139.547 65.719 139.547C70.2133 139.547 73.8521 135.92 73.8521 131.453C73.8521 129.725 73.299 128.11 72.3488 126.785C79.9982 122.394 82.8528 129.556 83.5307 131.812C82.5717 144.136 81.4258 154.009 80.0565 157.248C80.0565 157.248 83.9371 160.223 89.7739 159.987C95.62 160.223 99.504 157.248 99.504 157.248C98.108 153.908 96.9213 143.581 95.94 130.769C97.0495 127.957 100.077 122.947 106.759 126.785C105.83 128.11 105.262 129.725 105.262 131.453C105.262 135.92 108.909 139.547 113.404 139.547C117.9 139.547 121.541 135.92 121.541 131.453C121.541 126.992 117.9 123.38 113.404 123.38C112.054 123.38 110.805 123.709 109.687 124.275C107.12 122.242 102.08 119.315 97.0796 122.242C98.3581 119.27 100.473 115.623 103.957 112.2C106.82 110.752 115.211 107.672 124.531 115.043C123.634 116.286 123.064 117.794 122.986 119.425C122.797 123.902 126.28 127.653 130.766 127.868C135.25 128.053 139.059 124.591 139.266 120.141C139.447 115.68 135.961 111.918 131.48 111.715C129.76 111.633 128.145 112.111 126.794 112.946C124.387 110.606 119.519 106.82 112.737 106.012C117.234 103.787 122.887 102.127 129.947 101.514ZM138.055 96.9151C139.879 96.9665 141.319 98.4618 141.282 100.276C141.24 102.089 139.72 103.515 137.892 103.476C136.087 103.437 134.641 101.931 134.678 100.127C134.717 98.3134 136.227 96.8882 138.055 96.9151ZM134.812 76.6153C136.633 76.7272 138.023 78.2701 137.915 80.0815C137.807 81.8972 136.239 83.2599 134.417 83.1595C132.608 83.0572 131.212 81.4937 131.315 79.701C131.435 77.8882 132.98 76.5111 134.812 76.6153ZM126.261 57.5087C128.066 57.7013 129.403 59.2898 129.217 61.0858C129.039 62.89 127.431 64.2171 125.623 64.0337C123.802 63.855 122.488 62.2511 122.643 60.4508C122.82 58.6471 124.437 57.3396 126.261 57.5087ZM110.1 43.4101C110.308 41.5987 111.945 40.3205 113.75 40.5151C115.573 40.7288 116.865 42.3399 116.66 44.1465C116.454 45.9415 114.82 47.2394 113.005 47.0228C111.192 46.8162 109.894 45.197 110.1 43.4101ZM96.8635 27.7312C97.0505 25.927 98.6839 24.6229 100.482 24.8083C102.303 25.0053 103.627 26.6269 103.426 28.4224C103.229 30.216 101.613 31.5202 99.7977 31.3376C97.974 31.144 96.6659 29.5162 96.8635 27.7312ZM79.9842 31.3376C78.1667 31.5197 76.5513 30.216 76.3425 28.4224C76.1565 26.6264 77.4724 25.0048 79.2796 24.8083C81.0971 24.6229 82.7174 25.927 82.9169 27.7312C83.1063 29.5162 81.7943 31.144 79.9842 31.3376ZM66.1167 47.0228C64.3061 47.2394 62.6688 45.9415 62.4663 44.1465C62.2556 42.3399 63.5457 40.7288 65.3767 40.5151C67.1699 40.3205 68.8178 41.5992 69.0271 43.4101C69.2223 45.197 67.9205 46.8162 66.1167 47.0228ZM53.4991 64.0337C51.6894 64.2171 50.0798 62.89 49.8904 61.0858C49.7234 59.2898 51.0504 57.7018 52.8678 57.5087C54.6887 57.3396 56.29 58.6476 56.4765 60.4508C56.6484 62.2511 55.3199 63.855 53.4991 64.0337ZM44.7105 83.16C42.8751 83.2604 41.3073 81.8976 41.2038 80.0819C41.1077 78.2706 42.4978 76.7277 44.3119 76.6158C46.1351 76.5115 47.6806 77.8882 47.802 79.7015C47.903 81.4941 46.5134 83.0577 44.7105 83.16ZM41.2218 103.476C39.3985 103.516 37.8724 102.09 37.8418 100.277C37.8001 98.4632 39.2446 96.967 41.0645 96.9165C42.8819 96.8882 44.4046 98.3134 44.4415 100.129C44.4813 101.932 43.0426 103.438 41.2218 103.476ZM65.7195 134.746C63.8929 134.746 62.4221 133.275 62.4221 131.454C62.4221 129.646 63.8929 128.191 65.7195 128.191C67.5428 128.191 69.0276 129.646 69.0276 131.454C69.0271 133.274 67.5428 134.746 65.7195 134.746ZM116.708 131.453C116.708 133.274 115.22 134.746 113.405 134.746C111.576 134.746 110.1 133.274 110.1 131.453C110.1 129.645 111.576 128.19 113.405 128.19C115.22 128.19 116.708 129.646 116.708 131.453ZM93.1359 76.3112L93.2986 76.1849L93.1359 76.3502V76.3112ZM85.8137 76.1849L86.4051 76.6451V76.7445L85.8137 76.1849ZM48.1482 123.057C46.3196 123.134 44.7678 121.737 44.7105 119.931C44.6294 118.108 46.0375 116.59 47.8593 116.499C49.6773 116.432 51.2165 117.837 51.3 119.64C51.3752 121.454 49.9574 122.984 48.1482 123.057ZM131.254 116.501C133.088 116.591 134.495 118.11 134.417 119.933C134.351 121.738 132.794 123.135 130.973 123.057C129.17 122.986 127.748 121.456 127.81 119.643C127.896 117.838 129.447 116.434 131.254 116.501Z" fill="white"/>
</svg>
