<svg width="800" height="180" viewBox="0 0 800 180" fill="none" xmlns="http://www.w3.org/2000/svg">
<rect width="800" height="180" rx="15" fill="white"/>
<path d="M216 25H213V155H216V25Z" fill="#231F20"/>
<path d="M427.998 74.8203C427.998 56.6551 411.18 57.1229 397.082 57.1229H382.892V122.484H396.049V95.327H400.279C405.821 95.327 407.516 97.2009 409.393 102.07L417.288 122.483H431.949L421.424 96.9152C420.112 94.0148 418.041 90.4572 414.47 90.1769V89.9886C422.835 88.8682 427.998 82.5004 427.998 74.8203ZM414.276 75.946C414.276 84.0868 406.86 85.0286 400.372 85.0286H396.049V67.424H400.372C406.948 67.424 414.276 68.0775 414.276 75.946Z" fill="#231F20"/>
<path d="M497.463 89.6173C497.463 69.8551 485.9 56 465.323 56C444.463 56 433.181 69.5757 433.181 89.6173C433.181 109.655 444.272 123.609 465.323 123.609C486.093 123.61 497.463 109.374 497.463 89.6173ZM483.744 89.6173C483.744 101.413 478.759 113.309 465.323 113.309C451.882 113.309 446.9 101.413 446.9 89.6173C446.9 78.0985 452.26 66.2976 465.323 66.2976C478.382 66.2985 483.744 78.0985 483.744 89.6173Z" fill="#231F20"/>
<path d="M316.16 122.484L290.412 57.123H275.565L250 122.484H263.632L269.361 107.503H295.955L301.591 122.484H316.16ZM292.289 97.2019H273.12L282.61 70.2336H282.801L292.289 97.2019Z" fill="#231F20"/>
<path d="M371.03 58.713C365.389 57.0267 359.375 56.0009 351.758 56.0009C329.492 56.0009 315.77 68.5464 315.77 90.9287C315.77 113.025 330.523 123.61 351.758 123.61C358.811 123.61 366.047 122.111 373.002 120.238V85.0296H346.502V95.3281H360.406V112.371C358.154 112.932 355.333 113.305 351.76 113.305C337.762 113.305 329.493 103.288 329.493 89.9896C329.493 76.6032 337.948 66.2976 353.265 66.2976C358.535 66.2976 365.112 67.4233 370.184 69.7631L371.03 58.713Z" fill="#231F20"/>
<path d="M551.776 73.6516C551.776 59.3233 539.092 56.8915 530.632 56.8915H507.239V122.252H530.632C538.901 122.252 553.752 119.815 553.752 103.337C553.752 95.284 547.639 89.2921 538.716 88.4476V88.2592C546.514 86.8576 551.776 81.4236 551.776 73.6516ZM520.396 93.0353H527.064C533.641 93.0353 540.598 94.3493 540.598 102.868C540.598 110.45 533.169 111.952 527.064 111.952H520.396V93.0353ZM538.62 75.3379C538.62 82.0806 531.761 83.2974 526.219 83.2974H520.395V67.1927H525.934C531.951 67.1927 538.62 67.7542 538.62 75.3379Z" fill="#231F20"/>
<path d="M623.465 122.252L597.71 56.8907H582.867L557.304 122.252H570.929L576.664 107.27H603.257L608.896 122.252H623.465ZM599.591 96.9714H580.419L589.915 70.0013H590.098L599.591 96.9714Z" fill="#231F20"/>
<path d="M630.337 122.251H642.931V73.3703H643.114L668.209 122.251H684.276V56.8915H671.688V105.768H671.496L646.499 56.8915H630.337V122.251Z" fill="#231F20"/>
<path d="M695.871 122.251H709.028V91.9148H709.219L732.806 122.251H750L721.902 87.6949L748.874 56.887H732.71L709.028 84.9819V56.887H695.871V122.251Z" fill="#231F20"/>
<path d="M180 146H122.86C127.916 143.236 131.342 137.886 131.342 131.746C131.342 122.764 124.023 115.48 114.996 115.48C105.97 115.48 98.6541 122.764 98.6541 131.746C98.6541 137.886 102.08 143.236 107.136 146H50L114.996 34L180 146Z" fill="#E31B23"/>
</svg>
