<svg width="180" height="180" viewBox="0 0 180 180" fill="none" xmlns="http://www.w3.org/2000/svg">
<circle cx="90" cy="90" r="90" fill="#FBD0CA"/>
<path d="M20.6405 109.983H17.1988C15.9328 109.983 15 109.017 15 107.667V72.3594C15 71.1804 15.7518 70 17.1988 70H24.3305C25.1533 70 25.7232 70.5361 25.9355 70.7562L26.0615 70.9124L45.1512 97.3347V72.3594C45.1512 70.9794 46.0964 70 47.4051 70H50.854C52.3032 70 53.0499 71.1865 53.0499 72.3594V107.667C53.0499 109.013 52.1272 109.983 50.8554 109.983H46.0421C45.4779 109.983 45.0484 109.771 44.8449 109.64C44.6102 109.485 44.4176 109.303 44.2829 109.162C44.1641 109.042 44.0431 108.905 43.9454 108.791C43.8563 108.673 43.7824 108.577 43.7462 108.533L22.8415 79.9206V107.667C22.8415 109.017 21.9086 109.983 20.6405 109.983Z" fill="#EE3151"/>
<path d="M53.0535 85.8257H79.5212C80.5649 85.8257 80.9741 86.6848 80.9741 87.5074V92.5035C80.9741 93.3252 80.5649 94.1881 79.5212 94.1881H53.0535V85.8257ZM53.0535 101.634H80.6597C81.623 101.634 82.1111 102.372 82.1111 103.241V108.383C82.1111 109.248 81.623 109.992 80.6597 109.992H50.1348L50.8554 109.982C52.1265 109.982 53.0535 109.014 53.0535 107.668V101.634ZM53.0535 72.3568C53.0535 71.2098 52.3343 70.043 50.938 70.0004H80.6597C81.7034 70.0004 82.1111 70.8686 82.1111 71.6843V76.5753C82.1111 77.41 81.7628 78.3628 80.6597 78.3628H53.0535V72.3568Z" fill="#2A57A5"/>
<path d="M125.891 107.1C123.199 104.855 121.936 101.61 121.936 97.6602C121.936 96.5604 122.632 95.3479 124.082 95.3479H127.525C128.79 95.3479 129.722 96.319 129.722 97.6602C129.768 98.603 129.927 99.3022 130.166 99.8246C130.347 100.218 130.653 100.557 131.175 100.822C131.575 101.03 132.187 101.253 133.041 101.42C133.9 101.599 134.905 101.672 136.059 101.672H151.751C152.921 101.672 153.829 101.582 154.512 101.427C155.229 101.262 155.734 101.055 156.067 100.838C156.48 100.576 156.732 100.255 156.886 99.8437C157.083 99.2847 157.206 98.5573 157.206 97.6046C157.206 95.9823 156.582 95.0479 155.245 94.4797C154.663 94.204 153.757 93.9549 152.545 93.8118C151.259 93.661 138.821 93.7653 138.47 93.7653C133.723 93.7653 129.933 93.1941 127.287 91.8682C123.482 89.9801 121.667 86.4394 121.667 81.7343C121.667 80.5149 121.779 79.3855 121.986 78.3573H105.785V107.668C105.785 109.017 104.852 109.992 103.584 109.992H100.137C98.6865 109.992 97.9912 108.765 97.9912 107.668V78.3573H80.7605C81.7919 78.2987 82.1113 77.3809 82.1113 76.5751V71.6841C82.1113 70.8654 81.7071 70.0002 80.6562 70.0002H151.319C159.796 70.0002 164.732 74.0405 164.732 82.3055C164.732 83.3313 164.078 84.5644 162.639 84.5644H159.08C157.839 84.5644 156.935 83.604 156.935 82.3131C156.904 81.4121 156.732 80.7168 156.496 80.1935C156.305 79.7533 155.989 79.4022 155.486 79.1517C154.601 78.6825 153.046 78.3573 150.662 78.3573H133.929C132.872 78.3573 132.077 78.4449 131.476 78.5888C130.876 78.7526 130.493 78.9376 130.269 79.0953C129.986 79.291 129.507 79.8965 129.507 81.7898C129.507 83.0922 130.03 83.9581 131.452 84.559C132.811 85.1447 135.11 85.5133 138.517 85.5133C138.718 85.5133 142.1 85.5095 145.657 85.5423C149.111 85.5735 153.031 85.6466 154.102 85.8256C156.027 86.1462 157.735 86.642 159.148 87.297C163.047 89.3214 165 92.9413 165 97.7196C165 101.882 163.925 105.317 161.414 107.513C160.293 108.444 159.319 109.354 157.725 109.745C156.235 110.069 153.99 109.992 151.92 109.992H134.965C131.298 109.992 128.199 109.106 125.891 107.1Z" fill="#EE3151"/>
</svg>
